<?xml version="1.0" encoding="UTF-8" standalone="no"?>
<svg width="279px" height="321px" viewBox="0 0 279 321" version="1.1" xmlns="http://www.w3.org/2000/svg" xmlns:xlink="http://www.w3.org/1999/xlink" xmlns:sketch="http://www.bohemiancoding.com/sketch/ns">
    <title>announcer</title>
    <description>Created with Sketch (http://www.bohemiancoding.com/sketch)</description>
    <defs></defs>
    <g id="Page 1" stroke="none" stroke-width="1" fill="none" fill-rule="evenodd">
        <g id="Artboard 1" transform="translate(-386.000000, -1231.000000)">
            <g id="announcer" transform="translate(375.000000, 1209.395782)">
                <path d="M238.314084,121.16041 C238.314084,121.16041 222.122492,86.4726446 232.436002,86.472643 C242.749513,86.4726409 234.221748,101.330983 243.940011,101.330992 C253.658274,101.331001 257.75061,63.5795582 274.372102,72.3105817 C290.993595,81.0416022 296.966751,93.2540604 279.233299,115.404436 C261.499847,137.554811 238.314084,121.16041 238.314084,121.16041 Z M238.314084,121.16041" id="Path 130" fill="#5F822C"></path>
                <g id="Group">
                    <g transform="translate(96.934094, 120.162590) scale(-1, 1) rotate(-351.000000) translate(-96.934094, -120.162590) translate(34.934094, 51.162590)">
                        <path d="M61.5,138 C103.552541,138 123,118.50208 123,76.3404255 C123,34.1787706 103.552541,-4.26325641e-14 61.5,-4.26325641e-14 C19.4474591,-4.26325641e-14 2.55795385e-13,34.1787706 2.55795385e-13,76.3404255 C2.55795385e-13,118.50208 19.4474591,138 61.5,138 Z M61.5,138" id="Oval 2 copy 3" fill="#5F822C"></path>
                        <path d="M8.92557669,73.7054611 C8.46769381,73.814415 8.01488203,73.8296264 7.563347,73.7174214 C6.69023168,73.5004549 6.0127867,72.8754736 5.80952736,72.0670315 C5.68032007,71.6389042 5.64616245,71.2153188 5.74788581,70.8086931 C5.95244493,69.9909952 6.62641098,69.383812 7.50134708,69.2141086 C10.5573814,68.5491994 13.2477684,66.9722557 15.0462693,64.8768938 C17.1686435,62.4339543 18.2243431,60.2943029 19.2935137,56.0204356 C19.6090217,54.7592342 20.8917062,54.2970127 22.1872384,54.6189485 C23.431812,54.9282212 24.3233989,55.9563224 24.0139156,57.1934409 C22.953779,61.4311962 22.9056438,63.6972119 23.7013251,66.7994857 C24.3678012,69.4327474 26.179159,72.3065933 28.4972069,74.3496768 C29.1844519,74.9050539 29.3887287,75.7421998 29.1935202,76.5225201 C29.0891456,76.9397435 28.8531734,77.3278153 28.5357744,77.6470294 L28.4559437,77.7208782 C27.8237552,78.2587468 27.0205864,78.4401445 26.2204187,78.2413053 C25.7722869,78.1299459 25.351021,77.8959518 24.9604173,77.5510331 C21.9645581,74.7083214 19.888946,71.1963971 19.0840279,67.348767 C16.599497,70.4693749 13.2715168,72.4719119 8.92557669,73.7054611 Z M8.92557669,73.7054611" id="人 人 copy 3" fill="#FFFFFF"></path>
                        <path d="M40.8640184,80.9232888 C40.4061355,81.0322427 39.9533237,81.0474541 39.5017887,80.9352491 C38.6286734,80.7182826 37.9512284,80.0933013 37.7479691,79.2848592 C37.6187618,78.8567318 37.5846041,78.4331465 37.6863275,78.0265208 C37.8908866,77.2088229 38.5648527,76.6016397 39.4397888,76.4319363 C42.4958231,75.7670271 45.1862101,74.1900834 46.9847111,72.0947215 C49.1070852,69.651782 50.1627848,67.5121306 51.2319554,63.2382633 C51.5474634,61.9770619 52.8301479,61.5148404 54.1256801,61.8367762 C55.3702537,62.1460489 56.2618406,63.1741501 55.9523573,64.4112686 C54.8922207,68.6490239 54.8440855,70.9150395 55.6397668,74.0173134 C56.3062429,76.6505751 58.1176007,79.524421 60.4356486,81.5675045 C61.1228936,82.1228816 61.3271704,82.9600275 61.1319619,83.7403478 C61.0275873,84.1575712 60.7916152,84.545643 60.4742161,84.864857 L60.3943854,84.9387059 C59.7621969,85.4765744 58.9590281,85.6579722 58.1588604,85.459133 C57.7107286,85.3477736 57.2894627,85.1137795 56.898859,84.7688608 C53.9029999,81.9261491 51.8273877,78.4142248 51.0224696,74.5665946 C48.5379387,77.6872026 45.2099585,79.6897396 40.8640184,80.9232888 Z M40.8640184,80.9232888" id="人 人 copy 4" fill="#FFFFFF"></path>
                    </g>
                    <g transform="translate(83.474517, 64.526853) rotate(-3.000000) translate(-83.474517, -64.526853) translate(3.974517, 5.026853)">
                        <path d="M71.210704,21 C46.9732516,21.0000015 29.7152506,26.6479143 27.4699624,34.0728961 L25,76.5853527 C25,87.0631018 54.8725992,92 79.4299871,92 C106.337286,92 129.445444,85.9405462 127.929374,76.5853537 L127.929374,34.0728961 C122.268194,28.7057878 98.4379386,21 71.210704,21 Z M71.210704,21" id="Rectangle 25" fill="#FFFFFF" transform="translate(76.500000, 56.500000) rotate(-15.000000) translate(-76.500000, -56.500000) "></path>
                        <path d="M79.4937068,102 C37.8072852,102 4,90.5907738 4,76.5 C4,62.4092262 37.8072852,51 79.4937068,51 C121.192715,51 155,62.4092262 155,76.5 C155,90.5907738 121.192715,102 79.4937068,102 L79.4937068,102 L79.4937068,102 Z M80.4873718,64 C52.6170293,64 30,69.8218504 30,77 C30,84.1781496 52.6170293,90 80.4873718,90 C108.382971,90 131,84.1781496 131,77 C131,69.8218504 108.382971,64 80.4873718,64 L80.4873718,64 L80.4873718,64 Z M80.4873718,64" id="Shape" fill="#FFFFFF" transform="translate(79.500000, 76.500000) rotate(-13.000000) translate(-79.500000, -76.500000) "></path>
                        <path d="M129.510597,54.6111677 L130.918859,59.866872 C134.736367,68.2563591 113.939725,79.9253007 87.9492695,86.8894222 C64.2286544,93.2453419 34.1321693,96.342591 31.4967182,86.5069534 L31.0871585,84.5079639 C41.4413748,88.1486954 64.6125089,85.0006083 83.7645745,79.8688278 C108.040993,73.3639812 128.791763,62.7763772 129.510597,54.6111677 Z M129.510597,54.6111677" id="Rectangle 25" fill="#5F822C"></path>
                    </g>
                </g>
                <g id="Group" transform="translate(122.044757, 250.613543) rotate(-348.000000) translate(-122.044757, -250.613543) translate(35.044757, 144.113543)">
                    <path d="M171.600272,91.9522749 C171.711258,91.9521049 171.966671,91.9588426 172.352091,91.9813217 C173.028042,92.0207456 173.789516,92.0932068 174.612376,92.2068464 C176.93971,92.5282585 179.25429,93.1059855 181.359398,93.9826306 C186.93483,96.3044472 189.979615,100.127593 189.979588,106.543052 C189.979565,115.099038 187.114603,118.703845 181.696513,120.09662 C179.542928,120.650221 177.594756,120.784078 174.044672,120.779333 C169.825221,120.778954 167.25502,119.614742 165.43174,117.667612 C164.370088,116.533844 163.802725,115.427083 163.652003,114.925935 C162.84901,112.255996 160.007015,110.734626 157.30423,111.527861 C154.601445,112.321096 153.061359,115.128553 153.864352,117.798492 C154.036389,118.370512 154.348449,119.16748 154.836095,120.118736 C155.608199,121.624888 156.627268,123.118823 157.936282,124.516756 C161.649394,128.482088 166.910864,130.865353 173.62952,130.865354 C178.413886,130.871582 181.021682,130.692402 184.267876,129.857935 C194.15481,127.316398 200.190036,119.722642 200.190071,106.543086 C200.190117,95.7138452 194.428183,88.4789467 185.325703,84.6883362 C182.326518,83.4393642 179.172621,82.6521409 176.026075,82.217593 C174.115651,81.9537574 172.582042,81.8643118 171.593057,81.8658802 C171.58726,81.8658916 -20.7046878,81.8658757 -20.7046878,81.8658757 C-23.5242348,81.8658757 -25.8099293,84.1237931 -25.8099293,86.9090753 C-25.8099293,89.6943575 -23.5242348,91.9522749 -20.7046878,91.9522749 L171.600272,91.9522749 Z M171.600272,91.9522749" id="Line" fill="#FFFFFF" transform="translate(87.190071, 106.365860) scale(-1, 1) rotate(-126.000000) translate(-87.190071, -106.365860) "></path>
                    <path d="M75.6638626,99.0988694 C80.6264141,84.261699 97.837791,88.5865851 97.837791,88.5865851 C97.837791,88.5865851 130.999999,96.3768859 131,107.201087 C131,118.025289 105.329331,89.0341581 118.164667,113.552292 C131,138.070427 103.820013,150.608582 85.8668194,138.070427 C67.9136256,125.532272 75.6638626,113.552292 75.6638626,99.0988694 Z M75.6638626,99.0988694" id="Path 129" fill="#5F822C" transform="translate(102.500000, 115.500000) rotate(-49.000000) translate(-102.500000, -115.500000) "></path>
                </g>
            </g>
        </g>
    </g>
</svg>