<?xml version="1.0" encoding="UTF-8" standalone="no"?>
<svg width="220px" height="221px" viewBox="0 0 220 221" version="1.1" xmlns="http://www.w3.org/2000/svg" xmlns:xlink="http://www.w3.org/1999/xlink" xmlns:sketch="http://www.bohemiancoding.com/sketch/ns">
    <!-- Generator: Sketch 3.3 (11970) - http://www.bohemiancoding.com/sketch -->
    <title>feature-mail</title>
    <desc>Created with Sketch.</desc>
    <defs></defs>
    <g id="Page-1" stroke="none" stroke-width="1" fill="none" fill-rule="evenodd" sketch:type="MSPage">
        <g id="Artboard-4" sketch:type="MSArtboardGroup" transform="translate(-1010.000000, -888.000000)">
            <g id="feature-mail" sketch:type="MSLayerGroup" transform="translate(1010.000000, 888.500000)">
                <circle id="Oval-34" fill="#73A131" sketch:type="MSShapeGroup" cx="110" cy="110.298092" r="110"></circle>
                <g id="Letter" transform="translate(44.663793, 67.548092)" sketch:type="MSShapeGroup">
                    <ellipse id="Oval-9" fill="#5F822C" cx="65.3362069" cy="95.5422587" rx="55.3362069" ry="2.53448276"></ellipse>
                    <g id="Group" transform="translate(62.371085, 40.248782) rotate(-4.000000) translate(-62.371085, -40.248782) translate(2.371085, 4.248782)">
                        <path d="M119,69.2682927 C119,70.2207317 118.210409,71 117.245353,71 L2.75464684,71 C1.78959108,71 1,70.2207317 1,69.2682927 L1,1.73170732 C1,0.779268293 1.78959108,1.42108547e-14 2.75464684,1.42108547e-14 L117.245353,1.42108547e-14 C118.210409,1.42108547e-14 119,0.779268293 119,1.73170732 L119,69.2682927 L119,69.2682927 Z" id="Shape" fill="#D8DBE1"></path>
                        <g transform="translate(1.000000, 32.457143)" id="Shape" fill="#E8EBF0">
                            <path d="M0.903668015,38.5428571 C-0.058588963,38.5428571 -0.289530638,37.9768214 0.39104748,37.2863822 L35.8607145,1.25647493 C36.5412926,0.566035735 37.8849532,7.10542736e-15 38.8472102,7.10542736e-15 L77.0094472,7.10542736e-15 C77.9717042,7.10542736e-15 79.3162396,0.565147139 79.9985673,1.25469774 L115.573208,37.2881594 C116.254661,37.97771 116.025469,38.5428571 115.063212,38.5428571 L0.903668015,38.5428571 L0.903668015,38.5428571 Z"></path>
                        </g>
                        <path d="M1.91659565,1.77635684e-14 C0.937407583,1.77635684e-14 0.705963131,0.537000648 1.40118666,1.19361756 L58.7344282,55.2932516 C59.4305419,55.9498685 60.5690705,55.9498685 61.2651842,55.2932516 L118.598426,1.19361756 C119.294539,0.537000648 119.062205,1.77635684e-14 118.083017,1.77635684e-14 L1.91659565,1.77635684e-14 L1.91659565,1.77635684e-14 Z" id="Shape" fill="#E8EBF0"></path>
                        <path d="M58.0412191,65.1228115 C58.9960521,66.1947368 60.5618354,66.197295 61.5211345,65.1296337 L118.325217,1.85875757 C119.284516,0.791096183 61.9052114,54.8981629 61.9052114,54.8981629 C60.8583786,55.88737 59.1443237,55.88737 58.0965976,54.8981629 L1.83736891,1.71549311 C0.790536025,0.726286067 58.0412191,65.1228115 58.0412191,65.1228115 Z" id="Shape" fill-opacity="0.5" fill="#C1C4CA"></path>
                    </g>
                </g>
            </g>
        </g>
    </g>
</svg>