<?xml version="1.0" encoding="UTF-8" standalone="no"?>
<svg width="221px" height="221px" viewBox="0 0 221 221" version="1.1" xmlns="http://www.w3.org/2000/svg" xmlns:xlink="http://www.w3.org/1999/xlink" xmlns:sketch="http://www.bohemiancoding.com/sketch/ns">
    <title>feature-central</title>
    <description>Created with Sketch (http://www.bohemiancoding.com/sketch)</description>
    <defs></defs>
    <g id="Page 1" stroke="none" stroke-width="1" fill="none" fill-rule="evenodd">
        <g id="Artboard 1" transform="translate(-372.000000, -888.000000)">
            <g id="central" transform="translate(372.447329, 888.298092)">
                <path d="M110,220 C170.751325,220 220,170.751325 220,110 C220,49.2486745 170.751325,0 110,0 C49.2486745,0 0,49.2486745 0,110 C0,170.751325 49.2486745,220 110,220 Z M110,220" id="Oval 34" fill="#73A131"></path>
                <g id="Group" transform="translate(48.558397, 52.875590)">
                    <path d="M62.3752373,89.1740044 C78.8215627,89.1740044 92.1539422,75.8416249 92.1539422,59.3952996 C92.1539422,42.9489742 78.8215627,29.6165947 62.3752373,29.6165947 C45.928912,29.6165947 32.5965325,42.9489742 32.5965325,59.3952996 C32.5965325,75.8416249 45.928912,89.1740044 62.3752373,89.1740044 Z M62.3752373,89.1740044" id="Oval 28" stroke="#5F822C" stroke-width="18" fill="#FFFFFF"></path>
                    <path d="M99.3774967,31.0114174 C107.941064,31.0114174 114.883205,24.0692756 114.883205,15.5057087 C114.883205,6.94214183 107.941064,0 99.3774967,0 C90.8139299,0 83.871788,6.94214183 83.871788,15.5057087 C83.871788,24.0692756 90.8139299,31.0114174 99.3774967,31.0114174 Z M99.3774967,31.0114174" id="Oval 28" stroke="#5F822C" stroke-width="8" fill="#FFFFFF"></path>
                    <path d="M17.6201235,36.649857 C23.0696661,36.649857 27.4873927,32.2321303 27.4873927,26.7825878 C27.4873927,21.3330452 23.0696661,16.9153186 17.6201235,16.9153186 C12.170581,16.9153186 7.75285436,21.3330452 7.75285436,26.7825878 C7.75285436,32.2321303 12.170581,36.649857 17.6201235,36.649857 Z M17.6201235,36.649857" id="Oval 28 copy" stroke="#5F822C" stroke-width="6" fill="#FFFFFF"></path>
                    <path d="M12.6864889,105.015936 C19.6930437,105.015936 25.3729779,99.336002 25.3729779,92.3294473 C25.3729779,85.3228926 19.6930437,79.6429584 12.6864889,79.6429584 C5.67993423,79.6429584 0,85.3228926 0,92.3294473 C0,99.336002 5.67993423,105.015936 12.6864889,105.015936 Z M12.6864889,105.015936" id="Oval 28 copy 2" stroke="#5F822C" stroke-width="7" fill="#FFFFFF"></path>
                    <path d="M99.7298992,15.1533062 L61.6704324,58.1464077 L17.6201235,27.1287957" id="Line" stroke="#FFFFFF" stroke-width="3" stroke-linecap="square"></path>
                    <path d="M62.3752373,58.8512126 L13.1916909,92.485" id="Line" stroke="#FFFFFF" stroke-width="3" stroke-linecap="square"></path>
                    <g id="cursor" transform="translate(50.041151, 57.089200)" fill="#474E5D">
                        <path d="M0.462877181,31.8545097 L0.883726128,32.2669522 L10.2148084,28.4680026 C10.1722835,30.5731842 10.0078782,38.9598124 9.99265984,43.3730714 L10.2837562,43.6939196 C11.8547791,43.8409334 13.3754283,43.9462553 14.7108498,43.6260596 L14.9568136,43.3015749 C14.7911657,38.9451085 14.8188202,30.5697848 14.8289972,28.4561412 L23.7651226,32.4729635 L24.1995364,32.0732738 L13.089722,0.538234496 L12.4872315,0.52999583 L0.462877181,31.8545097 Z M0.462877181,31.8545097" id="Shape copy" opacity="0.2"></path>
                        <path d="M12.8966326,0.52999583 L12.3312068,0.738217675 L12.3312068,34.2913139 L12.8719093,34.5255434 L20.2218033,27.6349575 C20.9365324,29.6155535 23.7885456,37.504063 25.3559087,41.6296489 L25.7426522,41.8248669 C27.2620135,41.3991119 28.7194059,40.9524864 29.8513814,40.1749858 L29.9647234,39.7839076 C28.2488598,35.7761588 25.27323,27.94721 24.5252688,25.9703066 L34.307361,26.5179124 L34.5696852,25.9890899 L12.8966326,0.52999583 Z M12.8966326,0.52999583" id="Shape copy"></path>
                    </g>
                </g>
            </g>
        </g>
    </g>
</svg>