<?xml version="1.0" encoding="UTF-8" standalone="no"?>
<svg width="220px" height="221px" viewBox="0 0 220 221" version="1.1" xmlns="http://www.w3.org/2000/svg" xmlns:xlink="http://www.w3.org/1999/xlink" xmlns:sketch="http://www.bohemiancoding.com/sketch/ns">
    <title>feature-mail</title>
    <description>Created with Sketch (http://www.bohemiancoding.com/sketch)</description>
    <defs></defs>
    <g id="Page 1" stroke="none" stroke-width="1" fill="none" fill-rule="evenodd">
        <g id="Artboard 1" transform="translate(-1010.000000, -888.000000)">
            <g id="mail" transform="translate(1010.000000, 888.298092)">
                <path d="M110,220 C170.751325,220 220,170.751325 220,110 C220,49.2486745 170.751325,0 110,0 C49.2486745,0 0,49.2486745 0,110 C0,170.751325 49.2486745,220 110,220 Z M110,220" id="Oval 34" fill="#73A131"></path>
                <g id="Letter" transform="translate(54.663793, 77.250000)">
                    <path d="M55.3362069,75.5 C85.8975516,75.5 110.672414,74.3652735 110.672414,72.9655172 C110.672414,71.565761 85.8975516,70.4310345 55.3362069,70.4310345 C24.7748622,70.4310345 0,71.565761 0,72.9655172 C0,74.3652735 24.7748622,75.5 55.3362069,75.5 Z M55.3362069,75.5" id="Oval 9" fill="#5F822C"></path>
                    <g id="Group" transform="translate(54.064155, 34.879478) rotate(-4.000000) translate(-54.064155, -34.879478) translate(4.064155, 4.379478)">
                        <path d="M99,58.6955425 C99,59.4888562 98.3442379,60.137931 97.5427509,60.137931 L2.45724907,60.137931 C1.65576208,60.137931 1,59.4888562 1,58.6955425 L1,2.44238856 C1,1.64907485 1.65576208,1 2.45724907,1 L97.5427509,1 C98.3442379,1 99,1.64907485 99,2.44238856 L99,58.6955425 L99,58.6955425 Z M99,58.6955425" id="Shape" fill="#D8DBE1"></path>
                        <g transform="translate(1.000000, 28.034483)" id="Shape" fill="#E8EBF0">
                            <path d="M0.750503945,32.1034483 C-0.0486586303,32.1034483 -0.240457648,31.6319809 0.324768246,31.0568944 L29.7826273,1.04655391 C30.3478532,0.471467356 31.4637747,0 32.2629373,0 L63.9569985,0 C64.7561611,0 65.8728092,0.470727219 66.4394881,1.04507364 L95.9845285,31.0583746 C96.5504809,31.6327211 96.3601349,32.1034483 95.5609723,32.1034483 L0.750503945,32.1034483 L0.750503945,32.1034483 Z M0.750503945,32.1034483"></path>
                        </g>
                        <path d="M1.76124045,1 C0.948016467,1 0.755799889,1.4472832 1.33318892,1.99419821 L48.9489319,47.055331 C49.5270602,47.602246 50.4726179,47.602246 51.0507462,47.055331 L98.6664892,1.99419821 C99.2446175,1.4472832 99.0516616,1 98.2384376,1 L1.76124045,1 L1.76124045,1 Z M1.76124045,1" id="Shape" fill="#E8EBF0"></path>
                        <path d="M48.3732158,55.2426526 C49.1662128,56.1354898 50.4666091,56.1376207 51.2633151,55.248335 L98.4395866,2.54821236 C99.2362926,1.65892664 51.5822942,46.7262503 51.5822942,46.7262503 C50.7128907,47.5501892 49.2893536,47.5501892 48.4192082,46.7262503 L1.69544198,2.42888328 C0.826038394,1.60494444 48.3732158,55.2426526 48.3732158,55.2426526 Z M48.3732158,55.2426526" id="Shape" fill-opacity="0.1" fill="#000000"></path>
                    </g>
                </g>
            </g>
        </g>
    </g>
</svg>