<?xml version="1.0" encoding="UTF-8" standalone="no"?>
<svg width="220px" height="221px" viewBox="0 0 220 221" version="1.1" xmlns="http://www.w3.org/2000/svg" xmlns:xlink="http://www.w3.org/1999/xlink" xmlns:sketch="http://www.bohemiancoding.com/sketch/ns">
    <title>feature-event</title>
    <description>Created with Sketch (http://www.bohemiancoding.com/sketch)</description>
    <defs></defs>
    <g id="Page 1" stroke="none" stroke-width="1" fill="none" fill-rule="evenodd">
        <g id="Artboard 1" transform="translate(-690.000000, -888.000000)">
            <g id="Group" transform="translate(689.500000, 888.298092)">
                <path d="M110.5,220.010342 C171.251325,220.010342 220.5,170.761667 220.5,110.010342 C220.5,49.2590162 171.251325,0.0103417072 110.5,0.0103417072 C49.7486745,0.0103417072 0.5,49.2590162 0.5,110.010342 C0.5,170.761667 49.7486745,220.010342 110.5,220.010342 Z M110.5,220.010342" id="Oval 34" fill="#73A131"></path>
                <g transform="translate(58.500000, 65.510342)" id="Calendar">
                    <g transform="translate(0.208333, 0.783205)">
                        <path d="M52.7083333,88.033195 C81.8183435,88.033195 103.583333,86.8015137 103.583333,85.2821577 C103.583333,83.7628016 81.8183435,82.5311203 52.7083333,82.5311203 C23.5983232,82.5311203 0,83.7628016 0,85.2821577 C0,86.8015137 23.5983232,88.033195 52.7083333,88.033195 Z M52.7083333,88.033195" id="Oval 9" fill="#5F822C"></path>
                        <path d="M97.1666667,63.2771525 L76.0866286,62.3568465 L74.25,64.1941679 L75.169962,85.2821577 L7.34022399,85.2821577 C6.32217336,85.2821577 5.5,84.4581055 5.5,83.4415857 L5.5,20.1697378 L97.1666667,20.1697378 L97.1666667,63.2771525 Z M97.1666667,63.2771525" id="Rectangle 20" fill="#E8EBF0"></path>
                        <path d="M5.5,1.83856098 L5.5,20.1697378 L97.1666667,20.1697378 L97.1666667,1.83856098 C97.1666667,0.823151789 96.3444933,0 95.3264427,0 L7.34022399,0 C6.32389634,0 5.5,0.822584215 5.5,1.83856098 Z M5.5,1.83856098" id="Rectangle 21" fill="#474E5D"></path>
                        <path d="M74.7025148,62.6975918 L51.0536117,85.2821577 L75.1666667,85.2821577 L74.7025148,62.6975918 Z M74.7025148,62.6975918" id="Path 136" fill-opacity="0.1" fill="#474E5D"></path>
                        <path d="M74.0578795,63.9578364 L74.5180159,84.337733 C74.5407855,85.3462199 75.1399742,85.5845041 75.8557963,84.8704994 L96.7557433,64.0236132 C97.4718094,63.309365 97.2249345,62.7097493 96.225988,62.6848732 L75.8429592,62.1772886 C74.8343173,62.1521711 74.0353288,62.9590435 74.0578795,63.9578364 Z M74.0578795,63.9578364" id="Rectangle 22" fill="#F8F9F9"></path>
                        <path d="M49.4726786,64.2789353 C51.1666071,64.2789353 52.4780357,65.6450067 52.4780357,67.3389353 C52.4780357,69.0328638 51.1666071,70.3442924 49.4726786,70.3442924 L30.1291071,70.3442924 L30.0744643,70.3442924 L30.0198214,70.3442924 C29.2001786,70.3442924 28.3258929,70.0164353 27.7794643,69.360721 C26.6319643,68.1039353 26.74125,66.2460781 27.9433929,65.0985781 L44.1176786,50.4542924 C45.7023214,49.0335781 46.4126786,47.175721 46.4126786,45.2085781 C46.4126786,43.4600067 45.8116071,41.820721 44.6094643,40.4546496 C43.18875,38.8700067 41.27625,38.1596496 39.36375,38.1596496 C37.6698214,38.1596496 35.9758929,38.760721 34.6098214,39.9628638 L32.9158929,41.4928638 C31.6591071,42.6403638 29.80125,42.5310781 28.65375,41.2742924 C27.5608929,40.0175067 27.6155357,38.1596496 28.8723214,37.0121496 L30.56625,35.4821496 C33.0251786,33.1871496 36.2491071,32.0942924 39.36375,32.0942924 C42.9155357,32.0942924 46.5219643,33.5696496 49.0901786,36.4110781 C51.3851786,38.8700067 52.4780357,42.0939353 52.4780357,45.2085781 C52.4780357,48.7603638 51.0026786,52.3667924 48.16125,54.9350067 L37.83375,64.2789353 Z M71.3844643,34.935721 L71.3844643,35.0996496 L71.3844643,67.3389353 C71.3844643,69.0328638 69.96375,70.3442924 68.3244643,70.3442924 C66.6305357,70.3442924 65.3191071,69.0328638 65.3191071,67.3389353 L65.3191071,40.4546496 L63.1333929,41.7114353 C62.6416071,42.0392924 62.0951786,42.1485781 61.6033929,42.1485781 C60.5651786,42.1485781 59.5816071,41.6021496 59.0351786,40.6185781 C58.10625,39.2525067 58.5980357,37.3400067 60.01875,36.5203638 L66.7398214,32.5314353 C66.7944643,32.4767924 66.90375,32.4767924 66.9583929,32.4221496 C67.0676786,32.4221496 67.1223214,32.3128638 67.2316071,32.258221 C67.3408929,32.258221 67.4501786,32.2035781 67.5594643,32.2035781 C67.6141071,32.1489353 67.7233929,32.1489353 67.7780357,32.1489353 C67.8873214,32.0942924 68.05125,32.0942924 68.1605357,32.0942924 L68.3244643,32.0942924 L68.3791071,32.0942924 L68.7616071,32.0942924 C68.81625,32.1489353 68.9255357,32.1489353 68.9801786,32.1489353 C69.1441071,32.1489353 69.19875,32.2035781 69.3080357,32.258221 C69.3626786,32.258221 69.4719643,32.258221 69.5266071,32.3128638 C69.6905357,32.4221496 69.7451786,32.4767924 69.8544643,32.4767924 C69.9091071,32.5314353 69.96375,32.5860781 70.0730357,32.640721 C70.1276786,32.6953638 70.2369643,32.7500067 70.2916071,32.8046496 C70.4008929,32.8592924 70.4555357,32.9685781 70.5101786,33.023221 C70.5648214,33.0778638 70.6194643,33.1325067 70.6741071,33.2417924 L70.8926786,33.4603638 L70.9473214,33.5696496 C70.9473214,33.6242924 71.0019643,33.6789353 71.0019643,33.7335781 C71.0566071,33.8428638 71.11125,33.8975067 71.11125,34.0067924 C71.1658929,34.1160781 71.1658929,34.2253638 71.2205357,34.2800067 C71.2205357,34.3892924 71.2751786,34.4985781 71.2751786,34.553221 C71.2751786,34.7171496 71.2751786,34.8264353 71.3844643,34.935721 Z M71.3844643,34.935721" id="21" fill="#474E5D"></path>
                        <path d="M26.4333333,10.751412 C26.4333333,12.871412 24.7133333,14.6047453 22.58,14.6047453 C20.4333333,14.6047453 18.7266667,12.871412 18.7266667,10.751412 L18.7266667,6.0047453 C18.7266667,5.59141197 19.0466667,5.27141197 19.46,5.27141197 C19.86,5.27141197 20.2066667,5.59141197 20.2066667,6.0047453 L20.2066667,10.751412 C20.2066667,12.0580786 21.2733333,13.1247453 22.58,13.1247453 C23.9,13.1247453 24.9533333,12.0580786 24.9533333,10.751412 L24.9533333,6.0047453 C24.9533333,5.59141197 25.2866667,5.27141197 25.7,5.27141197 C26.1133333,5.27141197 26.4333333,5.59141197 26.4333333,6.0047453 Z M10.5666667,11.391412 C10.9666667,11.2580786 11.38,11.471412 11.5,11.8580786 C11.74,12.591412 12.4333333,13.1247453 13.2466667,13.1247453 C14.26,13.1247453 15.0866667,12.2980786 15.0866667,11.2980786 L15.0866667,6.0047453 C15.0866667,5.59141197 15.42,5.27141197 15.8333333,5.27141197 C16.2333333,5.27141197 16.5666667,5.59141197 16.5666667,6.0047453 L16.5666667,11.2980786 C16.5666667,13.1247453 15.0733333,14.6047453 13.2466667,14.6047453 C11.78,14.6047453 10.5266667,13.6447453 10.1,12.311412 C9.96666667,11.911412 10.1933333,11.4980786 10.5666667,11.391412 Z M30.8333333,13.871412 C30.8333333,14.271412 30.5,14.6047453 30.1133333,14.6047453 C29.7,14.6047453 29.38,14.271412 29.38,13.871412 L29.38,6.1247453 L29.38,6.11141197 C29.3666667,5.8847453 29.4733333,5.6447453 29.6733333,5.49807864 C30.0066667,5.27141197 30.46,5.33807864 30.6866667,5.65807864 L34.9933333,11.6180786 L34.9933333,6.1247453 C34.9933333,5.73807864 35.3133333,5.4047453 35.7133333,5.4047453 C36.1133333,5.4047453 36.4466667,5.73807864 36.4466667,6.1247453 L36.4466667,13.871412 C36.4466667,14.271412 36.1133333,14.6047453 35.7133333,14.6047453 C35.5,14.6047453 35.3,14.4980786 35.1666667,14.3380786 C35.14,14.311412 35.1133333,14.2847453 35.1,14.2580786 L30.8333333,8.33807864 Z M30.8333333,13.871412" id="JUN" fill="#FFFFFF"></path>
                    </g>
                </g>
            </g>
        </g>
    </g>
</svg>