<?xml version="1.0" encoding="UTF-8" standalone="no"?>
<svg width="220px" height="220px" viewBox="0 0 220 220" version="1.1" xmlns="http://www.w3.org/2000/svg" xmlns:xlink="http://www.w3.org/1999/xlink" xmlns:sketch="http://www.bohemiancoding.com/sketch/ns">
    <!-- Generator: Sketch 3.3 (11970) - http://www.bohemiancoding.com/sketch -->
    <title>feature-manage</title>
    <desc>Created with Sketch.</desc>
    <defs></defs>
    <g id="Page-1" stroke="none" stroke-width="1" fill="none" fill-rule="evenodd" sketch:type="MSPage">
        <g id="Artboard-4" sketch:type="MSArtboardGroup" transform="translate(-141.000000, -889.000000)">
            <g id="feature-manage" sketch:type="MSLayerGroup" transform="translate(141.000000, 889.000000)">
                <circle id="Oval-2" fill="#73A131" sketch:type="MSShapeGroup" cx="110" cy="110" r="110"></circle>
                <g id="icon-manage" transform="translate(31.447329, 80.000000)" sketch:type="MSShapeGroup">
                    <path d="M79.4693377,84.6248335 C108.579348,84.6248335 130.344338,83.3931522 130.344338,81.8737961 C130.344338,80.3544401 108.579348,79.1227588 79.4693377,79.1227588 C50.3593275,79.1227588 26.7610043,80.3544401 26.7610043,81.8737961 C26.7610043,83.3931522 50.3593275,84.6248335 79.4693377,84.6248335 Z" id="Oval-9-Copy" fill="#5F822C"></path>
                    <rect id="Rectangle-113-Copy-2" fill="#B9D098" x="0.552670991" y="12" width="62" height="43" rx="3.072"></rect>
                    <rect id="Rectangle-113-Copy-3" fill="#B9D098" x="94.552671" y="12" width="62" height="43" rx="3.072"></rect>
                    <rect id="Rectangle-113" fill="#DCE7CB" x="69.552671" y="7" width="77" height="54" rx="3.84"></rect>
                    <rect id="Rectangle-113-Copy" fill="#DCE7CB" x="10.552671" y="7" width="77" height="54" rx="3.84"></rect>
                    <g id="v-card-copy" transform="translate(30.552671, 0.000000)">
                        <rect id="Rectangle-113" fill="#474E5D" x="0" y="0" width="96" height="67" rx="4.8"></rect>
                        <path d="M91,0 L5,0 C2.1456,0 0,2.13921429 0,5 L0,62 C0,64.856 2.1456,67 5,67 L91,67 C93.8544,67 96,64.856 96,62 L96,5 C96,2.144 93.8544,0 91,0 L91,0 Z M62,19 L81,19 L81,24 L62,24 L62,19 L62,19 Z M53,57 C52.3836667,56.510966 51.6001111,56.0363154 50,56 C44.8347778,53.1117005 36.3255556,49.5062736 36,45 C36.3255556,42.4728144 38.0407778,43.3358156 39,39 C39.1157778,36.4989289 40.6398889,38.4694481 41,34 C40.9265556,32.0736509 40.0952222,31.6181781 40,32 C40.0952222,31.6181781 40.5156667,28.9236968 41,27 C40.8548889,24.6710191 39.627,18.212894 35,17 C33.693,15.8875854 33.0957778,16.2567581 36,15 C29.8707778,14.5307559 28.4852222,17.6519433 25,20 C22.6276667,21.9621544 21.8966667,25.1504641 22,27 C22.2072222,28.9236968 22.6276667,31.6229726 23,32 C22.6276667,31.6229726 21.7915556,32.0736509 22,34 C22.083,38.4694481 23.6071111,36.4989289 24,39 C24.6725556,43.3358156 26.3973333,42.4728144 26,45 C26.3973333,49.5062736 17.8881111,53.1117005 12,56 C11.2804444,55.9691931 10.5828889,56.3767214 10,57 L10,10 L53,10 L53,57 L53,57 Z M86,39 L62,39 L62,34 L86,34 L86,39 L86,39 Z" id="Shape" fill="#FFFFFF"></path>
                    </g>
                    <g id="cursor" transform="translate(93.500000, 48.000000)" fill="#474E5D">
                        <path d="M1,0.528078079 L1.77635684e-14,0.528078079 L1.77635684e-14,34.5280781 L1,34.5280781 L8,27.5280781 C8.51304481,29.4059468 11.3344739,37.2381274 13,41.5280781 L13,41.5280781 C14.7706935,41.1053632 16.2124572,40.6619269 17,39.5280781 L17,39.5280781 C15.7469571,35.5225615 12.803237,27.7495163 12,25.5280781 L22,26.5280781 L22,25.5280781 L1,0.528078079 L1,0.528078079 Z" id="Shape-copy"></path>
                    </g>
                </g>
            </g>
        </g>
    </g>
</svg>