<?xml version="1.0" encoding="UTF-8" standalone="no"?>
<svg width="798px" height="383px" viewBox="0 0 798 383" version="1.1" xmlns="http://www.w3.org/2000/svg" xmlns:xlink="http://www.w3.org/1999/xlink" xmlns:sketch="http://www.bohemiancoding.com/sketch/ns">
    <!-- Generator: Sketch 3.3 (11970) - http://www.bohemiancoding.com/sketch -->
    <title>hero</title>
    <desc>Created with Sketch.</desc>
    <defs>
        <rect id="path-1" x="0.112372436" y="0.853553391" width="116" height="171"></rect>
        <rect id="path-3" x="0" y="0" width="25" height="25" rx="1"></rect>
        <rect id="path-5" x="0" y="0" width="25" height="25" rx="1"></rect>
        <rect id="path-7" x="0" y="0" width="25" height="25" rx="1"></rect>
        <rect id="path-9" x="0" y="0" width="478" height="304"></rect>
        <rect id="path-11" x="0" y="0" width="50" height="50" rx="2"></rect>
        <rect id="path-13" x="0" y="0" width="50" height="50" rx="2"></rect>
        <rect id="path-15" x="0" y="0" width="50" height="50" rx="2"></rect>
    </defs>
    <g id="Page-1" stroke="none" stroke-width="1" fill="none" fill-rule="evenodd" sketch:type="MSPage">
        <g id="hero" sketch:type="MSLayerGroup">
            <path d="M794.639384,384.434103 C795.441625,381.437016 758.336777,368.880506 711.763382,356.388352 C665.189986,343.896198 626.784449,336.198926 625.982208,339.196013 C625.179967,342.1931 662.284815,354.749609 708.85821,367.241764 C755.431606,379.733918 793.837143,387.43119 794.639384,384.434103 Z" id="Oval-18" fill="#167C7B" sketch:type="MSShapeGroup" transform="translate(710.310796, 361.815058) rotate(-15.000000) translate(-710.310796, -361.815058) "></path>
            <g id="tablet" transform="translate(675.387628, 240.646447) rotate(-15.000000) translate(-675.387628, -240.646447) translate(614.887628, 131.146447)">
                <rect id="Rectangle-4" fill="#474E5D" sketch:type="MSShapeGroup" x="0.112372436" y="0.853553391" width="120" height="218" rx="8"></rect>
                <g id="Group" transform="translate(46.912548, 9.694269)" fill="#202228" sketch:type="MSShapeGroup">
                    <ellipse id="Oval" cx="2.90832259" cy="2.90828079" rx="1.93888173" ry="1.93885386"></ellipse>
                    <path d="M25.0874517,3.30573072 C25.0874517,3.70573072 24.5440554,4.30573072 24.0874517,4.30573072 L10.0874517,4.30573072 C9.63084788,4.30573072 9.08745165,3.70573072 9.08745165,3.30573072 L9.08745165,2.30573072 C9.08745165,1.90573072 9.63084788,1.30573072 10.0874517,1.30573072 L24.0874517,1.30573072 C24.5440554,1.30573072 25.0874517,1.90573072 25.0874517,2.30573072 L25.0874517,3.30573072 L25.0874517,3.30573072 Z" id="Shape"></path>
                </g>
                <ellipse id="Oval" fill="#202228" sketch:type="MSShapeGroup" cx="60" cy="206.972649" rx="7.63707191" ry="7.63696213"></ellipse>
                <g id="screen" transform="translate(2.000000, 24.000000)">
                    <mask id="mask-2" sketch:name="Rectangle" fill="white">
                        <use xlink:href="#path-1"></use>
                    </mask>
                    <use id="Rectangle" fill="#99BF62" sketch:type="MSShapeGroup" xlink:href="#path-1"></use>
                    <path d="M18.8043015,11 C17.8078133,11 17,11.8088563 17,12.7918218 L17,20.2081782 C17,21.197774 17.8154392,22 18.8043015,22 L31.1956985,22 C32.1921867,22 33,21.1911437 33,20.2081782 L33,12.7918218 C33,11.802226 32.1845608,11 31.1956985,11 L18.8043015,11 Z M21.7684896,17.3423661 C21.4292664,18.1531993 20.8664345,18.7669695 20.0626368,19.268805 C19.9769032,19.3171201 19.8875103,19.3448276 19.7920256,19.3448276 C19.6073906,19.3448276 19.4413903,19.2457754 19.3606586,19.0813677 C19.3136116,18.9954647 19.2857143,18.9054235 19.2857143,18.8117367 C19.2857143,18.6233386 19.3896535,18.4553022 19.5553927,18.3713292 C20.1307039,18.0623705 20.5877939,17.5752864 20.8414979,17.0238245 C21.1423708,16.3795097 21.2459843,15.8584798 21.2459843,14.8737783 C21.2459843,14.5831968 21.4783334,14.4137931 21.7522956,14.4137931 C22.0154817,14.4137931 22.2441932,14.5887455 22.2441932,14.8737783 C22.2441932,15.8501596 22.3474697,16.3442892 22.6603922,16.9743323 C22.9242318,17.5096038 23.4279889,18.0353493 23.9912466,18.3535771 C24.1557313,18.4370027 24.2380952,18.6075819 24.2380952,18.7873682 C24.2380952,18.8834967 24.2104435,18.9803952 24.163151,19.0667466 L24.1509355,19.0870687 C24.0518616,19.2378178 23.9009929,19.320459 23.7317839,19.320459 C23.6370189,19.320459 23.5414947,19.2924094 23.4465504,19.2386458 C22.7085212,18.7835019 22.1203739,18.1335911 21.7684896,17.3423661 Z M28.2446801,17.3423661 C27.9054569,18.1531993 27.342625,18.7669695 26.5388273,19.268805 C26.4530937,19.3171201 26.3637008,19.3448276 26.2682161,19.3448276 C26.0835811,19.3448276 25.9175808,19.2457754 25.836849,19.0813677 C25.7898021,18.9954647 25.7619048,18.9054235 25.7619048,18.8117367 C25.7619048,18.6233386 25.865844,18.4553022 26.0315832,18.3713292 C26.6068944,18.0623705 27.0639844,17.5752864 27.3176884,17.0238245 C27.6185612,16.3795097 27.7221748,15.8584798 27.7221748,14.8737783 C27.7221748,14.5831968 27.9545239,14.4137931 28.2284861,14.4137931 C28.4916722,14.4137931 28.7203836,14.5887455 28.7203836,14.8737783 C28.7203836,15.8501596 28.8236602,16.3442892 29.1365827,16.9743323 C29.4004223,17.5096038 29.9041793,18.0353493 30.4674371,18.3535771 C30.6319218,18.4370027 30.7142857,18.6075819 30.7142857,18.7873682 C30.7142857,18.8834967 30.686634,18.9803952 30.6393414,19.0667466 L30.627126,19.0870687 C30.528052,19.2378178 30.3771834,19.320459 30.2079744,19.320459 C30.1132094,19.320459 30.0176852,19.2924094 29.9227409,19.2386458 C29.1847116,18.7835019 28.5965644,18.1335911 28.2446801,17.3423661 Z" id="Rectangle-5-copy-3" fill="#FFFFFF" sketch:type="MSShapeGroup" mask="url(#mask-2)"></path>
                    <path d="M39.4605263,20.3125 L39.4605263,17.3125 L42.8684211,17.3125 L42.8684211,20.3125 C42.8684211,20.7 43.1842105,21 43.5921053,21 C44,21 44.3289474,20.7 44.3289474,20.3125 L44.3289474,12.9375 C44.3289474,12.55 44,12.25 43.5921053,12.25 C43.1842105,12.25 42.8684211,12.55 42.8684211,12.9375 L42.8684211,15.9375 L39.4605263,15.9375 L39.4605263,12.9375 C39.4605263,12.55 39.1315789,12.25 38.7236842,12.25 C38.3157895,12.25 38,12.55 38,12.9375 L38,20.3125 C38,20.7 38.3157895,21 38.7236842,21 C39.1315789,21 39.4605263,20.7 39.4605263,20.3125 Z M47.4210526,20.3125 C47.4210526,20.7 47.7368421,21 48.1447368,21 C48.5394737,21 48.8815789,20.7 48.8815789,20.3125 L48.8815789,12.9375 C48.8815789,12.55 48.5394737,12.25 48.1447368,12.25 C47.7368421,12.25 47.4210526,12.55 47.4210526,12.9375 C47.4210526,12.9375 47.4210526,12.55 47.4210526,12.9375 L47.4210526,20.3125 Z M56.9736842,12.25 L51.3552632,12.25 C50.9473684,12.25 50.6315789,12.55 50.6315789,12.9375 C50.6315789,13.3125 50.9473684,13.6375 51.3552632,13.6375 L53.4342105,13.6375 L53.4342105,20.3125 C53.4342105,20.7 53.7631579,21 54.1578947,21 C54.5657895,21 54.8815789,20.7 54.8815789,20.3125 L54.8815789,13.6375 L56.9736842,13.6375 C57.3684211,13.6375 57.6973684,13.3125 57.6973684,12.9375 C57.6973684,12.55 57.3684211,12.25 56.9736842,12.25 Z M63.9868421,12 C62.7236842,12 61.5657895,12.5125 60.7631579,13.3375 C59.9473684,14.1625 59.4605263,15.2625 59.4605263,16.5 C59.4605263,17.7375 59.9473684,18.85 60.7631579,19.6625 C61.5657895,20.475 62.7236842,21 63.9868421,21 C65.1973684,21 66.3552632,20.475 67.1315789,19.6625 C67.9473684,18.85 68.4605263,17.7375 68.4605263,16.5 C68.4605263,15.2625 67.9473684,14.1625 67.1315789,13.3375 C66.3552632,12.5125 65.1973684,12 63.9868421,12 Z M66.0657895,18.675 C65.5131579,19.2375 64.7763158,19.575 63.9868421,19.575 C63.1447368,19.575 62.4078947,19.2375 61.8552632,18.675 C61.3026316,18.1375 60.9605263,17.35 60.9605263,16.5 C60.9605263,15.65 61.3026316,14.8625 61.8552632,14.3125 C62.4078947,13.75 63.1447368,13.425 63.9868421,13.425 C64.7763158,13.425 65.5131579,13.75 66.0657895,14.3125 C66.6052632,14.8625 66.9605263,15.65 66.9605263,16.5 C66.9605263,17.35 66.6052632,18.1375 66.0657895,18.675 C66.0657895,18.675 66.6052632,18.1375 66.0657895,18.675 Z M71.7763158,21 C71.7894737,21 71.7894737,20.9875 71.8157895,20.9875 C71.8157895,20.9875 71.8157895,21 71.8289474,21 L74.1578947,21 C75.7105263,21 76.9736842,19.8 76.9736842,18.3125 C76.9736842,17.3625 76.4342105,16.525 75.6447368,16.05 C75.9605263,15.65 76.1447368,15.1625 76.1447368,14.625 C76.1447368,13.3125 75.0263158,12.25 73.6447368,12.25 L71.8289474,12.25 L71.8157895,12.25 L71.7763158,12.25 C71.3815789,12.25 71.0526316,12.55 71.0526316,12.9375 L71.0526316,20.3125 C71.0526316,20.6875 71.3815789,21 71.7763158,21 C71.7763158,21 71.3815789,21 71.7763158,21 Z M72.5131579,13.6375 L73.6447368,13.6375 C74.2236842,13.6375 74.6842105,14.075 74.6842105,14.625 C74.6842105,15.175 74.2236842,15.6375 73.6447368,15.6375 L72.5131579,15.6375 L72.5131579,13.6375 Z M72.5131579,17.025 L74.1578947,17.025 C74.9078947,17.0375 75.5131579,17.6 75.5131579,18.3125 C75.5131579,19.0375 74.9078947,19.6 74.1578947,19.6125 L72.5131579,19.6125 L72.5131579,17.025 Z M78.9605263,20.3125 C78.9605263,20.7 79.2763158,21 79.6842105,21 C80.0789474,21 80.4210526,20.7 80.4210526,20.3125 L80.4210526,12.9375 C80.4210526,12.55 80.0789474,12.25 79.6842105,12.25 C79.2763158,12.25 78.9605263,12.55 78.9605263,12.9375 C78.9605263,12.9375 78.9605263,12.55 78.9605263,12.9375 L78.9605263,20.3125 Z M89.2368421,12.9375 C89.2368421,12.55 88.9078947,12.25 88.5131579,12.25 L82.8947368,12.25 C82.4868421,12.25 82.1710526,12.55 82.1710526,12.9375 C82.1710526,13.3125 82.4868421,13.6375 82.8947368,13.6375 L84.9736842,13.6375 L84.9736842,20.3125 C84.9736842,20.7 85.3026316,21 85.6973684,21 C86.1052632,21 86.4210526,20.7 86.4210526,20.3125 L86.4210526,13.6375 L88.5131579,13.6375 C88.9078947,13.6375 89.2368421,13.3125 89.2368421,12.9375 C89.2368421,12.9375 89.2368421,13.3125 89.2368421,12.9375 Z M95.5263158,12 C94.2631579,12 93.1052632,12.5125 92.3026316,13.3375 C91.4868421,14.1625 91,15.2625 91,16.5 C91,17.7375 91.4868421,18.85 92.3026316,19.6625 C93.1052632,20.475 94.2631579,21 95.5263158,21 C96.7368421,21 97.8947368,20.475 98.6710526,19.6625 C99.4868421,18.85 100,17.7375 100,16.5 C100,15.2625 99.4868421,14.1625 98.6710526,13.3375 C97.8947368,12.5125 96.7368421,12 95.5263158,12 Z M97.6052632,18.675 C97.0526316,19.2375 96.3157895,19.575 95.5263158,19.575 C94.6842105,19.575 93.9473684,19.2375 93.3947368,18.675 C92.8421053,18.1375 92.5,17.35 92.5,16.5 C92.5,15.65 92.8421053,14.8625 93.3947368,14.3125 C93.9473684,13.75 94.6842105,13.425 95.5263158,13.425 C96.3157895,13.425 97.0526316,13.75 97.6052632,14.3125 C98.1447368,14.8625 98.5,15.65 98.5,16.5 C98.5,17.35 98.1447368,18.1375 97.6052632,18.675 C97.6052632,18.675 98.1447368,18.1375 97.6052632,18.675 Z" id="HITOBITO-copy-3" fill="#FFFFFF" sketch:type="MSShapeGroup" mask="url(#mask-2)"></path>
                    <rect id="Rectangle-6-Copy-2" fill="#D8D8D8" sketch:type="MSShapeGroup" mask="url(#mask-2)" x="10.1123724" y="29" width="96" height="20" rx="4"></rect>
                    <rect id="Rectangle-11-Copy-2" fill="#B6B6B6" sketch:type="MSShapeGroup" mask="url(#mask-2)" x="16" y="34" width="85" height="10" rx="2"></rect>
                    <rect id="Rectangle-6-Copy-3" fill="#FFFFFF" sketch:type="MSShapeGroup" mask="url(#mask-2)" x="10.1123724" y="47.8535534" width="96" height="124"></rect>
                    <g id="user-copy-3" mask="url(#mask-2)">
                        <g transform="translate(20.000000, 58.000000)">
                            <rect id="Rectangle-12-Copy" fill="#B6B6B6" sketch:type="MSShapeGroup" x="34" y="0" width="41" height="8"></rect>
                            <rect id="Rectangle-12-Copy-2" fill="#D8D8D8" sketch:type="MSShapeGroup" x="34" y="12" width="41.9317993" height="4"></rect>
                            <rect id="Rectangle-12-Copy-3" fill="#D8D8D8" sketch:type="MSShapeGroup" x="34" y="17" width="37.7386193" height="4"></rect>
                            <rect id="Rectangle-12-Copy-4" fill="#D8D8D8" sketch:type="MSShapeGroup" x="34" y="22" width="39.8352093" height="4"></rect>
                            <g id="thumbnail" stroke-width="1" fill="none" sketch:type="MSLayerGroup" transform="translate(0.000000, 1.000000)">
                                <mask id="mask-4" sketch:name="Mask" fill="white">
                                    <use xlink:href="#path-3"></use>
                                </mask>
                                <use id="Mask" stroke="#B6B6B6" fill="#B6B6B6" sketch:type="MSShapeGroup" xlink:href="#path-3"></use>
                                <path d="M12.5,33.5 C18.0228475,33.5 22.5,29.0228475 22.5,23.5 C22.5,17.9771525 18.0228475,15.5 12.5,15.5 C6.9771525,15.5 2.5,17.9771525 2.5,23.5 C2.5,29.0228475 6.9771525,33.5 12.5,33.5 Z" id="Oval-5-Copy" fill="#FFFFFF" sketch:type="MSShapeGroup" mask="url(#mask-4)"></path>
                                <circle id="Oval-5" stroke="#B6B6B6" stroke-width="1.5" fill="#FFFFFF" sketch:type="MSShapeGroup" mask="url(#mask-4)" cx="12.5" cy="9.5" r="6"></circle>
                            </g>
                        </g>
                    </g>
                    <g id="user-copy-4" mask="url(#mask-2)">
                        <g transform="translate(20.000000, 94.000000)">
                            <rect id="Rectangle-12-Copy" fill="#B6B6B6" sketch:type="MSShapeGroup" x="34" y="0" width="41" height="8"></rect>
                            <rect id="Rectangle-12-Copy-2" fill="#D8D8D8" sketch:type="MSShapeGroup" x="34" y="12" width="41.9317993" height="4"></rect>
                            <rect id="Rectangle-12-Copy-3" fill="#D8D8D8" sketch:type="MSShapeGroup" x="34" y="17" width="37.7386193" height="4"></rect>
                            <rect id="Rectangle-12-Copy-4" fill="#D8D8D8" sketch:type="MSShapeGroup" x="34" y="22" width="39.8352093" height="4"></rect>
                            <g id="thumbnail" stroke-width="1" fill="none" sketch:type="MSLayerGroup" transform="translate(0.000000, 1.000000)">
                                <mask id="mask-6" sketch:name="Mask" fill="white">
                                    <use xlink:href="#path-5"></use>
                                </mask>
                                <use id="Mask" stroke="#B6B6B6" fill="#B6B6B6" sketch:type="MSShapeGroup" xlink:href="#path-5"></use>
                                <path d="M12.5,33.5 C18.0228475,33.5 22.5,29.0228475 22.5,23.5 C22.5,17.9771525 18.0228475,15.5 12.5,15.5 C6.9771525,15.5 2.5,17.9771525 2.5,23.5 C2.5,29.0228475 6.9771525,33.5 12.5,33.5 Z" id="Oval-5-Copy" fill="#FFFFFF" sketch:type="MSShapeGroup" mask="url(#mask-6)"></path>
                                <circle id="Oval-5" stroke="#B6B6B6" stroke-width="1.5" fill="#FFFFFF" sketch:type="MSShapeGroup" mask="url(#mask-6)" cx="12.5" cy="9.5" r="6"></circle>
                            </g>
                        </g>
                    </g>
                    <g id="user-copy-5" mask="url(#mask-2)">
                        <g transform="translate(20.000000, 130.000000)">
                            <rect id="Rectangle-12-Copy" fill="#B6B6B6" sketch:type="MSShapeGroup" x="34" y="0" width="41" height="8"></rect>
                            <rect id="Rectangle-12-Copy-2" fill="#D8D8D8" sketch:type="MSShapeGroup" x="34" y="12" width="41.9317993" height="4"></rect>
                            <rect id="Rectangle-12-Copy-3" fill="#D8D8D8" sketch:type="MSShapeGroup" x="34" y="17" width="37.7386193" height="4"></rect>
                            <rect id="Rectangle-12-Copy-4" fill="#D8D8D8" sketch:type="MSShapeGroup" x="34" y="22" width="39.8352093" height="4"></rect>
                            <g id="thumbnail" stroke-width="1" fill="none" sketch:type="MSLayerGroup" transform="translate(0.000000, 1.000000)">
                                <mask id="mask-8" sketch:name="Mask" fill="white">
                                    <use xlink:href="#path-7"></use>
                                </mask>
                                <use id="Mask" stroke="#B6B6B6" fill="#B6B6B6" sketch:type="MSShapeGroup" xlink:href="#path-7"></use>
                                <path d="M12.5,33.5 C18.0228475,33.5 22.5,29.0228475 22.5,23.5 C22.5,17.9771525 18.0228475,15.5 12.5,15.5 C6.9771525,15.5 2.5,17.9771525 2.5,23.5 C2.5,29.0228475 6.9771525,33.5 12.5,33.5 Z" id="Oval-5-Copy" fill="#FFFFFF" sketch:type="MSShapeGroup" mask="url(#mask-8)"></path>
                                <circle id="Oval-5" stroke="#B6B6B6" stroke-width="1.5" fill="#FFFFFF" sketch:type="MSShapeGroup" mask="url(#mask-8)" cx="12.5" cy="9.5" r="6"></circle>
                            </g>
                        </g>
                    </g>
                </g>
            </g>
            <g id="laptop">
                <path d="M336.39598,382.923637 C522.182358,382.923637 672.791959,378.366351 672.791959,372.744654 C672.791959,367.122957 522.182358,362.565671 336.39598,362.565671 C150.609601,362.565671 0,367.122957 0,372.744654 C0,378.366351 150.609601,382.923637 336.39598,382.923637 Z" id="Oval-15" fill="#177C7B" sketch:type="MSShapeGroup"></path>
                <path d="M577,0 L94,0 C85.9673108,0 79,6.93409091 79,15 L79,119 L79,324 L79,339 L94,339 L577,339 L592,339 L592,324 L592,119 L592,15 C592,6.93409091 585.032689,0 577,0 L577,0 Z" id="Shape" fill="#474E5D" sketch:type="MSShapeGroup"></path>
                <ellipse id="Oval" fill="#202228" sketch:type="MSShapeGroup" cx="335.911259" cy="8.72484236" rx="4.36248388" ry="3.87770771"></ellipse>
                <path d="M646,339 L29,339 L14,339 L14,352 L14,353 L14,351 L14,353 C14.3033773,361.250664 34.3046069,370 43,370 L632,370 C640.701584,370 660.696623,361.253713 661,353 L661,353 L661,353 L661,352 L661,339 L646,339 L646,339 Z" id="Shape" fill="#C9CCD2" sketch:type="MSShapeGroup"></path>
                <rect id="Rectangle" fill="#E8EBF0" sketch:type="MSShapeGroup" x="14" y="339" width="647" height="14"></rect>
                <path d="M382,340 C382,349.272579 291,349.535006 291,340 L291,339 L382,339 L382,340 L382,340 Z" id="Shape" fill="#C9CCD2" sketch:type="MSShapeGroup"></path>
                <g id="screen" transform="translate(97.000000, 17.000000)">
                    <mask id="mask-10" sketch:name="Rectangle" fill="white">
                        <use xlink:href="#path-9"></use>
                    </mask>
                    <use id="Rectangle" fill="#99BF62" sketch:type="MSShapeGroup" xlink:href="#path-9"></use>
                    <g id="HITOBITO-Logo" mask="url(#mask-10)" fill="#FFFFFF" sketch:type="MSShapeGroup">
                        <g transform="translate(20.000000, 20.000000)">
                            <path d="M3.00710269,0 C1.34632574,0 0,1.35292554 0,2.99253976 L0,15.0074602 C0,16.6601943 1.34744179,18 3.00710269,18 L23.4314938,18 C25.0922708,18 26.4385965,16.6470745 26.4385965,15.0074602 L26.4385965,2.99253976 C26.4385965,1.33980569 25.0911547,0 23.4314938,0 L3.00710269,0 Z M7.87951084,10.3784173 C7.31897422,11.7052353 6.38894388,12.7095865 5.06073868,13.5307719 C4.91907141,13.6098329 4.77135751,13.6551724 4.61357738,13.6551724 C4.30848422,13.6551724 4.03418336,13.4930871 3.9007812,13.2240563 C3.82304018,13.0834877 3.77694236,12.9361475 3.77694236,12.7828419 C3.77694236,12.4745542 3.94869276,12.1995854 4.22256236,12.062175 C5.17321355,11.5566062 5.92851471,10.7595596 6.34773835,9.8571673 C6.84490432,8.802834 7.01611658,7.95023969 7.01611658,6.33890997 C7.01611658,5.86341293 7.40005307,5.5862069 7.8527516,5.5862069 C8.28764361,5.5862069 8.66556917,5.87249262 8.66556917,6.33890997 C8.66556917,7.93662475 8.83622458,8.74520044 9.35330158,9.77618015 C9.78927346,10.6520789 10.6216877,11.5123898 11.5524218,12.0331262 C11.8242183,12.1696408 11.9603175,12.4487704 11.9603175,12.7429661 C11.9603175,12.9002673 11.9146254,13.0588286 11.8364786,13.2001308 L11.8162937,13.2333852 C11.6525827,13.4800655 11.4032855,13.6152966 11.1236824,13.6152966 C10.9670915,13.6152966 10.8092462,13.5693973 10.6523591,13.4814203 C9.43283047,12.7366394 8.46096868,11.673149 7.87951084,10.3784173 Z M18.5808475,10.3784173 C18.0203109,11.7052353 17.0902806,12.7095865 15.7620754,13.5307719 C15.6204081,13.6098329 15.4726942,13.6551724 15.3149141,13.6551724 C15.0098209,13.6551724 14.73552,13.4930871 14.6021179,13.2240563 C14.5243769,13.0834877 14.478279,12.9361475 14.478279,12.7828419 C14.478279,12.4745542 14.6500294,12.1995854 14.923899,12.062175 C15.8745502,11.5566062 16.6298514,10.7595596 17.049075,9.8571673 C17.546241,8.802834 17.7174533,7.95023969 17.7174533,6.33890997 C17.7174533,5.86341293 18.1013897,5.5862069 18.5540883,5.5862069 C18.9889803,5.5862069 19.3669058,5.87249262 19.3669058,6.33890997 C19.3669058,7.93662475 19.5375613,8.74520044 20.0546383,9.77618015 C20.4906101,10.6520789 21.3230244,11.5123898 22.2537584,12.0331262 C22.5255549,12.1696408 22.6616541,12.4487704 22.6616541,12.7429661 C22.6616541,12.9002673 22.6159621,13.0588286 22.5378153,13.2001308 L22.5176303,13.2333852 C22.3539193,13.4800655 22.1046221,13.6152966 21.8250191,13.6152966 C21.6684282,13.6152966 21.5105829,13.5693973 21.3536958,13.4814203 C20.1341671,12.7366394 19.1623054,11.673149 18.5808475,10.3784173 Z" id="Rectangle-5-copy-2"></path>
                            <path d="M36.4250875,15.6083333 L36.4250875,10.4083333 L42.0728486,10.4083333 L42.0728486,15.6083333 C42.0728486,16.28 42.5961932,16.8 43.2721801,16.8 C43.9481669,16.8 44.4933176,16.28 44.4933176,15.6083333 L44.4933176,2.825 C44.4933176,2.15333333 43.9481669,1.63333333 43.2721801,1.63333333 C42.5961932,1.63333333 42.0728486,2.15333333 42.0728486,2.825 L42.0728486,8.025 L36.4250875,8.025 L36.4250875,2.825 C36.4250875,2.15333333 35.8799369,1.63333333 35.20395,1.63333333 C34.5279632,1.63333333 34.0046185,2.15333333 34.0046185,2.825 L34.0046185,15.6083333 C34.0046185,16.28 34.5279632,16.8 35.20395,16.8 C35.8799369,16.8 36.4250875,16.28 36.4250875,15.6083333 Z M49.617734,15.6083333 C49.617734,16.28 50.1410786,16.8 50.8170655,16.8 C51.4712463,16.8 52.038203,16.28 52.038203,15.6083333 L52.038203,2.825 C52.038203,2.15333333 51.4712463,1.63333333 50.8170655,1.63333333 C50.1410786,1.63333333 49.617734,2.15333333 49.617734,2.825 C49.617734,2.825 49.617734,2.15333333 49.617734,2.825 L49.617734,15.6083333 Z M65.4489097,1.63333333 L56.1377361,1.63333333 C55.4617493,1.63333333 54.9384046,2.15333333 54.9384046,2.825 C54.9384046,3.475 55.4617493,4.03833333 56.1377361,4.03833333 L59.5830884,4.03833333 L59.5830884,15.6083333 C59.5830884,16.28 60.1282391,16.8 60.7824199,16.8 C61.4584067,16.8 61.9817514,16.28 61.9817514,15.6083333 L61.9817514,4.03833333 L65.4489097,4.03833333 C66.1030905,4.03833333 66.6482412,3.475 66.6482412,2.825 C66.6482412,2.15333333 66.1030905,1.63333333 65.4489097,1.63333333 Z M77.0715222,1.2 C74.9781436,1.2 73.0592132,2.08833333 71.7290455,3.51833333 C70.3770718,4.94833333 69.5702488,6.855 69.5702488,9 C69.5702488,11.145 70.3770718,13.0733333 71.7290455,14.4816667 C73.0592132,15.89 74.9781436,16.8 77.0715222,16.8 C79.0776767,16.8 80.9966071,15.89 82.2831627,14.4816667 C83.6351363,13.0733333 84.4855714,11.145 84.4855714,9 C84.4855714,6.855 83.6351363,4.94833333 82.2831627,3.51833333 C80.9966071,2.08833333 79.0776767,1.2 77.0715222,1.2 Z M80.5168745,12.77 C79.6010213,13.745 78.3798838,14.33 77.0715222,14.33 C75.6759364,14.33 74.4547989,13.745 73.5389458,12.77 C72.6230926,11.8383333 72.0561359,10.4733333 72.0561359,9 C72.0561359,7.52666667 72.6230926,6.16166667 73.5389458,5.20833333 C74.4547989,4.23333333 75.6759364,3.67 77.0715222,3.67 C78.3798838,3.67 79.6010213,4.23333333 80.5168745,5.20833333 C81.4109216,6.16166667 81.9996843,7.52666667 81.9996843,9 C81.9996843,10.4733333 81.4109216,11.8383333 80.5168745,12.77 C80.5168745,12.77 81.4109216,11.8383333 80.5168745,12.77 Z M89.9806903,16.8 C90.0024963,16.8 90.0024963,16.7783333 90.0461083,16.7783333 C90.0461083,16.7783333 90.0461083,16.8 90.0679144,16.8 L93.9275812,16.8 C96.5006924,16.8 98.594071,14.72 98.594071,12.1416667 C98.594071,10.495 97.7000239,9.04333333 96.3916622,8.22 C96.9150069,7.52666667 97.2202913,6.68166667 97.2202913,5.75 C97.2202913,3.475 95.366779,1.63333333 93.0771461,1.63333333 L90.0679144,1.63333333 L90.0461083,1.63333333 L89.9806903,1.63333333 C89.3265094,1.63333333 88.7813588,2.15333333 88.7813588,2.825 L88.7813588,15.6083333 C88.7813588,16.2583333 89.3265094,16.8 89.9806903,16.8 C89.9806903,16.8 89.3265094,16.8 89.9806903,16.8 Z M91.2018278,4.03833333 L93.0771461,4.03833333 C94.0366113,4.03833333 94.7998223,4.79666667 94.7998223,5.75 C94.7998223,6.70333333 94.0366113,7.505 93.0771461,7.505 L91.2018278,7.505 L91.2018278,4.03833333 Z M91.2018278,9.91 L93.9275812,9.91 C95.1705247,9.93166667 96.173602,10.9066667 96.173602,12.1416667 C96.173602,13.3983333 95.1705247,14.3733333 93.9275812,14.395 L91.2018278,14.395 L91.2018278,9.91 Z M101.886781,15.6083333 C101.886781,16.28 102.410126,16.8 103.086113,16.8 C103.740293,16.8 104.30725,16.28 104.30725,15.6083333 L104.30725,2.825 C104.30725,2.15333333 103.740293,1.63333333 103.086113,1.63333333 C102.410126,1.63333333 101.886781,2.15333333 101.886781,2.825 C101.886781,2.825 101.886781,2.15333333 101.886781,2.825 L101.886781,15.6083333 Z M118.917288,2.825 C118.917288,2.15333333 118.372138,1.63333333 117.717957,1.63333333 L108.406783,1.63333333 C107.730796,1.63333333 107.207452,2.15333333 107.207452,2.825 C107.207452,3.475 107.730796,4.03833333 108.406783,4.03833333 L111.852136,4.03833333 L111.852136,15.6083333 C111.852136,16.28 112.397286,16.8 113.051467,16.8 C113.727454,16.8 114.250798,16.28 114.250798,15.6083333 L114.250798,4.03833333 L117.717957,4.03833333 C118.372138,4.03833333 118.917288,3.475 118.917288,2.825 C118.917288,2.825 118.917288,3.475 118.917288,2.825 Z M129.340569,1.2 C127.247191,1.2 125.32826,2.08833333 123.998093,3.51833333 C122.646119,4.94833333 121.839296,6.855 121.839296,9 C121.839296,11.145 122.646119,13.0733333 123.998093,14.4816667 C125.32826,15.89 127.247191,16.8 129.340569,16.8 C131.346724,16.8 133.265654,15.89 134.55221,14.4816667 C135.904183,13.0733333 136.754619,11.145 136.754619,9 C136.754619,6.855 135.904183,4.94833333 134.55221,3.51833333 C133.265654,2.08833333 131.346724,1.2 129.340569,1.2 Z M132.785922,12.77 C131.870068,13.745 130.648931,14.33 129.340569,14.33 C127.944984,14.33 126.723846,13.745 125.807993,12.77 C124.89214,11.8383333 124.325183,10.4733333 124.325183,9 C124.325183,7.52666667 124.89214,6.16166667 125.807993,5.20833333 C126.723846,4.23333333 127.944984,3.67 129.340569,3.67 C130.648931,3.67 131.870068,4.23333333 132.785922,5.20833333 C133.679969,6.16166667 134.268731,7.52666667 134.268731,9 C134.268731,10.4733333 133.679969,11.8383333 132.785922,12.77 C132.785922,12.77 133.679969,11.8383333 132.785922,12.77 Z" id="HITOBITO-copy-2"></path>
                        </g>
                    </g>
                    <rect id="Rectangle-6" fill="#D8D8D8" sketch:type="MSShapeGroup" mask="url(#mask-10)" x="20" y="58" width="80" height="170"></rect>
                    <rect id="Rectangle-11-Copy" fill="#B6B6B6" sketch:type="MSShapeGroup" mask="url(#mask-10)" x="20" y="100" width="80" height="20"></rect>
                    <rect id="Rectangle-6-Copy" fill="#FFFFFF" sketch:type="MSShapeGroup" mask="url(#mask-10)" x="100" y="58" width="356" height="247"></rect>
                    <rect id="Rectangle-8" fill="#EBEBEB" sketch:type="MSShapeGroup" mask="url(#mask-10)" x="336" y="22" width="56" height="14" rx="3"></rect>
                    <rect id="Rectangle-8-Copy-2" fill="#EBEBEB" sketch:type="MSShapeGroup" mask="url(#mask-10)" x="270" y="22" width="56" height="14" rx="3"></rect>
                    <rect id="Rectangle-8-Copy" fill="#EBEBEB" sketch:type="MSShapeGroup" mask="url(#mask-10)" x="402" y="22" width="56" height="14" rx="3"></rect>
                    <g id="user" mask="url(#mask-10)">
                        <g transform="translate(130.000000, 88.000000)">
                            <rect id="Rectangle-12-Copy" fill="#B6B6B6" sketch:type="MSShapeGroup" x="70" y="0" width="124" height="16"></rect>
                            <rect id="Rectangle-12-Copy-2" fill="#D8D8D8" sketch:type="MSShapeGroup" x="70" y="22" width="200" height="8"></rect>
                            <rect id="Rectangle-12-Copy-3" fill="#D8D8D8" sketch:type="MSShapeGroup" x="70" y="32" width="180" height="8"></rect>
                            <rect id="Rectangle-12-Copy-4" fill="#D8D8D8" sketch:type="MSShapeGroup" x="70" y="42" width="190" height="8"></rect>
                            <g id="thumbnail" stroke-width="1" fill="none" sketch:type="MSLayerGroup">
                                <mask id="mask-12" sketch:name="Mask" fill="white">
                                    <use xlink:href="#path-11"></use>
                                </mask>
                                <use id="Mask" stroke="#B6B6B6" stroke-width="2" fill="#B6B6B6" sketch:type="MSShapeGroup" xlink:href="#path-11"></use>
                                <path d="M25,67 C36.045695,67 45,58.045695 45,47 C45,35.954305 36.045695,31 25,31 C13.954305,31 5,35.954305 5,47 C5,58.045695 13.954305,67 25,67 Z" id="Oval-5-Copy" fill="#FFFFFF" sketch:type="MSShapeGroup" mask="url(#mask-12)"></path>
                                <circle id="Oval-5" stroke="#B6B6B6" stroke-width="3" fill="#FFFFFF" sketch:type="MSShapeGroup" mask="url(#mask-12)" cx="25" cy="19" r="12"></circle>
                            </g>
                        </g>
                    </g>
                    <g id="user-copy" mask="url(#mask-10)">
                        <g transform="translate(130.000000, 168.000000)">
                            <rect id="Rectangle-12-Copy" fill="#B6B6B6" sketch:type="MSShapeGroup" x="70" y="0" width="124" height="16"></rect>
                            <rect id="Rectangle-12-Copy-2" fill="#D8D8D8" sketch:type="MSShapeGroup" x="70" y="22" width="200" height="8"></rect>
                            <rect id="Rectangle-12-Copy-3" fill="#D8D8D8" sketch:type="MSShapeGroup" x="70" y="32" width="180" height="8"></rect>
                            <rect id="Rectangle-12-Copy-4" fill="#D8D8D8" sketch:type="MSShapeGroup" x="70" y="42" width="190" height="8"></rect>
                            <g id="thumbnail" stroke-width="1" fill="none" sketch:type="MSLayerGroup">
                                <mask id="mask-14" sketch:name="Mask" fill="white">
                                    <use xlink:href="#path-13"></use>
                                </mask>
                                <use id="Mask" stroke="#B6B6B6" stroke-width="2" fill="#B6B6B6" sketch:type="MSShapeGroup" xlink:href="#path-13"></use>
                                <path d="M25,67 C36.045695,67 45,58.045695 45,47 C45,35.954305 36.045695,31 25,31 C13.954305,31 5,35.954305 5,47 C5,58.045695 13.954305,67 25,67 Z" id="Oval-5-Copy" fill="#FFFFFF" sketch:type="MSShapeGroup" mask="url(#mask-14)"></path>
                                <circle id="Oval-5" stroke="#B6B6B6" stroke-width="3" fill="#FFFFFF" sketch:type="MSShapeGroup" mask="url(#mask-14)" cx="25" cy="19" r="12"></circle>
                            </g>
                        </g>
                    </g>
                    <g id="user-copy-2" mask="url(#mask-10)">
                        <g transform="translate(130.000000, 248.000000)">
                            <rect id="Rectangle-12-Copy" fill="#B6B6B6" sketch:type="MSShapeGroup" x="70" y="0" width="124" height="16"></rect>
                            <rect id="Rectangle-12-Copy-2" fill="#D8D8D8" sketch:type="MSShapeGroup" x="70" y="22" width="200" height="8"></rect>
                            <rect id="Rectangle-12-Copy-3" fill="#D8D8D8" sketch:type="MSShapeGroup" x="70" y="32" width="180" height="8"></rect>
                            <rect id="Rectangle-12-Copy-4" fill="#D8D8D8" sketch:type="MSShapeGroup" x="70" y="42" width="190" height="8"></rect>
                            <g id="thumbnail" stroke-width="1" fill="none" sketch:type="MSLayerGroup">
                                <mask id="mask-16" sketch:name="Mask" fill="white">
                                    <use xlink:href="#path-15"></use>
                                </mask>
                                <use id="Mask" stroke="#B6B6B6" stroke-width="2" fill="#B6B6B6" sketch:type="MSShapeGroup" xlink:href="#path-15"></use>
                                <path d="M25,67 C36.045695,67 45,58.045695 45,47 C45,35.954305 36.045695,31 25,31 C13.954305,31 5,35.954305 5,47 C5,58.045695 13.954305,67 25,67 Z" id="Oval-5-Copy" fill="#FFFFFF" sketch:type="MSShapeGroup" mask="url(#mask-16)"></path>
                                <circle id="Oval-5" stroke="#B6B6B6" stroke-width="3" fill="#FFFFFF" sketch:type="MSShapeGroup" mask="url(#mask-16)" cx="25" cy="19" r="12"></circle>
                            </g>
                        </g>
                    </g>
                </g>
            </g>
        </g>
    </g>
</svg>