<?xml version="1.0" encoding="UTF-8" standalone="no"?>
<svg width="24px" height="24px" viewBox="0 0 24 24" version="1.1" xmlns="http://www.w3.org/2000/svg" xmlns:xlink="http://www.w3.org/1999/xlink" xmlns:sketch="http://www.bohemiancoding.com/sketch/ns">
    <title>icon-next</title>
    <description>Created with Sketch (http://www.bohemiancoding.com/sketch)</description>
    <defs></defs>
    <g id="Page 1" stroke="none" stroke-width="1" fill="none" fill-rule="evenodd">
        <g id="Artboard 1" transform="translate(-1426.000000, -359.000000)" fill="#FFFFFF">
            <path d="M1445.08464,368.449886 L1446.43992,369.727128 C1446.7189,369.990046 1446.89168,370.309867 1446.96243,370.645883 C1447.08361,371.215152 1446.91181,371.828904 1446.44473,372.269091 L1445.08464,373.550867 L1435.61264,382.47746 C1434.8738,383.173752 1433.66152,383.17612 1432.91536,382.472924 L1431.56008,381.195684 C1430.81647,380.494887 1430.81177,379.354412 1431.55527,378.653721 L1439.67623,371.000378 L1431.55527,363.347034 C1430.81643,362.650742 1430.81392,361.508267 1431.56008,360.805071 L1432.91536,359.527832 C1433.65898,358.827034 1434.86913,358.822604 1435.61264,359.523295 L1445.08464,368.449886 Z M1445.08464,368.449886" id="next"></path>
        </g>
    </g>
</svg>