<?xml version="1.0" encoding="utf-8"?>
<!-- Generator: Adobe Illustrator 16.0.0, SVG Export Plug-In . SVG Version: 6.00 Build 0)  -->
<!DOCTYPE svg PUBLIC "-//W3C//DTD SVG 1.1//EN" "http://www.w3.org/Graphics/SVG/1.1/DTD/svg11.dtd">
<svg version="1.1" id="Calque_1" xmlns:sketch="http://www.bohemiancoding.com/sketch/ns"
	 xmlns="http://www.w3.org/2000/svg" xmlns:xlink="http://www.w3.org/1999/xlink" x="0px" y="0px" width="96px" height="156px"
	 viewBox="0 0 96 156" enable-background="new 0 0 96 156" xml:space="preserve">
<title>logo-you</title>
<description>Created with Sketch (http://www.bohemiancoding.com/sketch)</description>
<g id="Artboard_1" transform="translate(-1073.000000, -3601.000000)">
	<g id="Group" transform="translate(1074.000000, 3602.000000)">
		<g transform="translate(0.250000, 0.487084)">
			<path id="Oval_2_copy" fill="none" stroke="#D8DBE1" stroke-width="3" stroke-dasharray="8" d="M46.858,103.453
				c31.699,0,46.357-14.6,46.357-46.169S78.557,0.123,46.858,0.123S0.5,25.715,0.5,57.284S15.159,103.453,46.858,103.453z"/>
			<path id="Oval_33" fill="#D8DBE1" d="M24.803,77.308c4.68,5.109,12.805,12.15,22.045,12.15c9.346,0,17.552-7.203,22.205-12.326
				c2.568-2.825,1.88-4.419-1.502-3.694c-5.213,1.119-13.297,2.542-20.703,2.542c-8.269,0-15.9-1.339-20.78-2.441
				C22.656,72.769,22.137,74.398,24.803,77.308z"/>
			<path id="人_人_copy" fill="#D8DBE1" d="M31.61,48.302c-1.162,2.585-3.089,4.543-5.842,6.143
				c-0.293,0.154-0.6,0.242-0.927,0.242c-0.632,0-1.201-0.315-1.478-0.84c-0.161-0.274-0.256-0.561-0.256-0.86
				c0-0.601,0.356-1.137,0.923-1.404c1.97-0.985,3.536-2.539,4.405-4.297c1.03-2.055,1.385-3.716,1.385-6.856
				c0-0.926,0.795-1.467,1.734-1.467c0.901,0,1.685,0.558,1.685,1.467c0,3.114,0.354,4.689,1.425,6.699
				c0.903,1.707,2.628,3.383,4.558,4.398c0.563,0.266,0.845,0.81,0.845,1.383c0,0.307-0.095,0.615-0.256,0.891l-0.042,0.065
				c-0.339,0.481-0.856,0.744-1.436,0.744c-0.325,0-0.651-0.089-0.977-0.261C34.829,52.898,32.815,50.825,31.61,48.302z
				 M62.15,48.772c-1.162,2.585-3.089,4.543-5.842,6.143c-0.293,0.154-0.6,0.243-0.927,0.243c-0.632,0-1.2-0.316-1.478-0.84
				c-0.16-0.274-0.256-0.561-0.256-0.86c0-0.601,0.355-1.137,0.924-1.404c1.97-0.985,3.535-2.539,4.404-4.297
				c1.029-2.055,1.385-3.716,1.385-6.856c0-0.926,0.795-1.467,1.734-1.467c0.9,0,1.684,0.558,1.684,1.467
				c0,3.114,0.354,4.689,1.426,6.699c0.904,1.707,2.629,3.383,4.558,4.398c0.563,0.266,0.846,0.81,0.846,1.383
				c0,0.307-0.095,0.616-0.257,0.891l-0.042,0.064c-0.339,0.481-0.856,0.744-1.436,0.744c-0.324,0-0.651-0.089-0.977-0.261
				C65.37,53.368,63.355,51.295,62.15,48.772z"/>
		</g>
		<g id="Group_copy" transform="translate(21.500000, 129.396837)">
			<g enable-background="new    ">
				<path fill="#525355" d="M1.968,15.824c0.432-0.527,1.224-0.6,1.752-0.168c1.056,0.864,2.88,1.872,4.584,1.849
					c1.2,0,2.28-0.36,3-0.889c0.72-0.527,1.032-1.128,1.032-1.728c0-0.312-0.072-0.528-0.216-0.769
					c-0.144-0.239-0.36-0.479-0.72-0.72c-0.696-0.456-1.872-0.864-3.288-1.128H8.064c-1.128-0.216-2.184-0.504-3.096-0.937
					c-0.912-0.432-1.704-1.032-2.232-1.872c-0.36-0.576-0.552-1.248-0.552-1.968c0-1.44,0.816-2.688,1.92-3.505
					c1.128-0.815,2.592-1.271,4.152-1.271c2.304,0,4.008,1.128,5.232,1.92c0.552,0.384,0.72,1.152,0.336,1.704
					c-0.36,0.576-1.128,0.744-1.704,0.36c-1.224-0.816-2.4-1.536-3.864-1.536c-1.08,0-2.041,0.336-2.688,0.815
					C4.92,6.464,4.656,6.992,4.656,7.496c0,0.288,0.048,0.479,0.168,0.672c0.12,0.192,0.336,0.408,0.648,0.624
					c0.624,0.432,1.704,0.816,3,1.056h0.048c1.224,0.24,2.353,0.553,3.312,1.009c0.984,0.479,1.848,1.104,2.4,1.992
					c0.36,0.576,0.576,1.296,0.576,2.04c0,1.536-0.864,2.856-2.064,3.72c-1.176,0.864-2.736,1.368-4.44,1.368
					c-2.592-0.023-4.776-1.319-6.145-2.399C1.632,17.144,1.56,16.352,1.968,15.824z"/>
				<path fill="#525355" d="M20.856,5c0,0.72-0.552,1.319-1.296,1.319c-0.72,0-1.296-0.6-1.296-1.319V4.496
					c0-0.721,0.576-1.297,1.296-1.297c0.744,0,1.296,0.576,1.296,1.297V5z M20.856,9.343v9.361c0,0.72-0.552,1.296-1.296,1.296
					c-0.72,0-1.296-0.576-1.296-1.296V9.343c0-0.768,0.576-1.319,1.296-1.319C20.304,8.024,20.856,8.576,20.856,9.343z"/>
				<path fill="#525355" d="M24.144,14c0.024-3.264,2.568-6,5.856-6c3.12,0,5.593,2.328,5.785,5.568c0,0.024,0,0.072,0,0.12
					s0,0.168-0.024,0.216c-0.072,0.576-0.576,0.96-1.248,0.96H26.88c0.12,0.553,0.384,1.177,0.815,1.584
					c0.504,0.576,1.465,1.009,2.305,1.08c0.864,0.072,1.896-0.144,2.496-0.6c0.504-0.528,1.488-0.456,1.801-0.072
					c0.312,0.336,0.552,1.057,0,1.561c-1.177,1.08-2.593,1.584-4.297,1.584C26.712,19.976,24.167,17.264,24.144,14z M26.76,12.824
					h6.793c-0.24-0.96-1.465-2.376-3.553-2.544C27.96,10.376,26.951,11.839,26.76,12.824z"/>
				<path fill="#525355" d="M43.152,13.136v1.56c0,0.672-0.504,1.177-1.176,1.177c-0.625,0-1.176-0.505-1.176-1.177V12.2
					c0-0.023,0.023-0.023,0.023-0.048c-0.023-0.024-0.023-0.024-0.023-0.048c0-0.624,0.551-1.177,1.176-1.177
					c1.512,0,2.736-1.199,2.736-2.688c0-1.513-1.225-2.688-2.736-2.688c-0.984,0-1.849,0.528-2.305,1.32
					c-0.336,0.576-1.057,0.768-1.632,0.432c-0.552-0.336-0.744-1.032-0.408-1.608c0.864-1.487,2.496-2.496,4.345-2.496
					c2.783,0,5.064,2.257,5.064,5.041C47.041,10.616,45.385,12.608,43.152,13.136z M43.152,18.392v0.433
					c0,0.672-0.504,1.176-1.176,1.176c-0.625,0-1.176-0.504-1.176-1.176v-0.433c0-0.647,0.551-1.176,1.176-1.176
					C42.648,17.216,43.152,17.745,43.152,18.392z"/>
			</g>
		</g>
	</g>
</g>
</svg>
