<?xml version="1.0" encoding="UTF-8" standalone="no"?>
<svg width="300px" height="100px" viewBox="0 0 300 100" version="1.1" xmlns="http://www.w3.org/2000/svg" xmlns:xlink="http://www.w3.org/1999/xlink" xmlns:sketch="http://www.bohemiancoding.com/sketch/ns">
    <!-- Generator: Sketch 3.3 (11970) - http://www.bohemiancoding.com/sketch -->
    <title>logo-pbs</title>
    <desc>Created with Sketch.</desc>
    <defs></defs>
    <g id="Page-1" stroke="none" stroke-width="1" fill="none" fill-rule="evenodd" sketch:type="MSPage">
        <g id="Artboard-4" sketch:type="MSArtboardGroup" transform="translate(-401.000000, -4349.000000)">
            <g id="logo-pbs" sketch:type="MSLayerGroup" transform="translate(401.000000, 4349.000000)">
                <path d="M25.4043189,36.985 L26.8893688,29.825 L29.7996678,29.825 C30.3179402,29.825 31.9923588,29.825 31.9923588,31.625 C31.9923588,32.235 31.7431894,33.265 30.8760797,33.825 C30.2083056,34.255 29.2415282,34.255 28.3843854,34.255 L27.4375415,34.255 L26.8694352,36.985 L25.4043189,36.985 L25.4043189,36.985 Z M27.686711,33.055 L28.1352159,33.055 C28.7730897,33.055 29.430897,33.075 29.8395349,32.855 C30.4275748,32.535 30.5372093,31.985 30.5372093,31.745 C30.5372093,31.005 29.9192691,31.025 29.1717608,31.025 L28.1152824,31.025 L27.686711,33.055 L27.686711,33.055 Z" id="Fill-1" fill="#174489" sketch:type="MSShapeGroup"></path>
                <path d="M35.4009967,32.825 L34.4142857,32.825 L33.5471761,36.985 L32.1518272,36.985 L33.0189369,32.825 L32.2315615,32.825 L32.4508306,31.805 L33.2282392,31.805 L33.3378738,31.265 C33.4973422,30.505 33.6667774,29.705 34.9524917,29.705 C35.2803987,29.705 35.7697674,29.765 36.2980066,29.935 L36.027907,30.945 C35.6601329,30.815 35.3611296,30.765 35.2215947,30.765 C34.8428571,30.765 34.7820598,31.015 34.7033223,31.435 L34.623588,31.805 L35.610299,31.805 L35.4009967,32.825" id="Fill-2" fill="#174489" sketch:type="MSShapeGroup"></path>
                <path d="M35.9591362,33.155 C36.3578073,31.985 37.3843854,31.675 38.310299,31.675 C40.1352159,31.675 40.2747508,32.755 40.2747508,33.065 C40.2747508,33.435 40.2039867,33.745 40.0056478,34.645 C39.9857143,34.725 39.8860465,35.165 39.8760797,35.255 C39.7963455,35.595 39.7365449,35.955 39.7365449,36.245 C39.7365449,36.545 39.776412,36.725 39.8461794,36.985 L38.4906977,36.985 C38.4209302,36.745 38.4109635,36.655 38.3910299,36.395 C37.9126246,36.935 37.3245847,37.105 36.8860465,37.105 C36.0887043,37.105 35.4009967,36.555 35.4009967,35.595 C35.4009967,34.045 36.8362126,33.925 37.50299,33.875 C38.0521595,33.825 38.5604651,33.775 38.8395349,33.675 C38.8694352,33.585 38.9292359,33.385 38.9292359,33.205 C38.9292359,32.825 38.5803987,32.675 38.2106312,32.675 C37.7930233,32.675 37.4431894,32.825 37.3245847,33.265 L35.9591362,33.155 L35.9591362,33.155 Z M38.6501661,34.565 C38.5604651,34.595 38.5196013,34.605 38.3212625,34.625 C37.4631229,34.735 36.7156146,34.865 36.7156146,35.475 C36.7156146,35.745 36.9059801,36.055 37.354485,36.055 C38.341196,36.055 38.5305648,35.175 38.6202658,34.755 L38.6501661,34.565 L38.6501661,34.565 Z" id="Fill-3" fill="#174489" sketch:type="MSShapeGroup"></path>
                <path d="M44.3511628,36.985 L44.4707641,36.445 L44.4508306,36.425 C44.1817276,36.705 43.6833887,37.105 42.8461794,37.105 C41.7388704,37.105 41.0521595,36.325 41.0521595,34.935 C41.0521595,33.265 42.058804,31.675 43.6036545,31.675 C44.6401993,31.675 45.0378738,32.315 45.1674419,32.505 L45.7255814,29.825 L47.1219269,29.825 L45.6269103,36.985 L44.3511628,36.985 L44.3511628,36.985 Z M43.3744186,36.045 C44.4009967,36.045 44.7996678,34.715 44.7996678,33.965 C44.7996678,33.305 44.4009967,32.755 43.80299,32.755 C42.9059801,32.755 42.4076412,33.965 42.4076412,34.875 C42.4076412,35.515 42.7465116,36.045 43.3744186,36.045 L43.3744186,36.045 Z" id="Fill-4" fill="#174489" sketch:type="MSShapeGroup"></path>
                <path d="M49.4342193,31.805 L48.3578073,36.985 L46.9624585,36.985 L48.0388704,31.805 L49.4342193,31.805 L49.4342193,31.805 Z M49.8528239,29.825 L49.5837209,31.095 L48.1883721,31.095 L48.4574751,29.825 L49.8528239,29.825 L49.8528239,29.825 Z" id="Fill-5" fill="#174489" sketch:type="MSShapeGroup"></path>
                <path d="M51.1674419,29.825 L52.5627907,29.825 L52.0644518,32.225 C52.3734219,31.985 52.80299,31.675 53.5106312,31.675 C54.8162791,31.675 55.3146179,32.695 55.3146179,33.825 C55.3146179,35.685 54.1574751,37.105 52.7531561,37.105 C51.6458472,37.105 51.2481728,36.365 51.1385382,36.135 L51.1186047,36.135 L50.9491694,36.985 L49.6724252,36.985 L51.1674419,29.825 L51.1674419,29.825 Z M52.5438538,36.045 C53.5305648,36.045 53.9591362,34.685 53.9591362,33.865 C53.9591362,33.105 53.5106312,32.675 52.982392,32.675 C52.1043189,32.675 51.5571429,33.775 51.5571429,34.875 C51.5571429,35.465 51.9348837,36.045 52.5438538,36.045 L52.5438538,36.045 Z" id="Fill-6" fill="#174489" sketch:type="MSShapeGroup"></path>
                <path d="M57.3677741,34.825 C57.327907,35.635 57.7953488,36.105 58.3734219,36.105 C59.072093,36.105 59.3810631,35.545 59.4598007,35.385 L60.7166113,35.595 C60.1086379,36.845 59.0810631,37.105 58.3644518,37.105 C56.9292359,37.105 56.0222591,36.095 56.0222591,34.695 C56.0222591,33.395 56.8495017,31.675 58.9026578,31.675 C60.5362126,31.675 60.9657807,32.935 60.9657807,33.915 C60.9657807,34.055 60.9548173,34.485 60.8760797,34.825 L57.3677741,34.825 L57.3677741,34.825 Z M59.6990033,33.975 C59.7289037,33.285 59.4797342,32.675 58.7521595,32.675 C57.9458472,32.675 57.6059801,33.485 57.5063123,33.975 L59.6990033,33.975 L59.6990033,33.975 Z" id="Fill-7" fill="#174489" sketch:type="MSShapeGroup"></path>
                <path d="M65.2923588,36.985 L65.0531561,33.685 L65.0332226,33.685 L63.4684385,36.985 L62.1717608,36.985 L61.5249169,31.805 L62.7607973,31.805 L63.1086379,35.275 L63.1285714,35.275 L64.7342193,31.805 L66,31.805 L66.1694352,35.275 L66.1893688,35.275 L67.7840532,31.805 L69.179402,31.805 L66.6079734,36.985 L65.2923588,36.985" id="Fill-8" fill="#174489" sketch:type="MSShapeGroup"></path>
                <path d="M70.5139535,34.825 C70.4750831,35.635 70.9435216,36.105 71.5215947,36.105 C72.2192691,36.105 72.5282392,35.545 72.6079734,35.385 L73.8627907,35.595 C73.255814,36.845 72.2292359,37.105 71.5116279,37.105 C70.076412,37.105 69.1684385,36.095 69.1684385,34.695 C69.1684385,33.395 69.9956811,31.675 72.0498339,31.675 C73.6843854,31.675 74.1119601,32.935 74.1119601,33.915 C74.1119601,34.055 74.10299,34.485 74.0232558,34.825 L70.5139535,34.825 L70.5139535,34.825 Z M72.8461794,33.975 C72.8770764,33.285 72.627907,32.675 71.9003322,32.675 C71.0930233,32.675 70.7541528,33.485 70.654485,33.975 L72.8461794,33.975 L72.8461794,33.975 Z" id="Fill-9" fill="#174489" sketch:type="MSShapeGroup"></path>
                <path d="M75.8960133,37.475 C75.8870432,37.745 75.986711,38.085 76.654485,38.085 C77.6112957,38.085 77.7209302,37.545 77.8893688,36.645 L77.9292359,36.415 L77.9093023,36.395 C77.730897,36.575 77.2126246,37.005 76.4352159,37.005 C75.6667774,37.005 74.7009967,36.535 74.7009967,34.895 C74.7009967,32.865 75.8960133,31.675 77.1817276,31.675 C77.8295681,31.675 78.4584718,32.015 78.7863787,32.715 L78.8063123,32.715 L78.9857143,31.805 L80.3013289,31.805 L79.4043189,36.125 C79.0066445,38.045 78.7863787,39.085 76.623588,39.085 C76.0365449,39.085 74.2225914,39.085 74.4209302,37.255 L75.8960133,37.475 L75.8960133,37.475 Z M76.9933555,35.965 C77.8893688,35.965 78.4076412,34.845 78.4076412,33.905 C78.4076412,33.275 78.0299003,32.675 77.4318937,32.675 C76.4451827,32.675 76.0654485,34.195 76.0654485,34.755 C76.0654485,35.525 76.4551495,35.965 76.9933555,35.965 L76.9933555,35.965 Z" id="Fill-10" fill="#174489" sketch:type="MSShapeGroup"></path>
                <path d="M83.0531561,31.805 L82.4142857,34.875 C82.4053156,34.885 82.4053156,34.925 82.3943522,34.965 C82.345515,35.195 82.2946844,35.405 82.2946844,35.555 C82.2946844,35.825 82.5039867,36.105 82.8837209,36.105 C83.4408638,36.105 83.8694352,35.595 83.9302326,35.525 C84.2591362,35.135 84.358804,34.655 84.448505,34.265 L84.955814,31.805 L86.3521595,31.805 L85.2757475,36.985 L83.9700997,36.985 L84.1186047,36.305 L84.0986711,36.285 C83.5604651,36.815 82.9136213,37.105 82.2548173,37.105 C81.0398671,37.105 80.8903654,36.125 80.8903654,35.755 C80.8903654,35.495 80.9292359,35.265 81.0488372,34.695 L81.6578073,31.805 L83.0531561,31.805" id="Fill-11" fill="#174489" sketch:type="MSShapeGroup"></path>
                <path d="M89.0920266,31.805 L88.9534884,32.455 L88.9734219,32.475 C89.3810631,32.105 89.9591362,31.675 90.7973422,31.675 C91.8229236,31.675 92.161794,32.395 92.161794,33.015 C92.161794,33.295 92.0920266,33.655 92.0122924,34.045 L91.3943522,36.985 L89.9990033,36.985 L90.6169435,34.035 C90.6169435,34.015 90.6269103,33.945 90.6468439,33.875 C90.6667774,33.795 90.686711,33.695 90.686711,33.675 C90.7465116,33.395 90.7465116,33.325 90.7465116,33.255 C90.7465116,32.725 90.2990033,32.675 90.148505,32.675 C89.7209302,32.675 89.282392,33.035 89.0222591,33.375 C88.7641196,33.735 88.7033223,34.065 88.5348837,34.855 L88.0853821,36.985 L86.6910299,36.985 L87.776412,31.805 L89.0920266,31.805" id="Fill-12" fill="#174489" sketch:type="MSShapeGroup"></path>
                <path d="M94.166113,37.475 C94.1551495,37.745 94.2548173,38.085 94.9225914,38.085 C95.879402,38.085 95.9890365,37.545 96.1594684,36.645 L96.1993355,36.415 L96.1784053,36.395 C95.9990033,36.575 95.4807309,37.005 94.7043189,37.005 C93.9358804,37.005 92.969103,36.535 92.969103,34.895 C92.969103,32.865 94.166113,31.675 95.4518272,31.675 C96.0986711,31.675 96.7265781,32.015 97.0554817,32.715 L97.0754153,32.715 L97.2548173,31.805 L98.5704319,31.805 L97.6734219,36.125 C97.2747508,38.045 97.0554817,39.085 94.8936877,39.085 C94.3046512,39.085 92.4906977,39.085 92.6910299,37.255 L94.166113,37.475 L94.166113,37.475 Z M95.2614618,35.965 C96.1594684,35.965 96.6767442,34.845 96.6767442,33.905 C96.6767442,33.275 96.2980066,32.675 95.7009967,32.675 C94.713289,32.675 94.3345515,34.195 94.3345515,34.755 C94.3345515,35.525 94.7232558,35.965 95.2614618,35.965 L95.2614618,35.965 Z" id="Fill-13" fill="#174489" sketch:type="MSShapeGroup"></path>
                <path d="M103.254817,34.595 C103.274751,35.215 103.304651,35.875 104.6701,35.875 C105.168439,35.875 106.025581,35.745 106.025581,34.995 C106.025581,34.485 105.59701,34.305 104.819601,33.965 C103.583721,33.425 102.716611,33.045 102.716611,31.805 C102.716611,30.945 103.254817,29.705 105.25814,29.705 C106.623588,29.705 107.849502,30.295 107.959136,31.865 L106.553821,31.935 C106.474086,31.105 105.915947,30.875 105.248173,30.875 C104.999003,30.875 104.121927,30.875 104.121927,31.625 C104.121927,32.135 104.600332,32.345 105.417608,32.695 C106.643522,33.225 107.480731,33.595 107.480731,34.815 C107.480731,35.865 106.673422,37.105 104.660133,37.105 C103.643522,37.105 102.357807,36.785 101.999003,35.665 C101.869435,35.255 101.849502,34.855 101.859468,34.665 L103.254817,34.595" id="Fill-14" fill="#174489" sketch:type="MSShapeGroup"></path>
                <path d="M113.171761,35.255 C112.753156,36.375 111.90598,37.105 110.650166,37.105 C109.075415,37.105 108.507309,35.965 108.507309,34.885 C108.507309,33.095 109.683389,31.675 111.457475,31.675 C112.862791,31.675 113.460797,32.555 113.540532,33.415 L112.204983,33.555 C112.18505,33.365 112.105316,32.715 111.367774,32.715 C110.281395,32.715 109.892691,34.225 109.892691,35.055 C109.892691,35.725 110.291362,36.005 110.680066,36.005 C110.939203,36.005 111.517276,35.865 111.806312,35.035 L113.171761,35.255" id="Fill-15" fill="#174489" sketch:type="MSShapeGroup"></path>
                <path d="M113.731894,36.985 L115.22691,29.825 L116.623256,29.825 L116.09402,32.375 C116.403987,32.135 116.971096,31.675 117.849169,31.675 C118.964452,31.675 119.204651,32.535 119.204651,32.985 C119.204651,33.295 119.133887,33.625 119.06412,33.955 L118.437209,36.985 L117.04186,36.985 L117.678738,33.895 C117.778405,33.445 117.789369,33.395 117.789369,33.255 C117.789369,32.905 117.560133,32.675 117.190365,32.675 C116.633223,32.675 116.223588,33.175 116.065116,33.395 C115.804983,33.765 115.745183,34.035 115.555814,34.935 L115.128239,36.985 L113.731894,36.985" id="Fill-16" fill="#174489" sketch:type="MSShapeGroup"></path>
                <path d="M123.899003,36.985 L123.658804,33.685 L123.63887,33.685 L122.074086,36.985 L120.779402,36.985 L120.130565,31.805 L121.366445,31.805 L121.716279,35.275 L121.736213,35.275 L123.340864,31.805 L124.606645,31.805 L124.775083,35.275 L124.795017,35.275 L126.390698,31.805 L127.78505,31.805 L125.213621,36.985 L123.899003,36.985" id="Fill-17" fill="#174489" sketch:type="MSShapeGroup"></path>
                <path d="M129.120598,34.825 C129.080731,35.635 129.549169,36.105 130.128239,36.105 C130.824917,36.105 131.133887,35.545 131.213621,35.385 L132.470432,35.595 C131.861462,36.845 130.834884,37.105 130.117276,37.105 C128.68206,37.105 127.775083,36.095 127.775083,34.695 C127.775083,33.395 128.602326,31.675 130.655482,31.675 C132.290033,31.675 132.719601,32.935 132.719601,33.915 C132.719601,34.055 132.708638,34.485 132.628904,34.825 L129.120598,34.825 L129.120598,34.825 Z M131.453821,33.975 C131.482724,33.285 131.233555,32.675 130.50598,32.675 C129.698671,32.675 129.360797,33.485 129.260133,33.975 L131.453821,33.975 L131.453821,33.975 Z" id="Fill-18" fill="#174489" sketch:type="MSShapeGroup"></path>
                <path d="M135.590033,31.805 L134.512625,36.985 L133.118272,36.985 L134.194684,31.805 L135.590033,31.805 L135.590033,31.805 Z M136.007641,29.825 L135.738538,31.095 L134.344186,31.095 L134.613289,29.825 L136.007641,29.825 L136.007641,29.825 Z" id="Fill-19" fill="#174489" sketch:type="MSShapeGroup"></path>
                <path d="M135.85814,36.035 L138.688704,32.895 L136.377409,32.895 L136.605648,31.805 L140.662126,31.805 L140.492691,32.635 L137.632226,35.845 L140.12392,35.845 L139.885714,36.985 L135.658804,36.985 L135.85814,36.035" id="Fill-20" fill="#174489" sketch:type="MSShapeGroup"></path>
                <path d="M8.46378738,48.985 L8.20465116,43.005 L8.18471761,43.005 L7.05946844,48.985 L5.73289037,48.985 L7.22790698,41.825 L9.32192691,41.825 L9.53122924,46.845 L9.55116279,46.845 L11.972093,41.825 L14.0850498,41.825 L12.5900332,48.985 L11.254485,48.985 L12.6607973,43.065 L12.6408638,43.045 L9.84916944,48.985 L8.46378738,48.985" id="Fill-21" fill="#174489" sketch:type="MSShapeGroup"></path>
                <path d="M17.1647841,43.675 C18.9488372,43.675 19.586711,44.835 19.586711,46.015 C19.586711,47.585 18.5212625,49.105 16.6365449,49.105 C15.0219269,49.105 14.2345515,48.045 14.2345515,46.835 C14.2345515,45.475 14.9421927,43.675 17.1647841,43.675 L17.1647841,43.675 Z M17.1647841,44.735 C15.9687708,44.735 15.6199336,46.195 15.6199336,46.815 C15.6199336,47.405 15.958804,48.045 16.6863787,48.045 C17.6930233,48.045 18.2013289,46.785 18.2013289,45.835 C18.2013289,45.335 17.9222591,44.735 17.1647841,44.735 L17.1647841,44.735 Z" id="Fill-22" fill="#174489" sketch:type="MSShapeGroup"></path>
                <path d="M22.5767442,43.805 L21.9388704,46.875 C21.9289037,46.885 21.9289037,46.925 21.9189369,46.965 C21.869103,47.195 21.8192691,47.405 21.8192691,47.555 C21.8192691,47.825 22.0285714,48.105 22.407309,48.105 C22.9664452,48.105 23.3940199,47.595 23.4538206,47.525 C23.7827243,47.135 23.882392,46.655 23.972093,46.265 L24.4813953,43.805 L25.8757475,43.805 L24.7993355,48.985 L23.4936877,48.985 L23.6431894,48.305 L23.6232558,48.285 C23.0850498,48.815 22.4372093,49.105 21.779402,49.105 C20.5634551,49.105 20.4139535,48.125 20.4139535,47.755 C20.4139535,47.495 20.4538206,47.265 20.5734219,46.695 L21.1813953,43.805 L22.5767442,43.805" id="Fill-23" fill="#174489" sketch:type="MSShapeGroup"></path>
                <path d="M27.6199336,48.985 L26.5833887,43.805 L27.9488372,43.805 L28.317608,46.065 C28.3275748,46.095 28.3375415,46.175 28.3574751,46.275 C28.407309,46.595 28.4671096,46.915 28.4870432,47.285 L28.5069767,47.285 C28.5368771,47.195 28.5667774,47.145 28.676412,46.945 L28.8757475,46.585 C28.9554817,46.425 29.0750831,46.205 29.2046512,45.985 L30.4903654,43.805 L31.9953488,43.805 L28.8159468,48.985 L27.6199336,48.985" id="Fill-24" fill="#174489" sketch:type="MSShapeGroup"></path>
                <path d="M33.3009967,46.825 C33.2611296,47.635 33.7295681,48.105 34.3076412,48.105 C35.0053156,48.105 35.3142857,47.545 35.3940199,47.385 L36.6498339,47.595 C36.0418605,48.845 35.0152824,49.105 34.2976744,49.105 C32.8624585,49.105 31.9554817,48.095 31.9554817,46.695 C31.9554817,45.395 32.7827243,43.675 34.8358804,43.675 C36.4704319,43.675 36.8990033,44.935 36.8990033,45.915 C36.8990033,46.055 36.8890365,46.485 36.8093023,46.825 L33.3009967,46.825 L33.3009967,46.825 Z M35.6332226,45.975 C35.6631229,45.285 35.4139535,44.675 34.6863787,44.675 C33.8790698,44.675 33.5401993,45.485 33.4405316,45.975 L35.6332226,45.975 L35.6332226,45.975 Z" id="Fill-25" fill="#174489" sketch:type="MSShapeGroup"></path>
                <path d="M39.6996678,43.805 L39.5601329,44.405 L39.5800664,44.425 C39.8192691,44.185 40.3674419,43.675 41.1747508,43.675 C41.5933555,43.675 42.3209302,43.765 42.4803987,44.595 C42.8093023,44.115 43.5069767,43.675 44.2943522,43.675 C45.1913621,43.675 45.6,44.225 45.6,44.885 C45.6,45.135 45.5302326,45.495 45.4704319,45.815 L44.8026578,48.985 L43.407309,48.985 L44.0651163,45.815 C44.0750831,45.785 44.0950166,45.685 44.1149502,45.595 C44.1647841,45.365 44.1946844,45.245 44.1946844,45.145 C44.1946844,44.965 44.1149502,44.675 43.676412,44.675 C43.3076412,44.675 42.9687708,44.925 42.7295681,45.255 C42.4504983,45.645 42.3109635,46.275 42.241196,46.635 L41.7528239,48.985 L40.3475083,48.985 L41.0252492,45.765 C41.0950166,45.405 41.1149502,45.315 41.1149502,45.145 C41.1149502,44.845 40.8956811,44.675 40.5966777,44.675 C40.1681063,44.675 39.8192691,45.025 39.6498339,45.255 C39.4006645,45.605 39.3209302,46.005 39.1913621,46.605 L38.6930233,48.985 L37.2976744,48.985 L38.3840532,43.805 L39.6996678,43.805" id="Fill-26" fill="#174489" sketch:type="MSShapeGroup"></path>
                <path d="M47.70299,46.825 C47.6631229,47.635 48.1315615,48.105 48.7096346,48.105 C49.407309,48.105 49.7162791,47.545 49.7960133,47.385 L51.0518272,47.595 C50.4438538,48.845 49.4172757,49.105 48.6996678,49.105 C47.2644518,49.105 46.3574751,48.095 46.3574751,46.695 C46.3574751,45.395 47.1847176,43.675 49.2378738,43.675 C50.8724252,43.675 51.3009967,44.935 51.3009967,45.915 C51.3009967,46.055 51.2910299,46.485 51.2112957,46.825 L47.70299,46.825 L47.70299,46.825 Z M50.0352159,45.975 C50.0651163,45.285 49.8159468,44.675 49.0883721,44.675 C48.2810631,44.675 47.9421927,45.485 47.8425249,45.975 L50.0352159,45.975 L50.0352159,45.975 Z" id="Fill-27" fill="#174489" sketch:type="MSShapeGroup"></path>
                <path d="M54.1016611,43.805 L53.9621262,44.455 L53.9820598,44.475 C54.3906977,44.105 54.9687708,43.675 55.8059801,43.675 C56.8325581,43.675 57.1714286,44.395 57.1714286,45.015 C57.1714286,45.295 57.1016611,45.655 57.0219269,46.045 L56.4039867,48.985 L55.0086379,48.985 L55.6265781,46.035 C55.6265781,46.015 55.6365449,45.945 55.6564784,45.875 C55.676412,45.795 55.6963455,45.695 55.6963455,45.675 C55.7561462,45.395 55.7561462,45.325 55.7561462,45.255 C55.7561462,44.725 55.3076412,44.675 55.1581395,44.675 C54.7295681,44.675 54.2910299,45.035 54.0318937,45.375 C53.7727575,45.735 53.7129568,46.065 53.5435216,46.855 L53.0950166,48.985 L51.6996678,48.985 L52.7860465,43.805 L54.1016611,43.805" id="Fill-28" fill="#174489" sketch:type="MSShapeGroup"></path>
                <path d="M58.3574751,43.805 L59.0352159,43.805 L59.2046512,42.975 L60.7993355,42.005 L60.4305648,43.805 L61.2877076,43.805 L61.0684385,44.825 L60.2112957,44.825 L59.7627907,47.015 C59.7528239,47.035 59.7428571,47.115 59.7229236,47.195 C59.6631229,47.445 59.6431894,47.565 59.6431894,47.685 C59.6431894,48.025 59.9521595,48.025 60.1116279,48.025 C60.2013289,48.025 60.5202658,47.995 60.5700997,47.995 L60.3508306,49.035 C60.1016611,49.085 59.9023256,49.105 59.613289,49.105 C58.9156146,49.105 58.1980066,48.905 58.1980066,48.035 C58.1980066,47.785 58.2378738,47.575 58.3774086,46.925 L58.8159468,44.825 L58.138206,44.825 L58.3574751,43.805" id="Fill-29" fill="#174489" sketch:type="MSShapeGroup"></path>
                <path d="M65.4936877,46.595 C65.5136213,47.215 65.5435216,47.875 66.9089701,47.875 C67.407309,47.875 68.2644518,47.745 68.2644518,46.995 C68.2644518,46.485 67.8358804,46.305 67.0584718,45.965 C65.8225914,45.425 64.9554817,45.045 64.9554817,43.805 C64.9554817,42.945 65.4936877,41.705 67.49701,41.705 C68.8624585,41.705 70.0883721,42.295 70.1980066,43.865 L68.792691,43.935 C68.7129568,43.105 68.1548173,42.875 67.4870432,42.875 C67.2378738,42.875 66.3607973,42.875 66.3607973,43.625 C66.3607973,44.135 66.8392027,44.345 67.6564784,44.695 C68.882392,45.225 69.7196013,45.595 69.7196013,46.815 C69.7196013,47.865 68.9122924,49.105 66.8990033,49.105 C65.882392,49.105 64.5966777,48.785 64.2378738,47.665 C64.1083056,47.255 64.0883721,46.855 64.0983389,46.665 L65.4936877,46.595" id="Fill-30" fill="#174489" sketch:type="MSShapeGroup"></path>
                <path d="M75.4106312,47.255 C74.9920266,48.375 74.1448505,49.105 72.8890365,49.105 C71.3142857,49.105 70.7461794,47.965 70.7461794,46.885 C70.7461794,45.095 71.9222591,43.675 73.6963455,43.675 C75.1016611,43.675 75.6996678,44.555 75.779402,45.415 L74.4438538,45.555 C74.4239203,45.365 74.344186,44.715 73.6066445,44.715 C72.5202658,44.715 72.1315615,46.225 72.1315615,47.055 C72.1315615,47.725 72.5302326,48.005 72.9189369,48.005 C73.1780731,48.005 73.7561462,47.865 74.0451827,47.035 L75.4106312,47.255" id="Fill-31" fill="#174489" sketch:type="MSShapeGroup"></path>
                <path d="M79.1980066,43.675 C80.9820598,43.675 81.6199336,44.835 81.6199336,46.015 C81.6199336,47.585 80.5534884,49.105 78.6697674,49.105 C77.0551495,49.105 76.2677741,48.045 76.2677741,46.835 C76.2677741,45.475 76.9754153,43.675 79.1980066,43.675 L79.1980066,43.675 Z M79.1980066,44.735 C78.0019934,44.735 77.6531561,46.195 77.6531561,46.815 C77.6531561,47.405 77.9920266,48.045 78.7196013,48.045 C79.7262458,48.045 80.2345515,46.785 80.2345515,45.835 C80.2345515,45.335 79.9554817,44.735 79.1980066,44.735 L79.1980066,44.735 Z" id="Fill-32" fill="#174489" sketch:type="MSShapeGroup"></path>
                <path d="M84.6099668,43.805 L83.972093,46.875 C83.9621262,46.885 83.9621262,46.925 83.9521595,46.965 C83.9023256,47.195 83.8524917,47.405 83.8524917,47.555 C83.8524917,47.825 84.061794,48.105 84.4405316,48.105 C84.9986711,48.105 85.4272425,47.595 85.4870432,47.525 C85.8159468,47.135 85.9156146,46.655 86.0053156,46.265 L86.5136213,43.805 L87.9089701,43.805 L86.8325581,48.985 L85.5269103,48.985 L85.676412,48.305 L85.6564784,48.285 C85.1182724,48.815 84.4704319,49.105 83.8126246,49.105 C82.5966777,49.105 82.4471761,48.125 82.4471761,47.755 C82.4471761,47.495 82.4870432,47.265 82.6066445,46.695 L83.2146179,43.805 L84.6099668,43.805" id="Fill-33" fill="#174489" sketch:type="MSShapeGroup"></path>
                <path d="M88.8159468,43.805 L89.4936877,43.805 L89.6631229,42.975 L91.2578073,42.005 L90.8890365,43.805 L91.7461794,43.805 L91.5259136,44.825 L90.6697674,44.825 L90.2212625,47.015 C90.2112957,47.035 90.2013289,47.115 90.1813953,47.195 C90.1215947,47.445 90.1016611,47.565 90.1016611,47.685 C90.1016611,48.025 90.4106312,48.025 90.5700997,48.025 C90.6598007,48.025 90.9787375,47.995 91.0275748,47.995 L90.8093023,49.035 C90.5601329,49.085 90.3607973,49.105 90.0717608,49.105 C89.3740864,49.105 88.6564784,48.905 88.6564784,48.035 C88.6564784,47.785 88.6963455,47.575 88.8358804,46.925 L89.2744186,44.825 L88.5966777,44.825 L88.8159468,43.805" id="Fill-34" fill="#174489" sketch:type="MSShapeGroup"></path>
                <path d="M97.8159468,48.985 L97.9355482,48.445 L97.9156146,48.425 C97.6465116,48.705 97.1481728,49.105 96.3109635,49.105 C95.2036545,49.105 94.5169435,48.325 94.5169435,46.935 C94.5169435,45.265 95.523588,43.675 97.0684385,43.675 C98.1049834,43.675 98.5026578,44.315 98.6322259,44.505 L99.1913621,41.825 L100.586711,41.825 L99.0916944,48.985 L97.8159468,48.985 L97.8159468,48.985 Z M96.8392027,48.045 C97.8647841,48.045 98.2644518,46.715 98.2644518,45.965 C98.2644518,45.305 97.8647841,44.755 97.2677741,44.755 C96.3697674,44.755 95.8714286,45.965 95.8714286,46.875 C95.8714286,47.515 96.2112957,48.045 96.8392027,48.045 L96.8392027,48.045 Z" id="Fill-35" fill="#174489" sketch:type="MSShapeGroup"></path>
                <path d="M101.972093,46.825 C101.931229,47.635 102.400664,48.105 102.978738,48.105 C103.676412,48.105 103.985382,47.545 104.065116,47.385 L105.319934,47.595 C104.712957,48.845 103.686379,49.105 102.968771,49.105 C101.533555,49.105 100.625581,48.095 100.625581,46.695 C100.625581,45.395 101.453821,43.675 103.506977,43.675 C105.141528,43.675 105.569103,44.935 105.569103,45.915 C105.569103,46.055 105.560133,46.485 105.480399,46.825 L101.972093,46.825 L101.972093,46.825 Z M104.303322,45.975 C104.334219,45.285 104.08505,44.675 103.357475,44.675 C102.550166,44.675 102.211296,45.485 102.111628,45.975 L104.303322,45.975 L104.303322,45.975 Z" id="Fill-36" fill="#174489" sketch:type="MSShapeGroup"></path>
                <path d="M110.354153,46.595 C110.374086,47.215 110.40299,47.875 111.769435,47.875 C112.267774,47.875 113.124917,47.745 113.124917,46.995 C113.124917,46.485 112.696346,46.305 111.918937,45.965 C110.683056,45.425 109.815947,45.045 109.815947,43.805 C109.815947,42.945 110.354153,41.705 112.356478,41.705 C113.722924,41.705 114.947841,42.295 115.057475,43.865 L113.653156,43.935 C113.573422,43.105 113.015282,42.875 112.347508,42.875 C112.098339,42.875 111.221262,42.875 111.221262,43.625 C111.221262,44.135 111.699668,44.345 112.516944,44.695 C113.742857,45.225 114.57907,45.595 114.57907,46.815 C114.57907,47.865 113.771761,49.105 111.758472,49.105 C110.74186,49.105 109.457143,48.785 109.097342,47.665 C108.967774,47.255 108.948837,46.855 108.958804,46.665 L110.354153,46.595" id="Fill-37" fill="#174489" sketch:type="MSShapeGroup"></path>
                <path d="M117.838206,43.805 L117.200332,46.875 C117.190365,46.885 117.190365,46.925 117.180399,46.965 C117.130565,47.195 117.081728,47.405 117.081728,47.555 C117.081728,47.825 117.29103,48.105 117.669767,48.105 C118.227907,48.105 118.655482,47.595 118.715282,47.525 C119.044186,47.135 119.143854,46.655 119.233555,46.265 L119.742857,43.805 L121.137209,43.805 L120.060797,48.985 L118.75515,48.985 L118.904651,48.305 L118.884718,48.285 C118.347508,48.815 117.698671,49.105 117.04186,49.105 C115.824917,49.105 115.676412,48.125 115.676412,47.755 C115.676412,47.495 115.716279,47.265 115.83588,46.695 L116.442857,43.805 L117.838206,43.805" id="Fill-38" fill="#174489" sketch:type="MSShapeGroup"></path>
                <path d="M123.947841,43.805 L122.871429,48.985 L121.47608,48.985 L122.552492,43.805 L123.947841,43.805 L123.947841,43.805 Z M124.366445,41.825 L124.097342,43.095 L122.701993,43.095 L122.971096,41.825 L124.366445,41.825 L124.366445,41.825 Z" id="Fill-39" fill="#174489" sketch:type="MSShapeGroup"></path>
                <path d="M125.442857,47.315 C125.612292,47.745 125.872425,48.135 126.619934,48.135 C127.118272,48.135 127.585714,47.885 127.585714,47.535 C127.585714,47.255 127.487043,47.225 126.529236,46.895 C125.652159,46.595 124.864784,46.325 124.864784,45.355 C124.864784,44.485 125.623256,43.675 127.21794,43.675 C127.945515,43.675 129.100664,43.825 129.369767,45.035 L128.074086,45.265 C127.854817,44.645 127.157143,44.645 126.997674,44.645 C126.419601,44.645 126.181395,44.875 126.181395,45.125 C126.181395,45.435 126.439535,45.515 127.157143,45.725 C127.934551,45.955 129.010963,46.265 129.010963,47.285 C129.010963,47.985 128.472757,49.105 126.648837,49.105 C125.323256,49.105 124.417276,48.645 124.088372,47.535 L125.442857,47.315" id="Fill-40" fill="#174489" sketch:type="MSShapeGroup"></path>
                <path d="M130.984385,47.315 C131.153821,47.745 131.413953,48.135 132.161462,48.135 C132.659801,48.135 133.127243,47.885 133.127243,47.535 C133.127243,47.255 133.027575,47.225 132.070764,46.895 C131.193688,46.595 130.406312,46.325 130.406312,45.355 C130.406312,44.485 131.164784,43.675 132.758472,43.675 C133.487043,43.675 134.642193,43.825 134.911296,45.035 L133.615615,45.265 C133.396346,44.645 132.699668,44.645 132.539203,44.645 C131.96113,44.645 131.722924,44.875 131.722924,45.125 C131.722924,45.435 131.981063,45.515 132.699668,45.725 C133.47608,45.955 134.553488,46.265 134.553488,47.285 C134.553488,47.985 134.014286,49.105 132.190365,49.105 C130.864784,49.105 129.958804,48.645 129.628904,47.535 L130.984385,47.315" id="Fill-41" fill="#174489" sketch:type="MSShapeGroup"></path>
                <path d="M136.874751,46.825 C136.83588,47.635 137.303322,48.105 137.881395,48.105 C138.580066,48.105 138.889037,47.545 138.968771,47.385 L140.223588,47.595 C139.616611,48.845 138.589037,49.105 137.872425,49.105 C136.437209,49.105 135.529236,48.095 135.529236,46.695 C135.529236,45.395 136.356478,43.675 138.410631,43.675 C140.044186,43.675 140.472757,44.935 140.472757,45.915 C140.472757,46.055 140.463787,46.485 140.384053,46.825 L136.874751,46.825 L136.874751,46.825 Z M139.206977,45.975 C139.236877,45.285 138.987708,44.675 138.260133,44.675 C137.453821,44.675 137.113953,45.485 137.014286,45.975 L139.206977,45.975 L139.206977,45.975 Z" id="Fill-42" fill="#174489" sketch:type="MSShapeGroup"></path>
                <path d="M17.6312292,60.986 L17.372093,55.006 L17.3521595,55.006 L16.2259136,60.986 L14.9003322,60.986 L16.3953488,53.826 L18.4883721,53.826 L18.6976744,58.847 L18.717608,58.847 L21.1395349,53.826 L23.2524917,53.826 L21.7574751,60.986 L20.4219269,60.986 L21.8272425,55.066 L21.807309,55.046 L19.0166113,60.986 L17.6312292,60.986" id="Fill-43" fill="#174489" sketch:type="MSShapeGroup"></path>
                <path d="M26.3322259,55.677 C28.1162791,55.677 28.7541528,56.836 28.7541528,58.017 C28.7541528,59.586 27.6877076,61.106 25.8039867,61.106 C24.1893688,61.106 23.4019934,60.046 23.4019934,58.836 C23.4019934,57.477 24.1096346,55.677 26.3322259,55.677 L26.3322259,55.677 Z M26.3322259,56.736 C25.1362126,56.736 24.7873754,58.196 24.7873754,58.816 C24.7873754,59.406 25.1262458,60.046 25.8538206,60.046 C26.8604651,60.046 27.3687708,58.786 27.3687708,57.836 C27.3687708,57.336 27.089701,56.736 26.3322259,56.736 L26.3322259,56.736 Z" id="Fill-44" fill="#174489" sketch:type="MSShapeGroup"></path>
                <path d="M30.5013289,60.986 L29.4637874,55.807 L30.8292359,55.807 L31.1980066,58.066 C31.2089701,58.097 31.2179402,58.177 31.2378738,58.276 C31.2887043,58.597 31.3475083,58.916 31.3674419,59.286 L31.3873754,59.286 C31.4182724,59.196 31.4471761,59.146 31.5568106,58.946 L31.7561462,58.586 C31.8358804,58.427 31.9564784,58.206 32.0850498,57.986 L33.3707641,55.807 L34.8757475,55.807 L31.6963455,60.986 L30.5013289,60.986" id="Fill-45" fill="#174489" sketch:type="MSShapeGroup"></path>
                <path d="M37.1083056,55.807 L36.0318937,60.986 L34.6365449,60.986 L35.7139535,55.807 L37.1083056,55.807 L37.1083056,55.807 Z M37.5269103,53.826 L37.2578073,55.097 L35.8624585,55.097 L36.1315615,53.826 L37.5269103,53.826 L37.5269103,53.826 Z" id="Fill-46" fill="#174489" sketch:type="MSShapeGroup"></path>
                <path d="M39.8093023,55.807 L39.6697674,56.406 L39.689701,56.427 C39.9289037,56.187 40.4770764,55.677 41.2843854,55.677 C41.70299,55.677 42.4305648,55.767 42.5900332,56.597 C42.9199336,56.116 43.6166113,55.677 44.4039867,55.677 C45.3009967,55.677 45.7096346,56.227 45.7096346,56.887 C45.7096346,57.137 45.6408638,57.496 45.5800664,57.816 L44.913289,60.986 L43.5169435,60.986 L44.1747508,57.816 C44.1857143,57.786 44.2056478,57.687 44.2255814,57.597 C44.2744186,57.366 44.3043189,57.246 44.3043189,57.146 C44.3043189,56.967 44.2255814,56.677 43.7860465,56.677 C43.4182724,56.677 43.0784053,56.927 42.8392027,57.256 C42.5601329,57.646 42.4215947,58.276 42.3508306,58.637 L41.8624585,60.986 L40.4571429,60.986 L41.1358804,57.767 C41.2046512,57.406 41.2245847,57.316 41.2245847,57.146 C41.2245847,56.847 41.0063123,56.677 40.7063123,56.677 C40.2777409,56.677 39.9289037,57.026 39.7604651,57.256 C39.5112957,57.606 39.4315615,58.006 39.3009967,58.606 L38.8026578,60.986 L37.407309,60.986 L38.4946844,55.807 L39.8093023,55.807" id="Fill-47" fill="#174489" sketch:type="MSShapeGroup"></path>
                <path d="M47.8126246,58.826 C47.7727575,59.637 48.241196,60.106 48.8192691,60.106 C49.5169435,60.106 49.8259136,59.546 49.9056478,59.387 L51.1614618,59.597 C50.5534884,60.847 49.5269103,61.106 48.8093023,61.106 C47.3740864,61.106 46.4671096,60.097 46.4671096,58.696 C46.4671096,57.397 47.2943522,55.677 49.3475083,55.677 C50.9820598,55.677 51.4106312,56.937 51.4106312,57.916 C51.4106312,58.057 51.4006645,58.486 51.3209302,58.826 L47.8126246,58.826 L47.8126246,58.826 Z M50.1458472,57.977 C50.1747508,57.286 49.9255814,56.677 49.1980066,56.677 C48.3906977,56.677 48.0518272,57.486 47.9521595,57.977 L50.1458472,57.977 L50.1458472,57.977 Z" id="Fill-48" fill="#174489" sketch:type="MSShapeGroup"></path>
                <path d="M54.2112957,55.807 L54.0717608,56.456 L54.092691,56.477 C54.5003322,56.106 55.0784053,55.677 55.9156146,55.677 C56.9421927,55.677 57.2810631,56.396 57.2810631,57.017 C57.2810631,57.296 57.2112957,57.656 57.1315615,58.046 L56.5136213,60.986 L55.1182724,60.986 L55.7362126,58.036 C55.7362126,58.017 55.7461794,57.946 55.766113,57.876 C55.7860465,57.796 55.8059801,57.696 55.8059801,57.677 C55.8657807,57.397 55.8657807,57.326 55.8657807,57.256 C55.8657807,56.727 55.4172757,56.677 55.2677741,56.677 C54.8401993,56.677 54.4006645,57.036 54.1415282,57.376 C53.8833887,57.736 53.8225914,58.066 53.6531561,58.856 L53.2046512,60.986 L51.8093023,60.986 L52.8956811,55.807 L54.2112957,55.807" id="Fill-49" fill="#174489" sketch:type="MSShapeGroup"></path>
                <path d="M58.4671096,55.807 L59.1448505,55.807 L59.3142857,54.977 L60.9089701,54.006 L60.5401993,55.807 L61.3973422,55.807 L61.1780731,56.826 L60.3209302,56.826 L59.8724252,59.017 C59.8624585,59.036 59.8524917,59.116 59.8325581,59.196 C59.7727575,59.446 59.7528239,59.566 59.7528239,59.687 C59.7528239,60.026 60.061794,60.026 60.2212625,60.026 C60.3109635,60.026 60.6299003,59.996 60.6797342,59.996 L60.4604651,61.036 C60.2112957,61.086 60.0119601,61.106 59.7229236,61.106 C59.0252492,61.106 58.3076412,60.906 58.3076412,60.036 C58.3076412,59.786 58.3475083,59.576 58.4870432,58.927 L58.9255814,56.826 L58.2478405,56.826 L58.4671096,55.807" id="Fill-50" fill="#174489" sketch:type="MSShapeGroup"></path>
                <path d="M64.3475083,55.677 C66.1315615,55.677 66.7694352,56.836 66.7694352,58.017 C66.7694352,59.586 65.70299,61.106 63.8192691,61.106 C62.2046512,61.106 61.4172757,60.046 61.4172757,58.836 C61.4172757,57.477 62.1249169,55.677 64.3475083,55.677 L64.3475083,55.677 Z M64.3475083,56.736 C63.151495,56.736 62.8026578,58.196 62.8026578,58.816 C62.8026578,59.406 63.1415282,60.046 63.869103,60.046 C64.8757475,60.046 65.3840532,58.786 65.3840532,57.836 C65.3840532,57.336 65.1049834,56.736 64.3475083,56.736 L64.3475083,56.736 Z" id="Fill-51" fill="#174489" sketch:type="MSShapeGroup"></path>
                <path d="M71.6930233,58.597 C71.7129568,59.217 71.7428571,59.876 73.1083056,59.876 C73.6066445,59.876 74.4637874,59.746 74.4637874,58.996 C74.4637874,58.486 74.0352159,58.307 73.2578073,57.967 C72.0219269,57.427 71.1548173,57.046 71.1548173,55.807 C71.1548173,54.946 71.6930233,53.706 73.6963455,53.706 C75.061794,53.706 76.2877076,54.296 76.3973422,55.866 L74.9920266,55.937 C74.9122924,55.106 74.3541528,54.876 73.6863787,54.876 C73.4372093,54.876 72.5601329,54.876 72.5601329,55.626 C72.5601329,56.137 73.0385382,56.347 73.855814,56.696 C75.0817276,57.227 75.9189369,57.597 75.9189369,58.816 C75.9189369,59.866 75.1116279,61.106 73.0983389,61.106 C72.0817276,61.106 70.7960133,60.786 70.4372093,59.666 C70.3076412,59.256 70.2877076,58.856 70.2976744,58.666 L71.6930233,58.597" id="Fill-52" fill="#174489" sketch:type="MSShapeGroup"></path>
                <path d="M81.6099668,59.256 C81.1913621,60.376 80.344186,61.106 79.0883721,61.106 C77.5136213,61.106 76.945515,59.967 76.945515,58.887 C76.945515,57.097 78.1215947,55.677 79.8956811,55.677 C81.3009967,55.677 81.8990033,56.557 81.9787375,57.416 L80.6431894,57.557 C80.6232558,57.366 80.5435216,56.717 79.8059801,56.717 C78.7196013,56.717 78.330897,58.227 78.330897,59.057 C78.330897,59.727 78.7295681,60.006 79.1182724,60.006 C79.3774086,60.006 79.9554817,59.866 80.2445183,59.036 L81.6099668,59.256" id="Fill-53" fill="#174489" sketch:type="MSShapeGroup"></path>
                <path d="M85.3973422,55.677 C87.1813953,55.677 87.8192691,56.836 87.8192691,58.017 C87.8192691,59.586 86.7528239,61.106 84.869103,61.106 C83.254485,61.106 82.4671096,60.046 82.4671096,58.836 C82.4671096,57.477 83.1747508,55.677 85.3973422,55.677 L85.3973422,55.677 Z M85.3973422,56.736 C84.2013289,56.736 83.8524917,58.196 83.8524917,58.816 C83.8524917,59.406 84.1913621,60.046 84.9189369,60.046 C85.9255814,60.046 86.433887,58.786 86.433887,57.836 C86.433887,57.336 86.1548173,56.736 85.3973422,56.736 L85.3973422,56.736 Z" id="Fill-54" fill="#174489" sketch:type="MSShapeGroup"></path>
                <path d="M90.8093023,55.807 L90.1714286,58.876 C90.1614618,58.887 90.1614618,58.927 90.151495,58.967 C90.1016611,59.196 90.0518272,59.406 90.0518272,59.557 C90.0518272,59.826 90.2611296,60.106 90.6398671,60.106 C91.1980066,60.106 91.6265781,59.597 91.6863787,59.526 C92.0152824,59.137 92.1149502,58.656 92.2046512,58.267 L92.7129568,55.807 L94.1083056,55.807 L93.0318937,60.986 L91.7262458,60.986 L91.8757475,60.307 L91.855814,60.286 C91.317608,60.816 90.6697674,61.106 90.0119601,61.106 C88.7960133,61.106 88.6465116,60.126 88.6465116,59.756 C88.6465116,59.496 88.6863787,59.267 88.8059801,58.696 L89.4139535,55.807 L90.8093023,55.807" id="Fill-55" fill="#174489" sketch:type="MSShapeGroup"></path>
                <path d="M95.0152824,55.807 L95.6930233,55.807 L95.8624585,54.977 L97.4571429,54.006 L97.0883721,55.807 L97.945515,55.807 L97.7262458,56.826 L96.869103,56.826 L96.420598,59.017 C96.4106312,59.036 96.4006645,59.116 96.3807309,59.196 C96.3209302,59.446 96.3009967,59.566 96.3009967,59.687 C96.3009967,60.026 96.6099668,60.026 96.7694352,60.026 C96.8591362,60.026 97.1780731,59.996 97.227907,59.996 L97.0086379,61.036 C96.7594684,61.086 96.5601329,61.106 96.2710963,61.106 C95.5734219,61.106 94.855814,60.906 94.855814,60.036 C94.855814,59.786 94.8956811,59.576 95.0352159,58.927 L95.4737542,56.826 L94.7960133,56.826 L95.0152824,55.807" id="Fill-56" fill="#174489" sketch:type="MSShapeGroup"></path>
                <path d="M102.151495,58.597 C102.171429,59.217 102.201329,59.876 103.566777,59.876 C104.065116,59.876 104.921262,59.746 104.921262,58.996 C104.921262,58.486 104.493688,58.307 103.716279,57.967 C102.480399,57.427 101.613289,57.046 101.613289,55.807 C101.613289,54.946 102.151495,53.706 104.154817,53.706 C105.520266,53.706 106.746179,54.296 106.855814,55.866 L105.450498,55.937 C105.370764,55.106 104.812625,54.876 104.14485,54.876 C103.895681,54.876 103.018605,54.876 103.018605,55.626 C103.018605,56.137 103.49701,56.347 104.314286,56.696 C105.540199,57.227 106.377409,57.597 106.377409,58.816 C106.377409,59.866 105.5701,61.106 103.556811,61.106 C102.540199,61.106 101.254485,60.786 100.895681,59.666 C100.766113,59.256 100.745183,58.856 100.756146,58.666 L102.151495,58.597" id="Fill-57" fill="#174489" sketch:type="MSShapeGroup"></path>
                <path d="M108.590033,60.986 L107.553488,55.807 L108.918937,55.807 L109.287708,58.066 C109.297674,58.097 109.307641,58.177 109.326578,58.276 C109.377409,58.597 109.437209,58.916 109.457143,59.286 L109.477076,59.286 C109.506977,59.196 109.536877,59.146 109.646512,58.946 L109.84485,58.586 C109.925581,58.427 110.045183,58.206 110.174751,57.986 L111.459468,55.807 L112.965449,55.807 L109.786047,60.986 L108.590033,60.986" id="Fill-58" fill="#174489" sketch:type="MSShapeGroup"></path>
                <path d="M115.19701,55.807 L114.121595,60.986 L112.726246,60.986 L113.802658,55.807 L115.19701,55.807 L115.19701,55.807 Z M115.616611,53.826 L115.346512,55.097 L113.952159,55.097 L114.221262,53.826 L115.616611,53.826 L115.616611,53.826 Z" id="Fill-59" fill="#174489" sketch:type="MSShapeGroup"></path>
                <path d="M115.46711,60.036 L118.296678,56.896 L115.985382,56.896 L116.214618,55.807 L120.271096,55.807 L120.101661,56.637 L117.241196,59.847 L119.73289,59.847 L119.493688,60.986 L115.267774,60.986 L115.46711,60.036" id="Fill-60" fill="#174489" sketch:type="MSShapeGroup"></path>
                <path d="M120.450498,60.036 L123.280066,56.896 L120.968771,56.896 L121.198007,55.807 L125.254485,55.807 L125.084053,56.637 L122.224585,59.847 L124.716279,59.847 L124.477076,60.986 L120.251163,60.986 L120.450498,60.036" id="Fill-61" fill="#174489" sketch:type="MSShapeGroup"></path>
                <path d="M127.105316,58.826 C127.065449,59.637 127.534884,60.106 128.11196,60.106 C128.809635,60.106 129.118605,59.546 129.198339,59.387 L130.454153,59.597 C129.846179,60.847 128.819601,61.106 128.101993,61.106 C126.666777,61.106 125.759801,60.097 125.759801,58.696 C125.759801,57.397 126.587043,55.677 128.640199,55.677 C130.275748,55.677 130.703322,56.937 130.703322,57.916 C130.703322,58.057 130.693355,58.486 130.613621,58.826 L127.105316,58.826 L127.105316,58.826 Z M129.437542,57.977 C129.467442,57.286 129.218272,56.677 128.490698,56.677 C127.683389,56.677 127.345515,57.486 127.24485,57.977 L129.437542,57.977 L129.437542,57.977 Z" id="Fill-62" fill="#174489" sketch:type="MSShapeGroup"></path>
                <path d="M133.424252,55.807 L133.21495,56.786 L133.234884,56.807 C133.593688,56.236 134.11196,55.677 134.799668,55.677 C135.098671,55.677 135.307973,55.767 135.447508,55.826 L134.909302,56.977 C134.829568,56.946 134.719934,56.906 134.511628,56.906 C133.902658,56.906 133.495017,57.437 133.404319,57.557 C133.065449,57.996 132.915947,58.706 132.776412,59.356 L132.437542,60.986 L131.043189,60.986 L132.118605,55.807 L133.424252,55.807" id="Fill-63" fill="#174489" sketch:type="MSShapeGroup"></path>
                <path d="M137.912292,55.677 C139.696346,55.677 140.333223,56.836 140.333223,58.017 C140.333223,59.586 139.266777,61.106 137.383056,61.106 C135.769435,61.106 134.98206,60.046 134.98206,58.836 C134.98206,57.477 135.689701,55.677 137.912292,55.677 L137.912292,55.677 Z M137.912292,56.736 C136.715282,56.736 136.366445,58.196 136.366445,58.816 C136.366445,59.406 136.706312,60.046 137.433887,60.046 C138.439535,60.046 138.948837,58.786 138.948837,57.836 C138.948837,57.336 138.668771,56.736 137.912292,56.736 L137.912292,56.736 Z" id="Fill-64" fill="#174489" sketch:type="MSShapeGroup"></path>
                <path d="M3.11960133,72.986 L2.86046512,67.006 L2.84053156,67.006 L1.71428571,72.986 L0.388704319,72.986 L1.88372093,65.826 L3.97674419,65.826 L4.18604651,70.847 L4.20598007,70.847 L6.62790698,65.826 L8.74086379,65.826 L7.24584718,72.986 L5.910299,72.986 L7.31561462,67.066 L7.29568106,67.046 L4.50498339,72.986 L3.11960133,72.986" id="Fill-65" fill="#174489" sketch:type="MSShapeGroup"></path>
                <path d="M11.820598,67.677 C13.6046512,67.677 14.2425249,68.836 14.2425249,70.017 C14.2425249,71.586 13.1760797,73.106 11.2923588,73.106 C9.67774086,73.106 8.89036545,72.046 8.89036545,70.836 C8.89036545,69.477 9.59800664,67.677 11.820598,67.677 L11.820598,67.677 Z M11.820598,68.736 C10.6245847,68.736 10.2757475,70.196 10.2757475,70.816 C10.2757475,71.406 10.6146179,72.046 11.3421927,72.046 C12.3488372,72.046 12.8571429,70.786 12.8571429,69.836 C12.8571429,69.336 12.5780731,68.736 11.820598,68.736 L11.820598,68.736 Z" id="Fill-66" fill="#174489" sketch:type="MSShapeGroup"></path>
                <path d="M15.989701,72.986 L14.9521595,67.807 L16.317608,67.807 L16.6863787,70.066 C16.6963455,70.097 16.7063123,70.177 16.7262458,70.276 C16.7760797,70.597 16.8358804,70.916 16.855814,71.286 L16.8757475,71.286 C16.9056478,71.196 16.9355482,71.146 17.0451827,70.946 L17.2445183,70.586 C17.3242525,70.427 17.4438538,70.206 17.5734219,69.986 L18.8591362,67.807 L20.3641196,67.807 L17.1847176,72.986 L15.989701,72.986" id="Fill-67" fill="#174489" sketch:type="MSShapeGroup"></path>
                <path d="M22.5966777,67.807 L21.5202658,72.986 L20.1249169,72.986 L21.2013289,67.807 L22.5966777,67.807 L22.5966777,67.807 Z M23.0152824,65.826 L22.7461794,67.097 L21.3508306,67.097 L21.6199336,65.826 L23.0152824,65.826 L23.0152824,65.826 Z" id="Fill-68" fill="#174489" sketch:type="MSShapeGroup"></path>
                <path d="M25.2976744,67.807 L25.1581395,68.406 L25.1780731,68.427 C25.4172757,68.187 25.9654485,67.677 26.7727575,67.677 C27.1913621,67.677 27.9189369,67.767 28.0784053,68.597 C28.407309,68.116 29.1049834,67.677 29.8923588,67.677 C30.7893688,67.677 31.1980066,68.227 31.1980066,68.887 C31.1980066,69.137 31.1282392,69.496 31.0684385,69.816 L30.4006645,72.986 L29.0053156,72.986 L29.6631229,69.816 C29.6730897,69.786 29.6940199,69.687 29.7139535,69.597 C29.7627907,69.366 29.792691,69.246 29.792691,69.147 C29.792691,68.967 29.7139535,68.677 29.2744186,68.677 C28.9056478,68.677 28.5667774,68.927 28.3275748,69.256 C28.048505,69.646 27.9089701,70.276 27.8392027,70.637 L27.3508306,72.986 L25.945515,72.986 L26.6232558,69.767 C26.6930233,69.406 26.7129568,69.316 26.7129568,69.147 C26.7129568,68.847 26.4936877,68.677 26.1946844,68.677 C25.766113,68.677 25.4172757,69.026 25.2478405,69.256 C24.9986711,69.606 24.9189369,70.006 24.7893688,70.606 L24.2910299,72.986 L22.8956811,72.986 L23.9830565,67.807 L25.2976744,67.807" id="Fill-69" fill="#174489" sketch:type="MSShapeGroup"></path>
                <path d="M33.3009967,70.826 C33.2611296,71.637 33.7295681,72.106 34.3076412,72.106 C35.0053156,72.106 35.3142857,71.546 35.3940199,71.387 L36.6498339,71.597 C36.0418605,72.847 35.0152824,73.106 34.2976744,73.106 C32.8624585,73.106 31.9554817,72.097 31.9554817,70.696 C31.9554817,69.397 32.7827243,67.677 34.8358804,67.677 C36.4704319,67.677 36.8990033,68.937 36.8990033,69.916 C36.8990033,70.057 36.8890365,70.486 36.8093023,70.826 L33.3009967,70.826 L33.3009967,70.826 Z M35.6332226,69.977 C35.6631229,69.286 35.4139535,68.677 34.6863787,68.677 C33.8790698,68.677 33.5401993,69.486 33.4405316,69.977 L35.6332226,69.977 L35.6332226,69.977 Z" id="Fill-70" fill="#174489" sketch:type="MSShapeGroup"></path>
                <path d="M39.6996678,67.807 L39.5601329,68.456 L39.5800664,68.477 C39.9887043,68.106 40.5667774,67.677 41.4039867,67.677 C42.4305648,67.677 42.7694352,68.397 42.7694352,69.017 C42.7694352,69.296 42.6996678,69.656 42.6199336,70.046 L42.0019934,72.986 L40.6066445,72.986 L41.2245847,70.036 C41.2245847,70.017 41.2345515,69.946 41.254485,69.876 C41.2744186,69.796 41.2943522,69.696 41.2943522,69.677 C41.3541528,69.397 41.3541528,69.326 41.3541528,69.256 C41.3541528,68.727 40.9056478,68.677 40.7561462,68.677 C40.3275748,68.677 39.8890365,69.036 39.6299003,69.376 C39.3707641,69.736 39.3109635,70.066 39.1415282,70.856 L38.6930233,72.986 L37.2976744,72.986 L38.3840532,67.807 L39.6996678,67.807" id="Fill-71" fill="#174489" sketch:type="MSShapeGroup"></path>
                <path d="M43.9554817,67.807 L44.6332226,67.807 L44.8026578,66.977 L46.3973422,66.006 L46.0285714,67.807 L46.8857143,67.807 L46.6664452,68.826 L45.8093023,68.826 L45.3607973,71.017 C45.3508306,71.036 45.3408638,71.116 45.3209302,71.196 C45.2611296,71.446 45.241196,71.566 45.241196,71.687 C45.241196,72.026 45.5501661,72.026 45.7096346,72.026 C45.7993355,72.026 46.1182724,71.996 46.1681063,71.996 L45.9488372,73.036 C45.6996678,73.086 45.5003322,73.106 45.2112957,73.106 C44.5136213,73.106 43.7960133,72.906 43.7960133,72.036 C43.7960133,71.786 43.8358804,71.576 43.9754153,70.927 L44.4139535,68.826 L43.7362126,68.826 L43.9554817,67.807" id="Fill-72" fill="#174489" sketch:type="MSShapeGroup"></path>
                <path d="M51.0119601,65.826 L53.4538206,65.826 C54.2212625,65.826 54.7196013,65.836 55.2179402,66.046 C56.0451827,66.396 56.1946844,67.106 56.1946844,67.566 C56.1946844,68.826 55.1282392,69.166 54.8392027,69.246 L54.8392027,69.267 C55.6963455,69.496 56.0053156,70.147 56.0053156,70.677 C56.0053156,71.486 55.5169435,72.347 54.7893688,72.677 C54.1116279,72.986 53.4538206,72.986 52.8857143,72.986 L49.5169435,72.986 L51.0119601,65.826 L51.0119601,65.826 Z M51.2312292,71.786 L52.6465116,71.786 C53.2644518,71.786 53.5136213,71.767 53.8126246,71.677 C54.2112957,71.557 54.510299,71.146 54.510299,70.736 C54.510299,69.916 53.5933555,69.916 53.3740864,69.916 L51.6199336,69.916 L51.2312292,71.786 L51.2312292,71.786 Z M51.8790698,68.717 L52.9953488,68.717 C53.5634551,68.717 53.9122924,68.687 54.2212625,68.557 C54.5401993,68.427 54.7395349,68.066 54.7395349,67.736 C54.7395349,67.026 54.0817276,67.026 53.3641196,67.026 L52.227907,67.026 L51.8790698,68.717 L51.8790698,68.717 Z" id="Fill-73" fill="#174489" sketch:type="MSShapeGroup"></path>
                <path d="M57.3009967,69.156 C57.6996678,67.986 58.7262458,67.677 59.6531561,67.677 C61.4770764,67.677 61.6166113,68.756 61.6166113,69.066 C61.6166113,69.437 61.5468439,69.746 61.3475083,70.647 C61.3275748,70.727 61.227907,71.166 61.2179402,71.256 C61.138206,71.597 61.0784053,71.956 61.0784053,72.246 C61.0784053,72.546 61.1182724,72.727 61.1880399,72.986 L59.8325581,72.986 C59.7627907,72.746 59.7528239,72.656 59.7328904,72.397 C59.254485,72.937 58.6664452,73.106 58.227907,73.106 C57.4305648,73.106 56.7428571,72.557 56.7428571,71.597 C56.7428571,70.046 58.1780731,69.927 58.8458472,69.876 C59.3940199,69.826 59.9023256,69.776 60.1813953,69.677 C60.2112957,69.586 60.2710963,69.387 60.2710963,69.206 C60.2710963,68.826 59.9222591,68.677 59.5534884,68.677 C59.1348837,68.677 58.7860465,68.826 58.6664452,69.267 L57.3009967,69.156 L57.3009967,69.156 Z M59.9920266,70.566 C59.9023256,70.597 59.8624585,70.606 59.6631229,70.626 C58.8059801,70.736 58.0584718,70.866 58.0584718,71.477 C58.0584718,71.746 58.2478405,72.057 58.6963455,72.057 C59.6830565,72.057 59.8724252,71.177 59.9621262,70.756 L59.9920266,70.566 L59.9920266,70.566 Z" id="Fill-74" fill="#174489" sketch:type="MSShapeGroup"></path>
                <path d="M62.7827243,67.807 L63.4604651,67.807 L63.6299003,66.977 L65.2245847,66.006 L64.855814,67.807 L65.7129568,67.807 L65.4936877,68.826 L64.6365449,68.826 L64.1880399,71.017 C64.1780731,71.036 64.1681063,71.116 64.1481728,71.196 C64.0883721,71.446 64.0684385,71.566 64.0684385,71.687 C64.0684385,72.026 64.3774086,72.026 64.5368771,72.026 C64.6265781,72.026 64.945515,71.996 64.9953488,71.996 L64.7760797,73.036 C64.5269103,73.086 64.3275748,73.106 64.0385382,73.106 C63.3408638,73.106 62.6232558,72.906 62.6232558,72.036 C62.6232558,71.786 62.6631229,71.576 62.8026578,70.927 L63.241196,68.826 L62.5634551,68.826 L62.7827243,67.807" id="Fill-75" fill="#174489" sketch:type="MSShapeGroup"></path>
                <path d="M66.1016611,67.807 L66.779402,67.807 L66.9488372,66.977 L68.5435216,66.006 L68.1747508,67.807 L69.0318937,67.807 L68.8126246,68.826 L67.9554817,68.826 L67.5069767,71.017 C67.49701,71.036 67.4870432,71.116 67.4671096,71.196 C67.407309,71.446 67.3873754,71.566 67.3873754,71.687 C67.3873754,72.026 67.6963455,72.026 67.855814,72.026 C67.945515,72.026 68.2644518,71.996 68.3142857,71.996 L68.0950166,73.036 C67.8458472,73.086 67.6465116,73.106 67.3574751,73.106 C66.6598007,73.106 65.9421927,72.906 65.9421927,72.036 C65.9421927,71.786 65.9820598,71.576 66.1215947,70.927 L66.5601329,68.826 L65.882392,68.826 L66.1016611,67.807" id="Fill-76" fill="#174489" sketch:type="MSShapeGroup"></path>
                <path d="M69.4803987,69.156 C69.8790698,67.986 70.9056478,67.677 71.8325581,67.677 C73.6564784,67.677 73.7960133,68.756 73.7960133,69.066 C73.7960133,69.437 73.7262458,69.746 73.5259136,70.647 C73.5069767,70.727 73.407309,71.166 73.3973422,71.256 C73.317608,71.597 73.2578073,71.956 73.2578073,72.246 C73.2578073,72.546 73.2966777,72.727 73.3674419,72.986 L72.0119601,72.986 C71.9421927,72.746 71.9322259,72.656 71.9122924,72.397 C71.433887,72.937 70.8448505,73.106 70.407309,73.106 C69.6099668,73.106 68.9222591,72.557 68.9222591,71.597 C68.9222591,70.046 70.3574751,69.927 71.0252492,69.876 C71.5734219,69.826 72.0817276,69.776 72.3607973,69.677 C72.3906977,69.586 72.4504983,69.387 72.4504983,69.206 C72.4504983,68.826 72.1016611,68.677 71.7328904,68.677 C71.3142857,68.677 70.9654485,68.826 70.8448505,69.267 L69.4803987,69.156 L69.4803987,69.156 Z M72.1714286,70.566 C72.0817276,70.597 72.0418605,70.606 71.8425249,70.626 C70.9853821,70.736 70.2378738,70.866 70.2378738,71.477 C70.2378738,71.746 70.4272425,72.057 70.8757475,72.057 C71.8624585,72.057 72.0518272,71.177 72.1415282,70.756 L72.1714286,70.566 L72.1714286,70.566 Z" id="Fill-77" fill="#174489" sketch:type="MSShapeGroup"></path>
                <path d="M75.5900332,71.316 C75.7594684,71.746 76.0186047,72.137 76.766113,72.137 C77.2634551,72.137 77.7328904,71.887 77.7328904,71.536 C77.7328904,71.256 77.6332226,71.227 76.676412,70.897 C75.7993355,70.597 75.0119601,70.326 75.0119601,69.356 C75.0119601,68.486 75.7684385,67.677 77.3641196,67.677 C78.0916944,67.677 79.2478405,67.826 79.5169435,69.036 L78.2212625,69.267 C78.0019934,68.646 77.3043189,68.646 77.1448505,68.646 C76.5667774,68.646 76.3275748,68.876 76.3275748,69.126 C76.3275748,69.437 76.586711,69.517 77.3043189,69.727 C78.0817276,69.956 79.1581395,70.267 79.1581395,71.286 C79.1581395,71.986 78.6199336,73.106 76.7960133,73.106 C75.4704319,73.106 74.5634551,72.646 74.2345515,71.536 L75.5900332,71.316" id="Fill-78" fill="#174489" sketch:type="MSShapeGroup"></path>
                <path d="M81.4803987,70.826 C81.4405316,71.637 81.9089701,72.106 82.4870432,72.106 C83.1847176,72.106 83.4936877,71.546 83.5734219,71.387 L84.8292359,71.597 C84.2212625,72.847 83.1946844,73.106 82.4770764,73.106 C81.0418605,73.106 80.1348837,72.097 80.1348837,70.696 C80.1348837,69.397 80.9621262,67.677 83.0142857,67.677 C84.6498339,67.677 85.0784053,68.937 85.0784053,69.916 C85.0784053,70.057 85.0684385,70.486 84.9887043,70.826 L81.4803987,70.826 L81.4803987,70.826 Z M83.8126246,69.977 C83.8425249,69.286 83.5933555,68.677 82.8657807,68.677 C82.0574751,68.677 81.7196013,69.486 81.6199336,69.977 L83.8126246,69.977 L83.8126246,69.977 Z" id="Fill-79" fill="#174489" sketch:type="MSShapeGroup"></path>
                <path d="M87.8790698,67.807 L87.7395349,68.456 L87.7594684,68.477 C88.1681063,68.106 88.7461794,67.677 89.5833887,67.677 C90.6099668,67.677 90.9488372,68.397 90.9488372,69.017 C90.9488372,69.296 90.8790698,69.656 90.7993355,70.046 L90.1813953,72.986 L88.7850498,72.986 L89.4039867,70.036 C89.4039867,70.017 89.4139535,69.946 89.433887,69.876 C89.4538206,69.796 89.4737542,69.696 89.4737542,69.677 C89.5325581,69.397 89.5325581,69.326 89.5325581,69.256 C89.5325581,68.727 89.0850498,68.677 88.9355482,68.677 C88.5069767,68.677 88.0684385,69.036 87.8093023,69.376 C87.5501661,69.736 87.4903654,70.066 87.3209302,70.856 L86.8724252,72.986 L85.4770764,72.986 L86.5634551,67.807 L87.8790698,67.807" id="Fill-80" fill="#174489" sketch:type="MSShapeGroup"></path>
                <path d="M95.0451827,72.986 L95.1637874,72.446 L95.1438538,72.427 C94.8747508,72.706 94.376412,73.106 93.5401993,73.106 C92.433887,73.106 91.7461794,72.326 91.7461794,70.937 C91.7461794,69.267 92.7528239,67.677 94.2976744,67.677 C95.3342193,67.677 95.7328904,68.316 95.8624585,68.506 L96.420598,65.826 L97.8159468,65.826 L96.3209302,72.986 L95.0451827,72.986 L95.0451827,72.986 Z M94.0684385,72.046 C95.0950166,72.046 95.4936877,70.717 95.4936877,69.967 C95.4936877,69.307 95.0950166,68.756 94.49701,68.756 C93.6,68.756 93.1016611,69.967 93.1016611,70.876 C93.1016611,71.517 93.4405316,72.046 94.0684385,72.046 L94.0684385,72.046 Z" id="Fill-81" fill="#174489" sketch:type="MSShapeGroup"></path>
                <path d="M98.2833887,69.156 C98.6830565,67.986 99.7096346,67.677 100.636545,67.677 C102.460465,67.677 102.599003,68.756 102.599003,69.066 C102.599003,69.437 102.530233,69.746 102.3299,70.647 C102.309967,70.727 102.211296,71.166 102.201329,71.256 C102.120598,71.597 102.060797,71.956 102.060797,72.246 C102.060797,72.546 102.100664,72.727 102.171429,72.986 L100.81495,72.986 C100.745183,72.746 100.736213,72.656 100.716279,72.397 C100.237874,72.937 99.6488372,73.106 99.2112957,73.106 C98.4139535,73.106 97.7262458,72.557 97.7262458,71.597 C97.7262458,70.046 99.1614618,69.927 99.8292359,69.876 C100.376412,69.826 100.885714,69.776 101.164784,69.677 C101.194684,69.586 101.254485,69.387 101.254485,69.206 C101.254485,68.826 100.905648,68.677 100.536877,68.677 C100.118272,68.677 99.7694352,68.826 99.6488372,69.267 L98.2833887,69.156 L98.2833887,69.156 Z M100.975415,70.566 C100.885714,70.597 100.845847,70.606 100.645515,70.626 C99.7893688,70.736 99.0418605,70.866 99.0418605,71.477 C99.0418605,71.746 99.2312292,72.057 99.6797342,72.057 C100.666445,72.057 100.854817,71.177 100.945515,70.756 L100.975415,70.566 L100.975415,70.566 Z" id="Fill-82" fill="#174489" sketch:type="MSShapeGroup"></path>
                <path d="M104.39402,71.316 C104.563455,71.746 104.821595,72.137 105.569103,72.137 C106.067442,72.137 106.536877,71.887 106.536877,71.536 C106.536877,71.256 106.437209,71.227 105.480399,70.897 C104.603322,70.597 103.815947,70.326 103.815947,69.356 C103.815947,68.486 104.572425,67.677 106.168106,67.677 C106.895681,67.677 108.051827,67.826 108.32093,69.036 L107.024252,69.267 C106.80598,68.646 106.107309,68.646 105.948837,68.646 C105.370764,68.646 105.130565,68.876 105.130565,69.126 C105.130565,69.437 105.390698,69.517 106.107309,69.727 C106.885714,69.956 107.962126,70.267 107.962126,71.286 C107.962126,71.986 107.42392,73.106 105.6,73.106 C104.274419,73.106 103.366445,72.646 103.037542,71.536 L104.39402,71.316" id="Fill-83" fill="#174489" sketch:type="MSShapeGroup"></path>
                <path d="M113.124917,70.597 C113.143854,71.217 113.174751,71.876 114.539203,71.876 C115.037542,71.876 115.895681,71.746 115.895681,70.996 C115.895681,70.486 115.46711,70.307 114.689701,69.967 C113.452824,69.427 112.585714,69.046 112.585714,67.807 C112.585714,66.946 113.124917,65.706 115.128239,65.706 C116.492691,65.706 117.718605,66.296 117.829236,67.866 L116.42392,67.937 C116.343189,67.106 115.78505,66.876 115.118272,66.876 C114.869103,66.876 113.992027,66.876 113.992027,67.626 C113.992027,68.137 114.470432,68.347 115.286711,68.696 C116.512625,69.227 117.350831,69.597 117.350831,70.816 C117.350831,71.866 116.543522,73.106 114.530233,73.106 C113.513621,73.106 112.227907,72.786 111.869103,71.666 C111.738538,71.256 111.719601,70.856 111.729568,70.666 L113.124917,70.597" id="Fill-84" fill="#174489" sketch:type="MSShapeGroup"></path>
                <path d="M119.562458,72.986 L118.525914,67.807 L119.891362,67.807 L120.26113,70.066 C120.2701,70.097 120.281063,70.177 120.300997,70.276 C120.350831,70.597 120.410631,70.916 120.429568,71.286 L120.450498,71.286 C120.479402,71.196 120.510299,71.146 120.618937,70.946 L120.819269,70.586 C120.898007,70.427 121.017608,70.206 121.147176,69.986 L122.43289,67.807 L123.93887,67.807 L120.759468,72.986 L119.562458,72.986" id="Fill-85" fill="#174489" sketch:type="MSShapeGroup"></path>
                <path d="M126.170432,67.807 L125.095017,72.986 L123.698671,72.986 L124.775083,67.807 L126.170432,67.807 L126.170432,67.807 Z M126.590033,65.826 L126.32093,67.097 L124.924585,67.097 L125.193688,65.826 L126.590033,65.826 L126.590033,65.826 Z" id="Fill-86" fill="#174489" sketch:type="MSShapeGroup"></path>
                <path d="M126.439535,72.036 L129.271096,68.896 L126.957807,68.896 L127.187043,67.807 L131.244518,67.807 L131.075083,68.637 L128.214618,71.847 L130.706312,71.847 L130.466113,72.986 L126.241196,72.986 L126.439535,72.036" id="Fill-87" fill="#174489" sketch:type="MSShapeGroup"></path>
                <path d="M133.77608,67.807 L133.566777,68.786 L133.585714,68.807 C133.945515,68.236 134.463787,67.677 135.151495,67.677 C135.449502,67.677 135.658804,67.767 135.798339,67.826 L135.260133,68.977 C135.180399,68.946 135.071761,68.906 134.861462,68.906 C134.254485,68.906 133.845847,69.437 133.756146,69.557 C133.416279,69.996 133.266777,70.706 133.127243,71.356 L132.788372,72.986 L131.39402,72.986 L132.470432,67.807 L133.77608,67.807" id="Fill-88" fill="#174489" sketch:type="MSShapeGroup"></path>
                <path d="M135.958804,69.156 C136.356478,67.986 137.383056,67.677 138.309967,67.677 C140.134884,67.677 140.273422,68.756 140.273422,69.066 C140.273422,69.437 140.203654,69.746 140.004319,70.647 C139.984385,70.727 139.885714,71.166 139.874751,71.256 C139.795017,71.597 139.735216,71.956 139.735216,72.246 C139.735216,72.546 139.775083,72.727 139.845847,72.986 L138.489369,72.986 C138.419601,72.746 138.410631,72.656 138.390698,72.397 C137.912292,72.937 137.323256,73.106 136.884718,73.106 C136.088372,73.106 135.400664,72.557 135.400664,71.597 C135.400664,70.046 136.83588,69.927 137.502658,69.876 C138.050831,69.826 138.559136,69.776 138.838206,69.677 C138.869103,69.586 138.928904,69.387 138.928904,69.206 C138.928904,68.826 138.580066,68.677 138.210299,68.677 C137.791694,68.677 137.442857,68.826 137.323256,69.267 L135.958804,69.156 L135.958804,69.156 Z M138.648837,70.566 C138.559136,70.597 138.519269,70.606 138.319934,70.626 C137.462791,70.736 136.715282,70.866 136.715282,71.477 C136.715282,71.746 136.904651,72.057 137.353156,72.057 C138.339867,72.057 138.529236,71.177 138.619934,70.756 L138.648837,70.566 L138.648837,70.566 Z" id="Fill-89" fill="#174489" sketch:type="MSShapeGroup"></path>
                <path d="M144.892027,24.701 L299.750831,24.701 L299.750831,79.452 L144.892027,79.452 L144.892027,24.701 Z" id="Fill-90" fill="#D9222A" sketch:type="MSShapeGroup"></path>
                <path d="M230.232558,0.451 C250.290698,7.701 274.833887,25.076 283.679402,33.701 C283.056478,49.076 275.70598,70.952 273.58804,74.952 C259.136213,75.202 230.481728,71.702 219.019934,69.952 C215.780731,49.826 215.531561,25.076 230.232558,0.451" id="Fill-91" fill="#0A4A8E" sketch:type="MSShapeGroup"></path>
                <path d="M158.72093,34.576 C177.533223,29.701 192.483389,27.076 214.908638,27.576 C213.164452,47.951 212.666113,64.702 218.521595,85.452 C208.056478,92.202 188.247508,98.327 179.526578,99.327 C161.586379,66.702 165.32392,61.952 158.72093,34.576" id="Fill-92" fill="#009949" sketch:type="MSShapeGroup"></path>
                <path d="M257.940199,21.1 C259.734219,21.201 261.428571,21.201 262.624585,22.401 C263.820598,23.701 264.318937,25.201 264.119601,27.1 C263.820598,30.6 261.129568,33.1 259.036545,35.8 L253.45515,43.201 C253.056478,43.701 253.654485,44.1 254.053156,44.401 C258.438538,42.1 261.528239,36.701 266.312292,35.401 C267.707641,34.901 269.401993,35.001 270.498339,35.8 C275.481728,41.001 269.10299,46.8 271.395349,52.902 C271.694352,56.303 273.189369,60.702 269.601329,62.803 C262.624585,65.202 258.33887,57.303 252.956811,54.002 C252.059801,53.602 251.262458,54.002 250.664452,54.803 C250.066445,59.602 250.365449,64.702 253.554817,68.202 C253.45515,69.102 252.857143,69.902 252.358804,70.602 C247.774086,67.002 248.770764,60.602 248.272425,55.002 C247.674419,54.002 246.478405,53.202 245.282392,53.602 C240.199336,57.102 235.415282,64.602 228.538206,61.202 C224.152824,58.002 227.142857,52.602 226.744186,48.1 C227.043189,43.901 223.754153,38.001 228.737542,35.501 C233.820598,33.901 237.408638,38.901 241.495017,41.1 C242.990033,41.901 244.385382,44.201 245.980066,43.5 L245.581395,42.3 C241.495017,36.701 233.222591,31.8 236.212625,24.1 C237.009967,22.8 238.305648,21.3 239.800664,21.1 C245.681063,21.701 252.259136,22.6 257.940199,21.1" id="Fill-93" fill="#FFF101" sketch:type="MSShapeGroup"></path>
                <path d="M262.026578,24.8 C263.222591,29.501 259.036545,32.501 256.54485,36 C254.651163,38.8 250.76412,41.3 251.860465,45 C252.757475,46.1 254.053156,46.401 255.348837,46 C259.534884,43.401 262.624585,38.401 267.30897,37.001 C268.704319,36.701 270,37.5 270.398671,38.701 C270.598007,43.6 268.20598,48.501 269.601329,53.702 C269.700997,55.902 270.996678,58.602 269.501661,60.602 C268.405316,61.602 266.611296,61.803 265.415282,61.202 C260.631229,59.202 257.342193,53.702 252.458472,51.901 L250.564784,52.402 C250.265781,51.201 251.063123,50.5 251.262458,49.5 L266.611296,49.3 C267.109635,48.8 267.508306,48 266.910299,47.5 L266.312292,47.001 L251.262458,47.001 L250.465116,45.901 L250.564784,27.401 C250.166113,26.901 249.568106,26.501 248.870432,26.8 L248.372093,27.3 L248.671096,46 L247.574751,47.1 L231.92691,47.001 C231.129568,47.6 231.328904,48.501 231.727575,49.201 C236.910299,49.6 242.392027,49.3 247.774086,49.401 C247.873754,50.401 248.571429,51.201 248.272425,52.303 C242.890365,49.8 239.800664,57.303 235.315615,59.202 C233.920266,60.202 231.92691,60.502 230.232558,60.002 C229.036545,59.602 228.538206,58.202 228.139535,57.202 C227.840532,54.202 228.837209,51.401 228.737542,48.3 C229.435216,44.5 225.448505,38.901 230.232558,36.901 L232.126246,37.201 C236.511628,39.6 240.498339,43.1 244.784053,45.701 C246.179402,46.1 247.275748,45.201 247.774086,44.1 C248.471761,42.401 246.877076,41.3 245.980066,40 C242.591362,35.1 234.61794,30.501 238.604651,24.001 C239.900332,22.3 242.491694,23.1 244.186047,23.201 C248.471761,24.201 253.754153,24.1 257.840532,22.901 C259.534884,22.8 261.229236,23.3 262.026578,24.8" id="Fill-94" fill="#005093" sketch:type="MSShapeGroup"></path>
                <path d="M250.166113,48.401 C250.066445,48.701 249.86711,49 249.568106,49.3 C249.269103,49.201 249.169435,48.901 248.870432,48.701 L249.468439,47.8 C249.767442,47.901 249.966777,48.201 250.166113,48.401" id="Fill-95" fill="#005093" sketch:type="MSShapeGroup"></path>
                <path d="M198.837209,48.1 C196.744186,54.102 191.760797,59.202 193.255814,66.402 C193.853821,65.303 193.554817,63.502 194.053156,62.102 C194.850498,58.002 197.840532,53.803 202.126246,52.602 C205.215947,51.901 208.504983,52.602 210.89701,54.803 C212.093023,55.902 212.392027,57.502 212.392027,59.102 C212.292359,62.602 208.106312,65.602 210.996678,69.002 C209.10299,69.202 207.009967,69.602 205.415282,68.502 C204.019934,66.502 202.524917,63.402 199.634551,64.002 C198.737542,64.602 197.940199,65.303 197.641196,66.303 C198.139535,67.102 199.23588,67.502 199.534884,68.602 C199.833887,69.702 199.435216,70.702 198.936877,71.602 C197.840532,73.202 195.847176,72.502 194.252492,72.702 C193.853821,73.602 194.950166,74.402 195.647841,74.702 C197.940199,75.902 201.129568,75.602 202.624585,78.102 C203.421927,80.002 203.222591,82.602 201.92691,84.202 C200.033223,83.902 198.039867,83.702 196.146179,84.303 C196.644518,86.002 197.142857,88.402 195.946844,90.101 C194.451827,92.202 192.259136,93.101 190.564784,94.901 C188.272425,92.202 183.388704,90.501 184.584718,86.202 L185.182724,84.602 C183.58804,83.902 181.196013,83.702 179.401993,84.303 C177.906977,82.803 177.707641,79.803 178.704319,77.803 C180.797342,74.902 184.983389,76.303 187.076412,73.402 L187.076412,72.803 C185.481728,72.502 183.58804,73.102 182.392027,71.803 C181.893688,70.902 181.295681,69.902 181.694352,68.702 C181.395349,67.002 184.983389,67.202 183.089701,65.402 C182.292359,64.402 181.295681,63.502 180,64.002 C176.511628,65.202 176.511628,70.702 171.92691,69.202 C171.328904,69.102 170.830565,68.803 170.431894,68.502 C173.621262,63.702 165.747508,60.102 169.833887,55.303 C172.026578,53.102 174.817276,52.001 178.006645,52.502 C181.79402,53.102 185.182724,56.002 186.478405,59.702 C187.275748,61.803 187.375415,64.202 187.774086,66.402 L188.07309,66.303 C188.9701,60.002 185.880399,55.102 183.089701,50.1 C179.401993,42 187.275748,36.401 190.564784,30.001 C193.654485,35.8 200.332226,40.701 198.837209,48.1" id="Fill-96" fill="#FFF101" sketch:type="MSShapeGroup"></path>
                <path d="M197.043189,47.6 C194.352159,53.602 190.265781,59.002 191.262458,66.602 L190.066445,66.602 C190.76412,60.002 187.973422,54.702 184.883721,49.5 C181.694352,43.201 187.774086,38.401 190.564784,33.401 C193.156146,38.001 198.139535,41.8 197.043189,47.6" id="Fill-97" fill="#009949" sketch:type="MSShapeGroup"></path>
                <path d="M209.401993,55.902 C210.598007,57.002 210.697674,58.902 210.299003,60.402 C209.003322,62.502 207.906977,64.702 208.20598,67.303 C205.315615,67.303 205.016611,62.803 201.92691,62.202 C200.631229,61.702 199.036545,62.102 197.940199,62.803 C196.744186,63.803 195.946844,65.202 195.548173,66.602 C195.448505,62.902 196.345515,59.202 198.936877,56.502 C201.627907,53.902 206.511628,53.303 209.401993,55.902" id="Fill-98" fill="#009949" sketch:type="MSShapeGroup"></path>
                <path d="M183.388704,57.803 C184.883721,60.402 185.780731,63.202 185.780731,66.402 C185.182724,64.702 183.388704,62.402 181.196013,62.002 C178.20598,61.803 176.013289,64.702 174.61794,67.002 C174.019934,67.102 173.621262,67.602 172.923588,67.402 C174.518272,62.902 167.740864,59.902 172.026578,55.803 C173.820598,54.502 176.112957,54.002 178.504983,54.402 C180.299003,55.102 182.192691,56.102 183.388704,57.803" id="Fill-99" fill="#009949" sketch:type="MSShapeGroup"></path>
                <path d="M197.242525,68.602 C197.840532,69.002 197.840532,69.902 197.44186,70.402 L196.644518,70.803 L184.186047,70.803 C183.388704,70.502 183.388704,69.602 183.58804,69.002 L184.086379,68.502 L197.242525,68.602" id="Fill-100" fill="#009949" sketch:type="MSShapeGroup"></path>
                <path d="M192.259136,72.803 C192.657807,77.202 197.641196,76.902 200.631229,78.303 C201.528239,79.303 201.229236,81.002 200.930233,82.202 C198.33887,81.702 195.847176,82.402 193.554817,83.002 C193.754153,84.803 195.448505,86.602 194.651163,88.602 C193.654485,90.202 192.059801,91.202 190.664452,92.202 C189.069767,91.101 186.877076,89.901 186.378738,87.902 C186.079734,86.002 187.275748,84.803 187.774086,83.202 C185.581395,82.502 182.990033,81.702 180.299003,82.202 C179.900332,81.202 179.800664,79.702 180.398671,78.803 C183.089701,76.702 188.471761,77.502 188.9701,72.803 L192.259136,72.803" id="Fill-101" fill="#009949" sketch:type="MSShapeGroup"></path>
            </g>
        </g>
    </g>
</svg>