<?xml version="1.0" encoding="UTF-8" standalone="no"?>
<svg width="233px" height="60px" viewBox="0 0 233 60" version="1.1" xmlns="http://www.w3.org/2000/svg" xmlns:xlink="http://www.w3.org/1999/xlink" xmlns:sketch="http://www.bohemiancoding.com/sketch/ns">
    <!-- Generator: Sketch 3.0.4 (8053) - http://www.bohemiancoding.com/sketch -->
    <title>logo-puzzle</title>
    <desc>Created with Sketch.</desc>
    <defs></defs>
    <g id="Page-1" stroke="none" stroke-width="1" fill="none" fill-rule="evenodd" sketch:type="MSPage">
        <g id="Artboard-1" sketch:type="MSArtboardGroup" transform="translate(-366.000000, -3649.000000)">
            <g id="logo-puzzle" sketch:type="MSLayerGroup" transform="translate(366.000000, 3649.000000)">
                <path d="M77.2309503,32.1273684 L81.0349048,32.1273684 C82.1410005,32.1273684 82.9844446,31.8252632 83.5620665,31.2184211 C84.1407453,30.6121053 84.4298205,29.8331579 84.4298205,28.8810526 C84.4298205,27.9084211 84.1407453,27.1121053 83.5620665,26.4910526 C82.9844446,25.8694737 82.1410005,25.5589474 81.0349048,25.5589474 L77.2309503,25.5589474 L77.2309503,32.1273684 Z M77.2309503,36.0357895 L77.2309503,43.5357895 L72.1147954,43.5357895 L72.1147954,21.6505263 L81.0349048,21.6505263 C83.6402806,21.6505263 85.7081986,22.3152632 87.2370733,23.6421053 C88.7675335,24.9710526 89.5322351,26.7068421 89.5322351,28.8510526 C89.5322351,31.0057895 88.7675335,32.7421053 87.2370733,34.06 C85.7081986,35.3768421 83.6402806,36.0357895 81.0349048,36.0357895 L77.2309503,36.0357895 Z M109.711479,21.6506316 L109.711479,35.9906316 C109.711479,38.4864211 108.878604,40.4201053 107.213383,41.7932632 C105.548691,43.1653684 103.367679,43.8511579 100.671934,43.8511579 C97.9450096,43.8511579 95.7465585,43.1653684 94.0760528,41.7932632 C92.4060756,40.4201053 91.5700301,38.4864211 91.5700301,35.9906316 L91.5700301,21.6506316 L96.6867134,21.6506316 L96.6867134,35.9906316 C96.6867134,37.3337895 97.0344492,38.328 97.7283353,38.9748421 C98.4222214,39.6201053 99.4035973,39.9437895 100.671934,39.9437895 C101.929174,39.9437895 102.896809,39.6232632 103.576426,38.9816842 C104.255515,38.3401053 104.594795,37.3432632 104.594795,35.9906316 L104.594795,21.6506316 L109.711479,21.6506316 Z M118.000379,39.6283684 L128.007559,39.6283684 L128.007559,43.5357368 L111.72211,43.5357368 L111.72211,41.2515263 L121.547495,25.5588947 L111.67719,25.5588947 L111.67719,21.6504737 L127.87227,21.6504737 L127.87227,23.8452105 L118.000379,39.6283684 Z M135.882294,39.6283684 L145.888946,39.6283684 L145.888946,43.5357368 L129.604554,43.5357368 L129.604554,41.2515263 L139.429939,25.5588947 L129.558577,25.5588947 L129.558577,21.6504737 L145.753656,21.6504737 L145.753656,23.8452105 L135.882294,39.6283684 Z M152.918863,39.6283684 L162.381715,39.6283684 L162.381715,43.5357368 L147.801651,43.5357368 L147.801651,21.6504737 L152.918863,21.6504737 L152.918863,39.6283684 Z M177.888193,34.172 L169.269842,34.172 L169.269842,39.6283158 L179.427109,39.6283158 L179.427109,43.5356842 L164.154216,43.5356842 L164.154216,21.6504211 L179.457232,21.6504211 L179.457232,25.5588421 L169.269842,25.5588421 L169.269842,30.2635789 L177.888193,30.2635789 L177.888193,34.172 Z M194.865731,43.5357895 L189.779699,43.5357895 L189.779699,21.6505263 L194.865731,21.6505263 L194.865731,43.5357895 Z M213.433236,25.5589474 L207.637463,25.5589474 L207.637463,43.5357895 L202.52078,43.5357895 L202.52078,25.5589474 L196.770985,25.5589474 L196.770985,21.6505263 L213.433236,21.6505263 L213.433236,25.5589474 Z M232.053693,35.8557895 L232.083816,35.9452632 C231.982877,38.5110526 231.219761,40.4694737 229.79711,41.8231579 C228.371816,43.1757895 226.307597,43.8510526 223.601283,43.8510526 C220.884928,43.8510526 218.676436,43.0194737 216.975807,41.3563158 C215.275178,39.6931579 214.424864,37.5336842 214.424864,34.8784211 L214.424864,30.3089474 C214.424864,27.6631579 215.241884,25.5063158 216.878039,23.8384211 C218.513137,22.17 220.637073,21.3352632 223.254604,21.3352632 C226.031205,21.3352632 228.153556,22.0321053 229.621656,23.4242105 C231.092399,24.8178947 231.921574,26.7963158 232.112882,29.3621053 L232.083816,29.4521053 L227.117748,29.4521053 C227.046932,28.0289474 226.727734,26.9721053 226.159096,26.2805263 C225.590987,25.5889474 224.621766,25.2431579 223.254604,25.2431579 C222.096718,25.2431579 221.186158,25.7068421 220.521866,26.6342105 C219.858631,27.5615789 219.526221,28.7757895 219.526221,30.2789474 L219.526221,34.8784211 C219.526221,36.3915789 219.888754,37.6147368 220.613292,38.5457895 C221.337301,39.4784211 222.332946,39.9442105 223.601283,39.9442105 C224.828928,39.9442105 225.699324,39.6178947 226.212472,38.9663158 C226.725092,38.3157895 227.017338,37.2784211 227.087096,35.8557895 L232.053693,35.8557895 Z M8.77604738,51.2607895 C-2.92541959,39.6076316 -2.92541959,20.715 8.77604738,9.06236842 C20.4754005,-2.58973684 39.4465531,-2.58921053 51.1464346,9.06236842 C62.8473731,20.7160526 62.8463162,39.6065789 51.1464346,51.2597368 C39.4460246,62.9128947 20.4769859,62.9139474 8.77604738,51.2607895" id="Fill-1" fill="#1E5A96" sketch:type="MSShapeGroup"></path>
                <path d="M44.7185021,30.9842632 C43.6678961,33.8237368 37.5212173,33.799 29.175559,33.8237368 C29.175559,33.8237368 34.5681057,33.0647895 36.1260465,30.0663684 C37.6850442,27.0700526 39.5209622,20.9963684 39.5209622,20.9963684 C31.2181103,20.9958421 30.4782469,23.8926842 30.4782469,23.8926842 C30.4782469,23.8926842 25.2305021,38.5058421 23.3591763,43.8974211 C8.81927654,43.8974211 11.1429759,36.7447895 11.1429759,36.7447895 L18.4158323,16.4258421 L33.150739,16.4258421 L32.1667207,19.3521579 C32.1667207,19.3521579 33.3674132,16.4258421 41.4884702,16.4258421 C41.4884702,16.4258421 49.8140465,16.4621579 48.8358415,19.3674211 C47.8592219,22.2716316 44.7185021,30.9842632 44.7185021,30.9842632" id="Fill-19" fill="#FFFFFF" sketch:type="MSShapeGroup"></path>
            </g>
        </g>
    </g>
</svg>