<?xml version="1.0" encoding="UTF-8" standalone="no"?>
<svg width="300px" height="150px" viewBox="0 0 300 150" version="1.1" xmlns="http://www.w3.org/2000/svg" xmlns:xlink="http://www.w3.org/1999/xlink" xmlns:sketch="http://www.bohemiancoding.com/sketch/ns">
    <!-- Generator: Sketch 3.3 (11970) - http://www.bohemiancoding.com/sketch -->
    <title>logo-cevi</title>
    <desc>Created with Sketch.</desc>
    <defs></defs>
    <g id="Page-1" stroke="none" stroke-width="1" fill="none" fill-rule="evenodd" sketch:type="MSPage">
        <g id="logo-cevi" sketch:type="MSLayerGroup" transform="translate(98.000000, 5.000000)">
            <g id="Page-1" sketch:type="MSShapeGroup">
                <g id="Artboard-5">
                    <g id="logo-cevi-1">
                        <g id="Group-+-CEVI">
                            <g id="Group" transform="translate(0.000000, 40.023664)">
                                <g id="Shape">
                                    <path d="M1.09397092,37.870341 C0.966753012,37.3961731 0.889384673,36.907861 0.844271941,36.4128136 L10.7839602,46.2922087 C5.40945488,44.3847607 2.07043601,41.4975455 1.09397092,37.870341 L1.09397092,37.870341 L1.09397092,37.870341 Z" fill="#00499A"></path>
                                    <path d="M64.8188631,71.3425056 C57.859773,73.3345944 50.8837656,74.5696314 44.2970811,75.0626581 L68.9344976,99.5492072 L77.6820823,67.066688 C73.8091537,68.5758529 69.5376548,69.9920702 64.8188631,71.3425056 L64.8188631,71.3425056 L64.8188631,71.3425056 Z" fill="#D60038"></path>
                                    <path d="M86.7501923,30.8280952 C77.7738864,36.6629192 66.7841992,41.6836653 56.5621052,44.608823 C42.5045267,48.6327389 28.1938659,49.8787766 17.2639531,48.0384575 L0.568858717,31.4452767 L93.2601851,6.64890204 L86.7501923,30.8280952 L86.7501923,30.8280952 Z" fill="#D60038"></path>
                                    <path d="M100.357997,48.3224644 C93.3364259,56.8736506 82.0886934,63.0138101 63.9161573,68.2157368 C45.3793356,73.5209387 26.8837921,73.3570454 16.797713,67.7983703 C13.2480177,65.8424279 11.0228321,63.3741507 10.1841865,60.4647088 L4.86787653,47.3357372 C5.06795149,47.4567488 5.26802647,47.579781 5.46742474,47.6893425 C16.3479391,53.6860392 36.7659616,53.7313905 57.4837584,47.8015982 C74.0599805,43.0567764 91.4421421,33.4533057 100.357546,24.1931128 L100.357546,48.3224644 L100.357997,48.3224644 L100.357997,48.3224644 Z" fill="#003973"></path>
                                    <path d="M68.9344976,9.82304276 L4.19321562,27.0387935 C10.8568173,17.5724991 26.500785,8.25954609 44.5916673,3.08186656 C49.67497,1.62703336 61.036386,-0.200488587 68.9344976,0.0929476764 L68.9344976,9.82304276 L68.9344976,9.82304276 Z" fill="#003973"></path>
                                </g>
                            </g>
                            <path d="M77.078456,9.82753632 L77.2089687,8.97572382 L77.150963,8.91797382 C77.0156158,9.02384933 76.8488511,9.14656684 76.6506645,9.28613007 C76.4524778,9.42569323 76.2301251,9.55562949 75.9835997,9.67594257 C75.7370743,9.79625566 75.4663842,9.89972339 75.1715208,9.98634882 C74.8766574,10.0729743 74.5552124,10.1162863 74.2071771,10.1162863 C73.6367855,10.1162863 73.1074892,10.0248497 72.6192729,9.84197382 C72.1310563,9.65909787 71.7056859,9.37756947 71.3431489,8.99738007 C70.9806118,8.61719068 70.6978372,8.13594549 70.4948165,7.55363007 C70.2917957,6.97131466 70.1902869,6.28072781 70.1902869,5.48184882 C70.1902869,4.68296982 70.2917957,3.99238298 70.4948165,3.41006757 C70.6978372,2.82775216 70.9806118,2.34650697 71.3431489,1.96631757 C71.7056859,1.58612817 72.1310563,1.30459973 72.6192729,1.12172382 C73.1074892,0.938847904 73.6367855,0.847411316 74.2071771,0.847411316 C74.5552124,0.847411316 74.8742405,0.893129614 75.1642701,0.984567566 C75.4542997,1.07600552 75.7153221,1.18909814 75.9473461,1.32384882 C76.1793694,1.45859949 76.3823877,1.59816059 76.5564053,1.74253632 C76.7304229,1.88691204 76.8657679,2.01684824 76.9624447,2.13234882 L77.0494532,2.10347382 C77.078456,1.94947305 77.1171264,1.75697497 77.1654645,1.52597382 C77.2138025,1.29497266 77.2766412,1.11209949 77.3539828,0.977348816 C76.9479411,0.794472904 76.4814835,0.638068217 75.9545968,0.508130068 C75.4277094,0.378191918 74.845242,0.313223818 74.2071771,0.313223818 C73.4047615,0.313223818 72.6700308,0.428722663 72.002963,0.659723818 C71.3358948,0.890724975 70.7630949,1.22759661 70.2845461,1.67034882 C69.8059972,2.11310103 69.4337981,2.65450186 69.1679376,3.29456757 C68.9020771,3.93463327 68.7691489,4.66371972 68.7691489,5.48184882 C68.7691489,6.29997791 68.9020771,7.02906436 69.1679376,7.66913007 C69.4337981,8.30919578 69.8011634,8.85059664 70.2700447,9.29334882 C70.7389259,9.73610101 71.2972245,10.065754 71.9449573,10.2823176 C72.5926899,10.4988812 73.2984185,10.6071613 74.062163,10.6071613 C74.4198659,10.6071613 74.763063,10.5782866 75.091763,10.5205363 C75.4204631,10.462786 75.717739,10.3978179 75.9835997,10.3256301 C76.2494603,10.2534422 76.4766468,10.1716305 76.6651659,10.0801926 C76.8536849,9.98875464 76.9914468,9.90453669 77.078456,9.82753632 L77.078456,9.82753632 L77.078456,9.82753632 Z M81.2311321,4.22578632 L81.2311321,6.70903632 C81.2311321,7.34428946 81.2190475,7.96750201 81.1948785,8.57869257 C81.1707095,9.18988314 81.1441236,9.80347076 81.1151208,10.4194738 C81.5598328,10.4002237 81.9997045,10.3905988 82.434749,10.3905988 L83.7543771,10.3905988 L85.0667546,10.3905988 C85.4969652,10.3905988 85.9295862,10.4002237 86.3646306,10.4194738 C86.3356278,10.3232233 86.3211264,10.1980996 86.3211264,10.0440988 C86.3211264,9.97672346 86.3235433,9.90213051 86.3283771,9.82031757 C86.3332109,9.73850464 86.3452954,9.66391169 86.3646306,9.59653632 C86.1326066,9.64466154 85.8594997,9.68075493 85.5453011,9.70481757 C85.2311024,9.72888022 84.897573,9.74813 84.5447039,9.76256757 C84.1918348,9.77700515 83.8317194,9.78422382 83.464349,9.78422382 L82.4492504,9.78422382 C82.4395828,9.60134787 82.4323321,9.33185057 82.4274983,8.97572382 C82.4226645,8.61959707 82.4202475,8.16722659 82.4202475,7.61859882 L82.4202475,6.75234882 L82.4202475,6.18928632 C82.4202475,6.03528555 82.4226645,5.90775558 82.4274983,5.80669257 C82.4323321,5.70562956 82.434749,5.61178675 82.434749,5.52516132 C82.6087666,5.52516132 82.8432038,5.52756754 83.1380673,5.53238007 C83.4329307,5.53719259 83.747125,5.54200504 84.0806588,5.54681757 C84.4141927,5.55163009 84.7477221,5.56366122 85.081256,5.58291132 C85.4147899,5.60216141 85.707232,5.62622367 85.9585912,5.65509882 C85.9295884,5.51072309 85.915087,5.36634954 85.915087,5.22197382 C85.915087,5.06797305 85.9295884,4.91878704 85.9585912,4.77441132 C85.7459024,4.79366141 85.5211335,4.81050499 85.2842757,4.82494257 C85.0474179,4.83938014 84.7888124,4.85381749 84.5084504,4.86825507 C84.2280883,4.88269264 83.9187279,4.89472377 83.5803602,4.90434882 C83.2419926,4.91397387 82.8601258,4.91878632 82.434749,4.91878632 C82.434749,4.7359104 82.4323321,4.46641309 82.4274983,4.11028632 C82.4226645,3.75415954 82.4202475,3.3884132 82.4202475,3.01303632 C82.4202475,2.65690954 82.4274983,2.33928772 82.4419997,2.06016132 C82.4565011,1.78103492 82.4685856,1.48747535 82.4782532,1.17947382 C82.9519681,1.17947382 83.3580038,1.18669249 83.6963715,1.20113007 C84.0347392,1.21556764 84.3465165,1.23241122 84.6317123,1.25166132 C84.9169082,1.27091141 85.1875982,1.29016122 85.4437912,1.30941132 C85.6999842,1.32866141 85.9827588,1.34791122 86.2921236,1.36716132 C86.2631208,1.22278559 86.2486194,1.07841204 86.2486194,0.934036316 C86.2486194,0.789660594 86.2631208,0.64528704 86.2921236,0.500911318 C85.8570792,0.520161414 85.4268751,0.537004996 85.0014983,0.551442568 C84.5761214,0.56588014 84.1459174,0.573098818 83.7108729,0.573098818 C83.2758285,0.573098818 82.8432075,0.56588014 82.4129968,0.551442568 C81.9827862,0.537004996 81.5501652,0.520161414 81.1151208,0.500911318 C81.1441236,1.1169144 81.1707095,1.73290824 81.1948785,2.34891132 C81.2190475,2.9649144 81.2311321,3.59053314 81.2311321,4.22578632 L81.2311321,4.22578632 L81.2311321,4.22578632 Z M93.3305799,10.4194738 C93.4562595,10.4002237 93.6157736,10.3905988 93.8091264,10.3905988 C93.9734765,10.3905988 94.1329905,10.4002237 94.2876729,10.4194738 C94.9257378,8.77359058 95.592796,7.12773205 96.2888673,5.48184882 C96.9849385,3.83596559 97.7100016,2.17566969 98.4640785,0.500911318 C98.2513905,0.549036558 98.0725412,0.573098818 97.9275264,0.573098818 C97.7825116,0.573098818 97.6036624,0.549036558 97.3909743,0.500911318 C97.2846299,0.818537905 97.1541187,1.19390915 96.9994363,1.62703632 C96.8447539,2.06016348 96.6731553,2.52697131 96.4846363,3.02747382 C96.2961172,3.52797632 96.1003497,4.05012735 95.8973292,4.59394257 C95.6943088,5.13775779 95.4888736,5.67193995 95.2810194,6.19650507 C95.0731651,6.72107019 94.86773,7.22637764 94.6647095,7.71244257 C94.4616891,8.19850748 94.2731722,8.63884685 94.0991546,9.03347382 C93.7897897,8.30197018 93.4852631,7.56566504 93.1855659,6.82453632 C92.8858686,6.08340761 92.5934265,5.35191492 92.3082306,4.63003632 C92.0230348,3.90815771 91.7523448,3.19832106 91.4961518,2.50050507 C91.2399588,1.80268908 91.0055215,1.13616449 90.7928335,0.500911318 C90.6574863,0.520161414 90.526975,0.537004996 90.4012954,0.551442568 C90.2756158,0.56588014 90.1547722,0.573098818 90.0387602,0.573098818 C89.9227482,0.573098818 89.8019046,0.56588014 89.676225,0.551442568 C89.5505454,0.537004996 89.4200342,0.520161414 89.284687,0.500911318 C89.6327223,1.32866546 89.9976707,2.2045317 90.3795433,3.12853632 C90.7614159,4.05254094 91.1336144,4.95728189 91.4961518,5.84278632 C91.8586885,6.72829074 92.1994686,7.57046981 92.5185011,8.36934882 C92.8375335,9.16822783 93.1082235,9.85159598 93.3305799,10.4194738 L93.3305799,10.4194738 L93.3305799,10.4194738 Z M102.109205,4.24022382 L102.109205,6.72347382 C102.109205,7.35872696 102.097121,7.98434576 102.072952,8.60034882 C102.048783,9.21635189 102.022197,9.82272083 101.993194,10.4194738 C102.21555,10.4002237 102.452404,10.3905988 102.703763,10.3905988 C102.955122,10.3905988 103.191976,10.4002237 103.414332,10.4194738 C103.385329,9.82272083 103.358743,9.21635189 103.334574,8.60034882 C103.310405,7.98434576 103.298321,7.35872696 103.298321,6.72347382 L103.298321,4.24022382 C103.298321,3.60497064 103.310405,2.98175812 103.334574,2.37056757 C103.358743,1.75937701 103.385329,1.13616449 103.414332,0.500911318 C103.288652,0.520161414 103.167809,0.537004996 103.051797,0.551442568 C102.935785,0.56588014 102.819775,0.573098818 102.703763,0.573098818 C102.587751,0.573098818 102.471741,0.56588014 102.355729,0.551442568 C102.239717,0.537004996 102.118874,0.520161414 101.993194,0.500911318 C102.022197,1.13616449 102.048783,1.75937701 102.072952,2.37056757 C102.097121,2.98175812 102.109205,3.60497064 102.109205,4.24022382 L102.109205,4.24022382 L102.109205,4.24022382 Z" id="CEVI" fill="#000000"></path>
                        </g>
                    </g>
                </g>
            </g>
        </g>
    </g>
</svg>