<?xml version="1.0" encoding="utf-8"?>
<!-- Generator: Adobe Illustrator 18.1.1, SVG Export Plug-In . SVG Version: 6.00 Build 0)  -->
<!DOCTYPE svg PUBLIC "-//W3C//DTD SVG 1.1//EN" "http://www.w3.org/Graphics/SVG/1.1/DTD/svg11.dtd">
<svg version="1.1" xmlns="http://www.w3.org/2000/svg" xmlns:xlink="http://www.w3.org/1999/xlink" x="0px" y="0px"
	 viewBox="0 0 595.3 841.9" enable-background="new 0 0 595.3 841.9" xml:space="preserve">
<g id="Ebene_1">
	<g>
		<path fill="#0074AB" d="M290.3,102.8c20.3-0.6,39.5,1.9,58,8.8c11.3,4.2,22,9.8,29.6,19.6c9.1,11.6,11.1,24.6,8.2,38.7
			c-0.7,3.7-2.3,3.8-5.6,2.7c-15.3-5.1-30.4-10.6-46.6-13c-21.6-3.2-42.5-0.4-63.1,5.7c-25.4,7.5-49.5,17.8-72.1,31.6
			c-15.8,9.7-26.9,23.8-36.3,39.2c-9.4,15.4-17.4,31.5-22.6,48.9c-2,6.7-3.1,13.6-3.2,20.7c-0.4,20.3,11.6,32.3,29.2,38.1
			c23.1,7.7,46.7,5.8,70.2,2.5c40.8-5.8,79.5-19.2,118.1-33.2c10.5-3.8,21-7.6,31.5-11.3c1.7-0.6,4-2.5,5.5-0.5
			c1.3,1.7-0.5,3.8-1.4,5.5c-3.4,7.1-8.2,13.4-13.6,19.1c-18.9,20.1-37.4,40.7-59,58.2c-31.1,25.2-65.9,41.1-106.4,43.3
			c-22.4,1.2-43.9,0.3-63.2-12.9c-14.5-9.9-26.7-22-36.2-36.8c-16.7-26.1-25.2-54.7-24.6-85.7c0.5-23.9,7.6-46.2,17.4-67.8
			c10.1-22.2,23.7-42.2,40.2-59.9c15.5-16.6,34.5-28.8,54.8-38.8c20.1-10,41.3-16.9,63.4-20.9C271.9,102.7,281.4,102.6,290.3,102.8z
			"/>
		<path fill="#0074AB" d="M349,210.8c30.3-0.2,58.1,4.3,84.3,16.5c43.5,20.2,69.3,54.8,81.5,100.4c3.5,13.1,5.8,26.4,6.1,39.9
			c0.6,25.7-10.5,45.9-29.9,62.1c-17,14.2-36.8,24-55.7,35.1c-27.8,16.4-57.6,28.4-88.1,38.9c-35.9,12.4-71.4,26-107.5,37.7
			c-15.5,5-31,10.1-46.9,14.1c-1.2,0.3-2.8,1.4-3.7,0.2c-1.2-1.5,0.6-2.7,1.3-3.9c7-10.9,17-18.7,27-26.4
			c29.5-22.8,60.2-44.1,90.5-65.9c29.5-21.2,58.3-43.4,85.6-67.2c9.6-8.4,18.7-17.6,27.6-26.7c10.1-10.4,22-18.9,31.9-29.5
			c3.2-3.4,6.4-6.9,8.5-11c3.6-6.8,2.5-12.4-3.3-17.5c-10.9-9.6-24.2-14.5-37.4-19.6c-26.2-10.3-53.7-13.9-81.4-16.9
			c-15.8-1.7-31.3-4.8-46-11c-5.1-2.1-10-4.7-14.2-8.3c-7.8-6.6-8-15.9-0.8-23.1c3.7-3.7,8.2-6.2,13-8.2
			C310.4,212.5,330.3,210.5,349,210.8z"/>
	</g>
</g>
<g id="Ebene_2">
	<rect x="77" y="560.8" fill="none" width="492" height="123.1"/>
	
		<text transform="matrix(1 0 0 1 76.9692 677.0242)" fill="#010202" font-family="'FuturaStd-Condensed'" font-size="140" letter-spacing="22">insieme</text>
</g>
</svg>
