<?xml version="1.0" encoding="UTF-8" standalone="no"?>
<svg width="42px" height="30px" viewBox="0 0 42 30" version="1.1" xmlns="http://www.w3.org/2000/svg" xmlns:xlink="http://www.w3.org/1999/xlink" xmlns:sketch="http://www.bohemiancoding.com/sketch/ns">
    <title>logo-wac</title>
    <description>Created with Sketch (http://www.bohemiancoding.com/sketch)</description>
    <defs></defs>
    <g id="Page 1" stroke="none" stroke-width="1" fill="none" fill-rule="evenodd">
        <g id="Artboard 1" transform="translate(-780.000000, -3919.000000)">
            <g id="Group" transform="translate(779.500000, 3919.089844)">
                <path d="M34.642,9.13369565 C34.642,8.47597826 35.1756667,7.92032609 35.866,7.92032609 C36.5383333,7.92032609 37.0703333,8.45902174 37.0703333,9.1001087 C37.0703333,9.36945652 36.9853333,9.6048913 36.8476667,9.80706522 C37.174,10.4644565 37.933,10.8182609 38.674,10.8182609 C39.6723333,10.8182609 40.655,10.0940217 40.655,9.06619565 C40.655,7.9875 39.638,7.31315217 38.6213333,7.31315217 L37.8983333,7.31315217 L37.8983333,5.30804348 L38.6213333,5.30804348 C39.5506667,5.30804348 40.6013333,4.71880435 40.6013333,3.70728261 C40.6013333,2.62858696 39.672,2.10554348 38.6556667,2.10554348 C37.9833333,2.10554348 37.2076667,2.35826087 36.8983333,2.98206522 C37.0543333,3.18456522 37.1393333,3.43695652 37.1393333,3.69032609 C37.1393333,4.36369565 36.5886667,4.88673913 35.9346667,4.88673913 C35.2446667,4.88673913 34.711,4.22902174 34.711,3.5726087 C34.711,1.24630435 36.623,0.0831521739 38.5873333,0.0831521739 C40.5856667,0.0831521739 42.635,1.27956522 42.635,3.70695652 C42.635,4.71847826 42.171,5.64521739 41.3956667,6.30195652 C42.2056667,7.00956522 42.7036667,7.9875 42.7036667,9.06619565 C42.7036667,11.2069565 40.8106667,12.8073913 38.674,12.8073913 C36.5726667,12.8073913 34.642,11.2738043 34.642,9.13369565 Z M34.642,9.13369565" id="Shape" fill="#9B9B9B"></path>
                <path d="M0.5,-0.08984375 L0.5,29.9101562 L30.5,29.9101562 L30.5,-0.08984375 L0.5,-0.08984375 Z M0.5,-0.08984375" id="Rectangle" fill="#4A4A4A"></path>
            </g>
        </g>
    </g>
</svg>