<?xml version="1.0" encoding="UTF-8" standalone="no"?>
<svg width="310px" height="81px" viewBox="0 0 310 81" version="1.1" xmlns="http://www.w3.org/2000/svg" xmlns:xlink="http://www.w3.org/1999/xlink" xmlns:sketch="http://www.bohemiancoding.com/sketch/ns">
    <!-- Generator: Sketch 3.0.3 (7891) - http://www.bohemiancoding.com/sketch -->
    <title>logo_tagline_bg</title>
    <desc>Created with Sketch.</desc>
    <defs></defs>
    <g id="Page-1" stroke="none" stroke-width="1" fill="none" fill-rule="evenodd" sketch:type="MSPage">
        <g id="logo_tagline_bg" sketch:type="MSLayerGroup" transform="translate(0.000000, 1.000000)" fill="#FFFFFF">
            <path d="M103.146248,35.7820542 L108.226641,35.7820542 C109.703894,35.7820542 110.830361,35.377066 111.601807,34.5635616 C112.374665,33.7507629 112.760741,32.7065423 112.760741,31.4294886 C112.760741,30.125624 112.374665,29.0595312 111.601807,28.2255658 C110.830361,27.3930115 109.703894,26.9774399 108.226641,26.9774399 L103.146248,26.9774399 L103.146248,35.7820542 Z M103.146248,41.0215018 L103.146248,51.0756531 L96.313337,51.0756531 L96.313337,21.7379923 L108.226641,21.7379923 C111.706266,21.7379923 114.468086,22.6276965 116.509984,24.4071049 C118.553999,26.18863 119.5753,28.5148431 119.5753,31.389272 C119.5753,34.2785176 118.553999,36.6061419 116.509984,38.3728503 C114.468086,40.1381476 111.706266,41.0215018 108.226641,41.0215018 L103.146248,41.0215018 Z M146.525807,21.7378512 L146.525807,40.960683 C146.525807,44.3064223 145.413457,46.8986295 143.189461,48.7401266 C140.966171,50.5795072 138.053309,51.4988447 134.452991,51.4988447 C130.811031,51.4988447 127.874876,50.5795072 125.643823,48.7401266 C123.413475,46.8986295 122.296889,44.3064223 122.296889,40.960683 L122.296889,21.7378512 L129.130506,21.7378512 L129.130506,40.960683 C129.130506,42.7619636 129.594926,44.094756 130.52165,44.9611769 C131.448374,45.8268922 132.759056,46.2608082 134.452991,46.2608082 C136.132104,46.2608082 137.424435,45.83042 138.332102,44.9710546 C139.239063,44.1109837 139.692191,42.773958 139.692191,40.960683 L139.692191,21.7378512 L146.525807,21.7378512 Z M157.596097,45.8376166 L170.961244,45.8376166 L170.961244,51.0756531 L149.211118,51.0756531 L149.211118,48.0135466 L162.333468,26.9774399 L149.151125,26.9774399 L149.151125,21.7379923 L170.780558,21.7379923 L170.780558,24.6801545 L157.596097,45.8376166 Z M181.478393,45.8376166 L194.842835,45.8376166 L194.842835,51.0756531 L173.09412,51.0756531 L173.09412,48.0135466 L186.216471,26.9774399 L173.032715,26.9774399 L173.032715,21.7379923 L194.662149,21.7379923 L194.662149,24.6801545 L181.478393,45.8376166 Z M204.231682,45.8376166 L216.869849,45.8376166 L216.869849,51.0756531 L197.39736,51.0756531 L197.39736,21.7379923 L204.231682,21.7379923 L204.231682,45.8376166 Z M237.579617,38.5229923 L226.069328,38.5229923 L226.069328,45.8374755 L239.634925,45.8374755 L239.634925,51.075512 L219.237124,51.075512 L219.237124,21.7378512 L239.675156,21.7378512 L239.675156,26.9772988 L226.069328,26.9772988 L226.069328,33.2835447 L237.579617,33.2835447 L237.579617,38.5229923 Z M260.254067,51.0757942 L253.461388,51.0757942 L253.461388,21.7381335 L260.254067,21.7381335 L260.254067,51.0757942 Z M285.052007,26.9771577 L277.311429,26.9771577 L277.311429,51.0753709 L270.477813,51.0753709 L270.477813,26.9771577 L262.79864,26.9771577 L262.79864,21.7377101 L285.052007,21.7377101 L285.052007,26.9771577 Z M309.920667,40.7802021 L309.960898,40.9001464 C309.826089,44.3397245 308.806905,46.9650927 306.906875,48.7797788 C305.003315,50.5930538 302.246436,51.4982802 298.632002,51.4982802 C295.004157,51.4982802 292.054593,50.3835041 289.783308,48.153952 C287.512024,45.9243998 286.376381,43.0295098 286.376381,39.4699875 L286.376381,33.3443635 C286.376381,29.7982467 287.467558,26.9068844 289.652734,24.6702768 C291.836499,22.4336691 294.673134,21.3146597 298.168993,21.3146597 C301.877299,21.3146597 304.711817,22.2488138 306.672547,24.1150054 C308.636806,25.9833136 309.744216,28.6347874 309.999718,32.0743654 L309.960898,32.1957208 L303.328437,32.1957208 C303.233859,30.2886071 302.807552,28.8704426 302.048104,27.9447551 C301.289362,27.0169509 299.994914,26.5541072 298.168993,26.5541072 C296.622571,26.5541072 295.406467,27.1757007 294.519269,28.4181821 C293.633482,29.6613691 293.189529,31.2890833 293.189529,33.3041469 L293.189529,39.4699875 C293.189529,41.4984566 293.673713,43.1381652 294.641373,44.3862911 C295.608328,45.6365336 296.938067,46.2609493 298.632002,46.2609493 C300.27159,46.2609493 301.434053,45.8235055 302.119391,44.9500291 C302.804023,44.0779638 303.194334,42.6873159 303.2875,40.7802021 L309.920667,40.7802021 Z M11.7209014,68.0122766 C-3.90706125,52.390595 -3.90706125,27.0640114 11.7209014,11.4423297 C27.3460409,-4.17723528 52.6830748,-4.17582418 68.30892,11.4423297 C83.9361769,27.0654225 83.9347653,52.3891838 68.30892,68.0108655 C52.682369,83.6325472 27.3481583,83.6339583 11.7209014,68.0122766 Z M99.5324489,68.1280581 C100.004633,68.1280581 100.421059,67.9820084 100.78102,67.6906144 C101.13957,67.3985148 101.31955,67.0407987 101.31955,66.6153493 L102.601295,66.6153493 L102.614705,66.6597993 C102.638702,67.3350149 102.33944,67.9354418 101.714096,68.4610799 C101.089458,68.9867179 100.361771,69.2491842 99.5324489,69.2491842 C98.3932775,69.2491842 97.5223126,68.8780625 96.919554,68.1358192 C96.3160897,67.3928704 96.0147104,66.4594218 96.0147104,65.3354735 L96.0147104,65.0313795 C96.0147104,63.917309 96.3175013,62.9880938 96.9230831,62.2423227 C97.5286648,61.4979627 98.3982182,61.1247244 99.5324489,61.1247244 C100.448585,61.1247244 101.197446,61.3949518 101.779736,61.9354065 C102.360615,62.4751557 102.641526,63.1390824 102.622469,63.9243646 L102.607647,63.9681089 L101.31955,63.9681089 C101.31955,63.4904486 101.150863,63.0847547 100.812781,62.7489108 C100.475406,62.4137724 100.047687,62.2458505 99.5324489,62.2458505 C98.7835884,62.2458505 98.2499989,62.5146667 97.9295628,63.0522992 C97.6077151,63.5885206 97.4482029,64.2475085 97.4482029,65.0278518 L97.4482029,65.3312402 C97.4482029,66.131339 97.6063035,66.7973824 97.925328,67.3293705 C98.2436466,67.8620641 98.7800594,68.1280581 99.5324489,68.1280581 Z M105.687574,62.3189459 C105.957898,61.9428854 106.289626,61.6493747 106.682761,61.439825 C107.075895,61.2295698 107.511377,61.1251477 107.989208,61.1251477 C108.823471,61.1251477 109.473519,61.3756196 109.939351,61.8772688 C110.405183,62.378918 110.638099,63.1507946 110.638099,64.192193 L110.638099,69.0972078 L109.21237,69.0972078 L109.21237,64.178082 C109.21237,63.531794 109.073326,63.0541337 108.795945,62.7451008 C108.518563,62.4367735 108.10496,62.2822571 107.555137,62.2822571 C107.15918,62.2822571 106.80063,62.3753903 106.480194,62.5609511 C106.159052,62.7465119 105.895081,62.9983949 105.687574,63.3165999 L105.687574,69.0972078 L104.261845,69.0972078 L104.261845,57.8111583 L105.687574,57.8111583 L105.687574,62.3189459 Z M115.018192,68.0488244 C115.534136,68.0488244 116.000674,67.9161801 116.414982,67.6515972 C116.829996,67.3870143 117.10032,67.0843314 117.225954,66.7421375 L117.225954,65.4735505 L115.625891,65.4735505 C115.05207,65.4735505 114.59259,65.6174836 114.247451,65.9060554 C113.903018,66.1946272 113.730801,66.5339989 113.730801,66.9227594 C113.730801,67.2698922 113.838789,67.5436474 114.056178,67.7454359 C114.27286,67.9472245 114.593296,68.0488244 115.018192,68.0488244 Z M117.385466,69.0972783 C117.336765,68.8609176 117.299357,68.6520734 117.272537,68.4721571 C117.246422,68.2908296 117.230894,68.1087965 117.225954,67.9253523 C116.96057,68.3014129 116.614725,68.6167957 116.187007,68.8693842 C115.7607,69.1226783 115.300514,69.2489725 114.808567,69.2489725 C113.993361,69.2489725 113.372251,69.040834 112.944533,68.6231457 C112.518226,68.2068686 112.304366,67.6311361 112.304366,66.898065 C112.304366,66.1508828 112.607157,65.5652726 113.212739,65.1440566 C113.818321,64.7214295 114.639879,64.5104687 115.677415,64.5104687 L117.225954,64.5104687 L117.225954,63.737181 C117.225954,63.2785705 117.086204,62.9159155 116.805999,62.6478048 C116.5265,62.3803997 116.130542,62.2456388 115.619539,62.2456388 C115.160764,62.2456388 114.788099,62.3627608 114.501541,62.5970049 C114.213572,62.8305435 114.070294,63.1120597 114.070294,63.4401425 L112.709499,63.4401425 L112.695383,63.3963981 C112.666445,62.8277212 112.935357,62.3063165 113.502826,61.833595 C114.068882,61.3608735 114.801509,61.1252183 115.699295,61.1252183 C116.586493,61.1252183 117.300063,61.3502902 117.841417,61.801845 C118.381359,62.2519888 118.651682,62.90251 118.651682,63.7505865 L118.651682,67.5203641 C118.651682,67.7997636 118.665798,68.069991 118.694737,68.3303406 C118.723675,68.5913958 118.77661,68.8468065 118.854955,69.0972783 L117.385466,69.0972783 Z M121.956973,61.2695747 L122.057903,62.4344452 C122.318346,62.0195791 122.64584,61.6971407 123.038268,61.4685411 C123.432108,61.2392359 123.879589,61.1249361 124.381418,61.1249361 C125.225562,61.1249361 125.879139,61.3725857 126.342148,61.8664738 C126.805156,62.3610675 127.036661,63.1244774 127.036661,64.1559981 L127.036661,69.0977017 L125.611638,69.0977017 L125.611638,64.1849258 C125.611638,63.4955991 125.474712,63.0059443 125.202976,62.716667 C124.929829,62.4273896 124.513403,62.282751 123.954405,62.282751 C123.543626,62.282751 123.180841,62.3815286 122.86464,62.5790838 C122.549145,62.7773446 122.296466,63.047572 122.108721,63.3897659 L122.108721,69.0977017 L120.682993,69.0977017 L120.682993,61.2695747 L121.956973,61.2695747 Z M130.173688,65.4801122 C130.173688,66.2660999 130.340258,66.8982767 130.673398,67.3759371 C131.006539,67.8528919 131.512602,68.0913693 132.192999,68.0913693 C132.622835,68.0913693 132.982091,67.9940028 133.271471,67.7985642 C133.560852,67.6038312 133.80012,67.3272538 133.987865,66.9702432 L133.987865,63.3676821 C133.805061,63.0346604 133.565793,62.770783 133.271471,62.5753444 C132.97715,62.3799058 132.622835,62.2825393 132.207821,62.2825393 C131.527424,62.2825393 131.017832,62.5668777 130.681162,63.1362602 C130.342375,63.7049371 130.173688,64.4365971 130.173688,65.328418 L130.173688,65.4801122 Z M128.747959,65.328418 C128.747959,64.0690032 129.023223,63.0544159 129.573046,62.2825393 C130.123575,61.5106627 130.883729,61.1247244 131.852801,61.1247244 C132.349688,61.1247244 132.786582,61.2249131 133.162777,61.4252906 C133.539678,61.6249625 133.853056,61.9135343 134.103617,62.2903004 L134.277245,61.2693631 L135.413593,61.2693631 L135.413593,69.1405288 C135.413593,70.1438273 135.122095,70.9142928 134.538394,71.4526308 C133.953986,71.9902633 133.112665,72.258374 132.012313,72.258374 C131.636118,72.258374 131.229574,72.2068686 130.79268,72.1038576 C130.356491,71.9994356 129.971121,71.8583247 129.638686,71.6798194 L130.000059,70.57351 C130.255561,70.7181486 130.56541,70.8352707 130.926077,70.9241705 C131.288861,71.013776 131.645294,71.0582259 131.997491,71.0582259 C132.692004,71.0582259 133.198067,70.9001817 133.513563,70.5840933 C133.83047,70.2680049 133.987865,69.7868167 133.987865,69.1405288 L133.987865,68.2585857 C133.732363,68.585963 133.425337,68.8336126 133.068905,68.9994179 C132.711767,69.1666343 132.302399,69.2491842 131.838685,69.2491842 C130.878082,69.2491842 130.123575,68.9020514 129.573046,68.2070802 C129.023223,67.5128146 128.747959,66.6040605 128.747959,65.4801122 L128.747959,65.328418 Z M138.950671,69.0977722 L137.524942,69.0977722 L137.524942,61.2696453 L138.950671,61.2696453 L138.950671,69.0977722 Z M138.950671,59.265165 L137.524942,59.265165 L137.524942,57.8110172 L138.950671,57.8110172 L138.950671,59.265165 Z M142.337835,61.2695747 L142.438766,62.4344452 C142.699208,62.0195791 143.026702,61.6971407 143.419131,61.4685411 C143.81297,61.2392359 144.260452,61.1249361 144.76228,61.1249361 C145.606424,61.1249361 146.260001,61.3725857 146.72301,61.8664738 C147.186019,62.3610675 147.417523,63.1244774 147.417523,64.1559981 L147.417523,69.0977017 L145.9925,69.0977017 L145.9925,64.1849258 C145.9925,63.4955991 145.855574,63.0059443 145.583838,62.716667 C145.310691,62.4273896 144.894266,62.282751 144.335267,62.282751 C143.924488,62.282751 143.561703,62.3815286 143.245502,62.5790838 C142.930007,62.7773446 142.677328,63.047572 142.489584,63.3897659 L142.489584,69.0977017 L141.063855,69.0977017 L141.063855,61.2695747 L142.337835,61.2695747 Z M150.555256,65.4801122 C150.555256,66.2660999 150.721826,66.8982767 151.054966,67.3759371 C151.388107,67.8528919 151.89417,68.0913693 152.574567,68.0913693 C153.004403,68.0913693 153.363659,67.9940028 153.653039,67.7985642 C153.94242,67.6038312 154.181688,67.3272538 154.369433,66.9702432 L154.369433,63.3676821 C154.186629,63.0346604 153.947361,62.770783 153.653039,62.5753444 C153.358718,62.3799058 153.004403,62.2825393 152.589389,62.2825393 C151.908992,62.2825393 151.3994,62.5668777 151.06273,63.1362602 C150.723943,63.7049371 150.555256,64.4365971 150.555256,65.328418 L150.555256,65.4801122 Z M149.129527,65.328418 C149.129527,64.0690032 149.404791,63.0544159 149.954614,62.2825393 C150.505143,61.5106627 151.265297,61.1247244 152.234369,61.1247244 C152.731256,61.1247244 153.16815,61.2249131 153.544345,61.4252906 C153.921246,61.6249625 154.234624,61.9135343 154.485185,62.2903004 L154.658813,61.2693631 L155.795161,61.2693631 L155.795161,69.1405288 C155.795161,70.1438273 155.503663,70.9142928 154.919962,71.4526308 C154.335554,71.9902633 153.494233,72.258374 152.393881,72.258374 C152.017686,72.258374 151.611142,72.2068686 151.174248,72.1038576 C150.738059,71.9994356 150.352689,71.8583247 150.020254,71.6798194 L150.381627,70.57351 C150.637129,70.7181486 150.946978,70.8352707 151.307645,70.9241705 C151.670429,71.013776 152.026862,71.0582259 152.379059,71.0582259 C153.073572,71.0582259 153.579635,70.9001817 153.895131,70.5840933 C154.212038,70.2680049 154.369433,69.7868167 154.369433,69.1405288 L154.369433,68.2585857 C154.113931,68.585963 153.806905,68.8336126 153.450473,68.9994179 C153.093335,69.1666343 152.683967,69.2491842 152.220253,69.2491842 C151.25965,69.2491842 150.505143,68.9020514 149.954614,68.2070802 C149.404791,67.5128146 149.129527,66.6040605 149.129527,65.4801122 L149.129527,65.328418 Z M163.321456,69.0977722 L161.888669,69.0977722 L161.888669,58.5638439 L163.321456,58.5638439 L163.321456,69.0977722 Z M173.105907,59.6854638 L169.718743,59.6854638 L169.718743,69.0975605 L168.293014,69.0975605 L168.293014,59.6854638 L164.913614,59.6854638 L164.913614,58.5636322 L173.105907,58.5636322 L173.105907,59.6854638 Z M178.663426,69.09749 L178.663426,62.3255781 L177.44097,62.3255781 L177.44097,61.2693631 L178.663426,61.2693631 L178.663426,60.278059 C178.663426,59.4440936 178.882226,58.7985113 179.31912,58.3434286 C179.755308,57.8869349 180.364419,57.6597464 181.146453,57.6597464 C181.3102,57.6597464 181.475358,57.6731519 181.641929,57.6992574 C181.808499,57.7260685 181.992714,57.7634629 182.195281,57.8114406 L182.021652,58.8965834 C181.934838,58.8775334 181.829673,58.8598945 181.707569,58.846489 C181.584052,58.8309668 181.45489,58.8239112 181.320081,58.8239112 C180.905067,58.8239112 180.595924,58.9480888 180.393357,59.1971496 C180.190791,59.4447992 180.089861,59.8060431 180.089861,60.278059 L180.089861,61.2693631 L181.718156,61.2693631 L181.718156,62.3255781 L180.089861,62.3255781 L180.089861,69.09749 L178.663426,69.09749 Z M184.016261,65.2665408 C184.016261,66.0955674 184.191301,66.7799552 184.540675,67.3182933 C184.890755,67.858748 185.410934,68.1282698 186.100507,68.1282698 C186.780904,68.1282698 187.296848,67.858748 187.649046,67.3182933 C188.001243,66.7799552 188.177695,66.0955674 188.177695,65.2665408 L188.177695,65.1070855 C188.177695,64.2886423 188.000537,63.6070767 187.646223,63.0630942 C187.291202,62.5184062 186.771023,62.2460621 186.086391,62.2460621 C185.405993,62.2460621 184.890755,62.5184062 184.540675,63.0630942 C184.191301,63.6070767 184.016261,64.2886423 184.016261,65.1070855 L184.016261,65.2665408 Z M182.589826,65.1106133 C182.589826,63.953504 182.90391,62.9995943 183.531372,62.2502955 C184.158128,61.4995855 185.010036,61.1249361 186.086391,61.1249361 C187.171921,61.1249361 188.029475,61.4988799 188.659055,62.2460621 C189.288634,62.9939499 189.603423,63.9492706 189.603423,65.1106133 L189.603423,65.2707742 C189.603423,66.4377613 189.290045,67.393082 188.662584,68.1353253 C188.035122,68.8782742 187.181096,69.2493959 186.100507,69.2493959 C185.019917,69.2493959 184.16448,68.8768631 183.534901,68.1317976 C182.905322,67.386732 182.589826,66.4328224 182.589826,65.2707742 L182.589826,65.1106133 Z M195.03552,62.5283545 L194.304305,62.4846101 C193.92811,62.4846101 193.610497,62.5742155 193.352172,62.7527208 C193.094553,62.9312261 192.895516,63.1824035 192.755766,63.5055474 L192.755766,69.0977722 L191.330037,69.0977722 L191.330037,61.2696453 L192.604018,61.2696453 L192.740944,62.4126435 C192.962567,62.0076553 193.23642,61.6915669 193.562503,61.4643783 C193.887879,61.2386009 194.262662,61.1250066 194.688264,61.1250066 C194.793429,61.1250066 194.895065,61.1327677 194.991054,61.1504066 C195.08775,61.1666343 195.168212,61.1856843 195.230323,61.2040287 L195.03552,62.5283545 Z M201.976419,59.3809465 L201.976419,61.2697158 L203.460024,61.2697158 L203.460024,62.3259309 L201.976419,62.3259309 L201.976419,67.0785459 C201.976419,67.4461397 202.051941,67.7036671 202.203689,67.8532447 C202.356143,68.0028222 202.557298,68.077611 202.808565,68.077611 C202.890438,68.077611 202.980782,68.0684388 203.079594,68.0486833 C203.178407,68.0296333 203.266633,68.0049389 203.344272,67.9760111 L203.532016,68.9524985 C203.426145,69.0392817 203.270162,69.1105427 203.065478,69.1662816 C202.860089,69.2213148 202.653993,69.2488314 202.446486,69.2488314 C201.867725,69.2488314 201.406128,69.0745595 201.063812,68.7246044 C200.721496,68.375355 200.549985,67.8271392 200.549985,67.0785459 L200.549985,62.3259309 L199.305648,62.3259309 L199.305648,61.2697158 L200.549985,61.2697158 L200.549985,59.3809465 L201.976419,59.3809465 Z M206.458642,62.3189459 C206.728966,61.9428854 207.060695,61.6493747 207.453829,61.439825 C207.846963,61.2295698 208.282445,61.1251477 208.760276,61.1251477 C209.594539,61.1251477 210.244587,61.3756196 210.710419,61.8772688 C211.176251,62.378918 211.409167,63.1507946 211.409167,64.192193 L211.409167,69.0972078 L209.983439,69.0972078 L209.983439,64.178082 C209.983439,63.531794 209.844395,63.0541337 209.567013,62.7451008 C209.289631,62.4367735 208.876029,62.2822571 208.326205,62.2822571 C207.930248,62.2822571 207.571699,62.3753903 207.251262,62.5609511 C206.930121,62.7465119 206.666149,62.9983949 206.458642,63.3165999 L206.458642,69.0972078 L205.032913,69.0972078 L205.032913,57.8111583 L206.458642,57.8111583 L206.458642,62.3189459 Z M216.449542,62.245921 C215.971711,62.245921 215.563755,62.447004 215.226379,62.8484645 C214.888298,63.249925 214.680791,63.7536909 214.604564,64.3590567 L214.617974,64.39504 L218.229585,64.39504 L218.229585,64.2073625 C218.229585,63.6499744 218.08066,63.1836029 217.781398,62.8089535 C217.482136,62.4343041 217.038184,62.245921 216.449542,62.245921 M216.66693,69.2492548 C215.576459,69.2492548 214.709023,68.8865998 214.064622,68.1605842 C213.420927,67.4345686 213.099079,66.493359 213.099079,65.3355441 L213.099079,65.017339 C213.099079,63.9032685 213.430808,62.9754643 214.09356,62.2353377 C214.757724,61.495211 215.542581,61.1247949 216.449542,61.1247949 C217.506134,61.1247949 218.304401,61.443 218.845048,62.0801157 C219.38499,62.7165258 219.655314,63.5653079 219.655314,64.6264618 L219.655314,65.516166 L214.575626,65.516166 L214.55304,65.5528548 C214.567862,66.3028593 214.75843,66.9195139 215.125449,67.4035242 C215.491763,67.8861235 216.00559,68.1281287 216.66693,68.1281287 C217.148996,68.1281287 217.572479,68.0589844 217.936676,67.9221068 C218.300872,67.7845237 218.615661,67.5954351 218.881044,67.3541354 L219.438631,68.281234 C219.158426,68.5578114 218.78929,68.7878221 218.331221,68.9726774 C217.873153,69.1575327 217.317683,69.2492548 216.66693,69.2492548 M230.200342,65.3285591 C230.200342,64.4317993 230.035183,63.6987282 229.704866,63.1328735 C229.373843,62.5656077 228.870603,62.2826804 228.195146,62.2826804 C227.756135,62.2826804 227.386292,62.3899247 227.084913,62.6044132 C226.782828,62.8189018 226.542854,63.1074736 226.364285,63.4687175 L226.364285,66.8624345 C226.547794,67.2483728 226.787769,67.548939 227.084913,67.7662498 C227.381352,67.9835606 227.756135,68.0915104 228.210674,68.0915104 C228.880484,68.0915104 229.380195,67.853033 229.708395,67.3753726 C230.036595,66.8984178 230.200342,66.266241 230.200342,65.4802533 L230.200342,65.3285591 Z M231.626776,65.4802533 C231.626776,66.6084349 231.355041,67.5186002 230.81157,68.2114547 C230.269511,68.9028981 229.522062,69.2493253 228.571341,69.2493253 C228.055397,69.2493253 227.606504,69.1491366 227.226074,68.9494647 C226.844233,68.7490872 226.528738,68.4541654 226.277471,68.0625827 L226.103842,69.0976311 L224.939262,69.0976311 L224.939262,57.8115817 L226.364285,57.8115817 L226.364285,62.1958972 C226.610611,61.8480588 226.916225,61.5827704 227.279716,61.4000317 C227.644617,61.2165876 228.069513,61.1248655 228.557931,61.1248655 C229.522062,61.1248655 230.274452,61.5108038 230.815805,62.2826804 C231.355747,63.0538514 231.626776,64.0691443 231.626776,65.3285591 L231.626776,65.4802533 Z M236.373394,62.245921 C235.895563,62.245921 235.487607,62.447004 235.150232,62.8484645 C234.812151,63.249925 234.604644,63.7536909 234.528417,64.3590567 L234.541827,64.39504 L238.153438,64.39504 L238.153438,64.2073625 C238.153438,63.6499744 238.004513,63.1836029 237.705251,62.8089535 C237.405989,62.4343041 236.962037,62.245921 236.373394,62.245921 M236.590783,69.2492548 C235.500312,69.2492548 234.632876,68.8865998 233.988475,68.1605842 C233.34478,67.4345686 233.022932,66.493359 233.022932,65.3355441 L233.022932,65.017339 C233.022932,63.9032685 233.354661,62.9754643 234.017413,62.2353377 C234.681577,61.495211 235.466433,61.1247949 236.373394,61.1247949 C237.429986,61.1247949 238.228253,61.443 238.768901,62.0801157 C239.308843,62.7165258 239.579166,63.5653079 239.579166,64.6264618 L239.579166,65.516166 L234.499479,65.516166 L234.476893,65.5528548 C234.491715,66.3028593 234.682282,66.9195139 235.049302,67.4035242 C235.415615,67.8861235 235.929442,68.1281287 236.590783,68.1281287 C237.072848,68.1281287 237.496332,68.0589844 237.860528,67.9221068 C238.224724,67.7845237 238.539514,67.5954351 238.804897,67.3541354 L239.362484,68.281234 C239.082279,68.5578114 238.713142,68.7878221 238.255074,68.9726774 C237.797006,69.1575327 237.241536,69.2492548 236.590783,69.2492548 M243.086177,59.3809465 L243.086177,61.2697158 L244.569781,61.2697158 L244.569781,62.3259309 L243.086177,62.3259309 L243.086177,67.0785459 C243.086177,67.4461397 243.161698,67.7036671 243.313446,67.8532447 C243.4659,68.0028222 243.667055,68.077611 243.918322,68.077611 C244.000196,68.077611 244.090539,68.0684388 244.189352,68.0486833 C244.288165,68.0296333 244.376391,68.0049389 244.454029,67.9760111 L244.641774,68.9524985 C244.535903,69.0392817 244.37992,69.1105427 244.175236,69.1662816 C243.969846,69.2213148 243.763751,69.2488314 243.556244,69.2488314 C242.977483,69.2488314 242.515885,69.0745595 242.173569,68.7246044 C241.831253,68.375355 241.659742,67.8271392 241.659742,67.0785459 L241.659742,62.3259309 L240.415406,62.3259309 L240.415406,61.2697158 L241.659742,61.2697158 L241.659742,59.3809465 L243.086177,59.3809465 Z M248.38657,59.3809465 L248.38657,61.2697158 L249.870175,61.2697158 L249.870175,62.3259309 L248.38657,62.3259309 L248.38657,67.0785459 C248.38657,67.4461397 248.462091,67.7036671 248.61384,67.8532447 C248.766294,68.0028222 248.967449,68.077611 249.218716,68.077611 C249.300589,68.077611 249.390932,68.0684388 249.489745,68.0486833 C249.588558,68.0296333 249.676784,68.0049389 249.754423,67.9760111 L249.942167,68.9524985 C249.836296,69.0392817 249.680313,69.1105427 249.475629,69.1662816 C249.27024,69.2213148 249.064144,69.2488314 248.856637,69.2488314 C248.277876,69.2488314 247.816279,69.0745595 247.473963,68.7246044 C247.131647,68.375355 246.960136,67.8271392 246.960136,67.0785459 L246.960136,62.3259309 L245.715799,62.3259309 L245.715799,61.2697158 L246.960136,61.2697158 L246.960136,59.3809465 L248.38657,59.3809465 Z M254.235022,62.245921 C253.757191,62.245921 253.349235,62.447004 253.01186,62.8484645 C252.673779,63.249925 252.466272,63.7536909 252.390044,64.3590567 L252.403455,64.39504 L256.015066,64.39504 L256.015066,64.2073625 C256.015066,63.6499744 255.86614,63.1836029 255.566879,62.8089535 C255.267617,62.4343041 254.823665,62.245921 254.235022,62.245921 M254.45241,69.2492548 C253.36194,69.2492548 252.494504,68.8865998 251.850103,68.1605842 C251.206407,67.4345686 250.88456,66.493359 250.88456,65.3355441 L250.88456,65.017339 C250.88456,63.9032685 251.216289,62.9754643 251.879041,62.2353377 C252.543204,61.495211 253.328061,61.1247949 254.235022,61.1247949 C255.291614,61.1247949 256.089881,61.443 256.630529,62.0801157 C257.17047,62.7165258 257.440794,63.5653079 257.440794,64.6264618 L257.440794,65.516166 L252.361106,65.516166 L252.338521,65.5528548 C252.353343,66.3028593 252.54391,66.9195139 252.91093,67.4035242 C253.277243,67.8861235 253.79107,68.1281287 254.45241,68.1281287 C254.934476,68.1281287 255.35796,68.0589844 255.722156,67.9221068 C256.086352,67.7845237 256.401142,67.5954351 256.666525,67.3541354 L257.224112,68.281234 C256.943907,68.5578114 256.57477,68.7878221 256.116702,68.9726774 C255.658633,69.1575327 255.103164,69.2492548 254.45241,69.2492548 M262.79977,62.5283545 L262.068554,62.4846101 C261.69236,62.4846101 261.374747,62.5742155 261.116422,62.7527208 C260.858802,62.9312261 260.659765,63.1824035 260.520015,63.5055474 L260.520015,69.0977722 L259.094287,69.0977722 L259.094287,61.2696453 L260.368267,61.2696453 L260.505193,62.4126435 C260.726817,62.0076553 261.000669,61.6915669 261.326752,61.4643783 C261.652129,61.2386009 262.026912,61.1250066 262.452513,61.1250066 C262.557678,61.1250066 262.659314,61.1327677 262.755304,61.1504066 C262.851999,61.1666343 262.932461,61.1856843 262.994572,61.2040287 L262.79977,62.5283545 Z M38.9655885,44.6369746 C38.9655885,44.6369746 46.1676358,43.619565 48.2483527,39.6000212 C50.3304813,35.582594 52.7824523,27.4412009 52.7824523,27.4412009 C41.6935298,27.4397897 40.705401,31.3231616 40.705401,31.3231616 C40.705401,31.3231616 33.6967446,50.9135872 31.1974846,58.1412873 C11.7786364,58.1412873 14.8820666,48.5528019 14.8820666,48.5528019 L24.5953726,21.3148713 L44.2746634,21.3148713 L42.9604521,25.2363431 C42.9604521,25.2363431 44.564044,21.3148713 55.4101691,21.3148713 C55.4101691,21.3148713 66.5294412,21.362849 65.2229938,25.2575097 C63.9186638,29.1500538 59.7240571,40.8305082 59.7240571,40.8305082 C58.3209142,44.6369746 50.1116813,44.6038135 38.9655885,44.6369746 Z" id="Fill-1" sketch:type="MSShapeGroup"></path>
        </g>
    </g>
</svg>