<?xml version="1.0" encoding="UTF-8" standalone="no"?>
<svg width="440px" height="260px" viewBox="0 0 440 260" version="1.1" xmlns="http://www.w3.org/2000/svg" xmlns:xlink="http://www.w3.org/1999/xlink" xmlns:sketch="http://www.bohemiancoding.com/sketch/ns">
    <!-- Generator: Sketch 3.3 (11970) - http://www.bohemiancoding.com/sketch -->
    <title>slide01_02</title>
    <desc>Created with Sketch.</desc>
    <defs></defs>
    <g id="Page-1" stroke="none" stroke-width="1" fill="none" fill-rule="evenodd" sketch:type="MSPage">
        <g id="slide01_02" sketch:type="MSArtboardGroup">
            <circle id="Oval-116" fill="#50B8B7" sketch:type="MSShapeGroup" cx="91.5" cy="92.5" r="55.5"></circle>
            <circle id="Oval-116-Copy-4" fill="#DC795B" sketch:type="MSShapeGroup" cx="-37.5" cy="92.5" r="55.5"></circle>
            <circle id="Oval-116-Copy-5" fill="#50B8B7" sketch:type="MSShapeGroup" cx="478.8" cy="93.5" r="55.5"></circle>
            <circle id="Oval-116-Copy-2" fill="#DC795B" sketch:type="MSShapeGroup" cx="349.5" cy="92.5" r="55.5"></circle>
            <circle id="Oval-116-Copy" fill="#99BF62" sketch:type="MSShapeGroup" cx="220.5" cy="92.5" r="55.5"></circle>
            <path d="M187.396925,108 L249.716981,108 C249.716981,108 256.907757,105.528884 254.510832,100.586652 C252.113906,95.6444208 185,103.057768 185,103.057768 L187.396925,108 Z M196.984626,98.1155366 C196.984626,98.1155366 196.984626,85.7599574 201.778477,78.3466099 C206.572327,70.9332623 206.572327,73.4043782 218.556953,75.875494 C230.541579,78.3466099 237.732355,68.4621465 242.526205,73.4043782 C247.320056,78.3466099 244.923131,95.6444208 244.923131,95.6444208 L196.984626,98.1155366 Z" id="Path-968" fill="#FFFFFF" sketch:type="MSShapeGroup"></path>
            <path d="M364.970348,100.954339 C371.928028,99.5693858 378.994488,97.6069209 378.994488,97.6069209 C378.994488,97.6069209 379.970757,74.3279019 355.938525,74.3279019 C355.911373,74.3279019 355.884255,74.3279346 355.857171,74.3279999 C355.268902,72.9363224 354.169343,72 352.909973,72 C351.460709,72 350.223086,73.2399742 349.73275,74.9869337 C333.846796,78.6410396 333.925328,96.3615502 334.063625,99.4691609 L334.063625,99.4691609 C336.791265,98.6001147 341.544588,97.6256449 348.760357,97.8842554 C354.707889,98.0974128 358.904667,99.0255885 361.669396,99.9394522 C359.143483,99.3559377 355.193228,98.7708718 349.507644,98.7708718 C338.166549,98.7708718 333.630114,101.098774 333.630114,101.098774 L324.55724,107.336823 C324.55724,107.336823 315.781404,112.738283 322.586059,112.738283 C329.390715,112.738283 331.241106,110.410381 342.642594,112.738283 C354.044082,115.066185 365.285188,101.098774 365.285188,101.098774 C365.285188,101.098774 365.183113,101.045213 364.970348,100.954339 L364.970348,100.954339 Z" id="Path-970" fill="#FFFFFF" sketch:type="MSShapeGroup"></path>
            <path d="M120.168141,95.7378808 L120.168141,92.4466931 L68.4841824,92.4466931 L68.4841824,97.932006 L120.168141,95.7378808 Z M68.4841824,91.3496305 C68.4841824,91.3496305 56.2878139,80.9626844 66.2370537,78.1848795 C68.5918942,78.0938939 76.3348775,77.1967273 88.70834,80.3790046 C103.064288,84.7286415 118.126134,84.6228761 120.168141,86.9613801 C125.338798,91.3496303 117.921012,91.3496305 117.921012,91.3496305 L68.4841824,91.3496305 Z M68.2597498,98.3399307 L59.518765,103.181494 C59.518765,103.181494 54.9012844,107.81205 73.2182703,106.87474 C72.2323266,106.925193 84.0446633,107.189177 93.2025972,97.932006 L68.2597498,98.3399307 Z" id="Path-971" fill="#FFFFFF" sketch:type="MSShapeGroup"></path>
            <path id="Path-967" stroke="#979797" stroke-width="3" sketch:type="MSShapeGroup" d=""></path>
            <path d="M204.954167,137.7001 C198.0115,142.8787 196.146,151.07815 196.487667,155.4416 C196.925,160.77775 198.004667,167.72365 198.004667,167.72365 C198.004667,167.72365 195.865833,168.88815 195.865833,173.57355 C196.610667,185.335 200.533,180.25915 201.339333,185.4172 C203.28,197.8431 207.714833,195.63055 207.714833,202.41205 C207.714833,213.7077 203.068167,218.98905 188.561,225.24995 C174.006,231.53825 159,239.45 159,253.15 L159,260 L282,260 L282,253.15 C282,239.45 266.987167,231.53825 252.425333,225.2568 C237.918167,218.9959 233.285167,213.7214 233.285167,202.4189 C233.285167,195.6374 237.706333,197.84995 239.653833,185.42405 C240.467,180.266 244.3825,185.34185 245.141,173.5804 C245.141,168.895 242.995333,167.7305 242.995333,167.7305 C242.995333,167.7305 244.075,160.7846 244.5055,155.44845 C244.949667,149.852 241.785833,137.9056 228.788833,134.24085 C226.513333,131.91185 224.975833,128.206 231.973167,124.48645 C216.6665,123.7672 213.106333,131.7954 204.954167,137.7001 L204.954167,137.7001 Z" id="Shape" fill="#525A6B" sketch:type="MSShapeGroup"></path>
        </g>
    </g>
</svg>