<?xml version="1.0" encoding="UTF-8" standalone="no"?>
<svg width="440px" height="260px" viewBox="0 0 440 260" version="1.1" xmlns="http://www.w3.org/2000/svg" xmlns:xlink="http://www.w3.org/1999/xlink" xmlns:sketch="http://www.bohemiancoding.com/sketch/ns">
    <!-- Generator: Sketch 3.3 (11970) - http://www.bohemiancoding.com/sketch -->
    <title>slide02_01</title>
    <desc>Created with Sketch.</desc>
    <defs></defs>
    <g id="Page-1" stroke="none" stroke-width="1" fill="none" fill-rule="evenodd" sketch:type="MSPage">
        <g id="slide02_01" sketch:type="MSArtboardGroup">
            <g id="Group" sketch:type="MSLayerGroup" transform="translate(72.000000, 34.000000)">
                <path d="M294.382022,132.642857 C288.294186,141.292131 270.724889,147.727546 249.898876,148.196429 C229.072864,147.727546 211.503567,141.292131 205.41573,132.642857 C204.833499,130.633071 204.213483,131.63256 204.213483,132.642857 L204.213483,145.803571 C204.213483,157.967465 224.667486,170.928571 249.898876,170.928571 C275.130266,170.928571 295.58427,157.967465 295.58427,145.803571 L295.58427,132.642857 C295.58427,131.63256 294.957727,130.633071 294.382022,132.642857 L294.382022,132.642857 Z M294.382022,99.1428571 C288.450822,106.722651 270.81626,112.497498 249.898876,112.303571 C228.981493,112.497498 211.340404,106.722651 205.41573,99.1428571 C204.807393,97.2414619 204.213483,98.1223708 204.213483,99.1428571 L204.213483,114.696429 C204.213483,125.724181 224.667486,135.035714 249.898876,135.035714 C275.130266,135.035714 295.58427,125.717656 295.58427,114.696429 L295.58427,99.1428571 C295.58427,98.1223708 294.983833,97.2414619 294.382022,99.1428571 L294.382022,99.1428571 Z M249.898876,56.0714286 C224.667486,56.0714286 204.213483,63.6753014 204.213483,72.8214286 L204.213483,81.1964286 C204.213483,91.0879072 224.667486,99.1428571 249.898876,99.1428571 C275.130266,99.1428571 295.58427,91.0879072 295.58427,81.1964286 L295.58427,72.8214286 C295.58427,63.6753014 275.130266,56.0714286 249.898876,56.0714286 L249.898876,56.0714286 Z" id="Shape" fill="#525A6B" sketch:type="MSShapeGroup"></path>
                <path d="M95.4685208,109.471021 C113.842245,114.484198 127.349293,131.292485 127.349293,151.255512 C127.349293,171.881317 112.930482,189.139428 93.6227066,193.5 L93.6227066,193.5 L93.6227066,190.349816 C111.221894,186.051358 124.28324,170.178756 124.28324,151.255512 C124.28324,132.653461 111.661523,116.99937 94.5148989,112.390049 L94.0982032,123.970234 L77.8793498,106.718492 L100.55116,99.887471 L95.4685303,109.471023 L95.4685208,109.471021 Z" id="Oval-116" fill="#525A6B" sketch:type="MSShapeGroup" transform="translate(102.614321, 146.693735) rotate(-240.000000) translate(-102.614321, -146.693735) "></path>
                <g id="v-card-copy-3" transform="translate(113.500000, 60.012051) rotate(-345.000000) translate(-113.500000, -60.012051) translate(51.000000, 15.012051)" sketch:type="MSShapeGroup">
                    <rect id="Rectangle-113" fill="#DC795B" x="6.39488462e-14" y="0.0702742718" width="124.8" height="89.8026316" rx="9.6"></rect>
                    <rect id="Rectangle-113-Copy" fill="#525A6B" x="11.7637408" y="8.53513714" width="101.272518" height="72.8729059" rx="9.6"></rect>
                    <path d="M114,4.85974796 L10.8,4.85974796 C7.37472,4.85974796 4.8,7.42117559 4.8,10.8465901 L4.8,79.0965901 C4.8,82.5162743 7.37472,85.0834322 10.8,85.0834322 L114,85.0834322 C117.42528,85.0834322 120,82.5162743 120,79.0965901 L120,10.8465901 C120,7.42690585 117.42528,4.85974796 114,4.85974796 L114,4.85974796 Z M79.2,27.609748 L102,27.609748 L102,33.5965901 L79.2,33.5965901 L79.2,27.609748 L79.2,27.609748 Z M68.4,73.109748 C67.6604,72.5241941 66.7201333,71.9558625 64.8,71.9123795 C58.6017333,68.4540209 48.3906667,64.1369966 48,58.7413269 C48.3906667,55.7153547 50.4489333,56.748685 51.6,51.5571164 C51.7389333,48.5624128 53.5678667,50.9218503 54,45.5702743 C53.9118667,43.2637247 52.9142667,42.718356 52.8,43.1755374 C52.9142667,42.718356 53.4188,39.4920692 54,37.1886953 C53.8258667,34.4000471 52.3524,26.6672921 46.8,25.2150111 C45.2316,23.883041 44.5149333,24.3250768 48,22.8202743 C40.6449333,22.2584162 38.9822667,25.9956274 34.8,28.8071164 C31.9532,31.1565381 31.076,34.9741195 31.2,37.1886953 C31.4486667,39.4920692 31.9532,42.7240967 32.4,43.1755374 C31.9532,42.7240967 30.9498667,43.2637247 31.2,45.5702743 C31.2996,50.9218503 33.1285333,48.5624128 33.6,51.5571164 C34.4070667,56.748685 36.4768,55.7153547 36,58.7413269 C36.4768,64.1369966 26.2657333,68.4540209 19.2,71.9123795 C18.3365333,71.8754923 17.4994667,72.3634539 16.8,73.109748 L16.8,16.8334322 L68.4,16.8334322 L68.4,73.109748 L68.4,73.109748 Z M108,51.5571164 L79.2,51.5571164 L79.2,45.5702743 L108,45.5702743 L108,51.5571164 L108,51.5571164 Z" id="Shape" fill="#FFFFFF"></path>
                </g>
                <g id="v-card-copy-2" transform="translate(93.500000, 70.012051) rotate(-345.000000) translate(-93.500000, -70.012051) translate(31.000000, 25.012051)" sketch:type="MSShapeGroup">
                    <rect id="Rectangle-113" fill="#50B8B7" x="8.52651283e-14" y="0.0702742718" width="124.8" height="89.8026316" rx="9.6"></rect>
                    <rect id="Rectangle-113-Copy" fill="#525A6B" x="11.7637408" y="8.53513714" width="101.272518" height="72.8729059" rx="9.6"></rect>
                    <path d="M114,4.85974796 L10.8,4.85974796 C7.37472,4.85974796 4.8,7.42117559 4.8,10.8465901 L4.8,79.0965901 C4.8,82.5162743 7.37472,85.0834322 10.8,85.0834322 L114,85.0834322 C117.42528,85.0834322 120,82.5162743 120,79.0965901 L120,10.8465901 C120,7.42690585 117.42528,4.85974796 114,4.85974796 L114,4.85974796 Z M79.2,27.609748 L102,27.609748 L102,33.5965901 L79.2,33.5965901 L79.2,27.609748 L79.2,27.609748 Z M68.4,73.109748 C67.6604,72.5241941 66.7201333,71.9558625 64.8,71.9123795 C58.6017333,68.4540209 48.3906667,64.1369966 48,58.7413269 C48.3906667,55.7153547 50.4489333,56.748685 51.6,51.5571164 C51.7389333,48.5624128 53.5678667,50.9218503 54,45.5702743 C53.9118667,43.2637247 52.9142667,42.718356 52.8,43.1755374 C52.9142667,42.718356 53.4188,39.4920692 54,37.1886953 C53.8258667,34.4000471 52.3524,26.6672921 46.8,25.2150111 C45.2316,23.883041 44.5149333,24.3250768 48,22.8202743 C40.6449333,22.2584162 38.9822667,25.9956274 34.8,28.8071164 C31.9532,31.1565381 31.076,34.9741195 31.2,37.1886953 C31.4486667,39.4920692 31.9532,42.7240967 32.4,43.1755374 C31.9532,42.7240967 30.9498667,43.2637247 31.2,45.5702743 C31.2996,50.9218503 33.1285333,48.5624128 33.6,51.5571164 C34.4070667,56.748685 36.4768,55.7153547 36,58.7413269 C36.4768,64.1369966 26.2657333,68.4540209 19.2,71.9123795 C18.3365333,71.8754923 17.4994667,72.3634539 16.8,73.109748 L16.8,16.8334322 L68.4,16.8334322 L68.4,73.109748 L68.4,73.109748 Z M108,51.5571164 L79.2,51.5571164 L79.2,45.5702743 L108,45.5702743 L108,51.5571164 L108,51.5571164 Z" id="Shape" fill="#FFFFFF"></path>
                </g>
                <g id="v-card-copy" transform="translate(73.017037, 79.882642) rotate(-345.000000) translate(-73.017037, -79.882642) translate(10.017037, 34.882642)" sketch:type="MSShapeGroup">
                    <rect id="Rectangle-113" fill="#99BF62" x="1" y="0.0702742718" width="124.8" height="89.8026316" rx="9.6"></rect>
                    <rect id="Rectangle-113-Copy" fill="#525A6B" x="12.7637408" y="8.53513714" width="101.272518" height="72.8729059" rx="9.6"></rect>
                    <path d="M115,4.85974796 L11.8,4.85974796 C8.37472,4.85974796 5.8,7.42117559 5.8,10.8465901 L5.8,79.0965901 C5.8,82.5162743 8.37472,85.0834322 11.8,85.0834322 L115,85.0834322 C118.42528,85.0834322 121,82.5162743 121,79.0965901 L121,10.8465901 C121,7.42690585 118.42528,4.85974796 115,4.85974796 L115,4.85974796 Z M80.2,27.609748 L103,27.609748 L103,33.5965901 L80.2,33.5965901 L80.2,27.609748 L80.2,27.609748 Z M69.4,73.109748 C68.6604,72.5241941 67.7201333,71.9558625 65.8,71.9123795 C59.6017333,68.4540209 49.3906667,64.1369966 49,58.7413269 C49.3906667,55.7153547 51.4489333,56.748685 52.6,51.5571164 C52.7389333,48.5624128 54.5678667,50.9218503 55,45.5702743 C54.9118667,43.2637247 53.9142667,42.718356 53.8,43.1755374 C53.9142667,42.718356 54.4188,39.4920692 55,37.1886953 C54.8258667,34.4000471 53.3524,26.6672921 47.8,25.2150111 C46.2316,23.883041 45.5149333,24.3250768 49,22.8202743 C41.6449333,22.2584162 39.9822667,25.9956274 35.8,28.8071164 C32.9532,31.1565381 32.076,34.9741195 32.2,37.1886953 C32.4486667,39.4920692 32.9532,42.7240967 33.4,43.1755374 C32.9532,42.7240967 31.9498667,43.2637247 32.2,45.5702743 C32.2996,50.9218503 34.1285333,48.5624128 34.6,51.5571164 C35.4070667,56.748685 37.4768,55.7153547 37,58.7413269 C37.4768,64.1369966 27.2657333,68.4540209 20.2,71.9123795 C19.3365333,71.8754923 18.4994667,72.3634539 17.8,73.109748 L17.8,16.8334322 L69.4,16.8334322 L69.4,73.109748 L69.4,73.109748 Z M109,51.5571164 L80.2,51.5571164 L80.2,45.5702743 L109,45.5702743 L109,51.5571164 L109,51.5571164 Z" id="Shape" fill="#FFFFFF"></path>
                </g>
            </g>
        </g>
    </g>
</svg>