<?xml version="1.0" encoding="UTF-8" standalone="no"?>
<svg width="440px" height="260px" viewBox="0 0 440 260" version="1.1" xmlns="http://www.w3.org/2000/svg" xmlns:xlink="http://www.w3.org/1999/xlink" xmlns:sketch="http://www.bohemiancoding.com/sketch/ns">
    <!-- Generator: Sketch 3.3 (11970) - http://www.bohemiancoding.com/sketch -->
    <title>slide03_01</title>
    <desc>Created with Sketch.</desc>
    <defs>
        <rect id="path-1" x="1" y="0" width="105.709677" height="162.155172"></rect>
    </defs>
    <g id="Page-1" stroke="none" stroke-width="1" fill="none" fill-rule="evenodd" sketch:type="MSPage">
        <g id="slide03_01" sketch:type="MSArtboardGroup">
            <g id="tablet-copy" sketch:type="MSLayerGroup" transform="translate(163.500000, 27.000000)">
                <rect id="Rectangle-4" fill="#474E5D" sketch:type="MSShapeGroup" x="0" y="0" width="113" height="209" rx="6.912"></rect>
                <g id="Group" transform="translate(40.096774, 7.206897)" fill="#202228" sketch:type="MSShapeGroup">
                    <ellipse id="Oval" cx="3.64516129" cy="3.60344828" rx="3.64516129" ry="3.60344828"></ellipse>
                    <path d="M29.1612903,4.8045977 C29.1612903,5.76551724 28.5423007,7.20689655 28.0221774,7.20689655 L12.0745968,7.20689655 C11.5544735,7.20689655 10.9354839,5.76551724 10.9354839,4.8045977 L10.9354839,2.40229885 C10.9354839,1.44137931 11.5544735,0 12.0745968,0 L28.0221774,0 C28.5423007,0 29.1612903,1.44137931 29.1612903,2.40229885 L29.1612903,4.8045977 L29.1612903,4.8045977 Z" id="Shape"></path>
                </g>
                <ellipse id="Oval" fill="#202228" sketch:type="MSShapeGroup" cx="56.5" cy="194.586207" rx="7.29032258" ry="7.20689655"></ellipse>
                <g id="screen" transform="translate(2.645161, 21.620690)">
                    <mask id="mask-2" sketch:name="Rectangle" fill="white">
                        <use xlink:href="#path-1"></use>
                    </mask>
                    <use id="Rectangle" fill="#99BF62" sketch:type="MSShapeGroup" xlink:href="#path-1"></use>
                    <path d="M46.9222399,77.8006602 C45.1548005,77.8006602 43.4808119,76.9742378 42.408159,75.5493717 L27.890777,56.3299635 C26.0014452,53.8344123 26.4930778,50.2803891 28.9878084,48.3873527 C31.4866021,46.4861743 35.0336702,46.9869129 36.9230021,49.4865352 L46.4753012,62.123062 L70.4921623,23.4806933 C72.1458355,20.8263713 75.6400837,20.0121621 78.2973374,21.6690778 C80.9505281,23.3219225 81.7672071,26.823022 80.1094708,29.4854861 L51.7329257,75.1219119 C50.7496605,76.7136909 49.0472304,77.7070261 47.182277,77.7925181 C47.0928893,77.8006602 47.0116277,77.8006602 46.9222399,77.8006602 L46.9222399,77.8006602 Z" id="Shape-Copy" fill="#FFFFFF" sketch:type="MSShapeGroup" mask="url(#mask-2)"></path>
                </g>
            </g>
            <path d="M358.496494,186.220025 C358.356899,186.238021 358.238779,186.115652 358.17793,186.047269 C355.436127,182.437379 352.20753,179.244985 348.527931,176.578057 C344.211202,173.508032 338.616637,171.679693 333.218937,171.938827 L333.075762,171.877643 L329.267305,172.475092 L326.070922,168.951581 C325.609182,168.418915 325.036482,168.008619 324.385035,167.637912 C320.580158,165.42447 316.48893,164.690255 312.107773,165.449664 L308.421015,166.990075 L308.249205,166.680554 L308.10603,166.61577 L286.991288,123.207118 C284.156421,117.65012 281.267864,118.211578 278.264767,119.388481 C278.264767,119.388481 272.10824,121.57313 274.667494,128.177465 L299.365193,190.08545 C299.61217,190.733287 299.819773,191.359529 299.934314,192.032559 C300.564284,195.037801 300.109703,197.852292 298.609944,200.562408 C298.248427,201.357807 297.493179,202.092022 296.949113,202.279175 C293.373316,203.610839 289.955012,203.391294 286.63335,201.634937 C282.466956,199.626644 278.76946,194.375568 275.555179,191.179574 C273.744015,189.37283 272.05097,186.983033 269.957034,185.435423 C266.170054,182.620933 258.875284,181.436832 255.600155,185.446221 C254.529921,186.749092 253.771093,189.829915 255.217161,191.11839 C257.339732,192.997116 259.949097,195.066594 261.54192,197.132473 C262.916401,198.921222 264.119071,200.929515 265.307424,203.045782 C266.109204,204.489018 267.193756,208.005331 268.464434,208.764739 C269.846074,209.585332 271.231292,211.874355 272.315844,212.92529 C274.961003,215.466249 278.279085,218.478689 280.244163,221.6063 C284.993996,226.425485 288.043624,233.051414 293.469959,237.694243 C299.758924,243.071287 306.144532,247.904867 314.380678,250.179494 C317.46968,251.198037 320.018196,252.893209 322.069179,255.3082 L328.533533,262.355223 C341.945457,280.966129 347.49707,314.30452 355.786906,339.613337 C373.179097,332.796656 393.026741,325.598472 410.418932,318.78539 C401.502705,298.889608 388.548941,270.449581 378.190225,248.174799 C378.261812,248.146007 378.3334,248.120813 378.38709,248.09202 L373.554932,237.240757 L373.397439,237.125586 C373.690948,234.084353 373.894973,230.996332 374.073941,227.922707 C374.19564,225.471725 374.077521,223.056735 373.694528,220.674135 C372.749572,214.35053 371.754505,208.001732 370.784494,201.660131 C370.584049,200.530016 370.46235,199.378307 370.433715,198.258989 C370.197477,194.548325 366.188575,185.093509 358.496494,186.220025 L358.496494,186.220025 Z" id="Fill-59" stroke="#FFFFFF" stroke-width="6" fill="#DC795B" sketch:type="MSShapeGroup" transform="translate(332.418932, 229.113337) rotate(-21.000000) translate(-332.418932, -229.113337) "></path>
            <g id="check" sketch:type="MSLayerGroup" transform="translate(152.000000, 69.000000)"></g>
        </g>
    </g>
</svg>