<?xml version="1.0" encoding="UTF-8" standalone="no"?>
<svg width="279px" height="321px" viewBox="0 0 279 321" version="1.1" xmlns="http://www.w3.org/2000/svg" xmlns:xlink="http://www.w3.org/1999/xlink" xmlns:sketch="http://www.bohemiancoding.com/sketch/ns">
    <!-- Generator: Sketch 3.3 (11970) - http://www.bohemiancoding.com/sketch -->
    <title>demo-man</title>
    <desc>Created with Sketch.</desc>
    <defs></defs>
    <g id="Page-1" stroke="none" stroke-width="1" fill="none" fill-rule="evenodd" sketch:type="MSPage">
        <g id="Artboard-4" sketch:type="MSArtboardGroup" transform="translate(-51.000000, -1565.000000)">
            <g id="demo-man" sketch:type="MSLayerGroup" transform="translate(44.000000, 1565.501644)">
                <path d="M234.314084,99.1604104 C234.314084,99.1604104 218.122492,64.4726446 228.436002,64.472643 C238.749513,64.4726409 230.221748,79.3309827 239.940011,79.3309915 C249.658274,79.3310008 253.75061,41.5795582 270.372102,50.3105817 C286.993595,59.0416022 292.966751,71.2540604 275.233299,93.4044356 C257.499847,115.554811 234.314084,99.1604104 234.314084,99.1604104 Z" id="Path-130" fill="#D25732" sketch:type="MSShapeGroup"></path>
                <path d="M93.4279386,167.084373 C135.480479,167.084373 154.927939,147.586453 154.927939,105.424799 C154.927939,63.2631437 135.480479,29.0843731 93.4279386,29.0843731 C51.3753977,29.0843731 31.9279386,63.2631437 31.9279386,105.424799 C31.9279386,147.586453 51.3753977,167.084373 93.4279386,167.084373 Z" id="Oval-2-copy-3" fill="#D25732" sketch:type="MSShapeGroup" transform="translate(93.427939, 98.084373) scale(-1, 1) rotate(-351.000000) translate(-93.427939, -98.084373) "></path>
                <path d="M126.614003,96.0403375 C126.15612,96.1492913 125.703308,96.1645027 125.251773,96.0522977 C124.378658,95.8353312 123.701213,95.2103499 123.497954,94.4019078 C123.368746,93.9737805 123.334589,93.5501951 123.436312,93.1435694 C123.640871,92.3258715 124.314837,91.7186883 125.189773,91.5489849 C128.245808,90.8840757 130.936195,89.307132 132.734696,87.2117701 C134.85707,84.7688306 135.912769,82.6291792 136.98194,78.3553119 C137.297448,77.0941105 138.580132,76.631889 139.875665,76.9538248 C141.120238,77.2630975 142.011825,78.2911987 141.702342,79.5283172 C140.642205,83.7660725 140.59407,86.0320882 141.389751,89.134362 C142.056228,91.7676237 143.867585,94.6414696 146.185633,96.6845531 C146.872878,97.2399302 147.077155,98.0770761 146.881947,98.8573964 C146.777572,99.2746198 146.5416,99.6626916 146.224201,99.9819057 L146.14437,100.055755 C145.512181,100.593623 144.709013,100.775021 143.908845,100.576182 C143.460713,100.464822 143.039447,100.230828 142.648844,99.8859094 C139.652984,97.0431977 137.577372,93.5312734 136.772454,89.6836433 C134.287923,92.8042512 130.959943,94.8067882 126.614003,96.0403375 Z" id="人-人-copy-3" fill="#FFFFFF" sketch:type="MSShapeGroup" transform="translate(135.749985, 87.617049) scale(-1, 1) rotate(-351.000000) translate(-135.749985, -87.617049) "></path>
                <path d="M96.1978935,108.165575 C95.7400107,108.274529 95.2871989,108.28974 94.8356638,108.177535 C93.9625485,107.960568 93.2851035,107.335587 93.0818442,106.527145 C92.9526369,106.099018 92.9184793,105.675432 93.0202027,105.268807 C93.2247618,104.451109 93.8987278,103.843926 94.7736639,103.674222 C97.8296982,103.009313 100.520085,101.432369 102.318586,99.3370074 C104.44096,96.8940679 105.49666,94.7544165 106.565831,90.4805492 C106.881339,89.2193478 108.164023,88.7571263 109.459555,89.0790621 C110.704129,89.3883348 111.595716,90.416436 111.286232,91.6535545 C110.226096,95.8913098 110.177961,98.1573254 110.973642,101.259599 C111.640118,103.892861 113.451476,106.766707 115.769524,108.80979 C116.456769,109.365168 116.661046,110.202313 116.465837,110.982634 C116.361462,111.399857 116.12549,111.787929 115.808091,112.107143 L115.728261,112.180992 C115.096072,112.71886 114.292903,112.900258 113.492736,112.701419 C113.044604,112.590059 112.623338,112.356065 112.232734,112.011147 C109.236875,109.168435 107.161263,105.656511 106.356345,101.808881 C103.871814,104.929488 100.543834,106.932025 96.1978935,108.165575 Z" id="人-人-copy-4" fill="#FFFFFF" sketch:type="MSShapeGroup" transform="translate(105.333875, 99.742286) scale(-1, 1) rotate(-351.000000) translate(-105.333875, -99.742286) "></path>
                <path d="M60.321098,7.55994851 C37.2699115,15.0497346 22.6018782,25.7542345 22.7609278,33.509644 L33.5489255,74.7046532 C36.7867281,84.6695848 66.7228437,80.1337132 90.0783074,72.545063 C115.66867,64.2302503 135.77336,51.3265537 131.440578,42.8977284 L118.303506,2.46597861 C111.260876,-0.889043835 86.2157369,-0.853729693 60.321098,7.55994851 L60.321098,7.55994851 Z" id="Rectangle-25" fill="#FFFFFF" sketch:type="MSShapeGroup"></path>
                <path d="M80.3579353,85.0035553 C38.6715137,85.0035553 4.86422851,73.5943291 4.86422851,59.5035553 C4.86422851,45.4127815 38.6715137,34.0035553 80.3579353,34.0035553 C122.056943,34.0035553 155.864229,45.4127815 155.864229,59.5035553 C155.864229,73.5943291 122.056943,85.0035553 80.3579353,85.0035553 L80.3579353,85.0035553 L80.3579353,85.0035553 Z M81.3516004,47.0035553 C53.4812578,47.0035553 30.8642285,52.8254057 30.8642285,60.0035553 C30.8642285,67.1817049 53.4812578,73.0035553 81.3516004,73.0035553 C109.247199,73.0035553 131.864229,67.1817049 131.864229,60.0035553 C131.864229,52.8254057 109.247199,47.0035553 81.3516004,47.0035553 L81.3516004,47.0035553 L81.3516004,47.0035553 Z" id="Shape" fill="#FFFFFF" sketch:type="MSShapeGroup" transform="translate(80.364229, 59.503555) rotate(-16.000000) translate(-80.364229, -59.503555) "></path>
                <path d="M32.4368396,70.034277 L32.950457,72.0090922 C36.0970539,81.6933215 65.9901952,77.0251887 89.345659,69.4365385 C114.936021,61.1217258 135.093457,48.380364 130.842109,40.2021673 C130.842109,40.2021673 130.182011,38.1705947 129.160715,35.0273685 C128.870176,43.2190225 108.701966,54.8781187 84.7992694,62.6445756 C65.9419977,68.7716746 42.967334,73.128135 32.4368396,70.034277 L32.4368396,70.034277 Z" id="Rectangle-25" fill="#D25732" sketch:type="MSShapeGroup"></path>
                <path d="M190.632139,182.751785 C190.714731,182.677647 190.900032,182.501735 191.171413,182.227133 C191.647363,181.745536 192.164763,181.182161 192.700227,180.54711 C194.214707,178.750964 195.5482,176.772873 196.52601,174.712806 C199.115764,169.256668 198.820297,164.378158 194.527497,159.610562 C188.802408,153.252239 184.26124,152.49038 179.302865,155.080756 C177.332009,156.11038 175.794666,157.314486 173.159615,159.693483 C170.024206,162.517128 168.893184,165.102107 168.841107,167.769118 C168.810784,169.322056 169.12972,170.52418 169.353045,170.997458 C170.542843,173.518917 169.448824,176.55118 166.909485,177.770208 C164.370147,178.989236 161.347085,177.933407 160.157287,175.411948 C159.902379,174.871739 159.601009,174.070668 159.326886,173.037449 C158.892859,171.401521 158.650537,169.60942 158.687925,167.694653 C158.793979,162.26328 161.109298,156.971558 166.102232,152.4759 C169.653541,149.269906 171.711407,147.658106 174.682166,146.106108 C183.73021,141.379188 193.296472,142.984094 202.115341,152.778389 C209.361553,160.826052 209.920693,170.058116 205.692646,178.965837 C204.299542,181.90085 202.482495,184.59624 200.434925,187.024622 C199.191744,188.499014 198.111901,189.59167 197.375893,190.252264 C197.371577,190.256135 54.4708215,318.924574 54.4708215,318.924574 C52.3754897,320.811219 49.1660461,320.662688 47.3023285,318.59282 C45.4386109,316.522952 45.6263713,313.315564 47.7217031,311.428919 L190.632139,182.751785 L190.632139,182.751785 Z" id="Line" fill="#FFFFFF" sketch:type="MSShapeGroup"></path>
                <path d="M104.498702,224.238372 C109.461254,209.401202 126.672631,213.726088 126.672631,213.726088 C126.672631,213.726088 159.834839,221.516389 159.83484,232.34059 C159.83484,243.164792 134.164171,214.173661 146.999506,238.691795 C159.83484,263.20993 132.654853,275.748085 114.701659,263.20993 C96.7484653,250.671775 104.498702,238.691794 104.498702,224.238372 Z" id="Path-129" fill="#D25732" sketch:type="MSShapeGroup" transform="translate(131.334840, 240.639503) rotate(-37.000000) translate(-131.334840, -240.639503) "></path>
            </g>
        </g>
    </g>
</svg>