<?xml version="1.0" encoding="UTF-8" standalone="no"?>
<svg width="220px" height="221px" viewBox="0 0 220 221" version="1.1" xmlns="http://www.w3.org/2000/svg" xmlns:xlink="http://www.w3.org/1999/xlink" xmlns:sketch="http://www.bohemiancoding.com/sketch/ns">
    <!-- Generator: Sketch 3.3 (11970) - http://www.bohemiancoding.com/sketch -->
    <title>feature-event</title>
    <desc>Created with Sketch.</desc>
    <defs></defs>
    <g id="Page-1" stroke="none" stroke-width="1" fill="none" fill-rule="evenodd" sketch:type="MSPage">
        <g id="Artboard-4" sketch:type="MSArtboardGroup" transform="translate(-690.000000, -888.000000)">
            <g id="feature-event" sketch:type="MSLayerGroup" transform="translate(690.000000, 888.500000)">
                <path d="M110,220.308434 C170.751325,220.308434 220,171.059759 220,110.308434 C220,49.5571083 170.751325,0.308433785 110,0.308433785 C49.2486745,0.308433785 0,49.5571083 0,110.308434 C0,171.059759 49.2486745,220.308434 110,220.308434 Z" id="Oval-34" fill="#73A131" sketch:type="MSShapeGroup"></path>
                <path d="M110.916667,165.624833 C140.026677,165.624833 161.791667,164.393152 161.791667,162.873796 C161.791667,161.35444 140.026677,160.122759 110.916667,160.122759 C81.8066565,160.122759 58.2083333,161.35444 58.2083333,162.873796 C58.2083333,164.393152 81.8066565,165.624833 110.916667,165.624833 Z" id="Oval-9" fill="#5F822C" sketch:type="MSShapeGroup"></path>
                <g id="Calendar" transform="translate(63.208333, 66.591638)" sketch:type="MSShapeGroup">
                    <path d="M92.1666667,63.2771525 L71.0866286,62.3568465 L69.25,64.1941679 L70.169962,85.2821577 L2.34022399,85.2821577 C1.32217336,85.2821577 0.5,84.4581055 0.5,83.4415857 L0.5,20.1697378 L92.1666667,20.1697378 L92.1666667,63.2771525 Z" id="Rectangle-20" fill="#E8EBF0"></path>
                    <path d="M0.5,1.83856098 L0.5,20.1697378 L92.1666667,20.1697378 L92.1666667,1.83856098 C92.1666667,0.823151789 91.3444933,0 90.3264427,0 L2.34022399,0 C1.32389634,0 0.5,0.822584215 0.5,1.83856098 Z" id="Rectangle-21" fill="#474E5D"></path>
                    <path d="M69.7025148,62.6975918 L46.0536117,85.2821577 L70.1666667,85.2821577 L69.7025148,62.6975918 Z" id="Path-136" fill-opacity="0.1" fill="#474E5D"></path>
                    <path d="M69.0578795,63.9578364 L69.5180159,84.337733 C69.5407855,85.3462199 70.1399742,85.5845041 70.8557963,84.8704994 L91.7557433,64.0236132 C92.4718094,63.309365 92.2249345,62.7097493 91.225988,62.6848732 L70.8429592,62.1772886 C69.8343173,62.1521711 69.0353288,62.9590435 69.0578795,63.9578364 Z" id="Rectangle-22" fill="#F8F9F9"></path>
                    <path d="M44.4726786,64.2789353 L32.83375,64.2789353 L43.16125,54.9350067 C46.0026786,52.3667924 47.4780357,48.7603638 47.4780357,45.2085781 C47.4780357,42.0939353 46.3851786,38.8700067 44.0901786,36.4110781 C41.5219643,33.5696496 37.9155357,32.0942924 34.36375,32.0942924 C31.2491071,32.0942924 28.0251786,33.1871496 25.56625,35.4821496 L23.8723214,37.0121496 C22.6155357,38.1596496 22.5608929,40.0175067 23.65375,41.2742924 C24.80125,42.5310781 26.6591071,42.6403638 27.9158929,41.4928638 L29.6098214,39.9628638 C30.9758929,38.760721 32.6698214,38.1596496 34.36375,38.1596496 C36.27625,38.1596496 38.18875,38.8700067 39.6094643,40.4546496 C40.8116071,41.820721 41.4126786,43.4600067 41.4126786,45.2085781 C41.4126786,47.175721 40.7023214,49.0335781 39.1176786,50.4542924 L22.9433929,65.0985781 C21.74125,66.2460781 21.6319643,68.1039353 22.7794643,69.360721 C23.3258929,70.0164353 24.2001786,70.3442924 25.0198214,70.3442924 L25.0744643,70.3442924 L25.1291071,70.3442924 L44.4726786,70.3442924 C46.1666071,70.3442924 47.4780357,69.0328638 47.4780357,67.3389353 C47.4780357,65.6450067 46.1666071,64.2789353 44.4726786,64.2789353 Z M66.3844643,34.935721 C66.2751786,34.8264353 66.2751786,34.7171496 66.2751786,34.553221 C66.2751786,34.4985781 66.2205357,34.3892924 66.2205357,34.2800067 C66.1658929,34.2253638 66.1658929,34.1160781 66.11125,34.0067924 C66.11125,33.8975067 66.0566071,33.8428638 66.0019643,33.7335781 C66.0019643,33.6789353 65.9473214,33.6242924 65.9473214,33.5696496 L65.8926786,33.4603638 L65.6741071,33.2417924 C65.6194643,33.1325067 65.5648214,33.0778638 65.5101786,33.023221 C65.4555357,32.9685781 65.4008929,32.8592924 65.2916071,32.8046496 C65.2369643,32.7500067 65.1276786,32.6953638 65.0730357,32.640721 C64.96375,32.5860781 64.9091071,32.5314353 64.8544643,32.4767924 C64.7451786,32.4767924 64.6905357,32.4221496 64.5266071,32.3128638 C64.4719643,32.258221 64.3626786,32.258221 64.3080357,32.258221 C64.19875,32.2035781 64.1441071,32.1489353 63.9801786,32.1489353 C63.9255357,32.1489353 63.81625,32.1489353 63.7616071,32.0942924 L63.3791071,32.0942924 L63.3244643,32.0942924 L63.1605357,32.0942924 C63.05125,32.0942924 62.8873214,32.0942924 62.7780357,32.1489353 C62.7233929,32.1489353 62.6141071,32.1489353 62.5594643,32.2035781 C62.4501786,32.2035781 62.3408929,32.258221 62.2316071,32.258221 C62.1223214,32.3128638 62.0676786,32.4221496 61.9583929,32.4221496 C61.90375,32.4767924 61.7944643,32.4767924 61.7398214,32.5314353 L55.01875,36.5203638 C53.5980357,37.3400067 53.10625,39.2525067 54.0351786,40.6185781 C54.5816071,41.6021496 55.5651786,42.1485781 56.6033929,42.1485781 C57.0951786,42.1485781 57.6416071,42.0392924 58.1333929,41.7114353 L60.3191071,40.4546496 L60.3191071,67.3389353 C60.3191071,69.0328638 61.6305357,70.3442924 63.3244643,70.3442924 C64.96375,70.3442924 66.3844643,69.0328638 66.3844643,67.3389353 L66.3844643,35.0996496 L66.3844643,34.935721 C66.3844643,34.935721 66.3844643,34.9903638 66.3844643,34.935721 Z" id="21" fill="#474E5D"></path>
                    <path d="M5.56666667,11.391412 C5.19333333,11.4980786 4.96666667,11.911412 5.1,12.311412 C5.52666667,13.6447453 6.78,14.6047453 8.24666667,14.6047453 C10.0733333,14.6047453 11.5666667,13.1247453 11.5666667,11.2980786 L11.5666667,6.0047453 C11.5666667,5.59141197 11.2333333,5.27141197 10.8333333,5.27141197 C10.42,5.27141197 10.0866667,5.59141197 10.0866667,6.0047453 L10.0866667,11.2980786 C10.0866667,12.2980786 9.26,13.1247453 8.24666667,13.1247453 C7.43333333,13.1247453 6.74,12.591412 6.5,11.8580786 C6.38,11.471412 5.96666667,11.2580786 5.56666667,11.391412 C5.56666667,11.391412 5.96666667,11.2580786 5.56666667,11.391412 Z M21.4333333,10.751412 L21.4333333,6.0047453 C21.4333333,5.59141197 21.1133333,5.27141197 20.7,5.27141197 C20.2866667,5.27141197 19.9533333,5.59141197 19.9533333,6.0047453 L19.9533333,10.751412 C19.9533333,12.0580786 18.9,13.1247453 17.58,13.1247453 C16.2733333,13.1247453 15.2066667,12.0580786 15.2066667,10.751412 L15.2066667,6.0047453 C15.2066667,5.59141197 14.86,5.27141197 14.46,5.27141197 C14.0466667,5.27141197 13.7266667,5.59141197 13.7266667,6.0047453 L13.7266667,10.751412 C13.7266667,12.871412 15.4333333,14.6047453 17.58,14.6047453 C19.7133333,14.6047453 21.4333333,12.871412 21.4333333,10.751412 C21.4333333,10.751412 21.4333333,12.871412 21.4333333,10.751412 Z M25.8333333,8.33807864 L30.1,14.2580786 C30.1133333,14.2847453 30.14,14.311412 30.1666667,14.3380786 C30.3,14.4980786 30.5,14.6047453 30.7133333,14.6047453 C31.1133333,14.6047453 31.4466667,14.271412 31.4466667,13.871412 L31.4466667,6.1247453 C31.4466667,5.73807864 31.1133333,5.4047453 30.7133333,5.4047453 C30.3133333,5.4047453 29.9933333,5.73807864 29.9933333,6.1247453 L29.9933333,11.6180786 L25.6866667,5.65807864 C25.46,5.33807864 25.0066667,5.27141197 24.6733333,5.49807864 C24.4733333,5.6447453 24.3666667,5.8847453 24.38,6.11141197 L24.38,6.1247453 L24.38,13.871412 C24.38,14.271412 24.7,14.6047453 25.1133333,14.6047453 C25.5,14.6047453 25.8333333,14.271412 25.8333333,13.871412 C25.8333333,13.871412 25.8333333,14.271412 25.8333333,13.871412 L25.8333333,8.33807864 Z" id="JUN" fill="#FFFFFF"></path>
                </g>
            </g>
        </g>
    </g>
</svg>