<?xml version="1.0" encoding="UTF-8" standalone="no"?>
<svg width="1024px" height="370px" viewBox="0 0 1024 370" version="1.1" xmlns="http://www.w3.org/2000/svg" xmlns:xlink="http://www.w3.org/1999/xlink" xmlns:sketch="http://www.bohemiancoding.com/sketch/ns">
    <title>hero-background-smal</title>
    <description>Created with Sketch (http://www.bohemiancoding.com/sketch)</description>
    <defs></defs>
    <g id="Page 1" stroke="none" stroke-width="1" fill="none" fill-rule="evenodd">
        <g id="Artboard 3" transform="translate(0.000000, -327.000000)">
            <path d="M452.988062,515.123914 C118.7309,515.123921 -203,501 -203,501 L-203,698 L1227,698 L1227,501 C1227,501 833.7309,515.123914 452.988062,515.123914 Z M452.988062,515.123914" id="hero bg" fill="#40A3A2"></path>
            <g id="Group" transform="translate(637.000000, 355.000000)">
                <g transform="translate(137.000000, 42.000000) scale(-1, 1) translate(-137.000000, -42.000000) translate(99.000000, 0.000000)">
                    <g>
                        <path d="M37,84 C62.2999026,84 74,72.1317011 74,46.4680851 C74,20.8044691 62.2999026,0 37,0 C11.7000974,0 0,20.8044691 0,46.4680851 C0,72.1317011 11.7000974,84 37,84 Z M37,84" id="Oval 2" fill="#40A3A2"></path>
                        <path d="M23.5172853,34.7207834 C22.6268243,36.8584346 21.1493906,38.476556 19.0394216,39.7995769 C18.8143709,39.926953 18.5797146,40 18.3290672,40 C17.8444003,40 17.4086496,39.7388625 17.1967287,39.305424 C17.0732304,39.0789525 17,38.841571 17,38.5945786 C17,38.0978928 17.2728404,37.6548875 17.707906,37.4335041 C19.2180977,36.6189767 20.417959,35.334846 21.0839321,33.8809918 C21.8737233,32.1823437 22.1457088,30.8087195 22.1457088,28.2126883 C22.1457088,27.4466097 22.7556251,27 23.4747759,27 C24.1656395,27 24.766007,27.4612381 24.766007,28.2126883 C24.766007,30.7867843 25.0371079,32.0894896 25.8585295,33.7505125 C26.5511086,35.1616827 27.8734708,36.5477391 29.3520223,37.3867033 C29.7837946,37.6066436 30,38.0563523 30,38.5303342 C30,38.783764 29.9274142,39.0392238 29.8032713,39.2668774 L29.7712057,39.3204539 C29.5111366,39.7178833 29.1151064,39.9357556 28.6709328,39.9357556 C28.4221746,39.9357556 28.1714236,39.8618067 27.9221949,39.7200661 C25.984868,38.5201413 24.4409814,36.80674 23.5172853,34.7207834 Z M62.5172853,34.7207834 C61.6268243,36.8584346 60.1493906,38.476556 58.0394216,39.7995769 C57.8143709,39.926953 57.5797146,40 57.3290672,40 C56.8444003,40 56.4086496,39.7388625 56.1967287,39.305424 C56.0732304,39.0789525 56,38.841571 56,38.5945786 C56,38.0978928 56.2728404,37.6548875 56.707906,37.4335041 C58.2180977,36.6189767 59.417959,35.334846 60.0839321,33.8809918 C60.8737233,32.1823437 61.1457088,30.8087195 61.1457088,28.2126883 C61.1457088,27.4466097 61.7556251,27 62.4747759,27 C63.1656395,27 63.766007,27.4612381 63.766007,28.2126883 C63.766007,30.7867843 64.0371079,32.0894896 64.8585295,33.7505125 C65.5511086,35.1616827 66.8734708,36.5477391 68.3520223,37.3867033 C68.7837946,37.6066436 69,38.0563523 69,38.5303342 C69,38.783764 68.9274142,39.0392238 68.8032713,39.2668774 L68.7712057,39.3204539 C68.5111366,39.7178833 68.1151064,39.9357556 67.6709328,39.9357556 C67.4221746,39.9357556 67.1714236,39.8618067 66.9221949,39.7200661 C64.984868,38.5201413 63.4409814,36.80674 62.5172853,34.7207834 Z M62.5172853,34.7207834" id="人 人" fill="#FFFFFF"></path>
                    </g>
                    <path d="M21.5,49 C28.94375,49 35,42.7198333 35,35 C35,27.2801667 28.944125,21 21.5,21 C14.055875,21 8,27.2801667 8,35 C8,42.7198333 14.055875,49 21.5,49 Z M44.763895,32.0678367 C46.0809945,24.6419295 52.2978564,19.0004 59.7513812,19.0004 C68.1590884,19.0004 75,26.1779103 75,35.0002 C75,43.8224897 68.1594696,51 59.7513812,51 C51.3432928,51 44.5027624,43.8224897 44.5027624,35.0002 C44.5027624,34.6574043 44.5164862,34.3182085 44.5370718,33.9810127 C43.1685083,32.6150298 41.7519116,31.9478382 40.328453,32.0038375 C38.3739613,32.0854364 36.9093315,33.477019 36.4610221,33.9558131 C36.4823702,34.3010087 36.4972376,34.6486044 36.4972376,34.9998 C36.4972376,43.8220897 29.6567072,50.9996 21.2486188,50.9996 C12.8405304,50.9996 6,43.8220897 6,34.9998 C6,26.1775103 12.8405304,19 21.2486188,19 C28.6941381,19 34.9060442,24.6295296 36.2319116,32.043837 C37.127768,31.321846 38.5310221,30.4778565 40.2674586,30.4050574 C41.8212928,30.3370583 43.329,30.8986513 44.763895,32.0678367 Z M59.5,49 C66.94375,49 73,42.7198333 73,35 C73,27.2801667 66.944125,21 59.5,21 C52.055875,21 46,27.2801667 46,35 C46,42.7198333 52.055875,49 59.5,49 Z M59.5,49" id="Shape" stroke="#FFFFFF" fill="#FFFFFF"></path>
                </g>
                <g transform="translate(55.000000, 108.500000) rotate(-354.000000) translate(-55.000000, -108.500000) translate(6.000000, 54.000000)">
                    <path d="M46.5,105 C74.1931367,105 87,92.7078333 87,66.1276596 C87,39.5474858 74.1931367,18 46.5,18 C18.8068633,18 6,39.5474858 6,66.1276596 C6,92.7078333 18.8068633,105 46.5,105 Z M46.5,105" id="Oval 2 copy 2" fill="#40A3A2"></path>
                    <path d="M29.5199446,58.7207834 C28.4924896,60.8584346 26.7877584,62.476556 24.3531788,63.7995769 C24.0935049,63.926953 23.8227476,64 23.5335391,64 C22.974308,64 22.4715188,63.7388625 22.2269947,63.305424 C22.0844966,63.0789525 22,62.841571 22,62.5945786 C22,62.0978928 22.3148158,61.6548875 22.8168146,61.4335041 C24.5593435,60.6189767 25.9437988,59.334846 26.7122293,57.8809918 C27.6235268,56.1823437 27.9373563,54.8087195 27.9373563,52.2126883 C27.9373563,51.4466097 28.6411059,51 29.4708953,51 C30.2680456,51 30.9607773,51.4612381 30.9607773,52.2126883 C30.9607773,54.7867843 31.2735861,56.0894896 32.2213802,57.7505125 C33.0205099,59.1616827 34.5463124,60.5477391 36.2523335,61.3867033 C36.7505323,61.6066436 37,62.0563523 37,62.5303342 C37,62.783764 36.9162471,63.0392238 36.7730053,63.2668774 L36.7360066,63.3204539 C36.4359269,63.7178833 35.978969,63.9357556 35.4664609,63.9357556 C35.1794322,63.9357556 34.8901041,63.8618067 34.6025325,63.7200661 C32.3671554,62.5201413 30.5857478,60.80674 29.5199446,58.7207834 Z M62.5199446,58.7207834 C61.4924896,60.8584346 59.7877584,62.476556 57.3531788,63.7995769 C57.0935049,63.926953 56.8227476,64 56.5335391,64 C55.974308,64 55.4715188,63.7388625 55.2269947,63.305424 C55.0844966,63.0789525 55,62.841571 55,62.5945786 C55,62.0978928 55.3148158,61.6548875 55.8168146,61.4335041 C57.5593435,60.6189767 58.9437988,59.334846 59.7122293,57.8809918 C60.6235268,56.1823437 60.9373563,54.8087195 60.9373563,52.2126883 C60.9373563,51.4466097 61.6411059,51 62.4708953,51 C63.2680456,51 63.9607773,51.4612381 63.9607773,52.2126883 C63.9607773,54.7867843 64.2735861,56.0894896 65.2213802,57.7505125 C66.0205099,59.1616827 67.5463124,60.5477391 69.2523335,61.3867033 C69.7505323,61.6066436 70,62.0563523 70,62.5303342 C70,62.783764 69.9162471,63.0392238 69.7730053,63.2668774 L69.7360066,63.3204539 C69.4359269,63.7178833 68.978969,63.9357556 68.4664609,63.9357556 C68.1794322,63.9357556 67.8901041,63.8618067 67.6025325,63.7200661 C65.3671554,62.5201413 63.5857478,60.80674 62.5199446,58.7207834 Z M62.5199446,58.7207834" id="人 人 copy 3" fill="#FFFFFF"></path>
                    <g id="Group copy" transform="translate(1.000000, 0.000000)" fill="#FFFFFF">
                        <path d="M95.9283525,67.3012475 C97.2872991,42.6367577 79.1055306,4.7004491 59.1941938,3.61769691 C59.1941938,3.61769691 15.5697559,-15.432042 3.90886204,33.895857 C-8.87972016,87.9918638 13.2809076,98.4984502 19.4378547,107 C18.4702214,105.640617 13.3064678,98.125106 9.96722008,88.1134303 C14.9003241,91.9046839 19.4378553,94.2595225 19.4378553,94.2595225 C11.0401373,85.0626124 9.17120478,73.2363936 7.32113864,67.4055245 C5.25624574,53.2546449 14.1304775,50.830339 14.1304775,50.830339 C14.1304775,50.830339 42.6038474,55.3472094 61.6881316,29.2195994 C61.6881316,29.2195994 72.6077819,40.7694964 77.7356297,63.7893267 C76.5044837,70.4673791 72.4459011,90.0185123 66.2353995,95.7099851 C66.2353995,95.7099851 76.2920912,88.0199592 79.5455299,80.8097157 C79.4712839,88.6510244 78.1391145,97.0850372 74.9276675,105.945343 C74.9276675,105.945343 94.8949932,86.070573 95.9283525,67.3012475 Z M95.9283525,67.3012475" id="Shape"></path>
                    </g>
                </g>
                <g transform="translate(136.000000, 72.000000)">
                    <path d="M81.6692661,28.4081633 L77.0955269,28.4081633 C77.2946944,23.9054694 76.701934,20.7142857 76.701934,20.7142857 C75.0422049,9.02906122 55.289688,0 42,0 C28.7031988,0 8.94356883,9.03853061 7.33837368,20.7142857 C7.33837368,20.7142857 7.32414743,20.8018776 7.30043701,20.9368163 C7.28383972,21.0622857 7.25775827,21.1853878 7.24590306,21.3108571 C7.08941431,22.4353469 6.7977762,25.056 6.94478078,28.4081633 L2.37104158,28.4081633 L2.37104158,35.5646531 C1.33489641,36.2062041 9.17317344e-17,37.2667755 9.17317344e-17,38.4693878 L9.17317344e-17,49.7142857 C9.17317344e-17,51.674449 1.5909689,53.2653061 3.55656237,53.2653061 L7.11312473,53.2653061 C7.11312473,55.8788571 9.23757798,58 11.8552079,58 C16.597291,58 16.597291,55.8788571 16.597291,53.2653061 L16.597291,37.877551 C16.597291,35.264 16.597291,33.1428571 11.8552079,33.1428571 C10.3638227,33.1428571 9.0502657,33.8435918 8.18009344,34.9183673 L4.74208315,34.9183673 L4.74208315,30.7755102 L9.48416631,30.7755102 C7.76753221,24.2653061 10.3756779,19.5897959 10.3756779,19.5897959 C14.600874,12.1894694 32.0321412,7.09967347 42,7.09967347 C51.9583746,7.09967347 69.3896418,12.18 73.7736977,19.6300408 C73.6622587,19.5874286 76.2751465,24.2629388 74.5561414,30.7731429 L79.2982246,30.7731429 L79.2982246,34.916 L75.8199066,34.916 C74.9497343,33.8412245 73.6361773,33.1404898 72.1447921,33.1404898 C67.402709,33.1404898 67.402709,35.2616327 67.402709,37.8751837 L67.402709,53.2629388 C67.402709,55.8764898 67.402709,57.9976327 72.1447921,57.9976327 C74.762422,57.9976327 76.8868753,55.8764898 76.8868753,53.2629388 L80.4434376,53.2629388 C82.4066601,53.2629388 84,51.6720816 84,49.7119184 L84,38.4670204 C84,36.942449 83.0255019,35.6498776 81.6692661,35.148 L81.6692661,28.4081633 Z M81.6692661,28.4081633" id="Shape" fill="#FFFFFF"></path>
                    <g transform="translate(8.000000, 8.000000)">
                        <path d="M35,79 C58.9323403,79 70,67.8381475 70,43.7021277 C70,19.5661078 58.9323403,0 35,0 C11.0676597,0 0,19.5661078 0,43.7021277 C0,67.8381475 11.0676597,79 35,79 Z M35,79" id="Oval 2 copy" fill="#40A3A2"></path>
                        <path d="M16.514626,35.5329706 C15.7611591,37.3417523 14.5110228,38.710932 12.7256645,39.8304112 C12.5352369,39.938191 12.3366816,40 12.1245953,40 C11.7144925,40 11.3457804,39.7790375 11.1664628,39.4122819 C11.0619642,39.2206521 11,39.0197909 11,38.8107973 C11,38.3905247 11.2308649,38.0156741 11.5989974,37.8283496 C12.8768519,37.1391341 13.8921192,36.052562 14.4556348,34.8223776 C15.1239197,33.38506 15.3540613,32.2227627 15.3540613,30.0261209 C15.3540613,29.3779005 15.8701443,29 16.4786566,29 C17.0632335,29 17.5712367,29.3902784 17.5712367,30.0261209 C17.5712367,32.2042021 17.8006298,33.3064912 18.4956788,34.7119721 C19.0817073,35.9060392 20.2006291,37.0788561 21.4517112,37.7887489 C21.817057,37.9748522 22,38.355375 22,38.7564367 C22,38.9708772 21.9385812,39.1870355 21.8335372,39.3796655 L21.8064048,39.4249994 C21.5863464,39.7612859 21.2512439,39.9456394 20.8754047,39.9456394 C20.6649169,39.9456394 20.452743,39.8830672 20.2418572,39.7631329 C18.6025806,38.7478119 17.2962151,37.2980108 16.514626,35.5329706 Z M36.514626,35.5329706 C35.7611591,37.3417523 34.5110228,38.710932 32.7256645,39.8304112 C32.5352369,39.938191 32.3366816,40 32.1245953,40 C31.7144925,40 31.3457804,39.7790375 31.1664628,39.4122819 C31.0619642,39.2206521 31,39.0197909 31,38.8107973 C31,38.3905247 31.2308649,38.0156741 31.5989974,37.8283496 C32.8768519,37.1391341 33.8921192,36.052562 34.4556348,34.8223776 C35.1239197,33.38506 35.3540613,32.2227627 35.3540613,30.0261209 C35.3540613,29.3779005 35.8701443,29 36.4786566,29 C37.0632335,29 37.5712367,29.3902784 37.5712367,30.0261209 C37.5712367,32.2042021 37.8006298,33.3064912 38.4956788,34.7119721 C39.0817073,35.9060392 40.2006291,37.0788561 41.4517112,37.7887489 C41.817057,37.9748522 42,38.355375 42,38.7564367 C42,38.9708772 41.9385812,39.1870355 41.8335372,39.3796655 L41.8064048,39.4249994 C41.5863464,39.7612859 41.2512439,39.9456394 40.8754047,39.9456394 C40.6649169,39.9456394 40.452743,39.8830672 40.2418572,39.7631329 C38.6025806,38.7478119 37.2962151,37.2980108 36.514626,35.5329706 Z M36.514626,35.5329706" id="人 人 copy" fill="#FFFFFF"></path>
                    </g>
                </g>
                <g transform="translate(250.000000, 57.500000) scale(-1, 1) translate(-250.000000, -57.500000) translate(216.000000, 21.000000)">
                    <path d="M33,73 C55.564778,73 66,62.6858831 66,40.3829787 C66,18.0800743 55.564778,0 33,0 C10.435222,0 0,18.0800743 0,40.3829787 C0,62.6858831 10.435222,73 33,73 Z M33,73" id="Oval 2" fill="#40A3A2"></path>
                    <path d="M34.0159557,30.5329706 C33.1939917,32.3417523 31.8302067,33.710932 29.882543,34.8304112 C29.6748039,34.938191 29.4581981,35 29.2268312,35 C28.7794464,35 28.377215,34.7790375 28.1815957,34.4122819 C28.0675973,34.2206521 28,34.0197909 28,33.8107973 C28,33.3905247 28.2518527,33.0156741 28.6534517,32.8283496 C30.0474748,32.1391341 31.1550391,31.052562 31.7697834,29.8223776 C32.4988215,28.38506 32.749885,27.2227627 32.749885,25.0261209 C32.749885,24.3779005 33.3128847,24 33.9767162,24 C34.6144365,24 35.1686219,24.3902784 35.1686219,25.0261209 C35.1686219,27.2042021 35.4188688,28.3064912 36.1771042,29.7119721 C36.8164079,30.9060392 38.03705,32.0788561 39.4018668,32.7887489 C39.8004258,32.9748522 40,33.355375 40,33.7564367 C40,33.9708772 39.9329977,34.1870355 39.8184043,34.3796655 L39.7888053,34.4249994 C39.5487415,34.7612859 39.1831752,34.9456394 38.7731688,34.9456394 C38.5435457,34.9456394 38.3120833,34.8830672 38.082026,34.7631329 C36.2937243,33.7478119 34.8685982,32.2980108 34.0159557,30.5329706 Z M53.0159557,30.5329706 C52.1939917,32.3417523 50.8302067,33.710932 48.882543,34.8304112 C48.6748039,34.938191 48.4581981,35 48.2268312,35 C47.7794464,35 47.377215,34.7790375 47.1815957,34.4122819 C47.0675973,34.2206521 47,34.0197909 47,33.8107973 C47,33.3905247 47.2518527,33.0156741 47.6534517,32.8283496 C49.0474748,32.1391341 50.1550391,31.052562 50.7697834,29.8223776 C51.4988215,28.38506 51.749885,27.2227627 51.749885,25.0261209 C51.749885,24.3779005 52.3128847,24 52.9767162,24 C53.6144365,24 54.1686219,24.3902784 54.1686219,25.0261209 C54.1686219,27.2042021 54.4188688,28.3064912 55.1771042,29.7119721 C55.8164079,30.9060392 57.03705,32.0788561 58.4018668,32.7887489 C58.8004258,32.9748522 59,33.355375 59,33.7564367 C59,33.9708772 58.9329977,34.1870355 58.8184043,34.3796655 L58.7888053,34.4249994 C58.5487415,34.7612859 58.1831752,34.9456394 57.7731688,34.9456394 C57.5435457,34.9456394 57.3120833,34.8830672 57.082026,34.7631329 C55.2937243,33.7478119 53.8685982,32.2980108 53.0159557,30.5329706 Z M53.0159557,30.5329706" id="人 人" fill="#FFFFFF"></path>
                    <path d="M50.5080221,48.9702113 C47.5199271,46.2601747 44.4550168,46.6489722 42.9997499,48.3146018 C41.5444831,46.6489722 38.4795727,46.2601747 35.4914778,48.9702113 C32.7422813,51.4638867 28.0190032,51.5893862 24.4143962,50.8363891 C20.8097891,50.083392 17.2573868,47.4576911 19.9397116,50.9046609 C22.4256475,54.0993766 27.1141225,56.7441534 33.8609525,56.9858655 C38.8198974,57.1635728 41.6896617,55.6445266 42.9999985,53.6174584 C44.3103353,55.6445266 47.1798511,57.1635728 52.1392932,56.9858655 C58.8863717,56.7441534 63.5745982,54.0993766 66.0605341,50.9046609 C68.7423617,47.4576911 65.1902079,50.083392 61.5856009,50.8363891 C57.9809939,51.5893862 53.2577157,51.4638867 50.5080221,48.9702113 Z M50.5080221,48.9702113" id="Shape" fill="#FFFFFF"></path>
                </g>
                <g transform="translate(311.000000, 132.500000) rotate(-357.000000) translate(-311.000000, -132.500000) translate(284.000000, 103.000000)">
                    <path d="M27.5,59 C45.6202005,59 54,50.8052222 54,33.0851064 C54,15.3649906 45.6202005,1 27.5,1 C9.37979945,1 1,15.3649906 1,33.0851064 C1,50.8052222 9.37979945,59 27.5,59 Z M27.5,59" id="Oval 2 copy" fill="#40A3A2"></path>
                    <path d="M20.0132964,27.3451577 C19.3283264,28.8250701 18.1918389,29.945308 16.5687859,30.8612455 C16.3956699,30.949429 16.2151651,31 16.0223594,31 C15.6495387,31 15.3143459,30.8192125 15.1513298,30.5191397 C15.0563311,30.3623517 15,30.1980107 15,30.027016 C15,29.6831566 15.2098772,29.3764606 15.5445431,29.2231952 C16.706229,28.6592916 17.6291992,27.770278 18.1414862,26.7637635 C18.7490179,25.5877764 18.9582375,24.6368058 18.9582375,22.8395534 C18.9582375,22.3091913 19.4274039,22 19.9805969,22 C20.5120304,22 20.9738516,22.3193187 20.9738516,22.8395534 C20.9738516,24.6216199 21.1823907,25.5234928 21.8142535,26.6734317 C22.3470066,27.6503957 23.3642083,28.6099732 24.5015556,29.1907946 C24.8336882,29.3430609 25,29.6543978 25,29.9825391 C25,30.1579904 24.9441648,30.3348473 24.8486702,30.4924536 L24.8240044,30.529545 C24.6239513,30.8046884 24.3193127,30.9555231 23.9776406,30.9555231 C23.7862881,30.9555231 23.5934028,30.9043277 23.4016884,30.8061996 C21.911437,29.9754824 20.7238319,28.7892816 20.0132964,27.3451577 Z M37.0132964,27.3451577 C36.3283264,28.8250701 35.1918389,29.945308 33.5687859,30.8612455 C33.3956699,30.949429 33.2151651,31 33.0223594,31 C32.6495387,31 32.3143459,30.8192125 32.1513298,30.5191397 C32.0563311,30.3623517 32,30.1980107 32,30.027016 C32,29.6831566 32.2098772,29.3764606 32.5445431,29.2231952 C33.706229,28.6592916 34.6291992,27.770278 35.1414862,26.7637635 C35.7490179,25.5877764 35.9582375,24.6368058 35.9582375,22.8395534 C35.9582375,22.3091913 36.4274039,22 36.9805969,22 C37.5120304,22 37.9738516,22.3193187 37.9738516,22.8395534 C37.9738516,24.6216199 38.1823907,25.5234928 38.8142535,26.6734317 C39.3470066,27.6503957 40.3642083,28.6099732 41.5015556,29.1907946 C41.8336882,29.3430609 42,29.6543978 42,29.9825391 C42,30.1579904 41.9441648,30.3348473 41.8486702,30.4924536 L41.8240044,30.529545 C41.6239513,30.8046884 41.3193127,30.9555231 40.9776406,30.9555231 C40.7862881,30.9555231 40.5934028,30.9043277 40.4016884,30.8061996 C38.911437,29.9754824 37.7238319,28.7892816 37.0132964,27.3451577 Z M37.0132964,27.3451577" id="人 人 copy" fill="#FFFFFF"></path>
                </g>
            </g>
            <g id="Group" transform="translate(12.000000, 331.000000)">
                <g transform="translate(277.543578, 51.498097) rotate(-5.000000) translate(-277.543578, -51.498097) translate(237.043578, 3.998097)">
                    <path d="M40,94 C67.3512461,94 80,81.9904119 80,56.0212766 C80,30.0521413 67.3512461,9 40,9 C12.6487539,9 2.27373675e-13,30.0521413 2.27373675e-13,56.0212766 C2.27373675e-13,81.9904119 12.6487539,94 40,94 Z M40,94" id="Oval 2 copy 2" fill="#40A3A2"></path>
                    <path d="M29.0928581,1.95270589 C29.0928581,1.95270589 67.297867,-11.6069747 76.964247,32.7374082 C78.1260159,38.0679281 50.7469148,49.844403 28.0533574,29.5304017 C31.6357528,37.0192126 36,38.806146 36,38.806146 C28.8446931,40.6663918 21.2088238,28.6303984 18.7848682,24.4178084 C14.570157,25.4455836 7.66797977,28.6285286 2,38.3903373 C1.99999998,30.4451289 6.99811942,0.120035284 29.0928581,1.95270589 Z M29.0928581,1.95270589" id="Shape" fill="#FFFFFF"></path>
                    <path d="M27.5199446,49.7207834 C26.4924896,51.8584346 24.7877584,53.476556 22.3531788,54.7995769 C22.0935049,54.926953 21.8227476,55 21.5335391,55 C20.974308,55 20.4715188,54.7388625 20.2269947,54.305424 C20.0844966,54.0789525 20,53.841571 20,53.5945786 C20,53.0978928 20.3148158,52.6548875 20.8168146,52.4335041 C22.5593435,51.6189767 23.9437988,50.334846 24.7122293,48.8809918 C25.6235268,47.1823437 25.9373563,45.8087195 25.9373563,43.2126883 C25.9373563,42.4466097 26.6411059,42 27.4708953,42 C28.2680456,42 28.9607773,42.4612381 28.9607773,43.2126883 C28.9607773,45.7867843 29.2735861,47.0894896 30.2213802,48.7505125 C31.0205099,50.1616827 32.5463124,51.5477391 34.2523335,52.3867033 C34.7505323,52.6066436 35,53.0563523 35,53.5303342 C35,53.783764 34.9162471,54.0392238 34.7730053,54.2668774 L34.7360066,54.3204539 C34.4359269,54.7178833 33.978969,54.9357556 33.4664609,54.9357556 C33.1794322,54.9357556 32.8901041,54.8618067 32.6025325,54.7200661 C30.3671554,53.5201413 28.5857478,51.80674 27.5199446,49.7207834 Z M61.5199446,49.7207834 C60.4924896,51.8584346 58.7877584,53.476556 56.3531788,54.7995769 C56.0935049,54.926953 55.8227476,55 55.5335391,55 C54.974308,55 54.4715188,54.7388625 54.2269947,54.305424 C54.0844966,54.0789525 54,53.841571 54,53.5945786 C54,53.0978928 54.3148158,52.6548875 54.8168146,52.4335041 C56.5593435,51.6189767 57.9437988,50.334846 58.7122293,48.8809918 C59.6235268,47.1823437 59.9373563,45.8087195 59.9373563,43.2126883 C59.9373563,42.4466097 60.6411059,42 61.4708953,42 C62.2680456,42 62.9607773,42.4612381 62.9607773,43.2126883 C62.9607773,45.7867843 63.2735861,47.0894896 64.2213802,48.7505125 C65.0205099,50.1616827 66.5463124,51.5477391 68.2523335,52.3867033 C68.7505323,52.6066436 69,53.0563523 69,53.5303342 C69,53.783764 68.9162471,54.0392238 68.7730053,54.2668774 L68.7360066,54.3204539 C68.4359269,54.7178833 67.978969,54.9357556 67.4664609,54.9357556 C67.1794322,54.9357556 66.8901041,54.8618067 66.6025325,54.7200661 C64.3671554,53.5201413 62.5857478,51.80674 61.5199446,49.7207834 Z M61.5199446,49.7207834" id="人 人 copy 2" fill="#FFFFFF"></path>
                </g>
                <g transform="translate(107.000000, 145.000000) rotate(-4.000000) translate(-107.000000, -145.000000) translate(70.000000, 105.000000)">
                    <g transform="translate(37.500000, 40.000000) rotate(-357.000000) translate(-37.500000, -40.000000) translate(3.000000, 2.000000)">
                        <path d="M35,76 C58.2485592,76 69,65.4033046 69,42.4893617 C69,19.5754188 58.2485592,1 35,1 C11.7514408,1 1,19.5754188 1,42.4893617 C1,65.4033046 11.7514408,76 35,76 Z M35,76" id="Oval 2 copy" fill="#40A3A2"></path>
                        <path d="M34.0159557,33.126877 C33.1939917,35.1000935 31.8302067,36.593744 29.882543,37.814994 C29.6748039,37.932572 29.4581981,38 29.2268312,38 C28.7794464,38 28.377215,37.75895 28.1815957,37.3588529 C28.0675973,37.1498023 28,36.930681 28,36.7026879 C28,36.2442087 28.2518527,35.8352808 28.6534517,35.6309269 C30.0474748,34.8790554 31.1550391,33.693704 31.7697834,32.3516847 C32.4988215,30.7837018 32.749885,29.5157411 32.749885,27.1194046 C32.749885,26.4122551 33.3128847,26 33.9767162,26 C34.6144365,26 35.1686219,26.4257583 35.1686219,27.1194046 C35.1686219,29.4954932 35.4188688,30.6979904 36.1771042,32.2312423 C36.8164079,33.5338609 38.03705,34.8132976 39.4018668,35.5877261 C39.8004258,35.7907479 40,36.2058637 40,36.6433854 C40,36.8773206 39.9329977,37.1131297 39.8184043,37.3232714 L39.7888053,37.3727266 C39.5487415,37.7395846 39.1831752,37.9406975 38.7731688,37.9406975 C38.5435457,37.9406975 38.3120833,37.872437 38.082026,37.7415995 C36.2937243,36.6339766 34.8685982,35.0523754 34.0159557,33.126877 Z M54.0159557,33.126877 C53.1939917,35.1000935 51.8302067,36.593744 49.882543,37.814994 C49.6748039,37.932572 49.4581981,38 49.2268312,38 C48.7794464,38 48.377215,37.75895 48.1815957,37.3588529 C48.0675973,37.1498023 48,36.930681 48,36.7026879 C48,36.2442087 48.2518527,35.8352808 48.6534517,35.6309269 C50.0474748,34.8790554 51.1550391,33.693704 51.7697834,32.3516847 C52.4988215,30.7837018 52.749885,29.5157411 52.749885,27.1194046 C52.749885,26.4122551 53.3128847,26 53.9767162,26 C54.6144365,26 55.1686219,26.4257583 55.1686219,27.1194046 C55.1686219,29.4954932 55.4188688,30.6979904 56.1771042,32.2312423 C56.8164079,33.5338609 58.03705,34.8132976 59.4018668,35.5877261 C59.8004258,35.7907479 60,36.2058637 60,36.6433854 C60,36.8773206 59.9329977,37.1131297 59.8184043,37.3232714 L59.7888053,37.3727266 C59.5487415,37.7395846 59.1831752,37.9406975 58.7731688,37.9406975 C58.5435457,37.9406975 58.3120833,37.872437 58.082026,37.7415995 C56.2937243,36.6339766 54.8685982,35.0523754 54.0159557,33.126877 Z M54.0159557,33.126877" id="人 人 copy" fill="#FFFFFF"></path>
                    </g>
                    <g transform="translate(44.000000, 67.500000) rotate(-350.000000) translate(-44.000000, -67.500000) translate(27.000000, 58.000000)" id="Shape" fill="#FFFFFF">
                        <path d="M20,11.8333333 C20,12.475 19.475,13 18.8333333,13 L14.1666667,13 C13.525,13 13,12.475 13,11.8333333 L13,7.16666667 C13,6.525 13.525,6 14.1666667,6 L18.8333333,6 C19.475,6 20,6.525 20,7.16666667 L20,11.8333333 L20,11.8333333 Z M20,11.8333333"></path>
                        <path d="M13.9987461,7.6935996 C13.9987461,7.04176299 13.4946708,6.27022549 12.876489,5.97867675 L2.58056426,1.11360538 C1.96363636,0.822056644 1.53855799,1.11123506 1.63636364,1.75714588 L0.0275862069,7.70663633 C0.12539185,8.35254714 0.205642633,9.41207791 0.205642633,10.0650997 L0.205642633,10.0650997 C0.205642633,10.7169363 0.112852665,11.7752819 0,12.4188224 L1.66520376,17.1914515 C1.5523511,17.834992 1.98369906,18.1620954 2.62445141,17.9203233 L12.8351097,14.0590803 C13.4758621,13.8173082 14,13.086066 14,12.4342294 L14,7.6935996 L13.9987461,7.6935996 Z M13.9987461,7.6935996"></path>
                        <path d="M20.0012539,12.3064004 C20.0012539,12.958237 20.5053292,13.7297745 21.123511,14.0213232 L31.4194357,18.8863946 C32.0363636,19.1779434 32.461442,18.8887649 32.3636364,18.2428541 L33.9724138,12.2933637 C33.8746082,11.6474529 33.7943574,10.5879221 33.7943574,9.93490033 L33.7943574,9.93490033 C33.7943574,9.28306372 33.8871473,8.22471811 34,7.58117761 L32.3347962,2.80854852 C32.4476489,2.16500802 32.0163009,1.83790456 31.3755486,2.07967668 L21.1648903,5.94091969 C20.5241379,6.18269181 20,6.91393396 20,7.56577056 L20,12.3064004 L20.0012539,12.3064004 Z M20.0012539,12.3064004"></path>
                    </g>
                </g>
                <g transform="translate(140.000000, 63.000000)" id="Group copy">
                    <g transform="translate(33.500000, 36.000000) rotate(-357.000000) translate(-33.500000, -36.000000) translate(3.000000, 2.000000)">
                        <path d="M30.5,68 C51.3553252,68 61,58.3923295 61,37.6170213 C61,16.8417131 51.3553252,0 30.5,0 C9.64467484,0 0,16.8417131 0,37.6170213 C0,58.3923295 9.64467484,68 30.5,68 Z M30.5,68" id="Oval 2 copy" fill="#40A3A2"></path>
                        <path d="M31.514626,29.5329706 C30.7611591,31.3417523 29.5110228,32.710932 27.7256645,33.8304112 C27.5352369,33.938191 27.3366816,34 27.1245953,34 C26.7144925,34 26.3457804,33.7790375 26.1664628,33.4122819 C26.0619642,33.2206521 26,33.0197909 26,32.8107973 C26,32.3905247 26.2308649,32.0156741 26.5989974,31.8283496 C27.8768519,31.1391341 28.8921192,30.052562 29.4556348,28.8223776 C30.1239197,27.38506 30.3540613,26.2227627 30.3540613,24.0261209 C30.3540613,23.3779005 30.8701443,23 31.4786566,23 C32.0632335,23 32.5712367,23.3902784 32.5712367,24.0261209 C32.5712367,26.2042021 32.8006298,27.3064912 33.4956788,28.7119721 C34.0817073,29.9060392 35.2006291,31.0788561 36.4517112,31.7887489 C36.817057,31.9748522 37,32.355375 37,32.7564367 C37,32.9708772 36.9385812,33.1870355 36.8335372,33.3796655 L36.8064048,33.4249994 C36.5863464,33.7612859 36.2512439,33.9456394 35.8754047,33.9456394 C35.6649169,33.9456394 35.452743,33.8830672 35.2418572,33.7631329 C33.6025806,32.7478119 32.2962151,31.2980108 31.514626,29.5329706 Z M48.514626,28.5329706 C47.7611591,30.3417523 46.5110228,31.710932 44.7256645,32.8304112 C44.5352369,32.938191 44.3366816,33 44.1245953,33 C43.7144925,33 43.3457804,32.7790375 43.1664628,32.4122819 C43.0619642,32.2206521 43,32.0197909 43,31.8107973 C43,31.3905247 43.2308649,31.0156741 43.5989974,30.8283496 C44.8768519,30.1391341 45.8921192,29.052562 46.4556348,27.8223776 C47.1239197,26.38506 47.3540613,25.2227627 47.3540613,23.0261209 C47.3540613,22.3779005 47.8701443,22 48.4786566,22 C49.0632335,22 49.5712367,22.3902784 49.5712367,23.0261209 C49.5712367,25.2042021 49.8006298,26.3064912 50.4956788,27.7119721 C51.0817073,28.9060392 52.2006291,30.0788561 53.4517112,30.7887489 C53.817057,30.9748522 54,31.355375 54,31.7564367 C54,31.9708772 53.9385812,32.1870355 53.8335372,32.3796655 L53.8064048,32.4249994 C53.5863464,32.7612859 53.2512439,32.9456394 52.8754047,32.9456394 C52.6649169,32.9456394 52.452743,32.8830672 52.2418572,32.7631329 C50.6025806,31.7478119 49.2962151,30.2980108 48.514626,28.5329706 Z M48.514626,28.5329706" id="人 人 copy" fill="#FFFFFF"></path>
                    </g>
                </g>
                <g transform="translate(33.000000, 119.000000) rotate(-357.000000) translate(-33.000000, -119.000000) translate(2.000000, 89.000000)">
                    <path d="M30,60 C48.4620911,60 57,51.5226437 57,33.1914894 C57,14.8603351 48.4620911,0 30,0 C11.5379089,0 3,14.8603351 3,33.1914894 C3,51.5226437 11.5379089,60 30,60 Z M30,60" id="Oval 2 copy" fill="#40A3A2"></path>
                    <path d="M59.2922129,22.1188536 L59.2885832,22.0663845 C59.2120564,20.9075661 58.2353571,20 57.0644673,20 C57.0157685,20 56.9667672,20.0014991 56.9398467,20.0035979 L34.2688676,20.7651499 C33.6744997,20.8035273 33.1309479,21.0694709 32.7380298,21.5135097 C32.3451118,21.9572487 32.1503164,22.5263139 32.1893359,23.1154674 L32.2670726,24.2913757 C30.8529911,23.3961023 29.4307426,23.7819753 28.5396444,24.217619 L28.6125414,23.1154674 C28.651561,22.5263139 28.4567656,21.9572487 28.0638475,21.5135097 C27.6712319,21.0694709 27.1273777,20.8038272 26.5106264,20.7639506 L3.88411151,20.5061023 C2.65514608,20.4230511 1.59284567,21.3605996 1.51329413,22.5676896 L1.50996688,22.6198589 C0.966112621,22.6426455 0,22.9046914 0,24.4937566 C0,26.2315344 1.37536446,26.0561376 1.96428784,25.9017284 L2.4573259,33.5544268 C2.4213311,34.737231 3.3396523,35.7482363 4.51144951,35.8234921 L25.4619374,36.9952028 C25.5112412,36.9985009 25.5602426,37 25.6089414,37 L25.6092439,37 C26.7798312,37 27.7565305,36.0924339 27.8330573,34.9336155 L28.3478737,26.6338977 C29.2631702,26.1475838 30.8877759,25.6162963 32.4630779,26.7493298 L32.9703324,34.9336155 C33.0468592,36.0924339 34.0235585,37 35.1944483,37 C35.2431472,37 35.292451,36.9985009 35.3710951,36.9928042 L56.2622974,35.8258907 C57.46283,35.7479365 58.3820586,34.737231 58.3460638,33.554127 L58.8466638,25.3449559 C59.2286927,25.4735802 61,25.9643915 61,23.9921517 C60.9990926,22.1869136 59.7495587,22.0930688 59.2922129,22.1188536 L59.2922129,22.1188536 Z M26.226377,35.2373182 C26.1991322,35.6647148 25.8512365,35.9993859 25.4341808,35.9993859 L25.4099299,36 L4.6730129,34.8000965 C4.23559847,34.7706209 3.90297189,34.3816041 3.9314143,33.9330219 L3.93590521,33.8596399 L3,22.7003531 C3.05508847,22.3030463 3.38891263,22 3.78560949,22 L26.2569152,22.2671228 C26.468886,22.2815536 26.6622945,22.3794987 26.8027102,22.5431498 C26.9428265,22.7071079 27.0122859,22.9171217 26.9982144,23.1341974 L26.226377,35.2373182 L26.226377,35.2373182 Z M57.0685946,33.0066431 C57.0970368,33.4393763 56.7644134,33.8149449 56.2976628,33.8454524 L35.6196252,34.9982229 C35.1489826,35 34.8013896,34.676857 34.7738457,34.2648571 L34.0017163,22.5893541 C33.9879443,22.3796518 34.057403,22.1773542 34.197518,22.0191889 C34.337633,21.8613197 34.531339,21.7668352 34.7211529,21.7540991 L57.1608071,21.0017771 C57.6107917,21 57.9446127,21.2920431 58,21.6756088 L57.0638044,32.9358538 L57.0685946,33.0066431 Z M57.0685946,33.0066431" id="Shape" fill="#FFFFFF"></path>
                    <path d="M21.0132964,27.3451577 C20.3283264,28.8250701 19.1918389,29.945308 17.5687859,30.8612455 C17.3956699,30.949429 17.2151651,31 17.0223594,31 C16.6495387,31 16.3143459,30.8192125 16.1513298,30.5191397 C16.0563311,30.3623517 16,30.1980107 16,30.027016 C16,29.6831566 16.2098772,29.3764606 16.5445431,29.2231952 C17.706229,28.6592916 18.6291992,27.770278 19.1414862,26.7637635 C19.7490179,25.5877764 19.9582375,24.6368058 19.9582375,22.8395534 C19.9582375,22.3091913 20.4274039,22 20.9805969,22 C21.5120304,22 21.9738516,22.3193187 21.9738516,22.8395534 C21.9738516,24.6216199 22.1823907,25.5234928 22.8142535,26.6734317 C23.3470066,27.6503957 24.3642083,28.6099732 25.5015556,29.1907946 C25.8336882,29.3430609 26,29.6543978 26,29.9825391 C26,30.1579904 25.9441648,30.3348473 25.8486702,30.4924536 L25.8240044,30.529545 C25.6239513,30.8046884 25.3193127,30.9555231 24.9776406,30.9555231 C24.7862881,30.9555231 24.5934028,30.9043277 24.4016884,30.8061996 C22.911437,29.9754824 21.7238319,28.7892816 21.0132964,27.3451577 Z M48.0132964,27.3451577 C47.3283264,28.8250701 46.1918389,29.945308 44.5687859,30.8612455 C44.3956699,30.949429 44.2151651,31 44.0223594,31 C43.6495387,31 43.3143459,30.8192125 43.1513298,30.5191397 C43.0563311,30.3623517 43,30.1980107 43,30.027016 C43,29.6831566 43.2098772,29.3764606 43.5445431,29.2231952 C44.706229,28.6592916 45.6291992,27.770278 46.1414862,26.7637635 C46.7490179,25.5877764 46.9582375,24.6368058 46.9582375,22.8395534 C46.9582375,22.3091913 47.4274039,22 47.9805969,22 C48.5120304,22 48.9738516,22.3193187 48.9738516,22.8395534 C48.9738516,24.6216199 49.1823907,25.5234928 49.8142535,26.6734317 C50.3470066,27.6503957 51.3642083,28.6099732 52.5015556,29.1907946 C52.8336882,29.3430609 53,29.6543978 53,29.9825391 C53,30.1579904 52.9441648,30.3348473 52.8486702,30.4924536 L52.8240044,30.529545 C52.6239513,30.8046884 52.3193127,30.9555231 51.9776406,30.9555231 C51.7862881,30.9555231 51.5934028,30.9043277 51.4016884,30.8061996 C49.911437,29.9754824 48.7238319,28.7892816 48.0132964,27.3451577 Z M48.0132964,27.3451577" id="人 人 copy" fill="#FFFFFF"></path>
                </g>
                <g transform="translate(222.000000, 156.000000) scale(-1, 1) translate(-222.000000, -156.000000) translate(163.000000, 98.000000)">
                    <path d="M60,116 C88.7188084,116 102,102.718808 102,74 C102,45.2811916 88.7188084,22 60,22 C31.2811916,22 18,45.2811916 18,74 C18,102.718808 31.2811916,116 60,116 Z M60,116" id="Oval 2 copy 3" fill="#40A3A2"></path>
                    <path d="M34.0212742,65.9085962 C32.9253223,68.3751168 31.1069423,70.24218 28.5100574,71.7687426 C28.2330719,71.915715 27.9442641,72 27.635775,72 C27.0392619,72 26.5029534,71.6986875 26.2421277,71.1985662 C26.0901297,70.9372529 26,70.6633512 26,70.3783599 C26,69.8052609 26.3358036,69.294101 26.8712689,69.0386586 C28.7299664,68.0988193 30.2067188,66.61713 31.0263779,64.9396059 C31.9984286,62.9796273 32.33318,61.3946763 32.33318,58.3992557 C32.33318,57.5153189 33.0838463,57 33.968955,57 C34.8192487,57 35.5581625,57.5321978 35.5581625,58.3992557 C35.5581625,61.3693665 35.8918251,62.872488 36.9028056,64.7890528 C37.7552106,66.4173262 39.3827333,68.016622 41.202489,68.9846576 C41.7339011,69.2384349 42,69.7573296 42,70.3042318 C42,70.5966507 41.9106636,70.8914121 41.7578723,71.1540893 L41.718407,71.2159083 C41.398322,71.6744807 40.9109002,71.9258719 40.364225,71.9258719 C40.058061,71.9258719 39.7494444,71.8405462 39.4427014,71.6769994 C37.0582991,70.2924707 35.158131,68.3154693 34.0212742,65.9085962 Z M62.0212742,65.9085962 C60.9253223,68.3751168 59.1069423,70.24218 56.5100574,71.7687426 C56.2330719,71.915715 55.9442641,72 55.635775,72 C55.0392619,72 54.5029534,71.6986875 54.2421277,71.1985662 C54.0901297,70.9372529 54,70.6633512 54,70.3783599 C54,69.8052609 54.3358036,69.294101 54.8712689,69.0386586 C56.7299664,68.0988193 58.2067188,66.61713 59.0263779,64.9396059 C59.9984286,62.9796273 60.33318,61.3946763 60.33318,58.3992557 C60.33318,57.5153189 61.0838463,57 61.968955,57 C62.8192487,57 63.5581625,57.5321978 63.5581625,58.3992557 C63.5581625,61.3693665 63.8918251,62.872488 64.9028056,64.7890528 C65.7552106,66.4173262 67.3827333,68.016622 69.202489,68.9846576 C69.7339011,69.2384349 70,69.7573296 70,70.3042318 C70,70.5966507 69.9106636,70.8914121 69.7578723,71.1540893 L69.718407,71.2159083 C69.398322,71.6744807 68.9109002,71.9258719 68.364225,71.9258719 C68.058061,71.9258719 67.7494444,71.8405462 67.4427014,71.6769994 C65.0582991,70.2924707 63.158131,68.3154693 62.0212742,65.9085962 Z M62.0212742,65.9085962" id="人 人 copy 3" fill="#FFFFFF"></path>
                    <g transform="translate(59.000000, 32.500000) rotate(-356.000000) translate(-59.000000, -32.500000) translate(2.000000, 4.000000)" fill="#FFFFFF">
                        <path d="M57,57 C88.4802323,57 114,50.5511473 114,45.3740192 C114,40.1968911 88.4802323,36 57,36 C25.5197677,36 0,40.1968911 0,45.3740192 C0,50.5511473 25.5197677,57 57,57 Z M57,57" id="Oval"></path>
                        <path d="M58,1 C35.9125872,1 18.0077045,21.7447516 18.0077045,40.5489693 C18.0077045,40.5489693 16.4407507,49 57.9999997,49 C99.5592488,49 97.9922955,40.5489693 97.9922955,40.5489693 C97.9922955,21.7447516 80.0874128,1 58,1 Z M58,1" id="Shape"></path>
                    </g>
                </g>
            </g>
        </g>
    </g>
</svg>