<?xml version="1.0" encoding="UTF-8" standalone="no"?>
<svg width="24px" height="24px" viewBox="0 0 24 24" version="1.1" xmlns="http://www.w3.org/2000/svg" xmlns:xlink="http://www.w3.org/1999/xlink" xmlns:sketch="http://www.bohemiancoding.com/sketch/ns">
    <title>icon-close</title>
    <description>Created with Sketch (http://www.bohemiancoding.com/sketch)</description>
    <defs></defs>
    <g id="Page 1" stroke="none" stroke-width="1" fill="none" fill-rule="evenodd">
        <g id="Artboard 1" transform="translate(-1347.000000, -359.000000)" fill="#FFFFFF">
            <path d="M1359,366.795781 L1366.366,359.429783 C1366.92989,358.865894 1367.88342,358.862325 1368.46934,359.448245 L1370.55175,361.53066 C1371.14667,362.125574 1371.14594,363.058278 1370.57022,363.634002 L1363.20422,371 L1370.57022,378.365998 C1371.13411,378.929887 1371.13767,379.88342 1370.55175,380.46934 L1368.46934,382.551755 C1367.87443,383.146668 1366.94172,383.145941 1366.366,382.570217 L1359,375.204219 L1351.634,382.570217 C1351.07011,383.134106 1350.11658,383.137675 1349.53066,382.551755 L1347.44825,380.46934 C1346.85333,379.874426 1346.85406,378.941722 1347.42978,378.365998 L1354.79578,371 L1347.42978,363.634002 C1346.86589,363.070113 1346.86233,362.11658 1347.44825,361.53066 L1349.53066,359.448245 C1350.12557,358.853332 1351.05828,358.854059 1351.634,359.429783 L1359,366.795781 Z M1359,366.795781" id="close"></path>
        </g>
    </g>
</svg>