<?xml version="1.0" encoding="UTF-8" standalone="no"?>
<svg width="251px" height="261px" viewBox="0 0 251 261" version="1.1" xmlns="http://www.w3.org/2000/svg" xmlns:xlink="http://www.w3.org/1999/xlink" xmlns:sketch="http://www.bohemiancoding.com/sketch/ns">
    <!-- Generator: Sketch 3.3 (11970) - http://www.bohemiancoding.com/sketch -->
    <title>info-contact_de</title>
    <desc>Created with Sketch.</desc>
    <defs></defs>
    <g id="Page-1" stroke="none" stroke-width="1" fill="none" fill-rule="evenodd" sketch:type="MSPage">
        <g id="info-contact_de" sketch:type="MSLayerGroup" transform="translate(0.000000, -0.105700)">
            <g id="Group" transform="translate(0.000000, 0.112603)" sketch:type="MSShapeGroup">
                <path d="M57.0557048,115.412037 C23.2310645,105.428755 0,84.7660636 0,60.8954758 C0,27.2638315 46.114668,0 103,0 C159.885332,0 206,27.2638315 206,60.8954758 C206,94.5271201 159.885332,121.790952 103,121.790952 C98.5231299,121.790952 94.1129697,121.622088 89.7867477,121.294547 L101.474447,147.218751 L57.0557085,115.412038 Z" id="Oval-19" fill="#FFFFFF"></path>
                <path d="M72.0245,34.8240969 C71.4725,34.8240969 70.9895,35.1920969 70.8285,35.6980969 L66.9415,48.3480969 L63.0775,35.6520969 C62.9395,35.1690969 62.5485,34.8240969 62.0425,34.8240969 C61.4445,34.8240969 60.9845,35.2610969 61.0305,35.8360969 C61.0305,35.9510969 61.0535,36.0660969 61.0995,36.2270969 L65.6075,50.0730969 C65.8605,50.7860969 66.3895,51.1080969 66.9645,51.1080969 C67.5855,51.1080969 68.1375,50.6710969 68.3215,50.0730969 L72.0245,38.3430969 L75.7275,50.0730969 C75.9115,50.6710969 76.4635,51.1080969 77.0845,51.1080969 C77.6595,51.1080969 78.1885,50.7860969 78.4415,50.0730969 L82.9495,36.2270969 C82.9955,36.0660969 83.0185,35.9510969 83.0185,35.8360969 C83.0645,35.2610969 82.6045,34.8240969 82.0065,34.8240969 C81.5005,34.8240969 81.1095,35.1690969 80.9715,35.6520969 L77.1075,48.3480969 L73.2205,35.6980969 C73.0595,35.1920969 72.5765,34.8240969 72.0245,34.8240969 L72.0245,34.8240969 Z M94.3805,48.4630969 C94.2195,48.4630969 94.1045,48.4860969 93.9665,48.5550969 C93.1155,48.9920969 92.2415,49.2680969 90.8615,49.2680969 C88.3775,49.2680969 87.0665,47.9340969 86.8365,45.8640969 L94.6335,45.8640969 C95.2775,45.8640969 95.6915,45.4040969 95.6915,44.8290969 C95.6915,41.7700969 93.7595,39.0330969 90.2175,39.0330969 C86.3995,39.0330969 84.7205,42.0230969 84.7205,45.1280969 C84.7205,48.9920969 86.9285,51.2230969 90.6775,51.2230969 C92.6785,51.2230969 93.6905,50.7860969 94.7025,50.2110969 C95.0245,50.0270969 95.3005,49.7280969 95.3005,49.3600969 C95.3005,48.8310969 94.8635,48.4630969 94.3805,48.4630969 L94.3805,48.4630969 Z M90.2175,40.8040969 C91.6895,40.8040969 93.4835,41.7700969 93.6215,44.1620969 L86.8365,44.1620969 C86.9745,41.7700969 88.7455,40.8040969 90.2175,40.8040969 L90.2175,40.8040969 Z M99.6475,39.1480969 C99.0725,39.1480969 98.6125,39.6080969 98.6125,40.2060969 L98.6125,50.0730969 C98.6125,50.6480969 99.0725,51.1080969 99.6475,51.1080969 C100.2455,51.1080969 100.7055,50.6480969 100.7055,50.0730969 L100.7055,40.2060969 C100.7055,39.6080969 100.2455,39.1480969 99.6475,39.1480969 L99.6475,39.1480969 Z M100.9125,35.6060969 C100.9125,34.9620969 100.3835,34.4330969 99.7395,34.4330969 L99.6015,34.4330969 C98.9575,34.4330969 98.4285,34.9620969 98.4285,35.6060969 L98.4285,35.6980969 C98.4285,36.3420969 98.9575,36.8710969 99.6015,36.8710969 L99.7395,36.8710969 C100.3835,36.8710969 100.9125,36.3420969 100.9125,35.6980969 L100.9125,35.6060969 L100.9125,35.6060969 Z M110.1585,49.1760969 C109.7675,49.1760969 109.5145,49.3830969 108.7785,49.3830969 C108.2035,49.3830969 107.2835,49.3600969 107.2835,48.0030969 L107.2835,41.0570969 L109.8825,41.0570969 C110.3885,41.0570969 110.7795,40.6660969 110.7795,40.1600969 C110.7795,39.6540969 110.3885,39.2630969 109.8825,39.2630969 L107.2835,39.2630969 L107.2835,37.4230969 C107.2835,37.1700969 107.0995,36.9630969 106.8465,36.9630969 C106.6625,36.9630969 106.5245,37.1010969 106.4555,37.1700969 L103.3275,40.2290969 C103.1895,40.3440969 103.1205,40.4820969 103.1205,40.6200969 C103.1205,40.8730969 103.3045,41.0570969 103.5575,41.0570969 L105.1905,41.0570969 L105.1905,48.1870969 C105.1905,51.0390969 107.4675,51.2230969 108.5485,51.2230969 C109.2845,51.2230969 109.9055,51.0620969 110.4575,50.8090969 C110.7795,50.6480969 110.9865,50.3950969 110.9865,50.0040969 C110.9865,49.5210969 110.5725,49.1760969 110.1585,49.1760969 L110.1585,49.1760969 Z M122.2335,48.4630969 C122.0725,48.4630969 121.9575,48.4860969 121.8195,48.5550969 C120.9685,48.9920969 120.0945,49.2680969 118.7145,49.2680969 C116.2305,49.2680969 114.9195,47.9340969 114.6895,45.8640969 L122.4865,45.8640969 C123.1305,45.8640969 123.5445,45.4040969 123.5445,44.8290969 C123.5445,41.7700969 121.6125,39.0330969 118.0705,39.0330969 C114.2525,39.0330969 112.5735,42.0230969 112.5735,45.1280969 C112.5735,48.9920969 114.7815,51.2230969 118.5305,51.2230969 C120.5315,51.2230969 121.5435,50.7860969 122.5555,50.2110969 C122.8775,50.0270969 123.1535,49.7280969 123.1535,49.3600969 C123.1535,48.8310969 122.7165,48.4630969 122.2335,48.4630969 L122.2335,48.4630969 Z M118.0705,40.8040969 C119.5425,40.8040969 121.3365,41.7700969 121.4745,44.1620969 L114.6895,44.1620969 C114.8275,41.7700969 116.5985,40.8040969 118.0705,40.8040969 L118.0705,40.8040969 Z M132.1925,39.0330969 L132.0775,39.0330969 C130.4905,39.0330969 129.2945,40.0910969 128.4665,41.1950969 L128.4665,40.2060969 C128.4665,39.6310969 127.9835,39.1480969 127.4085,39.1480969 C126.8335,39.1480969 126.3735,39.6310969 126.3735,40.2060969 L126.3735,50.0730969 C126.3735,50.6480969 126.8335,51.1080969 127.4085,51.1080969 C127.9835,51.1080969 128.4665,50.6480969 128.4665,50.0730969 L128.4665,43.0810969 C129.2715,41.8850969 130.5135,41.0570969 132.0315,41.0570969 L132.1465,41.0570969 C132.7445,41.0570969 133.2045,40.6660969 133.2045,40.0680969 C133.2045,39.4930969 132.7675,39.0330969 132.1925,39.0330969 L132.1925,39.0330969 Z M144.2445,48.4630969 C144.0835,48.4630969 143.9685,48.4860969 143.8305,48.5550969 C142.9795,48.9920969 142.1055,49.2680969 140.7255,49.2680969 C138.2415,49.2680969 136.9305,47.9340969 136.7005,45.8640969 L144.4975,45.8640969 C145.1415,45.8640969 145.5555,45.4040969 145.5555,44.8290969 C145.5555,41.7700969 143.6235,39.0330969 140.0815,39.0330969 C136.2635,39.0330969 134.5845,42.0230969 134.5845,45.1280969 C134.5845,48.9920969 136.7925,51.2230969 140.5415,51.2230969 C142.5425,51.2230969 143.5545,50.7860969 144.5665,50.2110969 C144.8885,50.0270969 145.1645,49.7280969 145.1645,49.3600969 C145.1645,48.8310969 144.7275,48.4630969 144.2445,48.4630969 L144.2445,48.4630969 Z M140.0815,40.8040969 C141.5535,40.8040969 143.3475,41.7700969 143.4855,44.1620969 L136.7005,44.1620969 C136.8385,41.7700969 138.6095,40.8040969 140.0815,40.8040969 L140.0815,40.8040969 Z M23.0805,58.8240969 C22.5055,58.8240969 22.0455,59.3070969 22.0455,59.8820969 L22.0455,74.0730969 C22.0455,74.6480969 22.5055,75.1080969 23.0805,75.1080969 C23.6555,75.1080969 24.1385,74.6480969 24.1385,74.0730969 L24.1385,59.8820969 C24.1385,59.3070969 23.6555,58.8240969 23.0805,58.8240969 L23.0805,58.8240969 Z M34.5575,63.0330969 C32.5105,63.0330969 31.2455,64.0910969 30.2795,65.1490969 L30.2795,64.2060969 C30.2795,63.6080969 29.7965,63.1480969 29.2215,63.1480969 C28.6465,63.1480969 28.1865,63.6080969 28.1865,64.2060969 L28.1865,74.0730969 C28.1865,74.6480969 28.6465,75.1080969 29.2215,75.1080969 C29.7965,75.1080969 30.2795,74.6480969 30.2795,74.0730969 L30.2795,67.1730969 C31.1995,66.0230969 32.3955,64.9650969 34.0515,64.9650969 C35.8455,64.9650969 36.5815,66.0230969 36.5815,67.7710969 L36.5815,74.0730969 C36.5815,74.6480969 37.0415,75.1080969 37.6165,75.1080969 C38.1915,75.1080969 38.6745,74.6480969 38.6745,74.0730969 L38.6745,67.5410969 C38.6745,65.0800969 37.1795,63.0330969 34.5575,63.0330969 L34.5575,63.0330969 Z M47.0465,59.9740969 C47.4835,59.9740969 47.8285,60.1120969 48.1965,60.1120969 C48.6795,60.1120969 49.0475,59.6750969 49.0475,59.2380969 C49.0475,58.8700969 48.7945,58.5710969 48.5185,58.4330969 C47.9665,58.1570969 47.2765,57.9730969 46.5175,57.9730969 C44.8845,57.9730969 43.0675,59.0310969 43.0675,61.9290969 L43.0675,63.2630969 L41.7105,63.2630969 C41.2045,63.2630969 40.8135,63.6540969 40.8135,64.1600969 C40.8135,64.6660969 41.2045,65.0570969 41.7105,65.0570969 L43.0675,65.0570969 L43.0675,74.0730969 C43.0675,74.6480969 43.5275,75.1080969 44.1025,75.1080969 C44.7005,75.1080969 45.1605,74.6480969 45.1605,74.0730969 L45.1605,65.0570969 L48.0355,65.0570969 C48.5415,65.0570969 48.9325,64.6660969 48.9325,64.1600969 C48.9325,63.6540969 48.5415,63.2630969 48.0355,63.2630969 L45.1605,63.2630969 L45.1605,61.9980969 C45.1605,60.3650969 45.8965,59.9740969 47.0465,59.9740969 L47.0465,59.9740969 Z M56.1085,63.0330969 C52.5435,63.0330969 50.2205,65.4940969 50.2205,69.1280969 C50.2205,72.7620969 52.5435,75.2230969 56.1085,75.2230969 C59.6505,75.2230969 61.9965,72.7620969 61.9965,69.1280969 C61.9965,65.4940969 59.6505,63.0330969 56.1085,63.0330969 L56.1085,63.0330969 Z M56.1085,73.3140969 C54.3375,73.3140969 52.3135,72.1640969 52.3135,69.1050969 C52.3135,66.0690969 54.3375,64.9420969 56.1085,64.9420969 C57.8565,64.9420969 59.9035,66.0690969 59.9035,69.1050969 C59.9035,72.1640969 57.8565,73.3140969 56.1085,73.3140969 L56.1085,73.3140969 Z M70.7365,63.0330969 L70.6215,63.0330969 C69.0345,63.0330969 67.8385,64.0910969 67.0105,65.1950969 L67.0105,64.2060969 C67.0105,63.6310969 66.5275,63.1480969 65.9525,63.1480969 C65.3775,63.1480969 64.9175,63.6310969 64.9175,64.2060969 L64.9175,74.0730969 C64.9175,74.6480969 65.3775,75.1080969 65.9525,75.1080969 C66.5275,75.1080969 67.0105,74.6480969 67.0105,74.0730969 L67.0105,67.0810969 C67.8155,65.8850969 69.0575,65.0570969 70.5755,65.0570969 L70.6905,65.0570969 C71.2885,65.0570969 71.7485,64.6660969 71.7485,64.0680969 C71.7485,63.4930969 71.3115,63.0330969 70.7365,63.0330969 L70.7365,63.0330969 Z M87.5725,63.0330969 C85.0425,63.0330969 83.8695,64.5280969 83.3405,65.4020969 C82.8575,64.2060969 81.6615,63.0330969 79.8215,63.0330969 C77.6365,63.0330969 76.5555,64.2520969 75.9115,65.1490969 L75.9115,64.2060969 C75.9115,63.6310969 75.4285,63.1480969 74.8535,63.1480969 C74.2785,63.1480969 73.8185,63.6310969 73.8185,64.2060969 L73.8185,74.0730969 C73.8185,74.6480969 74.2785,75.1080969 74.8535,75.1080969 C75.4285,75.1080969 75.9115,74.6480969 75.9115,74.0730969 L75.9115,67.1730969 C76.5325,66.1380969 77.4755,64.9650969 79.2235,64.9650969 C80.9715,64.9650969 81.5695,65.9310969 81.5695,67.8630969 L81.5695,74.0730969 C81.5695,74.6480969 82.0295,75.1080969 82.6045,75.1080969 C83.1795,75.1080969 83.6625,74.6480969 83.6625,74.0730969 L83.6625,67.1730969 C84.2835,66.1380969 85.2265,64.9650969 86.9745,64.9650969 C88.7225,64.9650969 89.3205,65.9310969 89.3205,67.8630969 L89.3205,74.0730969 C89.3205,74.6480969 89.7805,75.1080969 90.3555,75.1080969 C90.9305,75.1080969 91.4135,74.6480969 91.4135,74.0730969 L91.4135,67.4490969 C91.4135,65.4020969 90.2865,63.0330969 87.5725,63.0330969 L87.5725,63.0330969 Z M99.3715,63.0330969 C97.7385,63.0330969 96.4735,63.4010969 95.3925,63.8610969 C95.0015,64.0220969 94.7945,64.3440969 94.7945,64.7350969 C94.7945,65.2410969 95.1855,65.6090969 95.6455,65.6090969 C95.7375,65.6090969 95.8525,65.5860969 95.9445,65.5630969 C96.7955,65.2870969 97.7155,65.0110969 99.0035,65.0110969 C101.0735,65.0110969 102.0855,65.8160969 102.0855,67.8630969 L102.0855,68.0470969 L99.3025,68.0470969 C95.7145,68.0470969 94.0125,69.6110969 94.0125,71.7730969 C94.0125,73.9350969 95.7605,75.2230969 97.7615,75.2230969 C99.9235,75.2230969 101.2575,74.3260969 102.0855,73.4750969 L102.0855,74.0730969 C102.0855,74.6480969 102.5455,75.1080969 103.1205,75.1080969 C103.6955,75.1080969 104.1785,74.6480969 104.1785,74.0730969 L104.1785,67.5640969 C104.1785,65.3100969 102.7295,63.0330969 99.3715,63.0330969 L99.3715,63.0330969 Z M98.5435,73.3830969 C96.6805,73.3830969 96.1055,72.5320969 96.1055,71.5430969 C96.1055,70.2320969 97.4165,69.7260969 99.5785,69.7260969 L102.0855,69.7260969 L102.0855,71.6580969 C101.3035,72.5550969 99.9695,73.3830969 98.5435,73.3830969 L98.5435,73.3830969 Z M113.4475,73.1760969 C113.0565,73.1760969 112.8035,73.3830969 112.0675,73.3830969 C111.4925,73.3830969 110.5725,73.3600969 110.5725,72.0030969 L110.5725,65.0570969 L113.1715,65.0570969 C113.6775,65.0570969 114.0685,64.6660969 114.0685,64.1600969 C114.0685,63.6540969 113.6775,63.2630969 113.1715,63.2630969 L110.5725,63.2630969 L110.5725,61.4230969 C110.5725,61.1700969 110.3885,60.9630969 110.1355,60.9630969 C109.9515,60.9630969 109.8135,61.1010969 109.7445,61.1700969 L106.6165,64.2290969 C106.4785,64.3440969 106.4095,64.4820969 106.4095,64.6200969 C106.4095,64.8730969 106.5935,65.0570969 106.8465,65.0570969 L108.4795,65.0570969 L108.4795,72.1870969 C108.4795,75.0390969 110.7565,75.2230969 111.8375,75.2230969 C112.5735,75.2230969 113.1945,75.0620969 113.7465,74.8090969 C114.0685,74.6480969 114.2755,74.3950969 114.2755,74.0040969 C114.2755,73.5210969 113.8615,73.1760969 113.4475,73.1760969 L113.4475,73.1760969 Z M117.6795,63.1480969 C117.1045,63.1480969 116.6445,63.6080969 116.6445,64.2060969 L116.6445,74.0730969 C116.6445,74.6480969 117.1045,75.1080969 117.6795,75.1080969 C118.2775,75.1080969 118.7375,74.6480969 118.7375,74.0730969 L118.7375,64.2060969 C118.7375,63.6080969 118.2775,63.1480969 117.6795,63.1480969 L117.6795,63.1480969 Z M118.9445,59.6060969 C118.9445,58.9620969 118.4155,58.4330969 117.7715,58.4330969 L117.6335,58.4330969 C116.9895,58.4330969 116.4605,58.9620969 116.4605,59.6060969 L116.4605,59.6980969 C116.4605,60.3420969 116.9895,60.8710969 117.6335,60.8710969 L117.7715,60.8710969 C118.4155,60.8710969 118.9445,60.3420969 118.9445,59.6980969 L118.9445,59.6060969 L118.9445,59.6060969 Z M127.6385,63.0330969 C124.0735,63.0330969 121.7505,65.4940969 121.7505,69.1280969 C121.7505,72.7620969 124.0735,75.2230969 127.6385,75.2230969 C131.1805,75.2230969 133.5265,72.7620969 133.5265,69.1280969 C133.5265,65.4940969 131.1805,63.0330969 127.6385,63.0330969 L127.6385,63.0330969 Z M127.6385,73.3140969 C125.8675,73.3140969 123.8435,72.1640969 123.8435,69.1050969 C123.8435,66.0690969 125.8675,64.9420969 127.6385,64.9420969 C129.3865,64.9420969 131.4335,66.0690969 131.4335,69.1050969 C131.4335,72.1640969 129.3865,73.3140969 127.6385,73.3140969 L127.6385,73.3140969 Z M142.8185,63.0330969 C140.7715,63.0330969 139.5065,64.0910969 138.5405,65.1490969 L138.5405,64.2060969 C138.5405,63.6080969 138.0575,63.1480969 137.4825,63.1480969 C136.9075,63.1480969 136.4475,63.6080969 136.4475,64.2060969 L136.4475,74.0730969 C136.4475,74.6480969 136.9075,75.1080969 137.4825,75.1080969 C138.0575,75.1080969 138.5405,74.6480969 138.5405,74.0730969 L138.5405,67.1730969 C139.4605,66.0230969 140.6565,64.9650969 142.3125,64.9650969 C144.1065,64.9650969 144.8425,66.0230969 144.8425,67.7710969 L144.8425,74.0730969 C144.8425,74.6480969 145.3025,75.1080969 145.8775,75.1080969 C146.4525,75.1080969 146.9355,74.6480969 146.9355,74.0730969 L146.9355,67.5410969 C146.9355,65.0800969 145.4405,63.0330969 142.8185,63.0330969 L142.8185,63.0330969 Z M159.4245,72.4630969 C159.2635,72.4630969 159.1485,72.4860969 159.0105,72.5550969 C158.1595,72.9920969 157.2855,73.2680969 155.9055,73.2680969 C153.4215,73.2680969 152.1105,71.9340969 151.8805,69.8640969 L159.6775,69.8640969 C160.3215,69.8640969 160.7355,69.4040969 160.7355,68.8290969 C160.7355,65.7700969 158.8035,63.0330969 155.2615,63.0330969 C151.4435,63.0330969 149.7645,66.0230969 149.7645,69.1280969 C149.7645,72.9920969 151.9725,75.2230969 155.7215,75.2230969 C157.7225,75.2230969 158.7345,74.7860969 159.7465,74.2110969 C160.0685,74.0270969 160.3445,73.7280969 160.3445,73.3600969 C160.3445,72.8310969 159.9075,72.4630969 159.4245,72.4630969 L159.4245,72.4630969 Z M155.2615,64.8040969 C156.7335,64.8040969 158.5275,65.7700969 158.6655,68.1620969 L151.8805,68.1620969 C152.0185,65.7700969 153.7895,64.8040969 155.2615,64.8040969 L155.2615,64.8040969 Z M169.9355,63.0330969 C167.8885,63.0330969 166.6235,64.0910969 165.6575,65.1490969 L165.6575,64.2060969 C165.6575,63.6080969 165.1745,63.1480969 164.5995,63.1480969 C164.0245,63.1480969 163.5645,63.6080969 163.5645,64.2060969 L163.5645,74.0730969 C163.5645,74.6480969 164.0245,75.1080969 164.5995,75.1080969 C165.1745,75.1080969 165.6575,74.6480969 165.6575,74.0730969 L165.6575,67.1730969 C166.5775,66.0230969 167.7735,64.9650969 169.4295,64.9650969 C171.2235,64.9650969 171.9595,66.0230969 171.9595,67.7710969 L171.9595,74.0730969 C171.9595,74.6480969 172.4195,75.1080969 172.9945,75.1080969 C173.5695,75.1080969 174.0525,74.6480969 174.0525,74.0730969 L174.0525,67.5410969 C174.0525,65.0800969 172.5575,63.0330969 169.9355,63.0330969 L169.9355,63.0330969 Z M180.9755,58.7090969 C179.4575,58.7090969 178.2155,59.0080969 176.9275,59.8130969 C176.6285,59.9970969 176.3525,60.2500969 176.3525,60.6870969 C176.3525,61.1930969 176.7665,61.6070969 177.2725,61.6070969 C177.4565,61.6070969 177.7095,61.5150969 177.8475,61.4230969 C178.6525,60.9170969 179.7565,60.6640969 180.7915,60.6640969 C183.1145,60.6640969 184.0805,61.6070969 184.0805,63.1710969 C184.0805,65.4250969 179.8255,65.9080969 179.8255,69.8180969 C179.8255,70.3010969 180.2625,70.7150969 180.8375,70.7150969 C181.3665,70.7150969 181.8495,70.3240969 181.8495,69.8180969 C181.8495,66.8740969 186.1505,66.7360969 186.1505,63.0560969 C186.1505,60.3880969 184.1035,58.7090969 180.9755,58.7090969 L180.9755,58.7090969 Z M180.7915,72.3480969 C180.0555,72.3480969 179.4345,72.9690969 179.4345,73.7050969 C179.4345,74.4640969 180.0555,75.0850969 180.7915,75.0850969 C181.5505,75.0850969 182.1715,74.4640969 182.1715,73.7050969 C182.1715,72.9690969 181.5505,72.3480969 180.7915,72.3480969 L180.7915,72.3480969 Z" id="Weitere-Informatione" fill="#474E5D"></path>
            </g>
            <g id="Group" transform="translate(120.000000, 85.112603)" sketch:type="MSShapeGroup">
                <path d="M63,138 C104.026869,138 123,118.925948 123,77.6808511 C123,36.4357539 104.026869,3 63,3 C21.9731308,3 3,36.4357539 3,77.6808511 C3,118.925948 21.9731308,138 63,138 Z" id="Oval-2-copy" fill="#6F4073" transform="translate(63.000000, 70.500000) rotate(-357.000000) translate(-63.000000, -70.500000) "></path>
                <path d="M41.0313078,68.5505386 C39.5243738,72.0036675 37.0241014,74.6175559 33.4533846,76.7547435 C33.0725295,76.9605049 32.6754188,77.0785039 32.2512463,77.0785039 C31.4310408,77.0785039 30.6936166,76.6566665 30.3349812,75.9564966 C30.1259841,75.5906579 30.0020557,75.2071956 30.0020557,74.8082078 C30.0020557,74.0058692 30.4637856,73.2902453 31.2000504,72.932626 C33.7557595,71.6168509 35.786294,69.5424859 36.9133253,67.1939522 C38.2498951,64.4499822 38.7101782,62.2310508 38.7101782,58.0374619 C38.7101782,56.7999504 39.7423444,56.0785039 40.9593688,56.0785039 C42.1285226,56.0785039 43.1445291,56.8235809 43.1445291,58.0374619 C43.1445291,62.1956171 43.6033153,64.2999871 44.9934133,66.9831779 C46.1654702,69.2627606 48.4033139,71.5017747 50.9054781,72.8570246 C51.6361697,73.2123128 52.0020557,73.9387654 52.0020557,74.7044285 C52.0020557,75.1138149 51.8792182,75.5264809 51.6691302,75.894229 L51.6148654,75.9807755 C51.1747485,76.622777 50.5045435,76.9747246 49.7528651,76.9747246 C49.3318896,76.9747246 48.9075418,76.8552686 48.4857701,76.626303 C45.207217,74.6879629 42.5944858,71.9201609 41.0313078,68.5505386 Z M86.0271964,66.3935308 C84.5202624,69.8466596 82.01999,72.460548 78.4492732,74.5977356 C78.0684181,74.803497 77.6713074,74.9214961 77.2471349,74.9214961 C76.4269294,74.9214961 75.6895052,74.4996586 75.3308698,73.7994887 C75.1218727,73.4336501 74.9979443,73.0501877 74.9979443,72.6512 C74.9979443,71.8488614 75.4596742,71.1332374 76.195939,70.7756181 C78.7516481,69.459843 80.7821826,67.3854781 81.9092139,65.0369443 C83.2457837,62.2929743 83.7060668,60.0740429 83.7060668,55.8804541 C83.7060668,54.6429425 84.738233,53.9214961 85.9552574,53.9214961 C87.1244112,53.9214961 88.1404177,54.666573 88.1404177,55.8804541 C88.1404177,60.0386092 88.5992039,62.1429793 89.9893019,64.82617 C91.1613589,67.1057527 93.3992025,69.3447669 95.9013667,70.7000167 C96.6320583,71.0553049 96.9979443,71.7817575 96.9979443,72.5474206 C96.9979443,72.9568071 96.8751068,73.369473 96.6650188,73.7372211 L96.610754,73.8237677 C96.1706371,74.4657691 95.5004321,74.8177167 94.7487537,74.8177167 C94.3277782,74.8177167 93.9034304,74.6982608 93.4816587,74.4692952 C90.2031056,72.5309551 87.5903744,69.7631531 86.0271964,66.3935308 Z" id="人-人-copy" fill="#FFFFFF" transform="translate(63.500000, 65.500000) rotate(-357.000000) translate(-63.500000, -65.500000) "></path>
                <path d="M122.556429,51.3623457 L122.54911,51.254321 C122.394802,48.8685185 120.425392,47 118.064418,47 C117.966222,47 117.867416,47.0030864 117.813133,47.0074074 L72.09952,48.5753086 C70.9010403,48.654321 69.8050261,49.2018519 69.0127487,50.1160494 C68.2204713,51.0296296 67.8276871,52.2012346 67.9063659,53.4141975 L68.0631136,55.8351852 C65.2117688,53.9919753 62.3439564,54.7864198 60.5471518,55.6833333 L60.6941409,53.4141975 C60.7728197,52.2012346 60.3800355,51.0296296 59.5877581,50.1160494 C58.7960906,49.2018519 57.6994664,48.6549383 56.4558532,48.5728395 L10.831897,48.0419753 C8.35381915,47.8709877 6.21180356,49.8012346 6.05139635,52.2864198 L6.04468731,52.3938272 C4.94806315,52.4407407 3,52.9802469 3,56.2518519 C3,59.8296296 5.77327588,59.4685185 6.96077712,59.1506173 L7.95493584,74.9061728 C7.88235615,77.341358 9.734053,79.4228395 12.0968572,79.5777778 L54.3412837,81.9901235 C54.4406996,81.9969136 54.5395055,82 54.6377016,82 L54.6383115,82 C56.998676,82 58.9680862,80.1314815 59.1223942,77.745679 L60.1604667,60.6580247 C62.0060644,59.6567901 65.2819089,58.562963 68.4583375,60.895679 L69.4811621,77.745679 C69.6354702,80.1314815 71.6048803,82 73.9658548,82 C74.0640508,82 74.1634667,81.9969136 74.3220442,81.9851852 L116.446928,79.582716 C118.867674,79.4222222 120.7212,77.341358 120.648621,74.9055556 L121.658027,58.004321 C122.428348,58.2691358 126,59.2796296 126,55.2191358 C125.99817,51.5024691 123.478618,51.3092593 122.556429,51.3623457 L122.556429,51.3623457 Z M55.452754,78.4201592 C55.3982643,79.3054806 54.702473,79.998728 53.8683617,79.998728 L53.8198599,80 L12.3460258,77.5144856 C11.4711969,77.453429 10.8059438,76.6476084 10.8628286,75.7184025 L10.8718104,75.5663969 L9,52.4507314 C9.11017694,51.6277387 9.77782525,51 10.571219,51 L55.5138304,51.5533259 C55.9377721,51.5832182 56.3245889,51.7861043 56.6054204,52.1250959 C56.885653,52.4647236 57.0245718,52.8997522 56.9964288,53.349409 L55.452754,78.4201592 L55.452754,78.4201592 Z M117.137189,75.728521 C117.194074,76.6558064 116.528827,77.4605962 115.595326,77.5259695 L74.2392504,79.9961918 C73.2979652,80 72.6027793,79.3075507 72.5476913,78.4246938 L71.0034326,53.4057588 C70.9758886,52.9563966 71.1148061,52.5229018 71.395036,52.1839761 C71.675266,51.8456852 72.0626779,51.6432183 72.4423057,51.6159265 L117.321614,50.0038082 C118.221583,50 118.889225,50.6258066 119,51.4477331 L117.127609,75.5768295 L117.137189,75.728521 Z" id="Shape" fill="#FFFFFF"></path>
            </g>
            <path d="M134.830607,112.608533 C134.830607,112.608533 141.414591,98.037243 148.463419,94.006969 C155.512247,89.9766955 173.677286,87.1290374 182.376505,87.1290393 C191.075724,87.1290412 234.794475,92.7921255 242.487833,82.1534534 C250.181193,71.5147815 249.899942,105.989391 230.083536,119.379039 C210.26713,132.768688 134.830607,112.608533 134.830607,112.608533 Z" id="Path-145" fill="#855689" sketch:type="MSShapeGroup"></path>
            <ellipse id="Oval-31" opacity="0.49921875" fill="#6F4073" sketch:type="MSShapeGroup" cx="187" cy="257.112603" rx="64" ry="4"></ellipse>
            <path d="M122.498047,178.556641 C132.445312,202.052734 151.80957,194.015625 151.80957,194.015625 C151.80957,194.015625 165.632812,187.001953 182.119141,187.001953 C198.605469,187.001953 215.777344,194.015625 215.777344,194.015625 C215.777344,194.015625 234.666016,202.052734 241.433594,178.556641 C241.433594,178.556641 239.433594,225.548832 182.119141,225.548828 C124.804687,225.548825 122.498047,178.556641 122.498047,178.556641 Z M198.262421,200.738858 C189.11928,200.738858 174.186059,200.738858 165.707799,200.738858 C161.825828,200.738858 162.011465,203.61614 166.201211,206.552657 C170.567089,209.612621 176.535034,212.736904 182.703205,212.736904 C188.267264,212.736904 194.031212,209.823535 198.446985,206.868028 C202.992374,203.825768 202.945277,200.738858 198.262421,200.738858 Z" id="Path-142" fill="#855689" sketch:type="MSShapeGroup"></path>
        </g>
    </g>
</svg>