<?xml version="1.0" encoding="UTF-8" standalone="no"?>
<svg width="251px" height="261px" viewBox="0 0 251 261" version="1.1" xmlns="http://www.w3.org/2000/svg" xmlns:xlink="http://www.w3.org/1999/xlink" xmlns:sketch="http://www.bohemiancoding.com/sketch/ns">
    <!-- Generator: Sketch 3.3 (11970) - http://www.bohemiancoding.com/sketch -->
    <title>info-contact_en</title>
    <desc>Created with Sketch.</desc>
    <defs></defs>
    <g id="Page-1" stroke="none" stroke-width="1" fill="none" fill-rule="evenodd" sketch:type="MSPage">
        <g id="info-contact_en" sketch:type="MSLayerGroup" transform="translate(0.000000, -0.105700)">
            <g id="Group" transform="translate(0.000000, 0.112603)" sketch:type="MSShapeGroup">
                <path d="M57.0557048,115.412037 C23.2310645,105.428755 0,84.7660636 0,60.8954758 C0,27.2638315 46.114668,0 103,0 C159.885332,0 206,27.2638315 206,60.8954758 C206,94.5271201 159.885332,121.790952 103,121.790952 C98.5231299,121.790952 94.1129697,121.622088 89.7867477,121.294547 L101.474447,147.218751 L57.0557085,115.412038 Z" id="Oval-19" fill="#FFFFFF"></path>
                <path d="M92.8855,34.8240969 L92.1265,34.8240969 C91.5055,34.8240969 90.9535,35.2380969 90.7235,35.7900969 L85.5025,48.8080969 L80.2815,35.7900969 C80.0515,35.2380969 79.4995,34.8240969 78.8785,34.8240969 L78.1195,34.8240969 C77.2915,34.8240969 76.6245,35.5140969 76.6245,36.3420969 L76.6245,50.0730969 C76.6245,50.6480969 77.0845,51.1080969 77.6595,51.1080969 C78.2345,51.1080969 78.7175,50.6480969 78.7175,50.0730969 L78.7175,37.0090969 L84.0305,50.1420969 C84.2835,50.7170969 84.8355,51.1080969 85.5025,51.1080969 C86.1695,51.1080969 86.7215,50.7170969 86.9745,50.1420969 L92.2875,37.0090969 L92.2875,50.0730969 C92.2875,50.6480969 92.7705,51.1080969 93.3455,51.1080969 C93.9205,51.1080969 94.3805,50.6480969 94.3805,50.0730969 L94.3805,36.3420969 C94.3805,35.5140969 93.7135,34.8240969 92.8855,34.8240969 L92.8855,34.8240969 Z M103.6035,39.0330969 C100.0385,39.0330969 97.7155,41.4940969 97.7155,45.1280969 C97.7155,48.7620969 100.0385,51.2230969 103.6035,51.2230969 C107.1455,51.2230969 109.4915,48.7620969 109.4915,45.1280969 C109.4915,41.4940969 107.1455,39.0330969 103.6035,39.0330969 L103.6035,39.0330969 Z M103.6035,49.3140969 C101.8325,49.3140969 99.8085,48.1640969 99.8085,45.1050969 C99.8085,42.0690969 101.8325,40.9420969 103.6035,40.9420969 C105.3515,40.9420969 107.3985,42.0690969 107.3985,45.1050969 C107.3985,48.1640969 105.3515,49.3140969 103.6035,49.3140969 L103.6035,49.3140969 Z M118.2315,39.0330969 L118.1165,39.0330969 C116.5295,39.0330969 115.3335,40.0910969 114.5055,41.1950969 L114.5055,40.2060969 C114.5055,39.6310969 114.0225,39.1480969 113.4475,39.1480969 C112.8725,39.1480969 112.4125,39.6310969 112.4125,40.2060969 L112.4125,50.0730969 C112.4125,50.6480969 112.8725,51.1080969 113.4475,51.1080969 C114.0225,51.1080969 114.5055,50.6480969 114.5055,50.0730969 L114.5055,43.0810969 C115.3105,41.8850969 116.5525,41.0570969 118.0705,41.0570969 L118.1855,41.0570969 C118.7835,41.0570969 119.2435,40.6660969 119.2435,40.0680969 C119.2435,39.4930969 118.8065,39.0330969 118.2315,39.0330969 L118.2315,39.0330969 Z M130.2835,48.4630969 C130.1225,48.4630969 130.0075,48.4860969 129.8695,48.5550969 C129.0185,48.9920969 128.1445,49.2680969 126.7645,49.2680969 C124.2805,49.2680969 122.9695,47.9340969 122.7395,45.8640969 L130.5365,45.8640969 C131.1805,45.8640969 131.5945,45.4040969 131.5945,44.8290969 C131.5945,41.7700969 129.6625,39.0330969 126.1205,39.0330969 C122.3025,39.0330969 120.6235,42.0230969 120.6235,45.1280969 C120.6235,48.9920969 122.8315,51.2230969 126.5805,51.2230969 C128.5815,51.2230969 129.5935,50.7860969 130.6055,50.2110969 C130.9275,50.0270969 131.2035,49.7280969 131.2035,49.3600969 C131.2035,48.8310969 130.7665,48.4630969 130.2835,48.4630969 L130.2835,48.4630969 Z M126.1205,40.8040969 C127.5925,40.8040969 129.3865,41.7700969 129.5245,44.1620969 L122.7395,44.1620969 C122.8775,41.7700969 124.6485,40.8040969 126.1205,40.8040969 L126.1205,40.8040969 Z M31.119,58.8240969 C30.544,58.8240969 30.084,59.3070969 30.084,59.8820969 L30.084,74.0730969 C30.084,74.6480969 30.544,75.1080969 31.119,75.1080969 C31.694,75.1080969 32.177,74.6480969 32.177,74.0730969 L32.177,59.8820969 C32.177,59.3070969 31.694,58.8240969 31.119,58.8240969 L31.119,58.8240969 Z M42.596,63.0330969 C40.549,63.0330969 39.284,64.0910969 38.318,65.1490969 L38.318,64.2060969 C38.318,63.6080969 37.835,63.1480969 37.26,63.1480969 C36.685,63.1480969 36.225,63.6080969 36.225,64.2060969 L36.225,74.0730969 C36.225,74.6480969 36.685,75.1080969 37.26,75.1080969 C37.835,75.1080969 38.318,74.6480969 38.318,74.0730969 L38.318,67.1730969 C39.238,66.0230969 40.434,64.9650969 42.09,64.9650969 C43.884,64.9650969 44.62,66.0230969 44.62,67.7710969 L44.62,74.0730969 C44.62,74.6480969 45.08,75.1080969 45.655,75.1080969 C46.23,75.1080969 46.713,74.6480969 46.713,74.0730969 L46.713,67.5410969 C46.713,65.0800969 45.218,63.0330969 42.596,63.0330969 L42.596,63.0330969 Z M55.085,59.9740969 C55.522,59.9740969 55.867,60.1120969 56.235,60.1120969 C56.718,60.1120969 57.086,59.6750969 57.086,59.2380969 C57.086,58.8700969 56.833,58.5710969 56.557,58.4330969 C56.005,58.1570969 55.315,57.9730969 54.556,57.9730969 C52.923,57.9730969 51.106,59.0310969 51.106,61.9290969 L51.106,63.2630969 L49.749,63.2630969 C49.243,63.2630969 48.852,63.6540969 48.852,64.1600969 C48.852,64.6660969 49.243,65.0570969 49.749,65.0570969 L51.106,65.0570969 L51.106,74.0730969 C51.106,74.6480969 51.566,75.1080969 52.141,75.1080969 C52.739,75.1080969 53.199,74.6480969 53.199,74.0730969 L53.199,65.0570969 L56.074,65.0570969 C56.58,65.0570969 56.971,64.6660969 56.971,64.1600969 C56.971,63.6540969 56.58,63.2630969 56.074,63.2630969 L53.199,63.2630969 L53.199,61.9980969 C53.199,60.3650969 53.935,59.9740969 55.085,59.9740969 L55.085,59.9740969 Z M64.147,63.0330969 C60.582,63.0330969 58.259,65.4940969 58.259,69.1280969 C58.259,72.7620969 60.582,75.2230969 64.147,75.2230969 C67.689,75.2230969 70.035,72.7620969 70.035,69.1280969 C70.035,65.4940969 67.689,63.0330969 64.147,63.0330969 L64.147,63.0330969 Z M64.147,73.3140969 C62.376,73.3140969 60.352,72.1640969 60.352,69.1050969 C60.352,66.0690969 62.376,64.9420969 64.147,64.9420969 C65.895,64.9420969 67.942,66.0690969 67.942,69.1050969 C67.942,72.1640969 65.895,73.3140969 64.147,73.3140969 L64.147,73.3140969 Z M78.775,63.0330969 L78.66,63.0330969 C77.073,63.0330969 75.877,64.0910969 75.049,65.1950969 L75.049,64.2060969 C75.049,63.6310969 74.566,63.1480969 73.991,63.1480969 C73.416,63.1480969 72.956,63.6310969 72.956,64.2060969 L72.956,74.0730969 C72.956,74.6480969 73.416,75.1080969 73.991,75.1080969 C74.566,75.1080969 75.049,74.6480969 75.049,74.0730969 L75.049,67.0810969 C75.854,65.8850969 77.096,65.0570969 78.614,65.0570969 L78.729,65.0570969 C79.327,65.0570969 79.787,64.6660969 79.787,64.0680969 C79.787,63.4930969 79.35,63.0330969 78.775,63.0330969 L78.775,63.0330969 Z M95.611,63.0330969 C93.081,63.0330969 91.908,64.5280969 91.379,65.4020969 C90.896,64.2060969 89.7,63.0330969 87.86,63.0330969 C85.675,63.0330969 84.594,64.2520969 83.95,65.1490969 L83.95,64.2060969 C83.95,63.6310969 83.467,63.1480969 82.892,63.1480969 C82.317,63.1480969 81.857,63.6310969 81.857,64.2060969 L81.857,74.0730969 C81.857,74.6480969 82.317,75.1080969 82.892,75.1080969 C83.467,75.1080969 83.95,74.6480969 83.95,74.0730969 L83.95,67.1730969 C84.571,66.1380969 85.514,64.9650969 87.262,64.9650969 C89.01,64.9650969 89.608,65.9310969 89.608,67.8630969 L89.608,74.0730969 C89.608,74.6480969 90.068,75.1080969 90.643,75.1080969 C91.218,75.1080969 91.701,74.6480969 91.701,74.0730969 L91.701,67.1730969 C92.322,66.1380969 93.265,64.9650969 95.013,64.9650969 C96.761,64.9650969 97.359,65.9310969 97.359,67.8630969 L97.359,74.0730969 C97.359,74.6480969 97.819,75.1080969 98.394,75.1080969 C98.969,75.1080969 99.452,74.6480969 99.452,74.0730969 L99.452,67.4490969 C99.452,65.4020969 98.325,63.0330969 95.611,63.0330969 L95.611,63.0330969 Z M107.41,63.0330969 C105.777,63.0330969 104.512,63.4010969 103.431,63.8610969 C103.04,64.0220969 102.833,64.3440969 102.833,64.7350969 C102.833,65.2410969 103.224,65.6090969 103.684,65.6090969 C103.776,65.6090969 103.891,65.5860969 103.983,65.5630969 C104.834,65.2870969 105.754,65.0110969 107.042,65.0110969 C109.112,65.0110969 110.124,65.8160969 110.124,67.8630969 L110.124,68.0470969 L107.341,68.0470969 C103.753,68.0470969 102.051,69.6110969 102.051,71.7730969 C102.051,73.9350969 103.799,75.2230969 105.8,75.2230969 C107.962,75.2230969 109.296,74.3260969 110.124,73.4750969 L110.124,74.0730969 C110.124,74.6480969 110.584,75.1080969 111.159,75.1080969 C111.734,75.1080969 112.217,74.6480969 112.217,74.0730969 L112.217,67.5640969 C112.217,65.3100969 110.768,63.0330969 107.41,63.0330969 L107.41,63.0330969 Z M106.582,73.3830969 C104.719,73.3830969 104.144,72.5320969 104.144,71.5430969 C104.144,70.2320969 105.455,69.7260969 107.617,69.7260969 L110.124,69.7260969 L110.124,71.6580969 C109.342,72.5550969 108.008,73.3830969 106.582,73.3830969 L106.582,73.3830969 Z M121.486,73.1760969 C121.095,73.1760969 120.842,73.3830969 120.106,73.3830969 C119.531,73.3830969 118.611,73.3600969 118.611,72.0030969 L118.611,65.0570969 L121.21,65.0570969 C121.716,65.0570969 122.107,64.6660969 122.107,64.1600969 C122.107,63.6540969 121.716,63.2630969 121.21,63.2630969 L118.611,63.2630969 L118.611,61.4230969 C118.611,61.1700969 118.427,60.9630969 118.174,60.9630969 C117.99,60.9630969 117.852,61.1010969 117.783,61.1700969 L114.655,64.2290969 C114.517,64.3440969 114.448,64.4820969 114.448,64.6200969 C114.448,64.8730969 114.632,65.0570969 114.885,65.0570969 L116.518,65.0570969 L116.518,72.1870969 C116.518,75.0390969 118.795,75.2230969 119.876,75.2230969 C120.612,75.2230969 121.233,75.0620969 121.785,74.8090969 C122.107,74.6480969 122.314,74.3950969 122.314,74.0040969 C122.314,73.5210969 121.9,73.1760969 121.486,73.1760969 L121.486,73.1760969 Z M125.718,63.1480969 C125.143,63.1480969 124.683,63.6080969 124.683,64.2060969 L124.683,74.0730969 C124.683,74.6480969 125.143,75.1080969 125.718,75.1080969 C126.316,75.1080969 126.776,74.6480969 126.776,74.0730969 L126.776,64.2060969 C126.776,63.6080969 126.316,63.1480969 125.718,63.1480969 L125.718,63.1480969 Z M126.983,59.6060969 C126.983,58.9620969 126.454,58.4330969 125.81,58.4330969 L125.672,58.4330969 C125.028,58.4330969 124.499,58.9620969 124.499,59.6060969 L124.499,59.6980969 C124.499,60.3420969 125.028,60.8710969 125.672,60.8710969 L125.81,60.8710969 C126.454,60.8710969 126.983,60.3420969 126.983,59.6980969 L126.983,59.6060969 L126.983,59.6060969 Z M135.677,63.0330969 C132.112,63.0330969 129.789,65.4940969 129.789,69.1280969 C129.789,72.7620969 132.112,75.2230969 135.677,75.2230969 C139.219,75.2230969 141.565,72.7620969 141.565,69.1280969 C141.565,65.4940969 139.219,63.0330969 135.677,63.0330969 L135.677,63.0330969 Z M135.677,73.3140969 C133.906,73.3140969 131.882,72.1640969 131.882,69.1050969 C131.882,66.0690969 133.906,64.9420969 135.677,64.9420969 C137.425,64.9420969 139.472,66.0690969 139.472,69.1050969 C139.472,72.1640969 137.425,73.3140969 135.677,73.3140969 L135.677,73.3140969 Z M150.857,63.0330969 C148.81,63.0330969 147.545,64.0910969 146.579,65.1490969 L146.579,64.2060969 C146.579,63.6080969 146.096,63.1480969 145.521,63.1480969 C144.946,63.1480969 144.486,63.6080969 144.486,64.2060969 L144.486,74.0730969 C144.486,74.6480969 144.946,75.1080969 145.521,75.1080969 C146.096,75.1080969 146.579,74.6480969 146.579,74.0730969 L146.579,67.1730969 C147.499,66.0230969 148.695,64.9650969 150.351,64.9650969 C152.145,64.9650969 152.881,66.0230969 152.881,67.7710969 L152.881,74.0730969 C152.881,74.6480969 153.341,75.1080969 153.916,75.1080969 C154.491,75.1080969 154.974,74.6480969 154.974,74.0730969 L154.974,67.5410969 C154.974,65.0800969 153.479,63.0330969 150.857,63.0330969 L150.857,63.0330969 Z M159.873,66.5520969 C159.873,65.6320969 160.816,64.9420969 162.518,64.9420969 C163.53,64.9420969 164.404,65.1260969 165.14,65.3560969 C165.232,65.3790969 165.324,65.4020969 165.439,65.4020969 C165.968,65.4020969 166.359,64.9650969 166.359,64.4820969 C166.359,64.1370969 166.129,63.7460969 165.692,63.6080969 C164.749,63.2630969 163.622,63.0330969 162.357,63.0330969 C159.367,63.0330969 157.872,64.5970969 157.872,66.6670969 C157.872,70.8530969 164.772,69.6800969 164.772,71.6580969 C164.772,72.6930969 163.99,73.2910969 162.219,73.2910969 C160.862,73.2910969 159.919,72.9690969 159.091,72.6010969 C158.93,72.5320969 158.815,72.5090969 158.677,72.5090969 C158.148,72.5090969 157.78,72.9690969 157.78,73.4290969 C157.78,73.7510969 157.941,74.0270969 158.171,74.1880969 C159.344,74.8320969 160.678,75.2230969 162.357,75.2230969 C165.301,75.2230969 166.796,73.6820969 166.796,71.8190969 C166.796,67.3110969 159.873,68.9440969 159.873,66.5520969 L159.873,66.5520969 Z M172.937,58.7090969 C171.419,58.7090969 170.177,59.0080969 168.889,59.8130969 C168.59,59.9970969 168.314,60.2500969 168.314,60.6870969 C168.314,61.1930969 168.728,61.6070969 169.234,61.6070969 C169.418,61.6070969 169.671,61.5150969 169.809,61.4230969 C170.614,60.9170969 171.718,60.6640969 172.753,60.6640969 C175.076,60.6640969 176.042,61.6070969 176.042,63.1710969 C176.042,65.4250969 171.787,65.9080969 171.787,69.8180969 C171.787,70.3010969 172.224,70.7150969 172.799,70.7150969 C173.328,70.7150969 173.811,70.3240969 173.811,69.8180969 C173.811,66.8740969 178.112,66.7360969 178.112,63.0560969 C178.112,60.3880969 176.065,58.7090969 172.937,58.7090969 L172.937,58.7090969 Z M172.753,72.3480969 C172.017,72.3480969 171.396,72.9690969 171.396,73.7050969 C171.396,74.4640969 172.017,75.0850969 172.753,75.0850969 C173.512,75.0850969 174.133,74.4640969 174.133,73.7050969 C174.133,72.9690969 173.512,72.3480969 172.753,72.3480969 L172.753,72.3480969 Z" id="More-Informations?" fill="#474E5D"></path>
            </g>
            <g id="Group" transform="translate(120.000000, 85.112603)" sketch:type="MSShapeGroup">
                <path d="M63,138 C104.026869,138 123,118.925948 123,77.6808511 C123,36.4357539 104.026869,3 63,3 C21.9731308,3 3,36.4357539 3,77.6808511 C3,118.925948 21.9731308,138 63,138 Z" id="Oval-2-copy" fill="#6F4073" transform="translate(63.000000, 70.500000) rotate(-357.000000) translate(-63.000000, -70.500000) "></path>
                <path d="M41.0313078,68.5505386 C39.5243738,72.0036675 37.0241014,74.6175559 33.4533846,76.7547435 C33.0725295,76.9605049 32.6754188,77.0785039 32.2512463,77.0785039 C31.4310408,77.0785039 30.6936166,76.6566665 30.3349812,75.9564966 C30.1259841,75.5906579 30.0020557,75.2071956 30.0020557,74.8082078 C30.0020557,74.0058692 30.4637856,73.2902453 31.2000504,72.932626 C33.7557595,71.6168509 35.786294,69.5424859 36.9133253,67.1939522 C38.2498951,64.4499822 38.7101782,62.2310508 38.7101782,58.0374619 C38.7101782,56.7999504 39.7423444,56.0785039 40.9593688,56.0785039 C42.1285226,56.0785039 43.1445291,56.8235809 43.1445291,58.0374619 C43.1445291,62.1956171 43.6033153,64.2999871 44.9934133,66.9831779 C46.1654702,69.2627606 48.4033139,71.5017747 50.9054781,72.8570246 C51.6361697,73.2123128 52.0020557,73.9387654 52.0020557,74.7044285 C52.0020557,75.1138149 51.8792182,75.5264809 51.6691302,75.894229 L51.6148654,75.9807755 C51.1747485,76.622777 50.5045435,76.9747246 49.7528651,76.9747246 C49.3318896,76.9747246 48.9075418,76.8552686 48.4857701,76.626303 C45.207217,74.6879629 42.5944858,71.9201609 41.0313078,68.5505386 Z M86.0271964,66.3935308 C84.5202624,69.8466596 82.01999,72.460548 78.4492732,74.5977356 C78.0684181,74.803497 77.6713074,74.9214961 77.2471349,74.9214961 C76.4269294,74.9214961 75.6895052,74.4996586 75.3308698,73.7994887 C75.1218727,73.4336501 74.9979443,73.0501877 74.9979443,72.6512 C74.9979443,71.8488614 75.4596742,71.1332374 76.195939,70.7756181 C78.7516481,69.459843 80.7821826,67.3854781 81.9092139,65.0369443 C83.2457837,62.2929743 83.7060668,60.0740429 83.7060668,55.8804541 C83.7060668,54.6429425 84.738233,53.9214961 85.9552574,53.9214961 C87.1244112,53.9214961 88.1404177,54.666573 88.1404177,55.8804541 C88.1404177,60.0386092 88.5992039,62.1429793 89.9893019,64.82617 C91.1613589,67.1057527 93.3992025,69.3447669 95.9013667,70.7000167 C96.6320583,71.0553049 96.9979443,71.7817575 96.9979443,72.5474206 C96.9979443,72.9568071 96.8751068,73.369473 96.6650188,73.7372211 L96.610754,73.8237677 C96.1706371,74.4657691 95.5004321,74.8177167 94.7487537,74.8177167 C94.3277782,74.8177167 93.9034304,74.6982608 93.4816587,74.4692952 C90.2031056,72.5309551 87.5903744,69.7631531 86.0271964,66.3935308 Z" id="人-人-copy" fill="#FFFFFF" transform="translate(63.500000, 65.500000) rotate(-357.000000) translate(-63.500000, -65.500000) "></path>
                <path d="M122.556429,51.3623457 L122.54911,51.254321 C122.394802,48.8685185 120.425392,47 118.064418,47 C117.966222,47 117.867416,47.0030864 117.813133,47.0074074 L72.09952,48.5753086 C70.9010403,48.654321 69.8050261,49.2018519 69.0127487,50.1160494 C68.2204713,51.0296296 67.8276871,52.2012346 67.9063659,53.4141975 L68.0631136,55.8351852 C65.2117688,53.9919753 62.3439564,54.7864198 60.5471518,55.6833333 L60.6941409,53.4141975 C60.7728197,52.2012346 60.3800355,51.0296296 59.5877581,50.1160494 C58.7960906,49.2018519 57.6994664,48.6549383 56.4558532,48.5728395 L10.831897,48.0419753 C8.35381915,47.8709877 6.21180356,49.8012346 6.05139635,52.2864198 L6.04468731,52.3938272 C4.94806315,52.4407407 3,52.9802469 3,56.2518519 C3,59.8296296 5.77327588,59.4685185 6.96077712,59.1506173 L7.95493584,74.9061728 C7.88235615,77.341358 9.734053,79.4228395 12.0968572,79.5777778 L54.3412837,81.9901235 C54.4406996,81.9969136 54.5395055,82 54.6377016,82 L54.6383115,82 C56.998676,82 58.9680862,80.1314815 59.1223942,77.745679 L60.1604667,60.6580247 C62.0060644,59.6567901 65.2819089,58.562963 68.4583375,60.895679 L69.4811621,77.745679 C69.6354702,80.1314815 71.6048803,82 73.9658548,82 C74.0640508,82 74.1634667,81.9969136 74.3220442,81.9851852 L116.446928,79.582716 C118.867674,79.4222222 120.7212,77.341358 120.648621,74.9055556 L121.658027,58.004321 C122.428348,58.2691358 126,59.2796296 126,55.2191358 C125.99817,51.5024691 123.478618,51.3092593 122.556429,51.3623457 L122.556429,51.3623457 Z M55.452754,78.4201592 C55.3982643,79.3054806 54.702473,79.998728 53.8683617,79.998728 L53.8198599,80 L12.3460258,77.5144856 C11.4711969,77.453429 10.8059438,76.6476084 10.8628286,75.7184025 L10.8718104,75.5663969 L9,52.4507314 C9.11017694,51.6277387 9.77782525,51 10.571219,51 L55.5138304,51.5533259 C55.9377721,51.5832182 56.3245889,51.7861043 56.6054204,52.1250959 C56.885653,52.4647236 57.0245718,52.8997522 56.9964288,53.349409 L55.452754,78.4201592 L55.452754,78.4201592 Z M117.137189,75.728521 C117.194074,76.6558064 116.528827,77.4605962 115.595326,77.5259695 L74.2392504,79.9961918 C73.2979652,80 72.6027793,79.3075507 72.5476913,78.4246938 L71.0034326,53.4057588 C70.9758886,52.9563966 71.1148061,52.5229018 71.395036,52.1839761 C71.675266,51.8456852 72.0626779,51.6432183 72.4423057,51.6159265 L117.321614,50.0038082 C118.221583,50 118.889225,50.6258066 119,51.4477331 L117.127609,75.5768295 L117.137189,75.728521 Z" id="Shape" fill="#FFFFFF"></path>
            </g>
            <path d="M134.830607,112.608533 C134.830607,112.608533 141.414591,98.037243 148.463419,94.006969 C155.512247,89.9766955 173.677286,87.1290374 182.376505,87.1290393 C191.075724,87.1290412 234.794475,92.7921255 242.487833,82.1534534 C250.181193,71.5147815 249.899942,105.989391 230.083536,119.379039 C210.26713,132.768688 134.830607,112.608533 134.830607,112.608533 Z" id="Path-145" fill="#855689" sketch:type="MSShapeGroup"></path>
            <ellipse id="Oval-31" opacity="0.49921875" fill="#6F4073" sketch:type="MSShapeGroup" cx="187" cy="257.112603" rx="64" ry="4"></ellipse>
            <path d="M122.498047,178.556641 C132.445312,202.052734 151.80957,194.015625 151.80957,194.015625 C151.80957,194.015625 165.632812,187.001953 182.119141,187.001953 C198.605469,187.001953 215.777344,194.015625 215.777344,194.015625 C215.777344,194.015625 234.666016,202.052734 241.433594,178.556641 C241.433594,178.556641 239.433594,225.548832 182.119141,225.548828 C124.804687,225.548825 122.498047,178.556641 122.498047,178.556641 Z M198.262421,200.738858 C189.11928,200.738858 174.186059,200.738858 165.707799,200.738858 C161.825828,200.738858 162.011465,203.61614 166.201211,206.552657 C170.567089,209.612621 176.535034,212.736904 182.703205,212.736904 C188.267264,212.736904 194.031212,209.823535 198.446985,206.868028 C202.992374,203.825768 202.945277,200.738858 198.262421,200.738858 Z" id="Path-142" fill="#855689" sketch:type="MSShapeGroup"></path>
        </g>
    </g>
</svg>