<?xml version="1.0" encoding="UTF-8" standalone="no"?>
<!-- Created with Inkscape (http://www.inkscape.org/) -->

<svg
   xmlns:dc="http://purl.org/dc/elements/1.1/"
   xmlns:cc="http://creativecommons.org/ns#"
   xmlns:rdf="http://www.w3.org/1999/02/22-rdf-syntax-ns#"
   xmlns:svg="http://www.w3.org/2000/svg"
   xmlns="http://www.w3.org/2000/svg"
   xmlns:inkscape="http://www.inkscape.org/namespaces/inkscape"
   version="1.1"
   width="375.45001"
   height="123.6"
   id="svg2"
   xml:space="preserve"><metadata
     id="metadata8"><rdf:RDF><cc:Work
         rdf:about=""><dc:format>image/svg+xml</dc:format><dc:type
           rdf:resource="http://purl.org/dc/dcmitype/StillImage" /></cc:Work></rdf:RDF></metadata><defs
     id="defs6"><clipPath
       id="clipPath18"><path
         d="M 0,988.754 0,0 l 3003.6,0 0,988.754 -3003.6,0 z"
         inkscape:connector-curvature="0"
         id="path20" /></clipPath></defs><g
     transform="matrix(1.25,0,0,-1.25,0,123.6)"
     id="g10"><g
       transform="scale(0.1,0.1)"
       id="g12"><g
         id="g14"><g
           clip-path="url(#clipPath18)"
           id="g16"><path
             d="m 273.887,662.715 4.496,0 c 6.402,0 13.004,-0.199 17.105,1.996 5.899,3.203 6.996,8.703 6.996,11.105 0,7.399 -6.199,7.196 -13.699,7.196 l -10.597,0 -4.301,-20.297 z m -22.903,-39.301 14.899,71.602 29.207,0 c 5.199,0 21.996,0 21.996,-18.004 0,-6.098 -2.5,-16.399 -11.203,-21.996 -6.699,-4.301 -16.395,-4.301 -25,-4.301 l -9.496,0 -5.699,-27.301 -14.704,0"
             inkscape:connector-curvature="0"
             id="path22"
             style="fill:#254aa5;fill-opacity:1;fill-rule:nonzero;stroke:none" /><path
             d="m 351.285,665.016 -9.898,0 -8.699,-41.602 -14,0 8.699,41.602 -7.899,0 2.196,10.199 7.804,0 1.098,5.398 c 1.602,7.602 3.301,15.598 16.199,15.598 3.297,0 8.199,-0.598 13.496,-2.301 l -2.699,-10.098 c -3.695,1.301 -6.699,1.801 -8.094,1.801 -3.804,0 -4.406,-2.5 -5.203,-6.703 l -0.801,-3.695 9.899,0 -2.098,-10.199"
             inkscape:connector-curvature="0"
             id="path24"
             style="fill:#254aa5;fill-opacity:1;fill-rule:nonzero;stroke:none" /><path
             d="m 383.887,647.613 c -0.903,-0.297 -1.305,-0.402 -3.301,-0.601 -8.606,-1.098 -16.106,-2.399 -16.106,-8.5 0,-2.696 1.907,-5.797 6.403,-5.797 9.902,0 11.805,8.801 12.703,13 l 0.301,1.898 z m -27,14.102 c 3.996,11.699 14.301,14.801 23.597,14.801 18.301,0 19.704,-10.801 19.704,-13.903 0,-3.703 -0.708,-6.797 -2.704,-15.801 -0.199,-0.8 -1.199,-5.203 -1.296,-6.097 -0.801,-3.399 -1.403,-7.004 -1.403,-9.899 0,-3.004 0.403,-4.804 1.098,-7.402 l -13.598,0 c -0.699,2.402 -0.801,3.301 -1,5.898 -4.801,-5.402 -10.699,-7.101 -15.097,-7.101 -8.004,0 -14.903,5.504 -14.903,15.105 0,15.496 14.399,16.7 21.098,17.196 5.504,0.504 10.601,1 13.402,2.004 0.301,0.894 0.899,2.898 0.899,4.695 0,3.805 -3.5,5.305 -7.204,5.305 -4.199,0 -7.699,-1.5 -8.894,-5.903 l -13.699,1.102"
             inkscape:connector-curvature="0"
             id="path26"
             style="fill:#254aa5;fill-opacity:1;fill-rule:nonzero;stroke:none" /><path
             d="m 431.285,632.812 c 10.301,0 14.301,13.301 14.301,20.801 0,6.602 -4,12.102 -10,12.102 -9,0 -14,-12.102 -14,-21.203 0,-6.399 3.398,-11.7 9.699,-11.7 z m 9.801,-9.398 1.199,5.398 -0.199,0.204 c -2.699,-2.805 -7.699,-6.805 -16.102,-6.805 -11.101,0 -18,7.805 -18,21.699 0,16.703 10.102,32.606 25.602,32.606 10.398,0 14.398,-6.403 15.695,-8.301 l 5.602,26.801 14.004,0 -15,-71.602 -12.801,0"
             inkscape:connector-curvature="0"
             id="path28"
             style="fill:#254aa5;fill-opacity:1;fill-rule:nonzero;stroke:none" /><path
             d="m 496.285,695.016 -2.699,-12.7 -14,0 2.699,12.7 14,0 z m -4.199,-19.801 -10.801,-51.801 -14,0 10.801,51.801 14,0"
             inkscape:connector-curvature="0"
             id="path30"
             style="fill:#254aa5;fill-opacity:1;fill-rule:nonzero;stroke:none" /><path
             d="m 523.285,632.812 c 9.899,0 14.199,13.598 14.199,21.801 0,7.598 -4.5,11.903 -9.796,11.903 -8.805,0 -14.305,-11.004 -14.305,-22.004 0,-5.899 3.801,-11.7 9.902,-11.7 z m -13.805,62.204 14,0 -5,-24.004 c 3.102,2.402 7.403,5.504 14.504,5.504 13.102,0 18.102,-10.204 18.102,-21.5 0,-18.606 -11.606,-32.805 -25.699,-32.805 -11.106,0 -15.106,7.402 -16.203,9.703 l -0.2,0 -1.699,-8.5 -12.805,0 15,71.602"
             inkscape:connector-curvature="0"
             id="path32"
             style="fill:#254aa5;fill-opacity:1;fill-rule:nonzero;stroke:none" /><path
             d="m 595.082,653.512 c 0.301,6.902 -2.199,13.004 -9.5,13.004 -8.098,0 -11.5,-8.102 -12.5,-13.004 l 22,0 z m -23.398,-8.496 c -0.399,-8.102 4.296,-12.805 10.097,-12.805 7.004,0 10.106,5.601 10.899,7.203 l 12.601,-2.098 c -6.097,-12.5 -16.398,-15.105 -23.597,-15.105 -14.399,0 -23.5,10.105 -23.5,24.101 0,13 8.3,30.204 28.902,30.204 16.394,0 20.695,-12.606 20.695,-22.407 0,-1.394 -0.101,-5.695 -0.894,-9.093 l -35.203,0"
             inkscape:connector-curvature="0"
             id="path34"
             style="fill:#254aa5;fill-opacity:1;fill-rule:nonzero;stroke:none" /><path
             d="m 651.195,623.414 -2.402,32.996 -0.199,0 -15.699,-32.996 -13,0 -6.5,51.801 12.402,0 3.496,-34.703 0.199,0 16.106,34.703 12.699,0 1.699,-34.703 0.199,0 16,34.703 14,0 -25.8,-51.801 -13.2,0"
             inkscape:connector-curvature="0"
             id="path36"
             style="fill:#254aa5;fill-opacity:1;fill-rule:nonzero;stroke:none" /><path
             d="m 726.992,653.512 c 0.305,6.902 -2.195,13.004 -9.496,13.004 -8.101,0 -11.5,-8.102 -12.5,-13.004 l 21.996,0 z m -23.398,-8.496 c -0.403,-8.102 4.301,-12.805 10.101,-12.805 6.996,0 10.098,5.601 10.899,7.203 l 12.597,-2.098 c -6.097,-12.5 -16.394,-15.105 -23.597,-15.105 -14.399,0 -23.5,10.105 -23.5,24.101 0,13 8.301,30.204 28.898,30.204 16.403,0 20.699,-12.606 20.699,-22.407 0,-1.394 -0.097,-5.695 -0.898,-9.093 l -35.199,0"
             inkscape:connector-curvature="0"
             id="path38"
             style="fill:#254aa5;fill-opacity:1;fill-rule:nonzero;stroke:none" /><path
             d="m 768.594,633.613 c 9,0 14.199,11.203 14.199,20.602 0,6.297 -3.801,12.301 -9.801,12.301 -9.894,0 -13.699,-15.204 -13.699,-20.801 0,-7.703 3.898,-12.102 9.301,-12.102 z m -11,-15.101 c -0.098,-2.696 0.902,-6.102 7.601,-6.102 9.602,0 10.7,5.402 12.399,14.402 l 0.398,2.297 -0.199,0.203 c -1.797,-1.796 -6.996,-6.097 -14.801,-6.097 -7.699,0 -17.394,4.699 -17.394,21.097 0,20.301 11.996,32.204 24.894,32.204 6.5,0 12.805,-3.403 16.102,-10.403 l 0.199,0 1.801,9.102 13.199,0 -9,-43.203 c -4,-19.2 -6.199,-29.602 -27.898,-29.602 -5.903,0 -24.098,0 -22.102,18.305 l 14.801,-2.203"
             inkscape:connector-curvature="0"
             id="path40"
             style="fill:#254aa5;fill-opacity:1;fill-rule:nonzero;stroke:none" /><path
             d="m 829.395,675.215 -6.403,-30.703 c -0.097,-0.098 -0.097,-0.496 -0.199,-0.899 -0.496,-2.301 -1,-4.398 -1,-5.898 0,-2.699 2.098,-5.504 5.902,-5.504 5.598,0 9.899,5.105 10.496,5.801 3.301,3.902 4.305,8.703 5.204,12.601 l 5.097,24.602 14.004,0 -10.801,-51.801 -13.101,0 1.5,6.801 -0.199,0.199 c -5.403,-5.301 -11.903,-8.203 -18.504,-8.203 -12.196,0 -13.696,9.801 -13.696,13.504 0,2.601 0.395,4.898 1.598,10.597 l 6.102,28.903 14,0"
             inkscape:connector-curvature="0"
             id="path42"
             style="fill:#254aa5;fill-opacity:1;fill-rule:nonzero;stroke:none" /><path
             d="m 889.988,675.215 -1.394,-6.504 0.199,-0.199 c 4.098,3.699 9.898,8.004 18.301,8.004 10.301,0 13.699,-7.204 13.699,-13.403 0,-2.801 -0.699,-6.398 -1.5,-10.301 l -6.203,-29.398 -13.996,0 6.199,29.5 c 0,0.199 0.098,0.898 0.297,1.598 0.203,0.8 0.402,1.8 0.402,2.004 0.602,2.796 0.602,3.5 0.602,4.199 0,5.297 -4.5,5.801 -6.004,5.801 -4.297,0 -8.695,-3.602 -11.297,-7.004 -2.598,-3.598 -3.199,-6.899 -4.898,-14.801 l -4.5,-21.297 -14,0 10.898,51.801 13.195,0"
             inkscape:connector-curvature="0"
             id="path44"
             style="fill:#254aa5;fill-opacity:1;fill-rule:nonzero;stroke:none" /><path
             d="m 951.891,633.613 c 9.004,0 14.203,11.203 14.203,20.602 0,6.297 -3.805,12.301 -9.801,12.301 -9.902,0 -13.699,-15.204 -13.699,-20.801 0,-7.703 3.894,-12.102 9.297,-12.102 z m -10.996,-15.101 c -0.102,-2.696 0.898,-6.102 7.597,-6.102 9.598,0 10.696,5.402 12.403,14.402 l 0.398,2.297 -0.199,0.203 c -1.801,-1.796 -7,-6.097 -14.801,-6.097 -7.699,0 -17.402,4.699 -17.402,21.097 0,20.301 12.004,32.204 24.902,32.204 6.5,0 12.801,-3.403 16.102,-10.403 l 0.199,0 1.797,9.102 13.203,0 -9,-43.203 c -4.004,-19.2 -6.199,-29.602 -27.903,-29.602 -5.902,0 -24.097,0 -22.097,18.305 l 14.801,-2.203"
             inkscape:connector-curvature="0"
             id="path46"
             style="fill:#254aa5;fill-opacity:1;fill-rule:nonzero;stroke:none" /><path
             d="m 1032.09,647.316 c 0.2,-6.203 0.5,-12.804 14.2,-12.804 5,0 13.6,1.304 13.6,8.804 0,5.098 -4.3,6.899 -12.1,10.297 -12.4,5.403 -21.1,9.199 -21.1,21.602 0,8.597 5.4,20.996 25.5,20.996 13.7,0 26,-5.899 27.1,-21.598 l -14.1,-0.703 c -0.8,8.301 -6.4,10.602 -13.1,10.602 -2.5,0 -11.3,0 -11.3,-7.5 0,-5.098 4.8,-7.196 13,-10.7 12.3,-5.3 20.7,-8.996 20.7,-21.199 0,-10.5 -8.1,-22.902 -28.3,-22.902 -10.2,0 -23.1,3.203 -26.7,14.398 -1.3,4.106 -1.5,8.102 -1.4,10 l 14,0.707"
             inkscape:connector-curvature="0"
             id="path48"
             style="fill:#254aa5;fill-opacity:1;fill-rule:nonzero;stroke:none" /><path
             d="m 1131.59,640.715 c -4.2,-11.203 -12.7,-18.504 -25.3,-18.504 -15.8,0 -21.5,11.402 -21.5,22.203 0,17.902 11.8,32.102 29.6,32.102 14.1,0 20.1,-8.801 20.9,-17.407 l -13.4,-1.394 c -0.2,1.898 -1,8.398 -8.4,8.398 -10.9,0 -14.8,-15.101 -14.8,-23.398 0,-6.703 4,-9.5 7.9,-9.5 2.6,0 8.4,1.398 11.3,9.699 l 13.7,-2.199"
             inkscape:connector-curvature="0"
             id="path50"
             style="fill:#254aa5;fill-opacity:1;fill-rule:nonzero;stroke:none" /><path
             d="m 1137.21,623.414 15,71.602 14.01,0 -5.31,-25.504 c 3.1,2.402 8.8,7.004 17.61,7.004 11.19,0 13.59,-8.602 13.59,-13.102 0,-3.102 -0.7,-6.402 -1.4,-9.703 l -6.3,-30.297 -13.99,0 6.39,30.898 c 1,4.5 1.11,5 1.11,6.403 0,3.5 -2.3,5.801 -6.01,5.801 -5.6,0 -9.7,-5 -11.29,-7.204 -2.61,-3.699 -3.21,-6.398 -5.11,-15.402 l -4.29,-20.496 -14.01,0"
             inkscape:connector-curvature="0"
             id="path52"
             style="fill:#254aa5;fill-opacity:1;fill-rule:nonzero;stroke:none" /><path
             d="m 1239.21,623.414 -2.4,32.996 -0.2,0 -15.7,-32.996 -12.99,0 -6.51,51.801 12.4,0 3.5,-34.703 0.2,0 16.1,34.703 12.7,0 1.7,-34.703 0.2,0 16,34.703 14,0 -25.8,-51.801 -13.2,0"
             inkscape:connector-curvature="0"
             id="path54"
             style="fill:#254aa5;fill-opacity:1;fill-rule:nonzero;stroke:none" /><path
             d="m 1315.01,653.512 c 0.3,6.902 -2.2,13.004 -9.5,13.004 -8.1,0 -11.5,-8.102 -12.5,-13.004 l 22,0 z m -23.4,-8.496 c -0.4,-8.102 4.3,-12.805 10.1,-12.805 7,0 10.1,5.601 10.9,7.203 l 12.6,-2.098 c -6.1,-12.5 -16.4,-15.105 -23.6,-15.105 -14.4,0 -23.5,10.105 -23.5,24.101 0,13 8.3,30.204 28.9,30.204 16.4,0 20.7,-12.606 20.7,-22.407 0,-1.394 -0.1,-5.695 -0.9,-9.093 l -35.2,0"
             inkscape:connector-curvature="0"
             id="path56"
             style="fill:#254aa5;fill-opacity:1;fill-rule:nonzero;stroke:none" /><path
             d="m 1360.71,695.016 -2.7,-12.7 -14,0 2.7,12.7 14,0 z m -4.2,-19.801 -10.8,-51.801 -14,0 10.8,51.801 14,0"
             inkscape:connector-curvature="0"
             id="path58"
             style="fill:#254aa5;fill-opacity:1;fill-rule:nonzero;stroke:none" /><path
             d="m 1359.21,632.914 28.4,31.398 -23.2,0 2.3,10.903 40.7,0 -1.7,-8.301 -28.7,-32.098 25,0 -2.4,-11.402 -42.4,0 2,9.5"
             inkscape:connector-curvature="0"
             id="path60"
             style="fill:#254aa5;fill-opacity:1;fill-rule:nonzero;stroke:none" /><path
             d="m 81.0195,503.414 -2.5976,59.801 -0.1992,0 -11.3008,-59.801 -13.3008,0 15,71.602 21.0039,0 2.0977,-50.2 0.1992,0 24.3011,50.2 21.199,0 -15,-71.602 -13.399,0 14.102,59.199 -0.199,0.199 -28.0041,-59.398 -13.9024,0"
             inkscape:connector-curvature="0"
             id="path62"
             style="fill:#254aa5;fill-opacity:1;fill-rule:nonzero;stroke:none" /><path
             d="m 168.32,545.914 c -11.996,0 -15.5,-14.602 -15.5,-20.801 0,-5.898 3.403,-12.301 10.7,-12.301 10.101,0 15.203,12.602 15.203,22.098 0,5 -2.801,11.004 -10.403,11.004 z m 0,10.602 c 17.903,0 24.301,-11.606 24.301,-23.403 0,-15.703 -10.695,-30.902 -29.598,-30.902 -16.203,0 -24.101,10.601 -24.101,22.699 0,13.602 7.098,31.606 29.398,31.606"
             inkscape:connector-curvature="0"
             id="path64"
             style="fill:#254aa5;fill-opacity:1;fill-rule:nonzero;stroke:none" /><path
             d="m 222.621,555.215 -6.398,-30.703 c -0.102,-0.098 -0.102,-0.496 -0.203,-0.899 -0.497,-2.301 -1,-4.398 -1,-5.898 0,-2.699 2.097,-5.504 5.902,-5.504 5.601,0 9.898,5.105 10.5,5.801 3.301,3.902 4.301,8.703 5.199,12.601 l 5.102,24.602 14,0 -10.801,-51.801 -13.102,0 1.5,6.801 -0.199,0.199 c -5.402,-5.301 -11.898,-8.203 -18.504,-8.203 -12.195,0 -13.695,9.801 -13.695,13.504 0,2.601 0.402,4.898 1.598,10.597 l 6.101,28.903 14,0"
             inkscape:connector-curvature="0"
             id="path66"
             style="fill:#254aa5;fill-opacity:1;fill-rule:nonzero;stroke:none" /><path
             d="m 273.223,503.414 -10.403,51.801 13.7,0 3.699,-22.602 c 0.101,-0.297 0.203,-1.097 0.402,-2.101 0.496,-3.196 1.098,-6.403 1.297,-10.098 l 0.199,0 c 0.305,0.898 0.602,1.398 1.699,3.398 l 2.004,3.598 c 0.801,1.606 2,3.801 3.301,6.004 l 12.899,21.801 15.097,0 -31.898,-51.801 -11.996,0"
             inkscape:connector-curvature="0"
             id="path68"
             style="fill:#254aa5;fill-opacity:1;fill-rule:nonzero;stroke:none" /><path
             d="m 353.617,533.512 c 0.305,6.902 -2.195,13.004 -9.496,13.004 -8.101,0 -11.5,-8.102 -12.5,-13.004 l 21.996,0 z m -23.398,-8.496 c -0.399,-8.102 4.301,-12.805 10.101,-12.805 7,0 10.102,5.601 10.903,7.203 l 12.593,-2.098 c -6.097,-12.5 -16.394,-15.105 -23.597,-15.105 -14.399,0 -23.5,10.105 -23.5,24.101 0,13 8.301,30.204 28.902,30.204 16.399,0 20.695,-12.606 20.695,-22.407 0,-1.394 -0.093,-5.695 -0.894,-9.093 l -35.203,0"
             inkscape:connector-curvature="0"
             id="path70"
             style="fill:#254aa5;fill-opacity:1;fill-rule:nonzero;stroke:none" /><path
             d="m 394.418,555.215 -1.395,-6 0.2,-0.199 c 2.398,2.394 7.894,7.5 15.996,7.5 4.203,0 11.504,-0.903 13.101,-9.2 3.301,4.797 10.301,9.2 18.203,9.2 8.997,0 13.094,-5.504 13.094,-12.102 0,-2.5 -0.695,-6.098 -1.297,-9.301 l -6.699,-31.699 -14,0 6.602,31.699 c 0.097,0.301 0.297,1.297 0.5,2.203 0.496,2.297 0.797,3.5 0.797,4.496 0,1.801 -0.797,4.704 -5.2,4.704 -3.699,0 -7.097,-2.5 -9.5,-5.801 -2.8,-3.903 -4.199,-10.203 -4.898,-13.801 l -4.902,-23.5 -14.098,0 6.797,32.199 c 0.703,3.602 0.898,4.5 0.898,6.199 0,3.004 -2.195,4.704 -5.195,4.704 -4.301,0 -7.801,-3.504 -9.5,-5.801 -2.5,-3.504 -3.301,-7.5 -4.602,-13.504 l -5,-23.797 -14,0 10.903,51.801 13.195,0"
             inkscape:connector-curvature="0"
             id="path72"
             style="fill:#254aa5;fill-opacity:1;fill-rule:nonzero;stroke:none" /><path
             d="m 498.121,533.512 c 0.297,6.902 -2.203,13.004 -9.504,13.004 -8.097,0 -11.5,-8.102 -12.5,-13.004 l 22.004,0 z m -23.398,-8.496 c -0.403,-8.102 4.297,-12.805 10.097,-12.805 7,0 10.102,5.601 10.899,7.203 l 12.601,-2.098 c -6.097,-12.5 -16.402,-15.105 -23.597,-15.105 -14.407,0 -23.5,10.105 -23.5,24.101 0,13 8.297,30.204 28.898,30.204 16.399,0 20.699,-12.606 20.699,-22.407 0,-1.394 -0.101,-5.695 -0.898,-9.093 l -35.199,0"
             inkscape:connector-curvature="0"
             id="path74"
             style="fill:#254aa5;fill-opacity:1;fill-rule:nonzero;stroke:none" /><path
             d="m 538.922,555.215 -1.402,-6.504 0.199,-0.199 c 4.101,3.699 9.902,8.004 18.301,8.004 10.296,0 13.703,-7.204 13.703,-13.403 0,-2.801 -0.703,-6.398 -1.504,-10.301 l -6.199,-29.398 -14,0 6.199,29.5 c 0,0.199 0.101,0.898 0.301,1.598 0.203,0.8 0.402,1.8 0.402,2.004 0.598,2.796 0.598,3.5 0.598,4.199 0,5.297 -4.5,5.801 -6,5.801 -4.301,0 -8.7,-3.602 -11.301,-7.004 -2.598,-3.598 -3.199,-6.899 -4.899,-14.801 l -4.504,-21.297 -13.996,0 10.899,51.801 13.203,0"
             inkscape:connector-curvature="0"
             id="path76"
             style="fill:#254aa5;fill-opacity:1;fill-rule:nonzero;stroke:none" /><path
             d="m 581.621,555.215 6.797,0 1.699,8.297 16,9.703 -3.699,-18 8.602,0 -2.204,-10.199 -8.597,0 -4.5,-21.903 c -0.098,-0.199 -0.199,-1 -0.403,-1.801 -0.597,-2.5 -0.8,-3.699 -0.8,-4.902 0,-3.398 3.101,-3.398 4.703,-3.398 0.898,0 4.101,0.304 4.597,0.304 l -2.195,-10.402 c -2.5,-0.504 -4.504,-0.703 -7.402,-0.703 -7,0 -14.199,2.004 -14.199,10.703 0,2.5 0.402,4.602 1.8,11.102 l 4.403,21 -6.805,0 2.203,10.199"
             inkscape:connector-curvature="0"
             id="path78"
             style="fill:#254aa5;fill-opacity:1;fill-rule:nonzero;stroke:none" /><path
             d="m 653.219,527.316 c 0.199,-6.203 0.496,-12.804 14.199,-12.804 5,0 13.602,1.304 13.602,8.804 0,5.098 -4.301,6.899 -12.102,10.297 -12.398,5.403 -21.102,9.199 -21.102,21.602 0,8.597 5.403,20.996 25.504,20.996 13.696,0 25.996,-5.899 27.102,-21.598 l -14.106,-0.703 c -0.796,8.301 -6.398,10.602 -13.097,10.602 -2.5,0 -11.301,0 -11.301,-7.5 0,-5.098 4.801,-7.196 13,-10.7 12.301,-5.3 20.703,-8.996 20.703,-21.199 0,-10.5 -8.101,-22.902 -28.301,-22.902 -10.203,0 -23.101,3.203 -26.699,14.398 -1.305,4.106 -1.504,8.102 -1.402,10 l 14,0.707"
             inkscape:connector-curvature="0"
             id="path80"
             style="fill:#254aa5;fill-opacity:1;fill-rule:nonzero;stroke:none" /><path
             d="m 752.719,520.715 c -4.203,-11.203 -12.699,-18.504 -25.301,-18.504 -15.801,0 -21.5,11.402 -21.5,22.203 0,17.902 11.801,32.102 29.602,32.102 14.097,0 20.093,-8.801 20.898,-17.407 l -13.398,-1.394 c -0.204,1.898 -1.004,8.398 -8.403,8.398 -10.902,0 -14.797,-15.101 -14.797,-23.398 0,-6.703 3.996,-9.5 7.899,-9.5 2.597,0 8.398,1.398 11.301,9.699 l 13.699,-2.199"
             inkscape:connector-curvature="0"
             id="path82"
             style="fill:#254aa5;fill-opacity:1;fill-rule:nonzero;stroke:none" /><path
             d="m 790.719,545.914 c -12.004,0 -15.5,-14.602 -15.5,-20.801 0,-5.898 3.398,-12.301 10.699,-12.301 10.098,0 15.199,12.602 15.199,22.098 0,5 -2.801,11.004 -10.398,11.004 z m 0,10.602 c 17.898,0 24.301,-11.606 24.301,-23.403 0,-15.703 -10.704,-30.902 -29.606,-30.902 -16.195,0 -24.098,10.601 -24.098,22.699 0,13.602 7.102,31.606 29.403,31.606"
             inkscape:connector-curvature="0"
             id="path84"
             style="fill:#254aa5;fill-opacity:1;fill-rule:nonzero;stroke:none" /><path
             d="m 845.016,555.215 -6.399,-30.703 c -0.101,-0.098 -0.101,-0.496 -0.199,-0.899 -0.504,-2.301 -1,-4.398 -1,-5.898 0,-2.699 2.098,-5.504 5.898,-5.504 5.602,0 9.903,5.105 10.5,5.801 3.297,3.902 4.297,8.703 5.204,12.601 l 5.097,24.602 13.996,0 -10.801,-51.801 -13.093,0 1.5,6.801 -0.199,0.199 c -5.403,-5.301 -11.903,-8.203 -18.504,-8.203 -12.204,0 -13.7,9.801 -13.7,13.504 0,2.601 0.399,4.898 1.602,10.597 l 6.098,28.903 14,0"
             inkscape:connector-curvature="0"
             id="path86"
             style="fill:#254aa5;fill-opacity:1;fill-rule:nonzero;stroke:none" /><path
             d="m 887.219,555.215 6.797,0 1.703,8.297 15.996,9.703 -3.695,-18 8.597,0 -2.203,-10.199 -8.598,0 -4.504,-21.903 c -0.097,-0.199 -0.195,-1 -0.394,-1.801 -0.602,-2.5 -0.801,-3.699 -0.801,-4.902 0,-3.398 3.102,-3.398 4.695,-3.398 0.907,0 4.106,0.304 4.602,0.304 l -2.195,-10.402 c -2.5,-0.504 -4.504,-0.703 -7.407,-0.703 -6.996,0 -14.199,2.004 -14.199,10.703 0,2.5 0.403,4.602 1.805,11.102 l 4.398,21 -6.8,0 2.203,10.199"
             inkscape:connector-curvature="0"
             id="path88"
             style="fill:#254aa5;fill-opacity:1;fill-rule:nonzero;stroke:none" /><path
             d="m 967.715,512.812 c 10.297,0 14.301,13.301 14.301,20.801 0,6.602 -4.004,12.102 -10,12.102 -9.004,0 -14.004,-12.102 -14.004,-21.203 0,-6.399 3.406,-11.7 9.703,-11.7 z m 9.801,-9.398 1.199,5.398 -0.199,0.204 c -2.7,-2.805 -7.7,-6.805 -16.098,-6.805 -11.106,0 -18.004,7.805 -18.004,21.699 0,16.703 10.102,32.606 25.602,32.606 10.398,0 14.398,-6.403 15.699,-8.301 l 5.597,26.801 14.008,0 -15.004,-71.602 -12.8,0"
             inkscape:connector-curvature="0"
             id="path90"
             style="fill:#254aa5;fill-opacity:1;fill-rule:nonzero;stroke:none" /><path
             d="m 1042.61,533.512 c 0.31,6.902 -2.19,13.004 -9.49,13.004 -8.11,0 -11.5,-8.102 -12.5,-13.004 l 21.99,0 z m -23.4,-8.496 c -0.4,-8.102 4.31,-12.805 10.11,-12.805 6.99,0 10.09,5.601 10.89,7.203 l 12.6,-2.098 c -6.1,-12.5 -16.39,-15.105 -23.6,-15.105 -14.4,0 -23.5,10.105 -23.5,24.101 0,13 8.3,30.204 28.9,30.204 16.41,0 20.7,-12.606 20.7,-22.407 0,-1.394 -0.1,-5.695 -0.9,-9.093 l -35.2,0"
             inkscape:connector-curvature="0"
             id="path92"
             style="fill:#254aa5;fill-opacity:1;fill-rule:nonzero;stroke:none" /><path
             d="m 1103.32,527.316 c 0.2,-6.203 0.49,-12.804 14.19,-12.804 5,0 13.6,1.304 13.6,8.804 0,5.098 -4.29,6.899 -12.1,10.297 -12.39,5.403 -21.09,9.199 -21.09,21.602 0,8.597 5.4,20.996 25.49,20.996 13.7,0 26,-5.899 27.1,-21.598 l -14.09,-0.703 c -0.8,8.301 -6.41,10.602 -13.1,10.602 -2.5,0 -11.3,0 -11.3,-7.5 0,-5.098 4.8,-7.196 12.99,-10.7 12.3,-5.3 20.7,-8.996 20.7,-21.199 0,-10.5 -8.1,-22.902 -28.3,-22.902 -10.2,0 -23.09,3.203 -26.7,14.398 -1.3,4.106 -1.5,8.102 -1.39,10 l 14,0.707"
             inkscape:connector-curvature="0"
             id="path94"
             style="fill:#254aa5;fill-opacity:1;fill-rule:nonzero;stroke:none" /><path
             d="m 1178.41,555.215 -6.4,-30.703 c -0.1,-0.098 -0.1,-0.496 -0.2,-0.899 -0.5,-2.301 -0.99,-4.398 -0.99,-5.898 0,-2.699 2.1,-5.504 5.89,-5.504 5.6,0 9.9,5.105 10.5,5.801 3.3,3.902 4.3,8.703 5.2,12.601 l 5.1,24.602 14,0 -10.8,-51.801 -13.1,0 1.5,6.801 -0.2,0.199 c -5.39,-5.301 -11.9,-8.203 -18.49,-8.203 -12.21,0 -13.71,9.801 -13.71,13.504 0,2.601 0.4,4.898 1.61,10.597 l 6.09,28.903 14,0"
             inkscape:connector-curvature="0"
             id="path96"
             style="fill:#254aa5;fill-opacity:1;fill-rule:nonzero;stroke:none" /><path
             d="m 1243.91,575.016 -2.7,-12.7 -14,0 2.7,12.7 14,0 z m -4.2,-19.801 -10.8,-51.801 -14,0 10.8,51.801 14,0"
             inkscape:connector-curvature="0"
             id="path98"
             style="fill:#254aa5;fill-opacity:1;fill-rule:nonzero;stroke:none" /><path
             d="m 1254.71,520.113 c 1.7,-4.297 4.3,-8.199 11.8,-8.199 5,0 9.7,2.5 9.7,6 0,2.801 -1,3.098 -10.6,6.398 -8.8,3.004 -16.7,5.704 -16.7,15.399 0,8.703 7.6,16.805 23.6,16.805 7.3,0 18.9,-1.5 21.6,-13.602 l -13,-2.301 c -2.2,6.199 -9.2,6.199 -10.8,6.199 -5.8,0 -8.2,-2.3 -8.2,-4.8 0,-3.102 2.6,-3.899 9.8,-6 7.8,-2.301 18.6,-5.399 18.6,-15.598 0,-7 -5.4,-18.203 -23.7,-18.203 -13.3,0 -22.4,4.601 -25.7,15.703 l 13.6,2.199"
             inkscape:connector-curvature="0"
             id="path100"
             style="fill:#254aa5;fill-opacity:1;fill-rule:nonzero;stroke:none" /><path
             d="m 1310.31,520.113 c 1.7,-4.297 4.3,-8.199 11.8,-8.199 5,0 9.7,2.5 9.7,6 0,2.801 -1,3.098 -10.6,6.398 -8.8,3.004 -16.7,5.704 -16.7,15.399 0,8.703 7.6,16.805 23.6,16.805 7.31,0 18.9,-1.5 21.6,-13.602 l -13,-2.301 c -2.2,6.199 -9.2,6.199 -10.8,6.199 -5.8,0 -8.2,-2.3 -8.2,-4.8 0,-3.102 2.6,-3.899 9.8,-6 7.8,-2.301 18.6,-5.399 18.6,-15.598 0,-7 -5.4,-18.203 -23.7,-18.203 -13.3,0 -22.4,4.601 -25.7,15.703 l 13.6,2.199"
             inkscape:connector-curvature="0"
             id="path102"
             style="fill:#254aa5;fill-opacity:1;fill-rule:nonzero;stroke:none" /><path
             d="m 1392.81,533.512 c 0.3,6.902 -2.2,13.004 -9.5,13.004 -8.1,0 -11.5,-8.102 -12.5,-13.004 l 22,0 z m -23.4,-8.496 c -0.4,-8.102 4.3,-12.805 10.1,-12.805 7,0 10.1,5.601 10.91,7.203 l 12.59,-2.098 c -6.1,-12.5 -16.4,-15.105 -23.6,-15.105 -14.4,0 -23.5,10.105 -23.5,24.101 0,13 8.3,30.204 28.9,30.204 16.4,0 20.7,-12.606 20.7,-22.407 0,-1.394 -0.09,-5.695 -0.9,-9.093 l -35.2,0"
             inkscape:connector-curvature="0"
             id="path104"
             style="fill:#254aa5;fill-opacity:1;fill-rule:nonzero;stroke:none" /><path
             d="m 173.004,383.398 -2.606,59.805 -0.199,0 -11.297,-59.805 -13.3,0 15,71.602 21,0 2.097,-50.203 0.203,0 24.301,50.203 21.195,0 -15,-71.602 -13.398,0 14.102,59.2 -0.2,0.207 -28.004,-59.407 -13.894,0"
             inkscape:connector-curvature="0"
             id="path106"
             style="fill:#254aa5;fill-opacity:1;fill-rule:nonzero;stroke:none" /><path
             d="m 260.305,425.898 c -12.004,0 -15.504,-14.597 -15.504,-20.8 0,-5.899 3.398,-12.293 10.695,-12.293 10.106,0 15.203,12.597 15.203,22.097 0,5 -2.801,10.996 -10.394,10.996 z m 0,10.594 c 17.894,0 24.297,-11.59 24.297,-23.394 0,-15.696 -10.7,-30.903 -29.602,-30.903 -16.199,0 -24.102,10.61 -24.102,22.707 0,13.594 7.106,31.59 29.407,31.59"
             inkscape:connector-curvature="0"
             id="path108"
             style="fill:#254aa5;fill-opacity:1;fill-rule:nonzero;stroke:none" /><path
             d="m 302.125,383.398 -10.402,51.797 13.699,0 3.699,-22.597 c 0.102,-0.301 0.199,-1.106 0.399,-2.098 0.503,-3.203 1.101,-6.398 1.3,-10.098 l 0.2,0 c 0.304,0.899 0.601,1.395 1.699,3.399 l 2.004,3.601 c 0.8,1.59 2,3.797 3.3,5.996 l 12.899,21.797 15.098,0 -31.899,-51.797 -11.996,0"
             inkscape:connector-curvature="0"
             id="path110"
             style="fill:#254aa5;fill-opacity:1;fill-rule:nonzero;stroke:none" /><path
             d="m 372.621,455 -2.699,-12.703 -14,0 2.699,12.703 14,0 z m -4.199,-19.805 -10.801,-51.797 -14,0 10.805,51.797 13.996,0"
             inkscape:connector-curvature="0"
             id="path112"
             style="fill:#254aa5;fill-opacity:1;fill-rule:nonzero;stroke:none" /><path
             d="m 395.523,435.195 -1.402,-5.996 0.199,-0.207 c 2.403,2.406 7.903,7.5 16,7.5 4.2,0 11.5,-0.894 13.102,-9.195 3.301,4.805 10.301,9.195 18.199,9.195 9,0 13.102,-5.496 13.102,-12.097 0,-2.5 -0.7,-6.094 -1.301,-9.297 l -6.699,-31.7 -14.004,0 6.601,31.7 c 0.106,0.304 0.305,1.3 0.504,2.199 0.496,2.305 0.797,3.504 0.797,4.5 0,1.797 -0.797,4.695 -5.199,4.695 -3.699,0 -7.102,-2.5 -9.5,-5.789 -2.801,-3.906 -4.199,-10.203 -4.902,-13.808 l -4.899,-23.497 -14.101,0 6.804,32.2 c 0.696,3.601 0.899,4.5 0.899,6.199 0,3 -2.2,4.695 -5.203,4.695 -4.301,0 -7.797,-3.492 -9.497,-5.789 -2.5,-3.508 -3.3,-7.5 -4.601,-13.508 l -5,-23.797 -14,0 10.902,51.797 13.199,0"
             inkscape:connector-curvature="0"
             id="path114"
             style="fill:#254aa5;fill-opacity:1;fill-rule:nonzero;stroke:none" /><path
             d="m 499.223,413.496 c 0.297,6.906 -2.203,12.996 -9.5,12.996 -8.102,0 -11.5,-8.094 -12.5,-12.996 l 22,0 z M 475.82,405 c -0.398,-8.105 4.301,-12.805 10.102,-12.805 7,0 10.098,5.61 10.898,7.2 l 12.598,-2.098 c -6.098,-12.5 -16.395,-15.102 -23.598,-15.102 -14.398,0 -23.5,10.102 -23.5,24.106 0,12.996 8.301,30.191 28.903,30.191 16.398,0 20.695,-12.594 20.695,-22.39 0,-1.407 -0.098,-5.704 -0.898,-9.102 l -35.2,0"
             inkscape:connector-curvature="0"
             id="path116"
             style="fill:#254aa5;fill-opacity:1;fill-rule:nonzero;stroke:none" /><path
             d="m 540.02,435.195 -1.399,-6.496 0.203,-0.203 c 4.098,3.699 9.899,7.996 18.293,7.996 10.305,0 13.703,-7.195 13.703,-13.394 0,-2.793 -0.699,-6.399 -1.5,-10.293 l -6.199,-29.407 -14,0 6.199,29.504 c 0,0.196 0.102,0.899 0.301,1.602 0.199,0.801 0.399,1.797 0.399,1.988 0.601,2.805 0.601,3.508 0.601,4.211 0,5.293 -4.504,5.789 -6,5.789 -4.297,0 -8.703,-3.59 -11.301,-6.988 -2.597,-3.606 -3.199,-6.906 -4.902,-14.809 l -4.496,-21.297 -14,0 10.898,51.797 13.2,0"
             inkscape:connector-curvature="0"
             id="path118"
             style="fill:#254aa5;fill-opacity:1;fill-rule:nonzero;stroke:none" /><path
             d="m 582.719,435.195 6.801,0 1.703,8.301 16,9.707 -3.703,-18.008 8.597,0 -2.195,-10.195 -8.606,0 -4.496,-21.902 c -0.101,-0.196 -0.199,-0.996 -0.398,-1.797 -0.602,-2.5 -0.801,-3.703 -0.801,-4.903 0,-3.398 3.102,-3.398 4.699,-3.398 0.903,0 4.098,0.301 4.602,0.301 l -2.203,-10.399 c -2.5,-0.5 -4.496,-0.707 -7.399,-0.707 -7,0 -14.203,2.004 -14.203,10.707 0,2.5 0.403,4.598 1.805,11.09 l 4.398,21.008 -6.797,0 2.196,10.195"
             inkscape:connector-curvature="0"
             id="path120"
             style="fill:#254aa5;fill-opacity:1;fill-rule:nonzero;stroke:none" /><path
             d="m 641.719,425.898 c -11.996,0 -15.496,-14.597 -15.496,-20.8 0,-5.899 3.394,-12.293 10.695,-12.293 10.102,0 15.199,12.597 15.199,22.097 0,5 -2.797,10.996 -10.398,10.996 z m 0,10.594 c 17.898,0 24.301,-11.59 24.301,-23.394 0,-15.696 -10.704,-30.903 -29.598,-30.903 -16.203,0 -24.102,10.61 -24.102,22.707 0,13.594 7.098,31.59 29.399,31.59"
             inkscape:connector-curvature="0"
             id="path122"
             style="fill:#254aa5;fill-opacity:1;fill-rule:nonzero;stroke:none" /><path
             d="m 715.422,407.297 c 0.199,-6.203 0.496,-12.793 14.195,-12.793 5,0 13.602,1.297 13.602,8.797 0,5.097 -4.297,6.894 -12.102,10.293 -12.394,5.398 -21.097,9.211 -21.097,21.601 0,8.606 5.402,21.004 25.5,21.004 13.699,0 26,-5.894 27.097,-21.597 l -14.097,-0.704 c -0.801,8.297 -6.403,10.606 -13.098,10.606 -2.5,0 -11.301,0 -11.301,-7.5 0,-5.109 4.801,-7.207 12.996,-10.703 12.301,-5.305 20.699,-9.004 20.699,-21.203 0,-10.496 -8.097,-22.903 -28.3,-22.903 -10.196,0 -23.094,3.207 -26.7,14.407 -1.296,4.101 -1.5,8.093 -1.394,10 l 14,0.695"
             inkscape:connector-curvature="0"
             id="path124"
             style="fill:#254aa5;fill-opacity:1;fill-rule:nonzero;stroke:none" /><path
             d="m 814.918,400.703 c -4.199,-11.199 -12.699,-18.508 -25.301,-18.508 -15.801,0 -21.496,11.399 -21.496,22.2 0,17.902 11.797,32.097 29.598,32.097 14.097,0 20.097,-8.797 20.898,-17.39 l -13.398,-1.407 c -0.199,1.907 -1,8.399 -8.403,8.399 -10.898,0 -14.8,-15.098 -14.8,-23.399 0,-6.699 4.004,-9.492 7.902,-9.492 2.602,0 8.402,1.399 11.297,9.699 l 13.703,-2.199"
             inkscape:connector-curvature="0"
             id="path126"
             style="fill:#254aa5;fill-opacity:1;fill-rule:nonzero;stroke:none" /><path
             d="m 852.922,425.898 c -12.004,0 -15.504,-14.597 -15.504,-20.8 0,-5.899 3.402,-12.293 10.703,-12.293 10.098,0 15.199,12.597 15.199,22.097 0,5 -2.8,10.996 -10.398,10.996 z m 0,10.594 c 17.898,0 24.297,-11.59 24.297,-23.394 0,-15.696 -10.699,-30.903 -29.602,-30.903 -16.199,0 -24.097,10.61 -24.097,22.707 0,13.594 7.101,31.59 29.402,31.59"
             inkscape:connector-curvature="0"
             id="path128"
             style="fill:#254aa5;fill-opacity:1;fill-rule:nonzero;stroke:none" /><path
             d="m 907.219,435.195 -6.403,-30.691 c -0.097,-0.109 -0.097,-0.512 -0.203,-0.91 -0.496,-2.293 -0.996,-4.395 -0.996,-5.899 0,-2.695 2.102,-5.5 5.903,-5.5 5.597,0 9.894,5.102 10.496,5.805 3.3,3.895 4.3,8.699 5.199,12.598 l 5.101,24.597 14,0 -10.8,-51.797 -13.098,0 1.496,6.797 -0.195,0.207 c -5.399,-5.304 -11.903,-8.207 -18.5,-8.207 -12.203,0 -13.699,9.809 -13.699,13.508 0,2.598 0.398,4.895 1.597,10.598 l 6.102,28.894 14,0"
             inkscape:connector-curvature="0"
             id="path130"
             style="fill:#254aa5;fill-opacity:1;fill-rule:nonzero;stroke:none" /><path
             d="m 949.418,435.195 6.797,0 1.699,8.301 16.004,9.707 -3.703,-18.008 8.601,0 -2.199,-10.195 -8.597,0 -4.504,-21.902 c -0.098,-0.196 -0.2,-0.996 -0.403,-1.797 -0.597,-2.5 -0.801,-3.703 -0.801,-4.903 0,-3.398 3.102,-3.398 4.704,-3.398 0.898,0 4.101,0.301 4.601,0.301 l -2.199,-10.399 c -2.5,-0.5 -4.5,-0.707 -7.402,-0.707 -7,0 -14.2,2.004 -14.2,10.707 0,2.5 0.403,4.598 1.797,11.09 l 4.407,21.008 -6.801,0 2.199,10.195"
             inkscape:connector-curvature="0"
             id="path132"
             style="fill:#254aa5;fill-opacity:1;fill-rule:nonzero;stroke:none" /><path
             d="m 1021.02,407.297 c 0.2,-6.203 0.49,-12.793 14.19,-12.793 5,0 13.6,1.297 13.6,8.797 0,5.097 -4.29,6.894 -12.1,10.293 -12.39,5.398 -21.09,9.211 -21.09,21.601 0,8.606 5.4,21.004 25.5,21.004 13.69,0 25.99,-5.894 27.1,-21.597 l -14.1,-0.704 c -0.8,8.297 -6.41,10.606 -13.1,10.606 -2.5,0 -11.3,0 -11.3,-7.5 0,-5.109 4.8,-7.207 12.99,-10.703 12.3,-5.305 20.71,-9.004 20.71,-21.203 0,-10.496 -8.1,-22.903 -28.3,-22.903 -10.2,0 -23.1,3.207 -26.7,14.407 -1.31,4.101 -1.51,8.093 -1.4,10 l 14,0.695"
             inkscape:connector-curvature="0"
             id="path134"
             style="fill:#254aa5;fill-opacity:1;fill-rule:nonzero;stroke:none" /><path
             d="m 1085.62,383.398 -10.41,51.797 13.71,0 3.7,-22.597 c 0.09,-0.301 0.2,-1.106 0.39,-2.098 0.51,-3.203 1.11,-6.398 1.31,-10.098 l 0.2,0 c 0.29,0.899 0.6,1.395 1.7,3.399 l 1.99,3.601 c 0.8,1.59 2,3.797 3.3,5.996 l 12.9,21.797 15.11,0 -31.9,-51.797 -12,0"
             inkscape:connector-curvature="0"
             id="path136"
             style="fill:#254aa5;fill-opacity:1;fill-rule:nonzero;stroke:none" /><path
             d="m 1156.11,455 -2.7,-12.703 -14,0 2.7,12.703 14,0 z m -4.2,-19.805 -10.8,-51.797 -14,0 10.81,51.797 13.99,0"
             inkscape:connector-curvature="0"
             id="path138"
             style="fill:#254aa5;fill-opacity:1;fill-rule:nonzero;stroke:none" /><path
             d="m 1154.61,392.902 28.4,31.395 -23.2,0 2.3,10.898 40.71,0 -1.71,-8.3 -28.69,-32.098 25,0 -2.41,-11.399 -42.39,0 1.99,9.504"
             inkscape:connector-curvature="0"
             id="path140"
             style="fill:#254aa5;fill-opacity:1;fill-rule:nonzero;stroke:none" /><path
             d="m 1204.61,392.902 28.4,31.395 -23.2,0 2.3,10.898 40.71,0 -1.71,-8.3 -28.69,-32.098 25,0 -2.41,-11.399 -42.39,0 1.99,9.504"
             inkscape:connector-curvature="0"
             id="path142"
             style="fill:#254aa5;fill-opacity:1;fill-rule:nonzero;stroke:none" /><path
             d="m 1294.79,413.496 c 0.3,6.906 -2.2,12.996 -9.5,12.996 -8.1,0 -11.5,-8.094 -12.5,-12.996 l 22,0 z M 1271.39,405 c -0.4,-8.105 4.3,-12.805 10.1,-12.805 7,0 10.1,5.61 10.9,7.2 l 12.6,-2.098 c -6.1,-12.5 -16.4,-15.102 -23.6,-15.102 -14.4,0 -23.5,10.102 -23.5,24.106 0,12.996 8.3,30.191 28.9,30.191 16.4,0 20.7,-12.594 20.7,-22.39 0,-1.407 -0.1,-5.704 -0.9,-9.102 l -35.2,0"
             inkscape:connector-curvature="0"
             id="path144"
             style="fill:#254aa5;fill-opacity:1;fill-rule:nonzero;stroke:none" /><path
             d="m 1334.79,435.195 -2.1,-9.793 0.2,-0.207 c 3.6,5.703 8.8,11.297 15.7,11.297 3,0 5.1,-0.894 6.5,-1.492 l -5.4,-11.504 c -0.8,0.305 -1.9,0.703 -4,0.703 -6.1,0 -10.2,-5.301 -11.1,-6.504 -3.4,-4.394 -4.9,-11.496 -6.3,-18 l -3.4,-16.297 -14,0 10.8,51.797 13.1,0"
             inkscape:connector-curvature="0"
             id="path146"
             style="fill:#254aa5;fill-opacity:1;fill-rule:nonzero;stroke:none" /><path
             d="m 1379.81,425.898 c -12,0 -15.5,-14.597 -15.5,-20.8 0,-5.899 3.4,-12.293 10.7,-12.293 10.1,0 15.2,12.597 15.2,22.097 0,5 -2.8,10.996 -10.4,10.996 z m 0,10.594 c 17.9,0 24.3,-11.59 24.3,-23.394 0,-15.696 -10.7,-30.903 -29.6,-30.903 -16.19,0 -24.09,10.61 -24.09,22.707 0,13.594 7.09,31.59 29.39,31.59"
             inkscape:connector-curvature="0"
             id="path148"
             style="fill:#254aa5;fill-opacity:1;fill-rule:nonzero;stroke:none" /><path
             d="m 27.4023,263.398 -2.6015,59.805 -0.2031,0 L 13.3008,263.398 0,263.398 15,335 l 21,0 2.1016,-50.203 0.1992,0 24.3008,50.203 21.1953,0 -15,-71.602 -13.3946,0 14.1016,59.2 -0.2031,0.207 -28.0039,-59.407 -13.8946,0"
             inkscape:connector-curvature="0"
             id="path150"
             style="fill:#254aa5;fill-opacity:1;fill-rule:nonzero;stroke:none" /><path
             d="m 114.695,305.898 c -11.996,0 -15.4958,-14.597 -15.4958,-20.8 0,-5.899 3.3988,-12.293 10.6988,-12.293 10.102,0 15.2,12.597 15.2,22.097 0,5 -2.797,10.996 -10.403,10.996 z m 0,10.594 c 17.903,0 24.305,-11.59 24.305,-23.394 0,-15.696 -10.699,-30.903 -29.602,-30.903 -16.1988,0 -24.1011,10.61 -24.1011,22.707 0,13.594 7.1015,31.59 29.3981,31.59"
             inkscape:connector-curvature="0"
             id="path152"
             style="fill:#254aa5;fill-opacity:1;fill-rule:nonzero;stroke:none" /><path
             d="m 156.523,263.398 -10.402,51.797 13.699,0 3.7,-22.597 c 0.101,-0.301 0.203,-1.106 0.402,-2.098 0.496,-3.203 1.098,-6.398 1.297,-10.098 l 0.203,0 c 0.301,0.899 0.598,1.395 1.695,3.399 l 2.004,3.601 c 0.801,1.59 2,3.797 3.301,5.996 l 12.898,21.797 15.102,0 -31.902,-51.797 -11.997,0"
             inkscape:connector-curvature="0"
             id="path154"
             style="fill:#254aa5;fill-opacity:1;fill-rule:nonzero;stroke:none" /><path
             d="m 227.02,335 -2.7,-12.703 -14,0 2.703,12.703 13.997,0 z m -4.2,-19.805 -10.8,-51.797 -13.997,0 10.801,51.797 13.996,0"
             inkscape:connector-curvature="0"
             id="path156"
             style="fill:#254aa5;fill-opacity:1;fill-rule:nonzero;stroke:none" /><path
             d="m 249.922,315.195 -1.402,-5.996 0.203,-0.207 c 2.398,2.406 7.898,7.5 16,7.5 4.199,0 11.5,-0.894 13.097,-9.195 3.301,4.805 10.301,9.195 18.2,9.195 9,0 13.101,-5.496 13.101,-12.097 0,-2.5 -0.699,-6.094 -1.301,-9.297 l -6.699,-31.7 -14.004,0 6.606,31.7 c 0.101,0.304 0.3,1.3 0.5,2.199 0.5,2.305 0.797,3.504 0.797,4.5 0,1.797 -0.797,4.695 -5.2,4.695 -3.699,0 -7.101,-2.5 -9.5,-5.789 -2.8,-3.906 -4.199,-10.203 -4.898,-13.808 l -4.899,-23.497 -14.101,0 6.801,32.2 c 0.699,3.601 0.898,4.5 0.898,6.199 0,3 -2.203,4.695 -5.199,4.695 -4.305,0 -7.801,-3.492 -9.504,-5.789 -2.5,-3.508 -3.297,-7.5 -4.598,-13.508 l -5,-23.797 -14,0 10.903,51.797 13.199,0"
             inkscape:connector-curvature="0"
             id="path158"
             style="fill:#254aa5;fill-opacity:1;fill-rule:nonzero;stroke:none" /><path
             d="m 353.617,293.496 c 0.305,6.906 -2.195,12.996 -9.496,12.996 -8.101,0 -11.5,-8.094 -12.5,-12.996 l 21.996,0 z M 330.219,285 c -0.399,-8.105 4.301,-12.805 10.101,-12.805 7,0 10.102,5.61 10.903,7.2 l 12.593,-2.098 c -6.097,-12.5 -16.394,-15.102 -23.597,-15.102 -14.399,0 -23.5,10.102 -23.5,24.106 0,12.996 8.301,30.191 28.902,30.191 16.399,0 20.695,-12.594 20.695,-22.39 0,-1.407 -0.093,-5.704 -0.894,-9.102 l -35.203,0"
             inkscape:connector-curvature="0"
             id="path160"
             style="fill:#254aa5;fill-opacity:1;fill-rule:nonzero;stroke:none" /><path
             d="m 394.418,315.195 -1.395,-6.496 0.2,-0.203 c 4.097,3.699 9.898,7.996 18.297,7.996 10.3,0 13.699,-7.195 13.699,-13.394 0,-2.793 -0.699,-6.399 -1.496,-10.293 l -6.203,-29.407 -14,0 6.203,29.504 c 0,0.196 0.097,0.899 0.297,1.602 0.199,0.801 0.402,1.797 0.402,1.988 0.598,2.805 0.598,3.508 0.598,4.211 0,5.293 -4.5,5.789 -6,5.789 -4.297,0 -8.704,-3.59 -11.297,-6.988 -2.606,-3.606 -3.2,-6.906 -4.907,-14.809 l -4.496,-21.297 -14,0 10.903,51.797 13.195,0"
             inkscape:connector-curvature="0"
             id="path162"
             style="fill:#254aa5;fill-opacity:1;fill-rule:nonzero;stroke:none" /><path
             d="m 437.117,315.195 6.805,0 1.699,8.301 16,9.707 -3.699,-18.008 8.598,0 -2.2,-10.195 -8.601,0 -4.496,-21.902 c -0.106,-0.196 -0.203,-0.996 -0.403,-1.797 -0.601,-2.5 -0.8,-3.703 -0.8,-4.903 0,-3.398 3.101,-3.398 4.703,-3.398 0.898,0 4.093,0.301 4.597,0.301 l -2.203,-10.399 c -2.5,-0.5 -4.496,-0.707 -7.394,-0.707 -7.004,0 -14.203,2.004 -14.203,10.707 0,2.5 0.398,4.598 1.8,11.09 l 4.399,21.008 -6.797,0 2.195,10.195"
             inkscape:connector-curvature="0"
             id="path164"
             style="fill:#254aa5;fill-opacity:1;fill-rule:nonzero;stroke:none" /><path
             d="m 516.621,306.094 11.195,0 c 5.704,0 9.2,0.304 12.301,1.601 3.203,1.297 5.199,4.903 5.199,8.203 0,7.102 -6.593,7.102 -13.796,7.102 l -11.403,0 -3.496,-16.906 z m -6.504,-30.692 14.203,0 c 6.2,0 8.7,0.196 11.7,1.09 4,1.203 7,5.305 7,9.406 0,8.204 -9.204,8.204 -11.399,8.204 l -17.601,0 -3.903,-18.7 z m -2.195,59.598 24.496,0 c 7.699,0 12.699,-0.098 17.699,-2.195 8.301,-3.508 9.801,-10.61 9.801,-15.207 0,-12.598 -10.699,-15.996 -13.602,-16.797 l 0,-0.203 c 8.602,-2.297 11.704,-8.801 11.704,-14.106 0,-8.094 -4.899,-16.695 -12.2,-20 -6.8,-3.094 -13.402,-3.094 -19.101,-3.094 l -33.797,0 15,71.602"
             inkscape:connector-curvature="0"
             id="path166"
             style="fill:#254aa5;fill-opacity:1;fill-rule:nonzero;stroke:none" /><path
             d="m 598.02,287.598 c -0.903,-0.301 -1.301,-0.403 -3.301,-0.594 -8.602,-1.106 -16.102,-2.402 -16.102,-8.508 0,-2.695 1.903,-5.801 6.403,-5.801 9.898,0 11.796,8.797 12.699,13.008 l 0.301,1.895 z m -27.004,14.101 c 4.004,11.699 14.3,14.793 23.601,14.793 18.297,0 19.699,-10.789 19.699,-13.894 0,-3.7 -0.699,-6.797 -2.699,-15.801 -0.199,-0.801 -1.203,-5.195 -1.301,-6.094 -0.8,-3.406 -1.398,-7.004 -1.398,-9.902 0,-2.996 0.398,-4.805 1.102,-7.403 l -13.602,0 c -0.699,2.403 -0.805,3.301 -1.004,5.899 -4.801,-5.399 -10.695,-7.102 -15.098,-7.102 -7.996,0 -14.902,5.5 -14.902,15.102 0,15.508 14.406,16.695 21.106,17.207 5.496,0.496 10.597,0.996 13.398,1.988 0.301,0.91 0.898,2.903 0.898,4.707 0,3.801 -3.496,5.293 -7.199,5.293 -4.199,0 -7.699,-1.492 -8.898,-5.894 l -13.703,1.101"
             inkscape:connector-curvature="0"
             id="path168"
             style="fill:#254aa5;fill-opacity:1;fill-rule:nonzero;stroke:none" /><path
             d="m 626.016,315.195 6.8,0 1.7,8.301 16.004,9.707 -3.704,-18.008 8.598,0 -2.195,-10.195 -8.602,0 -4.5,-21.902 c -0.097,-0.196 -0.199,-0.996 -0.398,-1.797 -0.602,-2.5 -0.801,-3.703 -0.801,-4.903 0,-3.398 3.098,-3.398 4.699,-3.398 0.899,0 4.102,0.301 4.602,0.301 l -2.203,-10.399 c -2.5,-0.5 -4.496,-0.707 -7.399,-0.707 -7,0 -14.199,2.004 -14.199,10.707 0,2.5 0.402,4.598 1.797,11.09 l 4.398,21.008 -6.797,0 2.2,10.195"
             inkscape:connector-curvature="0"
             id="path170"
             style="fill:#254aa5;fill-opacity:1;fill-rule:nonzero;stroke:none" /><path
             d="m 659.316,315.195 6.801,0 1.699,8.301 16,9.707 -3.699,-18.008 8.598,0 -2.195,-10.195 -8.606,0 -4.496,-21.902 c -0.102,-0.196 -0.199,-0.996 -0.398,-1.797 -0.602,-2.5 -0.801,-3.703 -0.801,-4.903 0,-3.398 3.097,-3.398 4.699,-3.398 0.898,0 4.098,0.301 4.602,0.301 l -2.204,-10.399 c -2.5,-0.5 -4.504,-0.707 -7.398,-0.707 -7,0 -14.203,2.004 -14.203,10.707 0,2.5 0.398,4.598 1.801,11.09 l 4.402,21.008 -6.805,0 2.203,10.195"
             inkscape:connector-curvature="0"
             id="path172"
             style="fill:#254aa5;fill-opacity:1;fill-rule:nonzero;stroke:none" /><path
             d="m 720.215,287.598 c -0.899,-0.301 -1.297,-0.403 -3.301,-0.594 -8.598,-1.106 -16.098,-2.402 -16.098,-8.508 0,-2.695 1.899,-5.801 6.403,-5.801 9.894,0 11.797,8.797 12.699,13.008 l 0.297,1.895 z m -26.996,14.101 c 4,11.699 14.297,14.793 23.597,14.793 18.301,0 19.7,-10.789 19.7,-13.894 0,-3.7 -0.7,-6.797 -2.704,-15.801 -0.195,-0.801 -1.195,-5.195 -1.296,-6.094 -0.801,-3.406 -1.399,-7.004 -1.399,-9.902 0,-2.996 0.399,-4.805 1.102,-7.403 l -13.602,0 c -0.703,2.403 -0.801,3.301 -1,5.899 -4.801,-5.399 -10.703,-7.102 -15.101,-7.102 -8,0 -14.899,5.5 -14.899,15.102 0,15.508 14.399,16.695 21.098,17.207 5.5,0.496 10.601,0.996 13.398,1.988 0.305,0.91 0.907,2.903 0.907,4.707 0,3.801 -3.504,5.293 -7.204,5.293 -4.199,0 -7.703,-1.492 -8.902,-5.894 l -13.695,1.101"
             inkscape:connector-curvature="0"
             id="path174"
             style="fill:#254aa5;fill-opacity:1;fill-rule:nonzero;stroke:none" /><path
             d="m 754.516,280.098 c 1.699,-4.297 4.296,-8.203 11.796,-8.203 5,0 9.704,2.5 9.704,6.007 0,2.801 -1,3.094 -10.602,6.395 -8.797,3 -16.699,5.703 -16.699,15.398 0,8.703 7.597,16.797 23.597,16.797 7.301,0 18.903,-1.492 21.606,-13.59 l -13,-2.304 c -2.203,6.199 -9.203,6.199 -10.801,6.199 -5.801,0 -8.203,-2.293 -8.203,-4.793 0,-3.106 2.602,-3.906 9.801,-6.008 7.801,-2.297 18.601,-5.398 18.601,-15.594 0,-7.004 -5.398,-18.207 -23.699,-18.207 -13.301,0 -22.402,4.602 -25.699,15.707 l 13.598,2.196"
             inkscape:connector-curvature="0"
             id="path176"
             style="fill:#254aa5;fill-opacity:1;fill-rule:nonzero;stroke:none" /><path
             d="m 837.016,293.496 c 0.296,6.906 -2.204,12.996 -9.5,12.996 -8.102,0 -11.5,-8.094 -12.5,-12.996 l 22,0 z M 813.617,285 c -0.398,-8.105 4.297,-12.805 10.098,-12.805 7.004,0 10.097,5.61 10.898,7.2 l 12.606,-2.098 c -6.102,-12.5 -16.403,-15.102 -23.602,-15.102 -14.402,0 -23.5,10.102 -23.5,24.106 0,12.996 8.301,30.191 28.899,30.191 16.398,0 20.703,-12.594 20.703,-22.39 0,-1.407 -0.106,-5.704 -0.907,-9.102 l -35.195,0"
             inkscape:connector-curvature="0"
             id="path178"
             style="fill:#254aa5;fill-opacity:1;fill-rule:nonzero;stroke:none" /><path
             d="m 877.816,315.195 -1.398,-6.496 0.199,-0.203 c 4.102,3.699 9.899,7.996 18.301,7.996 10.297,0 13.699,-7.195 13.699,-13.394 0,-2.793 -0.703,-6.399 -1.504,-10.293 l -6.195,-29.407 -14.004,0 6.199,29.504 c 0,0.196 0.106,0.899 0.305,1.602 0.199,0.801 0.394,1.797 0.394,1.988 0.602,2.805 0.602,3.508 0.602,4.211 0,5.293 -4.496,5.789 -5.996,5.789 -4.301,0 -8.699,-3.59 -11.305,-6.988 -2.597,-3.606 -3.195,-6.906 -4.894,-14.809 l -4.504,-21.297 -14,0 10.898,51.797 13.203,0"
             inkscape:connector-curvature="0"
             id="path180"
             style="fill:#254aa5;fill-opacity:1;fill-rule:nonzero;stroke:none" /><path
             d="m 939.918,272.805 c 10.297,0 14.297,13.289 14.297,20.789 0,6.601 -4,12.109 -10,12.109 -9,0 -14,-12.109 -14,-21.199 0,-6.406 3.398,-11.699 9.703,-11.699 z m 9.801,-9.407 1.195,5.403 -0.199,0.191 c -2.703,-2.793 -7.703,-6.797 -16.102,-6.797 -11.097,0 -17.996,7.805 -17.996,21.703 0,16.7 10.098,32.594 25.602,32.594 10.398,0 14.398,-6.394 15.695,-8.289 l 5.602,26.797 14,0 -15,-71.602 -12.797,0"
             inkscape:connector-curvature="0"
             id="path182"
             style="fill:#254aa5;fill-opacity:1;fill-rule:nonzero;stroke:none" /><path
             d="m 1009.21,287.598 c -0.89,-0.301 -1.29,-0.403 -3.3,-0.594 -8.598,-1.106 -16.098,-2.402 -16.098,-8.508 0,-2.695 1.903,-5.801 6.403,-5.801 9.895,0 11.795,8.797 12.705,13.008 l 0.29,1.895 z m -26.999,14.101 c 4.004,11.699 14.305,14.793 23.609,14.793 18.3,0 19.69,-10.789 19.69,-13.894 0,-3.7 -0.7,-6.797 -2.7,-15.801 -0.2,-0.801 -1.19,-5.195 -1.3,-6.094 -0.8,-3.406 -1.4,-7.004 -1.4,-9.902 0,-2.996 0.4,-4.805 1.11,-7.403 l -13.61,0 c -0.7,2.403 -0.79,3.301 -0.99,5.899 -4.8,-5.399 -10.706,-7.102 -15.104,-7.102 -8,0 -14.899,5.5 -14.899,15.102 0,15.508 14.399,16.695 21.098,17.207 5.495,0.496 10.605,0.996 13.395,1.988 0.31,0.91 0.91,2.903 0.91,4.707 0,3.801 -3.5,5.293 -7.21,5.293 -4.19,0 -7.697,-1.492 -8.896,-5.894 l -13.703,1.101"
             inkscape:connector-curvature="0"
             id="path184"
             style="fill:#254aa5;fill-opacity:1;fill-rule:nonzero;stroke:none" /><path
             d="m 1043.52,280.098 c 1.69,-4.297 4.29,-8.203 11.79,-8.203 5,0 9.7,2.5 9.7,6.007 0,2.801 -1,3.094 -10.6,6.395 -8.79,3 -16.7,5.703 -16.7,15.398 0,8.703 7.6,16.797 23.6,16.797 7.3,0 18.9,-1.492 21.61,-13.59 l -13.01,-2.304 c -2.2,6.199 -9.2,6.199 -10.79,6.199 -5.8,0 -8.21,-2.293 -8.21,-4.793 0,-3.106 2.61,-3.906 9.8,-6.008 7.81,-2.297 18.61,-5.398 18.61,-15.594 0,-7.004 -5.4,-18.207 -23.7,-18.207 -13.31,0 -22.41,4.602 -25.71,15.707 l 13.61,2.196"
             inkscape:connector-curvature="0"
             id="path186"
             style="fill:#254aa5;fill-opacity:1;fill-rule:nonzero;stroke:none" /><path
             d="m 1131.11,287.297 c 0.2,-6.203 0.51,-12.793 14.2,-12.793 5,0 13.61,1.297 13.61,8.797 0,5.097 -4.31,6.894 -12.1,10.293 -12.41,5.398 -21.11,9.211 -21.11,21.601 0,8.606 5.4,21.004 25.51,21.004 13.69,0 25.99,-5.894 27.1,-21.597 l -14.11,-0.704 c -0.8,8.297 -6.4,10.606 -13.1,10.606 -2.5,0 -11.3,0 -11.3,-7.5 0,-5.109 4.8,-7.207 13,-10.703 12.3,-5.305 20.71,-9.004 20.71,-21.203 0,-10.496 -8.1,-22.903 -28.31,-22.903 -10.2,0 -23.1,3.207 -26.69,14.407 -1.31,4.101 -1.5,8.093 -1.41,10 l 14,0.695"
             inkscape:connector-curvature="0"
             id="path188"
             style="fill:#254aa5;fill-opacity:1;fill-rule:nonzero;stroke:none" /><path
             d="m 1195.71,263.398 -10.4,51.797 13.7,0 3.7,-22.597 c 0.1,-0.301 0.21,-1.106 0.41,-2.098 0.49,-3.203 1.09,-6.398 1.29,-10.098 l 0.2,0 c 0.3,0.899 0.6,1.395 1.7,3.399 l 2.01,3.601 c 0.79,1.59 1.99,3.797 3.29,5.996 l 12.9,21.797 15.1,0 -31.9,-51.797 -12,0"
             inkscape:connector-curvature="0"
             id="path190"
             style="fill:#254aa5;fill-opacity:1;fill-rule:nonzero;stroke:none" /><path
             d="m 1266.22,335 -2.7,-12.703 -14.01,0 2.7,12.703 14.01,0 z m -4.21,-19.805 -10.79,-51.797 -14.01,0 10.8,51.797 14,0"
             inkscape:connector-curvature="0"
             id="path192"
             style="fill:#254aa5;fill-opacity:1;fill-rule:nonzero;stroke:none" /><path
             d="m 1264.71,272.902 28.41,31.395 -23.21,0 2.3,10.898 40.71,0 -1.7,-8.3 -28.71,-32.098 25,0 -2.4,-11.399 -42.4,0 2,9.504"
             inkscape:connector-curvature="0"
             id="path194"
             style="fill:#254aa5;fill-opacity:1;fill-rule:nonzero;stroke:none" /><path
             d="m 1338.32,315.195 -2.1,-9.793 0.19,-0.207 c 3.6,5.703 8.8,11.297 15.7,11.297 3,0 5.1,-0.894 6.5,-1.492 l -5.4,-11.504 c -0.8,0.305 -1.9,0.703 -4,0.703 -6.09,0 -10.2,-5.301 -11.09,-6.504 -3.41,-4.394 -4.91,-11.496 -6.31,-18 l -3.4,-16.297 -14,0 10.8,51.797 13.11,0"
             inkscape:connector-curvature="0"
             id="path196"
             style="fill:#254aa5;fill-opacity:1;fill-rule:nonzero;stroke:none" /><path
             d="m 1387.21,287.598 c -0.9,-0.301 -1.3,-0.403 -3.3,-0.594 -8.6,-1.106 -16.1,-2.402 -16.1,-8.508 0,-2.695 1.9,-5.801 6.4,-5.801 9.9,0 11.8,8.797 12.7,13.008 l 0.3,1.895 z m -27,14.101 c 4,11.699 14.3,14.793 23.6,14.793 18.3,0 19.7,-10.789 19.7,-13.894 0,-3.7 -0.7,-6.797 -2.7,-15.801 -0.2,-0.801 -1.2,-5.195 -1.3,-6.094 -0.8,-3.406 -1.4,-7.004 -1.4,-9.902 0,-2.996 0.4,-4.805 1.1,-7.403 l -13.6,0 c -0.7,2.403 -0.8,3.301 -1,5.899 -4.8,-5.399 -10.7,-7.102 -15.1,-7.102 -8,0 -14.9,5.5 -14.9,15.102 0,15.508 14.4,16.695 21.1,17.207 5.5,0.496 10.6,0.996 13.4,1.988 0.3,0.91 0.9,2.903 0.9,4.707 0,3.801 -3.5,5.293 -7.2,5.293 -4.2,0 -7.7,-1.492 -8.9,-5.894 l -13.7,1.101"
             inkscape:connector-curvature="0"
             id="path198"
             style="fill:#254aa5;fill-opacity:1;fill-rule:nonzero;stroke:none" /><path
             d="m 1449.85,198.738 1553.75,0 0,547.516 -1553.75,0 0,-547.516 z"
             inkscape:connector-curvature="0"
             id="path200"
             style="fill:#ed1c24;fill-opacity:1;fill-rule:nonzero;stroke:none" /><path
             d="m 2306.1,988.754 c 201.25,-72.5 447.5,-246.25 536.25,-332.5 -6.25,-153.75 -80,-372.516 -101.25,-412.516 -145,-2.5 -432.5,32.5 -547.5,50 -32.5,201.266 -35,448.766 112.5,695.016"
             inkscape:connector-curvature="0"
             id="path202"
             style="fill:#2350a9;fill-opacity:1;fill-rule:nonzero;stroke:none" /><path
             d="m 1588.6,647.504 c 188.75,48.75 338.75,75 563.75,70 -17.5,-203.75 -22.5,-371.266 36.25,-578.766 C 2083.6,71.2383 1884.85,9.98828 1797.35,-0.0117188 1617.35,326.238 1654.85,373.738 1588.6,647.504"
             inkscape:connector-curvature="0"
             id="path204"
             style="fill:#00a650;fill-opacity:1;fill-rule:nonzero;stroke:none" /><path
             d="m 2584.1,782.262 c 17.99,-1.008 35,-1.008 47,-13.008 12,-13 17,-28 15,-46.992 -3,-35 -30,-60 -51,-87.004 l -56,-74.004 c -4,-5 2,-8.992 6,-12 44,23.008 75,77 123,90 13.99,5 31,4.004 42,-3.996 50,-52 -14,-110 9,-171.02 2.99,-34.004 17.99,-78 -18,-99.004 -70,-23.996 -113,55 -167,88.008 -9,4.004 -17.01,0 -23,-8.008 -6,-47.988 -3,-98.996 29,-133.996 -1,-8.992 -7,-17 -12,-23.992 -46.01,35.996 -36.01,100 -41.01,155.996 -5.99,10 -17.99,17.996 -30,14.004 -50.99,-35 -98.99,-110 -167.99,-76.008 -44,32.004 -14,86.008 -18,131.024 3,41.992 -30,100.996 20,125.996 50.99,15.996 87,-34.004 128,-55.996 15,-8.008 29,-31.008 45,-24.004 l -4,12 c -41,55.996 -124,105 -94,182.004 8,12.996 20.99,27.996 35.99,30 59.01,-6.008 125,-15 182.01,0"
             inkscape:connector-curvature="0"
             id="path206"
             style="fill:#fff200;fill-opacity:1;fill-rule:nonzero;stroke:none" /><path
             d="m 2625.1,745.258 c 11.99,-47 -30,-77 -55,-112 -19,-28 -58.01,-53 -47,-90 8.99,-10.996 22,-14.004 35,-10 42,25.996 73,75.996 120,90 13.99,2.996 27,-5 31,-17.004 2,-48.992 -22.01,-97.996 -8,-150.016 0.99,-22 14,-48.992 -1,-68.992 -11,-10 -29,-12.012 -41,-6.008 -48,20 -81,75 -130,93.012 l -19,-5.012 c -3.01,12.012 5,19.02 6.99,29.02 l 154.01,2 c 5,5 9,13 3,18 l -6,5 -151.01,0 -7.99,10.996 1,185 c -4,5 -10,9.004 -17,6.004 l -5,-5 3,-187 -11,-10.996 -157,0.996 c -8,-5.996 -6.01,-15 -2,-22.004 52,-3.992 107,-0.996 160.99,-2 1.01,-10 8.01,-18.004 5,-29.02 -53.99,25.024 -85,-50 -130,-68.996 -13.99,-10 -33.99,-12.996 -50.99,-7.996 -12,4.004 -17,17.996 -21,27.996 -3.01,30 6.99,58.008 6,89.02 7,38 -33,93.996 15,113.996 l 19,-3 c 44,-23.992 84,-58.992 126.99,-85 14.01,-3.992 25,5 30,16.008 7.01,16.992 -8.99,27.996 -17.99,40.996 -34,49.004 -114,95 -74,160 13,17 39,9.004 56,7.996 43,-10 95.99,-8.992 137,3 17,1.004 33.99,-3.996 42,-18.996"
             inkscape:connector-curvature="0"
             id="path208"
             style="fill:#2056ae;fill-opacity:1;fill-rule:nonzero;stroke:none" /><path
             d="m 2506.1,509.254 c -1,-3 -3,-5.996 -6,-8.996 -3.01,0.996 -4,3.996 -7,5.996 l 6,9.004 c 2.99,-1.004 5,-4.004 7,-6.004"
             inkscape:connector-curvature="0"
             id="path210"
             style="fill:#2056ae;fill-opacity:1;fill-rule:nonzero;stroke:none" /><path
             d="m 1991.1,512.262 c -21,-60.016 -71,-111.024 -56,-183.024 6,10.996 3,29.004 8,43.008 8,40.996 38,82.988 81,95 31,7.004 64,0 87.99,-22.012 12.01,-10.996 15,-26.992 15,-42.988 -0.99,-35 -42.99,-65 -13.99,-99.004 -19,-2.004 -40,-5.996 -56.01,5 -13.99,20 -28.99,50.996 -57.99,45 -9,-5.996 -17.01,-13.008 -20,-23.008 5,-7.988 16,-11.992 19,-22.988 3,-11.008 -1.01,-21.008 -6.01,-30 -10.99,-16.008 -30.99,-9.004 -46.99,-11.008 -4,-8.992 6.99,-17 14,-20 22.99,-12 55,-8.992 70,-33.992 7.99,-19.004 6,-45 -7.01,-61.008 -18.99,3 -38.99,5 -57.99,-1.004 5,-16.992 10,-40.996 -2.01,-57.9762 -15,-21.0195 -36.99,-30 -53.99,-48.0078 -23,26.9883 -72,44.0039 -60,86.988 l 6,16.008 c -16,6.992 -40,8.992 -58,2.988 -15,15 -17,45 -7,65 21,29.004 62.99,15 84,44.004 l 0,5.996 c -16.01,3.008 -35,-2.988 -47,10 -5,9.004 -11,19.004 -7,31.004 -3,17.004 32.99,15 14,33 -8,10 -18,19.004 -31.01,14.004 -35,-12.004 -35,-67.004 -80.99,-52.004 -6,1.008 -11,3.996 -15,7.004 32,47.996 -47,84.004 -6,131.992 21.99,22.012 50,33.02 81.99,28.008 38.01,-5.996 72.01,-35 85,-72.004 8.01,-21.004 9.01,-45 13.01,-67 l 3,0.996 c 8.99,63.008 -22,112.012 -50,162.028 -37,80.996 42,136.992 75,200.996 31,-58 98,-107.004 83,-180.996"
             inkscape:connector-curvature="0"
             id="path212"
             style="fill:#fff200;fill-opacity:1;fill-rule:nonzero;stroke:none" /><path
             d="m 1973.1,517.262 c -27,-60.016 -68,-114.02 -58,-190.016 l -12,0 c 7,65.996 -21.01,118.992 -52,171.012 -32,62.996 29,110.996 57,160.996 26,-45.996 76,-83.996 65,-141.992"
             inkscape:connector-curvature="0"
             id="path214"
             style="fill:#00a650;fill-opacity:1;fill-rule:nonzero;stroke:none" /><path
             d="m 2097.09,434.238 c 12.01,-10.996 13.01,-30 9.01,-45 -13,-20.996 -24.01,-43 -21,-69.004 -29,0 -32,45 -63.01,51.004 -12.99,5 -28.99,1.008 -40,-6.004 -11.99,-10 -20,-23.996 -23.99,-37.988 -1.01,36.992 8,73.992 33.99,100.996 27.01,25.996 76.01,31.992 105,5.996"
             inkscape:connector-curvature="0"
             id="path216"
             style="fill:#00a650;fill-opacity:1;fill-rule:nonzero;stroke:none" /><path
             d="m 1836.1,415.234 c 15,-25.996 24,-53.996 24,-85.996 -6,17 -24,40 -46,44.004 -30,1.992 -52.01,-27.004 -66,-50 -6.01,-0.996 -10,-5.996 -17,-4.004 15.99,45 -52,75 -9.01,115.996 18.01,13.008 41.01,18.008 65,14.004 18.01,-6.992 37.01,-16.992 49.01,-34.004"
             inkscape:connector-curvature="0"
             id="path218"
             style="fill:#00a650;fill-opacity:1;fill-rule:nonzero;stroke:none" /><path
             d="m 1975.1,307.246 c 6,-4.004 6,-13.008 1.99,-18.008 l -7.99,-4.004 -125,0 c -8,3.008 -8,12.012 -6,18.008 l 5,5 132,-0.996"
             inkscape:connector-curvature="0"
             id="path220"
             style="fill:#00a650;fill-opacity:1;fill-rule:nonzero;stroke:none" /><path
             d="m 1925.1,265.234 c 4,-43.996 54,-40.996 84,-55 9,-10 6,-26.992 2.99,-38.996 -25.99,5 -50.99,-2 -73.99,-7.996 2,-18.008 18.99,-35.996 11,-55.996 -10,-16.0077 -26,-26.0077 -40,-36.0077 -16,11.0195 -38,23.0117 -43,42.9997 -3,19.004 9,30.996 14,47 -22,7.004 -48.01,15 -75,10 -4,10 -5,25 1,33.996 27,21.004 80.99,13.008 85.99,60 l 33.01,0"
             inkscape:connector-curvature="0"
             id="path222"
             style="fill:#00a650;fill-opacity:1;fill-rule:nonzero;stroke:none" /></g></g></g></g></svg>