<?xml version="1.0" encoding="UTF-8" standalone="no"?>
<svg width="153px" height="170px" viewBox="0 0 153 170" version="1.1" xmlns="http://www.w3.org/2000/svg" xmlns:xlink="http://www.w3.org/1999/xlink" xmlns:sketch="http://www.bohemiancoding.com/sketch/ns">
    <!-- Generator: Sketch 3.2.2 (9983) - http://www.bohemiancoding.com/sketch -->
    <title>logo-you</title>
    <desc>Created with Sketch.</desc>
    <defs></defs>
    <g id="Page-1" stroke="none" stroke-width="1" fill="none" fill-rule="evenodd" sketch:type="MSPage">
        <g id="Artboard-5" sketch:type="MSArtboardGroup" transform="translate(-965.000000, -4195.000000)">
            <g id="Rectangle-74-+-Rectangle-77" sketch:type="MSLayerGroup" transform="translate(811.000000, 4142.000000)">
                <g id="logo-you" transform="translate(155.000000, 55.000000)" sketch:type="MSShapeGroup">
                    <path d="M75.2715195,166.122305 C126.191559,166.122305 149.739847,142.678947 149.739847,91.9858057 C149.739847,41.2926645 126.191559,0.197758454 75.2715195,0.197758454 C24.3514803,0.197758454 0.803191489,41.2926645 0.803191489,91.9858057 C0.803191489,142.678947 24.3514803,166.122305 75.2715195,166.122305 Z" id="Oval-2-copy" stroke="#D8DBE1" stroke-width="3" stroke-dasharray="8"></path>
                    <path d="M39.84238,124.138419 C47.3604188,132.343142 60.4128341,143.648811 75.2558563,143.648811 C90.2692913,143.648811 103.450768,132.082051 110.926082,123.857072 C115.050182,119.319386 113.944815,116.759422 108.513375,117.924822 C100.138195,119.721846 87.1532379,122.005848 75.2558563,122.005848 C61.9732842,122.005849 49.7144757,119.855856 41.8752079,118.08659 C36.3946541,116.849668 35.560776,119.465741 39.84238,124.138419 Z" id="Oval-33" fill="#D8DBE1"></path>
                    <path d="M50.7777289,77.5618859 C48.9115618,81.7137615 45.8152573,84.8565749 41.3933287,87.4262263 C40.9216828,87.6736239 40.4299061,87.8155002 39.9046165,87.8155002 C38.8888848,87.8155002 37.9756683,87.3083032 37.531539,86.4664527 C37.2727197,86.0265859 37.1192484,85.5655293 37.1192484,85.0858056 C37.1192484,84.1211124 37.6910487,83.2606807 38.6028293,82.8306964 C41.7677858,81.2486719 44.282373,78.7545555 45.6780737,75.9307917 C47.3332641,72.6315745 47.9032727,69.9636384 47.9032727,64.9214693 C47.9032727,63.4335451 49.1814936,62.5661126 50.6886407,62.5661126 C52.1365054,62.5661126 53.3947144,63.4619573 53.3947144,64.9214693 C53.3947144,69.9210345 53.9628691,72.4512277 55.6843483,75.6773669 C57.1358081,78.4182272 59.9071243,81.1103099 63.0057714,82.739797 C63.9106503,83.1669784 64.3637587,84.04043 64.3637587,84.9610263 C64.3637587,85.4532529 64.2116383,85.9494225 63.9514681,86.3915851 L63.8842673,86.4956445 C63.3392323,87.2675561 62.5092593,87.6907209 61.5783906,87.6907209 C61.0570601,87.6907209 60.5315534,87.5470929 60.0092369,87.2717957 C55.9491199,84.941229 52.713548,81.6133573 50.7777289,77.5618859 Z M99.8377608,78.3170007 C97.9715936,82.4688763 94.8752891,85.6116897 90.4533605,88.1813411 C89.9817146,88.4287386 89.489938,88.570615 88.9646483,88.570615 C87.9489166,88.570615 87.0357002,88.063418 86.5915709,87.2215674 C86.3327515,86.7817007 86.1792803,86.3206441 86.1792803,85.8409204 C86.1792803,84.8762271 86.7510805,84.0157955 87.6628611,83.5858112 C90.8278176,82.0037867 93.3424048,79.5096703 94.7381056,76.6859065 C96.3932959,73.3866892 96.9633045,70.7187532 96.9633045,65.6765841 C96.9633045,64.1886599 98.2415255,63.3212274 99.7486725,63.3212274 C101.196537,63.3212274 102.454746,64.217072 102.454746,65.6765841 C102.454746,70.6761493 103.022901,73.2063425 104.74438,76.4324817 C106.19584,79.173342 108.967156,81.8654246 112.065803,83.4949118 C112.970682,83.9220931 113.423791,84.7955447 113.423791,85.7161411 C113.423791,86.2083677 113.27167,86.7045373 113.0115,87.1466998 L112.944299,87.2507593 C112.399264,88.0226708 111.569291,88.4458357 110.638422,88.4458357 C110.117092,88.4458357 109.591585,88.3022076 109.069269,88.0269104 C105.009152,85.6963437 101.77358,82.3684721 99.8377608,78.3170007 Z" id="人-人-copy" fill="#D8DBE1"></path>
                </g>
            </g>
        </g>
    </g>
</svg>