<?xml version="1.0" encoding="UTF-8" standalone="no"?>
<svg width="142px" height="192px" viewBox="0 0 142 192" version="1.1" xmlns="http://www.w3.org/2000/svg" xmlns:xlink="http://www.w3.org/1999/xlink" xmlns:sketch="http://www.bohemiancoding.com/sketch/ns">
    <!-- Generator: Sketch 3.2.2 (9983) - http://www.bohemiancoding.com/sketch -->
    <title>logo-cevi-1</title>
    <desc>Created with Sketch.</desc>
    <defs></defs>
    <g id="Page-1" stroke="none" stroke-width="1" fill="none" fill-rule="evenodd" sketch:type="MSPage">
        <g id="Artboard-5" sketch:type="MSArtboardGroup" transform="translate(-954.000000, -3701.000000)">
            <g id="logo-cevi-1" sketch:type="MSLayerGroup" transform="translate(953.000000, 3701.000000)">
                <g id="Group-+-CEVI" sketch:type="MSShapeGroup">
                    <g id="Group" transform="translate(0.000000, 54.889596)">
                        <g id="Shape">
                            <path d="M2.49369106,51.9364676 C2.31998969,51.2861803 2.21435215,50.6164951 2.15275592,49.937573 L15.7242534,63.4864577 C8.38598647,60.870529 3.82694147,56.9109195 2.49369106,51.9364676 L2.49369106,51.9364676 L2.49369106,51.9364676 Z" fill="#00499A"></path>
                            <path d="M89.5026784,97.8411506 C80.0008439,100.573158 70.4759107,102.266923 61.4825531,102.943074 L95.1221025,136.524627 L107.06592,91.9771721 C101.777883,94.046884 95.9456441,95.9891248 89.5026784,97.8411506 L89.5026784,97.8411506 L89.5026784,97.8411506 Z" fill="#D60038"></path>
                            <path d="M119.447378,42.2785305 C107.191268,50.2805749 92.1861181,57.1661696 78.2290283,61.1778144 C59.0350269,66.6963277 39.4954707,68.4051794 24.5719359,65.8813132 L1.77671094,43.1249509 L128.336022,9.11849423 L119.447378,42.2785305 L119.447378,42.2785305 Z" fill="#D60038"></path>
                            <path d="M138.027265,66.2708083 C128.44012,77.9981494 113.082639,86.4189395 88.2701378,93.5530105 C62.9602467,100.828716 37.7067161,100.603948 23.9353389,92.9806221 C19.0886395,90.2981868 16.0504054,86.9131209 14.9053315,82.9230292 L7.64652372,64.9175825 C7.919703,65.0835412 8.19288229,65.2522711 8.46513762,65.4025269 C23.3212245,73.6265681 51.1996784,73.6887641 79.4874393,65.5564775 C102.120358,59.0492934 125.853694,45.8788193 138.026649,33.1791261 L138.026649,66.2708083 L138.027265,66.2708083 L138.027265,66.2708083 Z" fill="#003973"></path>
                            <path d="M95.1221025,13.4716015 L6.72535209,37.0817739 C15.8237313,24.0994274 37.1837641,11.3273775 61.8847765,4.22655986 C68.8254398,2.23136004 84.3381424,-0.274955777 95.1221025,0.127471099 L95.1221025,13.4716015 L95.1221025,13.4716015 Z" fill="#003973"></path>
                        </g>
                    </g>
                    <path d="M106.241738,13.4777641 L106.419938,12.3095641 L106.340738,12.2303641 C106.155937,12.3755648 105.928239,12.5438631 105.657638,12.7352641 C105.387037,12.926665 105.08344,13.1048633 104.746838,13.2698641 C104.410236,13.4348649 104.04064,13.5767635 103.638038,13.6955641 C103.235436,13.8143647 102.79654,13.8737641 102.321338,13.8737641 C101.542534,13.8737641 100.819841,13.7483653 100.153238,13.4975641 C99.4866345,13.2467628 98.9058404,12.8606667 98.4108379,12.3392641 C97.9158354,11.8178615 97.5297393,11.1578681 97.2525379,10.3592641 C96.9753365,9.5606601 96.8367379,8.61356957 96.8367379,7.51796409 C96.8367379,6.42235861 96.9753365,5.47526809 97.2525379,4.67666409 C97.5297393,3.8780601 97.9158354,3.2180667 98.4108379,2.69666409 C98.9058404,2.17526149 99.4866345,1.78916535 100.153238,1.53836409 C100.819841,1.28756284 101.542534,1.16216409 102.321338,1.16216409 C102.79654,1.16216409 103.232136,1.22486347 103.628138,1.35026409 C104.02414,1.47566472 104.380536,1.63076317 104.697338,1.81556409 C105.014139,2.00036502 105.291337,2.1917631 105.528938,2.38976409 C105.766539,2.58776508 105.951337,2.7659633 106.083338,2.92436409 L106.202138,2.88476409 C106.241738,2.67356304 106.294538,2.40956568 106.360538,2.09276409 C106.426538,1.77596251 106.512337,1.52516502 106.617938,1.34036409 C106.063535,1.08956284 105.426641,0.875064984 104.707238,0.696864093 C103.987834,0.518663202 103.192542,0.429564093 102.321338,0.429564093 C101.225732,0.429564093 100.222542,0.587962509 99.3117379,0.904764093 C98.4009333,1.22156568 97.6188411,1.68356106 96.9654379,2.29076409 C96.3120346,2.89796713 95.8038397,3.6404597 95.4408379,4.51826409 C95.0778361,5.39606848 94.8963379,6.39595848 94.8963379,7.51796409 C94.8963379,8.6399697 95.0778361,9.6398597 95.4408379,10.5176641 C95.8038397,11.3954685 96.3054347,12.1379611 96.9456379,12.7451641 C97.5858411,13.3523671 98.3481335,13.8044626 99.2325379,14.1014641 C100.116942,14.3984656 101.080533,14.5469641 102.123338,14.5469641 C102.61174,14.5469641 103.080336,14.5073645 103.529138,14.4281641 C103.97794,14.3489637 104.383836,14.2598646 104.746838,14.1608641 C105.10984,14.0618636 105.420037,13.9496647 105.677438,13.8242641 C105.934839,13.6988635 106.122937,13.5833646 106.241738,13.4777641 L106.241738,13.4777641 Z M111.911738,5.79536409 L111.911738,9.20096409 C111.911738,10.0721684 111.895238,10.9268599 111.862238,11.7650641 C111.829238,12.6032683 111.792938,13.4447599 111.753338,14.2895641 C112.360541,14.263164 112.961135,14.2499641 113.555138,14.2499641 L115.356938,14.2499641 L117.148838,14.2499641 C117.736241,14.2499641 118.326935,14.263164 118.920938,14.2895641 C118.881338,14.1575634 118.861538,13.9859651 118.861538,13.7747641 C118.861538,13.6823636 118.864838,13.5800647 118.871438,13.4678641 C118.878038,13.3556635 118.894538,13.2533646 118.920938,13.1609641 C118.604136,13.2269644 118.23124,13.2764639 117.802238,13.3094641 C117.373236,13.3424643 116.91784,13.368864 116.436038,13.3886641 C115.954236,13.4084642 115.46254,13.4183641 114.960938,13.4183641 L113.574938,13.4183641 C113.561738,13.1675628 113.551838,12.7979665 113.545238,12.3095641 C113.538638,11.8211617 113.535338,11.2007679 113.535338,10.4483641 L113.535338,9.26036409 L113.535338,8.48816409 C113.535338,8.27696304 113.538638,8.10206479 113.545238,7.96346409 C113.551838,7.8248634 113.555138,7.69616469 113.555138,7.57736409 C113.792739,7.57736409 114.112836,7.58066406 114.515438,7.58726409 C114.91804,7.59386413 115.347036,7.60046406 115.802438,7.60706409 C116.25784,7.61366413 116.713236,7.63016396 117.168638,7.65656409 C117.62404,7.68296422 118.023336,7.71596389 118.366538,7.75556409 C118.326938,7.5575631 118.307138,7.35956508 118.307138,7.16156409 C118.307138,6.95036304 118.326938,6.74576508 118.366538,6.54776409 C118.076136,6.57416422 117.76924,6.59726399 117.445838,6.61706409 C117.122436,6.63686419 116.76934,6.65666399 116.386538,6.67646409 C116.003736,6.69626419 115.58134,6.71276403 115.119338,6.72596409 C114.657336,6.73916416 114.135941,6.74576409 113.555138,6.74576409 C113.555138,6.49496284 113.551838,6.12536653 113.545238,5.63696409 C113.538638,5.14856165 113.535338,4.64696667 113.535338,4.13216409 C113.535338,3.64376165 113.545238,3.20816601 113.565038,2.82536409 C113.584838,2.44256218 113.601338,2.0399662 113.614538,1.61756409 C114.261341,1.61756409 114.815736,1.62746399 115.277738,1.64726409 C115.73974,1.66706419 116.165436,1.69016396 116.554838,1.71656409 C116.94424,1.74296422 117.313836,1.76936396 117.663638,1.79576409 C118.01344,1.82216422 118.399536,1.84856396 118.821938,1.87496409 C118.782338,1.6769631 118.762538,1.47896508 118.762538,1.28096409 C118.762538,1.0829631 118.782338,0.884965083 118.821938,0.686964093 C118.227935,0.713364225 117.640541,0.736463994 117.059738,0.756264093 C116.478935,0.776064192 115.891541,0.785964093 115.297538,0.785964093 C114.703535,0.785964093 114.112841,0.776064192 113.525438,0.756264093 C112.938035,0.736463994 112.347341,0.713364225 111.753338,0.686964093 C111.792938,1.53176832 111.829238,2.37655987 111.862238,3.22136409 C111.895238,4.06616832 111.911738,4.92415974 111.911738,5.79536409 L111.911738,5.79536409 Z M128.432138,14.2895641 C128.603739,14.263164 128.821537,14.2499641 129.085538,14.2499641 C129.309939,14.2499641 129.527737,14.263164 129.738938,14.2895641 C130.610142,12.0323528 131.520933,9.77517538 132.471338,7.51796409 C133.421743,5.26075281 134.411733,2.98377558 135.441338,0.686964093 C135.150937,0.752964423 134.906739,0.785964093 134.708738,0.785964093 C134.510737,0.785964093 134.266539,0.752964423 133.976138,0.686964093 C133.830937,1.12256627 133.652739,1.63736112 133.441538,2.23136409 C133.230337,2.82536706 132.996039,3.46556066 132.738638,4.15196409 C132.481237,4.83836752 132.213939,5.55446036 131.936738,6.30026409 C131.659537,7.04606782 131.379039,7.7786605 131.095238,8.49806409 C130.811437,9.21746769 130.530939,9.91046076 130.253738,10.5770641 C129.976537,11.2436674 129.719139,11.8475614 129.481538,12.3887641 C129.059136,11.3855591 128.64334,10.3757692 128.234138,9.35936409 C127.824936,8.34295901 127.42564,7.33976904 127.036238,6.34976409 C126.646836,5.35975914 126.27724,4.38626888 125.927438,3.42926409 C125.577636,2.47225931 125.257539,1.55816845 124.967138,0.686964093 C124.782337,0.713364225 124.604139,0.736463994 124.432538,0.756264093 C124.260937,0.776064192 124.095939,0.785964093 123.937538,0.785964093 C123.779137,0.785964093 123.614139,0.776064192 123.442538,0.756264093 C123.270937,0.736463994 123.092739,0.713364225 122.907938,0.686964093 C123.38314,1.82216977 123.881435,3.02335776 124.402838,4.29056409 C124.924241,5.55777043 125.432435,6.79855802 125.927438,8.01296409 C126.42244,9.22737016 126.887736,10.3823586 127.323338,11.4779641 C127.75894,12.5735696 128.128536,13.5107602 128.432138,14.2895641 L128.432138,14.2895641 Z M140.418338,5.81516409 L140.418338,9.22076409 C140.418338,10.0919684 140.401838,10.9499599 140.368838,11.7947641 C140.335838,12.6395683 140.299538,13.47116 140.259938,14.2895641 C140.56354,14.263164 140.886936,14.2499641 141.230138,14.2499641 C141.57334,14.2499641 141.896737,14.263164 142.200338,14.2895641 C142.160738,13.47116 142.124438,12.6395683 142.091438,11.7947641 C142.058438,10.9499599 142.041938,10.0919684 142.041938,9.22076409 L142.041938,5.81516409 C142.041938,4.94395974 142.058438,4.08926828 142.091438,3.25106409 C142.124438,2.4128599 142.160738,1.55816845 142.200338,0.686964093 C142.028737,0.713364225 141.863739,0.736463994 141.705338,0.756264093 C141.546937,0.776064192 141.388539,0.785964093 141.230138,0.785964093 C141.071737,0.785964093 140.913339,0.776064192 140.754938,0.756264093 C140.596537,0.736463994 140.431539,0.713364225 140.259938,0.686964093 C140.299538,1.55816845 140.335838,2.4128599 140.368838,3.25106409 C140.401838,4.08926828 140.418338,4.94395974 140.418338,5.81516409 L140.418338,5.81516409 Z" id="CEVI" fill="#000000"></path>
                </g>
            </g>
        </g>
    </g>
</svg>