<?xml version="1.0" encoding="UTF-8" standalone="no"?>
<svg width="220px" height="221px" viewBox="0 0 220 221" version="1.1" xmlns="http://www.w3.org/2000/svg" xmlns:xlink="http://www.w3.org/1999/xlink" xmlns:sketch="http://www.bohemiancoding.com/sketch/ns">
    <!-- Generator: Sketch 3.3 (11970) - http://www.bohemiancoding.com/sketch -->
    <title>feature-data</title>
    <desc>Created with Sketch.</desc>
    <defs></defs>
    <g id="Page-1" stroke="none" stroke-width="1" fill="none" fill-rule="evenodd" sketch:type="MSPage">
        <g id="Artboard-4" sketch:type="MSArtboardGroup" transform="translate(-1282.000000, -888.000000)">
            <g id="feature-data" sketch:type="MSLayerGroup" transform="translate(1282.000000, 888.500000)">
                <path d="M110,220.005289 C170.751325,220.005289 220,170.756615 220,110.005289 C220,49.253964 170.751325,0.00528947316 110,0.00528947316 C49.2486745,0.00528947316 0,49.253964 0,110.005289 C0,170.756615 49.2486745,220.005289 110,220.005289 Z" id="Oval-34" fill="#73A131" sketch:type="MSShapeGroup"></path>
                <g id="Shape-+-v-card-+-Oval-9-Copy-2" transform="translate(54.000000, 26.000000)" sketch:type="MSShapeGroup">
                    <path d="M49.7701149,24.5740741 L49.7701149,19 L39.3103448,29.3518519 L49.7701149,39.7037037 L49.7701149,34.1296296 L80.3448276,34.1296296 L80.3448276,24.5740741 L49.7701149,24.5740741 Z M74.7126437,41.2962963 L74.7126437,46.8703704 L20,46.8703704 L20,56.4259259 L74.7126437,56.4259259 L74.7126437,62 L85.1724138,51.6481481 L74.7126437,41.2962963 Z M81.954023,24.5740741 L84.3678161,24.5740741 L84.3678161,34.1296296 L81.954023,34.1296296 L81.954023,24.5740741 Z M85.9770115,24.5740741 L87.5862069,24.5740741 L87.5862069,34.1296296 L85.9770115,34.1296296 L85.9770115,24.5740741 Z M89.1954023,24.5740741 L90,24.5740741 L90,34.1296296 L89.1954023,34.1296296 L89.1954023,24.5740741 Z" id="Shape" fill="#E8EBF0" transform="translate(55.000000, 40.500000) rotate(-45.000000) translate(-55.000000, -40.500000) "></path>
                    <g id="v-card" transform="translate(8.000000, 55.000000)">
                        <rect id="Rectangle-113" fill="#474E5D" x="0" y="0" width="96" height="67" rx="4.8"></rect>
                        <path d="M91,0 L5,0 C2.1456,0 0,2.13921429 0,5 L0,62 C0,64.856 2.1456,67 5,67 L91,67 C93.8544,67 96,64.856 96,62 L96,5 C96,2.144 93.8544,0 91,0 L91,0 Z M62,19 L81,19 L81,24 L62,24 L62,19 L62,19 Z M53,57 C52.3836667,56.510966 51.6001111,56.0363154 50,56 C44.8347778,53.1117005 36.3255556,49.5062736 36,45 C36.3255556,42.4728144 38.0407778,43.3358156 39,39 C39.1157778,36.4989289 40.6398889,38.4694481 41,34 C40.9265556,32.0736509 40.0952222,31.6181781 40,32 C40.0952222,31.6181781 40.5156667,28.9236968 41,27 C40.8548889,24.6710191 39.627,18.212894 35,17 C33.693,15.8875854 33.0957778,16.2567581 36,15 C29.8707778,14.5307559 28.4852222,17.6519433 25,20 C22.6276667,21.9621544 21.8966667,25.1504641 22,27 C22.2072222,28.9236968 22.6276667,31.6229726 23,32 C22.6276667,31.6229726 21.7915556,32.0736509 22,34 C22.083,38.4694481 23.6071111,36.4989289 24,39 C24.6725556,43.3358156 26.3973333,42.4728144 26,45 C26.3973333,49.5062736 17.8881111,53.1117005 12,56 C11.2804444,55.9691931 10.5828889,56.3767214 10,57 L10,10 L53,10 L53,57 L53,57 Z M86,39 L62,39 L62,34 L86,34 L86,39 L86,39 Z" id="Shape" fill="#FFFFFF"></path>
                    </g>
                    <ellipse id="Oval-9-Copy-2" fill="#5F822C" cx="56" cy="137.090351" rx="55.3362069" ry="2.53448276"></ellipse>
                </g>
            </g>
        </g>
    </g>
</svg>