<?xml version="1.0" encoding="UTF-8" standalone="no"?>
<svg width="221px" height="221px" viewBox="0 0 221 221" version="1.1" xmlns="http://www.w3.org/2000/svg" xmlns:xlink="http://www.w3.org/1999/xlink" xmlns:sketch="http://www.bohemiancoding.com/sketch/ns">
    <!-- Generator: Sketch 3.3 (11970) - http://www.bohemiancoding.com/sketch -->
    <title>feature-course</title>
    <desc>Created with Sketch.</desc>
    <defs></defs>
    <g id="Page-1" stroke="none" stroke-width="1" fill="none" fill-rule="evenodd" sketch:type="MSPage">
        <g id="Artboard-4" sketch:type="MSArtboardGroup" transform="translate(-415.000000, -888.000000)">
            <g id="feature-course" sketch:type="MSLayerGroup" transform="translate(415.447329, 888.500000)">
                <path d="M110,220.005289 C170.751325,220.005289 220,170.756615 220,110.005289 C220,49.253964 170.751325,0.00528947316 110,0.00528947316 C49.2486745,0.00528947316 0,49.253964 0,110.005289 C0,170.756615 49.2486745,220.005289 110,220.005289 Z" id="Oval-34" fill="#73A131" sketch:type="MSShapeGroup"></path>
                <g id="Group-Copy-2-+-Oval-9-Copy-2" transform="translate(50.000000, 64.000000)" sketch:type="MSShapeGroup">
                    <g id="Group-Copy-2">
                        <path d="M4.36830967,27.8571674 L49.4941009,3.15074178 C55.1005876,0.0811834827 64.1944139,0.083327105 69.7969853,3.15074178 L114.922777,27.8571674 C120.529263,30.9267257 120.525348,35.9056066 114.922777,38.9730213 L69.7969853,63.6794469 C64.1904986,66.7490052 55.0966724,66.7468616 49.4941009,63.6794469 L4.36830967,38.9730213 C-1.23817705,35.903463 -1.23426176,30.9245821 4.36830967,27.8571674 Z" id="Rectangle-111" fill="#474E5D"></path>
                        <path d="M68.4426223,34.3282071 L108.026124,42.7229011 L115.246215,38.7554933 L70.5983953,30.1805426 C69.629427,28.1307884 65.8993957,26.6037736 61.4457831,26.6037736 C56.2556373,26.6037736 52.0481928,28.6776244 52.0481928,31.2358491 C52.0481928,33.7940737 56.2556373,35.8679245 61.4457831,35.8679245 C64.2248159,35.8679245 66.7221079,35.2733508 68.4426223,34.3282071 Z" id="Rectangle-111" fill="#E8EBF0"></path>
                        <path d="M20.3921302,46.4661623 C20.3921302,46.4661623 24.7294796,59.5904415 24.7294796,59.5904415 C24.7294796,59.5904415 41.9277104,75.5471707 59.6459374,75.5471707 C77.3641644,75.5471707 94.5616066,59.5904415 94.5616066,59.5904415 C94.5616066,59.5904415 98.8989544,46.4661623 98.898956,46.4661623 L69.7969853,62.2266167 C64.1904986,65.296175 55.0966724,65.2940314 49.4941009,62.2266167 L20.3921302,46.4661623 Z" id="Rectangle-111-Copy" fill="#525A6B"></path>
                        <path d="M107.987952,42.5000001 L115.216867,38.7735849 L115.216867,64.9245283 L107.987952,72.1886793 L107.987952,42.5000001 Z" id="Path-Copy" fill="#D8DBE1"></path>
                    </g>
                    <ellipse id="Oval-9-Copy-2" fill="#5F822C" cx="60" cy="90.0903507" rx="55.3362069" ry="2.53448276"></ellipse>
                </g>
            </g>
        </g>
    </g>
</svg>