<?xml version="1.0" encoding="UTF-8" standalone="no"?>
<svg width="1024px" height="370px" viewBox="0 0 1024 370" version="1.1" xmlns="http://www.w3.org/2000/svg" xmlns:xlink="http://www.w3.org/1999/xlink" xmlns:sketch="http://www.bohemiancoding.com/sketch/ns">
    <title>hero-background-small</title>
    <description>Created with Sketch (http://www.bohemiancoding.com/sketch)</description>
    <defs></defs>
    <g id="Page 1" stroke="none" stroke-width="1" fill="none" fill-rule="evenodd">
        <g id="Artboard 3" transform="translate(0.000000, -327.000000)">
            <path d="M452.988062,515.123914 C118.7309,515.123921 -203,501 -203,501 L-203,698 L1227,698 L1227,501 C1227,501 833.7309,515.123914 452.988062,515.123914 Z M452.988062,515.123914" id="hero bg" fill="#40A3A2"></path>
            <g id="Group" transform="translate(735.000000, 391.000000) scale(-1, 1) translate(-735.000000, -391.000000) translate(695.000000, 347.000000)">
                <g>
                    <path d="M38.8721625,88 C65.4522146,88 77.744325,75.566544 77.744325,48.6808511 C77.744325,21.7951581 65.4522146,0 38.8721625,0 C12.2921104,0 0,21.7951581 0,48.6808511 C0,75.566544 12.2921104,88 38.8721625,88 Z M38.8721625,88" id="Oval 2" fill="#40A3A2"></path>
                    <path d="M24.8406649,36.2547602 C23.8782698,38.4330781 22.2814846,40.0819826 20.0010659,41.4301726 C19.7578349,41.5599719 19.5042224,41.6344086 19.2333269,41.6344086 C18.7095072,41.6344086 18.2385552,41.3683033 18.0095147,40.926619 C17.8760398,40.6958391 17.7968937,40.4539417 17.7968937,40.2022505 C17.7968937,39.6961157 18.0917749,39.2446827 18.5619864,39.0190877 C20.194176,38.1890647 21.4909657,36.8805048 22.2107381,35.3989924 C23.064331,33.6680293 23.3582883,32.2682733 23.3582883,29.6228552 C23.3582883,28.8422028 24.0174755,28.3870968 24.7947215,28.3870968 C25.5413952,28.3870968 26.1902622,28.8571095 26.1902622,29.6228552 C26.1902622,32.2459208 26.4832634,33.5734088 27.3710419,35.2660309 C28.1195696,36.7040472 29.5487562,38.1164719 31.1467496,38.9713965 C31.6134018,39.195521 31.8470729,39.653785 31.8470729,40.1367839 C31.8470729,40.3950349 31.7686234,40.6553546 31.6344518,40.8873391 L31.5997959,40.9419348 C31.3187177,41.3469249 30.890695,41.568942 30.4106396,41.568942 C30.1417859,41.568942 29.8707786,41.4935863 29.6014164,41.3491493 C27.5075864,40.1263971 25.83898,38.3804001 24.8406649,36.2547602 Z M66.054524,36.2547602 C65.0921289,38.4330781 63.4953436,40.0819826 61.214925,41.4301726 C60.9716939,41.5599719 60.7180814,41.6344086 60.4471859,41.6344086 C59.9233662,41.6344086 59.4524142,41.3683033 59.2233738,40.926619 C59.0898989,40.6958391 59.0107527,40.4539417 59.0107527,40.2022505 C59.0107527,39.6961157 59.3056339,39.2446827 59.7758454,39.0190877 C61.408035,38.1890647 62.7048247,36.8805048 63.4245971,35.3989924 C64.27819,33.6680293 64.5721473,32.2682733 64.5721473,29.6228552 C64.5721473,28.8422028 65.2313346,28.3870968 66.0085806,28.3870968 C66.7552542,28.3870968 67.4041212,28.8571095 67.4041212,29.6228552 C67.4041212,32.2459208 67.6971224,33.5734088 68.5849009,35.2660309 C69.3334286,36.7040472 70.7626152,38.1164719 72.3606087,38.9713965 C72.8272608,39.195521 73.0609319,39.653785 73.0609319,40.1367839 C73.0609319,40.3950349 72.9824824,40.6553546 72.8483108,40.8873391 L72.8136549,40.9419348 C72.5325767,41.3469249 72.104554,41.568942 71.6244987,41.568942 C71.355645,41.568942 71.0846376,41.4935863 70.8152754,41.3491493 C68.7214455,40.1263971 67.052839,38.3804001 66.054524,36.2547602 Z M66.054524,36.2547602" id="人 人" fill="#FFFFFF"></path>
                </g>
                <path d="M22.948626,51.0967742 C30.9539758,51.0967742 37.4671446,44.517552 37.4671446,36.4301075 C37.4671446,28.3426631 30.9543791,21.7634409 22.948626,21.7634409 C14.942873,21.7634409 8.43010753,28.3426631 8.43010753,36.4301075 C8.43010753,44.517552 14.942873,51.0967742 22.948626,51.0967742 Z M47.6020589,33.3954761 C48.996675,25.7100614 55.5794246,19.8713817 63.4716199,19.8713817 C72.374155,19.8713817 79.6176822,27.299719 79.6176822,36.4303145 C79.6176822,45.5609101 72.3745587,52.9892473 63.4716199,52.9892473 C54.5686811,52.9892473 47.3255576,45.5609101 47.3255576,36.4303145 C47.3255576,36.0755394 47.3400891,35.72449 47.3618862,35.3755105 C45.9127772,33.9617916 44.412808,33.2712841 42.905573,33.3292404 C40.8360515,33.4136909 39.2852222,34.8539041 38.810528,35.3494302 C38.8331325,35.7066892 38.8488749,36.066432 38.8488749,36.4299005 C38.8488749,45.5604961 31.6057513,52.9888333 22.7028126,52.9888333 C13.7998738,52.9888333 6.5567503,45.5604961 6.5567503,36.4299005 C6.5567503,27.299305 13.7998738,19.8709677 22.7028126,19.8709677 C30.5865312,19.8709677 37.1640333,25.6972282 38.5679334,33.3706377 C39.5165146,32.6234159 41.002356,31.7499322 42.8409888,31.674589 C44.4862725,31.6042135 46.0827145,32.1854321 47.6020589,33.3954761 Z M63.2735962,51.0967742 C71.278946,51.0967742 77.7921147,44.517552 77.7921147,36.4301075 C77.7921147,28.3426631 71.2793493,21.7634409 63.2735962,21.7634409 C55.2678431,21.7634409 48.7550777,28.3426631 48.7550777,36.4301075 C48.7550777,44.517552 55.2678431,51.0967742 63.2735962,51.0967742 Z M63.2735962,51.0967742" id="Shape" stroke="#FFFFFF" fill="#FFFFFF"></path>
            </g>
            <g id="Group" transform="translate(678.500000, 461.000000) rotate(-354.000000) translate(-678.500000, -461.000000) translate(627.000000, 404.000000)">
                <path d="M48.8709217,109.501936 C77.9048648,109.501936 91.3317924,96.6327687 91.3317924,68.8049077 C91.3317924,40.9770466 77.9048648,18.4181105 48.8709217,18.4181105 C19.8369786,18.4181105 6.41005097,40.9770466 6.41005097,68.8049077 C6.41005097,96.6327687 19.8369786,109.501936 48.8709217,109.501936 Z M48.8709217,109.501936" id="Oval 2 copy 2" fill="#40A3A2"></path>
                <path d="M30.6939357,62.0534603 C29.6363204,64.3441127 27.8815477,66.0780502 25.3755024,67.4957655 C25.1082059,67.6322585 24.8295007,67.7105338 24.5318026,67.7105338 C23.9561556,67.7105338 23.4386073,67.4307056 23.1869053,66.966244 C23.0402243,66.7235628 22.9532473,66.469191 22.9532473,66.2045202 C22.9532473,65.6722844 23.2773044,65.1975713 23.7940391,64.9603425 C25.587719,64.0875157 27.0128142,62.7114741 27.8038015,61.1535611 C28.7418497,59.3333333 29.0648914,57.8613927 29.0648914,55.0795521 C29.0648914,54.2586419 29.7892992,53.7800664 30.6434466,53.7800664 C31.4639968,53.7800664 32.1770633,54.2743173 32.1770633,55.0795521 C32.1770633,57.8378876 32.4990543,59.2338332 33.4746705,61.0137428 C34.2972582,62.5259167 35.8678498,64.0111793 37.6239501,64.9101919 C38.1367732,65.1458743 38.393564,65.6277707 38.393564,66.1356776 C38.393564,66.4072464 38.3073526,66.6809906 38.159906,66.9249384 L38.1218212,66.9823495 C37.8129328,67.4082248 37.3425611,67.6416912 36.8150087,67.6416912 C36.5195544,67.6416912 36.2217333,67.5624494 35.9257202,67.4105638 C33.6247248,66.1247551 31.791025,64.2887181 30.6939357,62.0534603 Z M65.986088,62.0534603 C64.9284726,64.3441127 63.1737,66.0780502 60.6676547,67.4957655 C60.4003582,67.6322585 60.1216529,67.7105338 59.8239549,67.7105338 C59.2483079,67.7105338 58.7307596,67.4307056 58.4790576,66.966244 C58.3323766,66.7235628 58.2453996,66.469191 58.2453996,66.2045202 C58.2453996,65.6722844 58.5694567,65.1975713 59.0861913,64.9603425 C60.8798712,64.0875157 62.3049665,62.7114741 63.0959538,61.1535611 C64.0340019,59.3333333 64.3570437,57.8613927 64.3570437,55.0795521 C64.3570437,54.2586419 65.0814515,53.7800664 65.9355989,53.7800664 C66.7561491,53.7800664 67.4692156,54.2743173 67.4692156,55.0795521 C67.4692156,57.8378876 67.7912066,59.2338332 68.7668227,61.0137428 C69.5894105,62.5259167 71.1600021,64.0111793 72.9161024,64.9101919 C73.4289255,65.1458743 73.6857162,65.6277707 73.6857162,66.1356776 C73.6857162,66.4072464 73.5995049,66.6809906 73.4520583,66.9249384 L73.4139735,66.9823495 C73.1050851,67.4082248 72.6347134,67.6416912 72.107161,67.6416912 C71.8117067,67.6416912 71.5138856,67.5624494 71.2178725,67.4105638 C68.9168771,66.1247551 67.0831773,64.2887181 65.986088,62.0534603 Z M65.986088,62.0534603" id="人 人 copy 3" fill="#FFFFFF"></path>
                <g id="Group copy" transform="translate(0.895652, 0.201345)" fill="#FFFFFF">
                    <path d="M101.389212,70.7702896 C102.825518,44.834469 83.6087265,4.9427337 62.5639082,3.80417106 C62.5639082,3.80417106 16.4560866,-16.2274865 4.13137963,35.6430186 C-9.38521097,92.5274036 14.0369424,103.575552 20.5443825,112.515314 C19.5216653,111.085861 14.0639575,103.182964 10.5346184,92.6552363 C15.7485464,96.64191 20.5443831,99.1181287 20.5443831,99.1181287 C11.668613,89.4471639 9.69328878,77.0113628 7.73790497,70.8799416 C5.55546507,55.9996551 14.9348752,53.4503884 14.9348752,53.4503884 C14.9348752,53.4503884 45.0291326,58.2000808 65.1998171,30.7257234 C65.1998171,30.7257234 76.7410841,42.8709597 82.160842,67.0773469 C80.8596113,74.0996195 76.569988,94.6585156 70.0059447,100.643355 C70.0059447,100.643355 80.635128,92.5569472 84.0737734,84.9750517 C83.9953008,93.2205406 82.5872958,102.089285 79.1930325,111.406295 C79.1930325,111.406295 100.297027,90.5070799 101.389212,70.7702896 Z M101.389212,70.7702896" id="Shape"></path>
                </g>
            </g>
            <g id="Group" transform="translate(753.000000, 422.000000)">
                <path d="M86.0003164,29.9097035 L81.2095776,29.9097035 C81.4181945,25.1690155 80.7973108,21.8091588 80.7973108,21.8091588 C79.0588364,9.50630078 58.3691676,0 44.4489545,0 C30.5212908,0 9.82417139,9.51627068 8.14281827,21.8091588 C8.14281827,21.8091588 8.12791706,21.9013804 8.10308171,22.0434515 C8.08569696,22.1755527 8.05837808,22.3051614 8.04596041,22.4372626 C7.8820471,23.6211884 7.57657231,26.3803585 7.73055147,29.9097035 L2.93981266,29.9097035 L2.93981266,37.4444564 C1.85450791,38.1199172 0.456277769,39.2365461 0.456277769,40.5027235 L0.456277769,52.3419812 C0.456277769,54.4057507 2.12272968,56.0806941 4.18158011,56.0806941 L7.90688245,56.0806941 C7.90688245,58.8323869 10.1321297,61.0656447 12.8739522,61.0656447 C17.841022,61.0656447 17.841022,58.8323869 17.841022,56.0806941 L17.841022,39.8796047 C17.841022,37.127912 17.841022,34.8946541 12.8739522,34.8946541 C11.3118088,34.8946541 9.93593046,35.6324268 9.02447316,36.7640106 L5.42334756,36.7640106 L5.42334756,32.4021788 L10.3904173,32.4021788 C8.59233808,25.5478718 11.3242265,20.6252331 11.3242265,20.6252331 C15.7498856,12.8337553 34.0081738,7.47493341 44.4489545,7.47493341 C54.879801,7.47493341 73.1380892,12.8237854 77.7301452,20.6676051 C77.6134191,20.6227406 80.3502745,25.5453793 78.5497117,32.3996864 L83.5167815,32.3996864 L83.5167815,36.7615181 L79.8734358,36.7615181 C78.9619785,35.6299343 77.5861002,34.8921617 76.0239567,34.8921617 C71.0568869,34.8921617 71.0568869,37.1254195 71.0568869,39.8771122 L71.0568869,56.0782017 C71.0568869,58.8298944 71.0568869,61.0631523 76.0239567,61.0631523 C78.7657793,61.0631523 80.9910265,58.8298944 80.9910265,56.0782017 L84.7163289,56.0782017 C86.7726958,56.0782017 88.4416312,54.4032583 88.4416312,52.3394887 L88.4416312,40.5002311 C88.4416312,38.895077 87.4208984,37.5341855 86.0003164,37.0057807 L86.0003164,29.9097035 Z M86.0003164,29.9097035" id="Shape" fill="#FFFFFF"></path>
                <g transform="translate(8.005183, 8.464036)">
                    <path d="M36.6860658,82.5797564 C61.7588899,82.5797564 73.3539734,70.912738 73.3539734,45.6843642 C73.3539734,20.4559904 61.7588899,0.00435482877 36.6860658,0.00435482877 C11.6132417,0.00435482877 0.0181582823,20.4559904 0.0181582823,45.6843642 C0.0181582823,70.912738 11.6132417,82.5797564 36.6860658,82.5797564 Z M36.6860658,82.5797564" id="Oval 2 copy" fill="#40A3A2"></path>
                    <path d="M17.3903105,36.5696557 C16.5982642,38.3506803 15.2841179,39.6988488 13.4073448,40.8011487 C13.2071669,40.9072745 12.998445,40.968135 12.7754994,40.968135 C12.3443984,40.968135 11.9568073,40.7505634 11.7683081,40.3894359 C11.6584589,40.2007468 11.593322,40.002968 11.593322,39.7971816 C11.593322,39.3833584 11.8360078,39.0142601 12.2229895,38.8298103 C13.5662734,38.1511714 14.6335248,37.0812736 15.2258939,35.8699674 C15.9283966,34.4547065 16.170322,33.3102455 16.170322,31.1473129 C16.170322,30.5090401 16.7128297,30.1369387 17.3524993,30.1369387 C17.967008,30.1369387 18.5010223,30.521228 18.5010223,31.1473129 C18.5010223,33.2919698 18.7421608,34.3773434 19.4727981,35.7612561 C20.0888326,36.9369993 21.265046,38.0918184 22.5801866,38.7908173 C22.964239,38.9740648 23.1565491,39.3487481 23.1565491,39.7436551 C23.1565491,39.9548049 23.0919856,40.1676461 22.981563,40.35732 L22.9530414,40.4019583 C22.7217154,40.7330841 22.3694549,40.9146086 21.9743718,40.9146086 C21.7531065,40.9146086 21.5300688,40.8529967 21.3083851,40.7349028 C19.5851735,39.7351627 18.2119188,38.30761 17.3903105,36.5696557 Z M38.212571,36.8935763 C37.4205246,38.6746008 36.1063784,40.0227693 34.2296052,41.1250693 C34.0294273,41.2311951 33.8207055,41.2920556 33.5977599,41.2920556 C33.1666588,41.2920556 32.7790678,41.074484 32.5905686,40.7133565 C32.4807194,40.5246674 32.4155825,40.3268886 32.4155825,40.1211021 C32.4155825,39.7072789 32.6582683,39.3381807 33.04525,39.1537309 C34.3885339,38.475092 35.4557853,37.4051942 36.0481543,36.1938879 C36.750657,34.7786271 36.9925824,33.6341661 36.9925824,31.4712335 C36.9925824,30.8329606 37.5350902,30.4608593 38.1747598,30.4608593 C38.7892685,30.4608593 39.3232827,30.8451486 39.3232827,31.4712335 C39.3232827,33.6158904 39.5644213,34.701264 40.2950585,36.0851766 C40.9110931,37.2609199 42.0873065,38.415739 43.4024471,39.1147379 C43.7864995,39.2979853 43.9788096,39.6726687 43.9788096,40.0675757 C43.9788096,40.2787255 43.914246,40.4915667 43.8038235,40.6812406 L43.7753019,40.7258788 C43.5439759,41.0570047 43.1917154,41.2385292 42.7966322,41.2385292 C42.575367,41.2385292 42.3523293,41.1769172 42.1306456,41.0588234 C40.407434,40.0590833 39.0341793,38.6315306 38.212571,36.8935763 Z M38.212571,36.8935763" id="人 人 copy" fill="#FFFFFF"></path>
                </g>
            </g>
            <g id="Group" transform="translate(340.000000, 384.000000) rotate(-5.000000) translate(-340.000000, -384.000000) translate(297.000000, 334.000000)">
                <path d="M42.6149357,99.80275 C71.7542256,99.80275 85.2298715,86.9871406 85.2298715,59.2750916 C85.2298715,31.5630426 71.7542256,9.09799075 42.6149357,9.09799075 C13.4756459,9.09799075 5.09222294e-14,31.5630426 5.09222294e-14,59.2750916 C5.09222294e-14,86.9871406 13.4756459,99.80275 42.6149357,99.80275 Z M42.6149357,99.80275" id="Oval 2 copy 2" fill="#40A3A2"></path>
                <path d="M30.9872938,2.21597826 C30.9872938,2.21597826 71.7879724,-12.288662 82.1110917,35.1460336 C83.3394351,40.7912427 54.6919326,53.1949576 30.6027393,32.3546108 C34.4471859,39.9558758 39.020905,41.7856238 39.020905,41.7856238 C31.0547854,43.8091632 22.539135,30.306604 20.1599666,26.2033069 C15.6774845,27.2552639 8.18864142,30.6096219 2.05373184,41.1929093 C2.05373182,32.6940079 7.39142629,0.255590794 30.9872938,2.21597826 Z M30.9872938,2.21597826" id="Shape" fill="#FFFFFF"></path>
                <path d="M29.8867329,52.8026634 C28.7613372,55.0972804 26.8941047,56.834219 24.2274521,58.2543882 C23.9430252,58.3911174 23.6464583,58.4695282 23.3296813,58.4695282 C22.7171424,58.4695282 22.1664254,58.1892156 21.8985924,57.7239501 C21.7425109,57.480849 21.6499597,57.2260368 21.6499597,56.960908 C21.6499597,56.4277509 21.994785,55.9522162 22.5446361,55.7145768 C24.4532692,54.8402394 25.9696959,53.4618161 26.8113759,51.9012066 C27.8095417,50.0778283 28.1532865,48.6033402 28.1532865,45.8166847 C28.1532865,44.9943537 28.9241201,44.5149498 29.8330081,44.5149498 C30.7061457,44.5149498 31.4649111,45.0100562 31.4649111,45.8166847 C31.4649111,48.5797943 31.8075379,49.9781561 32.8456792,51.7611464 C33.7209849,53.2759376 35.3922325,54.7637708 37.2608777,55.6643394 C37.8065666,55.9004297 38.0798145,56.3831602 38.0798145,56.8919462 C38.0798145,57.163985 37.988078,57.438203 37.8311818,57.682573 L37.7906563,57.7400836 C37.4619719,58.1666959 36.9614551,58.4005664 36.4000929,58.4005664 C36.0857035,58.4005664 35.7687957,58.3211875 35.4538117,58.169039 C33.0053503,56.8810048 31.0541324,55.04179 29.8867329,52.8026634 Z M65.8270401,52.8026634 C64.7016444,55.0972804 62.834412,56.834219 60.1677594,58.2543882 C59.8833324,58.3911174 59.5867655,58.4695282 59.2699886,58.4695282 C58.6574496,58.4695282 58.1067327,58.1892156 57.8388996,57.7239501 C57.6828181,57.480849 57.590267,57.2260368 57.590267,56.960908 C57.590267,56.4277509 57.9350922,55.9522162 58.4849433,55.7145768 C60.3935765,54.8402394 61.9100031,53.4618161 62.7516832,51.9012066 C63.7498489,50.0778283 64.0935937,48.6033402 64.0935937,45.8166847 C64.0935937,44.9943537 64.8644274,44.5149498 65.7733153,44.5149498 C66.6464529,44.5149498 67.4052183,45.0100562 67.4052183,45.8166847 C67.4052183,48.5797943 67.7478451,49.9781561 68.7859865,51.7611464 C69.6612921,53.2759376 71.3325397,54.7637708 73.2011849,55.6643394 C73.7468738,55.9004297 74.0201217,56.3831602 74.0201217,56.8919462 C74.0201217,57.163985 73.9283853,57.438203 73.7714891,57.682573 L73.7309635,57.7400836 C73.4022791,58.1666959 72.9017623,58.4005664 72.3404001,58.4005664 C72.0260108,58.4005664 71.7091029,58.3211875 71.3941189,58.169039 C68.9456575,56.8810048 66.9944396,55.04179 65.8270401,52.8026634 Z M65.8270401,52.8026634" id="人 人 copy 2" fill="#FFFFFF"></path>
            </g>
            <g id="Group" transform="translate(126.500000, 475.000000) rotate(-4.000000) translate(-126.500000, -475.000000) translate(87.000000, 432.000000)">
                <g transform="translate(39.773705, 42.635734) rotate(-357.000000) translate(-39.773705, -42.635734) translate(2.966887, 1.852229)">
                    <path d="M37.1444711,81.1989453 C61.9293114,81.1989453 73.391215,69.8497661 73.391215,45.3086771 C73.391215,20.7675881 61.9293114,0.873106939 37.1444711,0.873106939 C12.3596308,0.873106939 0.897727273,20.7675881 0.897727273,45.3086771 C0.897727273,69.8497661 12.3596308,81.1989453 37.1444711,81.1989453 Z M37.1444711,81.1989453" id="Oval 2 copy" fill="#40A3A2"></path>
                    <path d="M36.0137604,35.5263946 C35.1054215,37.5363617 33.598325,39.0578312 31.4459937,40.3018267 C31.2164246,40.4215945 30.977057,40.4902784 30.7213773,40.4902784 C30.2269796,40.4902784 29.7824803,40.2447389 29.5663046,39.8371901 C29.4403268,39.6242459 29.3656262,39.4010435 29.3656262,39.1688042 C29.3656262,38.7017859 29.6439444,38.2852418 30.0877449,38.0770818 C31.6282571,37.3112069 32.8522083,36.1037786 33.5315522,34.7367645 C34.3372002,33.1395784 34.6146464,31.8480021 34.6146464,29.4070344 C34.6146464,28.6867145 35.2368082,28.2667812 35.9703976,28.2667812 C36.6751318,28.2667812 37.287553,28.7004691 37.287553,29.4070344 C37.287553,31.8273772 37.5640968,33.0522706 38.4020103,34.6140789 C39.1084944,35.9409585 40.457406,37.2442244 41.9656428,38.0330764 C42.4060838,38.2398795 42.62663,38.6627267 42.62663,39.1083972 C42.62663,39.3466893 42.5525869,39.5868903 42.4259515,39.8009459 L42.3932422,39.8513222 C42.1279516,40.2250128 41.7239702,40.4298714 41.2708788,40.4298714 C41.0171262,40.4298714 40.7613409,40.3603395 40.5071083,40.2270652 C38.5308854,39.0988131 36.9560018,37.487755 36.0137604,35.5263946 Z M57.199674,35.8916116 C56.291335,37.9015787 54.7842386,39.4230481 52.6319073,40.6670437 C52.4023381,40.7868115 52.1629706,40.8554953 51.9072909,40.8554953 C51.4128932,40.8554953 50.9683939,40.6099559 50.7522182,40.2024071 C50.6262404,39.9894629 50.5515397,39.7662605 50.5515397,39.5340212 C50.5515397,39.0670029 50.829858,38.6504588 51.2736585,38.4422988 C52.8141707,37.6764239 54.0381218,36.4689956 54.7174658,35.1019815 C55.5231138,33.5047953 55.80056,32.2132191 55.80056,29.7722514 C55.80056,29.0519315 56.4227218,28.6319982 57.1563112,28.6319982 C57.8610454,28.6319982 58.4734666,29.0656861 58.4734666,29.7722514 C58.4734666,32.1925941 58.7500104,33.4174876 59.5879239,34.9792959 C60.294408,36.3061755 61.6433196,37.6094414 63.1515563,38.3982934 C63.5919974,38.6050965 63.8125436,39.0279437 63.8125436,39.4736142 C63.8125436,39.7119063 63.7385004,39.9521073 63.6118651,40.1661629 L63.5791557,40.2165392 C63.3138652,40.5902298 62.9098838,40.7950884 62.4567924,40.7950884 C62.2030398,40.7950884 61.9472544,40.7255565 61.6930219,40.5922822 C59.7167989,39.46403 58.1419154,37.852972 57.199674,35.8916116 Z M57.199674,35.8916116" id="人 人 copy" fill="#FFFFFF"></path>
                </g>
                <g transform="translate(46.464407, 72.629382) rotate(-350.000000) translate(-46.464407, -72.629382) translate(28.509862, 62.433506)" id="Shape" fill="#FFFFFF">
                    <path d="M21.5500759,13.0255879 C21.5500759,13.7235005 20.9718885,14.29452 20.2652151,14.29452 L15.1257718,14.29452 C14.4190984,14.29452 13.840911,13.7235005 13.840911,13.0255879 L13.840911,7.94985953 C13.840911,7.25194688 14.4190984,6.68092744 15.1257718,6.68092744 L20.2652151,6.68092744 C20.9718885,6.68092744 21.5500759,7.25194688 21.5500759,7.94985953 L21.5500759,13.0255879 L21.5500759,13.0255879 Z M21.5500759,13.0255879"></path>
                    <path d="M14.4833414,7.94985953 C14.4833414,7.25194688 13.9668274,6.42587209 13.333391,6.1137148 L2.78339894,0.904748578 C2.15124742,0.592591285 1.71567961,0.902210714 1.81589875,1.5937787 L0.167422336,7.96381778 C0.267641479,8.65538577 0.34987257,9.78981105 0.34987257,10.4889926 L0.34987257,10.4889926 C0.34987257,11.1869053 0.254792871,12.3200616 0.139155398,13.0090918 L1.84545055,18.1190813 C1.72981308,18.8081114 2.17180519,19.1583366 2.82836907,18.8994745 L13.2909906,14.7652938 C13.9475545,14.5064316 14.4846263,13.7235005 14.4846263,13.0255879 L14.4846263,7.94985953 L14.4833414,7.94985953 Z M14.4833414,7.94985953"></path>
                    <path d="M21.2288607,13.0255879 C21.2288607,13.7235005 21.7453747,14.5495753 22.3788111,14.8617326 L32.9288032,20.0706988 C33.5609547,20.3828561 33.9965225,20.0732367 33.8963034,19.3816687 L35.5447798,13.0116296 C35.4445606,12.3200616 35.3623295,11.1856363 35.3623295,10.4864548 L35.3623295,10.4864548 C35.3623295,9.78854212 35.4574092,8.65538577 35.5730467,7.96635564 L33.8667516,2.85636613 C33.982389,2.167336 33.5403969,1.81711075 32.883833,2.07597289 L22.4212115,6.21015363 C21.7646476,6.46901578 21.2275758,7.25194688 21.2275758,7.94985953 L21.2275758,13.0255879 L21.2288607,13.0255879 Z M21.2288607,13.0255879"></path>
                </g>
            </g>
            <g id="Group" transform="translate(162.000000, 387.000000)">
                <g id="Group copy" transform="translate(35.000000, 38.000000) rotate(-357.000000) translate(-35.000000, -38.000000) translate(2.692308, 1.788235)">
                    <path d="M32.3076923,72.4235294 C54.3990834,72.4235294 64.6153846,62.1908617 64.6153846,40.0640801 C64.6153846,17.9372985 54.3990834,1.489005e-14 32.3076923,1.489005e-14 C10.2163012,1.489005e-14 -4.14483263e-14,17.9372985 -4.14483263e-14,40.0640801 C-4.14483263e-14,62.1908617 10.2163012,72.4235294 32.3076923,72.4235294 Z M32.3076923,72.4235294" id="Oval 2 copy" fill="#40A3A2"></path>
                    <path d="M33.6693586,31.0444652 C32.870227,32.9557768 31.5443249,34.4025677 29.650763,35.585504 C29.4487944,35.6993933 29.2382054,35.7647059 29.0132654,35.7647059 C28.5783079,35.7647059 28.1872496,35.5312183 27.9970642,35.1436732 C27.8862324,34.941181 27.8205128,34.7289341 27.8205128,34.5080938 C27.8205128,34.0639983 28.0653696,33.6678994 28.455813,33.4699566 C29.8111133,32.7416733 30.8879119,31.5935094 31.4855801,30.2935926 C32.194367,28.7748014 32.4384566,27.5466198 32.4384566,25.2254625 C32.4384566,24.5404981 32.9858174,24.1411765 33.6312092,24.1411765 C34.251215,24.1411765 34.7900063,24.5535776 34.7900063,25.2254625 C34.7900063,27.5270072 35.033302,28.6917789 35.7704752,30.1769288 C36.3920205,31.438681 37.5787558,32.6779785 38.9056611,33.4281112 C39.293149,33.6247637 39.4871795,34.0268562 39.4871795,34.4506518 C39.4871795,34.6772478 39.4220384,34.9056589 39.3106281,35.109208 L39.2818513,35.1571117 C39.0484559,35.5124604 38.6930442,35.7072639 38.2944269,35.7072639 C38.0711823,35.7072639 37.8461494,35.6411448 37.6224826,35.5144121 C35.8838559,34.4415381 34.4983167,32.9095558 33.6693586,31.0444652 Z M51.6180766,30.1503475 C50.8189449,32.0616592 49.4930429,33.50845 47.599481,34.6913864 C47.3975123,34.8052756 47.1869233,34.8705882 46.9619834,34.8705882 C46.5270259,34.8705882 46.1359676,34.6371006 45.9457822,34.2495556 C45.8349504,34.0470634 45.7692308,33.8348165 45.7692308,33.6139762 C45.7692308,33.1698806 46.0140875,32.7737818 46.404531,32.575839 C47.7598313,31.8475556 48.8366299,30.6993917 49.434298,29.399475 C50.143085,27.8806837 50.3871745,26.6525021 50.3871745,24.3313448 C50.3871745,23.6463805 50.9345354,23.2470588 51.5799271,23.2470588 C52.1999329,23.2470588 52.7387243,23.65946 52.7387243,24.3313448 C52.7387243,26.6328895 52.9820199,27.7976613 53.7191932,29.2828111 C54.3407385,30.5445633 55.5274738,31.7838608 56.854379,32.5339935 C57.241867,32.730646 57.4358974,33.1327386 57.4358974,33.5565341 C57.4358974,33.7831301 57.3707563,34.0115413 57.259346,34.2150904 L57.2305692,34.262994 C56.9971739,34.6183427 56.6417622,34.8131462 56.2431448,34.8131462 C56.0199002,34.8131462 55.7948673,34.7470272 55.5712005,34.6202944 C53.8325739,33.5474204 52.4470346,32.0154382 51.6180766,30.1503475 Z M51.6180766,30.1503475" id="人 人 copy" fill="#FFFFFF"></path>
                </g>
            </g>
            <g id="Group" transform="translate(882.500000, 407.000000) scale(-1, 1) translate(-882.500000, -407.000000) translate(847.000000, 369.000000)">
                <path d="M34.2395925,75.5147393 C57.6519805,75.5147393 68.479185,64.8453167 68.479185,41.7741111 C68.479185,18.7029055 57.6519805,5.08247039e-14 34.2395925,5.08247039e-14 C10.8272045,5.08247039e-14 2.04348493e-13,18.7029055 2.04348493e-13,41.7741111 C2.04348493e-13,64.8453167 10.8272045,75.5147393 34.2395925,75.5147393 Z M34.2395925,75.5147393" id="Oval 2" fill="#40A3A2"></path>
                <path d="M35.0810982,32.2699842 C34.2333961,34.1595648 32.8269069,35.5899062 30.8182559,36.7593929 C30.6040119,36.8719872 30.3806234,36.9365573 30.1420118,36.9365573 C29.680618,36.9365573 29.2657915,36.7057243 29.0640468,36.3225856 C28.9464787,36.1223956 28.8767648,35.9125619 28.8767648,35.6942325 C28.8767648,35.2551862 29.1365037,34.8635909 29.550678,34.6678986 C30.9883522,33.9478956 32.1305977,32.812786 32.7645915,31.5276489 C33.516458,30.0261259 33.7753831,28.8119083 33.7753831,26.5171419 C33.7753831,25.8399654 34.356012,25.4451839 35.0406301,25.4451839 C35.6983193,25.4451839 36.2698579,25.8528961 36.2698579,26.5171419 C36.2698579,28.7925187 36.5279409,29.9440474 37.3099188,31.4123115 C37.9692411,32.659718 39.2281051,33.884925 40.6356585,34.6265289 C41.0466976,34.8209455 41.2525211,35.2184664 41.2525211,35.6374436 C41.2525211,35.8614632 41.1834208,36.0872774 41.065239,36.2885122 L41.0347132,36.3358712 C40.7871323,36.6871797 40.410119,36.8797683 39.9872741,36.8797683 C39.7504609,36.8797683 39.5117506,36.8144011 39.2744896,36.6891092 C37.4301907,35.6284335 35.9604396,34.1138694 35.0810982,32.2699842 Z M54.8823084,32.2699842 C54.0346062,34.1595648 52.628117,35.5899062 50.6194661,36.7593929 C50.405222,36.8719872 50.1818336,36.9365573 49.9432219,36.9365573 C49.4818281,36.9365573 49.0670017,36.7057243 48.865257,36.3225856 C48.7476889,36.1223956 48.6779749,35.9125619 48.6779749,35.6942325 C48.6779749,35.2551862 48.9377138,34.8635909 49.3518881,34.6678986 C50.7895623,33.9478956 51.9318078,32.812786 52.5658017,31.5276489 C53.3176681,30.0261259 53.5765932,28.8119083 53.5765932,26.5171419 C53.5765932,25.8399654 54.1572221,25.4451839 54.8418402,25.4451839 C55.4995294,25.4451839 56.071068,25.8528961 56.071068,26.5171419 C56.071068,28.7925187 56.329151,29.9440474 57.111129,31.4123115 C57.7704513,32.659718 59.0293153,33.884925 60.4368686,34.6265289 C60.8479078,34.8209455 61.0537312,35.2184664 61.0537312,35.6374436 C61.0537312,35.8614632 60.9846309,36.0872774 60.8664492,36.2885122 L60.8359234,36.3358712 C60.5883425,36.6871797 60.2113292,36.8797683 59.7884842,36.8797683 C59.551671,36.8797683 59.3129608,36.8144011 59.0756997,36.6891092 C57.2314009,35.6284335 55.7616497,34.1138694 54.8823084,32.2699842 Z M54.8823084,32.2699842" id="人 人" fill="#FFFFFF"></path>
                <path d="M52.837421,50.5302566 C49.7043987,47.6384956 46.4908354,48.0533643 44.9649858,49.8306845 C43.4391362,48.0533643 40.2255729,47.6384956 37.0925506,50.5302566 C34.2100138,53.1911482 29.2576492,53.3250632 25.478213,52.521573 C21.6987769,51.7180829 17.9740774,48.9163127 20.7864992,52.5944228 C23.3930069,56.0033637 28.3088804,58.8254889 35.3829423,59.0834092 C40.5824038,59.2730329 43.5913563,57.6521255 44.9652465,55.48913 C46.3391367,57.6521255 49.3478285,59.2730329 54.5478113,59.0834092 C61.6221338,58.8254889 66.5377467,56.0033637 69.1442544,52.5944228 C71.9561549,48.9163127 68.231716,51.7180829 64.4522799,52.521573 C60.6728437,53.3250632 55.7204791,53.1911482 52.837421,50.5302566 Z M52.837421,50.5302566" id="Shape" fill="#FFFFFF"></path>
            </g>
            <g id="Group" transform="translate(946.714221, 485.993576) rotate(-357.000000) translate(-946.714221, -485.993576) translate(918.551137, 455.035291)">
                <path d="M28.341512,61.5942574 C47.1095582,61.5942574 55.7889579,52.985226 55.7889579,34.369342 C55.7889579,15.7534579 47.1095582,0.662303843 28.341512,0.662303843 C9.57346586,0.662303843 0.894066162,15.7534579 0.894066162,34.369342 C0.894066162,52.985226 9.57346586,61.5942574 28.341512,61.5942574 Z M28.341512,61.5942574" id="Oval 2 copy" fill="#40A3A2"></path>
                <path d="M20.6488504,29.0724909 C19.9610208,30.5971712 18.8197887,31.7512968 17.1899596,32.6949419 C17.0161209,32.7857929 16.8348625,32.8378937 16.6412519,32.8378937 C16.2668747,32.8378937 15.9302825,32.6516373 15.7665859,32.3424872 C15.6711905,32.1809563 15.6146243,32.0116439 15.6146243,31.8354765 C15.6146243,31.4812152 15.8253777,31.1652415 16.1614407,31.0073398 C17.3279765,30.4263778 18.2548,29.5104713 18.7692257,28.4735093 C19.3792938,27.261948 19.5893868,26.2822102 19.5893868,24.4305902 C19.5893868,23.8841844 20.060512,23.5656399 20.6160144,23.5656399 C21.1496666,23.5656399 21.6134158,23.8946181 21.6134158,24.4305902 C21.6134158,26.2665649 21.8228255,27.1957199 22.4573262,28.3804449 C22.9923035,29.3869625 24.0137519,30.3755676 25.1558475,30.973959 C25.4893666,31.1308315 25.6563728,31.4515864 25.6563728,31.7896542 C25.6563728,31.970413 25.6003044,32.1526198 25.5044112,32.3149938 L25.4796424,32.3532072 C25.2787541,32.6366739 24.9728437,32.7920714 24.6297452,32.7920714 C24.4375938,32.7920714 24.2439032,32.7393273 24.0513884,32.6382308 C22.5549155,31.782384 21.3623523,30.5603001 20.6488504,29.0724909 Z M38.7313374,29.3497894 C38.0435078,30.8744697 36.9022756,32.0285952 35.2724466,32.9722403 C35.0986079,33.0630913 34.9173494,33.1151921 34.7237388,33.1151921 C34.3493616,33.1151921 34.0127694,32.9289358 33.8490728,32.6197856 C33.7536775,32.4582547 33.6971112,32.2889423 33.6971112,32.1127749 C33.6971112,31.7585136 33.9078647,31.44254 34.2439277,31.2846382 C35.4104635,30.7036763 36.337287,29.7877697 36.8517127,28.7508077 C37.4617807,27.5392465 37.6718738,26.5595086 37.6718738,24.7078886 C37.6718738,24.1614829 38.1429989,23.8429383 38.6985014,23.8429383 C39.2321536,23.8429383 39.6959027,24.1719166 39.6959027,24.7078886 C39.6959027,26.5438634 39.9053125,27.4730183 40.5398132,28.6577433 C41.0747905,29.6642609 42.0962388,30.652866 43.2383345,31.2512575 C43.5718536,31.40813 43.7388597,31.7288849 43.7388597,32.0669526 C43.7388597,32.2477114 43.6827914,32.4299182 43.5868982,32.5922922 L43.5621294,32.6305057 C43.361241,32.9139723 43.0553306,33.0693698 42.7122322,33.0693698 C42.5200808,33.0693698 42.3263902,33.0166257 42.1338754,32.9155292 C40.6374024,32.0596825 39.4448392,30.8375986 38.7313374,29.3497894 Z M38.7313374,29.3497894" id="人 人 copy" fill="#FFFFFF"></path>
            </g>
            <g id="Group" transform="translate(47.155919, 447.070390) rotate(-357.000000) translate(-47.155919, -447.070390) translate(14.098965, 414.825350)">
                <path d="M31.8485988,64.2679807 C51.4406374,64.2679807 60.5010975,55.2181338 60.5010975,35.6490447 C60.5010975,16.0799556 51.4406374,0.216076225 31.8485988,0.216076225 C12.2565601,0.216076225 3.19609998,16.0799556 3.19609998,35.6490447 C3.19609998,55.2181338 12.2565601,64.2679807 31.8485988,64.2679807 Z M31.8485988,64.2679807" id="Oval 2 copy" fill="#40A3A2"></path>
                <path d="M63.7820538,23.3449863 L63.7781625,23.2869682 C63.6961213,22.0055986 62.6490418,21.0020525 61.3937786,21.0020525 C61.3415705,21.0020525 61.2890382,21.0037101 61.2601779,21.0060308 L36.9555456,21.8481211 C36.3183479,21.8905571 35.7356282,22.1846257 35.3143967,22.675624 C34.8931653,23.1662907 34.6843331,23.7955377 34.7261644,24.4469973 L34.8095027,25.7472642 C33.2935235,24.7573109 31.768789,25.183992 30.8134789,25.6657074 L30.8916288,24.4469973 C30.9334601,23.7955377 30.7246279,23.1662907 30.3033965,22.675624 C29.8824893,22.1846257 29.2994453,21.8908887 28.6382514,21.846795 L4.38128732,21.5616778 C3.06376359,21.4698435 1.92491463,22.5065428 1.83963066,23.8412891 L1.83606365,23.8989756 C1.25301968,23.924172 0.217289729,24.2139306 0.217289729,25.971048 C0.217289729,27.8926052 1.69176189,27.6986592 2.32312264,27.5279204 L2.85168864,35.9899329 C2.81310008,37.297825 3.7975948,38.4157496 5.05383081,38.498964 L27.5139948,39.7945895 C27.5668514,39.7982363 27.6193837,39.799894 27.6715917,39.799894 L27.671916,39.799894 C28.9268549,39.799894 29.9739345,38.7963479 30.0559757,37.5149782 L30.6078894,28.3375206 C31.5891414,27.7997763 33.330815,27.2123023 35.019632,28.4651602 L35.5634389,37.5149782 C35.6454801,38.7963479 36.6925596,39.799894 37.9478228,39.799894 C38.0000309,39.799894 38.0528875,39.7982363 38.1371986,39.7919372 L60.5338049,38.5016163 C61.820847,38.4154181 62.8063145,37.297825 62.7677259,35.9896014 L63.3043988,26.9122662 C63.7139564,27.0544933 65.6129027,27.5972105 65.6129027,25.4163957 C65.6119299,23.4202439 64.2723555,23.3164745 63.7820538,23.3449863 L63.7820538,23.3449863 Z M28.3812905,37.5730461 C28.3522078,38.0406411 27.9808452,38.4067895 27.5356574,38.4067895 L27.5097706,38.4074613 L5.3740622,37.0947017 C4.90714234,37.0624538 4.55207871,36.6368483 4.58243969,36.1460751 L4.58723353,36.0657912 L3.58819761,23.8569258 C3.64700203,23.4222506 4.00334402,23.0907015 4.42679974,23.0907015 L28.4138886,23.3829484 C28.6401577,23.3987364 28.8466124,23.5058936 28.9964997,23.6849368 C29.1460675,23.864316 29.2202122,24.0940825 29.2051915,24.3315751 L28.3812905,37.5730461 L28.3812905,37.5730461 Z M61.2124783,36.1284457 C61.242839,36.623399 60.8877788,37.0529683 60.389544,37.0878624 L38.3166866,38.4063828 C37.8142972,38.4084154 37.4432577,38.0388096 37.4138557,37.5675707 L36.589643,24.2133171 C36.5749421,23.9734629 36.649086,23.7420782 36.7986524,23.5611712 C36.9482187,23.380603 37.1549909,23.2725332 37.3576086,23.2579657 L61.3109109,22.397472 C61.7912489,22.3954393 62.1475874,22.7294735 62.2067109,23.1681898 L61.207365,36.047478 L61.2124783,36.1284457 Z M61.2124783,36.1284457" id="Shape" fill="#FFFFFF"></path>
                <path d="M22.5395584,30.1463143 C21.8215303,31.7490641 20.6301935,32.9622854 18.9288084,33.9542487 C18.7473375,34.0497516 18.5581211,34.1045202 18.3560102,34.1045202 C17.9651964,34.1045202 17.6138264,33.9087268 17.4429428,33.583747 C17.3433593,33.4139451 17.2843096,33.2359632 17.2843096,33.0507754 C17.2843096,32.6783745 17.5043159,32.3462218 17.8551334,32.1802349 C19.0728848,31.5695254 20.0403996,30.6067209 20.5774106,29.5166625 C21.2142631,28.2430646 21.4335801,27.2131604 21.4335801,25.2667303 C21.4335801,24.6923465 21.9253895,24.3574913 22.5052807,24.3574913 C23.0623624,24.3574913 23.546472,24.7033144 23.546472,25.2667303 C23.546472,27.1967141 23.7650757,28.1734453 24.4274336,29.4188328 C24.9858985,30.476888 26.0521925,31.5161135 27.2444307,32.1451449 C27.5925927,32.3100499 27.7669311,32.6472287 27.7669311,33.0026068 C27.7669311,33.1926211 27.7084011,33.3841576 27.6082978,33.5548458 L27.5824415,33.5950159 C27.3727334,33.8929972 27.0533923,34.0563516 26.6952304,34.0563516 C26.4946428,34.0563516 26.2924484,34.0009068 26.0914815,33.8946338 C24.5293073,32.9949644 23.2843859,31.710305 22.5395584,30.1463143 Z M51.781708,29.8950284 C51.0636799,31.4977782 49.8723431,32.7109994 48.170958,33.7029627 C47.9894871,33.7984657 47.8002707,33.8532343 47.5981598,33.8532343 C47.207346,33.8532343 46.855976,33.6574409 46.6850925,33.332461 C46.5855089,33.1626591 46.5264592,32.9846773 46.5264592,32.7994894 C46.5264592,32.4270886 46.7464655,32.0949359 47.097283,31.9289489 C48.3150345,31.3182395 49.2825492,30.355435 49.8195603,29.2653766 C50.4564127,27.9917787 50.6757297,26.9618745 50.6757297,25.0154444 C50.6757297,24.4410606 51.1675391,24.1062053 51.7474304,24.1062053 C52.304512,24.1062053 52.7886217,24.4520285 52.7886217,25.0154444 C52.7886217,26.9454281 53.0072254,27.9221594 53.6695832,29.1675469 C54.2280481,30.2256021 55.2943422,31.2648276 56.4865803,31.893859 C56.8347423,32.0587639 57.0090807,32.3959427 57.0090807,32.7513208 C57.0090807,32.9413352 56.9505507,33.1328717 56.8504474,33.3035599 L56.8245912,33.34373 C56.614883,33.6417112 56.2955419,33.8050657 55.9373801,33.8050657 C55.7367925,33.8050657 55.534598,33.7496209 55.3336311,33.6433478 C53.7714569,32.7436785 52.5265355,31.4590191 51.781708,29.8950284 Z M51.781708,29.8950284" id="人 人 copy" fill="#FFFFFF"></path>
            </g>
            <g id="Group" transform="translate(249.000000, 486.000000) scale(-1, 1) translate(-249.000000, -486.000000) translate(186.000000, 424.000000)">
                <path d="M63.8736523,123.945887 C94.5231959,123.945887 108.697268,109.720829 108.697268,78.9610353 C108.697268,48.2012415 94.5231959,23.2655046 63.8736523,23.2655046 C33.2241087,23.2655046 19.0500366,48.2012415 19.0500366,78.9610353 C19.0500366,109.720829 33.2241087,123.945887 63.8736523,123.945887 Z M63.8736523,123.945887" id="Oval 2 copy 3" fill="#40A3A2"></path>
                <path d="M36.4415374,70.6017174 C35.2901813,73.1769939 33.3798758,75.1263812 30.6517093,76.7202543 C30.3607212,76.8737071 30.0573132,76.9617085 29.7332289,76.9617085 C29.10656,76.9617085 28.5431392,76.6471103 28.2691278,76.1249372 C28.1094459,75.8521018 28.0147598,75.5661231 28.0147598,75.2685657 C28.0147598,74.6701971 28.3675394,74.1364987 28.9300743,73.8697931 C30.8827355,72.8885136 32.4341429,71.3414924 33.2952386,69.5900015 C34.3164299,67.5436018 34.6681041,65.8887659 34.6681041,62.7612686 C34.6681041,61.8383565 35.4567192,61.3003157 36.3865733,61.3003157 C37.2798523,61.3003157 38.0561208,61.8559797 38.0561208,62.7612686 C38.0561208,65.8623401 38.4066512,67.4317385 39.4687402,69.4328101 C40.3642373,71.1328787 42.0740369,72.802692 43.9857877,73.8134111 C44.5440645,74.0783781 44.8236156,74.6201524 44.8236156,75.1911691 C44.8236156,75.4964816 44.729763,75.8042398 44.5692476,76.0784992 L44.5277872,76.143044 C44.1915207,76.6218362 43.6794581,76.8843119 43.1051465,76.8843119 C42.7835048,76.8843119 42.4592866,76.795224 42.1370367,76.6244659 C39.6320945,75.1788894 37.6358663,73.1147163 36.4415374,70.6017174 Z M66.697478,70.6017174 C65.5461218,73.1769939 63.6358164,75.1263812 60.9076499,76.7202543 C60.6166618,76.8737071 60.3132538,76.9617085 59.9891695,76.9617085 C59.3625005,76.9617085 58.7990797,76.6471103 58.5250684,76.1249372 C58.3653864,75.8521018 58.2707003,75.5661231 58.2707003,75.2685657 C58.2707003,74.6701971 58.6234799,74.1364987 59.1860149,73.8697931 C61.1386761,72.8885136 62.6900834,71.3414924 63.5511792,69.5900015 C64.5723705,67.5436018 64.9240447,65.8887659 64.9240447,62.7612686 C64.9240447,61.8383565 65.7126598,61.3003157 66.6425138,61.3003157 C67.5357928,61.3003157 68.3120613,61.8559797 68.3120613,62.7612686 C68.3120613,65.8623401 68.6625918,67.4317385 69.7246808,69.4328101 C70.6201779,71.1328787 72.3299775,72.802692 74.2417283,73.8134111 C74.8000051,74.0783781 75.0795562,74.6201524 75.0795562,75.1911691 C75.0795562,75.4964816 74.9857036,75.8042398 74.8251881,76.0784992 L74.7837277,76.143044 C74.4474613,76.6218362 73.9353986,76.8843119 73.3610871,76.8843119 C73.0394454,76.8843119 72.7152272,76.795224 72.3929772,76.6244659 C69.8880351,75.1788894 67.8918068,73.1147163 66.697478,70.6017174 Z M66.697478,70.6017174" id="人 人 copy 3" fill="#FFFFFF"></path>
                <g transform="translate(63.020909, 34.823814) rotate(-356.000000) translate(-63.020909, -34.823814) translate(2.254951, 4.492878)" fill="#FFFFFF">
                    <path d="M60.5118811,60.1816448 C93.9316719,60.1816448 121.023762,53.3110315 121.023762,47.7953147 C121.023762,42.2795979 93.9316719,37.8082265 60.5118811,37.8082265 C27.0920903,37.8082265 1.46039209e-13,42.2795979 1.46039209e-13,47.7953147 C1.46039209e-13,53.3110315 27.0920903,60.1816448 60.5118811,60.1816448 Z M60.5118811,60.1816448" id="Oval"></path>
                    <path d="M61.6324715,0.892086331 C38.1190761,0.892086331 19.0582386,23.131697 19.0582386,43.2909396 C19.0582386,43.2909396 17.3901208,52.3509484 61.6324712,52.3509484 C105.874822,52.3509484 104.206704,43.2909396 104.206704,43.2909396 C104.206704,23.131697 85.1458669,0.892086331 61.6324715,0.892086331 Z M61.6324715,0.892086331" id="Shape"></path>
                </g>
            </g>
        </g>
    </g>
</svg>