<?xml version="1.0" encoding="UTF-8" standalone="no"?>
<svg width="251px" height="261px" viewBox="0 0 251 261" version="1.1" xmlns="http://www.w3.org/2000/svg" xmlns:xlink="http://www.w3.org/1999/xlink" xmlns:sketch="http://www.bohemiancoding.com/sketch/ns">
    <!-- Generator: Sketch 3.3 (11970) - http://www.bohemiancoding.com/sketch -->
    <title>info-contact_en</title>
    <desc>Created with Sketch.</desc>
    <defs></defs>
    <g id="Page-1" stroke="none" stroke-width="1" fill="none" fill-rule="evenodd" sketch:type="MSPage">
        <g id="info-contact_en" sketch:type="MSLayerGroup" transform="translate(0.000000, -0.105700)">
            <g id="Group" transform="translate(0.000000, 0.112603)" sketch:type="MSShapeGroup">
                <path d="M57.0557048,115.412037 C23.2310645,105.428755 0,84.7660636 0,60.8954758 C0,27.2638315 46.114668,0 103,0 C159.885332,0 206,27.2638315 206,60.8954758 C206,94.5271201 159.885332,121.790952 103,121.790952 C98.5231299,121.790952 94.1129697,121.622088 89.7867477,121.294547 L101.474447,147.218751 L57.0557085,115.412038 Z" id="Oval-19" fill="#FFFFFF"></path>
                <path d="M59.8805,54.9660969 C59.7885,50.1590969 56.7065,46.7090969 51.8075,46.7090969 C46.8855,46.7090969 43.8265,50.1590969 43.7345,54.9660969 C43.8265,59.7730969 46.8855,63.2230969 51.8075,63.2230969 C52.2905,63.2230969 52.7505,63.2000969 53.1875,63.1310969 L55.6945,66.1210969 C55.8785,66.3510969 56.1315,66.4890969 56.4305,66.4890969 C56.9825,66.4890969 57.4425,66.0290969 57.4195,65.5000969 C57.4195,65.2470969 57.3045,64.9940969 57.1435,64.8330969 L55.1195,62.6020969 C58.0635,61.3830969 59.8115,58.5540969 59.8805,54.9660969 L59.8805,54.9660969 Z M51.8075,61.2680969 C47.9895,61.2680969 45.8275,58.5080969 45.8275,54.9660969 C45.8275,51.4240969 47.9895,48.6640969 51.8075,48.6640969 C55.6025,48.6640969 57.7875,51.4240969 57.7875,54.9660969 C57.7875,58.5080969 55.6025,61.2680969 51.8075,61.2680969 L51.8075,61.2680969 Z M66.9875,63.2230969 C69.0345,63.2230969 70.2995,62.1650969 71.2655,61.1070969 L71.2655,62.0500969 C71.2655,62.6480969 71.7485,63.1080969 72.3235,63.1080969 C72.8985,63.1080969 73.3585,62.6480969 73.3585,62.0500969 L73.3585,52.1830969 C73.3585,51.6080969 72.8985,51.1480969 72.3235,51.1480969 C71.7485,51.1480969 71.2655,51.6080969 71.2655,52.1830969 L71.2655,59.0830969 C70.3455,60.2330969 69.1495,61.2910969 67.4935,61.2910969 C65.6995,61.2910969 64.9635,60.2330969 64.9635,58.4850969 L64.9635,52.1830969 C64.9635,51.6080969 64.5035,51.1480969 63.9285,51.1480969 C63.3535,51.1480969 62.8705,51.6080969 62.8705,52.1830969 L62.8705,58.7150969 C62.8705,61.1760969 64.3655,63.2230969 66.9875,63.2230969 L66.9875,63.2230969 Z M85.9625,60.4630969 C85.8015,60.4630969 85.6865,60.4860969 85.5485,60.5550969 C84.6975,60.9920969 83.8235,61.2680969 82.4435,61.2680969 C79.9595,61.2680969 78.6485,59.9340969 78.4185,57.8640969 L86.2155,57.8640969 C86.8595,57.8640969 87.2735,57.4040969 87.2735,56.8290969 C87.2735,53.7700969 85.3415,51.0330969 81.7995,51.0330969 C77.9815,51.0330969 76.3025,54.0230969 76.3025,57.1280969 C76.3025,60.9920969 78.5105,63.2230969 82.2595,63.2230969 C84.2605,63.2230969 85.2725,62.7860969 86.2845,62.2110969 C86.6065,62.0270969 86.8825,61.7280969 86.8825,61.3600969 C86.8825,60.8310969 86.4455,60.4630969 85.9625,60.4630969 L85.9625,60.4630969 Z M81.7995,52.8040969 C83.2715,52.8040969 85.0655,53.7700969 85.2035,56.1620969 L78.4185,56.1620969 C78.5565,53.7700969 80.3275,52.8040969 81.7995,52.8040969 L81.7995,52.8040969 Z M91.4825,54.5520969 C91.4825,53.6320969 92.4255,52.9420969 94.1275,52.9420969 C95.1395,52.9420969 96.0135,53.1260969 96.7495,53.3560969 C96.8415,53.3790969 96.9335,53.4020969 97.0485,53.4020969 C97.5775,53.4020969 97.9685,52.9650969 97.9685,52.4820969 C97.9685,52.1370969 97.7385,51.7460969 97.3015,51.6080969 C96.3585,51.2630969 95.2315,51.0330969 93.9665,51.0330969 C90.9765,51.0330969 89.4815,52.5970969 89.4815,54.6670969 C89.4815,58.8530969 96.3815,57.6800969 96.3815,59.6580969 C96.3815,60.6930969 95.5995,61.2910969 93.8285,61.2910969 C92.4715,61.2910969 91.5285,60.9690969 90.7005,60.6010969 C90.5395,60.5320969 90.4245,60.5090969 90.2865,60.5090969 C89.7575,60.5090969 89.3895,60.9690969 89.3895,61.4290969 C89.3895,61.7510969 89.5505,62.0270969 89.7805,62.1880969 C90.9535,62.8320969 92.2875,63.2230969 93.9665,63.2230969 C96.9105,63.2230969 98.4055,61.6820969 98.4055,59.8190969 C98.4055,55.3110969 91.4825,56.9440969 91.4825,54.5520969 L91.4825,54.5520969 Z M106.8695,61.1760969 C106.4785,61.1760969 106.2255,61.3830969 105.4895,61.3830969 C104.9145,61.3830969 103.9945,61.3600969 103.9945,60.0030969 L103.9945,53.0570969 L106.5935,53.0570969 C107.0995,53.0570969 107.4905,52.6660969 107.4905,52.1600969 C107.4905,51.6540969 107.0995,51.2630969 106.5935,51.2630969 L103.9945,51.2630969 L103.9945,49.4230969 C103.9945,49.1700969 103.8105,48.9630969 103.5575,48.9630969 C103.3735,48.9630969 103.2355,49.1010969 103.1665,49.1700969 L100.0385,52.2290969 C99.9005,52.3440969 99.8315,52.4820969 99.8315,52.6200969 C99.8315,52.8730969 100.0155,53.0570969 100.2685,53.0570969 L101.9015,53.0570969 L101.9015,60.1870969 C101.9015,63.0390969 104.1785,63.2230969 105.2595,63.2230969 C105.9955,63.2230969 106.6165,63.0620969 107.1685,62.8090969 C107.4905,62.6480969 107.6975,62.3950969 107.6975,62.0040969 C107.6975,61.5210969 107.2835,61.1760969 106.8695,61.1760969 L106.8695,61.1760969 Z M111.1015,51.1480969 C110.5265,51.1480969 110.0665,51.6080969 110.0665,52.2060969 L110.0665,62.0730969 C110.0665,62.6480969 110.5265,63.1080969 111.1015,63.1080969 C111.6995,63.1080969 112.1595,62.6480969 112.1595,62.0730969 L112.1595,52.2060969 C112.1595,51.6080969 111.6995,51.1480969 111.1015,51.1480969 L111.1015,51.1480969 Z M112.3665,47.6060969 C112.3665,46.9620969 111.8375,46.4330969 111.1935,46.4330969 L111.0555,46.4330969 C110.4115,46.4330969 109.8825,46.9620969 109.8825,47.6060969 L109.8825,47.6980969 C109.8825,48.3420969 110.4115,48.8710969 111.0555,48.8710969 L111.1935,48.8710969 C111.8375,48.8710969 112.3665,48.3420969 112.3665,47.6980969 L112.3665,47.6060969 L112.3665,47.6060969 Z M121.0605,51.0330969 C117.4955,51.0330969 115.1725,53.4940969 115.1725,57.1280969 C115.1725,60.7620969 117.4955,63.2230969 121.0605,63.2230969 C124.6025,63.2230969 126.9485,60.7620969 126.9485,57.1280969 C126.9485,53.4940969 124.6025,51.0330969 121.0605,51.0330969 L121.0605,51.0330969 Z M121.0605,61.3140969 C119.2895,61.3140969 117.2655,60.1640969 117.2655,57.1050969 C117.2655,54.0690969 119.2895,52.9420969 121.0605,52.9420969 C122.8085,52.9420969 124.8555,54.0690969 124.8555,57.1050969 C124.8555,60.1640969 122.8085,61.3140969 121.0605,61.3140969 L121.0605,61.3140969 Z M136.2405,51.0330969 C134.1935,51.0330969 132.9285,52.0910969 131.9625,53.1490969 L131.9625,52.2060969 C131.9625,51.6080969 131.4795,51.1480969 130.9045,51.1480969 C130.3295,51.1480969 129.8695,51.6080969 129.8695,52.2060969 L129.8695,62.0730969 C129.8695,62.6480969 130.3295,63.1080969 130.9045,63.1080969 C131.4795,63.1080969 131.9625,62.6480969 131.9625,62.0730969 L131.9625,55.1730969 C132.8825,54.0230969 134.0785,52.9650969 135.7345,52.9650969 C137.5285,52.9650969 138.2645,54.0230969 138.2645,55.7710969 L138.2645,62.0730969 C138.2645,62.6480969 138.7245,63.1080969 139.2995,63.1080969 C139.8745,63.1080969 140.3575,62.6480969 140.3575,62.0730969 L140.3575,55.5410969 C140.3575,53.0800969 138.8625,51.0330969 136.2405,51.0330969 L136.2405,51.0330969 Z M145.2565,54.5520969 C145.2565,53.6320969 146.1995,52.9420969 147.9015,52.9420969 C148.9135,52.9420969 149.7875,53.1260969 150.5235,53.3560969 C150.6155,53.3790969 150.7075,53.4020969 150.8225,53.4020969 C151.3515,53.4020969 151.7425,52.9650969 151.7425,52.4820969 C151.7425,52.1370969 151.5125,51.7460969 151.0755,51.6080969 C150.1325,51.2630969 149.0055,51.0330969 147.7405,51.0330969 C144.7505,51.0330969 143.2555,52.5970969 143.2555,54.6670969 C143.2555,58.8530969 150.1555,57.6800969 150.1555,59.6580969 C150.1555,60.6930969 149.3735,61.2910969 147.6025,61.2910969 C146.2455,61.2910969 145.3025,60.9690969 144.4745,60.6010969 C144.3135,60.5320969 144.1985,60.5090969 144.0605,60.5090969 C143.5315,60.5090969 143.1635,60.9690969 143.1635,61.4290969 C143.1635,61.7510969 143.3245,62.0270969 143.5545,62.1880969 C144.7275,62.8320969 146.0615,63.2230969 147.7405,63.2230969 C150.6845,63.2230969 152.1795,61.6820969 152.1795,59.8190969 C152.1795,55.3110969 145.2565,56.9440969 145.2565,54.5520969 L145.2565,54.5520969 Z M158.3205,46.7090969 C156.8025,46.7090969 155.5605,47.0080969 154.2725,47.8130969 C153.9735,47.9970969 153.6975,48.2500969 153.6975,48.6870969 C153.6975,49.1930969 154.1115,49.6070969 154.6175,49.6070969 C154.8015,49.6070969 155.0545,49.5150969 155.1925,49.4230969 C155.9975,48.9170969 157.1015,48.6640969 158.1365,48.6640969 C160.4595,48.6640969 161.4255,49.6070969 161.4255,51.1710969 C161.4255,53.4250969 157.1705,53.9080969 157.1705,57.8180969 C157.1705,58.3010969 157.6075,58.7150969 158.1825,58.7150969 C158.7115,58.7150969 159.1945,58.3240969 159.1945,57.8180969 C159.1945,54.8740969 163.4955,54.7360969 163.4955,51.0560969 C163.4955,48.3880969 161.4485,46.7090969 158.3205,46.7090969 L158.3205,46.7090969 Z M158.1365,60.3480969 C157.4005,60.3480969 156.7795,60.9690969 156.7795,61.7050969 C156.7795,62.4640969 157.4005,63.0850969 158.1365,63.0850969 C158.8955,63.0850969 159.5165,62.4640969 159.5165,61.7050969 C159.5165,60.9690969 158.8955,60.3480969 158.1365,60.3480969 L158.1365,60.3480969 Z" id="Questions?" fill="#474E5D"></path>
            </g>
            <g id="Group" transform="translate(120.000000, 85.112603)" sketch:type="MSShapeGroup">
                <path d="M63,138 C104.026869,138 123,118.925948 123,77.6808511 C123,36.4357539 104.026869,3 63,3 C21.9731308,3 3,36.4357539 3,77.6808511 C3,118.925948 21.9731308,138 63,138 Z" id="Oval-2-copy" fill="#6F4073" transform="translate(63.000000, 70.500000) rotate(-357.000000) translate(-63.000000, -70.500000) "></path>
                <path d="M41.0313078,68.5505386 C39.5243738,72.0036675 37.0241014,74.6175559 33.4533846,76.7547435 C33.0725295,76.9605049 32.6754188,77.0785039 32.2512463,77.0785039 C31.4310408,77.0785039 30.6936166,76.6566665 30.3349812,75.9564966 C30.1259841,75.5906579 30.0020557,75.2071956 30.0020557,74.8082078 C30.0020557,74.0058692 30.4637856,73.2902453 31.2000504,72.932626 C33.7557595,71.6168509 35.786294,69.5424859 36.9133253,67.1939522 C38.2498951,64.4499822 38.7101782,62.2310508 38.7101782,58.0374619 C38.7101782,56.7999504 39.7423444,56.0785039 40.9593688,56.0785039 C42.1285226,56.0785039 43.1445291,56.8235809 43.1445291,58.0374619 C43.1445291,62.1956171 43.6033153,64.2999871 44.9934133,66.9831779 C46.1654702,69.2627606 48.4033139,71.5017747 50.9054781,72.8570246 C51.6361697,73.2123128 52.0020557,73.9387654 52.0020557,74.7044285 C52.0020557,75.1138149 51.8792182,75.5264809 51.6691302,75.894229 L51.6148654,75.9807755 C51.1747485,76.622777 50.5045435,76.9747246 49.7528651,76.9747246 C49.3318896,76.9747246 48.9075418,76.8552686 48.4857701,76.626303 C45.207217,74.6879629 42.5944858,71.9201609 41.0313078,68.5505386 Z M86.0271964,66.3935308 C84.5202624,69.8466596 82.01999,72.460548 78.4492732,74.5977356 C78.0684181,74.803497 77.6713074,74.9214961 77.2471349,74.9214961 C76.4269294,74.9214961 75.6895052,74.4996586 75.3308698,73.7994887 C75.1218727,73.4336501 74.9979443,73.0501877 74.9979443,72.6512 C74.9979443,71.8488614 75.4596742,71.1332374 76.195939,70.7756181 C78.7516481,69.459843 80.7821826,67.3854781 81.9092139,65.0369443 C83.2457837,62.2929743 83.7060668,60.0740429 83.7060668,55.8804541 C83.7060668,54.6429425 84.738233,53.9214961 85.9552574,53.9214961 C87.1244112,53.9214961 88.1404177,54.666573 88.1404177,55.8804541 C88.1404177,60.0386092 88.5992039,62.1429793 89.9893019,64.82617 C91.1613589,67.1057527 93.3992025,69.3447669 95.9013667,70.7000167 C96.6320583,71.0553049 96.9979443,71.7817575 96.9979443,72.5474206 C96.9979443,72.9568071 96.8751068,73.369473 96.6650188,73.7372211 L96.610754,73.8237677 C96.1706371,74.4657691 95.5004321,74.8177167 94.7487537,74.8177167 C94.3277782,74.8177167 93.9034304,74.6982608 93.4816587,74.4692952 C90.2031056,72.5309551 87.5903744,69.7631531 86.0271964,66.3935308 Z" id="人-人-copy" fill="#FFFFFF" transform="translate(63.500000, 65.500000) rotate(-357.000000) translate(-63.500000, -65.500000) "></path>
                <path d="M122.556429,51.3623457 L122.54911,51.254321 C122.394802,48.8685185 120.425392,47 118.064418,47 C117.966222,47 117.867416,47.0030864 117.813133,47.0074074 L72.09952,48.5753086 C70.9010403,48.654321 69.8050261,49.2018519 69.0127487,50.1160494 C68.2204713,51.0296296 67.8276871,52.2012346 67.9063659,53.4141975 L68.0631136,55.8351852 C65.2117688,53.9919753 62.3439564,54.7864198 60.5471518,55.6833333 L60.6941409,53.4141975 C60.7728197,52.2012346 60.3800355,51.0296296 59.5877581,50.1160494 C58.7960906,49.2018519 57.6994664,48.6549383 56.4558532,48.5728395 L10.831897,48.0419753 C8.35381915,47.8709877 6.21180356,49.8012346 6.05139635,52.2864198 L6.04468731,52.3938272 C4.94806315,52.4407407 3,52.9802469 3,56.2518519 C3,59.8296296 5.77327588,59.4685185 6.96077712,59.1506173 L7.95493584,74.9061728 C7.88235615,77.341358 9.734053,79.4228395 12.0968572,79.5777778 L54.3412837,81.9901235 C54.4406996,81.9969136 54.5395055,82 54.6377016,82 L54.6383115,82 C56.998676,82 58.9680862,80.1314815 59.1223942,77.745679 L60.1604667,60.6580247 C62.0060644,59.6567901 65.2819089,58.562963 68.4583375,60.895679 L69.4811621,77.745679 C69.6354702,80.1314815 71.6048803,82 73.9658548,82 C74.0640508,82 74.1634667,81.9969136 74.3220442,81.9851852 L116.446928,79.582716 C118.867674,79.4222222 120.7212,77.341358 120.648621,74.9055556 L121.658027,58.004321 C122.428348,58.2691358 126,59.2796296 126,55.2191358 C125.99817,51.5024691 123.478618,51.3092593 122.556429,51.3623457 L122.556429,51.3623457 Z M55.452754,78.4201592 C55.3982643,79.3054806 54.702473,79.998728 53.8683617,79.998728 L53.8198599,80 L12.3460258,77.5144856 C11.4711969,77.453429 10.8059438,76.6476084 10.8628286,75.7184025 L10.8718104,75.5663969 L9,52.4507314 C9.11017694,51.6277387 9.77782525,51 10.571219,51 L55.5138304,51.5533259 C55.9377721,51.5832182 56.3245889,51.7861043 56.6054204,52.1250959 C56.885653,52.4647236 57.0245718,52.8997522 56.9964288,53.349409 L55.452754,78.4201592 L55.452754,78.4201592 Z M117.137189,75.728521 C117.194074,76.6558064 116.528827,77.4605962 115.595326,77.5259695 L74.2392504,79.9961918 C73.2979652,80 72.6027793,79.3075507 72.5476913,78.4246938 L71.0034326,53.4057588 C70.9758886,52.9563966 71.1148061,52.5229018 71.395036,52.1839761 C71.675266,51.8456852 72.0626779,51.6432183 72.4423057,51.6159265 L117.321614,50.0038082 C118.221583,50 118.889225,50.6258066 119,51.4477331 L117.127609,75.5768295 L117.137189,75.728521 Z" id="Shape" fill="#FFFFFF"></path>
            </g>
            <path d="M134.830607,112.608533 C134.830607,112.608533 141.414591,98.037243 148.463419,94.006969 C155.512247,89.9766955 173.677286,87.1290374 182.376505,87.1290393 C191.075724,87.1290412 234.794475,92.7921255 242.487833,82.1534534 C250.181193,71.5147815 249.899942,105.989391 230.083536,119.379039 C210.26713,132.768688 134.830607,112.608533 134.830607,112.608533 Z" id="Path-145" fill="#855689" sketch:type="MSShapeGroup"></path>
            <ellipse id="Oval-31" opacity="0.49921875" fill="#6F4073" sketch:type="MSShapeGroup" cx="187" cy="257.112603" rx="64" ry="4"></ellipse>
            <path d="M122.498047,178.556641 C132.445312,202.052734 151.80957,194.015625 151.80957,194.015625 C151.80957,194.015625 165.632812,187.001953 182.119141,187.001953 C198.605469,187.001953 215.777344,194.015625 215.777344,194.015625 C215.777344,194.015625 234.666016,202.052734 241.433594,178.556641 C241.433594,178.556641 239.433594,225.548832 182.119141,225.548828 C124.804687,225.548825 122.498047,178.556641 122.498047,178.556641 Z M198.262421,200.738858 C189.11928,200.738858 174.186059,200.738858 165.707799,200.738858 C161.825828,200.738858 162.011465,203.61614 166.201211,206.552657 C170.567089,209.612621 176.535034,212.736904 182.703205,212.736904 C188.267264,212.736904 194.031212,209.823535 198.446985,206.868028 C202.992374,203.825768 202.945277,200.738858 198.262421,200.738858 Z" id="Path-142" fill="#855689" sketch:type="MSShapeGroup"></path>
        </g>
    </g>
</svg>