<?xml version="1.0" encoding="UTF-8" standalone="no"?>
<svg width="251px" height="261px" viewBox="0 0 251 261" version="1.1" xmlns="http://www.w3.org/2000/svg" xmlns:xlink="http://www.w3.org/1999/xlink" xmlns:sketch="http://www.bohemiancoding.com/sketch/ns">
    <!-- Generator: Sketch 3.3 (11970) - http://www.bohemiancoding.com/sketch -->
    <title>info-contact_fr</title>
    <desc>Created with Sketch.</desc>
    <defs></defs>
    <g id="Page-1" stroke="none" stroke-width="1" fill="none" fill-rule="evenodd" sketch:type="MSPage">
        <g id="info-contact_fr" sketch:type="MSLayerGroup" transform="translate(0.000000, -0.105700)">
            <g id="Group" transform="translate(0.000000, 0.112603)" sketch:type="MSShapeGroup">
                <path d="M57.0557048,115.412037 C23.2310645,105.428755 0,84.7660636 0,60.8954758 C0,27.2638315 46.114668,0 103,0 C159.885332,0 206,27.2638315 206,60.8954758 C206,94.5271201 159.885332,121.790952 103,121.790952 C98.5231299,121.790952 94.1129697,121.622088 89.7867477,121.294547 L101.474447,147.218751 L57.0557085,115.412038 Z" id="Oval-19" fill="#FFFFFF"></path>
                <path d="M43.194,46.9390969 L37.95,46.9390969 C37.375,46.9390969 36.915,47.4220969 36.915,47.9970969 L36.915,62.0730969 C36.915,62.6480969 37.375,63.1080969 37.95,63.1080969 C38.525,63.1080969 39.008,62.6480969 39.008,62.0730969 L39.008,57.1510969 L43.194,57.1510969 C47.84,57.1510969 49.335,54.4830969 49.335,52.0450969 C49.335,49.6070969 47.84,46.9390969 43.194,46.9390969 L43.194,46.9390969 Z M42.987,55.1730969 L39.008,55.1730969 L39.008,48.9170969 L42.987,48.9170969 C46.414,48.9170969 47.242,50.5500969 47.242,52.0450969 C47.242,53.5400969 46.414,55.1730969 42.987,55.1730969 L42.987,55.1730969 Z M53.107,46.0880969 C52.532,46.0880969 52.072,46.5480969 52.072,47.1460969 L52.072,62.0730969 C52.072,62.6480969 52.532,63.1080969 53.107,63.1080969 C53.705,63.1080969 54.165,62.6480969 54.165,62.0730969 L54.165,47.1460969 C54.165,46.5480969 53.705,46.0880969 53.107,46.0880969 L53.107,46.0880969 Z M62.008,63.2230969 C64.055,63.2230969 65.32,62.1650969 66.286,61.1070969 L66.286,62.0500969 C66.286,62.6480969 66.769,63.1080969 67.344,63.1080969 C67.919,63.1080969 68.379,62.6480969 68.379,62.0500969 L68.379,52.1830969 C68.379,51.6080969 67.919,51.1480969 67.344,51.1480969 C66.769,51.1480969 66.286,51.6080969 66.286,52.1830969 L66.286,59.0830969 C65.366,60.2330969 64.17,61.2910969 62.514,61.2910969 C60.72,61.2910969 59.984,60.2330969 59.984,58.4850969 L59.984,52.1830969 C59.984,51.6080969 59.524,51.1480969 58.949,51.1480969 C58.374,51.1480969 57.891,51.6080969 57.891,52.1830969 L57.891,58.7150969 C57.891,61.1760969 59.386,63.2230969 62.008,63.2230969 L62.008,63.2230969 Z M73.393,54.5520969 C73.393,53.6320969 74.336,52.9420969 76.038,52.9420969 C77.05,52.9420969 77.924,53.1260969 78.66,53.3560969 C78.752,53.3790969 78.844,53.4020969 78.959,53.4020969 C79.488,53.4020969 79.879,52.9650969 79.879,52.4820969 C79.879,52.1370969 79.649,51.7460969 79.212,51.6080969 C78.269,51.2630969 77.142,51.0330969 75.877,51.0330969 C72.887,51.0330969 71.392,52.5970969 71.392,54.6670969 C71.392,58.8530969 78.292,57.6800969 78.292,59.6580969 C78.292,60.6930969 77.51,61.2910969 75.739,61.2910969 C74.382,61.2910969 73.439,60.9690969 72.611,60.6010969 C72.45,60.5320969 72.335,60.5090969 72.197,60.5090969 C71.668,60.5090969 71.3,60.9690969 71.3,61.4290969 C71.3,61.7510969 71.461,62.0270969 71.691,62.1880969 C72.864,62.8320969 74.198,63.2230969 75.877,63.2230969 C78.821,63.2230969 80.316,61.6820969 80.316,59.8190969 C80.316,55.3110969 73.393,56.9440969 73.393,54.5520969 L73.393,54.5520969 Z M93.886,51.0330969 C91.103,51.0330969 88.32,53.2180969 88.32,57.1280969 C88.32,61.0380969 91.103,63.2230969 93.886,63.2230969 C95.496,63.2230969 96.761,62.5790969 97.819,61.4750969 L97.819,62.0730969 C97.819,62.6480969 98.279,63.1080969 98.877,63.1080969 C99.452,63.1080969 99.912,62.6480969 99.912,62.0730969 L99.912,47.1460969 C99.912,46.5480969 99.452,46.0880969 98.877,46.0880969 C98.279,46.0880969 97.819,46.5480969 97.819,47.1460969 L97.819,52.7810969 C96.761,51.6770969 95.496,51.0330969 93.886,51.0330969 L93.886,51.0330969 Z M94.185,61.2680969 C92,61.2680969 90.413,59.8420969 90.413,57.1280969 C90.413,54.4140969 92,52.9880969 94.185,52.9880969 C95.68,52.9880969 96.922,53.7240969 97.819,54.7130969 L97.819,59.5430969 C96.922,60.5320969 95.68,61.2680969 94.185,61.2680969 L94.185,61.2680969 Z M104.834,45.9040969 L104.604,45.9040969 C103.891,45.9040969 103.316,46.4790969 103.316,47.1920969 L103.316,47.3300969 C103.316,48.0430969 103.891,48.6180969 104.604,48.6180969 L104.696,48.6180969 C104.696,49.8830969 104.19,50.3660969 103.523,50.7570969 C103.293,50.8950969 103.178,51.0790969 103.178,51.3320969 C103.178,51.7000969 103.454,52.0220969 103.845,52.0220969 C104.006,52.0220969 104.167,51.9530969 104.236,51.9070969 C105.133,51.3550969 106.122,50.3890969 106.122,48.5490969 L106.122,47.3300969 L106.122,47.1920969 C106.122,46.4790969 105.547,45.9040969 104.834,45.9040969 L104.834,45.9040969 Z M110.147,51.1480969 C109.572,51.1480969 109.112,51.6080969 109.112,52.2060969 L109.112,62.0730969 C109.112,62.6480969 109.572,63.1080969 110.147,63.1080969 C110.745,63.1080969 111.205,62.6480969 111.205,62.0730969 L111.205,52.2060969 C111.205,51.6080969 110.745,51.1480969 110.147,51.1480969 L110.147,51.1480969 Z M111.412,47.6060969 C111.412,46.9620969 110.883,46.4330969 110.239,46.4330969 L110.101,46.4330969 C109.457,46.4330969 108.928,46.9620969 108.928,47.6060969 L108.928,47.6980969 C108.928,48.3420969 109.457,48.8710969 110.101,48.8710969 L110.239,48.8710969 C110.883,48.8710969 111.412,48.3420969 111.412,47.6980969 L111.412,47.6060969 L111.412,47.6060969 Z M121.302,51.0330969 C119.255,51.0330969 117.99,52.0910969 117.024,53.1490969 L117.024,52.2060969 C117.024,51.6080969 116.541,51.1480969 115.966,51.1480969 C115.391,51.1480969 114.931,51.6080969 114.931,52.2060969 L114.931,62.0730969 C114.931,62.6480969 115.391,63.1080969 115.966,63.1080969 C116.541,63.1080969 117.024,62.6480969 117.024,62.0730969 L117.024,55.1730969 C117.944,54.0230969 119.14,52.9650969 120.796,52.9650969 C122.59,52.9650969 123.326,54.0230969 123.326,55.7710969 L123.326,62.0730969 C123.326,62.6480969 123.786,63.1080969 124.361,63.1080969 C124.936,63.1080969 125.419,62.6480969 125.419,62.0730969 L125.419,55.5410969 C125.419,53.0800969 123.924,51.0330969 121.302,51.0330969 L121.302,51.0330969 Z M133.791,47.9740969 C134.228,47.9740969 134.573,48.1120969 134.941,48.1120969 C135.424,48.1120969 135.792,47.6750969 135.792,47.2380969 C135.792,46.8700969 135.539,46.5710969 135.263,46.4330969 C134.711,46.1570969 134.021,45.9730969 133.262,45.9730969 C131.629,45.9730969 129.812,47.0310969 129.812,49.9290969 L129.812,51.2630969 L128.455,51.2630969 C127.949,51.2630969 127.558,51.6540969 127.558,52.1600969 C127.558,52.6660969 127.949,53.0570969 128.455,53.0570969 L129.812,53.0570969 L129.812,62.0730969 C129.812,62.6480969 130.272,63.1080969 130.847,63.1080969 C131.445,63.1080969 131.905,62.6480969 131.905,62.0730969 L131.905,53.0570969 L134.78,53.0570969 C135.286,53.0570969 135.677,52.6660969 135.677,52.1600969 C135.677,51.6540969 135.286,51.2630969 134.78,51.2630969 L131.905,51.2630969 L131.905,49.9980969 C131.905,48.3650969 132.641,47.9740969 133.791,47.9740969 L133.791,47.9740969 Z M142.853,51.0330969 C139.288,51.0330969 136.965,53.4940969 136.965,57.1280969 C136.965,60.7620969 139.288,63.2230969 142.853,63.2230969 C146.395,63.2230969 148.741,60.7620969 148.741,57.1280969 C148.741,53.4940969 146.395,51.0330969 142.853,51.0330969 L142.853,51.0330969 Z M142.853,61.3140969 C141.082,61.3140969 139.058,60.1640969 139.058,57.1050969 C139.058,54.0690969 141.082,52.9420969 142.853,52.9420969 C144.601,52.9420969 146.648,54.0690969 146.648,57.1050969 C146.648,60.1640969 144.601,61.3140969 142.853,61.3140969 L142.853,61.3140969 Z M153.042,54.5520969 C153.042,53.6320969 153.985,52.9420969 155.687,52.9420969 C156.699,52.9420969 157.573,53.1260969 158.309,53.3560969 C158.401,53.3790969 158.493,53.4020969 158.608,53.4020969 C159.137,53.4020969 159.528,52.9650969 159.528,52.4820969 C159.528,52.1370969 159.298,51.7460969 158.861,51.6080969 C157.918,51.2630969 156.791,51.0330969 155.526,51.0330969 C152.536,51.0330969 151.041,52.5970969 151.041,54.6670969 C151.041,58.8530969 157.941,57.6800969 157.941,59.6580969 C157.941,60.6930969 157.159,61.2910969 155.388,61.2910969 C154.031,61.2910969 153.088,60.9690969 152.26,60.6010969 C152.099,60.5320969 151.984,60.5090969 151.846,60.5090969 C151.317,60.5090969 150.949,60.9690969 150.949,61.4290969 C150.949,61.7510969 151.11,62.0270969 151.34,62.1880969 C152.513,62.8320969 153.847,63.2230969 155.526,63.2230969 C158.47,63.2230969 159.965,61.6820969 159.965,59.8190969 C159.965,55.3110969 153.042,56.9440969 153.042,54.5520969 L153.042,54.5520969 Z M166.106,46.7090969 C164.588,46.7090969 163.346,47.0080969 162.058,47.8130969 C161.759,47.9970969 161.483,48.2500969 161.483,48.6870969 C161.483,49.1930969 161.897,49.6070969 162.403,49.6070969 C162.587,49.6070969 162.84,49.5150969 162.978,49.4230969 C163.783,48.9170969 164.887,48.6640969 165.922,48.6640969 C168.245,48.6640969 169.211,49.6070969 169.211,51.1710969 C169.211,53.4250969 164.956,53.9080969 164.956,57.8180969 C164.956,58.3010969 165.393,58.7150969 165.968,58.7150969 C166.497,58.7150969 166.98,58.3240969 166.98,57.8180969 C166.98,54.8740969 171.281,54.7360969 171.281,51.0560969 C171.281,48.3880969 169.234,46.7090969 166.106,46.7090969 L166.106,46.7090969 Z M165.922,60.3480969 C165.186,60.3480969 164.565,60.9690969 164.565,61.7050969 C164.565,62.4640969 165.186,63.0850969 165.922,63.0850969 C166.681,63.0850969 167.302,62.4640969 167.302,61.7050969 C167.302,60.9690969 166.681,60.3480969 165.922,60.3480969 L165.922,60.3480969 Z" id="Plus-d’infos?" fill="#474E5D"></path>
            </g>
            <g id="Group" transform="translate(120.000000, 85.112603)" sketch:type="MSShapeGroup">
                <path d="M63,138 C104.026869,138 123,118.925948 123,77.6808511 C123,36.4357539 104.026869,3 63,3 C21.9731308,3 3,36.4357539 3,77.6808511 C3,118.925948 21.9731308,138 63,138 Z" id="Oval-2-copy" fill="#6F4073" transform="translate(63.000000, 70.500000) rotate(-357.000000) translate(-63.000000, -70.500000) "></path>
                <path d="M41.0313078,68.5505386 C39.5243738,72.0036675 37.0241014,74.6175559 33.4533846,76.7547435 C33.0725295,76.9605049 32.6754188,77.0785039 32.2512463,77.0785039 C31.4310408,77.0785039 30.6936166,76.6566665 30.3349812,75.9564966 C30.1259841,75.5906579 30.0020557,75.2071956 30.0020557,74.8082078 C30.0020557,74.0058692 30.4637856,73.2902453 31.2000504,72.932626 C33.7557595,71.6168509 35.786294,69.5424859 36.9133253,67.1939522 C38.2498951,64.4499822 38.7101782,62.2310508 38.7101782,58.0374619 C38.7101782,56.7999504 39.7423444,56.0785039 40.9593688,56.0785039 C42.1285226,56.0785039 43.1445291,56.8235809 43.1445291,58.0374619 C43.1445291,62.1956171 43.6033153,64.2999871 44.9934133,66.9831779 C46.1654702,69.2627606 48.4033139,71.5017747 50.9054781,72.8570246 C51.6361697,73.2123128 52.0020557,73.9387654 52.0020557,74.7044285 C52.0020557,75.1138149 51.8792182,75.5264809 51.6691302,75.894229 L51.6148654,75.9807755 C51.1747485,76.622777 50.5045435,76.9747246 49.7528651,76.9747246 C49.3318896,76.9747246 48.9075418,76.8552686 48.4857701,76.626303 C45.207217,74.6879629 42.5944858,71.9201609 41.0313078,68.5505386 Z M86.0271964,66.3935308 C84.5202624,69.8466596 82.01999,72.460548 78.4492732,74.5977356 C78.0684181,74.803497 77.6713074,74.9214961 77.2471349,74.9214961 C76.4269294,74.9214961 75.6895052,74.4996586 75.3308698,73.7994887 C75.1218727,73.4336501 74.9979443,73.0501877 74.9979443,72.6512 C74.9979443,71.8488614 75.4596742,71.1332374 76.195939,70.7756181 C78.7516481,69.459843 80.7821826,67.3854781 81.9092139,65.0369443 C83.2457837,62.2929743 83.7060668,60.0740429 83.7060668,55.8804541 C83.7060668,54.6429425 84.738233,53.9214961 85.9552574,53.9214961 C87.1244112,53.9214961 88.1404177,54.666573 88.1404177,55.8804541 C88.1404177,60.0386092 88.5992039,62.1429793 89.9893019,64.82617 C91.1613589,67.1057527 93.3992025,69.3447669 95.9013667,70.7000167 C96.6320583,71.0553049 96.9979443,71.7817575 96.9979443,72.5474206 C96.9979443,72.9568071 96.8751068,73.369473 96.6650188,73.7372211 L96.610754,73.8237677 C96.1706371,74.4657691 95.5004321,74.8177167 94.7487537,74.8177167 C94.3277782,74.8177167 93.9034304,74.6982608 93.4816587,74.4692952 C90.2031056,72.5309551 87.5903744,69.7631531 86.0271964,66.3935308 Z" id="人-人-copy" fill="#FFFFFF" transform="translate(63.500000, 65.500000) rotate(-357.000000) translate(-63.500000, -65.500000) "></path>
                <path d="M122.556429,51.3623457 L122.54911,51.254321 C122.394802,48.8685185 120.425392,47 118.064418,47 C117.966222,47 117.867416,47.0030864 117.813133,47.0074074 L72.09952,48.5753086 C70.9010403,48.654321 69.8050261,49.2018519 69.0127487,50.1160494 C68.2204713,51.0296296 67.8276871,52.2012346 67.9063659,53.4141975 L68.0631136,55.8351852 C65.2117688,53.9919753 62.3439564,54.7864198 60.5471518,55.6833333 L60.6941409,53.4141975 C60.7728197,52.2012346 60.3800355,51.0296296 59.5877581,50.1160494 C58.7960906,49.2018519 57.6994664,48.6549383 56.4558532,48.5728395 L10.831897,48.0419753 C8.35381915,47.8709877 6.21180356,49.8012346 6.05139635,52.2864198 L6.04468731,52.3938272 C4.94806315,52.4407407 3,52.9802469 3,56.2518519 C3,59.8296296 5.77327588,59.4685185 6.96077712,59.1506173 L7.95493584,74.9061728 C7.88235615,77.341358 9.734053,79.4228395 12.0968572,79.5777778 L54.3412837,81.9901235 C54.4406996,81.9969136 54.5395055,82 54.6377016,82 L54.6383115,82 C56.998676,82 58.9680862,80.1314815 59.1223942,77.745679 L60.1604667,60.6580247 C62.0060644,59.6567901 65.2819089,58.562963 68.4583375,60.895679 L69.4811621,77.745679 C69.6354702,80.1314815 71.6048803,82 73.9658548,82 C74.0640508,82 74.1634667,81.9969136 74.3220442,81.9851852 L116.446928,79.582716 C118.867674,79.4222222 120.7212,77.341358 120.648621,74.9055556 L121.658027,58.004321 C122.428348,58.2691358 126,59.2796296 126,55.2191358 C125.99817,51.5024691 123.478618,51.3092593 122.556429,51.3623457 L122.556429,51.3623457 Z M55.452754,78.4201592 C55.3982643,79.3054806 54.702473,79.998728 53.8683617,79.998728 L53.8198599,80 L12.3460258,77.5144856 C11.4711969,77.453429 10.8059438,76.6476084 10.8628286,75.7184025 L10.8718104,75.5663969 L9,52.4507314 C9.11017694,51.6277387 9.77782525,51 10.571219,51 L55.5138304,51.5533259 C55.9377721,51.5832182 56.3245889,51.7861043 56.6054204,52.1250959 C56.885653,52.4647236 57.0245718,52.8997522 56.9964288,53.349409 L55.452754,78.4201592 L55.452754,78.4201592 Z M117.137189,75.728521 C117.194074,76.6558064 116.528827,77.4605962 115.595326,77.5259695 L74.2392504,79.9961918 C73.2979652,80 72.6027793,79.3075507 72.5476913,78.4246938 L71.0034326,53.4057588 C70.9758886,52.9563966 71.1148061,52.5229018 71.395036,52.1839761 C71.675266,51.8456852 72.0626779,51.6432183 72.4423057,51.6159265 L117.321614,50.0038082 C118.221583,50 118.889225,50.6258066 119,51.4477331 L117.127609,75.5768295 L117.137189,75.728521 Z" id="Shape" fill="#FFFFFF"></path>
            </g>
            <path d="M134.830607,112.608533 C134.830607,112.608533 141.414591,98.037243 148.463419,94.006969 C155.512247,89.9766955 173.677286,87.1290374 182.376505,87.1290393 C191.075724,87.1290412 234.794475,92.7921255 242.487833,82.1534534 C250.181193,71.5147815 249.899942,105.989391 230.083536,119.379039 C210.26713,132.768688 134.830607,112.608533 134.830607,112.608533 Z" id="Path-145" fill="#855689" sketch:type="MSShapeGroup"></path>
            <ellipse id="Oval-31" opacity="0.49921875" fill="#6F4073" sketch:type="MSShapeGroup" cx="187" cy="257.112603" rx="64" ry="4"></ellipse>
            <path d="M122.498047,178.556641 C132.445312,202.052734 151.80957,194.015625 151.80957,194.015625 C151.80957,194.015625 165.632812,187.001953 182.119141,187.001953 C198.605469,187.001953 215.777344,194.015625 215.777344,194.015625 C215.777344,194.015625 234.666016,202.052734 241.433594,178.556641 C241.433594,178.556641 239.433594,225.548832 182.119141,225.548828 C124.804687,225.548825 122.498047,178.556641 122.498047,178.556641 Z M198.262421,200.738858 C189.11928,200.738858 174.186059,200.738858 165.707799,200.738858 C161.825828,200.738858 162.011465,203.61614 166.201211,206.552657 C170.567089,209.612621 176.535034,212.736904 182.703205,212.736904 C188.267264,212.736904 194.031212,209.823535 198.446985,206.868028 C202.992374,203.825768 202.945277,200.738858 198.262421,200.738858 Z" id="Path-142" fill="#855689" sketch:type="MSShapeGroup"></path>
        </g>
    </g>
</svg>