<?xml version="1.0" encoding="UTF-8" standalone="no"?>
<svg width="300px" height="150px" viewBox="0 0 300 150" version="1.1" xmlns="http://www.w3.org/2000/svg" xmlns:xlink="http://www.w3.org/1999/xlink" xmlns:sketch="http://www.bohemiancoding.com/sketch/ns">
    <!-- Generator: Sketch 3.3 (11970) - http://www.bohemiancoding.com/sketch -->
    <title>logo_insieme</title>
    <desc>Created with Sketch.</desc>
    <defs></defs>
    <g id="Page-1" stroke="none" stroke-width="1" fill="none" fill-rule="evenodd" sketch:type="MSPage">
        <g id="logo_insieme" sketch:type="MSLayerGroup" transform="translate(95.500000, 5.000000)">
            <path d="M51.075,0.199643494 C56.15,0.0499108734 60.95,0.673796791 65.575,2.39572193 C68.4,3.44385027 71.075,4.84135472 72.975,7.28698752 C75.25,10.1818182 75.75,13.426025 75.025,16.9447415 C74.85,17.8680927 74.45,17.8930481 73.625,17.6185383 C69.8,16.3458111 66.025,14.973262 61.975,14.3743316 C56.575,13.5757576 51.35,14.2745098 46.2,15.7967914 C39.85,17.6684492 33.825,20.2388592 28.175,23.6827094 C24.225,26.1033868 21.45,29.6221034 19.1,33.4652406 C16.75,37.3083779 14.75,41.3262032 13.45,45.6684492 C12.95,47.3404635 12.675,49.0623886 12.65,50.8342246 C12.55,55.9001783 15.55,58.8948307 19.95,60.342246 C25.725,62.2638146 31.625,61.7896613 37.5,60.9661319 C47.7,59.5187166 57.375,56.1746881 67.025,52.6809269 C69.65,51.7326203 72.275,50.7843137 74.9,49.8609626 C75.325,49.7112299 75.9,49.2370766 76.275,49.7361854 C76.6,50.1604278 76.15,50.684492 75.925,51.1087344 C75.075,52.8805704 73.875,54.4527629 72.525,55.8752228 C67.8,60.8912656 63.175,66.0320856 57.775,70.399287 C50,76.688057 41.3,80.6559715 31.175,81.2049911 C25.575,81.5044563 20.2,81.2798574 15.375,77.9857398 C11.75,75.5151515 8.7,72.4955437 6.325,68.802139 C2.15,62.2887701 0.025,55.1515152 0.175,47.4153298 C0.3,41.4509804 2.075,35.885918 4.525,30.4955437 C7.05,24.9554367 10.45,19.9643494 14.575,15.5472371 C18.45,11.4046346 23.2,8.3600713 28.275,5.86452763 C33.3,3.36898396 38.6,1.64705882 44.125,0.648841355 C46.475,0.174688057 48.85,0.14973262 51.075,0.199643494 L51.075,0.199643494 L51.075,0.199643494 Z M65.75,27.1515152 C73.325,27.1016043 80.275,28.2245989 86.825,31.2691622 C97.7,36.3101604 104.15,44.9447415 107.2,56.3244207 C108.075,59.5935829 108.65,62.912656 108.725,66.2816399 C108.875,72.6951872 106.1,77.7361854 101.25,81.7789661 C97,85.3226381 92.05,87.7682709 87.325,90.5383244 C80.375,94.631016 72.925,97.6256684 65.3,100.245989 C56.325,103.340463 47.45,106.734403 38.425,109.654189 C34.55,110.901961 30.675,112.174688 26.7,113.172906 C26.4,113.247772 26,113.522282 25.775,113.222816 C25.475,112.848485 25.925,112.54902 26.1,112.249554 C27.85,109.529412 30.35,107.582888 32.85,105.661319 C40.225,99.9714795 47.9,94.6559715 55.475,89.2156863 C62.85,83.9251337 70.05,78.3850267 76.875,72.4456328 C79.275,70.3493761 81.55,68.0534759 83.775,65.7825312 C86.3,63.1871658 89.275,61.0659537 91.75,58.4206774 C92.55,57.5721925 93.35,56.6987522 93.875,55.6755793 C94.775,53.9786096 94.5,52.5811052 93.05,51.3083779 C90.325,48.912656 87,47.6898396 83.7,46.4171123 C77.15,43.8467023 70.275,42.9483066 63.35,42.1996435 C59.4,41.7754011 55.525,41.0017825 51.85,39.4545455 C50.575,38.9304813 49.35,38.2816399 48.3,37.3832442 C46.35,35.7361854 46.3,33.4153298 48.1,31.6185383 C49.025,30.6951872 50.15,30.0713012 51.35,29.5721925 C56.1,27.5757576 61.075,27.0766488 65.75,27.1515152 L65.75,27.1515152 L65.75,27.1515152 Z" id="Shape" fill="#0074AB" sketch:type="MSShapeGroup"></path>
            <path d="M4.7873,121.863437 L1.4973,121.863437 L1.4973,139.50693 L4.7873,139.50693 L4.7873,121.863437 L4.7873,121.863437 Z M3.1773,118.719052 C4.3323,118.719052 5.3473,117.740799 5.3473,116.517982 C5.3473,115.330103 4.3323,114.35185 3.1773,114.35185 C1.9523,114.35185 0.9723,115.330103 0.9723,116.517982 C0.9723,117.740799 1.9523,118.719052 3.1773,118.719052 L3.1773,118.719052 L3.1773,118.719052 Z M15.8222998,121.863437 L12.5322998,121.863437 L12.5322998,139.50693 L15.8222998,139.50693 L15.8222998,128.501583 C15.8222998,126.999266 15.6472998,124.518695 17.8172998,124.518695 C19.5672998,124.518695 19.7772998,126.090888 19.7772998,127.313704 L19.7772998,139.50693 L23.0672998,139.50693 L23.0672998,127.383579 C23.0672998,124.693383 22.9622998,121.583936 19.4622998,121.583936 C18.5872998,121.583936 17.8872998,121.793561 17.2922998,122.212813 C16.7322998,122.597127 16.2772998,123.156128 15.8922998,123.889818 L15.8222998,123.889818 L15.8222998,121.863437 L15.8222998,121.863437 Z M37.4622996,122.352563 C36.5172996,121.793561 35.6072996,121.583936 34.4872996,121.583936 C31.6872996,121.583936 29.7622996,123.610317 29.7622996,126.405326 C29.7622996,131.296592 35.2922996,131.506217 35.2922996,134.615665 C35.2922996,135.978232 34.5222996,136.851672 33.0872996,136.851672 C31.9672996,136.851672 31.1972996,136.397483 30.3572996,135.733668 L30.3572996,138.947929 C31.3372996,139.541868 32.0722996,139.786431 33.2272996,139.786431 C36.3772996,139.786431 38.3022996,137.655237 38.3022996,134.54579 C38.3022996,129.514774 32.8422996,129.375023 32.7722996,126.405326 C32.7722996,125.217447 33.7872996,124.518695 35.0122996,124.518695 C35.8172996,124.518695 36.8322996,124.903009 37.4622996,125.462011 L37.4622996,122.352563 L37.4622996,122.352563 Z M48.4272994,121.863437 L45.1372994,121.863437 L45.1372994,139.50693 L48.4272994,139.50693 L48.4272994,121.863437 L48.4272994,121.863437 Z M46.8172994,118.719052 C47.9722994,118.719052 48.9872994,117.740799 48.9872994,116.517982 C48.9872994,115.330103 47.9722994,114.35185 46.8172994,114.35185 C45.5922994,114.35185 44.6122994,115.330103 44.6122994,116.517982 C44.6122994,117.740799 45.5922994,118.719052 46.8172994,118.719052 L46.8172994,118.719052 L46.8172994,118.719052 Z M59.0072992,128.990709 C59.0072992,127.628143 58.8672992,124.518695 60.9322992,124.518695 C62.9272992,124.518695 62.9272992,127.628143 62.9272992,128.990709 L59.0072992,128.990709 L59.0072992,128.990709 Z M66.2872992,131.331529 L66.2872992,130.807465 C66.2872992,127.173954 65.7272992,121.583936 60.9322992,121.583936 C56.0672992,121.583936 55.6472992,127.208891 55.6472992,130.807465 C55.6472992,134.54579 56.1022992,139.786431 61.0372992,139.786431 C64.7472992,139.786431 66.1822992,136.816734 66.1822992,133.567537 L63.1372992,133.567537 C63.1372992,134.930103 62.8222992,136.851672 61.0722992,136.851672 C58.9372992,136.851672 59.0072992,132.798909 59.0072992,131.331529 L66.2872992,131.331529 L66.2872992,131.331529 Z M76.797299,121.863437 L73.472299,121.863437 L73.472299,139.50693 L76.762299,139.50693 L76.762299,128.291957 C76.832299,126.78964 76.692299,124.518695 78.757299,124.518695 C80.647299,124.518695 80.612299,126.125825 80.647299,127.52333 L80.647299,139.50693 L83.937299,139.50693 L83.937299,128.291957 C83.937299,126.719765 83.692299,124.518695 86.037299,124.518695 C87.647299,124.518695 87.822299,125.846324 87.822299,127.139016 L87.822299,139.50693 L91.112299,139.50693 L91.112299,125.846324 C91.112299,123.505504 90.342299,121.583936 87.227299,121.583936 C85.442299,121.583936 84.287299,122.492314 83.587299,124.029569 L83.517299,124.029569 C83.167299,122.492314 81.907299,121.583936 80.332299,121.583936 C78.652299,121.583936 77.532299,122.562189 76.867299,124.029569 L76.797299,124.029569 L76.797299,121.863437 L76.797299,121.863437 Z M101.692299,128.990709 C101.692299,127.628143 101.552299,124.518695 103.617299,124.518695 C105.612299,124.518695 105.612299,127.628143 105.612299,128.990709 L101.692299,128.990709 L101.692299,128.990709 Z M108.972299,131.331529 L108.972299,130.807465 C108.972299,127.173954 108.412299,121.583936 103.617299,121.583936 C98.7522989,121.583936 98.3322989,127.208891 98.3322989,130.807465 C98.3322989,134.54579 98.7872989,139.786431 103.722299,139.786431 C107.432299,139.786431 108.867299,136.816734 108.867299,133.567537 L105.822299,133.567537 C105.822299,134.930103 105.507299,136.851672 103.757299,136.851672 C101.622299,136.851672 101.692299,132.798909 101.692299,131.331529 L108.972299,131.331529 L108.972299,131.331529 Z" id="insieme" fill="#000000" sketch:type="MSShapeGroup"></path>
        </g>
    </g>
</svg>