<?xml version="1.0" encoding="UTF-8" standalone="no"?>
<svg width="32px" height="32px" viewBox="0 0 32 32" version="1.1" xmlns="http://www.w3.org/2000/svg" xmlns:xlink="http://www.w3.org/1999/xlink" xmlns:sketch="http://www.bohemiancoding.com/sketch/ns">
    <title>logo-github</title>
    <description>Created with Sketch (http://www.bohemiancoding.com/sketch)</description>
    <defs></defs>
    <g id="Page 1" stroke="none" stroke-width="1" fill="none" fill-rule="evenodd">
        <g id="Artboard 1" transform="translate(-330.000000, -3492.000000)" fill="#F8F9F9">
            <g id="Layer_1" transform="translate(331.000000, 3493.000000)">
                <path d="M15,0 C6.71572266,0 0,6.71572266 0,15 C0,23.2842773 6.71572266,30 15,30 C23.2842773,30 30,23.2842773 30,15 C30,6.71572266 23.2842773,0 15,0 L15,0 Z M23.9078906,23.9078906 C22.7501367,25.0655859 21.4025977,25.9742578 19.9027734,26.6086523 C19.5217383,26.7697852 19.1347852,26.9112305 18.7426172,27.0332227 L18.7426172,24.7851562 C18.7426172,23.6034961 18.3373242,22.734375 17.5267969,22.1777344 C18.0346289,22.1289258 18.500918,22.0605469 18.9257227,21.9726562 C19.3505273,21.8847656 19.7997656,21.757793 20.2733789,21.5917969 C20.7469922,21.4258008 21.1717969,21.2280469 21.547793,20.9985352 C21.9237891,20.7690234 22.2850781,20.4711914 22.6317773,20.1049805 C22.9784766,19.7387695 23.2689844,19.32375 23.5033594,18.8598633 C23.7377344,18.3959766 23.9233008,17.8393359 24.06,17.1899414 C24.1966992,16.5405469 24.2650781,15.8251758 24.2650781,15.0439453 C24.2650781,13.530293 23.7718945,12.2412305 22.7855859,11.1767578 C23.2348242,10.0048828 23.185957,8.73046875 22.6391016,7.35351562 L22.2728906,7.30957031 C22.0190039,7.28027344 21.5624414,7.38767578 20.9032617,7.63183594 C20.244082,7.87599609 19.5043359,8.27636719 18.6840234,8.83300781 C17.5219336,8.51074219 16.3158398,8.34960938 15.0658594,8.34960938 C13.8060938,8.34960938 12.6049219,8.51074219 11.4623438,8.83300781 C10.9447852,8.48144531 10.4540625,8.1909375 9.99017578,7.96142578 C9.52628906,7.73191406 9.15521484,7.57570313 8.87689453,7.49267578 C8.59857422,7.40964844 8.33976563,7.35837891 8.10052734,7.33886719 C7.86128906,7.31935547 7.70748047,7.31443359 7.63910156,7.32421875 C7.57072266,7.33400391 7.52191406,7.34373047 7.49261719,7.35351562 C6.94576172,8.74025391 6.89689453,10.014668 7.34613281,11.1767578 C6.35982422,12.2412305 5.86664063,13.530293 5.86664063,15.0439453 C5.86664063,15.8251758 5.93501953,16.5405469 6.07171875,17.1899414 C6.20841797,17.8393359 6.39398438,18.3959766 6.62835938,18.8598633 C6.86273438,19.32375 7.15324219,19.7387695 7.49994141,20.1049805 C7.84664063,20.4711914 8.20792969,20.7690234 8.58392578,20.9985352 C8.95992188,21.2280469 9.38472656,21.4258008 9.85833984,21.5917969 C10.3319531,21.757793 10.7811914,21.8847656 11.2059961,21.9726562 C11.6308008,22.0605469 12.0970898,22.1289258 12.6049219,22.1777344 C11.8041211,22.7245898 11.40375,23.5937695 11.40375,24.7851562 L11.40375,27.0770508 C10.9614258,26.9453906 10.5254297,26.7898242 10.0971094,26.6086523 C8.59728516,25.9742578 7.24980469,25.0655859 6.09205078,23.9078906 C4.93435547,22.7500781 4.025625,21.4026562 3.39128906,19.9027734 C2.73509766,18.3512695 2.40234375,16.7017383 2.40234375,15 C2.40234375,13.2982617 2.73509766,11.6487305 3.39134766,10.097168 C4.02574219,8.59734375 4.93441406,7.24986328 6.09210938,6.09210937 C7.24980469,4.93435547 8.59734375,4.02568359 10.097168,3.39134766 C11.6487305,2.73509766 13.2982617,2.40234375 15,2.40234375 C16.7017383,2.40234375 18.3512695,2.73509766 19.902832,3.39134766 C21.4027734,4.02574219 22.7501953,4.93441406 23.9079492,6.09210938 C25.0656445,7.24980469 25.9743164,8.59734375 26.6087109,10.097168 C27.2649023,11.6487305 27.5976562,13.2982617 27.5976562,15 C27.5976562,16.7017383 27.2649023,18.3512695 26.6086523,19.902832 C25.9742578,21.4026562 25.0655859,22.7501953 23.9078906,23.9078906 L23.9078906,23.9078906 Z M23.9078906,23.9078906" id="Shape"></path>
            </g>
        </g>
    </g>
</svg>