<?xml version="1.0" encoding="UTF-8" standalone="no"?>
<svg width="300px" height="150px" viewBox="0 0 300 150" version="1.1" xmlns="http://www.w3.org/2000/svg" xmlns:xlink="http://www.w3.org/1999/xlink" xmlns:sketch="http://www.bohemiancoding.com/sketch/ns">
    <!-- Generator: Sketch 3.3 (11970) - http://www.bohemiancoding.com/sketch -->
    <title>logo-pbs</title>
    <desc>Created with Sketch.</desc>
    <defs></defs>
    <g id="Page-1" stroke="none" stroke-width="1" fill="none" fill-rule="evenodd" sketch:type="MSPage">
        <g id="logo-pbs" sketch:type="MSLayerGroup" transform="translate(20.000000, 31.500000)">
            <g id="Page-1" sketch:type="MSShapeGroup">
                <g id="Artboard-4">
                    <g id="logo-pbs">
                        <path d="M22.0170764,32.17695 L23.3041196,25.94775 L25.8263788,25.94775 C26.2755482,25.94775 27.726711,25.94775 27.726711,27.51375 C27.726711,28.04445 27.5107641,28.94055 26.7592691,29.42775 C26.1805315,29.80185 25.3426578,29.80185 24.5998007,29.80185 L23.7792026,29.80185 L23.2868438,32.17695 L22.0170764,32.17695 L22.0170764,32.17695 Z M23.9951495,28.75785 L24.3838538,28.75785 C24.9366777,28.75785 25.5067774,28.77525 25.8609302,28.58385 C26.3705648,28.30545 26.4655814,27.82695 26.4655814,27.61815 C26.4655814,26.97435 25.9300332,26.99175 25.2821927,26.99175 L24.3665781,26.99175 L23.9951495,28.75785 L23.9951495,28.75785 Z" id="Fill-1" fill="#174489"></path>
                        <path d="M30.6808638,28.55775 L29.8257143,28.55775 L29.0742193,32.17695 L27.8649169,32.17695 L28.616412,28.55775 L27.93402,28.55775 L28.1240532,27.67035 L28.7978073,27.67035 L28.892824,27.20055 C29.0310299,26.53935 29.1778737,25.84335 30.2921595,25.84335 C30.5763455,25.84335 31.0004651,25.89555 31.4582724,26.04345 L31.2241861,26.92215 C30.9054485,26.80905 30.6463123,26.76555 30.5253821,26.76555 C30.1971428,26.76555 30.1444518,26.98305 30.0762127,27.34845 L30.0071096,27.67035 L30.8622591,27.67035 L30.6808638,28.55775" id="Fill-2" fill="#174489"></path>
                        <path d="M31.1645847,28.84485 C31.5100997,27.82695 32.3998007,27.55725 33.2022591,27.55725 C34.7838538,27.55725 34.904784,28.49685 34.904784,28.76655 C34.904784,29.08845 34.8434551,29.35815 34.6715614,30.14115 C34.6542857,30.21075 34.567907,30.59355 34.5592691,30.67185 C34.4901661,30.96765 34.4383389,31.28085 34.4383389,31.53315 C34.4383389,31.79415 34.4728904,31.95075 34.5333555,32.17695 L33.3586047,32.17695 C33.2981395,31.96815 33.2895017,31.88985 33.2722259,31.66365 C32.857608,32.13345 32.3479734,32.28135 31.967907,32.28135 C31.2768771,32.28135 30.6808638,31.80285 30.6808638,30.96765 C30.6808638,29.61915 31.9247176,29.51475 32.5025913,29.47125 C32.9785382,29.42775 33.4190698,29.38425 33.6609302,29.29725 C33.6868438,29.21895 33.7386711,29.04495 33.7386711,28.88835 C33.7386711,28.55775 33.4363455,28.42725 33.1158804,28.42725 C32.7539535,28.42725 32.4507641,28.55775 32.3479734,28.94055 L31.1645847,28.84485 L31.1645847,28.84485 Z M33.4968106,30.07155 C33.4190698,30.09765 33.3836545,30.10635 33.2117608,30.12375 C32.4680398,30.21945 31.8201993,30.33255 31.8201993,30.86325 C31.8201993,31.09815 31.9851828,31.36785 32.373887,31.36785 C33.2290365,31.36785 33.3931562,30.60225 33.470897,30.23685 L33.4968106,30.07155 L33.4968106,30.07155 Z" id="Fill-3" fill="#174489"></path>
                        <path d="M38.4376744,32.17695 L38.5413289,31.70715 L38.5240532,31.68975 C38.2908306,31.93335 37.8589369,32.28135 37.1333555,32.28135 C36.1736877,32.28135 35.5785382,31.60275 35.5785382,30.39345 C35.5785382,28.94055 36.4509635,27.55725 37.7898339,27.55725 C38.6881727,27.55725 39.032824,28.11405 39.1451163,28.27935 L39.6288372,25.94775 L40.8390033,25.94775 L39.5433223,32.17695 L38.4376744,32.17695 L38.4376744,32.17695 Z M37.5911628,31.35915 C38.4808638,31.35915 38.8263788,30.20205 38.8263788,29.54955 C38.8263788,28.97535 38.4808638,28.49685 37.9625913,28.49685 C37.1851828,28.49685 36.753289,29.54955 36.753289,30.34125 C36.753289,30.89805 37.0469767,31.35915 37.5911628,31.35915 L37.5911628,31.35915 L37.5911628,31.35915 Z" id="Fill-4" fill="#174489"></path>
                        <path d="M42.8429901,27.67035 L41.9100997,32.17695 L40.7007974,32.17695 L41.6336877,27.67035 L42.8429901,27.67035 L42.8429901,27.67035 Z M43.2057807,25.94775 L42.9725581,27.05265 L41.7632558,27.05265 L41.9964784,25.94775 L43.2057807,25.94775 L43.2057807,25.94775 Z" id="Fill-5" fill="#174489"></path>
                        <path d="M44.3451163,25.94775 L45.5544186,25.94775 L45.1225249,28.03575 C45.390299,27.82695 45.7625913,27.55725 46.3758804,27.55725 C47.5074419,27.55725 47.9393355,28.44465 47.9393355,29.42775 C47.9393355,31.04595 46.9364784,32.28135 45.719402,32.28135 C44.7597342,32.28135 44.4150831,31.63755 44.3200664,31.43745 L44.3027907,31.43745 L44.1559468,32.17695 L43.0494352,32.17695 L44.3451163,25.94775 L44.3451163,25.94775 Z M45.5380066,31.35915 C46.3931562,31.35915 46.7645847,30.17595 46.7645847,29.46255 C46.7645847,28.80135 46.3758804,28.42725 45.9180731,28.42725 C45.1570764,28.42725 44.6828572,29.38425 44.6828572,30.34125 C44.6828572,30.85455 45.0102325,31.35915 45.5380066,31.35915 L45.5380066,31.35915 L45.5380066,31.35915 Z" id="Fill-6" fill="#174489"></path>
                        <path d="M49.7187376,30.29775 C49.6841861,31.00245 50.0893023,31.41135 50.590299,31.41135 C51.1958139,31.41135 51.463588,30.92415 51.5318273,30.78495 L52.6210631,30.96765 C52.0941528,32.05515 51.203588,32.28135 50.5825249,32.28135 C49.3386711,32.28135 48.5526246,31.40265 48.5526246,30.18465 C48.5526246,29.05365 49.2695681,27.55725 51.0489701,27.55725 C52.4647176,27.55725 52.8370099,28.65345 52.8370099,29.50605 C52.8370099,29.62785 52.8275083,30.00195 52.7592691,30.29775 L49.7187376,30.29775 L49.7187376,30.29775 Z M51.7391362,29.55825 C51.7650499,28.95795 51.549103,28.42725 50.9185382,28.42725 C50.2197342,28.42725 49.9251828,29.13195 49.838804,29.55825 L51.7391362,29.55825 L51.7391362,29.55825 Z" id="Fill-7" fill="#174489"></path>
                        <path d="M56.586711,32.17695 L56.379402,29.30595 L56.3621263,29.30595 L55.00598,32.17695 L53.8821927,32.17695 L53.3215946,27.67035 L54.392691,27.67035 L54.6941528,30.68925 L54.7114285,30.68925 L56.1029901,27.67035 L57.2,27.67035 L57.3468438,30.68925 L57.3641196,30.68925 L58.7461794,27.67035 L59.9554817,27.67035 L57.7269103,32.17695 L56.586711,32.17695" id="Fill-8" fill="#174489"></path>
                        <path d="M61.112093,30.29775 C61.0784054,31.00245 61.4843854,31.41135 61.9853821,31.41135 C62.5900332,31.41135 62.8578073,30.92415 62.9269103,30.78495 L64.0144186,30.96765 C63.4883721,32.05515 62.5986711,32.28135 61.9767442,32.28135 C60.7328904,32.28135 59.94598,31.40265 59.94598,30.18465 C59.94598,29.05365 60.6629236,27.55725 62.4431894,27.55725 C63.8598007,27.55725 64.2303654,28.65345 64.2303654,29.50605 C64.2303654,29.62785 64.2225913,30.00195 64.1534884,30.29775 L61.112093,30.29775 L61.112093,30.29775 Z M63.1333555,29.55825 C63.1601329,28.95795 62.9441861,28.42725 62.3136212,28.42725 C61.6139535,28.42725 61.3202658,29.13195 61.233887,29.55825 L63.1333555,29.55825 L63.1333555,29.55825 Z" id="Fill-9" fill="#174489"></path>
                        <path d="M65.7765449,32.60325 C65.7687708,32.83815 65.8551495,33.13395 66.433887,33.13395 C67.2631229,33.13395 67.3581395,32.66415 67.5041196,31.88115 L67.5386711,31.68105 L67.5213953,31.66365 C67.3667774,31.82025 66.917608,32.19435 66.2438538,32.19435 C65.5778737,32.19435 64.7408638,31.78545 64.7408638,30.35865 C64.7408638,28.59255 65.7765449,27.55725 66.8908306,27.55725 C67.4522924,27.55725 67.9973422,27.85305 68.2815282,28.46205 L68.298804,28.46205 L68.4542857,27.67035 L69.594485,27.67035 L68.8170764,31.42875 C68.4724252,33.09915 68.2815282,34.00395 66.4071096,34.00395 C65.8983389,34.00395 64.3262459,34.00395 64.4981395,32.41185 L65.7765449,32.60325 L65.7765449,32.60325 Z M66.7275748,31.28955 C67.5041196,31.28955 67.953289,30.31515 67.953289,29.49735 C67.953289,28.94925 67.6259136,28.42725 67.1076412,28.42725 C66.2524917,28.42725 65.9233887,29.74965 65.9233887,30.23685 C65.9233887,30.90675 66.2611296,31.28955 66.7275748,31.28955 L66.7275748,31.28955 L66.7275748,31.28955 Z" id="Fill-10" fill="#174489"></path>
                        <path d="M71.979402,27.67035 L71.4257143,30.34125 C71.4179402,30.34995 71.4179402,30.38475 71.4084386,30.41955 C71.366113,30.61965 71.3220598,30.80235 71.3220598,30.93285 C71.3220598,31.16775 71.5034551,31.41135 71.8325581,31.41135 C72.3154153,31.41135 72.6868438,30.96765 72.7395349,30.90675 C73.0245847,30.56745 73.1109635,30.14985 73.1887043,29.81055 L73.6283721,27.67035 L74.8385382,27.67035 L73.9056478,32.17695 L72.7740864,32.17695 L72.9027907,31.58535 L72.885515,31.56795 C72.4190698,32.02905 71.8584718,32.28135 71.2875083,32.28135 C70.2345515,32.28135 70.1049833,31.42875 70.1049833,31.10685 C70.1049833,30.88065 70.1386711,30.68055 70.2423256,30.18465 L70.7700997,27.67035 L71.979402,27.67035" id="Fill-11" fill="#174489"></path>
                        <path d="M77.2130897,27.67035 L77.0930233,28.23585 L77.110299,28.25325 C77.463588,27.93135 77.9645847,27.55725 78.6910299,27.55725 C79.5798671,27.55725 79.8735548,28.18365 79.8735548,28.72305 C79.8735548,28.96665 79.8130897,29.27985 79.7439867,29.61915 L79.2084386,32.17695 L77.9991362,32.17695 L78.5346844,29.61045 C78.5346844,29.59305 78.5433223,29.53215 78.560598,29.47125 C78.5778737,29.40165 78.5951495,29.31465 78.5951495,29.29725 C78.6469767,29.05365 78.6469767,28.99275 78.6469767,28.93185 C78.6469767,28.47075 78.2591362,28.42725 78.1287043,28.42725 C77.7581395,28.42725 77.3780731,28.74045 77.1526246,29.03625 C76.9289037,29.34945 76.8762127,29.63655 76.7302325,30.32385 L76.3406645,32.17695 L75.1322259,32.17695 L76.0728904,27.67035 L77.2130897,27.67035" id="Fill-12" fill="#174489"></path>
                        <path d="M81.6106313,32.60325 C81.6011296,32.83815 81.6875083,33.13395 82.2662459,33.13395 C83.0954817,33.13395 83.1904983,32.66415 83.3382059,31.88115 L83.3727574,31.68105 L83.3546179,31.66365 C83.1991362,31.82025 82.7499668,32.19435 82.0770764,32.19435 C81.4110963,32.19435 80.5732226,31.78545 80.5732226,30.35865 C80.5732226,28.59255 81.6106313,27.55725 82.7249169,27.55725 C83.285515,27.55725 83.829701,27.85305 84.1147508,28.46205 L84.1320266,28.46205 L84.2875083,27.67035 L85.4277076,27.67035 L84.650299,31.42875 C84.304784,33.09915 84.1147508,34.00395 82.241196,34.00395 C81.7306977,34.00395 80.1586047,34.00395 80.3322259,32.41185 L81.6106313,32.60325 L81.6106313,32.60325 Z M82.5599336,31.28955 C83.3382059,31.28955 83.7865116,30.31515 83.7865116,29.49735 C83.7865116,28.94925 83.4582724,28.42725 82.9408638,28.42725 C82.0848505,28.42725 81.7566113,29.74965 81.7566113,30.23685 C81.7566113,30.90675 82.0934884,31.28955 82.5599336,31.28955 L82.5599336,31.28955 L82.5599336,31.28955 Z" id="Fill-13" fill="#174489"></path>
                        <path d="M89.4875081,30.09765 C89.5047842,30.63705 89.5306975,31.21125 90.7140867,31.21125 C91.1459805,31.21125 91.8888369,31.09815 91.8888369,30.44565 C91.8888369,30.00195 91.5174087,29.84535 90.8436542,29.54955 C89.7725582,29.07975 89.0210629,28.74915 89.0210629,27.67035 C89.0210629,26.92215 89.4875081,25.84335 91.2237213,25.84335 C92.4071096,25.84335 93.4695684,26.35665 93.5645845,27.72255 L92.3466449,27.78345 C92.2775412,27.06135 91.7938207,26.86125 91.2150833,26.86125 C90.9991359,26.86125 90.2390034,26.86125 90.2390034,27.51375 C90.2390034,27.95745 90.6536211,28.14015 91.3619269,28.44465 C92.4243857,28.90575 93.1499669,29.22765 93.1499669,30.28905 C93.1499669,31.20255 92.4502991,32.28135 90.7054486,32.28135 C89.8243857,32.28135 88.7100994,32.00295 88.3991359,31.02855 C88.2868437,30.67185 88.2695684,30.32385 88.2782056,30.15855 L89.4875081,30.09765" id="Fill-14" fill="#174489"></path>
                        <path d="M98.0821929,30.67185 C97.7194019,31.64625 96.9851827,32.28135 95.8968105,32.28135 C94.5320263,32.28135 94.0396678,31.28955 94.0396678,30.34995 C94.0396678,28.79265 95.0589371,27.55725 96.5964783,27.55725 C97.8144189,27.55725 98.3326907,28.32285 98.4017944,29.07105 L97.2443186,29.19285 C97.2270433,29.02755 97.1579405,28.46205 96.5187375,28.46205 C95.577209,28.46205 95.2403322,29.77575 95.2403322,30.49785 C95.2403322,31.08075 95.5858471,31.32435 95.9227239,31.32435 C96.1473093,31.32435 96.6483059,31.20255 96.8988037,30.48045 L98.0821929,30.67185" id="Fill-15" fill="#174489"></path>
                        <path d="M98.5676415,32.17695 L99.863322,25.94775 L101.073489,25.94775 L100.614817,28.16625 C100.883455,27.95745 101.37495,27.55725 102.135946,27.55725 C103.102525,27.55725 103.310698,28.30545 103.310698,28.69695 C103.310698,28.96665 103.249369,29.25375 103.188904,29.54085 L102.645581,32.17695 L101.436279,32.17695 L101.98824,29.48865 C102.074618,29.09715 102.08412,29.05365 102.08412,28.93185 C102.08412,28.62735 101.885449,28.42725 101.564983,28.42725 C101.082127,28.42725 100.72711,28.86225 100.589767,29.05365 C100.364319,29.37555 100.312492,29.61045 100.148372,30.39345 L99.7778071,32.17695 L98.5676415,32.17695" id="Fill-16" fill="#174489"></path>
                        <path d="M107.379136,32.17695 L107.170963,29.30595 L107.153687,29.30595 L105.797541,32.17695 L104.675482,32.17695 L104.113156,27.67035 L105.184252,27.67035 L105.487442,30.68925 L105.504718,30.68925 L106.895415,27.67035 L107.992426,27.67035 L108.138405,30.68925 L108.155681,30.68925 L109.538605,27.67035 L110.747043,27.67035 L108.518472,32.17695 L107.379136,32.17695" id="Fill-17" fill="#174489"></path>
                        <path d="M111.904518,30.29775 C111.869967,31.00245 112.275946,31.41135 112.777807,31.41135 C113.381595,31.41135 113.649369,30.92415 113.718472,30.78495 L114.807708,30.96765 C114.279934,32.05515 113.390233,32.28135 112.768306,32.28135 C111.524452,32.28135 110.738405,31.40265 110.738405,30.18465 C110.738405,29.05365 111.455349,27.55725 113.234751,27.55725 C114.651362,27.55725 115.023654,28.65345 115.023654,29.50605 C115.023654,29.62785 115.014153,30.00195 114.94505,30.29775 L111.904518,30.29775 L111.904518,30.29775 Z M113.926645,29.55825 C113.951694,28.95795 113.735748,28.42725 113.105183,28.42725 C112.405515,28.42725 112.112691,29.13195 112.025449,29.55825 L113.926645,29.55825 L113.926645,29.55825 Z" id="Fill-18" fill="#174489"></path>
                        <path d="M117.511362,27.67035 L116.577608,32.17695 L115.369169,32.17695 L116.302059,27.67035 L117.511362,27.67035 L117.511362,27.67035 Z M117.873289,25.94775 L117.640066,27.05265 L116.431628,27.05265 L116.66485,25.94775 L117.873289,25.94775 L117.873289,25.94775 Z" id="Fill-19" fill="#174489"></path>
                        <path d="M117.743721,31.35045 L120.196877,28.61865 L118.193754,28.61865 L118.391562,27.67035 L121.907176,27.67035 L121.760332,28.39245 L119.281263,31.18515 L121.440731,31.18515 L121.234285,32.17695 L117.570963,32.17695 L117.743721,31.35045" id="Fill-20" fill="#174489"></path>
                        <path d="M7.3352824,42.61695 L7.11069767,37.41435 L7.09342193,37.41435 L6.11820598,42.61695 L4.96850499,42.61695 L6.26418605,36.38775 L8.07900332,36.38775 L8.26039867,40.75515 L8.27767442,40.75515 L10.3758139,36.38775 L12.2070432,36.38775 L10.9113621,42.61695 L9.753887,42.61695 L10.972691,37.46655 L10.9554153,37.44915 L8.53594685,42.61695 L7.3352824,42.61695" id="Fill-21" fill="#174489"></path>
                        <path d="M14.8761462,37.99725 C16.4223256,37.99725 16.9751495,39.00645 16.9751495,40.03305 C16.9751495,41.39895 16.0517608,42.72135 14.4183389,42.72135 C13.0190033,42.72135 12.3366113,41.79915 12.3366113,40.74645 C12.3366113,39.56325 12.9499003,37.99725 14.8761462,37.99725 L14.8761462,37.99725 L14.8761462,37.99725 Z M14.8761462,38.91945 C13.8396014,38.91945 13.5372758,40.18965 13.5372758,40.72905 C13.5372758,41.24235 13.8309635,41.79915 14.4615282,41.79915 C15.3339535,41.79915 15.774485,40.70295 15.774485,39.87645 C15.774485,39.44145 15.5326246,38.91945 14.8761462,38.91945 L14.8761462,38.91945 L14.8761462,38.91945 Z" id="Fill-22" fill="#174489"></path>
                        <path d="M19.5665116,38.11035 L19.0136877,40.78125 C19.0050499,40.78995 19.0050499,40.82475 18.996412,40.85955 C18.9532226,41.05965 18.9100332,41.24235 18.9100332,41.37285 C18.9100332,41.60775 19.0914285,41.85135 19.4196678,41.85135 C19.9042525,41.85135 20.2748172,41.40765 20.3266445,41.34675 C20.6116944,41.00745 20.6980731,40.58985 20.7758139,40.25055 L21.2172093,38.11035 L22.4256478,38.11035 L21.4927574,42.61695 L20.361196,42.61695 L20.4907641,42.02535 L20.4734884,42.00795 C20.0070432,42.46905 19.4455814,42.72135 18.8754817,42.72135 C17.8216611,42.72135 17.692093,41.86875 17.692093,41.54685 C17.692093,41.32065 17.7266445,41.12055 17.830299,40.62465 L18.3572093,38.11035 L19.5665116,38.11035" id="Fill-23" fill="#174489"></path>
                        <path d="M23.9372758,42.61695 L23.0389369,38.11035 L24.2223256,38.11035 L24.5419269,40.07655 C24.5505648,40.10265 24.5592026,40.17225 24.5764784,40.25925 C24.6196678,40.53765 24.671495,40.81605 24.6887708,41.13795 L24.7060465,41.13795 C24.7319602,41.05965 24.7578737,41.01615 24.8528904,40.84215 L25.0256478,40.52895 C25.0947508,40.38975 25.1984054,40.19835 25.3106977,40.00695 L26.4249833,38.11035 L27.7293023,38.11035 L24.9738206,42.61695 L23.9372758,42.61695" id="Fill-24" fill="#174489"></path>
                        <path d="M28.8608638,40.73775 C28.8263123,41.44245 29.2322924,41.85135 29.733289,41.85135 C30.3379402,41.85135 30.6057143,41.36415 30.6748172,41.22495 L31.7631894,41.40765 C31.2362791,42.49515 30.3465781,42.72135 29.7246511,42.72135 C28.4807974,42.72135 27.6947508,41.84265 27.6947508,40.62465 C27.6947508,39.49365 28.4116944,37.99725 30.1910963,37.99725 C31.6077076,37.99725 31.9791362,39.09345 31.9791362,39.94605 C31.9791362,40.06785 31.9704983,40.44195 31.9013953,40.73775 L28.8608638,40.73775 L28.8608638,40.73775 Z M30.8821263,39.99825 C30.9080398,39.39795 30.692093,38.86725 30.0615282,38.86725 C29.3618605,38.86725 29.0681727,39.57195 28.9817941,39.99825 L30.8821263,39.99825 L30.8821263,39.99825 Z" id="Fill-25" fill="#174489"></path>
                        <path d="M34.4063788,38.11035 L34.2854485,38.63235 L34.3027242,38.64975 C34.5100332,38.44095 34.9851163,37.99725 35.684784,37.99725 C36.0475748,37.99725 36.6781395,38.07555 36.8163455,38.79765 C37.1013953,38.38005 37.7060465,37.99725 38.3884386,37.99725 C39.1658472,37.99725 39.52,38.47575 39.52,39.04995 C39.52,39.26745 39.4595349,39.58065 39.4077076,39.85905 L38.8289701,42.61695 L37.6196678,42.61695 L38.1897675,39.85905 C38.1984054,39.83295 38.2156811,39.74595 38.2329568,39.66765 C38.2761462,39.46755 38.3020598,39.36315 38.3020598,39.27615 C38.3020598,39.11955 38.2329568,38.86725 37.8528904,38.86725 C37.533289,38.86725 37.2396014,39.08475 37.0322924,39.37185 C36.7904319,39.71115 36.6695017,40.25925 36.6090365,40.57245 L36.1857807,42.61695 L34.9678405,42.61695 L35.555216,39.81555 C35.6156811,39.50235 35.6329568,39.42405 35.6329568,39.27615 C35.6329568,39.01515 35.4429236,38.86725 35.1837873,38.86725 C34.8123588,38.86725 34.5100332,39.17175 34.3631894,39.37185 C34.1472426,39.67635 34.0781395,40.02435 33.9658472,40.54635 L33.5339535,42.61695 L32.3246511,42.61695 L33.2661794,38.11035 L34.4063788,38.11035" id="Fill-26" fill="#174489"></path>
                        <path d="M41.3425913,40.73775 C41.3080398,41.44245 41.71402,41.85135 42.2150167,41.85135 C42.8196678,41.85135 43.0874419,41.36415 43.1565449,41.22495 L44.2449169,41.40765 C43.7180066,42.49515 42.8283056,42.72135 42.2063788,42.72135 C40.9625249,42.72135 40.1764784,41.84265 40.1764784,40.62465 C40.1764784,39.49365 40.8934219,37.99725 42.672824,37.99725 C44.0894352,37.99725 44.4608638,39.09345 44.4608638,39.94605 C44.4608638,40.06785 44.4522259,40.44195 44.3831229,40.73775 L41.3425913,40.73775 L41.3425913,40.73775 Z M43.3638538,39.99825 C43.3897675,39.39795 43.1738206,38.86725 42.5432558,38.86725 C41.843588,38.86725 41.5499003,39.57195 41.4635216,39.99825 L43.3638538,39.99825 L43.3638538,39.99825 Z" id="Fill-27" fill="#174489"></path>
                        <path d="M46.8881063,38.11035 L46.767176,38.67585 L46.7844518,38.69325 C47.1386047,38.37135 47.6396014,37.99725 48.3651828,37.99725 C49.2548837,37.99725 49.5485715,38.62365 49.5485715,39.16305 C49.5485715,39.40665 49.4881063,39.71985 49.4190033,40.05915 L48.8834551,42.61695 L47.6741528,42.61695 L48.209701,40.05045 C48.209701,40.03305 48.2183389,39.97215 48.2356146,39.91125 C48.2528904,39.84165 48.2701661,39.75465 48.2701661,39.73725 C48.3219934,39.49365 48.3219934,39.43275 48.3219934,39.37185 C48.3219934,38.91075 47.933289,38.86725 47.8037209,38.86725 C47.4322924,38.86725 47.0522259,39.18045 46.8276412,39.47625 C46.6030565,39.78945 46.5512292,40.07655 46.4043854,40.76385 L46.0156811,42.61695 L44.8063788,42.61695 L45.747907,38.11035 L46.8881063,38.11035" id="Fill-28" fill="#174489"></path>
                        <path d="M50.5764784,38.11035 L51.1638538,38.11035 L51.3106977,37.38825 L52.6927574,36.54435 L52.3731562,38.11035 L53.1160133,38.11035 L52.92598,38.99775 L52.1831229,38.99775 L51.7944186,40.90305 C51.7857807,40.92045 51.7771428,40.99005 51.7598671,41.05965 C51.7080398,41.27715 51.6907641,41.38155 51.6907641,41.48595 C51.6907641,41.78175 51.9585382,41.78175 52.0967442,41.78175 C52.174485,41.78175 52.450897,41.75565 52.4940864,41.75565 L52.3040532,42.66045 C52.0881063,42.70395 51.9153489,42.72135 51.6648505,42.72135 C51.0601993,42.72135 50.4382724,42.54735 50.4382724,41.79045 C50.4382724,41.57295 50.472824,41.39025 50.5937541,40.82475 L50.9738206,38.99775 L50.3864452,38.99775 L50.5764784,38.11035" id="Fill-29" fill="#174489"></path>
                        <path d="M56.761196,40.53765 C56.7784718,41.07705 56.8043854,41.65125 57.9877741,41.65125 C58.4196678,41.65125 59.1625249,41.53815 59.1625249,40.88565 C59.1625249,40.44195 58.7910963,40.28535 58.1173422,39.98955 C57.0462459,39.51975 56.2947508,39.18915 56.2947508,38.11035 C56.2947508,37.36215 56.761196,36.28335 58.4974087,36.28335 C59.6807974,36.28335 60.7432558,36.79665 60.8382724,38.16255 L59.6203322,38.22345 C59.5512292,37.50135 59.0675083,37.30125 58.4887708,37.30125 C58.272824,37.30125 57.512691,37.30125 57.512691,37.95375 C57.512691,38.39745 57.927309,38.58015 58.6356146,38.88465 C59.6980731,39.34575 60.4236545,39.66765 60.4236545,40.72905 C60.4236545,41.64255 59.7239867,42.72135 57.9791362,42.72135 C57.0980731,42.72135 55.9837873,42.44295 55.672824,41.46855 C55.5605315,41.11185 55.5432558,40.76385 55.5518937,40.59855 L56.761196,40.53765" id="Fill-30" fill="#174489"></path>
                        <path d="M65.3558804,41.11185 C64.9930897,42.08625 64.2588704,42.72135 63.1704983,42.72135 C61.8057143,42.72135 61.3133555,41.72955 61.3133555,40.78995 C61.3133555,39.23265 62.3326246,37.99725 63.8701661,37.99725 C65.0881063,37.99725 65.6063788,38.76285 65.6754817,39.51105 L64.5180066,39.63285 C64.5007309,39.46755 64.4316279,38.90205 63.7924252,38.90205 C62.850897,38.90205 62.51402,40.21575 62.51402,40.93785 C62.51402,41.52075 62.8595349,41.76435 63.196412,41.76435 C63.4209967,41.76435 63.9219934,41.64255 64.1724917,40.92045 L65.3558804,41.11185" id="Fill-31" fill="#174489"></path>
                        <path d="M68.6382724,37.99725 C70.1844518,37.99725 70.7372758,39.00645 70.7372758,40.03305 C70.7372758,41.39895 69.8130233,42.72135 68.1804651,42.72135 C66.7811296,42.72135 66.0987376,41.79915 66.0987376,40.74645 C66.0987376,39.56325 66.7120266,37.99725 68.6382724,37.99725 L68.6382724,37.99725 L68.6382724,37.99725 Z M68.6382724,38.91945 C67.6017276,38.91945 67.299402,40.18965 67.299402,40.72905 C67.299402,41.24235 67.5930897,41.79915 68.2236545,41.79915 C69.0960797,41.79915 69.5366113,40.70295 69.5366113,39.87645 C69.5366113,39.44145 69.2947508,38.91945 68.6382724,38.91945 L68.6382724,38.91945 L68.6382724,38.91945 Z" id="Fill-32" fill="#174489"></path>
                        <path d="M73.3286379,38.11035 L72.7758139,40.78125 C72.767176,40.78995 72.767176,40.82475 72.7585382,40.85955 C72.7153489,41.05965 72.6721595,41.24235 72.6721595,41.37285 C72.6721595,41.60775 72.8535548,41.85135 73.1817941,41.85135 C73.665515,41.85135 74.0369435,41.40765 74.0887708,41.34675 C74.3738206,41.00745 74.4601993,40.58985 74.5379402,40.25055 L74.9784718,38.11035 L76.1877741,38.11035 L75.2548837,42.61695 L74.1233223,42.61695 L74.2528904,42.02535 L74.2356146,42.00795 C73.7691694,42.46905 73.2077076,42.72135 72.637608,42.72135 C71.5837873,42.72135 71.4542193,41.86875 71.4542193,41.54685 C71.4542193,41.32065 71.4887708,41.12055 71.5924252,40.62465 L72.1193355,38.11035 L73.3286379,38.11035" id="Fill-33" fill="#174489"></path>
                        <path d="M76.9738206,38.11035 L77.561196,38.11035 L77.7080398,37.38825 L79.0900997,36.54435 L78.7704983,38.11035 L79.5133555,38.11035 L79.3224585,38.99775 L78.5804651,38.99775 L78.1917608,40.90305 C78.1831229,40.92045 78.174485,40.99005 78.1572093,41.05965 C78.1053821,41.27715 78.0881063,41.38155 78.0881063,41.48595 C78.0881063,41.78175 78.3558804,41.78175 78.4940864,41.78175 C78.5718273,41.78175 78.8482392,41.75565 78.8905648,41.75565 L78.7013953,42.66045 C78.4854485,42.70395 78.312691,42.72135 78.0621927,42.72135 C77.4575415,42.72135 76.8356146,42.54735 76.8356146,41.79045 C76.8356146,41.57295 76.8701661,41.39025 76.9910963,40.82475 L77.3711628,38.99775 L76.7837873,38.99775 L76.9738206,38.11035" id="Fill-34" fill="#174489"></path>
                        <path d="M84.7738206,42.61695 L84.8774751,42.14715 L84.8601993,42.12975 C84.6269767,42.37335 84.1950831,42.72135 83.4695017,42.72135 C82.5098339,42.72135 81.9146844,42.04275 81.9146844,40.83345 C81.9146844,39.38055 82.7871096,37.99725 84.12598,37.99725 C85.0243189,37.99725 85.3689701,38.55405 85.4812624,38.71935 L85.9658472,36.38775 L87.1751495,36.38775 L85.8794685,42.61695 L84.7738206,42.61695 L84.7738206,42.61695 Z M83.927309,41.79915 C84.8161462,41.79915 85.1625249,40.64205 85.1625249,39.98955 C85.1625249,39.41535 84.8161462,38.93685 84.2987376,38.93685 C83.5204651,38.93685 83.0885715,39.98955 83.0885715,40.78125 C83.0885715,41.33805 83.3831229,41.79915 83.927309,41.79915 L83.927309,41.79915 L83.927309,41.79915 Z" id="Fill-35" fill="#174489"></path>
                        <path d="M88.3758139,40.73775 C88.3403985,41.44245 88.7472421,41.85135 89.2482396,41.85135 C89.8528904,41.85135 90.1206644,41.36415 90.1897672,41.22495 L91.2772761,41.40765 C90.7512294,42.49515 89.8615285,42.72135 89.2396015,42.72135 C87.9957477,42.72135 87.2088369,41.84265 87.2088369,40.62465 C87.2088369,39.49365 87.9266449,37.99725 89.7060467,37.99725 C91.1226576,37.99725 91.4932226,39.09345 91.4932226,39.94605 C91.4932226,40.06785 91.4854486,40.44195 91.4163458,40.73775 L88.3758139,40.73775 L88.3758139,40.73775 Z M90.3962124,39.99825 C90.4229898,39.39795 90.2070433,38.86725 89.5764783,38.86725 C88.8768105,38.86725 88.5831232,39.57195 88.4967443,39.99825 L90.3962124,39.99825 L90.3962124,39.99825 Z" id="Fill-36" fill="#174489"></path>
                        <path d="M95.6402659,40.53765 C95.6575412,41.07705 95.6825913,41.65125 96.8668437,41.65125 C97.2987375,41.65125 98.0415947,41.53815 98.0415947,40.88565 C98.0415947,40.44195 97.6701665,40.28535 96.9964121,39.98955 C95.9253152,39.51975 95.1738207,39.18915 95.1738207,38.11035 C95.1738207,37.36215 95.6402659,36.28335 97.3756143,36.28335 C98.5598675,36.28335 99.6214622,36.79665 99.7164783,38.16255 L98.4994019,38.22345 C98.4302991,37.50135 97.9465777,37.30125 97.3678403,37.30125 C97.1518938,37.30125 96.3917604,37.30125 96.3917604,37.95375 C96.3917604,38.39745 96.8063789,38.58015 97.5146848,38.88465 C98.5771427,39.34575 99.3018607,39.66765 99.3018607,40.72905 C99.3018607,41.64255 98.6021929,42.72135 96.8573424,42.72135 C95.9762787,42.72135 94.8628573,42.44295 94.5510297,41.46855 C94.4387375,41.11185 94.4223254,40.76385 94.4309635,40.59855 L95.6402659,40.53765" id="Fill-37" fill="#174489"></path>
                        <path d="M102.126445,38.11035 L101.573621,40.78125 C101.564983,40.78995 101.564983,40.82475 101.556346,40.85955 C101.513156,41.05965 101.470831,41.24235 101.470831,41.37285 C101.470831,41.60775 101.652226,41.85135 101.980465,41.85135 C102.464186,41.85135 102.834751,41.40765 102.886578,41.34675 C103.171628,41.00745 103.258007,40.58985 103.335748,40.25055 L103.777143,38.11035 L104.985581,38.11035 L104.052691,42.61695 L102.92113,42.61695 L103.050698,42.02535 L103.033422,42.00795 C102.56784,42.46905 102.005515,42.72135 101.436279,42.72135 C100.381595,42.72135 100.25289,41.86875 100.25289,41.54685 C100.25289,41.32065 100.287442,41.12055 100.391096,40.62465 L100.917143,38.11035 L102.126445,38.11035" id="Fill-38" fill="#174489"></path>
                        <path d="M107.421462,38.11035 L106.488572,42.61695 L105.279269,42.61695 L106.21216,38.11035 L107.421462,38.11035 L107.421462,38.11035 Z M107.784252,36.38775 L107.55103,37.49265 L106.341727,37.49265 L106.57495,36.38775 L107.784252,36.38775 L107.784252,36.38775 Z" id="Fill-39" fill="#174489"></path>
                        <path d="M108.717143,41.16405 C108.863986,41.53815 109.089435,41.87745 109.737276,41.87745 C110.169169,41.87745 110.574285,41.65995 110.574285,41.35545 C110.574285,41.11185 110.488771,41.08575 109.658671,40.79865 C108.898538,40.53765 108.216146,40.30275 108.216146,39.45885 C108.216146,38.70195 108.873489,37.99725 110.255548,37.99725 C110.886113,37.99725 111.887242,38.12775 112.120465,39.18045 L110.997541,39.38055 C110.807508,38.84115 110.202857,38.84115 110.064651,38.84115 C109.563654,38.84115 109.357209,39.04125 109.357209,39.25875 C109.357209,39.52845 109.58093,39.59805 110.202857,39.78075 C110.876611,39.98085 111.809501,40.25055 111.809501,41.13795 C111.809501,41.74695 111.343056,42.72135 109.762325,42.72135 C108.613489,42.72135 107.828306,42.32115 107.543256,41.35545 L108.717143,41.16405" id="Fill-40" fill="#174489"></path>
                        <path d="M113.5198,41.16405 C113.666645,41.53815 113.892093,41.87745 114.539934,41.87745 C114.971828,41.87745 115.376944,41.65995 115.376944,41.35545 C115.376944,41.11185 115.290565,41.08575 114.461329,40.79865 C113.701196,40.53765 113.018804,40.30275 113.018804,39.45885 C113.018804,38.70195 113.676146,37.99725 115.057342,37.99725 C115.688771,37.99725 116.689901,38.12775 116.923123,39.18045 L115.8002,39.38055 C115.610167,38.84115 115.006379,38.84115 114.867309,38.84115 C114.366313,38.84115 114.159867,39.04125 114.159867,39.25875 C114.159867,39.52845 114.383588,39.59805 115.006379,39.78075 C115.679269,39.98085 116.613023,40.25055 116.613023,41.13795 C116.613023,41.74695 116.145715,42.72135 114.564983,42.72135 C113.416146,42.72135 112.630963,42.32115 112.34505,41.35545 L113.5198,41.16405" id="Fill-41" fill="#174489"></path>
                        <path d="M118.624784,40.73775 C118.591096,41.44245 118.996212,41.85135 119.497209,41.85135 C120.102724,41.85135 120.370499,41.36415 120.439602,41.22495 L121.52711,41.40765 C121.001063,42.49515 120.110499,42.72135 119.489435,42.72135 C118.245581,42.72135 117.458671,41.84265 117.458671,40.62465 C117.458671,39.49365 118.175614,37.99725 119.95588,37.99725 C121.371628,37.99725 121.743056,39.09345 121.743056,39.94605 C121.743056,40.06785 121.735282,40.44195 121.666179,40.73775 L118.624784,40.73775 L118.624784,40.73775 Z M120.646047,39.99825 C120.67196,39.39795 120.456014,38.86725 119.825449,38.86725 C119.126645,38.86725 118.832093,39.57195 118.745715,39.99825 L120.646047,39.99825 L120.646047,39.99825 Z" id="Fill-42" fill="#174489"></path>
                        <path d="M15.2803986,53.05782 L15.0558139,47.85522 L15.0385382,47.85522 L14.0624585,53.05782 L12.9136212,53.05782 L14.2093023,46.82862 L16.0232558,46.82862 L16.2046511,51.19689 L16.2219269,51.19689 L18.3209302,46.82862 L20.1521595,46.82862 L18.8564784,53.05782 L17.6990033,53.05782 L18.9169435,47.90742 L18.8996678,47.89002 L16.4810631,53.05782 L15.2803986,53.05782" id="Fill-43" fill="#174489"></path>
                        <path d="M22.8212624,48.43899 C24.3674419,48.43899 24.9202658,49.44732 24.9202658,50.47479 C24.9202658,51.83982 23.9960133,53.16222 22.3634551,53.16222 C20.9641196,53.16222 20.2817276,52.24002 20.2817276,51.18732 C20.2817276,50.00499 20.8950167,48.43899 22.8212624,48.43899 L22.8212624,48.43899 L22.8212624,48.43899 Z M22.8212624,49.36032 C21.7847176,49.36032 21.482392,50.63052 21.482392,51.16992 C21.482392,51.68322 21.7760797,52.24002 22.4066445,52.24002 C23.2790698,52.24002 23.7196014,51.14382 23.7196014,50.31732 C23.7196014,49.88232 23.4777409,49.36032 22.8212624,49.36032 L22.8212624,49.36032 L22.8212624,49.36032 Z" id="Fill-44" fill="#174489"></path>
                        <path d="M26.434485,53.05782 L25.5352824,48.55209 L26.7186711,48.55209 L27.0382724,50.51742 C27.0477741,50.54439 27.0555482,50.61399 27.072824,50.70012 C27.1168771,50.97939 27.1678405,51.25692 27.1851163,51.57882 L27.202392,51.57882 C27.2291694,51.50052 27.2542193,51.45702 27.3492359,51.28302 L27.5219934,50.96982 C27.5910963,50.83149 27.6956146,50.63922 27.8070432,50.44782 L28.9213289,48.55209 L30.2256478,48.55209 L27.4701661,53.05782 L26.434485,53.05782" id="Fill-45" fill="#174489"></path>
                        <path d="M32.1605315,48.55209 L31.2276412,53.05782 L30.0183389,53.05782 L30.952093,48.55209 L32.1605315,48.55209 L32.1605315,48.55209 Z M32.5233223,46.82862 L32.2900997,47.93439 L31.0807974,47.93439 L31.31402,46.82862 L32.5233223,46.82862 L32.5233223,46.82862 Z" id="Fill-46" fill="#174489"></path>
                        <path d="M34.5013953,48.55209 L34.3804651,49.07322 L34.3977409,49.09149 C34.6050499,48.88269 35.0801329,48.43899 35.7798007,48.43899 C36.1425913,48.43899 36.7731562,48.51729 36.9113621,49.23939 C37.1972758,48.82092 37.8010631,48.43899 38.4834551,48.43899 C39.2608638,48.43899 39.6150167,48.91749 39.6150167,49.49169 C39.6150167,49.70919 39.5554153,50.02152 39.5027242,50.29992 L38.9248505,53.05782 L37.7146844,53.05782 L38.284784,50.29992 C38.2942857,50.27382 38.3115614,50.18769 38.3288372,50.10939 C38.3711628,49.90842 38.3970764,49.80402 38.3970764,49.71702 C38.3970764,49.56129 38.3288372,49.30899 37.947907,49.30899 C37.6291694,49.30899 37.3346179,49.52649 37.127309,49.81272 C36.8854485,50.15202 36.7653821,50.70012 36.7040532,51.01419 L36.2807974,53.05782 L35.0628572,53.05782 L35.6510963,50.25729 C35.7106977,49.94322 35.7279734,49.86492 35.7279734,49.71702 C35.7279734,49.45689 35.538804,49.30899 35.278804,49.30899 C34.9073754,49.30899 34.6050499,49.61262 34.4590698,49.81272 C34.2431229,50.11722 34.17402,50.46522 34.0608638,50.98722 L33.6289701,53.05782 L32.4196678,53.05782 L33.3620598,48.55209 L34.5013953,48.55209" id="Fill-47" fill="#174489"></path>
                        <path d="M41.437608,51.17862 C41.4030565,51.88419 41.8090365,52.29222 42.3100332,52.29222 C42.9146844,52.29222 43.1824585,51.80502 43.2515614,51.66669 L44.3399336,51.84939 C43.8130233,52.93689 42.9233223,53.16222 42.3013953,53.16222 C41.0575415,53.16222 40.271495,52.28439 40.271495,51.06552 C40.271495,49.93539 40.9884386,48.43899 42.7678405,48.43899 C44.1844518,48.43899 44.5558804,49.53519 44.5558804,50.38692 C44.5558804,50.50959 44.5472426,50.88282 44.4781395,51.17862 L41.437608,51.17862 L41.437608,51.17862 Z M43.4597342,50.43999 C43.484784,49.83882 43.2688372,49.30899 42.6382724,49.30899 C41.9386047,49.30899 41.6449169,50.01282 41.5585382,50.43999 L43.4597342,50.43999 L43.4597342,50.43999 Z" id="Fill-48" fill="#174489"></path>
                        <path d="M46.9831229,48.55209 L46.8621927,49.11672 L46.8803322,49.13499 C47.2336212,48.81222 47.7346179,48.43899 48.4601993,48.43899 C49.3499003,48.43899 49.643588,49.06452 49.643588,49.60479 C49.643588,49.84752 49.5831229,50.16072 49.51402,50.50002 L48.9784718,53.05782 L47.7691694,53.05782 L48.3047176,50.49132 C48.3047176,50.47479 48.3133555,50.41302 48.3306313,50.35212 C48.347907,50.28252 48.3651828,50.19552 48.3651828,50.17899 C48.4170099,49.93539 48.4170099,49.87362 48.4170099,49.81272 C48.4170099,49.35249 48.0283056,49.30899 47.8987376,49.30899 C47.5281727,49.30899 47.1472426,49.62132 46.9226578,49.91712 C46.6989369,50.23032 46.6462459,50.51742 46.499402,51.20472 L46.1106977,53.05782 L44.9013953,53.05782 L45.8429236,48.55209 L46.9831229,48.55209" id="Fill-49" fill="#174489"></path>
                        <path d="M50.671495,48.55209 L51.2588704,48.55209 L51.4057143,47.82999 L52.7877741,46.98522 L52.4681727,48.55209 L53.2110299,48.55209 L53.0209967,49.43862 L52.2781395,49.43862 L51.8894352,51.34479 C51.8807974,51.36132 51.8721595,51.43092 51.8548837,51.50052 C51.8030565,51.71802 51.7857807,51.82242 51.7857807,51.92769 C51.7857807,52.22262 52.0535548,52.22262 52.1917608,52.22262 C52.2695017,52.22262 52.5459136,52.19652 52.589103,52.19652 L52.3990698,53.10132 C52.1831229,53.14482 52.0103654,53.16222 51.7598671,53.16222 C51.155216,53.16222 50.533289,52.98822 50.533289,52.23132 C50.533289,52.01382 50.5678405,51.83112 50.6887708,51.26649 L51.0688372,49.43862 L50.4814618,49.43862 L50.671495,48.55209" id="Fill-50" fill="#174489"></path>
                        <path d="M55.7678405,48.43899 C57.31402,48.43899 57.8668438,49.44732 57.8668438,50.47479 C57.8668438,51.83982 56.9425913,53.16222 55.3100332,53.16222 C53.9106977,53.16222 53.2283056,52.24002 53.2283056,51.18732 C53.2283056,50.00499 53.8415946,48.43899 55.7678405,48.43899 L55.7678405,48.43899 L55.7678405,48.43899 Z M55.7678405,49.36032 C54.7312957,49.36032 54.4289701,50.63052 54.4289701,51.16992 C54.4289701,51.68322 54.7226578,52.24002 55.3532226,52.24002 C56.2256478,52.24002 56.6661794,51.14382 56.6661794,50.31732 C56.6661794,49.88232 56.4243189,49.36032 55.7678405,49.36032 L55.7678405,49.36032 L55.7678405,49.36032 Z" id="Fill-51" fill="#174489"></path>
                        <path d="M62.1339535,50.97939 C62.1512292,51.51879 62.1771428,52.09212 63.3605315,52.09212 C63.7924252,52.09212 64.5352824,51.97902 64.5352824,51.32652 C64.5352824,50.88282 64.1638538,50.72709 63.4900997,50.43129 C62.4190033,49.96149 61.6675083,49.63002 61.6675083,48.55209 C61.6675083,47.80302 62.1339535,46.72422 63.8701661,46.72422 C65.0535548,46.72422 66.1160133,47.23752 66.2110299,48.60342 L64.9930897,48.66519 C64.9239867,47.94222 64.4402658,47.74212 63.8615282,47.74212 C63.6455814,47.74212 62.8854485,47.74212 62.8854485,48.39462 C62.8854485,48.83919 63.3000664,49.02189 64.0083721,49.32552 C65.0708306,49.78749 65.796412,50.10939 65.796412,51.16992 C65.796412,52.08342 65.0967442,53.16222 63.3518937,53.16222 C62.4708306,53.16222 61.3565449,52.88382 61.0455814,51.90942 C60.933289,51.55272 60.9160133,51.20472 60.9246511,51.03942 L62.1339535,50.97939" id="Fill-52" fill="#174489"></path>
                        <path d="M70.7286379,51.55272 C70.3658472,52.52712 69.6316279,53.16222 68.5432558,53.16222 C67.1784718,53.16222 66.686113,52.17129 66.686113,51.23169 C66.686113,49.67439 67.7053821,48.43899 69.2429236,48.43899 C70.4608638,48.43899 70.9791362,49.20459 71.0482392,49.95192 L69.8907641,50.07459 C69.8734884,49.90842 69.8043854,49.34379 69.1651828,49.34379 C68.2236545,49.34379 67.8867774,50.65749 67.8867774,51.37959 C67.8867774,51.96249 68.2322924,52.20522 68.5691694,52.20522 C68.7937541,52.20522 69.2947508,52.08342 69.5452492,51.36132 L70.7286379,51.55272" id="Fill-53" fill="#174489"></path>
                        <path d="M74.0110299,48.43899 C75.5572093,48.43899 76.1100332,49.44732 76.1100332,50.47479 C76.1100332,51.83982 75.1857807,53.16222 73.5532226,53.16222 C72.153887,53.16222 71.471495,52.24002 71.471495,51.18732 C71.471495,50.00499 72.084784,48.43899 74.0110299,48.43899 L74.0110299,48.43899 L74.0110299,48.43899 Z M74.0110299,49.36032 C72.974485,49.36032 72.6721595,50.63052 72.6721595,51.16992 C72.6721595,51.68322 72.9658472,52.24002 73.596412,52.24002 C74.4688372,52.24002 74.9093687,51.14382 74.9093687,50.31732 C74.9093687,49.88232 74.6675083,49.36032 74.0110299,49.36032 L74.0110299,49.36032 L74.0110299,49.36032 Z" id="Fill-54" fill="#174489"></path>
                        <path d="M78.7013953,48.55209 L78.1485715,51.22212 C78.1399336,51.23169 78.1399336,51.26649 78.1312957,51.30129 C78.0881063,51.50052 78.0449169,51.68322 78.0449169,51.81459 C78.0449169,52.04862 78.2263123,52.29222 78.5545515,52.29222 C79.0382724,52.29222 79.409701,51.84939 79.4615282,51.78762 C79.7465781,51.44919 79.8329568,51.03072 79.9106977,50.69229 L80.3512292,48.55209 L81.5605315,48.55209 L80.6276412,53.05782 L79.4960797,53.05782 L79.6256478,52.46709 L79.6083721,52.44882 C79.1419269,52.90992 78.5804651,53.16222 78.0103654,53.16222 C76.9565449,53.16222 76.8269767,52.30962 76.8269767,51.98772 C76.8269767,51.76152 76.8615282,51.56229 76.9651828,51.06552 L77.492093,48.55209 L78.7013953,48.55209" id="Fill-55" fill="#174489"></path>
                        <path d="M82.3465781,48.55209 L82.9339535,48.55209 L83.0807974,47.82999 L84.4628572,46.98522 L84.1432558,48.55209 L84.886113,48.55209 L84.6960797,49.43862 L83.9532226,49.43862 L83.5645183,51.34479 C83.5558804,51.36132 83.5472426,51.43092 83.5299668,51.50052 C83.4781395,51.71802 83.4608638,51.82242 83.4608638,51.92769 C83.4608638,52.22262 83.7286379,52.22262 83.8668438,52.22262 C83.9445847,52.22262 84.2209967,52.19652 84.2641861,52.19652 L84.0741528,53.10132 C83.8582059,53.14482 83.6854485,53.16222 83.4349501,53.16222 C82.830299,53.16222 82.2083721,52.98822 82.2083721,52.23132 C82.2083721,52.01382 82.2429236,51.83112 82.3638538,51.26649 L82.7439203,49.43862 L82.1565449,49.43862 L82.3465781,48.55209" id="Fill-56" fill="#174489"></path>
                        <path d="M88.5312957,50.97939 C88.5485718,51.51879 88.5744851,52.09212 89.7578734,52.09212 C90.1897672,52.09212 90.9317604,51.97902 90.9317604,51.32652 C90.9317604,50.88282 90.5611963,50.72709 89.8874418,50.43129 C88.8163458,49.96149 88.0648505,49.63002 88.0648505,48.55209 C88.0648505,47.80302 88.5312957,46.72422 90.2675081,46.72422 C91.4508972,46.72422 92.5133551,47.23752 92.6083721,48.60342 L91.3904316,48.66519 C91.3213288,47.94222 90.8376083,47.74212 90.25887,47.74212 C90.0429235,47.74212 89.282791,47.74212 89.282791,48.39462 C89.282791,48.83919 89.6974087,49.02189 90.4057145,49.32552 C91.4681725,49.78749 92.1937545,50.10939 92.1937545,51.16992 C92.1937545,52.08342 91.4940867,53.16222 89.7492362,53.16222 C88.8681725,53.16222 87.753887,52.88382 87.4429235,51.90942 C87.3306313,51.55272 87.3124919,51.20472 87.3219932,51.03942 L88.5312957,50.97939" id="Fill-57" fill="#174489"></path>
                        <path d="M94.1113619,53.05782 L93.2130229,48.55209 L94.3964121,48.55209 L94.7160136,50.51742 C94.7246508,50.54439 94.7332889,50.61399 94.7497009,50.70012 C94.7937545,50.97939 94.8455811,51.25692 94.8628573,51.57882 L94.8801325,51.57882 C94.9060467,51.50052 94.9319601,51.45702 95.0269771,51.28302 L95.19887,50.96982 C95.2688369,50.83149 95.3724919,50.63922 95.4847842,50.44782 L96.5982056,48.55209 L97.9033891,48.55209 L95.1479074,53.05782 L94.1113619,53.05782" id="Fill-58" fill="#174489"></path>
                        <path d="M99.8374087,48.55209 L98.9053823,53.05782 L97.6960799,53.05782 L98.6289703,48.55209 L99.8374087,48.55209 L99.8374087,48.55209 Z M100.201063,46.82862 L99.9669771,47.93439 L98.7585378,47.93439 L98.9917604,46.82862 L100.201063,46.82862 L100.201063,46.82862 Z" id="Fill-59" fill="#174489"></path>
                        <path d="M100.071495,52.23132 L102.523788,49.49952 L100.520664,49.49952 L100.719336,48.55209 L104.23495,48.55209 L104.088106,49.27419 L101.609037,52.06689 L103.768505,52.06689 L103.561196,53.05782 L99.8987375,53.05782 L100.071495,52.23132" id="Fill-60" fill="#174489"></path>
                        <path d="M104.390432,52.23132 L106.842724,49.49952 L104.839602,49.49952 L105.038273,48.55209 L108.553887,48.55209 L108.406179,49.27419 L105.927974,52.06689 L108.087442,52.06689 L107.880133,53.05782 L104.217675,53.05782 L104.390432,52.23132" id="Fill-61" fill="#174489"></path>
                        <path d="M110.157941,51.17862 C110.123389,51.88419 110.530233,52.29222 111.030365,52.29222 C111.635017,52.29222 111.902791,51.80502 111.971894,51.66669 L113.060266,51.84939 C112.533355,52.93689 111.643654,53.16222 111.021727,53.16222 C109.777873,53.16222 108.991828,52.28439 108.991828,51.06552 C108.991828,49.93539 109.708771,48.43899 111.488172,48.43899 C112.905648,48.43899 113.276212,49.53519 113.276212,50.38692 C113.276212,50.50959 113.267574,50.88282 113.198472,51.17862 L110.157941,51.17862 L110.157941,51.17862 Z M112.179203,50.43999 C112.205116,49.83882 111.989169,49.30899 111.358605,49.30899 C110.658937,49.30899 110.366113,50.01282 110.27887,50.43999 L112.179203,50.43999 L112.179203,50.43999 Z" id="Fill-62" fill="#174489"></path>
                        <path d="M115.634352,48.55209 L115.452957,49.40382 L115.470233,49.42209 C115.781196,48.92532 116.230365,48.43899 116.826379,48.43899 C117.085515,48.43899 117.26691,48.51729 117.38784,48.56862 L116.921395,49.56999 C116.852292,49.54302 116.757276,49.50822 116.576744,49.50822 C116.04897,49.50822 115.695681,49.97019 115.617076,50.07459 C115.323389,50.45652 115.193821,51.07422 115.07289,51.63972 L114.779203,53.05782 L113.570764,53.05782 L114.502791,48.55209 L115.634352,48.55209" id="Fill-63" fill="#174489"></path>
                        <path d="M119.523986,48.43899 C121.070167,48.43899 121.622127,49.44732 121.622127,50.47479 C121.622127,51.83982 120.697873,53.16222 119.065315,53.16222 C117.666844,53.16222 116.984452,52.24002 116.984452,51.18732 C116.984452,50.00499 117.597741,48.43899 119.523986,48.43899 L119.523986,48.43899 L119.523986,48.43899 Z M119.523986,49.36032 C118.486578,49.36032 118.184252,50.63052 118.184252,51.16992 C118.184252,51.68322 118.478804,52.24002 119.109369,52.24002 C119.98093,52.24002 120.422325,51.14382 120.422325,50.31732 C120.422325,49.88232 120.179602,49.36032 119.523986,49.36032 L119.523986,49.36032 L119.523986,49.36032 Z" id="Fill-64" fill="#174489"></path>
                        <path d="M2.70365449,63.49782 L2.47906977,58.29522 L2.46179402,58.29522 L1.48571428,63.49782 L0.336877076,63.49782 L1.63255814,57.26862 L3.44651163,57.26862 L3.62790698,61.63689 L3.64518273,61.63689 L5.74418605,57.26862 L7.57541528,57.26862 L6.27973422,63.49782 L5.12225913,63.49782 L6.34019934,58.34742 L6.32292359,58.33002 L3.90431894,63.49782 L2.70365449,63.49782" id="Fill-65" fill="#174489"></path>
                        <path d="M10.2445183,58.87899 C11.7906977,58.87899 12.3435216,59.88732 12.3435216,60.91479 C12.3435216,62.27982 11.4192691,63.60222 9.78671096,63.60222 C8.38737541,63.60222 7.70498339,62.68002 7.70498339,61.62732 C7.70498339,60.44499 8.31827242,58.87899 10.2445183,58.87899 L10.2445183,58.87899 L10.2445183,58.87899 Z M10.2445183,59.80032 C9.20797341,59.80032 8.90564783,61.07052 8.90564783,61.60992 C8.90564783,62.12322 9.19933551,62.68002 9.82990034,62.68002 C10.7023256,62.68002 11.1428572,61.58382 11.1428572,60.75732 C11.1428572,60.32232 10.9009967,59.80032 10.2445183,59.80032 L10.2445183,59.80032 L10.2445183,59.80032 Z" id="Fill-66" fill="#174489"></path>
                        <path d="M13.8577409,63.49782 L12.9585382,58.99209 L14.1419269,58.99209 L14.4615282,60.95742 C14.4701661,60.98439 14.478804,61.05399 14.4960797,61.14012 C14.5392691,61.41939 14.5910963,61.69692 14.6083721,62.01882 L14.6256478,62.01882 C14.6515614,61.94052 14.6774751,61.89702 14.7724917,61.72302 L14.9452492,61.40982 C15.0143522,61.27149 15.1180066,61.07922 15.230299,60.88782 L16.3445847,58.99209 L17.6489037,58.99209 L14.8934219,63.49782 L13.8577409,63.49782" id="Fill-67" fill="#174489"></path>
                        <path d="M19.5837873,58.99209 L18.650897,63.49782 L17.4415946,63.49782 L18.374485,58.99209 L19.5837873,58.99209 L19.5837873,58.99209 Z M19.9465781,57.26862 L19.7133555,58.37439 L18.5040532,58.37439 L18.7372758,57.26862 L19.9465781,57.26862 L19.9465781,57.26862 Z" id="Fill-68" fill="#174489"></path>
                        <path d="M21.9246511,58.99209 L21.8037209,59.51322 L21.8209967,59.53149 C22.0283056,59.32269 22.5033887,58.87899 23.2030565,58.87899 C23.5658472,58.87899 24.196412,58.95729 24.3346179,59.67939 C24.6196678,59.26092 25.2243189,58.87899 25.906711,58.87899 C26.6841196,58.87899 27.0382724,59.35749 27.0382724,59.93169 C27.0382724,60.14919 26.9778073,60.46152 26.92598,60.73992 L26.3472426,63.49782 L25.1379402,63.49782 L25.7080398,60.73992 C25.7166777,60.71382 25.7348172,60.62769 25.752093,60.54939 C25.7944186,60.34842 25.8203322,60.24402 25.8203322,60.15789 C25.8203322,60.00129 25.752093,59.74899 25.3711628,59.74899 C25.0515614,59.74899 24.7578737,59.96649 24.5505648,60.25272 C24.3087043,60.59202 24.1877741,61.14012 24.127309,61.45419 L23.7040532,63.49782 L22.486113,63.49782 L23.0734884,60.69729 C23.1339535,60.38322 23.1512292,60.30492 23.1512292,60.15789 C23.1512292,59.89689 22.961196,59.74899 22.7020598,59.74899 C22.3306313,59.74899 22.0283056,60.05262 21.8814618,60.25272 C21.665515,60.55722 21.596412,60.90522 21.4841196,61.42722 L21.0522259,63.49782 L19.8429236,63.49782 L20.7853156,58.99209 L21.9246511,58.99209" id="Fill-69" fill="#174489"></path>
                        <path d="M28.8608638,61.61862 C28.8263123,62.32419 29.2322924,62.73222 29.733289,62.73222 C30.3379402,62.73222 30.6057143,62.24502 30.6748172,62.10669 L31.7631894,62.28939 C31.2362791,63.37689 30.3465781,63.60222 29.7246511,63.60222 C28.4807974,63.60222 27.6947508,62.72439 27.6947508,61.50552 C27.6947508,60.37539 28.4116944,58.87899 30.1910963,58.87899 C31.6077076,58.87899 31.9791362,59.97519 31.9791362,60.82692 C31.9791362,60.94959 31.9704983,61.32282 31.9013953,61.61862 L28.8608638,61.61862 L28.8608638,61.61862 Z M30.8821263,60.87999 C30.9080398,60.27882 30.692093,59.74899 30.0615282,59.74899 C29.3618605,59.74899 29.0681727,60.45282 28.9817941,60.87999 L30.8821263,60.87999 L30.8821263,60.87999 Z" id="Fill-70" fill="#174489"></path>
                        <path d="M34.4063788,58.99209 L34.2854485,59.55672 L34.3027242,59.57499 C34.6568771,59.25222 35.1578737,58.87899 35.8834551,58.87899 C36.7731562,58.87899 37.0668438,59.50539 37.0668438,60.04479 C37.0668438,60.28752 37.0063788,60.60072 36.9372758,60.94002 L36.4017276,63.49782 L35.1924252,63.49782 L35.7279734,60.93132 C35.7279734,60.91479 35.7366113,60.85302 35.753887,60.79212 C35.7711628,60.72252 35.7884386,60.63552 35.7884386,60.61899 C35.8402658,60.37539 35.8402658,60.31362 35.8402658,60.25272 C35.8402658,59.79249 35.4515614,59.74899 35.3219934,59.74899 C34.9505648,59.74899 34.5704983,60.06132 34.3459136,60.35712 C34.1213289,60.67032 34.0695017,60.95742 33.9226578,61.64472 L33.5339535,63.49782 L32.3246511,63.49782 L33.2661794,58.99209 L34.4063788,58.99209" id="Fill-71" fill="#174489"></path>
                        <path d="M38.0947508,58.99209 L38.6821263,58.99209 L38.8289701,58.26999 L40.2110299,57.42522 L39.8914285,58.99209 L40.6342857,58.99209 L40.4442525,59.87862 L39.7013953,59.87862 L39.312691,61.78479 C39.3040532,61.80132 39.2954153,61.87092 39.2781395,61.94052 C39.2263123,62.15802 39.2090365,62.26242 39.2090365,62.36769 C39.2090365,62.66262 39.4768106,62.66262 39.6150167,62.66262 C39.6927574,62.66262 39.9691694,62.63652 40.0123588,62.63652 L39.8223256,63.54132 C39.6063788,63.58482 39.4336212,63.60222 39.1831229,63.60222 C38.5784718,63.60222 37.9565449,63.42822 37.9565449,62.67132 C37.9565449,62.45382 37.9910963,62.27112 38.1120266,61.70649 L38.492093,59.87862 L37.9047176,59.87862 L38.0947508,58.99209" id="Fill-72" fill="#174489"></path>
                        <path d="M44.2103654,57.26862 L46.3266445,57.26862 C46.9917608,57.26862 47.4236545,57.27732 47.8555482,57.46002 C48.5724917,57.76452 48.7020598,58.38222 48.7020598,58.78242 C48.7020598,59.87862 47.7778073,60.17442 47.527309,60.24402 L47.527309,60.26229 C48.2701661,60.46152 48.5379402,61.02789 48.5379402,61.48899 C48.5379402,62.19282 48.1146844,62.94189 47.4841196,63.22899 C46.8967442,63.49782 46.3266445,63.49782 45.8342857,63.49782 L42.9146844,63.49782 L44.2103654,57.26862 L44.2103654,57.26862 Z M44.4003986,62.45382 L45.6269767,62.45382 C46.1625249,62.45382 46.3784718,62.43729 46.637608,62.35899 C46.9831229,62.25459 47.2422591,61.89702 47.2422591,61.54032 C47.2422591,60.82692 46.4475748,60.82692 46.2575415,60.82692 L44.7372758,60.82692 L44.4003986,62.45382 L44.4003986,62.45382 Z M44.9618605,59.78379 L45.9293023,59.78379 C46.4216611,59.78379 46.7239867,59.75769 46.9917608,59.64459 C47.2681727,59.53149 47.4409302,59.21742 47.4409302,58.93032 C47.4409302,58.31262 46.8708306,58.31262 46.2489037,58.31262 L45.2641861,58.31262 L44.9618605,59.78379 L44.9618605,59.78379 Z" id="Fill-73" fill="#174489"></path>
                        <path d="M49.6608638,60.16572 C50.0063788,59.14782 50.8960797,58.87899 51.699402,58.87899 C53.2801329,58.87899 53.4010631,59.81772 53.4010631,60.08742 C53.4010631,60.41019 53.340598,60.67902 53.1678405,61.46289 C53.1505648,61.53249 53.0641861,61.91442 53.0555482,61.99272 C52.9864452,62.28939 52.9346179,62.60172 52.9346179,62.85402 C52.9346179,63.11502 52.9691694,63.27249 53.0296346,63.49782 L51.8548837,63.49782 C51.7944186,63.28902 51.7857807,63.21072 51.768505,62.98539 C51.353887,63.45519 50.8442525,63.60222 50.4641861,63.60222 C49.7731562,63.60222 49.1771428,63.12459 49.1771428,62.28939 C49.1771428,60.94002 50.4209967,60.83649 50.9997342,60.79212 C51.4748172,60.74862 51.9153489,60.70512 52.1572093,60.61899 C52.1831229,60.53982 52.2349501,60.36669 52.2349501,60.20922 C52.2349501,59.87862 51.9326246,59.74899 51.6130233,59.74899 C51.2502325,59.74899 50.947907,59.87862 50.8442525,60.26229 L49.6608638,60.16572 L49.6608638,60.16572 Z M51.9930897,61.39242 C51.9153489,61.41939 51.8807974,61.42722 51.7080398,61.44462 C50.9651828,61.54032 50.3173422,61.65342 50.3173422,62.18499 C50.3173422,62.41902 50.4814618,62.68959 50.8701661,62.68959 C51.7253156,62.68959 51.8894352,61.92399 51.967176,61.55772 L51.9930897,61.39242 L51.9930897,61.39242 Z" id="Fill-74" fill="#174489"></path>
                        <path d="M54.4116944,58.99209 L54.9990698,58.99209 L55.1459136,58.26999 L56.5279734,57.42522 L56.2083721,58.99209 L56.9512292,58.99209 L56.761196,59.87862 L56.0183389,59.87862 L55.6296346,61.78479 C55.6209967,61.80132 55.6123588,61.87092 55.5950831,61.94052 C55.5432558,62.15802 55.52598,62.26242 55.52598,62.36769 C55.52598,62.66262 55.7937541,62.66262 55.9319602,62.66262 C56.009701,62.66262 56.286113,62.63652 56.3293023,62.63652 L56.1392691,63.54132 C55.9233223,63.58482 55.7505648,63.60222 55.5000664,63.60222 C54.8954153,63.60222 54.2734884,63.42822 54.2734884,62.67132 C54.2734884,62.45382 54.3080398,62.27112 54.4289701,61.70649 L54.8090365,59.87862 L54.2216611,59.87862 L54.4116944,58.99209" id="Fill-75" fill="#174489"></path>
                        <path d="M57.2881063,58.99209 L57.8754817,58.99209 L58.0223256,58.26999 L59.4043854,57.42522 L59.084784,58.99209 L59.8276412,58.99209 L59.637608,59.87862 L58.8947508,59.87862 L58.5060465,61.78479 C58.4974087,61.80132 58.4887708,61.87092 58.471495,61.94052 C58.4196678,62.15802 58.402392,62.26242 58.402392,62.36769 C58.402392,62.66262 58.6701661,62.66262 58.8083721,62.66262 C58.886113,62.66262 59.1625249,62.63652 59.2057143,62.63652 L59.0156811,63.54132 C58.7997342,63.58482 58.6269767,63.60222 58.3764784,63.60222 C57.7718273,63.60222 57.1499003,63.42822 57.1499003,62.67132 C57.1499003,62.45382 57.1844518,62.27112 57.3053821,61.70649 L57.6854485,59.87862 L57.0980731,59.87862 L57.2881063,58.99209" id="Fill-76" fill="#174489"></path>
                        <path d="M60.2163455,60.16572 C60.5618605,59.14782 61.4515614,58.87899 62.2548837,58.87899 C63.8356146,58.87899 63.9565449,59.81772 63.9565449,60.08742 C63.9565449,60.41019 63.8960797,60.67902 63.7224585,61.46289 C63.7060465,61.53249 63.6196678,61.91442 63.6110299,61.99272 C63.5419269,62.28939 63.4900997,62.60172 63.4900997,62.85402 C63.4900997,63.11502 63.5237873,63.27249 63.5851163,63.49782 L62.4103654,63.49782 C62.3499003,63.28902 62.3412624,63.21072 62.3239867,62.98539 C61.9093687,63.45519 61.3988704,63.60222 61.0196678,63.60222 C60.3286379,63.60222 59.7326246,63.12459 59.7326246,62.28939 C59.7326246,60.94002 60.9764784,60.83649 61.555216,60.79212 C62.030299,60.74862 62.4708306,60.70512 62.712691,60.61899 C62.7386047,60.53982 62.7904319,60.36669 62.7904319,60.20922 C62.7904319,59.87862 62.4881063,59.74899 62.168505,59.74899 C61.8057143,59.74899 61.5033887,59.87862 61.3988704,60.26229 L60.2163455,60.16572 L60.2163455,60.16572 Z M62.5485715,61.39242 C62.4708306,61.41939 62.4362791,61.42722 62.2635216,61.44462 C61.5206645,61.54032 60.872824,61.65342 60.872824,62.18499 C60.872824,62.41902 61.0369435,62.68959 61.4256478,62.68959 C62.2807974,62.68959 62.4449169,61.92399 62.5226578,61.55772 L62.5485715,61.39242 L62.5485715,61.39242 Z" id="Fill-77" fill="#174489"></path>
                        <path d="M65.5113621,62.04492 C65.6582059,62.41902 65.8827907,62.75919 66.5306313,62.75919 C66.9616611,62.75919 67.368505,62.54169 67.368505,62.23632 C67.368505,61.99272 67.2821263,61.96749 66.4528904,61.68039 C65.6927574,61.41939 65.0103654,61.18362 65.0103654,60.33972 C65.0103654,59.58282 65.66598,58.87899 67.0489037,58.87899 C67.6794685,58.87899 68.6814618,59.00862 68.9146844,60.06132 L67.7917608,60.26229 C67.6017276,59.72202 66.9970764,59.72202 66.8588704,59.72202 C66.3578737,59.72202 66.1505648,59.92212 66.1505648,60.13962 C66.1505648,60.41019 66.3751495,60.47979 66.9970764,60.66249 C67.6708306,60.86172 68.6037209,61.13229 68.6037209,62.01882 C68.6037209,62.62782 68.1372758,63.60222 66.5565449,63.60222 C65.4077076,63.60222 64.6216611,63.20202 64.3366113,62.23632 L65.5113621,62.04492" id="Fill-78" fill="#174489"></path>
                        <path d="M70.6163455,61.61862 C70.5817941,62.32419 70.9877741,62.73222 71.4887708,62.73222 C72.0934219,62.73222 72.361196,62.24502 72.430299,62.10669 L73.5186711,62.28939 C72.9917608,63.37689 72.1020598,63.60222 71.4801329,63.60222 C70.2362791,63.60222 69.4502325,62.72439 69.4502325,61.50552 C69.4502325,60.37539 70.167176,58.87899 71.9457143,58.87899 C73.3631894,58.87899 73.7346179,59.97519 73.7346179,60.82692 C73.7346179,60.94959 73.72598,61.32282 73.6568771,61.61862 L70.6163455,61.61862 L70.6163455,61.61862 Z M72.637608,60.87999 C72.6635216,60.27882 72.4475748,59.74899 71.8170099,59.74899 C71.1164784,59.74899 70.8236545,60.45282 70.7372758,60.87999 L72.637608,60.87999 L72.637608,60.87999 Z" id="Fill-79" fill="#174489"></path>
                        <path d="M76.1618605,58.99209 L76.0409302,59.55672 L76.0582059,59.57499 C76.4123588,59.25222 76.9133555,58.87899 77.6389369,58.87899 C78.5286379,58.87899 78.8223256,59.50539 78.8223256,60.04479 C78.8223256,60.28752 78.7618605,60.60072 78.6927574,60.94002 L78.1572093,63.49782 L76.9470432,63.49782 L77.4834551,60.93132 C77.4834551,60.91479 77.492093,60.85302 77.5093687,60.79212 C77.5266445,60.72252 77.5439203,60.63552 77.5439203,60.61899 C77.5948837,60.37539 77.5948837,60.31362 77.5948837,60.25272 C77.5948837,59.79249 77.2070432,59.74899 77.0774751,59.74899 C76.7060465,59.74899 76.32598,60.06132 76.1013953,60.35712 C75.8768106,60.67032 75.8249833,60.95742 75.6781395,61.64472 L75.2894352,63.49782 L74.0801329,63.49782 L75.0216611,58.99209 L76.1618605,58.99209" id="Fill-80" fill="#174489"></path>
                        <path d="M82.3724917,63.49782 L82.4752824,63.02802 L82.4580066,63.01149 C82.224784,63.25422 81.7928904,63.60222 81.0681727,63.60222 C80.1093687,63.60222 79.5133555,62.92362 79.5133555,61.71519 C79.5133555,60.26229 80.3857807,58.87899 81.7246511,58.87899 C82.6229901,58.87899 82.968505,59.43492 83.0807974,59.60022 L83.5645183,57.26862 L84.7738206,57.26862 L83.4781395,63.49782 L82.3724917,63.49782 L82.3724917,63.49782 Z M81.52598,62.68002 C82.4156811,62.68002 82.761196,61.52379 82.761196,60.87129 C82.761196,60.29709 82.4156811,59.81772 81.8974087,59.81772 C81.12,59.81772 80.6881063,60.87129 80.6881063,61.66212 C80.6881063,62.21979 80.9817941,62.68002 81.52598,62.68002 L81.52598,62.68002 L81.52598,62.68002 Z" id="Fill-81" fill="#174489"></path>
                        <path d="M85.1789369,60.16572 C85.5253156,59.14782 86.4150167,58.87899 87.218339,58.87899 C88.7990697,58.87899 88.9191359,59.81772 88.9191359,60.08742 C88.9191359,60.41019 88.8595353,60.67902 88.6859133,61.46289 C88.6686381,61.53249 88.5831232,61.91442 88.5744851,61.99272 C88.5045183,62.28939 88.4526907,62.60172 88.4526907,62.85402 C88.4526907,63.11502 88.4872421,63.27249 88.5485718,63.49782 L87.3729567,63.49782 C87.3124919,63.28902 87.3047179,63.21072 87.2874418,62.98539 C86.8728241,63.45519 86.3623256,63.60222 85.9831229,63.60222 C85.292093,63.60222 84.6960797,63.12459 84.6960797,62.28939 C84.6960797,60.94002 85.9399336,60.83649 86.5186711,60.79212 C86.9928904,60.74862 87.4342855,60.70512 87.6761461,60.61899 C87.7020595,60.53982 87.753887,60.36669 87.753887,60.20922 C87.753887,59.87862 87.4515616,59.74899 87.1319601,59.74899 C86.7691691,59.74899 86.4668438,59.87862 86.3623256,60.26229 L85.1789369,60.16572 L85.1789369,60.16572 Z M87.5120263,61.39242 C87.4342855,61.41939 87.3997341,61.42722 87.226113,61.44462 C86.4841196,61.54032 85.8362791,61.65342 85.8362791,62.18499 C85.8362791,62.41902 86.0003986,62.68959 86.389103,62.68959 C87.2442523,62.68959 87.4075081,61.92399 87.486113,61.55772 L87.5120263,61.39242 L87.5120263,61.39242 Z" id="Fill-82" fill="#174489"></path>
                        <path d="M90.4748173,62.04492 C90.621661,62.41902 90.8453823,62.75919 91.4932226,62.75919 C91.9251164,62.75919 92.3319601,62.54169 92.3319601,62.23632 C92.3319601,61.99272 92.2455811,61.96749 91.4163458,61.68039 C90.6562124,61.41939 89.9738207,61.18362 89.9738207,60.33972 C89.9738207,59.58282 90.629435,58.87899 92.0123585,58.87899 C92.6429235,58.87899 93.6449167,59.00862 93.8781393,60.06132 L92.7543517,60.26229 C92.5651827,59.72202 91.9596678,59.72202 91.8223254,59.72202 C91.3213288,59.72202 91.1131563,59.92212 91.1131563,60.13962 C91.1131563,60.41019 91.3386049,60.47979 91.9596678,60.66249 C92.6342855,60.86172 93.5671759,61.13229 93.5671759,62.01882 C93.5671759,62.62782 93.1007307,63.60222 91.52,63.60222 C90.3711631,63.60222 89.5842523,63.20202 89.2992031,62.23632 L90.4748173,62.04492" id="Fill-83" fill="#174489"></path>
                        <path d="M98.0415947,61.41939 C98.0580068,61.95879 98.0847842,62.53212 99.2673093,62.53212 C99.6992031,62.53212 100.442924,62.41902 100.442924,61.76652 C100.442924,61.32282 100.071495,61.16709 99.3977409,60.87129 C98.3257808,60.40149 97.5742855,60.07002 97.5742855,58.99209 C97.5742855,58.24302 98.0415947,57.16422 99.7778071,57.16422 C100.960332,57.16422 102.022791,57.67752 102.118671,59.04342 L100.900731,59.10519 C100.830764,58.38222 100.347043,58.18212 99.7691691,58.18212 C99.5532226,58.18212 98.7930901,58.18212 98.7930901,58.83462 C98.7930901,59.27919 99.2077077,59.46189 99.9151495,59.76552 C100.977608,60.22749 101.704054,60.54939 101.704054,61.60992 C101.704054,62.52342 101.004386,63.60222 99.2595353,63.60222 C98.3784715,63.60222 97.2641861,63.32382 96.9532226,62.34942 C96.8400663,61.99272 96.8236542,61.64472 96.8322923,61.47942 L98.0415947,61.41939" id="Fill-84" fill="#174489"></path>
                        <path d="M103.620797,63.49782 L102.722459,58.99209 L103.905847,58.99209 L104.226313,60.95742 C104.234087,60.98439 104.243588,61.05399 104.260864,61.14012 C104.304054,61.41939 104.35588,61.69692 104.372292,62.01882 L104.390432,62.01882 C104.415482,61.94052 104.442259,61.89702 104.536412,61.72302 L104.710033,61.40982 C104.778273,61.27149 104.881927,61.07922 104.994219,60.88782 L106.108505,58.99209 L107.413687,58.99209 L104.658206,63.49782 L103.620797,63.49782" id="Fill-85" fill="#174489"></path>
                        <path d="M109.347708,58.99209 L108.415681,63.49782 L107.205515,63.49782 L108.138405,58.99209 L109.347708,58.99209 L109.347708,58.99209 Z M109.711362,57.26862 L109.478139,58.37439 L108.267974,58.37439 L108.501196,57.26862 L109.711362,57.26862 L109.711362,57.26862 Z" id="Fill-86" fill="#174489"></path>
                        <path d="M109.58093,62.67132 L112.03495,59.93952 L110.030099,59.93952 L110.228771,58.99209 L113.745249,58.99209 L113.598405,59.71419 L111.119336,62.50689 L113.278804,62.50689 L113.070631,63.49782 L109.409037,63.49782 L109.58093,62.67132" id="Fill-87" fill="#174489"></path>
                        <path d="M115.939269,58.99209 L115.757873,59.84382 L115.774285,59.86209 C116.086113,59.36532 116.535282,58.87899 117.131296,58.87899 C117.389568,58.87899 117.570963,58.95729 117.691894,59.00862 L117.225449,60.00999 C117.156346,59.98302 117.062193,59.94822 116.879934,59.94822 C116.353887,59.94822 115.999734,60.41019 115.921993,60.51459 C115.627442,60.89652 115.497873,61.51422 115.376944,62.07972 L115.083256,63.49782 L113.874817,63.49782 L114.807708,58.99209 L115.939269,58.99209" id="Fill-88" fill="#174489"></path>
                        <path d="M117.830963,60.16572 C118.175614,59.14782 119.065315,58.87899 119.868638,58.87899 C121.450233,58.87899 121.570299,59.81772 121.570299,60.08742 C121.570299,60.41019 121.509833,60.67902 121.337076,61.46289 C121.3198,61.53249 121.234285,61.91442 121.224784,61.99272 C121.155681,62.28939 121.103854,62.60172 121.103854,62.85402 C121.103854,63.11502 121.138405,63.27249 121.199734,63.49782 L120.02412,63.49782 C119.963654,63.28902 119.95588,63.21072 119.938605,62.98539 C119.523986,63.45519 119.013489,63.60222 118.633422,63.60222 C117.943256,63.60222 117.347242,63.12459 117.347242,62.28939 C117.347242,60.94002 118.591096,60.83649 119.16897,60.79212 C119.644054,60.74862 120.084585,60.70512 120.326445,60.61899 C120.353223,60.53982 120.40505,60.36669 120.40505,60.20922 C120.40505,59.87862 120.102724,59.74899 119.782259,59.74899 C119.419468,59.74899 119.117143,59.87862 119.013489,60.26229 L117.830963,60.16572 L117.830963,60.16572 Z M120.162325,61.39242 C120.084585,61.41939 120.050033,61.42722 119.877276,61.44462 C119.134419,61.54032 118.486578,61.65342 118.486578,62.18499 C118.486578,62.41902 118.650698,62.68959 119.039402,62.68959 C119.894551,62.68959 120.058671,61.92399 120.137276,61.55772 L120.162325,61.39242 L120.162325,61.39242 Z" id="Fill-89" fill="#174489"></path>
                        <path d="M125.57309,21.48987 L259.784054,21.48987 L259.784054,69.12324 L125.57309,69.12324 L125.57309,21.48987 L125.57309,21.48987 Z" id="Fill-90" fill="#D9222A"></path>
                        <path d="M199.534884,0.39237 C216.918605,6.69987 238.189369,21.81612 245.855482,29.31987 C245.315614,42.69612 238.945183,61.72824 237.109635,65.20824 C224.584718,65.42574 199.750831,62.38074 189.817276,60.85824 C187.009967,43.34862 186.79402,21.81612 199.534884,0.39237" id="Fill-91" fill="#0A4A8E"></path>
                        <path d="M137.558139,30.08112 C153.862127,25.83987 166.818937,23.55612 186.254153,23.99112 C184.742525,41.71737 184.310631,56.29074 189.385382,74.34324 C180.315614,80.21574 163.14784,85.54449 155.589701,86.41449 C140.041528,58.03074 143.280731,53.89824 137.558139,30.08112" id="Fill-92" fill="#009949"></path>
                        <path d="M223.548172,18.357 C225.10299,18.44487 226.571428,18.44487 227.607974,19.48887 C228.644518,20.61987 229.076412,21.92487 228.903654,23.577 C228.644518,26.622 226.312292,28.797 224.498339,31.146 L219.66113,37.58487 C219.315614,38.01987 219.833887,38.367 220.179402,38.62887 C223.980066,36.627 226.657807,31.92987 230.803986,30.79887 C232.013289,30.36387 233.481727,30.45087 234.431894,31.146 C238.750831,35.67087 233.222591,40.716 235.209302,46.02474 C235.468438,48.98361 236.76412,52.81074 233.654485,54.63861 C227.607974,56.72574 223.893687,49.85361 219.229236,46.98174 C218.451828,46.63374 217.760797,46.98174 217.242525,47.67861 C216.724252,51.85374 216.983389,56.29074 219.747508,59.33574 C219.66113,60.11874 219.142857,60.81474 218.710963,61.42374 C214.737541,58.29174 215.601329,52.72374 215.169435,47.85174 C214.651163,46.98174 213.614618,46.28574 212.578073,46.63374 C208.172758,49.67874 204.026578,56.20374 198.066445,53.24574 C194.265781,50.46174 196.857143,45.76374 196.511628,41.847 C196.770764,38.19387 193.920266,33.06087 198.239203,30.88587 C202.644518,29.49387 205.754153,33.84387 209.295681,35.757 C210.591362,36.45387 211.800664,38.45487 213.182724,37.845 L212.837209,36.801 C209.295681,31.92987 202.126246,27.666 204.717608,20.967 C205.408638,19.836 206.531562,18.531 207.827242,18.357 C212.923588,18.87987 218.624585,19.662 223.548172,18.357" id="Fill-93" fill="#FFF101"></path>
                        <path d="M227.089701,21.576 C228.126246,25.66587 224.498339,28.27587 222.33887,31.32 C220.697675,33.756 217.328904,35.931 218.27907,39.15 C219.056478,40.107 220.179402,40.36887 221.302325,40.02 C224.930233,37.75887 227.607974,33.40887 231.667774,32.19087 C232.877076,31.92987 234,32.625 234.345515,33.66987 C234.518273,37.932 232.445183,42.19587 233.654485,46.72074 C233.740864,48.63474 234.863788,50.98374 233.568106,52.72374 C232.617941,53.59374 231.063123,53.76861 230.026578,53.24574 C225.880398,51.50574 223.029901,46.72074 218.797342,45.15387 L217.156146,45.58974 C216.89701,44.54487 217.58804,43.935 217.760797,43.065 L231.063123,42.891 C231.495017,42.456 231.840532,41.76 231.322259,41.325 L230.803986,40.89087 L217.760797,40.89087 L217.069767,39.93387 L217.156146,23.83887 C216.810631,23.40387 216.292359,23.05587 215.687708,23.316 L215.255814,23.751 L215.51495,40.02 L214.564784,40.977 L201.003322,40.89087 C200.312292,41.412 200.48505,42.19587 200.830565,42.80487 C205.322259,43.152 210.07309,42.891 214.737541,42.97887 C214.82392,43.84887 215.428572,44.54487 215.169435,45.50361 C210.504983,43.326 207.827242,49.85361 203.9402,51.50574 C202.730897,52.37574 201.003322,52.63674 199.534884,52.20174 C198.498339,51.85374 198.066445,50.63574 197.72093,49.76574 C197.461794,47.15574 198.325581,44.71887 198.239203,42.021 C198.843854,38.715 195.388704,33.84387 199.534884,32.10387 L201.17608,32.36487 C204.976744,34.452 208.431894,37.497 212.146179,39.75987 C213.355482,40.107 214.305648,39.32487 214.737541,38.367 C215.342193,36.88887 213.960133,35.931 213.182724,34.8 C210.245847,30.537 203.335548,26.53587 206.790698,20.88087 C207.913621,19.401 210.159468,20.097 211.627907,20.18487 C215.342193,21.05487 219.920266,20.967 223.461794,19.92387 C224.930233,19.836 226.398671,20.271 227.089701,21.576" id="Fill-94" fill="#005093"></path>
                        <path d="M216.810631,42.10887 C216.724252,42.36987 216.551495,42.63 216.292359,42.891 C216.033223,42.80487 215.946844,42.54387 215.687708,42.36987 L216.20598,41.586 C216.465116,41.67387 216.637873,41.93487 216.810631,42.10887" id="Fill-95" fill="#005093"></path>
                        <path d="M172.325581,41.847 C170.511628,47.06874 166.192691,51.50574 167.488372,57.76974 C168.006645,56.81361 167.747508,55.24674 168.179402,54.02874 C168.870432,50.46174 171.461794,46.80861 175.17608,45.76374 C177.853821,45.15387 180.704319,45.76374 182.777409,47.67861 C183.813953,48.63474 184.07309,50.02674 184.07309,51.41874 C183.986711,54.46374 180.358804,57.07374 182.863788,60.03174 C181.222591,60.20574 179.408638,60.55374 178.026578,59.59674 C176.817276,57.85674 175.521595,55.15974 173.016611,55.68174 C172.239203,56.20374 171.548172,56.81361 171.289037,57.68361 C171.72093,58.37874 172.671096,58.72674 172.930233,59.68374 C173.189369,60.64074 172.843854,61.51074 172.41196,62.29374 C171.461794,63.68574 169.734219,63.07674 168.35216,63.25074 C168.006645,64.03374 168.956811,64.72974 169.561462,64.99074 C171.548172,66.03474 174.312292,65.77374 175.607974,67.94874 C176.299003,69.60174 176.126246,71.86374 175.003322,73.25574 C173.362127,72.99474 171.634551,72.82074 169.993355,73.34361 C170.425249,74.82174 170.857143,76.90974 169.820598,78.38787 C168.524917,80.21574 166.624585,80.99787 165.156146,82.56387 C163.169435,80.21574 158.936877,78.73587 159.973422,74.99574 L160.491694,73.60374 C159.109635,72.99474 157.036545,72.82074 155.481727,73.34361 C154.186047,72.03861 154.013289,69.42861 154.877076,67.68861 C156.69103,65.16474 160.318937,66.38361 162.13289,63.85974 L162.13289,63.33861 C160.750831,63.07674 159.109635,63.59874 158.07309,62.46861 C157.641196,61.68474 157.122924,60.81474 157.468438,59.77074 C157.209302,58.29174 160.318937,58.46574 158.677741,56.89974 C157.986711,56.02974 157.122924,55.24674 156,55.68174 C152.976744,56.72574 152.976744,61.51074 149.003322,60.20574 C148.48505,60.11874 148.053156,59.85861 147.707641,59.59674 C150.47176,55.42074 143.64784,52.28874 147.189369,48.11361 C149.089701,46.19874 151.508306,45.24087 154.272426,45.67674 C157.554817,46.19874 160.491694,48.72174 161.614618,51.94074 C162.305648,53.76861 162.392026,55.85574 162.737541,57.76974 L162.996678,57.68361 C163.774087,52.20174 161.096346,47.93874 158.677741,43.587 C155.481727,36.54 162.305648,31.66887 165.156146,26.10087 C167.833887,31.146 173.621263,35.40987 172.325581,41.847" id="Fill-96" fill="#FFF101"></path>
                        <path d="M170.770764,41.412 C168.438538,46.63374 164.89701,51.33174 165.760797,57.94374 L164.724252,57.94374 C165.328904,52.20174 162.910299,47.59074 160.232558,43.065 C157.468438,37.58487 162.737541,33.40887 165.156146,29.05887 C167.401993,33.06087 171.72093,36.366 170.770764,41.412" id="Fill-97" fill="#009949"></path>
                        <path d="M181.481727,48.63474 C182.518273,49.59174 182.604651,51.24474 182.259136,52.54974 C181.136212,54.37674 180.186047,56.29074 180.445183,58.55361 C177.9402,58.55361 177.681063,54.63861 175.003322,54.11574 C173.880398,53.68074 172.498339,54.02874 171.548172,54.63861 C170.511628,55.50861 169.820598,56.72574 169.475083,57.94374 C169.388704,54.72474 170.166113,51.50574 172.41196,49.15674 C174.744186,46.89474 178.976744,46.37361 181.481727,48.63474" id="Fill-98" fill="#009949"></path>
                        <path d="M158.936877,50.28861 C160.232558,52.54974 161.009967,54.98574 161.009967,57.76974 C160.491694,56.29074 158.936877,54.28974 157.036545,53.94174 C154.445183,53.76861 152.54485,56.29074 151.335548,58.29174 C150.817276,58.37874 150.47176,58.81374 149.86711,58.63974 C151.249169,54.72474 145.375415,52.11474 149.089701,48.54861 C150.644518,47.41674 152.631229,46.98174 154.704319,47.32974 C156.259136,47.93874 157.900332,48.80874 158.936877,50.28861" id="Fill-99" fill="#009949"></path>
                        <path d="M170.943522,59.68374 C171.461794,60.03174 171.461794,60.81474 171.116279,61.24974 L170.425249,61.59861 L159.627907,61.59861 C158.936877,61.33674 158.936877,60.55374 159.109635,60.03174 L159.541528,59.59674 L170.943522,59.68374" id="Fill-100" fill="#009949"></path>
                        <path d="M166.624585,63.33861 C166.970099,67.16574 171.289037,66.90474 173.880398,68.12361 C174.657807,68.99361 174.398671,70.47174 174.139535,71.51574 C171.893687,71.08074 169.734219,71.68974 167.747508,72.21174 C167.920266,73.77861 169.388704,75.34374 168.697675,77.08374 C167.833887,78.47574 166.451828,79.34574 165.242525,80.21574 C163.860465,79.25787 161.960133,78.21387 161.52824,76.47474 C161.269103,74.82174 162.305648,73.77861 162.737541,72.38574 C160.837209,71.77674 158.591362,71.08074 156.259136,71.51574 C155.913621,70.64574 155.827242,69.34074 156.345515,68.55861 C158.677741,66.73074 163.342193,67.42674 163.774087,63.33861 L166.624585,63.33861" id="Fill-101" fill="#009949"></path>
                    </g>
                </g>
            </g>
        </g>
    </g>
</svg>