<?xml version="1.0" encoding="UTF-8" standalone="no"?>
<!-- Created with Inkscape (http://www.inkscape.org/) -->

<svg
   xmlns:dc="http://purl.org/dc/elements/1.1/"
   xmlns:cc="http://creativecommons.org/ns#"
   xmlns:rdf="http://www.w3.org/1999/02/22-rdf-syntax-ns#"
   xmlns:svg="http://www.w3.org/2000/svg"
   xmlns="http://www.w3.org/2000/svg"
   xmlns:sodipodi="http://sodipodi.sourceforge.net/DTD/sodipodi-0.dtd"
   xmlns:inkscape="http://www.inkscape.org/namespaces/inkscape"
   id="svg2"
   version="1.1"
   inkscape:version="0.92.1 r15371"
   width = "100%"
   height = "100%"
   viewBox="0 0 185 151"
   xml:space="preserve"
   sodipodi:docname="celo4f.svg"><metadata
     id="metadata8"><rdf:RDF><cc:Work
         rdf:about=""><dc:format>image/svg+xml</dc:format><dc:type
           rdf:resource="http://purl.org/dc/dcmitype/StillImage" /><dc:title></dc:title></cc:Work></rdf:RDF></metadata><defs
     id="defs6" /><sodipodi:namedview
     pagecolor="#ffffff"
     bordercolor="#666666"
     borderopacity="1"
     objecttolerance="10"
     gridtolerance="10"
     guidetolerance="10"
     inkscape:pageopacity="0"
     inkscape:pageshadow="2"
     inkscape:window-width="1680"
     inkscape:window-height="991"
     id="namedview4"
     showgrid="false"
     inkscape:zoom="2.362863"
     inkscape:cx="18.678804"
     inkscape:cy="67.36934"
     inkscape:window-x="0"
     inkscape:window-y="0"
     inkscape:window-maximized="1"
     inkscape:current-layer="g10"
     showguides="true"
     inkscape:guide-bbox="true"
     fit-margin-top="0"
     fit-margin-left="0"
     fit-margin-right="0"
     fit-margin-bottom="0" /><g
     id="g10"
     inkscape:groupmode="layer"
     inkscape:label="ink_ext_XXXXXX"
     transform="matrix(1.25,0,0,-1.25,-1.2390627,150.5139)"><g
       id="g3004"><path
         d="M 1.622912,74.74336 C 1.4695787,75.314987 1.377504,75.904533 1.322496,76.502507 L 13.273387,64.568747 C 6.8112533,66.874133 2.796672,70.361707 1.622912,74.74336"
         style="fill:#2744a0;fill-opacity:1;fill-rule:nonzero;stroke:none;stroke-width:1.06666672"
         id="path14"
         inkscape:connector-curvature="0" /><path
         d="M 78.237547,34.3104 C 69.869973,31.904533 61.482453,30.412907 53.564587,29.818347 L 83.185813,0.23958293 93.701653,39.476267 C 89.046613,37.65376 83.909973,35.941653 78.237547,34.3104"
         style="fill:#ed1639;fill-opacity:1;fill-rule:nonzero;stroke:none;stroke-width:1.06666672"
         id="path16"
         inkscape:connector-curvature="0" /><path
         d="M 104.60331,83.249173 C 93.81248,76.2 80.6,70.136213 68.3104,66.602453 51.4096,61.742507 34.204587,60.237547 21.06336,62.460373 L 0.99125013,82.503787 112.43093,112.4544 104.60331,83.249173"
         style="fill:#ed1639;fill-opacity:1;fill-rule:nonzero;stroke:none;stroke-width:1.06666672"
         id="path18"
         inkscape:connector-curvature="0" /><path
         d="M 120.96427,62.11712 C 112.5216,51.788373 99,44.37088 77.151253,38.087893 54.865387,31.679573 32.629547,31.877547 20.50336,38.592107 c -4.26752,2.363306 -6.942507,5.34336 -7.950827,8.858346 L 6.160416,63.3088 c 0.240416,-0.145067 0.481248,-0.294187 0.72,-0.426667 13.082037,-7.244586 37.629984,-7.2976 62.538357,-0.13504 19.929174,5.730454 40.827627,17.330454 51.545497,28.51712 V 62.11712"
         style="fill:#2744a0;fill-opacity:1;fill-rule:nonzero;stroke:none;stroke-width:1.06666672"
         id="path20"
         inkscape:connector-curvature="0" /><path
         d="M 83.185813,108.6208 5.3487467,87.82624 C 13.36,99.260373 32.1696,110.50987 53.919573,116.76373 c 6.110827,1.7568 19.769174,3.96374 29.26624,3.6096 V 108.6208"
         style="fill:#2744a0;fill-opacity:1;fill-rule:nonzero;stroke:none;stroke-width:1.06666672"
         id="path22"
         inkscape:connector-curvature="0" /></g><g
       aria-label="cevi"
       transform="matrix(0,1,1,0,0,0)"
       style="font-style:normal;font-variant:normal;font-weight:bold;font-stretch:normal;font-size:12.80000019px;line-height:0%;font-family:Carbon;-inkscape-font-specification:'Carbon Bold';text-align:center;letter-spacing:0px;word-spacing:0px;writing-mode:lr-tb;text-anchor:middle;fill:#000000;fill-opacity:1;stroke:none;stroke-width:1.06666672"
       id="text2988"><path
         d="m 16.057863,133.23004 q -0.09134,0.0685 -1.50707,1.55274 -1.415732,1.48423 -1.598408,1.66691 -0.913375,-0.89054 -1.324394,-1.14172 -1.050382,-0.6622 -2.3747771,-0.6622 -1.9637577,0 -3.37949,1.41573 -1.4157323,1.41573 -1.4157323,3.448 0,1.94092 1.3928979,3.37949 1.4157323,1.43856 3.4023244,1.43856 2.1921021,0 3.7676751,-1.96376 0.137006,0.13701 1.529904,1.57558 1.415732,1.43856 1.552739,1.55274 -3.01414,3.26531 -6.8503181,3.26531 -3.8133435,0 -6.5306362,-2.60312 -2.8086302,-2.69445 -2.8086302,-6.6448 0,-3.95035 2.7629615,-6.64481 2.7172926,-2.67163 6.5763049,-2.67163 3.8361781,0 6.8046491,3.03698 z"
         style="font-size:23.38241768px;line-height:1.25;stroke-width:1.06666672"
         id="path17" /><path
         d="m 43.207956,134.6001 h -9.110923 v 2.94564 h 7.992038 v 3.88184 h -7.992038 v 3.03698 h 9.110923 v 3.88185 H 29.530155 v -17.62816 h 13.677801 z"
         style="font-size:23.38241768px;line-height:1.25;stroke-width:1.06666672"
         id="path19" /><path
         d="m 59.831391,130.71825 4.247197,10.70933 4.292865,-10.70933 h 4.977898 l -7.53535,17.62816 h -3.562165 l -7.398343,-17.62816 z"
         style="font-size:23.38241768px;line-height:1.25;stroke-width:1.06666672"
         id="path21" /><path
         d="m 91.411361,130.71825 v 17.62816 h -4.566879 v -17.62816 z"
         style="font-size:23.38241768px;line-height:1.25;stroke-width:1.06666672"
         id="path23" /></g></g></svg>
