<?xml version="1.0" encoding="UTF-8" standalone="no"?>
<svg width="440px" height="260px" viewBox="0 0 440 260" version="1.1" xmlns="http://www.w3.org/2000/svg" xmlns:xlink="http://www.w3.org/1999/xlink" xmlns:sketch="http://www.bohemiancoding.com/sketch/ns">
    <!-- Generator: Sketch 3.3 (11970) - http://www.bohemiancoding.com/sketch -->
    <title>slide03_02</title>
    <desc>Created with Sketch.</desc>
    <defs>
        <rect id="path-1" x="0" y="0" width="220" height="260"></rect>
    </defs>
    <g id="Page-1" stroke="none" stroke-width="1" fill="none" fill-rule="evenodd" sketch:type="MSPage">
        <g id="slide03_02" sketch:type="MSArtboardGroup">
            <g id="Group" sketch:type="MSLayerGroup" transform="translate(88.000000, 0.000000)">
                <path d="M1.5,56.7524272 L1.5,210.254944" id="Line" stroke="#D8D8D8" stroke-width="3" stroke-linecap="square" sketch:type="MSShapeGroup"></path>
                <path id="Line-decoration-1" d="M4.5,56.7524272 L-1.5,56.7524272" stroke="#D8D8D8" stroke-width="3" stroke-linecap="square"></path>
                <path id="Line-decoration-2" d="M4.5,210.254944 L-1.5,210.254944" stroke="#D8D8D8" stroke-width="3" stroke-linecap="square"></path>
                <path d="M27.7539683,31.5 L121.258192,31.5" id="Line" stroke="#D8D8D8" stroke-width="3" stroke-linecap="square" sketch:type="MSShapeGroup"></path>
                <path id="Line-decoration-1" d="M27.7539683,28.5 L27.7539683,34.5" stroke="#D8D8D8" stroke-width="3" stroke-linecap="square"></path>
                <path id="Line-decoration-2" d="M121.258192,28.5 L121.258192,34.5" stroke="#D8D8D8" stroke-width="3" stroke-linecap="square"></path>
                <g id="Mask-+-Shape" transform="translate(132.000000, 0.000000)">
                    <mask id="mask-2" sketch:name="Mask" fill="white">
                        <use xlink:href="#path-1"></use>
                    </mask>
                    <use id="Mask" fill="#F3F3F3" sketch:type="MSShapeGroup" xlink:href="#path-1"></use>
                    <path d="M12.2773571,65.4951592 L0.00405505574,76.8119396 L-12.2800605,65.4951592 C-30.3602023,48.8349469 -59.6647385,48.8349469 -77.7448803,65.4951592 C-98.0850399,84.2514737 -98.0850399,114.585224 -77.7448803,133.330678 L0.00405505574,205 L77.7529904,133.330678 C98.0823365,114.585224 98.0823365,84.2406131 77.7529904,65.4951592 C59.6728486,48.8349469 30.3574989,48.8349469 12.2773571,65.4951592 Z" id="Shape" fill="#474E5D" sketch:type="MSShapeGroup" mask="url(#mask-2)"></path>
                </g>
                <path d="M132,76.8119396 L119.71642,65.4951592 C101.637067,48.8349469 72.3338081,48.8349469 54.2544546,65.4951592 C33.9151818,84.2514737 33.9151818,114.585224 54.2544546,133.330678 L132,205 L132,76.8119396 Z" id="Shape-Copy" stroke="#474E5D" stroke-width="4" stroke-dasharray="6" fill="#FFFFFF" sketch:type="MSShapeGroup"></path>
            </g>
            <circle id="Oval-128" fill="#99BF62" sketch:type="MSShapeGroup" cx="338.5" cy="158.5" r="13.5"></circle>
            <circle id="Oval-128-Copy" fill="#50B8B7" sketch:type="MSShapeGroup" cx="376.5" cy="158.5" r="13.5"></circle>
            <circle id="Oval-128-Copy-2" fill="#474E5D" sketch:type="MSShapeGroup" cx="376.5" cy="196.5" r="13.5"></circle>
            <circle id="Oval-128-Copy-3" fill="#DC795B" sketch:type="MSShapeGroup" cx="338.5" cy="196.5" r="13.5"></circle>
        </g>
    </g>
</svg>