<?xml version="1.0" encoding="UTF-8" standalone="no"?>
<svg width="440px" height="260px" viewBox="0 0 440 260" version="1.1" xmlns="http://www.w3.org/2000/svg" xmlns:xlink="http://www.w3.org/1999/xlink" xmlns:sketch="http://www.bohemiancoding.com/sketch/ns">
    <!-- Generator: Sketch 3.3 (11970) - http://www.bohemiancoding.com/sketch -->
    <title>slide01_01</title>
    <desc>Created with Sketch.</desc>
    <defs>
        <rect id="path-1" x="0" y="0.5" width="50" height="50" rx="2"></rect>
        <rect id="path-3" x="0" y="0.5" width="50" height="50" rx="2"></rect>
        <rect id="path-5" x="0" y="0.5" width="50" height="50" rx="2"></rect>
        <rect id="path-7" x="0" y="0.5" width="50" height="50" rx="2"></rect>
        <rect id="path-9" x="0" y="0.5" width="50" height="50" rx="2"></rect>
    </defs>
    <g id="Page-1" stroke="none" stroke-width="1" fill="none" fill-rule="evenodd" sketch:type="MSPage">
        <g id="slide01_01" sketch:type="MSArtboardGroup">
            <rect id="Rectangle-175-Copy" fill="#D8D8D8" sketch:type="MSShapeGroup" x="109" y="129.9" width="2" height="15"></rect>
            <g id="Group" sketch:type="MSLayerGroup" transform="translate(55.000000, 14.000000)">
                <g id="Rectangle-162-+-thumbnail-copy-2" transform="translate(55.000000, 20.900000)">
                    <rect id="Rectangle-162" fill="#DC795B" sketch:type="MSShapeGroup" x="0" y="0" width="80" height="80" rx="6"></rect>
                    <g id="thumbnail-copy-2" transform="translate(15.000000, 14.500000)">
                        <mask id="mask-2" sketch:name="Mask" fill="white">
                            <use xlink:href="#path-1"></use>
                        </mask>
                        <use id="Mask" fill="#FFFFFF" sketch:type="MSShapeGroup" xlink:href="#path-1"></use>
                        <path d="M47,50.5 C40.5055556,46.9498623 30.6111111,44.7307457 30,39.5 C30.6111111,36.500102 32.6055556,37.5099969 34,32.5 C33.8555556,29.5093849 35.6277778,31.8153116 36,26.5 C35.9611111,24.3308681 34.9944444,23.797868 35,24.5 C34.9944444,23.797868 35.4833333,20.6447516 36,18.5 C35.8777778,15.6682138 34.45,8.11083342 29,6.5 C27.55,5.38972763 26.8555556,5.82173824 30,4.5 C23.1055556,3.80194838 21.4944444,7.45440171 17,10.5 C14.6833333,12.4982658 13.8333333,16.2292666 14,18.5 C14.1944444,20.6447516 14.6833333,23.8034785 15,24.5 C14.6833333,23.8034785 13.7111111,24.3308681 14,26.5 C14.05,31.8153116 15.8222222,29.5093849 16,32.5 C17.0611111,37.5099969 19.0666667,36.500102 19,39.5 C19.0666667,44.7307457 9.17222222,46.9498623 2,50.5 C1.48888889,50.2937366 0.677777778,50.7706314 0,51.5 L0,0.5 L50,0.5 L50,51.5 C49.2833333,50.9277262 48.3722222,50.372284 47,50.5 Z" id="Path-Copy-2" fill="#525A6B" sketch:type="MSShapeGroup" mask="url(#mask-2)"></path>
                    </g>
                </g>
                <g id="Rectangle-162-+-thumbnail-copy-4" transform="translate(110.000000, 130.900000)">
                    <rect id="Rectangle-162" fill="#D8D8D8" sketch:type="MSShapeGroup" x="0" y="0" width="80" height="80" rx="6"></rect>
                    <g id="thumbnail-copy-2" transform="translate(15.000000, 14.500000)">
                        <mask id="mask-4" sketch:name="Mask" fill="white">
                            <use xlink:href="#path-3"></use>
                        </mask>
                        <use id="Mask" fill="#FFFFFF" sketch:type="MSShapeGroup" xlink:href="#path-3"></use>
                        <path d="M47,50.5 C40.5055556,46.9498623 30.6111111,44.7307457 30,39.5 C30.6111111,36.500102 32.6055556,37.5099969 34,32.5 C33.8555556,29.5093849 35.6277778,31.8153116 36,26.5 C35.9611111,24.3308681 34.9944444,23.797868 35,24.5 C34.9944444,23.797868 35.4833333,20.6447516 36,18.5 C35.8777778,15.6682138 34.45,8.11083342 29,6.5 C27.55,5.38972763 26.8555556,5.82173824 30,4.5 C23.1055556,3.80194838 21.4944444,7.45440171 17,10.5 C14.6833333,12.4982658 13.8333333,16.2292666 14,18.5 C14.1944444,20.6447516 14.6833333,23.8034785 15,24.5 C14.6833333,23.8034785 13.7111111,24.3308681 14,26.5 C14.05,31.8153116 15.8222222,29.5093849 16,32.5 C17.0611111,37.5099969 19.0666667,36.500102 19,39.5 C19.0666667,44.7307457 9.17222222,46.9498623 2,50.5 C1.48888889,50.2937366 0.677777778,50.7706314 0,51.5 L0,0.5 L50,0.5 L50,51.5 C49.2833333,50.9277262 48.3722222,50.372284 47,50.5 Z" id="Path-Copy-2" fill="#525A6B" sketch:type="MSShapeGroup" mask="url(#mask-4)"></path>
                    </g>
                </g>
                <g id="Rectangle-162-+-thumbnail-copy-6" transform="translate(0.000000, 130.900000)">
                    <rect id="Rectangle-162" fill="#D8D8D8" sketch:type="MSShapeGroup" x="0" y="0" width="80" height="80" rx="6"></rect>
                    <g id="thumbnail-copy-2" transform="translate(15.000000, 14.500000)">
                        <mask id="mask-6" sketch:name="Mask" fill="white">
                            <use xlink:href="#path-5"></use>
                        </mask>
                        <use id="Mask" fill="#FFFFFF" sketch:type="MSShapeGroup" xlink:href="#path-5"></use>
                        <path d="M47,50.5 C40.5055556,46.9498623 30.6111111,44.7307457 30,39.5 C30.6111111,36.500102 32.6055556,37.5099969 34,32.5 C33.8555556,29.5093849 35.6277778,31.8153116 36,26.5 C35.9611111,24.3308681 34.9944444,23.797868 35,24.5 C34.9944444,23.797868 35.4833333,20.6447516 36,18.5 C35.8777778,15.6682138 34.45,8.11083342 29,6.5 C27.55,5.38972763 26.8555556,5.82173824 30,4.5 C23.1055556,3.80194838 21.4944444,7.45440171 17,10.5 C14.6833333,12.4982658 13.8333333,16.2292666 14,18.5 C14.1944444,20.6447516 14.6833333,23.8034785 15,24.5 C14.6833333,23.8034785 13.7111111,24.3308681 14,26.5 C14.05,31.8153116 15.8222222,29.5093849 16,32.5 C17.0611111,37.5099969 19.0666667,36.500102 19,39.5 C19.0666667,44.7307457 9.17222222,46.9498623 2,50.5 C1.48888889,50.2937366 0.677777778,50.7706314 0,51.5 L0,0.5 L50,0.5 L50,51.5 C49.2833333,50.9277262 48.3722222,50.372284 47,50.5 Z" id="Path-Copy-2" fill="#525A6B" sketch:type="MSShapeGroup" mask="url(#mask-6)"></path>
                    </g>
                </g>
                <g id="Rectangle-162-+-thumbnail-copy-8" transform="translate(165.000000, 20.900000)" fill="#D8D8D8" sketch:type="MSShapeGroup" fill-opacity="0.3">
                    <rect id="Rectangle-162" x="0" y="0" width="80" height="80" rx="6"></rect>
                </g>
                <g id="Rectangle-162-+-thumbnail-copy-7" transform="translate(185.000000, 10.900000)" fill="#D8D8D8" sketch:type="MSShapeGroup" fill-opacity="0.5">
                    <rect id="Rectangle-162" x="0" y="0" width="80" height="80" rx="6"></rect>
                </g>
                <g id="Rectangle-162-+-thumbnail-copy-3" transform="translate(205.000000, 0.900000)">
                    <rect id="Rectangle-162" fill="#99BF62" sketch:type="MSShapeGroup" x="0" y="0" width="80" height="80" rx="6"></rect>
                    <g id="thumbnail-copy-2" transform="translate(15.000000, 14.500000)">
                        <mask id="mask-8" sketch:name="Mask" fill="white">
                            <use xlink:href="#path-7"></use>
                        </mask>
                        <use id="Mask" fill="#FFFFFF" sketch:type="MSShapeGroup" xlink:href="#path-7"></use>
                        <path d="M47,50.5 C40.5055556,46.9498623 30.6111111,44.7307457 30,39.5 C30.6111111,36.500102 32.6055556,37.5099969 34,32.5 C33.8555556,29.5093849 35.6277778,31.8153116 36,26.5 C35.9611111,24.3308681 34.9944444,23.797868 35,24.5 C34.9944444,23.797868 35.4833333,20.6447516 36,18.5 C35.8777778,15.6682138 34.45,8.11083342 29,6.5 C27.55,5.38972763 26.8555556,5.82173824 30,4.5 C23.1055556,3.80194838 21.4944444,7.45440171 17,10.5 C14.6833333,12.4982658 13.8333333,16.2292666 14,18.5 C14.1944444,20.6447516 14.6833333,23.8034785 15,24.5 C14.6833333,23.8034785 13.7111111,24.3308681 14,26.5 C14.05,31.8153116 15.8222222,29.5093849 16,32.5 C17.0611111,37.5099969 19.0666667,36.500102 19,39.5 C19.0666667,44.7307457 9.17222222,46.9498623 2,50.5 C1.48888889,50.2937366 0.677777778,50.7706314 0,51.5 L0,0.5 L50,0.5 L50,51.5 C49.2833333,50.9277262 48.3722222,50.372284 47,50.5 Z" id="Path-Copy-2" fill="#525A6B" sketch:type="MSShapeGroup" mask="url(#mask-8)"></path>
                    </g>
                </g>
                <rect id="Rectangle-175" fill="#D8D8D8" sketch:type="MSShapeGroup" x="94" y="100.9" width="2" height="15"></rect>
                <path d="M204,100.9 L206,100.9 L206,115.9 L204,115.9 L204,100.9 Z M204,102.9 L206,102.9 L206,104.9 L204,104.9 L204,102.9 Z M204,106.9 L206,106.9 L206,108.9 L204,108.9 L204,106.9 Z M204,110.9 L206,110.9 L206,112.9 L204,112.9 L204,110.9 Z" id="Rectangle-175-Copy-4" fill="#D8D8D8" sketch:type="MSShapeGroup"></path>
                <rect id="Rectangle-175-Copy-2" fill="#D8D8D8" sketch:type="MSShapeGroup" x="149" y="115.9" width="2" height="15"></rect>
                <rect id="Rectangle-175-Copy-3" fill="#D8D8D8" sketch:type="MSShapeGroup" x="259" y="115.9" width="2" height="15"></rect>
                <rect id="Rectangle-176" fill="#D8D8D8" sketch:type="MSShapeGroup" x="54" y="115" width="207" height="2"></rect>
                <path d="M296.8542,60.4835499 C315.227924,65.496727 328.734972,82.3050141 328.734972,102.268041 C328.734972,122.893846 314.316161,140.151957 295.008385,144.512529 L295.008385,144.512529 L295.008385,141.362345 C312.607573,137.063887 325.668918,121.191285 325.668918,102.268041 C325.668918,83.6659904 313.047201,68.0118994 295.900578,63.402578 L295.483882,74.9827634 L279.265028,57.7310208 L301.936839,50.9 L296.854209,60.4835525 L296.8542,60.4835499 Z" id="Oval-116" fill="#525A6B" sketch:type="MSShapeGroup"></path>
                <g id="Rectangle-162-+-thumbnail-copy-5" transform="translate(220.000000, 130.900000)">
                    <rect id="Rectangle-162" fill="#50B8B7" sketch:type="MSShapeGroup" x="0" y="0" width="80" height="80" rx="6"></rect>
                    <g id="thumbnail-copy-2" transform="translate(15.000000, 14.500000)">
                        <mask id="mask-10" sketch:name="Mask" fill="white">
                            <use xlink:href="#path-9"></use>
                        </mask>
                        <use id="Mask" fill="#FFFFFF" sketch:type="MSShapeGroup" xlink:href="#path-9"></use>
                        <path d="M47,50.5 C40.5055556,46.9498623 30.6111111,44.7307457 30,39.5 C30.6111111,36.500102 32.6055556,37.5099969 34,32.5 C33.8555556,29.5093849 35.6277778,31.8153116 36,26.5 C35.9611111,24.3308681 34.9944444,23.797868 35,24.5 C34.9944444,23.797868 35.4833333,20.6447516 36,18.5 C35.8777778,15.6682138 34.45,8.11083342 29,6.5 C27.55,5.38972763 26.8555556,5.82173824 30,4.5 C23.1055556,3.80194838 21.4944444,7.45440171 17,10.5 C14.6833333,12.4982658 13.8333333,16.2292666 14,18.5 C14.1944444,20.6447516 14.6833333,23.8034785 15,24.5 C14.6833333,23.8034785 13.7111111,24.3308681 14,26.5 C14.05,31.8153116 15.8222222,29.5093849 16,32.5 C17.0611111,37.5099969 19.0666667,36.500102 19,39.5 C19.0666667,44.7307457 9.17222222,46.9498623 2,50.5 C1.48888889,50.2937366 0.677777778,50.7706314 0,51.5 L0,0.5 L50,0.5 L50,51.5 C49.2833333,50.9277262 48.3722222,50.372284 47,50.5 Z" id="Path-Copy-2" fill="#525A6B" sketch:type="MSShapeGroup" mask="url(#mask-10)"></path>
                    </g>
                </g>
            </g>
        </g>
    </g>
</svg>