<?xml version="1.0" encoding="UTF-8" standalone="no"?>
<svg width="244px" height="263px" viewBox="0 0 244 263" version="1.1" xmlns="http://www.w3.org/2000/svg" xmlns:xlink="http://www.w3.org/1999/xlink" xmlns:sketch="http://www.bohemiancoding.com/sketch/ns">
    <title>info-contact</title>
    <description>Created with Sketch (http://www.bohemiancoding.com/sketch)</description>
    <defs></defs>
    <g id="Page 1" stroke="none" stroke-width="1" fill="none" fill-rule="evenodd">
        <g id="Artboard 1" transform="translate(-940.000000, -3072.000000)">
            <g id="Group" transform="translate(940.000000, 3072.000000)">
                <g transform="translate(0.000000, 0.185414)">
                    <g transform="translate(0.000000, 0.112603)">
                        <path d="M103,121.790952 C98.5230664,121.790952 94.1128447,121.622084 89.7867477,121.294547 L101.474447,147.218751 L57.0557085,115.412038 C23.2311091,105.428795 0,84.7660865 0,60.8954758 C0,27.2638315 46.114668,0 103,0 C159.885332,0 206,27.2638315 206,60.8954758 C206,94.5271201 159.885332,121.790952 103,121.790952 Z M103,121.790952" id="Oval 19" fill="#FFFFFF"></path>
                        <path d="M65.856,48 C65.784,48 65.688,48 65.616,47.976 L65.544,47.976 C65.472,47.952 65.424,47.928 65.376,47.928 C65.352,47.904 65.352,47.904 65.328,47.904 C65.256,47.88 65.16,47.808 65.112,47.76 L65.088,47.76 C65.016,47.712 64.992,47.664 64.92,47.64 C64.896,47.616 64.896,47.616 64.872,47.568 C64.824,47.52 64.8,47.472 64.752,47.424 L64.752,47.4 C64.704,47.352 64.68,47.256 64.632,47.184 L58.728,33.192 C58.464,32.544 58.752,31.752 59.448,31.488 C60.096,31.2 60.888,31.512 61.152,32.184 L65.856,43.296 L68.952,35.928 C69.168,35.4 69.672,35.112 70.2,35.112 C70.704,35.112 71.208,35.4 71.448,35.928 L74.544,43.296 L79.224,32.184 C79.512,31.512 80.28,31.2 80.976,31.488 C81.624,31.752 81.936,32.544 81.648,33.192 L75.768,47.184 C75.744,47.256 75.696,47.352 75.648,47.4 L75.624,47.424 C75.6,47.472 75.552,47.52 75.504,47.568 C75.504,47.616 75.48,47.616 75.48,47.64 C75.432,47.664 75.36,47.712 75.312,47.76 L75.288,47.76 C75.216,47.808 75.168,47.88 75.072,47.904 L75.048,47.904 C75.048,47.904 75.024,47.904 75.024,47.928 C74.976,47.928 74.904,47.952 74.832,47.976 L74.784,47.976 C74.712,48 74.64,48 74.544,48 C74.472,48 74.4,48 74.328,47.976 L74.256,47.976 C74.184,47.952 74.136,47.928 74.088,47.928 C74.064,47.904 74.064,47.904 74.04,47.904 C73.944,47.88 73.872,47.808 73.824,47.76 L73.8,47.76 C73.728,47.712 73.68,47.664 73.632,47.64 C73.608,47.616 73.608,47.616 73.584,47.568 C73.56,47.52 73.512,47.472 73.488,47.424 C73.44,47.424 73.44,47.4 73.44,47.4 C73.392,47.352 73.368,47.256 73.344,47.184 L70.2,39.744 L67.056,47.184 C67.032,47.256 66.984,47.352 66.96,47.4 C66.936,47.4 66.936,47.424 66.936,47.424 L66.792,47.568 C66.792,47.616 66.768,47.616 66.768,47.64 C66.72,47.664 66.672,47.712 66.624,47.76 L66.576,47.76 C66.504,47.808 66.432,47.88 66.384,47.904 L66.36,47.904 C66.36,47.904 66.336,47.904 66.336,47.928 C66.24,47.928 66.192,47.952 66.144,47.976 L66.072,47.976 C66,48 65.928,48 65.856,48 Z M89.16,48 C85.872,47.976 83.328,45.264 83.304,42 C83.328,38.736 85.872,36 89.16,36 C92.28,36 94.752,38.328 94.944,41.568 L94.944,41.688 C94.944,41.736 94.944,41.856 94.92,41.904 C94.848,42.48 94.344,42.864 93.672,42.864 L86.04,42.864 C86.16,43.416 86.424,44.04 86.856,44.448 C87.36,45.024 88.32,45.456 89.16,45.528 C90.024,45.6 91.056,45.384 91.656,44.928 C92.16,44.4 93.144,44.472 93.456,44.856 C93.768,45.192 94.008,45.912 93.456,46.416 C92.28,47.496 90.864,48 89.16,48 Z M89.16,38.28 C87.12,38.376 86.112,39.84 85.92,40.824 L92.712,40.824 C92.472,39.864 91.248,38.448 89.16,38.28 Z M100.08,36.024 C100.824,36.024 101.376,36.576 101.376,37.344 L101.376,46.704 C101.376,47.424 100.824,48 100.08,48 C99.36,48 98.784,47.424 98.784,46.704 L98.784,37.344 C98.784,36.576 99.36,36.024 100.08,36.024 Z M101.376,32.496 L101.376,33 C101.376,33.72 100.824,34.32 100.08,34.32 C99.36,34.32 98.784,33.72 98.784,33 L98.784,32.496 C98.784,31.776 99.36,31.2 100.08,31.2 C100.824,31.2 101.376,31.776 101.376,32.496 Z M109.56,36 C110.28,36 110.904,36.576 110.904,37.32 C110.904,38.04 110.28,38.64 109.56,38.64 L108.96,38.64 L108.96,45.336 C109.704,45.336 110.28,45.936 110.28,46.68 C110.28,47.424 109.704,48 108.96,48 C107.496,48 106.296,46.8 106.296,45.336 L106.296,38.64 L105.6,38.64 C104.856,38.64 104.28,38.04 104.28,37.32 C104.28,36.576 104.856,36 105.6,36 L106.296,36 L106.296,32.52 C106.296,31.776 106.896,31.2 107.64,31.2 C108.384,31.2 108.96,31.776 108.96,32.52 L108.96,36 Z M119.16,48 C115.872,47.976 113.328,45.264 113.304,42 C113.328,38.736 115.872,36 119.16,36 C122.28,36 124.752,38.328 124.944,41.568 L124.944,41.688 C124.944,41.736 124.944,41.856 124.92,41.904 C124.848,42.48 124.344,42.864 123.672,42.864 L116.04,42.864 C116.16,43.416 116.424,44.04 116.856,44.448 C117.36,45.024 118.32,45.456 119.16,45.528 C120.024,45.6 121.056,45.384 121.656,44.928 C122.16,44.4 123.144,44.472 123.456,44.856 C123.768,45.192 124.008,45.912 123.456,46.416 C122.28,47.496 120.864,48 119.16,48 Z M119.16,38.28 C117.12,38.376 116.112,39.84 115.92,40.824 L122.712,40.824 C122.472,39.864 121.248,38.448 119.16,38.28 Z M134.376,36.024 C135.096,36.024 135.648,36.576 135.648,37.272 C135.648,37.944 135.096,38.544 134.376,38.544 C133.824,38.544 133.344,38.688 132.936,39 C132.48,39.288 132.12,39.696 131.832,40.152 C131.256,40.92 130.968,41.832 130.848,42.168 L130.848,46.728 C130.848,47.424 130.248,48 129.528,48 C128.832,48 128.256,47.424 128.256,46.728 L128.256,37.272 C128.256,36.576 128.832,36.024 129.528,36.024 C130.248,36.024 130.848,36.576 130.848,37.272 L130.848,37.44 C130.992,37.272 131.184,37.08 131.352,36.96 C132.144,36.432 133.176,36 134.376,36.024 Z M142.608,48 C139.32,47.976 136.776,45.264 136.752,42 C136.776,38.736 139.32,36 142.608,36 C145.728,36 148.2,38.328 148.392,41.568 L148.392,41.688 C148.392,41.736 148.392,41.856 148.368,41.904 C148.296,42.48 147.792,42.864 147.12,42.864 L139.488,42.864 C139.608,43.416 139.872,44.04 140.304,44.448 C140.808,45.024 141.768,45.456 142.608,45.528 C143.472,45.6 144.504,45.384 145.104,44.928 C145.608,44.4 146.592,44.472 146.904,44.856 C147.216,45.192 147.456,45.912 146.904,46.416 C145.728,47.496 144.312,48 142.608,48 Z M142.608,38.28 C140.568,38.376 139.56,39.84 139.368,40.824 L146.16,40.824 C145.92,39.864 144.696,38.448 142.608,38.28 Z M15.84,71.68 L15.84,57.52 C15.84,56.776 16.416,56.2 17.16,56.2 C17.88,56.2 18.504,56.776 18.504,57.52 L18.504,71.68 C18.504,72.424 17.88,73 17.16,73 C16.416,73 15.84,72.424 15.84,71.68 Z M27.72,61 C30.504,61 32.736,63.28 32.736,65.992 L32.736,71.728 C32.736,72.424 32.184,73 31.488,73 C30.816,73 30.216,72.424 30.216,71.728 L30.216,65.992 C30.216,64.648 29.088,63.568 27.72,63.568 C26.376,63.568 25.32,64.648 25.32,65.992 L25.32,71.728 C25.32,71.8 25.32,71.872 25.272,71.968 C25.152,72.544 24.624,73 24,73 C23.28,73 22.728,72.424 22.728,71.728 L22.728,65.992 L22.728,62.272 C22.728,61.576 23.28,61 24,61 C24.504,61 24.96,61.288 25.176,61.744 C25.896,61.288 26.784,61 27.72,61 Z M41.592,58.984 C41.568,58.984 41.376,59.32 41.376,60.208 L41.376,60.544 L42.096,60.544 C42.816,60.544 43.416,61.12 43.416,61.864 C43.416,62.584 42.816,63.184 42.096,63.184 L41.376,63.184 L41.376,71.656 C41.376,72.376 40.8,72.976 40.056,72.976 C39.312,72.976 38.736,72.376 38.736,71.656 L38.736,63.184 L38.112,63.184 C37.368,63.184 36.768,62.584 36.768,61.864 C36.768,61.12 37.368,60.544 38.112,60.544 L38.736,60.544 L38.736,60.208 C38.736,59.32 38.832,58.552 39.192,57.856 C39.528,57.136 40.2,56.584 40.92,56.368 C41.4,56.224 41.856,56.176 42.36,56.176 C43.08,56.176 43.68,56.776 43.68,57.496 C43.68,58.24 43.08,58.84 42.36,58.84 C42.048,58.84 41.832,58.864 41.736,58.912 C41.64,58.936 41.616,58.96 41.592,58.984 Z M51.072,73.072 C49.416,73.072 48.024,72.376 46.944,71.248 C45.912,70.192 45.288,68.704 45.288,67.024 C45.288,65.392 45.912,63.976 46.944,62.824 C48.024,61.696 49.416,61 51.072,61 C52.656,61 54.096,61.696 55.08,62.824 C56.16,63.976 56.76,65.392 56.76,67.024 C56.76,68.704 56.16,70.192 55.08,71.248 C54.096,72.376 52.656,73.072 51.072,73.072 Z M48.768,64.528 C48.216,65.176 47.904,66.04 47.904,67.024 C47.904,68.056 48.216,68.896 48.768,69.568 C49.368,70.144 50.16,70.456 51.072,70.456 C51.912,70.456 52.68,70.144 53.28,69.568 C53.88,68.896 54.216,68.056 54.216,67.024 C54.216,66.04 53.88,65.176 53.28,64.528 C52.68,64 51.912,63.616 51.072,63.616 C50.16,63.616 49.368,64 48.768,64.528 Z M66.48,61.024 C67.2,61.024 67.752,61.576 67.752,62.272 C67.752,62.944 67.2,63.544 66.48,63.544 C65.928,63.544 65.448,63.688 65.04,64 C64.584,64.288 64.224,64.696 63.936,65.152 C63.36,65.92 63.072,66.832 62.952,67.168 L62.952,71.728 C62.952,72.424 62.352,73 61.632,73 C60.936,73 60.36,72.424 60.36,71.728 L60.36,62.272 C60.36,61.576 60.936,61.024 61.632,61.024 C62.352,61.024 62.952,61.576 62.952,62.272 L62.952,62.44 C63.096,62.272 63.288,62.08 63.456,61.96 C64.248,61.432 65.28,61 66.48,61.024 Z M79.656,73 C78.984,73 78.36,72.424 78.36,71.728 L78.36,66.04 L78.36,65.968 C78.336,64.648 77.232,63.568 75.888,63.568 C74.568,63.568 73.464,64.672 73.464,66.04 L73.464,71.728 C73.464,71.776 73.44,71.848 73.44,71.896 L73.44,71.968 C73.416,72.016 73.416,72.064 73.368,72.112 L73.368,72.232 C73.152,72.664 72.672,73 72.168,73 C72.072,73 72,72.976 71.928,72.976 C71.352,72.832 70.896,72.352 70.896,71.728 L70.896,66.04 L70.896,66.016 L70.896,62.296 C70.896,61.552 71.472,61 72.168,61 C72.672,61 73.128,61.264 73.32,61.72 C74.088,61.264 74.976,61 75.888,61 C77.4,61 78.744,61.624 79.656,62.656 C80.544,61.624 81.912,61 83.424,61 C86.184,61 88.416,63.256 88.416,66.04 L88.416,71.728 C88.416,72.424 87.84,73 87.144,73 C86.448,73 85.848,72.424 85.848,71.728 L85.848,66.04 C85.848,64.672 84.744,63.568 83.424,63.568 C82.056,63.568 80.976,64.648 80.928,65.968 L80.928,66.04 L80.928,71.728 C80.928,72.424 80.352,73 79.656,73 Z M103.872,62.296 L103.872,67.024 L103.872,71.728 C103.872,72.424 103.296,73 102.6,73 C101.976,73 101.496,72.544 101.352,71.968 C100.44,72.616 99.36,73 98.16,73 C96.528,73 95.112,72.328 94.08,71.248 C93.048,70.144 92.448,68.656 92.448,67.024 C92.448,65.368 93.048,63.88 94.08,62.8 C95.112,61.696 96.528,61 98.16,61 C99.36,61 100.44,61.408 101.352,62.056 C101.496,61.456 101.976,61 102.6,61 C103.296,61 103.872,61.576 103.872,62.296 Z M100.392,69.496 C100.968,68.872 101.328,68.008 101.328,67.024 C101.328,66.016 100.968,65.152 100.392,64.552 C99.816,63.904 99,63.568 98.16,63.568 C97.296,63.568 96.48,63.904 95.928,64.552 C95.352,65.152 95.016,66.016 95.016,67.024 C95.016,68.008 95.352,68.872 95.928,69.496 C96.48,70.096 97.296,70.432 98.16,70.432 C99,70.432 99.816,70.096 100.392,69.496 Z M112.632,61 C113.352,61 113.976,61.576 113.976,62.32 C113.976,63.04 113.352,63.64 112.632,63.64 L112.032,63.64 L112.032,70.336 C112.776,70.336 113.352,70.936 113.352,71.68 C113.352,72.424 112.776,73 112.032,73 C110.568,73 109.368,71.8 109.368,70.336 L109.368,63.64 L108.672,63.64 C107.928,63.64 107.352,63.04 107.352,62.32 C107.352,61.576 107.928,61 108.672,61 L109.368,61 L109.368,57.52 C109.368,56.776 109.968,56.2 110.712,56.2 C111.456,56.2 112.032,56.776 112.032,57.52 L112.032,61 Z M119.496,61.024 C120.24,61.024 120.792,61.576 120.792,62.344 L120.792,71.704 C120.792,72.424 120.24,73 119.496,73 C118.776,73 118.2,72.424 118.2,71.704 L118.2,62.344 C118.2,61.576 118.776,61.024 119.496,61.024 Z M120.792,57.496 L120.792,58 C120.792,58.72 120.24,59.32 119.496,59.32 C118.776,59.32 118.2,58.72 118.2,58 L118.2,57.496 C118.2,56.776 118.776,56.2 119.496,56.2 C120.24,56.2 120.792,56.776 120.792,57.496 Z M130.152,73.072 C128.496,73.072 127.104,72.376 126.024,71.248 C124.992,70.192 124.368,68.704 124.368,67.024 C124.368,65.392 124.992,63.976 126.024,62.824 C127.104,61.696 128.496,61 130.152,61 C131.736,61 133.176,61.696 134.16,62.824 C135.24,63.976 135.84,65.392 135.84,67.024 C135.84,68.704 135.24,70.192 134.16,71.248 C133.176,72.376 131.736,73.072 130.152,73.072 Z M127.848,64.528 C127.296,65.176 126.984,66.04 126.984,67.024 C126.984,68.056 127.296,68.896 127.848,69.568 C128.448,70.144 129.24,70.456 130.152,70.456 C130.992,70.456 131.76,70.144 132.36,69.568 C132.96,68.896 133.296,68.056 133.296,67.024 C133.296,66.04 132.96,65.176 132.36,64.528 C131.76,64 130.992,63.616 130.152,63.616 C129.24,63.616 128.448,64 127.848,64.528 Z M144.912,61 C147.696,61 149.928,63.28 149.928,65.992 L149.928,71.728 C149.928,72.424 149.376,73 148.68,73 C148.008,73 147.408,72.424 147.408,71.728 L147.408,65.992 C147.408,64.648 146.28,63.568 144.912,63.568 C143.568,63.568 142.512,64.648 142.512,65.992 L142.512,71.728 C142.512,71.8 142.512,71.872 142.464,71.968 C142.344,72.544 141.816,73 141.192,73 C140.472,73 139.92,72.424 139.92,71.728 L139.92,65.992 L139.92,62.272 C139.92,61.576 140.472,61 141.192,61 C141.696,61 142.152,61.288 142.368,61.744 C143.088,61.288 143.976,61 144.912,61 Z M159.648,73 C156.36,72.976 153.816,70.264 153.792,67 C153.816,63.736 156.36,61 159.648,61 C162.768,61 165.24,63.328 165.432,66.568 L165.432,66.688 C165.432,66.736 165.432,66.856 165.408,66.904 C165.336,67.48 164.832,67.864 164.16,67.864 L156.528,67.864 C156.648,68.416 156.912,69.04 157.344,69.448 C157.848,70.024 158.808,70.456 159.648,70.528 C160.512,70.6 161.544,70.384 162.144,69.928 C162.648,69.4 163.632,69.472 163.944,69.856 C164.256,70.192 164.496,70.912 163.944,71.416 C162.768,72.496 161.352,73 159.648,73 Z M159.648,63.28 C157.608,63.376 156.6,64.84 156.408,65.824 L163.2,65.824 C162.96,64.864 161.736,63.448 159.648,63.28 Z M174.24,61 C177.024,61 179.256,63.28 179.256,65.992 L179.256,71.728 C179.256,72.424 178.704,73 178.008,73 C177.336,73 176.736,72.424 176.736,71.728 L176.736,65.992 C176.736,64.648 175.608,63.568 174.24,63.568 C172.896,63.568 171.84,64.648 171.84,65.992 L171.84,71.728 C171.84,71.8 171.84,71.872 171.792,71.968 C171.672,72.544 171.144,73 170.52,73 C169.8,73 169.248,72.424 169.248,71.728 L169.248,65.992 L169.248,62.272 C169.248,61.576 169.8,61 170.52,61 C171.024,61 171.48,61.288 171.696,61.744 C172.416,61.288 173.304,61 174.24,61 Z M186.576,70.216 C187.248,70.216 187.752,70.744 187.752,71.392 L187.752,71.824 C187.752,72.496 187.248,73 186.576,73 C185.952,73 185.4,72.496 185.4,71.824 L185.4,71.392 C185.4,70.744 185.952,70.216 186.576,70.216 Z M191.64,61.24 C191.64,63.616 189.984,65.608 187.752,66.136 L187.752,67.696 C187.752,68.368 187.248,68.872 186.576,68.872 C185.952,68.872 185.4,68.368 185.4,67.696 L185.4,65.2 C185.4,65.176 185.424,65.176 185.424,65.152 C185.4,65.128 185.4,65.128 185.4,65.104 C185.4,64.48 185.952,63.928 186.576,63.928 C188.088,63.928 189.312,62.728 189.312,61.24 C189.312,59.728 188.088,58.552 186.576,58.552 C185.592,58.552 184.728,59.08 184.272,59.872 C183.936,60.448 183.216,60.64 182.64,60.304 C182.088,59.968 181.896,59.272 182.232,58.696 C183.096,57.208 184.728,56.2 186.576,56.2 C189.36,56.2 191.64,58.456 191.64,61.24 Z M191.64,61.24" id="Weitere Informatione" fill="#474E5D"></path>
                    </g>
                    <g transform="translate(115.000000, 94.112603)">
                        <path d="M64,139 C105.026869,139 124,119.925948 124,78.6808511 C124,37.4357539 105.026869,4 64,4 C22.9731308,4 4,37.4357539 4,78.6808511 C4,119.925948 22.9731308,139 64,139 Z M64,139" id="Oval 2 copy" fill="#6F4073" transform="translate(64.000000, 71.500000) rotate(-357.000000) translate(-64.000000, -71.500000) "></path>
                        <path d="M42.0313078,69.5505386 C40.5243738,73.0036675 38.0241014,75.6175559 34.4533846,77.7547435 C34.0725295,77.9605049 33.6754188,78.0785039 33.2512463,78.0785039 C32.4310408,78.0785039 31.6936166,77.6566665 31.3349812,76.9564966 C31.1259841,76.5906579 31.0020557,76.2071956 31.0020557,75.8082078 C31.0020557,75.0058692 31.4637856,74.2902453 32.2000504,73.932626 C34.7557595,72.6168509 36.786294,70.5424859 37.9133253,68.1939522 C39.2498951,65.4499822 39.7101782,63.2310508 39.7101782,59.0374619 C39.7101782,57.7999504 40.7423444,57.0785039 41.9593688,57.0785039 C43.1285226,57.0785039 44.1445291,57.8235809 44.1445291,59.0374619 C44.1445291,63.1956171 44.6033153,65.2999871 45.9934133,67.9831779 C47.1654702,70.2627606 49.4033139,72.5017747 51.9054781,73.8570246 C52.6361697,74.2123128 53.0020557,74.9387654 53.0020557,75.7044285 C53.0020557,76.1138149 52.8792182,76.5264809 52.6691302,76.894229 L52.6148654,76.9807755 C52.1747485,77.622777 51.5045435,77.9747246 50.7528651,77.9747246 C50.3318896,77.9747246 49.9075418,77.8552686 49.4857701,77.626303 C46.207217,75.6879629 43.5944858,72.9201609 42.0313078,69.5505386 Z M87.0271964,67.3935308 C85.5202624,70.8466596 83.01999,73.460548 79.4492732,75.5977356 C79.0684181,75.803497 78.6713074,75.9214961 78.2471349,75.9214961 C77.4269294,75.9214961 76.6895052,75.4996586 76.3308698,74.7994887 C76.1218727,74.4336501 75.9979443,74.0501877 75.9979443,73.6512 C75.9979443,72.8488614 76.4596742,72.1332374 77.195939,71.7756181 C79.7516481,70.459843 81.7821826,68.3854781 82.9092139,66.0369443 C84.2457837,63.2929743 84.7060668,61.0740429 84.7060668,56.8804541 C84.7060668,55.6429425 85.738233,54.9214961 86.9552574,54.9214961 C88.1244112,54.9214961 89.1404177,55.666573 89.1404177,56.8804541 C89.1404177,61.0386092 89.5992039,63.1429793 90.9893019,65.82617 C92.1613589,68.1057527 94.3992025,70.3447669 96.9013667,71.7000167 C97.6320583,72.0553049 97.9979443,72.7817575 97.9979443,73.5474206 C97.9979443,73.9568071 97.8751068,74.369473 97.6650188,74.7372211 L97.610754,74.8237677 C97.1706371,75.4657691 96.5004321,75.8177167 95.7487537,75.8177167 C95.3277782,75.8177167 94.9034304,75.6982608 94.4816587,75.4692952 C91.2031056,73.5309551 88.5903744,70.7631531 87.0271964,67.3935308 Z M87.0271964,67.3935308" id="人 人 copy" fill="#FFFFFF" transform="translate(64.500000, 66.500000) rotate(-357.000000) translate(-64.500000, -66.500000) "></path>
                        <path d="M123.556429,52.3623457 L123.54911,52.254321 C123.394802,49.8685185 121.425392,48 119.064418,48 C118.966222,48 118.867416,48.0030864 118.813133,48.0074074 L73.09952,49.5753086 C71.9010403,49.654321 70.8050261,50.2018519 70.0127487,51.1160494 C69.2204713,52.0296296 68.8276871,53.2012346 68.9063659,54.4141975 L69.0631136,56.8351852 C66.2117688,54.9919753 63.3439564,55.7864198 61.5471518,56.6833333 L61.6941409,54.4141975 C61.7728197,53.2012346 61.3800355,52.0296296 60.5877581,51.1160494 C59.7960906,50.2018519 58.6994664,49.6549383 57.4558532,49.5728395 L11.831897,49.0419753 C9.35381915,48.8709877 7.21180356,50.8012346 7.05139635,53.2864198 L7.04468731,53.3938272 C5.94806315,53.4407407 4,53.9802469 4,57.2518519 C4,60.8296296 6.77327588,60.4685185 7.96077712,60.1506173 L8.95493584,75.9061728 C8.88235615,78.341358 10.734053,80.4228395 13.0968572,80.5777778 L55.3412837,82.9901235 C55.4406996,82.9969136 55.5395055,83 55.6377016,83 L55.6383115,83 C57.998676,83 59.9680862,81.1314815 60.1223942,78.745679 L61.1604667,61.6580247 C63.0060644,60.6567901 66.2819089,59.562963 69.4583375,61.895679 L70.4811621,78.745679 C70.6354702,81.1314815 72.6048803,83 74.9658548,83 C75.0640508,83 75.1634667,82.9969136 75.3220442,82.9851852 L117.446928,80.582716 C119.867674,80.4222222 121.7212,78.341358 121.648621,75.9055556 L122.658027,59.004321 C123.428348,59.2691358 127,60.2796296 127,56.2191358 C126.99817,52.5024691 124.478618,52.3092593 123.556429,52.3623457 L123.556429,52.3623457 Z M56.452754,79.4201592 C56.3982643,80.3054806 55.702473,80.998728 54.8683617,80.998728 L54.8198599,81 L13.3460258,78.5144856 C12.4711969,78.453429 11.8059438,77.6476084 11.8628286,76.7184025 L11.8718104,76.5663969 L10,53.4507314 C10.1101769,52.6277387 10.7778253,52 11.571219,52 L56.5138304,52.5533259 C56.9377721,52.5832182 57.3245889,52.7861043 57.6054204,53.1250959 C57.885653,53.4647236 58.0245718,53.8997522 57.9964288,54.349409 L56.452754,79.4201592 L56.452754,79.4201592 Z M118.137189,76.728521 C118.194074,77.6558064 117.528827,78.4605962 116.595326,78.5259695 L75.2392504,80.9961918 C74.2979652,81 73.6027793,80.3075507 73.5476913,79.4246938 L72.0034326,54.4057588 C71.9758886,53.9563966 72.1148061,53.5229018 72.395036,53.1839761 C72.675266,52.8456852 73.0626779,52.6432183 73.4423057,52.6159265 L118.321614,51.0038082 C119.221583,51 119.889225,51.6258066 120,52.4477331 L118.127609,76.5768295 L118.137189,76.728521 Z M118.137189,76.728521" id="Shape" fill="#FFFFFF"></path>
                    </g>
                    <path d="M130.830607,122.608533 C130.830607,122.608533 137.414591,108.037243 144.463419,104.006969 C151.512247,99.9766955 169.677286,97.1290374 178.376505,97.1290393 C187.075724,97.1290412 230.794475,102.792125 238.487833,92.1534534 C246.181193,81.5147815 245.899942,115.989391 226.083536,129.379039 C206.26713,142.768688 130.830607,122.608533 130.830607,122.608533 Z M130.830607,122.608533" id="Path 145" fill="#855689"></path>
                    <path d="M179,262.112603 C214.346226,262.112603 243,260.321742 243,258.112603 C243,255.903464 214.346226,254.112603 179,254.112603 C143.653774,254.112603 115,255.903464 115,258.112603 C115,260.321742 143.653774,262.112603 179,262.112603 Z M179,262.112603" id="Oval 31" opacity="0.49921875" fill="#6F4073"></path>
                    <path d="M118.498047,188.556641 C128.445313,212.052734 147.80957,204.015625 147.80957,204.015625 C147.80957,204.015625 161.632813,197.001953 178.119141,197.001953 C194.605469,197.001953 211.777344,204.015625 211.777344,204.015625 C211.777344,204.015625 230.666016,212.052734 237.433594,188.556641 C237.433594,188.556641 235.433594,235.548832 178.119141,235.548828 C120.804687,235.548825 118.498047,188.556641 118.498047,188.556641 Z M194.262421,210.738858 C185.11928,210.738858 170.186059,210.738858 161.707799,210.738858 C157.825828,210.738858 158.011465,213.61614 162.201211,216.552657 C166.567089,219.612621 172.535034,222.736904 178.703205,222.736904 C184.267264,222.736904 190.031212,219.823535 194.446985,216.868028 C198.992374,213.825768 198.945277,210.738858 194.262421,210.738858 Z M194.262421,210.738858" id="Path 142" fill="#855689"></path>
                </g>
            </g>
        </g>
    </g>
</svg>