<?xml version="1.0" encoding="UTF-8" standalone="no"?>
<svg width="192px" height="77px" viewBox="0 0 192 77" version="1.1" xmlns="http://www.w3.org/2000/svg" xmlns:xlink="http://www.w3.org/1999/xlink" xmlns:sketch="http://www.bohemiancoding.com/sketch/ns">
    <title>logo-puzzle</title>
    <description>Created with Sketch (http://www.bohemiancoding.com/sketch)</description>
    <defs></defs>
    <g id="Page 1" stroke="none" stroke-width="1" fill="none" fill-rule="evenodd">
        <g id="Artboard 1" transform="translate(-384.000000, -3645.000000)">
            <g id="Ebene_1" transform="translate(384.455273, 3645.128182)">
                <path d="M73.7897672,32.2711453 C71.4993042,38.4763316 58.1110341,38.4209887 39.9356076,38.4763316 C39.9356076,38.4763316 51.6792554,36.8212672 55.0718764,30.269405 C58.4749394,23.7144101 62.4648454,10.4253394 62.4648454,10.4253394 C44.3860079,10.4253394 42.7784548,16.7605291 42.7784548,16.7605291 C42.7784548,16.7605291 31.3438916,48.7189352 27.264706,60.5080059 C-4.40236689,60.5080059 0.666202579,44.8699967 0.666202579,44.8699967 L16.5031327,0.436477552 L48.5993737,0.436477552 L46.4462237,6.83379746 C46.4462237,6.83379746 49.0661332,0.436477552 66.7539161,0.436477552 L66.7539161,0.436477552 C66.7539161,0.436477552 84.8880965,0.515315004 82.7553085,6.86773411 C80.6261751,13.2164985 73.7897672,32.2711453 73.7897672,32.2711453" id="Shape" fill="#0088FF"></path>
                <g id="Group" transform="translate(39.157675, 47.511312)" fill="#000000">
                    <path d="M11.800557,10.9323008 C13.05047,9.83014276 14.2246781,9.27358167 15.3237035,9.27358167 C17.0884094,9.27358167 17.8162201,10.3042117 17.5076576,12.3571181 C17.2194571,14.2831536 16.2786287,16.2232858 14.678385,18.1806475 C13.0849287,20.1306997 11.3614689,21.106509 9.52784551,21.106509 C8.46327885,21.106509 7.61172994,20.8663419 6.98311873,20.392273 L8.94361299,15.2281588 C9.60250614,13.473895 10.5574313,12.0417682 11.800557,10.9323008 L11.800557,10.9323008 Z M6.127393,22.6315699 L6.20988517,22.6315699 C6.98572924,23.0231467 8.00904981,23.2152803 9.2798469,23.2152803 C11.999478,23.2152803 14.4925166,22.0750088 16.7521755,19.785068 C19.0118344,17.5019145 20.3510269,14.9404804 20.7765403,12.1033763 C21.0099201,10.5449009 20.790115,9.31169514 20.1275671,8.40167077 C19.4644971,7.4921685 18.3863558,7.03532896 16.892621,7.03532896 C14.6914376,7.03532896 12.6176471,8.03776544 10.6811696,10.0536026 L10.6023321,10.0536026 L11.4711104,7.33762621 L8.61782114,7.33762621 C7.96884794,9.39784203 7.33344939,11.2450401 6.71893495,12.8792204 L0.48973199,29.1970068 L3.60407242,29.1970068 L6.127393,22.6315699 L6.127393,22.6315699 Z M6.127393,22.6315699" id="Shape"></path>
                    <path d="M37.5882355,7.33762621 L40.7474767,7.33762621 L37.0870172,16.9041073 C36.3727813,18.7857641 35.6997913,20.7911592 35.0711801,22.9166378 L32.2450402,22.9166378 L33.0281937,20.2419075 L32.9592762,20.2006614 C31.0363733,22.2128438 28.9416987,23.2152803 26.6684652,23.2152803 C25.3976681,23.2152803 24.443265,22.882179 23.8183085,22.2128438 C23.193352,21.5466413 22.9667596,20.5985034 23.1521059,19.3762618 C23.2549601,18.6896973 23.4956493,17.820919 23.887226,16.769927 L27.4651933,7.33762621 L30.6176472,7.33762621 L27.8875741,14.5489037 C27.2213715,16.3000349 26.8334495,17.3646016 26.723808,17.7457363 C26.6172991,18.126871 26.534807,18.4975636 26.4836409,18.8614689 C26.2774105,20.2768884 26.9232511,20.9806823 28.4169859,20.9806823 C29.4778978,20.9806823 30.5941526,20.4831188 31.7683608,19.4869475 C32.9357816,18.4845111 33.7977725,17.2554822 34.361121,15.7925514 L37.5882355,7.33762621 L37.5882355,7.33762621 Z M37.5882355,7.33762621" id="Shape"></path>
                    <path d="M40.5898018,22.9166378 L41.0429866,21.5779674 C41.1186915,21.3273583 41.7572226,20.657501 42.9523149,19.5793597 L50.5238429,12.7429517 C50.911765,12.3957536 51.3926212,11.9801602 51.9695443,11.4925166 C52.361121,11.16307 52.7526978,10.8398887 53.1406198,10.5344588 C53.8856599,9.94709368 54.2563525,9.62808915 54.2563525,9.57640102 L46.2833278,9.57640102 L47.1552387,7.33762621 L58.7928997,7.33762621 L58.1298297,9.15715285 L50.9597984,15.6333102 C49.2567006,17.1651585 48.1336584,18.1608076 47.6084235,18.6207798 C46.8738255,19.2358163 46.0635227,19.9051515 45.177515,20.6193875 L45.1294816,20.6773409 L53.8788725,20.6773409 L52.9996522,22.9161157 L40.5898018,22.9161157 L40.5898018,22.9166378 Z M40.5898018,22.9166378" id="Shape"></path>
                    <path d="M57.401497,22.9166378 L57.8546818,21.5779674 C57.9303867,21.3273583 58.5689178,20.657501 59.7640101,19.5793597 L67.3318834,12.7429517 C67.7161507,12.3957536 68.2043164,11.9801602 68.7775848,11.4925166 C69.1655068,11.16307 69.5570835,10.8398887 69.952315,10.5344588 C70.6937003,9.94709368 71.0612604,9.62808915 71.0680477,9.57640102 L63.0877135,9.57640102 L63.9669338,7.33762621 L75.5972855,7.33762621 L74.9415249,9.15715285 L67.7720157,15.6333102 C66.0621305,17.1651585 64.9427431,18.1608076 64.4133313,18.6207798 C63.6787334,19.2358163 62.8752179,19.9051515 61.9892102,20.6193875 L61.9406547,20.6773409 L70.6905677,20.6773409 L69.8076927,22.9161157 L57.401497,22.9161157 L57.401497,22.9166378 Z M57.401497,22.9166378" id="Shape"></path>
                    <path d="M78.0657853,22.9166378 L74.9138535,22.9166378 L83.5671776,0.322137141 L86.7671428,0.322137141 L78.0657853,22.9166378 L78.0657853,22.9166378 Z M78.0657853,22.9166378" id="Shape"></path>
                    <path d="M92.9216851,10.4624087 C94.0029591,9.58318835 95.094675,9.14357819 96.2004878,9.14357819 C96.9147238,9.14357819 97.4436134,9.30542991 97.7975988,9.62443444 C98.1406201,9.94709368 98.2711456,10.3934912 98.1891756,10.9704143 C97.8733037,13.0922381 95.211626,14.1333102 90.2088414,14.0951967 C90.9293426,12.5497738 91.8325797,11.3379743 92.9216851,10.4624087 L92.9216851,10.4624087 Z M92.6120784,21.1070311 C90.0161856,21.1070311 88.921337,19.7506092 89.3228337,17.0346329 C89.3771324,16.6707275 89.4460499,16.3684303 89.5217547,16.1141665 C96.7946402,16.1141665 100.695267,14.3698226 101.214237,10.8811348 C101.382353,9.74765059 101.094153,8.82457366 100.352246,8.10720505 C99.6035508,7.39244696 98.4846855,7.03532896 96.987296,7.03532896 C94.3642539,7.03532896 91.9949535,8.10720505 89.8793948,10.2567004 C87.7643583,12.4061957 86.5212326,14.7577446 86.1437526,17.3233555 C85.8618174,19.1841282 86.1881313,20.6334843 87.1117303,21.6667248 C88.0321968,22.6999653 89.5154895,23.2152803 91.5443792,23.2152803 C93.5053955,23.2152803 95.3666904,22.8581623 97.1282636,22.1376611 L97.0107906,20.1594153 C95.4961717,20.7911592 94.0301084,21.1070311 92.6120784,21.1070311 L92.6120784,21.1070311 Z M92.6120784,21.1070311" id="Shape"></path>
                    <path d="M115.77306,22.9166378 L112.621128,22.9166378 L118.660808,7.33762621 L121.820049,7.33762621 L115.77306,22.9166378 L115.77306,22.9166378 Z M124.014445,2.52279848 C123.928299,3.0861469 123.640098,3.55342849 123.152455,3.93090848 C122.658546,4.30838847 122.09833,4.4937348 121.459799,4.4937348 C120.900105,4.4937348 120.481379,4.35015665 120.192656,4.04420468 C119.903934,3.74556215 119.794292,3.35764011 119.869997,2.87365125 C119.959277,2.31030283 120.24069,1.84302124 120.721546,1.45875392 C121.212322,1.0739645 121.752176,0.882352946 122.352594,0.882352946 C122.932649,0.882352946 123.375914,1.0295858 123.674557,1.33188306 C123.976854,1.63052559 124.083363,2.02888967 124.014445,2.52279848 L124.014445,2.52279848 Z M124.014445,2.52279848" id="Shape"></path>
                    <path d="M130.089106,4.5626523 L133.625305,3.59101986 L132.176471,7.33762621 L136.170032,7.33762621 L135.404108,9.35659594 L131.40376,9.35659594 L128.317091,17.5019145 C128.165681,17.9039333 128.03881,18.2913332 127.932301,18.6552385 C127.825793,19.0264533 127.750088,19.3491125 127.708842,19.616951 C127.575183,20.5306301 128.028368,20.9801602 129.065786,20.9801602 C129.717891,20.9801602 130.164289,20.9524888 130.408111,20.8945354 L129.896972,22.9166378 C129.305953,23.1197356 128.523321,23.2152803 127.540725,23.2152803 C126.397843,23.2152803 125.538984,22.9683259 124.976158,22.4770276 C124.41281,21.9794641 124.193004,21.3064742 124.327185,20.4476158 C124.423252,19.7573966 124.649844,18.943439 124.992865,18.0062653 L128.248173,9.35659594 L125.800035,9.35659594 L126.572225,7.33762621 L129.055344,7.33762621 L130.089106,4.5626523 L130.089106,4.5626523 Z M130.089106,4.5626523" id="Shape"></path>
                    <path d="M146.619388,20.3786983 L146.461191,22.4838149 C145.135573,22.9745911 143.665855,23.2147582 142.058824,23.2147582 C140.073791,23.2147582 138.61817,22.693178 137.684129,21.6385313 C136.7433,20.581274 136.413332,19.1762967 136.667596,17.4183781 C137.080056,14.6851724 138.440133,12.2746259 140.760878,10.1799513 C143.089454,8.08162204 145.75061,7.03480686 148.755309,7.03480686 C149.970763,7.03480686 150.918901,7.20657853 151.612253,7.54959976 L150.451619,9.6615037 C149.733729,9.40410725 148.981901,9.27358167 148.19196,9.27358167 C146.200662,9.27358167 144.400975,10.0770972 142.801254,11.6841281 C141.194223,13.2875044 140.246085,15.0767491 139.951097,17.0544728 C139.762618,18.3252698 139.951097,19.2937697 140.513923,19.9698922 C141.073617,20.6392274 141.983642,20.9796381 143.226767,20.9796381 C144.277759,20.9801602 145.403934,20.7775845 146.619388,20.3786983 L146.619388,20.3786983 Z M146.619388,20.3786983" id="Shape"></path>
                </g>
            </g>
        </g>
    </g>
</svg>