<?xml version="1.0" encoding="UTF-8" standalone="no"?>
<svg width="300px" height="196px" viewBox="0 0 300 196" version="1.1" xmlns="http://www.w3.org/2000/svg" xmlns:xlink="http://www.w3.org/1999/xlink" xmlns:sketch="http://www.bohemiancoding.com/sketch/ns">
    <title>logo-cevi-1</title>
    <description>Created with Sketch (http://www.bohemiancoding.com/sketch)</description>
    <defs></defs>
    <g id="Page-1" stroke="none" stroke-width="1" fill="none" fill-rule="evenodd" sketch:type="MSPage">
        <g id="Artboard-1" sketch:type="MSArtboardGroup" transform="translate(-331.000000, -3787.000000)">
            <g id="veci_logo_rvb-+-CEVI-REGIONAL-VERBAN" sketch:type="MSLayerGroup" transform="translate(342.000000, 3828.000000)">
                <g id="veci_logo_rvb" transform="translate(0.297949, 37.864172)" sketch:type="MSShapeGroup">
                    <g id="Group">
                        <path d="M0.356203722,28.2217414 C0.261840688,27.868382 0.20445324,27.504482 0.170991171,27.1355627 L7.54368877,34.4978871 C3.55718522,33.0764184 1.0804902,30.9248074 0.356203722,28.2217414 L0.356203722,28.2217414 L0.356203722,28.2217414 Z" id="Shape" fill="#00499A"></path>
                        <path d="M47.6237181,53.1658733 C42.4618594,54.6504179 37.2874524,55.5707921 32.4018231,55.9382057 L50.6764627,74.1860756 L57.1649251,49.9794478 C54.2922065,51.1041079 51.1238505,52.1595016 47.6237181,53.1658733 L47.6237181,53.1658733 L47.6237181,53.1658733 Z" id="Shape" fill="#D60038"></path>
                        <path d="M63.8911355,22.9737179 C57.2330204,27.3219464 49.0814932,31.0635076 41.499323,33.2433941 C31.0722078,36.2420974 20.4573703,37.1706698 12.3501803,35.7992269 L-0.0332947584,23.433654 L68.7198794,4.95489583 L63.8911355,22.9737179 L63.8911355,22.9737179 Z" id="Shape" fill="#D60038"></path>
                        <path d="M73.9846339,36.0108745 C68.7764303,42.3833909 60.4335,46.9591615 46.9541421,50.8357421 C33.2045781,54.7892855 19.4856319,54.667149 12.0043498,50.5247122 C9.37138697,49.0671045 7.72087043,47.2276946 7.09881057,45.0595198 L3.15547308,35.2755455 C3.30387736,35.3657258 3.45228163,35.4574119 3.60018397,35.5390593 C11.670733,40.0079186 26.8156653,40.0417153 42.1829531,35.6227145 C54.4782556,32.0867777 67.371358,24.9300777 73.9842993,18.0291953 L73.9842993,36.0108745 L73.9846339,36.0108745 L73.9846339,36.0108745 Z" id="Shape" fill="#003973"></path>
                        <path d="M50.6764627,7.32032946 L2.65504784,20.1498539 C7.59773001,13.0953806 19.2015389,6.15518023 32.6203304,2.29666909 C36.3908363,1.21249806 44.818091,-0.149408137 50.6764627,0.0692664823 L50.6764627,7.32032946 L50.6764627,7.32032946 Z" id="Shape" fill="#003973"></path>
                    </g>
                </g>
                <text id="CEVI-REGIONAL-VERBAN" sketch:type="MSTextLayer" font-family="Ornitons-Serial" font-size="10.8" font-weight="bold" letter-spacing="2.7" fill="#000000">
                    <tspan x="50.4" y="11">CEVI REGIONAL VERBAND</tspan>
                    <tspan x="50.4" y="25">ZÜRICH SCHAFFAUSEN GLARUS</tspan>
                </text>
            </g>
        </g>
    </g>
</svg>