<?xml version="1.0" encoding="UTF-8" standalone="no"?>
<svg width="135px" height="180px" viewBox="0 0 135 180" version="1.1" xmlns="http://www.w3.org/2000/svg" xmlns:xlink="http://www.w3.org/1999/xlink" xmlns:sketch="http://www.bohemiancoding.com/sketch/ns">
    <title>logo-jubla</title>
    <description>Created with Sketch (http://www.bohemiancoding.com/sketch)</description>
    <defs></defs>
    <g id="Page 1" stroke="none" stroke-width="1" fill="none" fill-rule="evenodd">
        <g id="Artboard 1" transform="translate(-733.000000, -3589.000000)">
            <g id="Group" transform="translate(730.000000, 3588.960938)">
                <g id="Hilfslinien_für_Zeichenfläche"></g>
                <g id="Ebene_1" transform="translate(3.000000, 0.000000)" fill="#243588">
                    <g id="Group" transform="translate(0.000000, 100.000000)">
                        <path d="M18.146,2.521 C18.146,2.521 19.021,1.865 20.208,1.615 C20.208,1.615 21.989,1.177 22.77,1.427 C22.77,1.427 25.739,1.615 25.832,1.739 L27.855,2.319 C27.855,2.319 27.453,1.926 26.968,1.313 C26.255,1.09 25.324,0.819 25.324,0.819 C25.324,0.819 22.95,0.501 22.54,0.501 C22.54,0.501 20.942,0.364 18.568,1.413 C18.568,1.413 15.738,2.874 15.282,3.696 C15.282,3.696 13.958,5.02 14.003,7.12 C14.003,7.12 14.003,7.182 14.005,7.27 C13.206,7.303 12.036,7.415 11.493,7.758 C11.493,7.758 8.708,9.127 7.977,10.131 C7.977,10.131 6.014,11.912 5.192,12.871 C5.192,12.871 4.323,14.547 4.097,15.199 C4.097,15.199 2.955,16.521 2.864,17.162 C2.864,17.162 1.404,19.947 1.404,20.859 C1.404,20.859 0.508,24.353 0.55,25.269 C0.55,25.269 0.554,26.171 1.225,27.191 C0.867,27.568 0.55,27.941 0.55,28.103 C0.55,28.103 0.425,35.187 0.633,36.103 C0.633,36.103 1.425,38.687 4.05,36.978 C4.05,36.978 5.466,36.019 4.591,35.894 C4.591,35.894 4.3,35.603 3.841,36.103 C3.841,36.103 2.716,37.353 1.716,36.437 C1.716,36.437 1.091,36.478 1.216,32.394 L1.175,28.394 C1.175,28.394 1.374,28.128 1.752,27.849 C2.085,28.199 2.505,28.544 3.05,28.853 C3.05,28.853 5.3,29.019 4.466,27.312 C4.466,27.312 4.591,25.603 2.258,26.187 C2.258,26.187 2.126,26.306 1.941,26.48 C1.735,26.21 1.537,25.914 1.425,25.644 C1.425,25.644 1.175,24.238 1.613,23.956 C1.613,23.956 1.863,22.144 1.988,21.894 C1.988,21.894 2.863,18.425 3.394,18.238 C3.394,18.238 4.144,16.207 4.925,15.426 C4.925,15.426 5.737,13.582 6.831,12.238 C6.831,12.238 8.706,10.488 8.925,10.176 L11.175,8.77 C11.175,8.77 12.3,8.145 13.706,8.114 C13.706,8.114 13.866,8.112 14.105,8.116 C14.199,8.604 14.377,9.202 14.733,9.766 C14.733,9.766 15.6,11.729 16.924,10.496 C16.924,10.496 18.568,9.537 17.563,8.076 C17.563,8.076 16.468,7.209 14.825,7.256 C14.825,7.256 14.764,7.254 14.667,7.254 C14.679,6.963 14.717,6.676 14.799,6.488 C14.799,6.488 15.111,5.676 14.955,5.144 C14.955,5.144 15.767,4.082 16.111,3.769 C16.115,3.771 17.521,2.865 18.146,2.521 L18.146,2.521 Z M2.695,27.086 C3.103,26.83 3.103,27.113 3.461,27.113 C3.817,27.113 3.869,27.392 3.895,27.724 C3.92,28.054 3.792,28.107 3.487,28.132 C3.182,28.157 3.128,27.927 3.128,27.927 C3.103,27.8 2.901,27.712 2.774,27.519 C2.696,27.406 2.288,27.342 2.695,27.086 L2.695,27.086 Z M16.459,8.396 C16.459,8.396 17.459,8.646 16.865,9.677 C16.865,9.677 15.646,10.458 15.49,9.427 C15.49,9.427 14.802,8.396 14.74,8.302 C14.729,8.284 14.717,8.222 14.705,8.142 C15.234,8.176 15.889,8.246 16.459,8.396 L16.459,8.396 Z M16.459,8.396" id="Shape"></path>
                        <path d="M31.381,35.662 C31.381,35.662 30.834,36.303 30.334,35.803 C30.334,35.803 30.068,35.6 29.834,33.787 C29.834,33.787 29.787,33.162 29.303,33.209 C29.303,33.209 28.678,33.115 28.334,33.6 C28.334,33.6 27.178,34.959 26.896,35.381 C26.896,35.381 26.584,35.943 26.396,35.928 C26.396,35.928 26.099,35.35 26.146,35.006 C26.146,35.006 26.24,33.334 26.271,33.272 C26.271,33.272 26.38,32.413 26.037,32.288 C26.037,32.288 25.662,31.96 25.303,32.632 C25.303,32.632 23.412,35.148 22.912,35.585 C22.912,35.585 22.49,36.226 21.521,35.694 C21.521,35.694 21.099,35.413 21.099,34.866 C21.099,34.866 21.865,34.694 22.005,34.366 C22.005,34.366 22.396,33.897 22.083,33.647 C22.083,33.647 21.612,33.196 21.065,33.118 C21.065,33.118 20.348,32.96 20.208,33.288 C20.208,33.288 20.052,33.491 20.052,33.632 C20.052,33.632 19.99,34.148 20.005,34.226 C20.005,34.226 19.208,34.585 19.817,35.007 C19.817,35.007 19.942,35.148 20.176,35.163 C20.176,35.163 20.332,36.632 22.16,36.741 C22.16,36.741 23.082,36.819 23.598,36.085 C23.598,36.085 25.129,34.351 25.348,33.866 C25.348,33.866 25.239,35.694 25.567,36.35 C25.567,36.35 26.083,37.412 26.895,36.678 C26.895,36.678 27.879,35.678 28.129,35.1 C28.129,35.1 28.817,34.225 29.004,34.131 C29.004,34.131 29.145,34.943 29.176,35.287 C29.176,35.287 29.317,36.146 29.895,36.568 C29.895,36.568 30.051,36.834 30.692,36.787 C30.692,36.787 31.52,36.725 31.692,36.303 C31.692,36.303 32.083,36.194 32.02,35.741 C32.021,35.74 31.865,35.381 31.381,35.662 L31.381,35.662 Z M20.787,34.193 C20.865,33.537 21.178,34.037 21.178,34.037 L21.168,34.041 L21.178,34.057 L20.787,34.213 C20.788,34.203 20.79,34.199 20.791,34.192 L20.787,34.193 L20.787,34.193 Z M20.787,34.193" id="Shape"></path>
                        <path d="M16.538,32.219 C16.538,32.219 15.824,32.397 14.6,34.563 L14.676,30.153 C14.676,30.153 14.32,29.542 13.81,30.229 C13.81,30.229 11.312,34.104 9.706,35.583 C9.706,35.583 8.686,36.808 7.156,35.991 C7.156,35.991 6.29,35.43 6.418,34.614 C6.418,34.614 8.1,34.462 8.15,34.335 C8.15,34.335 8.712,33.8 8.253,33.341 C8.253,33.341 8.1,32.626 7.182,32.423 C7.182,32.423 5.858,32.372 5.526,34.208 C5.526,34.208 5.271,36.653 7.616,37.036 C7.616,37.036 9.221,37.571 10.905,35.634 C10.905,35.634 12.792,33.161 13.76,31.657 C13.76,31.657 13.785,36.678 13.785,36.858 C13.785,37.036 14.447,37.393 15.11,37.061 C15.11,37.061 16.894,36.118 17.506,33.161 C17.506,33.16 17.609,32.016 16.538,32.219 L16.538,32.219 Z M6.537,33.506 C6.756,33.115 7.309,33.213 7.309,33.213 C7.389,33.233 7.497,33.346 7.517,33.481 C7.526,33.522 7.526,33.569 7.514,33.614 C7.463,33.792 6.469,33.868 6.469,33.868 C6.447,33.825 6.443,33.782 6.447,33.739 C6.449,33.615 6.537,33.506 6.537,33.506 L6.537,33.506 Z M16.787,33.506 C16.787,33.85 16.006,35.194 16.006,35.194 C15.506,36.085 14.897,36.397 14.897,36.397 C14.647,36.335 14.709,36.194 14.709,36.194 C14.709,35.991 15.271,34.819 15.271,34.819 C15.615,34.1 16.396,33.178 16.396,33.178 C17.006,32.553 16.787,33.506 16.787,33.506 L16.787,33.506 Z M16.787,33.506" id="Shape"></path>
                        <path d="M7.31,33.23 C7.387,33.25 7.491,33.353 7.518,33.48 C7.498,33.345 7.391,33.232 7.31,33.212 C7.31,33.212 6.756,33.114 6.538,33.505 C6.538,33.505 6.45,33.614 6.447,33.737 C6.458,33.624 6.538,33.524 6.538,33.524 C6.756,33.135 7.31,33.23 7.31,33.23 L7.31,33.23 Z M7.31,33.23" id="Shape"></path>
                        <path d="M21.167,34.041 L21.177,34.037 C21.177,34.037 20.865,33.537 20.786,34.193 L20.79,34.191 C20.867,33.635 21.119,33.969 21.167,34.041 L21.167,34.041 Z M21.167,34.041" id="Shape"></path>
                        <path d="M34.74,32.1 C34.74,32.1 34.084,32.116 34.178,32.819 C34.178,32.819 34.162,35.694 34.225,35.881 C34.225,35.881 33.834,36.053 33.053,35.1 C33.053,35.1 32.584,34.444 32.334,34.522 C32.334,34.522 32.006,34.428 31.865,34.694 C31.865,34.694 31.849,35.069 31.927,35.178 C31.927,35.178 33.021,36.287 33.443,36.553 C33.443,36.553 34.334,36.912 34.646,36.881 C34.646,36.881 35.037,36.74 35.068,36.522 C35.068,36.522 34.99,33.569 35.021,33.397 C35.021,33.397 35.255,33.459 35.333,33.709 C35.333,33.709 35.536,34.287 35.802,33.818 C35.802,33.818 35.943,33.724 35.802,33.13 C35.803,33.131 35.303,32.178 34.74,32.1 L34.74,32.1 Z M34.74,32.1" id="Shape"></path>
                        <path d="M45.912,33.006 C45.912,33.006 45.365,32.818 44.631,33.162 C44.631,33.162 43.943,33.381 43.49,34.521 C43.49,34.521 43.271,33.552 42.756,33.583 C42.756,33.583 42.115,33.536 41.334,33.989 C41.334,33.989 40.209,34.895 39.881,35.223 L38.819,36.254 L38.881,34.192 C38.881,34.192 38.99,31.708 39.084,31.567 C39.084,31.567 39.162,30.505 39.396,30.223 C39.396,30.223 39.802,30.567 39.834,30.817 C39.834,30.817 40.162,31.379 40.428,31.333 C40.428,31.333 41.053,31.177 40.381,30.177 C40.381,30.177 39.709,29.115 39.115,29.239 C39.115,29.239 38.365,29.442 38.24,31.895 C38.24,31.895 38.006,35.786 38.068,36.864 C38.068,36.864 37.427,37.27 37.209,37.302 C37.209,37.302 36.912,37.193 36.818,37.458 C36.818,37.458 36.365,37.833 36.818,38.146 C36.818,38.146 37.052,38.271 37.162,38.287 C37.162,38.287 37.6,38.193 38.006,37.959 L37.959,45.615 C37.959,45.615 37.99,50.177 38.24,50.724 C38.24,50.724 38.615,51.146 38.928,50.63 C38.928,50.63 38.819,47.942 38.725,47.536 C38.725,47.536 38.694,41.114 38.741,40.942 L38.772,37.411 C38.772,37.411 39.553,36.755 41.178,35.255 C41.178,35.255 41.74,34.63 42.49,34.443 C42.49,34.443 42.756,34.724 42.74,35.552 L42.724,36.943 C42.724,36.943 43.13,37.349 43.302,37.224 C43.302,37.224 43.614,37.177 43.661,36.443 C43.661,36.443 43.833,35.412 44.786,34.084 C44.786,34.084 45.161,33.725 46.005,33.6 C46.006,33.6 46.35,33.225 45.912,33.006 L45.912,33.006 Z M45.912,33.006" id="Shape"></path>
                        <path d="M56.662,35.365 C56.662,35.365 56.396,35.834 56.115,35.865 C56.115,35.865 55.834,35.865 55.881,34.943 L56.084,33.584 C56.084,33.584 56.303,33.053 55.662,32.881 C55.662,32.881 55.287,32.756 54.365,34.006 C54.365,34.006 53.646,34.99 53.459,35.147 C53.459,35.147 53.303,35.444 53.256,35.459 C53.256,35.459 53.084,35.615 53.068,35.178 C53.068,35.178 52.927,34.49 53.037,33.975 C53.037,33.975 53.037,33.647 52.553,33.631 C52.553,33.631 52.35,33.584 51.522,34.678 C51.522,34.678 50.256,36.053 49.991,36.256 C49.991,36.256 49.444,36.725 49.21,36.506 C49.21,36.506 48.663,36.459 48.554,35.912 L48.507,35.209 C48.507,35.209 50.023,34.631 50.069,34.6 C50.069,34.6 50.413,34.303 50.131,33.897 C50.131,33.897 49.912,33.616 49.709,33.647 C49.709,33.647 49.521,33.397 49.162,33.35 C49.162,33.35 48.506,33.162 48.068,33.647 C48.068,33.647 47.771,33.913 47.693,34.506 C47.693,34.506 46.896,34.49 46.724,34.522 C46.724,34.522 46.302,34.569 46.349,35.116 C46.349,35.116 46.708,35.46 46.943,35.428 L47.631,35.475 C47.631,35.475 47.49,36.756 48.459,37.163 C48.459,37.163 49.443,37.679 50.021,37.225 C50.021,37.225 50.552,36.991 51.552,35.881 C51.552,35.881 52.021,35.475 52.13,35.24 C52.13,35.24 52.224,35.849 52.302,35.912 C52.302,35.912 52.599,36.318 52.802,36.381 C52.802,36.381 53.427,36.522 53.661,36.209 C53.661,36.209 54.364,35.537 54.473,35.178 L55.02,34.553 L55.098,35.897 C55.098,35.897 55.364,36.553 55.66,36.616 C55.66,36.616 56.144,36.866 56.582,36.616 C56.582,36.616 57.144,36.21 57.754,35.272 C57.754,35.272 57.863,35.069 57.551,34.834 C57.553,34.834 57.428,34.475 56.662,35.365 L56.662,35.365 Z M48.74,34.1 C49.099,33.991 49.146,34.178 49.146,34.178 L49.138,34.18 C49.141,34.188 49.146,34.198 49.146,34.198 L48.537,34.386 C48.509,34.349 48.51,34.314 48.525,34.282 C48.553,34.178 48.74,34.1 48.74,34.1 L48.74,34.1 Z M48.74,34.1" id="Shape"></path>
                        <path d="M48.74,34.119 C49.044,34.025 49.121,34.14 49.138,34.18 L49.146,34.178 C49.146,34.178 49.099,33.99 48.74,34.1 C48.74,34.1 48.552,34.178 48.525,34.282 C48.569,34.188 48.74,34.119 48.74,34.119 L48.74,34.119 Z M48.74,34.119" id="Shape"></path>
                        <path d="M59.768,34.83 C59.768,34.83 59.643,30.223 59.893,29.752 C59.893,29.752 59.866,29.24 60.241,29.24 C60.241,29.24 60.46,28.615 59.991,28.459 L59.612,28.467 C59.612,28.467 58.923,29.033 58.985,34.266 C58.985,34.266 58.985,39.28 60.333,40.817 C60.333,40.817 61.022,40.973 60.772,40.378 C60.771,40.377 59.894,38.811 59.768,34.83 L59.768,34.83 Z M59.768,34.83" id="Shape"></path>
                        <path d="M67.24,35.271 C66.969,35.376 66.365,35.98 66.365,35.98 C65.969,36.668 65.719,35.668 65.719,35.668 C65.635,35.5 65.459,33.397 65.459,33.397 C65.271,32.303 64.397,32.678 64.397,32.678 C63.553,33.178 62.772,34.74 62.772,34.74 L62.741,33.396 C62.179,32.74 61.71,33.552 61.71,33.552 C60.756,34.738 60.634,35.111 60.619,35.206 C60.644,35.239 60.687,35.302 60.762,35.417 C61.033,35.833 61.408,35.396 61.408,35.396 C61.741,35.126 61.887,34.771 61.887,34.771 L61.887,35.833 C61.845,36.688 62.283,36.667 62.283,36.667 C62.783,36.749 63.054,36.083 63.054,36.083 C63.7,34.813 64.575,33.688 64.575,33.688 C64.763,33.772 64.763,34.417 64.763,34.417 C64.763,36.542 65.638,36.979 65.638,36.979 C66.596,37.417 67.409,35.938 67.409,35.938 C67.969,35.336 67.24,35.271 67.24,35.271 L67.24,35.271 Z M67.24,35.271" id="Shape"></path>
                        <path d="M60.615,35.24 C60.615,35.24 60.615,35.226 60.618,35.207 C60.552,35.117 60.615,35.24 60.615,35.24 L60.615,35.24 Z M60.615,35.24" id="Shape"></path>
                        <path d="M68.656,27.896 C68.656,27.896 68.135,27.834 68.198,28.292 C68.198,28.292 70.281,31.313 69.052,37.896 C69.052,37.896 68.656,41.896 67.406,43.958 C67.406,43.958 67.406,44.562 67.865,44.229 C67.865,44.229 68.927,43.438 69.886,37.645 C69.886,37.645 70.802,32.52 69.532,29.166 C69.531,29.168 68.969,27.877 68.656,27.896 L68.656,27.896 Z M68.656,27.896" id="Shape"></path>
                        <path d="M77.803,37.543 C77.803,37.543 77.324,37.959 77.115,37.875 C77.115,37.875 76.281,37.521 76.177,35.959 C76.177,35.959 75.884,34.229 76.406,31.438 C76.406,31.438 76.531,30.188 76.385,30.043 C76.385,30.043 75.968,29.209 75.364,30.793 L74.51,33.084 C74.51,33.084 74.156,33.834 74.052,33.938 C74.052,33.938 73.739,33.565 73.031,33.834 C73.031,33.834 72.281,34.314 71.843,35.772 C71.843,35.772 71.468,37.272 72.572,37.334 C72.572,37.334 72.988,37.627 73.905,36.022 C73.905,36.022 75.03,34.002 75.301,33.272 C75.301,33.272 75.072,36.438 75.947,37.856 C75.947,37.856 76.676,38.854 77.364,38.626 C77.364,38.626 77.635,38.647 78.239,38.022 C78.24,38.021 78.386,37.375 77.803,37.543 L77.803,37.543 Z M72.615,36.625 C72.406,36.541 72.448,36.168 72.448,36.168 C72.448,35.397 73.406,34.418 73.406,34.418 C73.718,34.418 73.718,35.043 73.718,35.043 C73.281,35.812 72.615,36.625 72.615,36.625 L72.615,36.625 Z M72.615,36.625" id="Shape"></path>
                        <path d="M82.698,34.146 C82.698,34.146 82.427,33.73 81.656,34.73 C81.656,34.73 80.468,36.168 79.865,36.334 C79.865,36.334 79.031,36.772 78.844,35.73 C78.844,35.73 78.74,35.521 79.198,35.375 C79.198,35.375 80.136,35.002 80.531,34.146 C80.531,34.146 80.802,33.396 80.031,33.208 C80.031,33.208 79.01,32.979 78.49,34.27 C78.49,34.27 78.428,34.77 78.156,34.52 C78.156,34.52 77.511,34.561 77.468,35.104 C77.468,35.104 77.427,35.352 77.51,35.436 C77.51,35.436 77.759,35.604 77.927,35.604 C77.927,35.604 77.968,36.729 78.406,36.958 C78.406,36.958 79.344,37.79 80.656,36.874 C80.656,36.874 81.865,35.77 82.448,34.999 C82.448,35 82.906,34.459 82.698,34.146 L82.698,34.146 Z M79.219,34.418 L79.323,34.188 C79.511,33.813 79.74,33.876 79.74,33.876 C79.802,33.882 79.817,33.907 79.816,33.937 C79.84,34.003 79.698,34.125 79.698,34.125 C79.406,34.418 79.219,34.437 79.219,34.437 L79.228,34.417 C79.227,34.416 79.219,34.418 79.219,34.418 L79.219,34.418 Z M79.219,34.418" id="Shape"></path>
                        <path d="M79.74,33.895 C79.789,33.899 79.808,33.916 79.816,33.936 C79.817,33.907 79.802,33.881 79.74,33.875 C79.74,33.875 79.511,33.813 79.323,34.187 L79.219,34.417 C79.219,34.417 79.227,34.415 79.228,34.415 L79.324,34.206 C79.511,33.832 79.74,33.895 79.74,33.895 L79.74,33.895 Z M79.74,33.895" id="Shape"></path>
                    </g>
                    <g id="Group" transform="translate(9.000000, 0.000000)">
                        <path d="M70.818,36.866 C69.777,36.928 68.929,36.671 68.019,36.815 C67.408,38.2 66.611,39.475 65.628,40.692 C64.026,42.14 62.093,42.938 59.962,42.792 C58.61,42.418 57.751,44.175 56.911,44.911 C56.349,45.061 56.227,45.811 55.741,46.126 C54.614,47.931 54.257,49.993 53.21,51.827 C53.097,52.227 52.849,52.599 52.499,52.888 C51.71,53.654 53.015,53.731 53.11,54.404 C53.635,56.186 55.21,57.666 56.876,58.449 C57.501,59.239 58.581,59.957 58.669,61.006 C58.931,61.226 59.112,61.578 59.429,61.665 C60.128,61.409 60.171,60.469 60.661,60.021 C60.432,59.345 61.13,59.117 61.087,58.525 C60.792,57.23 62.036,56.259 62.747,55.225 C63.378,54.297 64.138,53.638 64.767,52.738 C65.443,52.267 66.013,51.66 66.712,51.349 C67.153,50.578 67.858,49.92 68.431,49.204 C69.536,48.634 70.872,48.39 71.98,47.657 C72.334,47.235 72.892,47.38 73.195,46.821 C74.425,46.655 74.584,45.208 75.554,44.688 C75.566,44.017 76.001,43.514 76.281,42.956 C77.033,42.595 77.394,41.849 77.541,41.1 C77.225,40.959 77.137,41.388 76.818,41.221 C76.052,40.777 74.705,41.585 74.218,40.474 C74.546,39.841 74.952,39.189 75.276,38.498 C74.334,37.819 73.369,37.171 72.372,36.57 C71.858,36.843 71.328,37.066 70.818,36.866 L70.818,36.866 Z M70.818,36.866" id="Shape"></path>
                        <path d="M31.057,90.796 C30.575,90.948 30.041,90.939 29.637,91.281 C29.076,91.299 28.541,91.369 28.032,91.521 C26.098,92.236 24.116,92.738 22.311,93.724 C21.87,94.523 20.832,94.396 20.682,95.306 C22.461,95.742 24.268,96.152 26.11,96.05 C27.149,96.124 28.274,95.821 29.364,95.976 C30.43,95.996 31.688,95.724 32.839,95.476 C32.773,94.777 32.708,93.996 32.933,93.275 C32.79,92.414 33.234,91.482 33.119,90.431 L32.529,90.689 C32.049,90.574 31.615,90.914 31.057,90.796 L31.057,90.796 Z M31.057,90.796" id="Shape"></path>
                        <path d="M53.66,37.519 C53.914,36.799 53.205,36.142 53.828,35.589 C54.398,35.008 55.283,34.81 56.025,35.038 C56.421,35.233 56.839,35.724 56.564,36.202 C56.369,36.682 55.695,37.046 55.582,37.421 C56.086,37.511 56.516,37.357 56.869,37.067 C57.443,36.272 57.467,34.956 57.189,34.038 C56.828,33.468 56.294,33.378 55.793,33.181 C55.016,33.435 54.213,33.555 53.664,34.35 C53.521,34.912 52.848,35.248 52.863,35.894 C52.427,36.315 52.547,37.15 52.697,37.691 C53.119,37.886 53.262,37.458 53.66,37.519 L53.66,37.519 Z M53.66,37.519" id="Shape"></path>
                        <path d="M32.66,100.873 C32.006,101.666 31.457,102.516 30.881,103.363 C30.336,103.972 30.268,104.857 30.412,105.664 C30.156,106.519 30.957,106.508 31.404,106.838 C31.832,106.711 31.986,107.143 32.414,106.99 C32.373,106.373 32.096,105.562 32.213,104.865 C32.436,104.386 32.315,103.74 32.881,103.4 L32.619,103.127 L32.66,100.873 L32.66,100.873 Z M32.66,100.873" id="Shape"></path>
                        <path d="M59.391,113.42 C59.086,112.582 58.485,111.846 58.477,110.879 C58.514,110.344 58.661,109.621 58.43,109.025 C58.963,107.586 59.123,106.084 59.549,104.722 C59.406,103.779 59.846,103.087 59.703,102.144 C59.867,100.509 60.48,99.017 60.697,97.382 C61.552,95.761 62.383,94.136 63.345,92.542 C63.605,91.499 63.413,90.26 63.593,89.19 C63.306,88.835 62.87,89.364 62.447,89.249 C58.957,90.501 55.445,91.484 52.008,92.792 C50.797,93.388 49.254,93.144 48.018,93.739 C47.155,94.233 45.911,93.78 44.946,94.085 C42.563,94.499 40.176,95.314 37.829,95.353 C37.405,95.156 37.128,95.742 36.788,95.333 C35.794,95.798 34.778,95.94 33.784,96.325 C34.036,97.136 33.723,98.177 33.977,98.962 C34.702,98.626 35.608,98.642 36.411,98.495 C38.157,99.306 39.626,100.542 40.821,102.255 C41.323,104.011 39.682,106.317 39.716,107.312 C39.978,107.613 40.464,107.326 40.724,107.599 C42.218,107.574 43.662,107.437 45.156,107.357 C44.718,106.545 43.668,105.638 44.115,104.492 C44.392,103.933 44.457,103.316 44.972,102.842 C45.12,102.014 45.98,101.627 46.499,100.99 C48.188,100.484 50.017,99.631 51.811,100.578 C52.393,100.91 52.92,101.189 53.256,101.84 C53.572,103.375 53.514,105.283 52.266,106.334 C51.297,106.772 50.787,108.43 49.438,107.947 C49.247,108.211 48.877,107.963 48.661,108.121 C49.423,108.779 50.214,109.277 50.866,110.041 C51.309,110.561 51.243,111.283 51.661,111.803 C51.806,112.612 51.573,113.602 52.122,114.254 C52.203,114.816 52.31,115.41 52.381,116.012 C54.779,115.895 57.124,115.576 59.403,115.082 C59.346,114.545 59.326,113.996 59.391,113.42 L59.391,113.42 Z M59.391,113.42" id="Shape"></path>
                        <path d="M55.557,35.808 C55.241,35.722 54.655,35.632 54.592,36.113 C54.401,36.459 54.578,36.812 54.953,36.818 C55.303,36.609 55.842,36.323 55.557,35.808 L55.557,35.808 Z M55.557,35.808" id="Shape"></path>
                        <path d="M20.797,99.178 C20.43,98.848 20.147,98.387 19.723,98.192 C19.508,98.213 19.192,98.075 19.078,98.368 C18.853,99.061 19.189,99.686 19.418,100.253 C19.221,100.814 20.045,100.991 20.035,101.474 C20.58,100.838 20.914,100.119 20.797,99.178 L20.797,99.178 Z M20.797,99.178" id="Shape"></path>
                        <path d="M49.08,102.73 C48.139,103.195 48.123,104.029 47.762,104.828 C47.944,105.072 47.801,105.525 48.065,105.666 C48.393,105.324 48.536,104.762 49.045,104.584 C49.604,104.701 50.356,104.365 50.693,104.936 C50.92,105.53 50.279,105.627 50.297,106.11 C49.889,106.614 49.506,107.036 48.738,106.833 L48.732,107.103 C49.158,107.165 49.56,107.037 49.908,106.99 C50.554,106.572 51.388,106.131 51.539,105.355 C51.846,104.554 51.564,103.931 51.31,103.228 C51.117,102.123 49.699,102.42 49.08,102.73 L49.08,102.73 Z M49.08,102.73" id="Shape"></path>
                        <path d="M69.816,109.045 C69.441,109.147 68.882,109.002 68.611,109.266 C69.297,109.774 69.848,110.616 70.685,110.901 C71.231,110.604 71.767,110.294 72.298,109.973 C71.964,109.711 71.611,109.496 71.222,109.395 C70.773,109.225 70.156,109.455 69.816,109.045 L69.816,109.045 Z M69.816,109.045" id="Shape"></path>
                        <path d="M68.516,110.176 C67.828,109.897 67.602,109.166 67.022,108.78 C67.106,108.567 66.977,108.27 67.274,108.141 C69.135,108.389 71.495,107.787 73.008,109.479 C73.014,109.495 73.023,109.502 73.029,109.518 C74.394,108.659 75.708,107.727 76.964,106.723 C75.501,106.168 74.267,105.217 72.72,104.963 C71.952,104.68 71.148,104.826 70.411,104.275 C69.456,104.097 70.112,103.06 69.751,102.517 C69.165,101.003 70.151,99.517 70.101,97.958 C70.455,97.587 70.121,96.911 70.765,96.681 C70.566,95.87 71.161,95.4 71.042,94.617 C71.562,93.902 71.659,92.883 72.442,92.388 C73.085,92.183 73.68,91.792 74.426,91.779 C76.649,91.336 79.24,92.404 81.217,90.802 C80.668,90.2 79.869,90.159 79.266,89.611 C78.496,89.382 77.725,89.367 76.981,89.193 C75.985,89.74 75.006,89.183 74.014,89.515 C73.696,89.429 73.489,89.101 73.575,88.728 C74.278,88.285 75.03,87.949 75.655,87.343 C75.632,87.126 75.716,86.886 75.614,86.697 C75.11,86.472 74.645,87.082 74.2,86.672 C73.175,87.377 71.995,87.652 70.919,88.17 C69.556,88.467 70.357,86.924 69.778,86.402 C69.946,85.976 69.522,85.806 69.69,85.381 C69.088,84.832 69.372,83.926 68.956,83.299 C68.325,82.83 67.589,83.703 67.032,83.451 C65.44,83.019 64.071,82.027 62.512,81.301 C61.893,81.613 61.094,81.516 60.526,82.043 C59.965,82.087 59.451,82.4 59,82.285 C58.709,82.224 58.359,82.379 58.148,82.135 C56.47,82.049 55.187,80.791 54.171,79.43 C54.128,78.946 53.763,78.455 53.956,78.055 C53.782,77.354 54.272,76.907 54.229,76.262 C54.667,75.734 54.944,75.12 55.405,74.618 C54.971,75.04 54.257,74.731 53.925,75.424 C54.075,75.883 53.249,75.921 53.532,76.437 C52.987,77.071 52.368,77.409 51.772,77.882 C50.67,78.372 49.329,78.886 48.042,79.237 C47.138,79.087 46.28,79.286 45.401,79.188 C44.372,78.686 43.231,78.317 42.112,78.243 C40.944,77.979 39.862,78.819 38.688,78.825 C38.307,79.302 37.745,79.397 37.288,79.684 C36.731,79.432 36.585,80.127 36.106,80.065 C35.663,80.919 34.862,81.036 34.235,81.751 C34.36,82.263 33.928,82.497 34.079,82.983 C34.55,83.53 35.099,82.733 35.54,83.333 C38.177,83.569 40.874,83.269 43.534,83.614 C45.134,83.696 46.768,83.243 48.421,83.3 C49.794,82.493 51.659,82.634 52.978,82.04 C53.3,81.913 53.751,81.974 53.935,82.247 C53.732,83.022 53.533,83.796 53.119,84.487 C51.908,85.19 50.877,86.112 49.51,86.544 C44.822,87.585 40.135,88.788 35.551,90.103 C34.94,89.982 34.481,90.244 33.946,90.341 C34.182,90.587 34.014,90.986 34.063,91.31 C33.682,91.679 34.1,92.169 33.772,92.593 C33.782,93.56 33.501,94.308 33.67,95.279 C34.576,95.295 35.279,94.744 36.16,94.679 C37.951,94.443 39.769,94.181 41.558,94.025 C42.337,93.638 43.091,93.355 43.999,93.158 C44.802,93.064 45.604,92.945 46.374,93.066 C47.657,92.984 48.733,92.384 50.042,92.248 C50.284,92.279 50.632,92.15 50.813,92.369 C51.415,91.656 52.346,91.779 52.997,91.119 C53.64,91.023 54.28,90.902 54.925,90.779 C55.357,90.437 55.89,90.447 56.349,90.16 C57.847,89.84 59.37,89.68 60.767,89.086 C61.47,88.617 62.324,88.525 63.027,88.08 C63.48,88.144 63.855,88.043 64.256,87.996 C64.654,88.084 64.754,88.516 64.694,88.891 C64.178,89.366 64.589,90.26 64.258,90.817 C64.281,90.979 64.17,91.191 64.383,91.276 C64.369,92.028 64.061,92.801 63.832,93.575 C62.572,95.405 61.736,97.378 60.9,99.405 C60.966,100.157 60.63,101.01 60.748,101.844 C60.609,102.192 60.469,102.537 60.33,102.858 C60.475,103.719 60.037,104.331 60.152,105.192 C59.703,106.526 59.941,108.063 59.464,109.368 C59.337,110.47 59.585,111.44 59.648,112.462 C60.173,112.901 60.162,113.546 60.255,114.138 C60.26,114.37 60.284,114.626 60.305,114.876 C63.64,114.075 66.822,112.886 69.802,111.355 C69.321,111.031 68.875,110.654 68.516,110.176 L68.516,110.176 Z M68.516,110.176" id="Shape"></path>
                        <path d="M64.621,40.353 C65.203,39.127 66.605,38.267 66.738,36.845 C65.123,37.756 63.793,38.968 62.074,39.661 C61.472,40.401 60.66,41.085 59.929,41.743 C61.711,42.044 63.217,41.267 64.621,40.353 L64.621,40.353 Z M64.621,40.353" id="Shape"></path>
                        <path d="M46.256,106.869 C46.436,107.248 46.69,106.582 46.895,107.014 C47.083,106.938 47.504,107.188 47.457,106.809 C46.904,106.504 47.424,105.788 46.922,105.457 C46.969,104.41 47.256,103.287 47.988,102.576 C48.295,101.828 49.07,101.736 49.738,101.64 C50.252,101.328 50.832,101.714 51.336,101.804 C52.469,102.577 52.391,103.892 52.236,105.097 C52.886,104.519 52.931,103.525 52.732,102.716 C52.712,102.366 52.503,102.093 52.294,101.821 C51.269,101.104 50.177,100.975 48.841,101.112 C48.171,101.315 47.474,101.598 46.802,101.774 C46.12,102.622 45.439,103.467 44.941,104.399 C44.912,104.559 45.041,104.831 44.826,104.907 C44.924,105.339 45.051,105.77 45.176,106.204 C45.49,106.506 45.586,107.07 46.256,106.869 L46.256,106.869 Z M46.256,106.869" id="Shape"></path>
                        <path d="M77.801,106.988 C80.485,108.918 83.53,110.236 86.35,111.98 L86.713,112.496 C86.121,112.861 85.268,112.82 84.545,112.967 C82.658,112.557 80.803,112.014 78.916,111.576 C77.641,111.365 76.355,111.609 75.082,111.318 C74.601,110.275 73.427,110.545 73.028,109.517 C72.785,109.669 72.545,109.824 72.299,109.972 C72.899,110.441 73.438,111.062 74.012,111.486 C73.194,111.041 71.957,111.554 71.194,111.004 C71.011,110.996 70.845,110.955 70.686,110.9 C70.396,111.058 70.097,111.201 69.803,111.351 C70.474,111.798 71.224,112.121 71.996,112.308 L74.742,112.359 C75.767,113.129 77.041,113.529 78.178,114.088 C79.887,115.406 81.949,116.305 83.823,117.414 C83.634,117.652 83.178,117.697 82.856,117.852 C81.836,118.209 80.93,118.194 79.977,117.799 C77.014,116.51 73.873,116.156 70.936,114.922 C70.491,114.512 69.795,114.658 69.405,114.115 C68.87,114.185 68.239,113.689 67.803,114.219 C67.342,114.559 67.842,114.998 67.862,115.375 C68.516,116.086 69.548,116.508 70.122,117.217 C72.136,119.348 75.339,119.166 77.681,120.901 C79.568,121.311 81.035,122.655 83.003,122.932 C83.593,122.782 83.905,123.27 84.411,123.227 C84.934,123.772 85.895,123.709 86.177,124.36 C84.739,124.28 83.243,124.413 81.835,124.145 C79.886,124.297 78.501,122.688 76.806,122.12 C75.593,121.347 74.896,120.124 73.544,119.616 C72.173,118.784 70.714,118.302 69.204,117.845 C67.772,117.335 66.669,116.402 65.292,115.921 C64.888,116.101 64.96,116.505 64.954,116.882 C65.304,118.122 66.841,118.716 66.923,120.06 C66.89,120.38 67.234,120.548 67.12,120.923 C68.167,121.989 68.692,123.853 70.315,124.124 C71.413,125.298 72.598,126.126 73.973,126.769 C76.975,127.634 79.438,129.765 82.332,130.798 C81.297,130.56 80.271,131.087 79.207,130.679 C78.033,130.738 76.73,130.419 75.684,130.857 C74.293,131.072 72.971,130.511 71.668,130.273 C71.033,130.019 70.398,129.738 69.762,129.459 C68.283,127.203 65.666,127.531 64.217,125.113 C63.647,124.189 62.405,123.523 62.533,122.316 C62.556,121.082 61.777,119.966 61.318,118.802 C60.715,117.601 60.41,116.154 60.305,114.874 C60.005,114.946 59.704,115.017 59.402,115.083 C59.456,115.595 59.544,116.095 59.627,116.595 C60.672,119.14 61.182,121.835 62.365,124.3 C63.521,125.154 64.08,126.669 65.402,127.337 C66.824,128.329 68.49,129.007 69.693,130.37 C70.488,130.626 71.201,131.015 72.052,131.11 C73.025,131.827 74.413,131.747 75.613,131.768 C76.019,131.426 76.711,131.573 77.166,131.528 C79.031,131.508 80.947,131.731 82.84,131.766 C83.5,132.127 84.149,131.735 84.713,131.424 C84.971,130.461 83.842,130.951 83.588,130.301 C82.947,130.262 82.559,129.692 82.059,129.362 C81.42,129.268 80.864,129.124 80.28,128.952 C78.401,128.112 76.798,126.847 74.811,126.14 C73.348,125.845 72.09,124.72 71.098,123.574 C69.854,122.988 68.858,122.084 68.133,120.861 C67.588,120.099 67.227,119.449 67.403,118.539 C67.089,118.291 66.694,117.908 66.729,117.559 C69.348,118.575 72.049,119.672 74.477,121.057 C75.534,123.012 77.696,122.998 79.135,124.368 C79.668,124.378 79.953,124.866 80.487,124.903 C82.003,125.038 83.688,124.827 85.282,125.231 C85.925,125.028 86.745,125.34 87.214,124.569 C87.726,124.255 87.091,123.948 86.911,123.651 C86.276,123.317 85.593,122.739 84.878,122.458 C83.794,122.009 82.646,121.987 81.562,121.511 C81.146,120.966 80.285,121.38 79.925,120.702 C79.548,120.856 79.398,120.397 79.021,120.552 C76.912,119.251 74.464,118.882 72.302,117.581 C71.083,117.13 70.275,116.147 69.251,115.216 C70.655,115.698 72.114,116.208 73.517,116.771 C73.79,116.4 73.939,116.966 74.29,116.785 C74.79,117.144 75.401,117.236 75.931,117.461 C76.89,117.451 77.546,118.027 78.48,118.018 C78.732,118.774 79.542,118.225 79.882,118.688 C80.734,118.731 81.503,118.932 82.384,118.868 C83.454,118.647 84.529,118.317 85.472,117.77 C85.64,117.264 85.027,117.278 84.847,116.926 C82.154,115.506 79.324,114.114 76.743,112.399 C77.225,112.274 77.809,112.366 78.343,112.348 C78.822,112.465 79.779,112.616 80.497,112.657 C81.046,113.284 81.933,113.005 82.536,113.473 C83.626,113.653 84.69,113.834 85.811,113.774 C86.459,113.303 87.28,113.614 87.848,113.167 C88.047,112.581 87.598,112.249 87.366,111.815 C86.341,110.991 85.182,110.27 84.075,109.553 C83.382,109.594 82.966,108.969 82.3,108.875 C81.411,107.918 80.161,107.734 79.273,106.752 C78.732,106.588 78.206,106.377 77.686,106.147 C77.449,106.346 77.206,106.536 76.964,106.727 C77.234,106.826 77.511,106.92 77.801,106.988 L77.801,106.988 Z M77.801,106.988" id="Shape"></path>
                        <path d="M82.742,49.789 C82.777,50.784 82.072,51.389 82.32,52.413 C82.556,52.579 82.392,52.898 82.441,53.114 C81.988,54.53 82.306,56.093 81.906,57.563 C80.465,57.59 79.271,57.218 77.947,56.792 C76.994,56.426 76.066,56.06 75.14,55.64 C74.802,56.601 75.833,57.183 75.869,58.098 C76.598,59.052 77.873,59.343 78.469,60.347 C78.76,60.433 78.94,60.812 79.342,60.686 C79.776,61.769 81.028,61.898 81.539,63.037 C81.937,63.151 82.037,63.557 81.975,63.958 C81.166,64.507 80.36,64.868 79.528,65.067 C78.432,65.289 77.317,64.92 76.243,65.382 C75.688,65.185 74.86,65.169 74.272,65.346 C73.77,65.042 73.202,65.408 72.731,64.996 C71.842,65.41 70.7,65.174 70.059,65.268 C67.504,64.981 64.948,64.799 62.45,64.351 C61.63,63.932 60.839,63.516 60.102,62.911 C59.524,63.922 58.29,64.275 58.03,65.452 C56.878,67.203 56.571,69.293 55.737,71.184 C55.409,71.635 55.85,72.395 55.337,72.735 C55.624,73.036 55.163,73.377 55.427,73.57 C56.976,73.517 57.652,71.461 59.298,71.841 C60.064,72.312 60.941,72.462 61.708,72.798 C62.495,73.512 62.907,74.378 63.585,75.143 C64.288,76.069 63.653,77.213 64.062,78.187 C63.921,78.695 63.779,79.203 63.636,79.708 C63.257,79.944 63.304,80.321 63.113,80.612 C63.879,81.03 64.619,81.366 65.468,81.569 C65.025,81.051 64.181,80.471 64.357,79.614 C64.312,79.157 64.796,78.897 64.621,78.384 C64.742,77.499 65.553,76.925 65.809,76.096 C66.782,75.335 67.961,75.006 69.11,74.921 C69.86,74.8 70.721,74.386 71.487,74.829 C72.499,74.848 72.85,76.037 73.425,76.665 C73.542,77.661 74.218,78.586 73.745,79.653 C73.673,80.618 73.257,81.577 72.313,82.069 C71.563,82.27 70.915,82.69 70.116,82.674 C69.632,82.854 69.94,83.477 69.827,83.904 C70.852,84.701 70.265,86.195 71.046,87.148 C72.196,87.009 72.827,86 73.948,86.019 C74.491,85.519 75.415,85.992 76.007,85.681 C76.384,85.579 76.618,85.827 76.827,86.072 C76.12,86.758 76.823,87.711 76.038,88.314 C76.888,88.544 77.987,88.189 78.698,88.685 C79.362,88.859 80.052,89.033 80.606,89.365 C81.208,90.021 81.977,90.277 82.633,90.691 C82.709,91.016 82.569,91.361 82.248,91.41 C81.287,91.472 80.5,92.264 79.533,92.515 C78.115,92.865 76.713,92.195 75.32,92.572 C74.384,92.662 73.263,92.75 72.478,93.406 C71.779,95.113 71.402,96.851 70.835,98.668 C70.767,99.5 70.802,100.387 70.417,101.106 C70.347,101.936 70.44,102.717 70.747,103.366 C71.12,103.374 70.954,103.774 71.27,103.913 C71.803,104.005 72.528,103.722 72.918,104.186 C74.596,104.559 76.111,105.446 77.685,106.141 C87.102,98.287 93.098,86.471 93.098,73.248 C93.098,64.312 90.357,56.018 85.674,49.153 C85.278,49.159 84.881,49.179 84.486,49.229 C83.873,49.192 83.252,49.558 82.742,49.789 L82.742,49.789 Z M82.742,49.789" id="Shape"></path>
                        <path d="M68.723,56.623 C69.075,56.308 69.321,55.989 69.594,55.673 C69.877,54.71 70.639,53.919 70.473,52.841 L70.285,52.838 C69.947,52.455 69.523,52.287 69.072,52.171 C68.459,52.134 67.896,52.284 67.334,52.407 C66.869,53.016 66.219,53.542 66.336,54.43 C67.258,55.12 67.389,56.733 68.723,56.623 L68.723,56.623 Z M68.723,56.623" id="Shape"></path>
                        <path d="M49.283,106.199 C49.683,106.152 49.826,105.617 49.67,105.373 C49.223,105.07 48.813,105.625 48.834,105.949 C48.803,106.189 49.068,106.221 49.283,106.199 L49.283,106.199 Z M49.283,106.199" id="Shape"></path>
                        <path d="M71.664,78.056 C71.264,78.103 71.195,77.404 70.713,77.583 C70.426,77.282 69.733,77.243 69.303,77.45 C68.922,77.764 68.676,78.136 68.588,78.591 C68.604,79.128 68.432,79.903 68.934,80.075 C68.809,79.616 69.268,79.356 69.354,79.061 C69.653,78.663 70.184,78.862 70.559,78.68 C70.848,78.901 71.51,79.207 71.26,79.741 C71.289,79.661 71.369,79.663 71.449,79.663 C71.723,79.212 71.787,78.595 71.664,78.056 L71.664,78.056 Z M71.664,78.056" id="Shape"></path>
                        <path d="M65.986,80.853 C65.922,81.47 66.722,81.404 66.793,81.97 C67.482,82.064 68.022,81.884 68.584,81.681 C68.143,81.081 67.834,80.404 67.742,79.677 C67.736,78.468 67.652,77.259 68.89,76.583 C69.646,76.06 70.624,76.533 71.367,76.762 C72.666,77.215 72.267,78.633 72.408,79.681 C72.316,80.298 71.642,80.661 71.553,81.279 C72.274,81.238 72.58,80.437 72.991,79.961 C73.231,78.461 72.776,77.084 71.97,75.941 C71.466,75.825 70.991,75.601 70.431,75.591 C69.818,75.552 69.357,75.893 68.695,75.746 C68.043,76.433 66.879,75.901 66.25,76.749 C65.863,77.468 65.689,78.269 65.25,78.988 C65.1,79.763 65.355,80.386 65.986,80.853 L65.986,80.853 Z M65.986,80.853" id="Shape"></path>
                        <path d="M69.514,80.462 C69.588,80.704 69.858,80.575 70.018,80.605 C70.288,80.449 70.399,80.128 70.354,79.779 C69.85,79.529 69.283,79.839 69.514,80.462 L69.514,80.462 Z M69.514,80.462" id="Shape"></path>
                        <path d="M60.414,77.851 C60.639,77.318 60.566,76.833 60.498,76.241 C59.611,75.15 58.129,75.983 57.369,76.694 C57.467,77.234 57.084,77.736 57.396,78.118 C57.554,78.227 57.736,78.499 58.031,78.397 C57.984,77.993 57.67,77.692 57.812,77.239 C57.98,76.864 58.359,76.497 58.708,76.342 C59.245,76.137 59.72,76.414 60.058,76.876 C60.295,77.15 59.936,77.841 60.414,77.851 L60.414,77.851 Z M60.414,77.851" id="Shape"></path>
                        <path d="M52.508,75.719 C51.09,75.881 49.647,76.123 48.231,76.285 C47.381,76.082 46.448,76.064 45.598,75.834 C44.875,75.955 44.545,75.17 43.766,75.425 C43.172,75.87 43.104,76.674 42.692,77.285 C43.145,77.347 43.596,77.408 44.049,77.498 C44.502,77.56 44.953,77.621 45.238,78.084 C46.488,78.188 47.664,78.049 48.89,78.043 C50.13,77.395 51.419,76.826 52.581,75.962 C52.559,75.881 52.641,75.774 52.508,75.719 L52.508,75.719 Z M52.508,75.719" id="Shape"></path>
                        <path d="M62.426,80.089 L63.008,78.864 C63.07,78.436 63.133,77.981 63.301,77.581 C63.258,76.935 63.516,76.027 62.879,75.774 L62.858,77.009 C62.311,77.697 62.692,78.779 61.907,79.489 C62.006,79.707 62.188,79.978 62.426,80.089 L62.426,80.089 Z M62.426,80.089" id="Shape"></path>
                        <path d="M54.924,77.617 C55.022,78.209 54.67,78.498 55.008,78.988 C55.971,80.215 57.028,80.824 58.297,81.304 C58.969,81.074 59.813,81.519 60.492,80.941 C60.914,81.111 61.244,80.66 61.459,80.449 C60.156,78.867 57.705,80.246 56.617,78.426 C56.463,78.155 56.469,77.807 56.26,77.533 C56.406,76.838 56.42,76.06 57.123,75.616 C57.832,74.742 59.055,74.899 60.148,74.892 C60.41,75.193 60.646,75.384 60.908,75.604 C61.668,76.424 61.269,77.732 60.963,78.506 C61.096,78.535 61.225,78.754 61.361,78.594 C61.718,78.037 61.73,77.313 61.902,76.671 C62.644,75.476 61.22,74.536 60.623,73.8 L60.123,73.415 C59.455,73.483 58.633,73.173 58.119,73.62 C56.463,73.697 56.431,75.47 55.322,76.336 C55.102,76.733 55.092,77.216 54.924,77.617 L54.924,77.617 Z M54.924,77.617" id="Shape"></path>
                        <path d="M33.484,87.859 C33.796,88.295 33.328,89.146 33.83,89.371 C34.957,89.068 36.264,89.012 37.443,88.658 C39.377,87.887 41.384,87.467 43.343,86.832 C44.009,86.871 44.445,86.422 45.159,86.596 C46.798,86.008 48.608,86.096 50.093,85.157 C50.984,84.583 52.322,84.339 52.636,83.188 C49.577,84.18 46.452,84.473 43.327,84.711 C40.206,84.762 37.175,84.41 34.059,84.004 C33.997,84.619 34.036,85.291 33.655,85.742 C33.562,86.492 33.42,87.107 33.484,87.859 L33.484,87.859 Z M33.484,87.859" id="Shape"></path>
                        <path d="M36.281,77.867 C36.068,77.836 35.799,77.937 35.644,77.721 C33.419,78.244 31.007,78.951 28.703,79.66 C27.408,80.363 26.275,81.066 25.084,82.039 C24.352,82.777 23.939,83.414 23.18,84.127 C23.151,84.342 23.2,84.502 23.303,84.666 C23.969,84.812 24.403,84.391 25.092,84.564 C25.363,84.246 25.815,84.416 26.112,84.179 C26.942,83.98 27.979,84.294 28.678,83.851 C30.231,83.556 31.68,83.099 33.258,82.833 C33.182,82.562 33.221,81.999 33.412,81.681 C33.344,81.035 34.178,80.673 34.451,80.277 C35.908,79.283 37.342,78.181 39.033,77.541 L37.568,77.514 C37.195,77.4 36.686,77.685 36.281,77.867 L36.281,77.867 Z M36.281,77.867" id="Shape"></path>
                        <path d="M37.064,105.008 C37.464,104.961 37.287,104.502 37.398,104.262 C37.216,103.963 37.06,103.719 36.632,103.791 L36.517,104.246 C36.594,104.543 36.527,105.16 37.064,105.008 L37.064,105.008 Z M37.064,105.008" id="Shape"></path>
                        <path d="M35.443,103.258 C35.492,103.475 35.484,103.852 35.888,103.697 L35.892,103.455 C36.136,103.164 36.304,102.791 36.781,102.961 C37.34,103.078 37.758,103.49 38.177,103.955 C38.144,104.303 38.241,104.707 38.025,104.971 C37.724,105.342 37.398,105.711 36.996,105.866 C36.883,106.161 37.148,106.22 37.363,106.196 C37.797,105.747 38.312,105.352 38.48,104.792 C38.818,103.833 38.996,102.815 38.669,101.815 L38.095,101.106 C37.589,101.044 37.324,100.93 36.765,100.948 C36.219,101.607 35.461,102.318 35.443,103.258 L35.443,103.258 Z M35.443,103.258" id="Shape"></path>
                        <path d="M37.998,106.447 L38.635,106.595 C39.537,105.347 40.549,103.97 40.26,102.38 C40.133,102.001 39.737,101.806 39.555,101.509 C39.397,101.45 39.235,101.583 39.311,101.771 C39.731,102.156 39.477,102.876 39.735,103.39 C39.272,103.919 39.549,104.704 38.928,105.175 C39.023,105.77 38.271,106.078 37.998,106.447 L37.998,106.447 Z M37.998,106.447" id="Shape"></path>
                        <path d="M36.004,107.514 C35.486,108.202 34.422,108.022 33.674,108.116 L33.799,108.63 C35.078,108.679 36.26,108.245 37.151,107.589 C36.861,107.342 36.328,107.357 36.004,107.514 L36.004,107.514 Z M36.004,107.514" id="Shape"></path>
                        <path d="M33.426,104.189 C33.281,104.804 33.139,105.257 33.022,105.9 C33.12,106.279 33.301,106.63 33.266,107.088 C33.633,107.389 34.356,107.322 34.786,107.168 C35.395,107.395 35.698,106.836 36.155,106.684 C36.071,105.393 34.813,105.612 34.919,104.272 C35.064,103.627 34.648,103.057 34.821,102.334 C34.915,101.611 35.696,101.168 35.948,100.475 C36.278,99.916 37.046,100.254 37.552,100.262 C37.482,99.778 36.841,99.848 36.796,99.336 C35.886,99.481 34.962,99.061 34.148,99.742 C33.664,100.056 33.652,100.701 33.482,101.209 L33.426,104.189 L33.426,104.189 Z M33.426,104.189" id="Shape"></path>
                        <path d="M75.963,45.663 C75.299,46.994 73.85,47.559 72.791,48.506 C71.766,49.158 70.459,49.216 69.432,49.976 C68.873,49.912 68.698,50.714 68.319,51.056 C68.854,50.932 69.38,51.425 69.913,51.355 C70.489,51.982 71.288,52.078 71.483,52.994 C71.682,53.751 70.77,54.109 71.077,54.841 C70.368,55.715 70.288,57.082 69.159,57.599 C68.79,57.432 68.649,57.859 68.276,57.69 C66.93,56.967 66.18,55.665 65.243,54.493 L65.251,54.036 C64.819,54.352 64.487,55.016 64.028,55.304 C63.184,56.255 62.526,57.291 62.049,58.437 C62.43,59.572 61.301,60.062 61.494,61.113 C61.273,61.539 60.867,61.854 60.832,62.337 C61.703,62.809 62.518,63.496 63.555,63.623 C64.032,63.899 64.756,63.617 65.205,63.894 C68.976,64.635 72.752,63.763 76.527,64.37 C77.869,63.991 79.382,64.314 80.701,63.614 C79.449,62.087 77.767,60.793 76.162,59.583 C75.451,59.087 74.826,58.297 74.545,57.619 C74.809,56.254 73.063,55.551 73.887,54.25 C75.108,54.568 76.27,55.152 77.463,55.605 C78.631,55.84 79.801,56.05 80.969,56.259 C81.11,55.886 81.25,55.512 81.311,55.111 C81.549,53.799 81.151,52.261 81.444,50.842 C81.936,50.099 81.551,49.233 82.311,48.601 C82.815,48.719 83.459,48.462 83.997,48.257 C84.318,48.189 84.641,48.164 84.963,48.155 C83.182,45.698 81.151,43.435 78.899,41.41 C78.336,42.299 77.663,43.206 76.902,43.989 C76.861,44.659 76.137,45.049 75.963,45.663 L75.963,45.663 Z M75.963,45.663" id="Shape"></path>
                        <path d="M24.404,42.007 C24.881,42.257 25.502,41.812 25.869,42.167 C26.217,42.093 26.248,41.853 26.385,41.585 C26.209,40.991 26.438,40.218 26.74,39.658 C27.467,39.268 27.967,38.257 28.998,38.679 C29.316,38.764 29.498,39.117 29.76,39.337 C29.912,39.77 29.455,39.976 29.606,40.436 C29.243,41.396 28.17,41.725 27.514,42.573 C27.399,43.001 27.66,43.302 27.815,43.627 C28.274,43.339 28.61,43.962 28.915,43.325 C29.395,43.305 29.727,42.694 30.208,42.569 C29.954,41.893 30.155,41.117 30.565,40.561 C31.27,39.875 32.204,39.838 33.217,39.911 C33.348,40.075 33.531,40.132 33.637,40.296 C33.504,41.635 31.526,41.975 31.285,43.368 C31.494,43.667 31.566,44.016 31.91,44.264 C32.334,44.434 32.555,44.008 33.006,44.151 C33.361,43.701 34.285,44.121 34.301,43.342 C34.067,43.014 34.34,42.564 34.561,42.245 C34.918,41.606 35.719,41.594 36.438,41.635 C36.7,41.881 36.911,42.127 36.797,42.5 C36.52,43.006 35.844,43.504 35.49,43.874 C35.381,43.979 35.508,44.33 35.752,44.201 L36.449,43.972 C37.301,42.537 38.521,41.431 38.978,39.828 C39.212,38.57 39.853,37.185 39.689,35.839 C39.487,34.58 38.989,33.319 38.402,32.119 C33.586,33.508 29.119,35.717 25.162,38.589 C25.429,39.72 24.629,40.887 24.404,42.007 L24.404,42.007 Z M24.404,42.007" id="Shape"></path>
                        <path d="M45.732,37.938 C46.037,38.749 47.002,38.579 47.746,38.62 C48.463,38.848 49.394,38.864 50.119,38.663 C50.527,38.24 51.242,38.495 51.598,37.992 C51.827,37.19 51.252,36.535 51.639,35.79 C51.621,35.226 52.215,34.914 52.303,34.406 C52.768,33.85 53.098,33.292 53.694,32.819 C54.559,32.11 56.003,32.003 57.034,32.477 C57.827,32.734 57.973,33.489 58.389,34.114 C58.203,35.481 58.309,37.013 57.041,37.823 C56.68,38.569 55.645,38.307 54.928,38.241 L54.928,38.186 C54.182,38.2 53.696,38.54 53.076,38.85 C53.308,39.284 53.539,39.719 53.556,40.23 C53.972,40.801 54.689,40.975 55.38,41.096 C56.306,41.569 57.398,41.588 58.517,41.61 C59.497,40.581 60.371,39.495 61.505,38.683 C63.423,37.348 65.626,36.421 67.595,35.196 C67.692,34.874 67.839,34.571 68.011,34.281 C62.608,31.819 56.61,30.436 50.284,30.436 C48.931,30.436 47.596,30.506 46.276,30.629 C45.875,32.166 45.699,33.754 45.46,35.301 C45.314,36.05 45.963,37.029 45.732,37.938 L45.732,37.938 Z M45.732,37.938" id="Shape"></path>
                        <path d="M75.562,32.575 C75.511,31.016 74.529,29.36 73.017,28.85 C71.81,29.311 71.066,30.639 71.095,31.848 C69.896,32.235 68.695,33.123 68.011,34.281 C68.347,34.434 68.684,34.583 69.014,34.744 C69.322,34.341 69.628,33.947 69.785,33.543 C70.187,33.496 70.41,32.938 70.889,33.053 L71.379,33.841 C71.936,34.119 72.27,34.824 72.965,34.702 C72.719,35.047 72.102,35.305 71.668,35.646 C71.424,35.654 71.164,35.685 70.897,35.72 C71.395,35.994 71.887,36.275 72.373,36.568 C72.658,36.416 72.937,36.25 73.206,36.13 C73.766,34.665 76.143,34.413 75.562,32.575 L75.562,32.575 Z M72.994,30.192 C73.738,30.313 74.072,30.99 74.517,31.374 L74.599,32.747 C74.203,32.604 74.429,31.884 73.87,31.819 C73.311,31.701 72.651,31.34 72.138,31.734 C72.047,30.979 72.506,30.666 72.994,30.192 L72.994,30.192 Z M72.48,33.54 C72.539,33.165 71.792,33.151 72.251,32.837 C72.628,32.603 73.214,32.694 73.526,33.048 C73.551,33.21 73.706,33.482 73.622,33.748 C73.217,33.983 72.879,33.601 72.48,33.54 L72.48,33.54 Z M72.48,33.54" id="Shape"></path>
                        <path d="M20.631,45.751 C21.574,45.123 22.078,43.765 22.6,42.94 C21.974,42.812 21.334,42.582 20.794,42.23 C19.883,43.096 19.01,44 18.178,44.942 C18.876,45.668 19.615,46.842 20.631,45.751 L20.631,45.751 Z M20.631,45.751" id="Shape"></path>
                        <path d="M21.139,41.302 C20.66,41.158 20.565,40.54 20.278,40.32 C20.339,39.757 19.907,38.702 20.633,38.34 C21.279,37.948 22.088,37.48 23.016,37.791 C23.493,38.016 23.858,38.344 24.143,38.779 C24.232,38.934 24.267,39.093 24.271,39.255 C24.565,39.029 24.863,38.809 25.163,38.591 C25.117,38.398 25.049,38.205 24.932,38.014 C24.385,37.225 23.541,36.781 22.582,36.681 C21.947,36.429 21.322,37.062 20.654,37.105 C20.244,37.714 19.465,37.996 19.529,38.83 C19.252,39.389 19.187,40.086 19.55,40.629 C19.744,41.33 20.21,41.851 20.793,42.231 C21.067,41.97 21.338,41.708 21.619,41.454 C21.459,41.401 21.304,41.339 21.139,41.302 L21.139,41.302 Z M21.139,41.302" id="Shape"></path>
                        <path d="M22.992,41.927 C23.185,41.554 23.539,41.265 23.599,40.837 C23.896,40.365 24.285,39.799 24.27,39.254 C23.358,39.953 22.471,40.684 21.619,41.453 C22.075,41.602 22.522,41.779 22.992,41.927 L22.992,41.927 Z M22.992,41.927" id="Shape"></path>
                        <path d="M17.966,101.332 C17.966,101.332 18.643,102.148 18.876,102.346 C18.88,102.348 18.892,102.354 18.897,102.358 C18.584,102.02 18.28,101.674 17.978,101.329 C17.977,101.33 17.964,101.328 17.966,101.332 L17.966,101.332 Z M17.966,101.332" id="Shape"></path>
                        <path d="M88.965,49.178 C89.893,49.544 90.438,50.387 91.502,50.46 C91.863,51.138 92.414,50.263 92.83,50.727 C93.154,50.572 93.105,50.249 93.111,49.98 C92.923,48.525 93.644,47.089 93.324,45.659 C93.531,44.51 92.613,43.713 91.959,43.056 C90.738,42.658 89.77,41.728 88.662,41.062 C85.562,39.958 82.326,40.435 79.162,39.921 C79.66,37.432 80.502,35.138 81.137,32.598 C81.17,30.771 82.004,28.988 81.877,27.132 C81.359,26.236 82.078,24.906 81.293,24.032 C80.861,22.815 80.479,21.975 80.338,20.791 C78.842,19.502 76.969,18.5 75.42,17.21 C75.348,16.725 74.705,16.793 74.662,16.31 C74.144,15.442 73.328,14.834 72.371,14.709 C71.148,14.526 69.678,14.74 68.346,14.636 C67.998,14.709 67.7,15 67.248,14.885 C65.568,14.827 63.809,14.875 62.078,14.656 C60.496,15.191 58.68,15.318 57.248,16.367 C56.269,17.343 54.82,17.772 54.08,18.968 C52.525,19.395 52.031,21.643 50.297,21.665 C50.494,22.581 49.783,23.481 49.186,24.142 C47.729,25.082 46.581,26.593 45.967,28.085 C45.819,25.987 47.422,24.324 47.805,22.317 C48.27,21.68 47.996,20.683 48.09,19.878 C48.342,19.186 48.119,18.267 48.848,17.772 C49.692,16.819 50.926,16.465 51.901,15.705 C52.506,16.038 52.258,15.041 52.866,15.321 C55.108,13.776 56.985,11.77 59.28,10.281 C59.63,10.098 60.034,9.838 60.069,9.409 C60.971,8.136 60.948,6.471 61.669,5.113 C61.435,4.813 61.39,4.303 60.937,4.187 C59.52,4.43 58.104,4.591 56.76,5.157 C55.207,5.425 55.199,7.304 54.01,8.196 C54.364,6.377 54.985,4.56 55.707,2.882 C55.615,2.074 55.893,1.461 56.014,0.738 C55.659,-0.235 55.237,0.967 54.655,0.606 C54.274,1.109 53.585,0.881 53.176,1.332 C52.5,1.855 52.297,2.658 51.674,3.238 C51.358,4.575 50.668,5.771 50.192,7.078 C49.491,7.521 49.766,8.467 49.145,8.886 C49.254,7.276 49.256,5.719 49.286,4.108 C48.999,3.806 48.63,3.558 48.798,3.079 C48.388,2.292 47.566,1.901 46.714,1.858 C46.22,2.602 45.964,3.456 45.708,4.364 C45.403,4.95 45.63,5.786 45.27,6.344 C44.817,4.966 43.288,5.53 42.499,4.897 C41.142,4.709 39.784,4.579 38.454,4.42 C37.852,5.188 38.179,6.321 38.161,7.315 C38.819,7.703 39.13,8.272 39.143,9.026 C39.608,9.758 40.485,9.909 40.844,10.669 C40.946,11.019 41.393,11.35 41.332,11.698 C40.506,11.737 39.818,11.428 38.963,11.52 C38.344,11.804 37.649,11.979 36.928,11.993 C35.186,12.472 34.227,13.878 32.903,14.9 C32.924,15.196 32.784,15.569 33.126,15.737 C33.718,15.507 34.46,15.681 35.128,15.639 C36.784,15.563 38.351,14.409 40.132,14.71 C40.618,14.316 40.982,14.913 41.544,14.736 C42.153,15.042 42.325,15.851 42.714,16.422 C42.446,17.895 42.874,19.381 42.392,20.875 C42.134,21.837 41.902,22.907 41.509,23.894 C40.89,24.339 41.111,25.337 40.515,25.81 L38.562,27.628 C37.949,27.616 37.646,28.12 37.14,28.111 C36.742,26.6 35.722,25.48 35.619,23.839 C35.109,22.596 34.678,21.271 33.681,20.447 C32.935,20.38 32.124,19.451 31.13,19.943 C30.804,20.34 30.001,20.433 29.724,20.964 C29.204,21.653 28.968,22.965 29.351,23.912 C29.566,23.781 29.533,24.237 29.531,24.318 C29.261,24.367 29.187,24.097 28.947,24.093 C27.855,24.045 26.894,24.081 25.873,24.572 C25.408,25.182 24.514,25.864 24.871,26.918 C25.041,27.727 25.611,28.623 26.488,28.774 C27.783,29.442 29.357,29.417 30.761,29.926 C31.909,29.759 33.161,29.863 34.284,29.668 L34.282,29.748 C35.137,29.684 35.97,29.404 36.718,29.336 C37.239,30.018 37.624,30.775 38.091,31.484 C38.199,31.692 38.3,31.905 38.403,32.117 C38.679,32.037 38.955,31.955 39.233,31.881 C39.151,31.712 39.086,31.543 39.133,31.37 L37.5,29.139 L40.325,27.737 C40.686,27.411 41.031,27.075 41.377,26.793 C41.336,26.096 41.824,25.647 42.127,25.115 C43.004,23.842 42.9,22.147 43.488,20.708 C43.756,19.183 43.625,17.648 43.572,16.117 C43.75,15.153 42.691,14.704 42.439,13.921 C41.621,13.476 40.925,13.571 40.093,13.743 C38.325,14.302 36.273,14.211 34.501,14.85 C34.485,14.204 35.364,14.274 35.403,13.657 C35.94,13.399 36.53,13.329 36.964,12.853 C37.792,12.76 38.339,12.073 39.212,12.437 C40.415,12.218 41.868,13.023 43.103,12.563 C42.749,11.481 41.832,10.659 41.236,9.627 C40.65,9.67 40.742,8.947 40.238,8.83 C40.289,7.488 38.351,7.076 38.886,5.528 C39.105,5.236 39.525,5.567 39.716,5.275 C41.046,5.461 42.38,5.484 43.677,5.884 C44.792,6.254 44.579,7.593 45.044,8.488 C45.007,8.998 44.966,9.775 45.523,10.028 C45.711,10.004 46.002,10.144 46.111,9.904 C46.328,8.324 46.142,6.736 46.332,5.154 C46.561,4.406 46.76,3.658 47.066,2.965 C47.896,2.766 48.011,3.762 48.457,4.146 C49.059,4.801 48.039,5.213 48.561,5.84 C47.795,6.846 48.706,8.1 48.233,9.192 C48.54,9.922 48.067,10.962 48.561,11.643 C49.415,11.659 49.325,10.715 49.68,10.239 C49.424,9.697 50.172,9.603 49.967,9.09 C50.719,7.331 51.735,5.846 52.352,4.111 C52.772,3.072 53.516,1.715 54.772,1.578 C55.127,2.551 54.497,3.56 54.532,4.527 C54.128,4.681 54.335,5.115 54.011,5.297 C53.587,6.606 52.925,7.803 52.714,9.194 C52.382,9.834 52.818,10.808 52.3,11.39 C52.321,11.658 52.181,12.005 52.392,12.224 C52.685,12.203 53.083,12.343 53.249,11.972 C53.501,11.33 53.778,10.69 54.03,10.05 C54.341,9.089 55.022,8.27 55.626,7.394 C55.804,6.378 56.796,6.154 57.524,5.683 C57.948,5.745 58.331,5.268 58.725,5.624 C59.182,5.418 59.641,5.022 60.149,5.005 C60.444,4.903 60.6,5.175 60.784,5.339 C60.771,5.875 60.18,6.16 60.17,6.697 C59.654,7.224 60.088,8.28 59.76,8.812 C59.106,9.578 58.008,9.799 57.221,10.51 C56.084,11.429 55.16,12.352 54.053,13.218 C53.096,14.436 51.545,14.731 50.305,15.46 C49.803,16.552 48.422,16.364 47.815,17.482 C47.46,17.878 47.45,18.415 47.282,18.895 C47.608,20.03 47.161,21.123 47.087,22.249 C46.595,23.019 46.257,23.898 46.026,24.808 C45.925,24.953 45.836,25.11 45.749,25.271 C45.501,26.444 45.288,28.841 45.288,28.841 L45.379,29.694 C45.414,29.78 45.439,29.871 45.48,29.954 C45.426,30.212 45.358,30.473 45.289,30.734 C45.618,30.696 45.948,30.658 46.279,30.627 C46.434,30.034 46.62,29.449 46.861,28.877 C46.947,28.503 47.193,28.239 47.252,27.865 C47.363,27.57 47.682,27.711 47.897,27.66 C48.293,27.856 48.772,27.865 49.168,28.088 C49.807,28.18 50.475,28.03 50.727,27.391 C50.829,26.239 50.534,24.916 51.03,23.932 C50.882,23.365 51.288,23.077 51.561,22.705 C52.75,23.291 54.059,24.605 54.704,25.744 C55.206,26.129 55.704,26.568 56.425,26.421 C57.28,24.932 56.941,23.1 57.927,21.666 L58.247,21.672 C59.276,22.229 59.52,23.389 60.308,24.102 C60.488,24.535 60.396,25.177 61.007,25.323 C61.782,25.203 62.171,24.35 62.556,23.74 C62.87,22.538 63.611,21.369 64.167,20.17 C64.517,19.988 64.474,19.451 64.927,19.486 C65.296,19.708 65.019,20.267 65.173,20.511 C65.372,21.401 65.972,22.11 66.087,23.053 C66.107,23.483 65.726,23.932 66.116,24.395 C66.27,24.666 66.563,24.672 66.831,24.677 C67.477,24.366 67.782,23.674 68.192,23.145 C68.659,22.456 68.885,21.653 69.458,21.046 C69.212,22.76 69.368,24.483 68.964,26.193 C69.857,26.908 71.437,26.56 72.734,27.095 C73.478,27.269 74.054,27.79 74.769,28.044 C75.562,28.435 76.134,29.224 76.845,29.802 C76.886,30.448 76.712,31.169 76.941,31.738 C76.595,33.209 76.33,34.627 75.824,36.042 C75.891,36.929 75.636,37.736 75.28,38.495 C75.585,38.715 75.889,38.935 76.188,39.162 C76.621,38.179 76.637,37.118 77.048,36.144 C76.9,35.498 77.359,35.103 77.212,34.456 C77.366,33.356 78.103,32.431 78.042,31.327 C77.411,30.833 78.249,30.257 77.806,29.712 C77.952,29.043 77.07,29.108 77.001,28.515 C76.14,27.479 74.972,27.19 74.026,26.419 C72.807,25.94 71.374,25.618 70.208,25.248 C70.341,23.801 70.581,22.327 70.554,20.932 C70.433,20.23 70.37,19.342 69.548,19.113 C68.249,20.003 67.978,21.743 66.997,22.854 C66.579,22.416 66.968,21.564 66.309,21.176 C66.506,20.588 66.03,20.283 66.094,19.747 C66.209,19.266 65.332,19.143 65.582,18.582 C65.268,18.256 64.982,17.794 64.445,17.972 C63.463,19.243 62.982,20.739 61.998,22.009 C62.252,22.767 61.605,23.157 61.328,23.716 C60.969,22.931 60.207,22.3 59.848,21.513 C59.567,20.864 58.707,21.224 58.588,20.443 C58.049,20.675 57.609,19.942 57.254,20.553 C56.816,21.082 56.803,21.753 56.367,22.282 C55.955,23.026 56.246,24.591 55.492,24.844 C54.39,23.91 53.426,22.739 52.211,22.071 C53.254,20.506 54.633,19.429 56.066,18.274 C57.087,17.863 57.728,16.452 58.978,16.582 C59.435,16.349 59.97,16.305 60.451,16.18 C62.441,15.33 64.67,15.961 66.597,15.513 C68.197,15.542 70.009,15.575 71.714,15.607 C72.464,15.487 73.259,15.77 73.433,16.418 C75.005,17.952 76.689,19.298 78.48,20.486 C78.853,20.493 78.972,21.273 79.509,21.042 C79.821,22.9 81.021,24.453 80.743,26.41 C81.069,27.516 80.438,28.553 80.684,29.631 C80.385,29.949 80.721,30.572 80.289,30.833 C80.465,31.373 79.873,31.738 80.264,32.203 C79.604,33.264 79.768,34.53 79.16,35.594 C78.734,37.063 78.705,38.619 78.199,40.033 C77.956,40.088 77.691,40.116 77.421,40.134 C77.924,40.546 78.415,40.971 78.898,41.405 C78.98,41.276 79.066,41.146 79.143,41.018 C81.36,40.843 83.561,41.394 85.78,41.247 C87.108,41.485 88.243,42.124 89.46,42.602 C89.911,42.691 90.06,43.473 90.622,43.268 C91.438,43.901 92.546,44.486 92.417,45.692 C92.806,46.37 92.175,47.272 92.509,48.03 C92.366,48.538 92.249,49.073 92.212,49.635 C90.983,49.721 90.071,48.63 88.929,48.34 C87.599,48.467 86.278,48.115 84.963,48.149 C85.203,48.481 85.444,48.812 85.675,49.151 C86.779,49.138 87.886,49.237 88.965,49.178 L88.965,49.178 Z M35.721,28.407 C34.004,28.94 32.248,28.719 30.539,28.85 C28.922,28.336 27.053,28.491 25.685,27.472 C25.371,27.117 25.515,26.501 25.576,26.1 C26.017,25.329 26.902,25.077 27.728,24.984 C28.98,25.196 30.255,25.327 31.421,25.751 C31.812,24.764 30.165,24.519 30.235,23.473 C30.087,22.88 29.969,21.992 30.407,21.488 C31.245,20.833 33.032,20.811 33.6,21.816 C34.387,23.953 35.444,25.987 36.096,28.227 C36.119,28.495 35.803,28.248 35.721,28.407 L35.721,28.407 Z M49.775,26.812 C49.211,27.016 48.66,26.604 48.179,26.594 C48.7,25.852 49.486,25.141 50.06,24.371 C49.781,25.093 49.471,25.974 49.775,26.812 L49.775,26.812 Z M49.775,26.812" id="Shape"></path>
                        <path d="M77.421,40.137 C77.016,39.804 76.602,39.483 76.185,39.165 C76.061,39.448 75.908,39.725 75.694,39.99 C76.205,40.129 76.828,40.175 77.421,40.137 L77.421,40.137 Z M77.421,40.137" id="Shape"></path>
                        <path d="M58.877,77.312 C58.664,77.363 58.633,77.603 58.549,77.763 C58.758,77.982 58.645,78.355 58.988,78.55 C59.23,78.419 59.738,78.321 59.64,77.917 C59.566,77.593 59.361,77.132 58.877,77.312 L58.877,77.312 Z M58.877,77.312" id="Shape"></path>
                        <path d="M68.359,35.721 C69.125,36.001 70.05,35.834 70.896,35.722 C70.278,35.382 69.651,35.055 69.014,34.745 C68.773,35.061 68.53,35.381 68.359,35.721 L68.359,35.721 Z M68.359,35.721" id="Shape"></path>
                        <path d="M33.711,50.743 C33.732,51.04 34.049,51.234 34.344,51.159 C34.428,50.945 34.959,51.062 34.807,50.63 C34.815,50.228 34.5,49.927 34.045,50.052 C33.828,50.128 33.637,50.421 33.711,50.743 L33.711,50.743 Z M33.711,50.743" id="Shape"></path>
                        <path d="M32.49,54.778 C33.021,55.003 33.793,55.016 34.33,54.811 C35.957,54.788 36.947,53.166 37.795,51.975 C38.115,50.555 36.932,49.594 36.121,48.721 C35.641,48.819 35.297,48.571 34.844,48.588 C34.752,49.313 35.471,49.326 35.836,49.762 C35.801,50.192 35.529,50.535 35.44,50.963 C35.055,51.654 34.352,52.099 33.555,52.029 C33.053,51.805 32.686,51.476 32.561,50.91 C32.838,50.459 32.77,49.76 33.415,49.529 C33.579,49.317 34.081,49.488 33.929,49.082 C33.857,48.651 33.613,48.916 33.37,48.937 C32.378,49.269 31.829,50.171 31.731,51.164 C31.409,51.318 31.456,51.643 31.45,51.937 C31.038,52.575 31.098,53.677 31.352,54.379 C31.693,54.603 31.98,54.903 32.49,54.778 L32.49,54.778 Z M32.49,54.778" id="Shape"></path>
                        <path d="M35.838,42.404 C35.176,42.176 34.975,42.952 35.127,43.357 C35.293,43.012 35.961,42.942 35.838,42.404 L35.838,42.404 Z M35.838,42.404" id="Shape"></path>
                        <path d="M51.672,118.438 C51.447,118.997 50.957,119.579 50.549,120.081 C49.975,120.878 48.955,121.155 48.672,122.061 C47.592,122.848 46.561,123.768 45.125,123.608 C44.668,123.815 44.082,123.67 43.705,123.958 C42.607,124.073 41.611,123.167 40.568,123.39 C40.308,122.929 39.695,122.892 39.625,122.408 C39.949,122.252 40.457,122.181 40.721,122.293 C41.987,121.672 43.276,121.158 44.541,120.51 C45.994,119.731 47.139,118.463 48.174,117.219 C48.306,116.821 48.47,116.424 48.643,116.024 C48.193,116.008 47.745,115.981 47.298,115.952 C46.249,117.044 45.027,118.003 43.852,118.807 C42.344,119.559 40.627,120.196 38.846,119.868 C38.237,119.643 37.684,119.231 36.991,119.19 C36.907,119.405 36.696,119.292 36.563,119.317 C36.247,119.069 35.577,119.327 35.477,118.84 C36.475,118.348 35.752,116.965 36.803,116.42 C36.703,116.016 37.088,115.404 36.504,115.205 C35.113,115.449 34.043,117.014 32.561,116.476 C32.032,116.333 31.286,116.185 30.645,116.308 C28.838,115.898 27.032,115.515 25.229,114.999 C24.622,114.61 24.661,113.94 24.19,113.476 C23.856,112.718 24.735,112.894 25.083,112.794 C26.312,112.708 27.565,112.704 28.743,112.403 C29.173,112.251 29.679,112.286 30.032,111.917 C30.539,111.979 30.96,111.827 31.38,111.667 C30.91,111.435 30.442,111.198 29.981,110.95 C28.884,111.307 27.794,111.675 26.648,111.854 C25.976,112.137 25.101,111.799 24.457,112.083 C24.027,112.237 23.445,111.985 23.168,112.571 C22.941,113.237 23.549,113.598 23.537,114.188 C23.93,114.758 24.32,115.196 24.789,115.743 C26.545,116.071 28.238,116.692 29.99,117.126 C31.703,116.837 33.763,117.948 35.252,116.712 C35.246,117.009 35.238,117.464 35.231,117.814 C35.088,118.349 34.288,118.441 34.329,119.033 C34.591,119.416 34.794,119.902 35.325,120.072 C36.071,120.058 36.79,120.152 37.509,120.246 C37.823,120.549 38.247,120.637 38.646,120.777 C38.99,120.838 39.447,120.685 39.658,120.797 C42.142,120.572 44.482,119.598 46.193,117.828 C46.3,117.723 46.597,117.594 46.699,117.838 C46.662,118.4 45.939,118.602 45.773,118.922 C44.017,120.178 42.107,121.029 40.044,121.502 C39.37,121.92 38.53,121.152 37.985,121.867 C37.954,122.109 38.11,122.273 38.214,122.435 C39.013,122.531 39.319,123.314 39.734,123.886 C40.084,123.784 40.265,124.083 40.502,124.304 C41.545,124.134 42.543,124.986 43.613,124.736 C44.232,124.453 45.164,124.496 45.937,124.509 C46.607,124.28 47.304,124.105 47.876,123.525 C49.288,123.523 49.269,121.67 50.474,121.371 C50.972,120.412 52.257,120.141 52.173,118.904 C52.521,117.994 52.499,116.994 52.383,116.013 C52.133,116.025 51.879,116.023 51.627,116.031 C51.667,116.818 51.74,117.594 51.672,118.438 L51.672,118.438 Z M51.672,118.438" id="Shape"></path>
                        <path d="M49.342,113.102 C49.504,113.053 49.608,113.215 49.713,113.297 C49.457,114.236 49.025,115.135 48.643,116.022 C49.189,116.043 49.735,116.065 50.286,116.065 C50.735,116.065 51.18,116.044 51.625,116.03 C51.604,115.639 51.588,115.245 51.604,114.837 C51.424,114.458 50.948,114.341 51.061,113.86 C50.999,112.999 50.881,112.112 50.389,111.323 C50.096,109.866 48.444,109.729 47.83,108.376 C45.344,108.626 42.871,108.259 40.387,108.507 C39.752,108.2 39.037,108.027 38.373,107.745 C37.178,108.958 35.494,109.169 33.914,109.544 C33.537,109.778 33.769,110.267 33.842,110.564 C33.516,110.908 33.164,111.197 32.787,111.376 C32.256,111.325 31.818,111.501 31.379,111.667 C36.237,114.062 41.614,115.558 47.298,115.95 C48.128,115.084 48.852,114.137 49.342,113.102 L49.342,113.102 Z M49.342,113.102" id="Shape"></path>
                        <path d="M32.502,109.57 C31.535,109.875 31.098,108.98 30.217,109.072 C29.928,108.799 29.5,108.871 29.268,108.49 C28.998,108.674 28.875,108.08 28.68,108.48 C26.858,107.56 24.869,106.933 23.102,105.853 C22.129,105.136 22,103.496 20.586,103.498 C20.473,103.234 20.308,103.021 20.139,102.85 C20.011,102.717 19.063,102.459 18.898,102.358 C22.085,105.792 25.824,108.706 29.981,110.95 C30.93,110.641 31.885,110.339 32.89,110.171 C32.814,109.926 32.793,109.658 32.502,109.57 L32.502,109.57 Z M32.502,109.57" id="Shape"></path>
                        <path d="M19.342,101.691 C18.915,100.781 18.585,99.863 18.297,98.863 C18.522,98.248 18.854,97.529 19.553,97.273 C20.481,97.64 21.158,98.431 21.569,99.324 C22.899,100.961 19.061,102.342 21.497,103.246 C22.532,103.586 22.903,105.15 24.018,105.359 C25.278,106.511 27.086,106.759 28.563,107.646 C29.284,107.605 29.94,108.207 30.549,108.378 C31.289,108.661 32.182,108.114 32.783,108.741 C32.863,108.663 32.865,108.555 32.974,108.477 C32.029,107.653 30.533,107.815 29.673,106.698 C29.343,105.723 29.763,104.659 29.728,103.663 C29.999,103.454 30.136,103.214 30.142,102.892 L32.488,100.089 C33.511,99.462 32.924,98.109 33.314,97.202 C33.05,97.011 33.324,96.612 33.007,96.444 C32.208,96.376 32.068,96.831 31.269,96.735 C29.001,96.721 26.679,96.866 24.49,97.042 C23.345,96.858 22.131,96.325 20.902,96.331 C20.273,95.837 19.117,96.298 18.759,95.405 C19.788,94.538 20.794,93.561 22.005,92.94 C24.058,91.501 26.651,91.063 28.825,90.352 C29.196,90.493 29.548,90.176 29.973,90.266 C30.989,90.123 31.905,89.602 32.948,89.407 C32.485,88.512 32.8,87.337 32.739,86.315 C32.882,85.833 33.022,85.379 33.137,84.897 L33.155,83.985 C32.413,83.729 31.764,84.147 31.046,84.161 C30.238,84.63 29.25,84.72 28.338,85 C26.686,84.916 25.022,85.502 23.471,85.689 C22.364,85.023 21.301,87.664 20.965,85.697 C22.231,84.967 21.297,83.5 22.826,83.045 C23.797,82.445 23.666,80.938 24.972,80.883 C25.677,80.25 26.538,79.756 27.294,79.313 C27.86,78.868 28.608,78.829 29.179,78.381 C29.603,78.551 29.769,78.123 30.193,78.266 C30.658,77.629 31.48,77.967 31.994,77.52 C33.758,77.284 35.584,76.672 37.267,76.461 C38.415,76.294 39.525,76.852 40.644,76.926 C41.675,77.428 41.99,76.359 42.398,75.776 C42.437,75.159 43.031,74.767 43.334,74.261 C44.723,74.125 45.957,75.197 47.348,74.981 C49.151,75.55 50.985,74.402 52.791,74.811 C53.463,74.5 53.715,73.834 54.232,73.307 C54.648,72.374 54.691,71.435 54.789,70.47 C55.793,69.574 55.5,68.091 56.133,67.03 C56.752,65.268 57.42,63.75 58.83,62.486 C57.402,61.789 57.916,59.89 56.545,59.168 C55.652,58.318 54.16,58.291 53.756,56.994 C52.733,56.143 52.596,54.824 51.516,54.107 C51.334,53.807 51.207,53.51 51.268,53.134 C52.01,51.886 53.049,50.508 53.399,48.929 C53.899,46.308 55.801,44.355 57.592,42.668 C56.287,42.616 55.281,42.196 54.031,41.958 C53.822,41.847 53.72,41.442 53.398,41.569 C52.502,41.016 52.628,39.917 51.896,39.233 C51.068,39.217 50.554,39.611 49.777,39.838 C48.58,39.707 47.187,40.006 46.131,39.502 C45.649,39.628 45.445,39.087 44.99,39.106 C44.26,38.233 44.845,36.847 44.168,35.975 C44.068,35.624 44.496,35.471 44.689,35.233 C44.699,34.696 44.089,34.417 44.314,33.802 C44.651,32.783 45.016,31.749 45.287,30.736 C43.221,30.977 41.198,31.36 39.232,31.884 C39.341,32.107 39.48,32.33 39.431,32.557 C39.632,33.205 40.31,33.97 40.535,34.834 C40.394,35.262 40.808,35.939 40.506,36.445 C40.647,37.575 40.174,38.588 39.994,39.658 C39.515,41.019 38.691,42.32 38.056,43.545 C37.372,44.444 36.312,45.555 35.04,45.154 C34.526,44.017 33.601,45.128 32.903,45.25 C32.341,45.508 31.649,45.307 31.202,44.977 C30.757,44.62 30.577,44.132 30.317,43.78 C29.348,44.298 27.895,44.971 26.924,44.12 C26.904,43.718 26.59,43.416 26.436,43.063 C26.118,43.031 26.036,43.11 25.797,42.999 L25.66,43.185 L23.662,43.094 C23.269,44.187 22.373,45.058 21.82,46.095 C21.172,46.62 20.662,46.827 20.011,47.353 C18.852,47.425 18.261,46.434 17.605,45.601 C16.785,46.569 16.009,47.575 15.277,48.615 C15.292,48.612 15.307,48.613 15.322,48.609 C16.355,48.951 17.552,49.161 18.634,49.691 C19.347,50.106 18.743,51.062 19.105,51.634 C19.013,52.357 19.289,53.275 18.667,53.773 C18.226,54.544 17.2,53.773 16.733,54.491 C16.309,54.295 16.006,54.908 15.721,54.365 C15.299,54.195 14.791,54.186 14.506,53.697 C14.326,53.345 14.416,52.863 14.424,52.461 C14.912,51.934 15.43,51.404 16.147,51.471 C16.516,51.775 16.295,52.119 16.209,52.493 C16.043,52.812 15.744,53.049 15.473,53.312 C15.791,53.48 16.159,53.835 16.51,53.519 C16.994,53.314 17.707,53.621 18.115,53.172 C18.494,52.884 18.345,52.37 18.379,51.942 C18.174,51.535 18.289,50.973 18.164,50.541 C17.795,50.348 17.779,49.729 17.269,49.881 C16.474,49.622 15.679,49.33 14.842,49.224 C13.278,51.527 11.93,53.989 10.832,56.582 C10.94,56.85 11.128,57.093 11.454,57.295 C12.343,58.225 13.415,59.345 14.856,59.291 C15.305,59.514 15.999,59.527 16.456,59.32 C18.456,59.33 20.317,58.181 21.308,56.508 C23.792,54.781 22.71,51.27 25.091,49.434 C26.013,48.538 26.986,47.963 28.134,47.743 C29.183,47.253 30.333,47.085 31.409,46.596 C31.915,46.605 32.378,46.103 32.878,46.488 C33.786,46.343 34.249,47.292 34.909,47.679 C35.872,47.564 36.632,48.276 37.397,48.747 C37.551,49.017 38.266,49.272 38.071,49.806 C38.516,50.191 38.452,50.753 38.55,51.292 C38.427,52.177 38.013,52.946 37.759,53.722 C37.318,54.52 36.431,54.878 35.861,55.487 C34.705,55.949 33.478,55.98 32.279,55.959 C31.644,55.625 30.791,55.582 30.488,54.744 C30.42,54.098 30.162,53.502 30.283,52.752 C30.611,52.329 30.172,51.569 30.685,51.202 C30.503,50.93 31.123,50.673 30.642,50.638 C30.419,51.198 29.775,51.347 29.474,51.772 C29.247,52.52 28.57,53.098 28.263,53.817 C27.546,55.202 27.302,56.807 27.036,58.307 C26.991,59.194 27.106,60.19 26.852,61.016 C26.932,62.387 25.928,63.416 25.399,64.589 C24.995,64.823 24.719,65.248 24.473,65.593 C25.557,66.203 26.834,66.308 28.028,66.625 C30.477,66.911 32.946,67.521 35.376,67.404 L38.974,67.469 C40.632,67.151 42.267,66.83 43.849,66.27 C45.421,64.874 47.275,64.156 48.896,62.897 C48.941,62.038 49.929,61.921 50.341,61.232 C50.612,60.941 50.792,61.32 51.058,61.378 C51.388,62.378 50.394,62.79 50.378,63.622 C49.853,64.66 49.034,65.585 48.327,66.351 C47.72,67.521 46.427,68.196 45.53,69.066 C44.641,69.614 43.675,69.972 42.887,70.709 C41.492,71.167 40.049,71.383 38.701,72.057 C37.525,72.197 36.529,72.744 35.226,72.503 C34.902,72.767 34.347,72.461 34.074,72.858 L30.289,72.789 C29.943,72.648 29.625,72.535 29.283,72.394 C28.217,72.267 27.209,71.98 26.142,72.068 C25.605,72.273 25.38,72.86 25.105,73.285 C24.656,74.646 23.933,76.138 23.75,77.451 C23.16,77.601 22.795,77.164 22.289,77.154 C20.033,76.55 18.6,74.751 16.644,73.775 C15.878,73.304 15.064,72.618 14.705,71.859 C14.105,71.097 13.426,70.333 13.205,69.388 C12.982,69.867 12.549,70.288 12.486,70.798 C12.365,71.547 12.322,72.406 12.683,73.058 C13.191,74.437 13.804,75.871 15.04,76.834 C15.606,78 17.102,77.758 17.7,78.629 C16.991,79.557 16.067,80.479 14.868,80.377 C14.561,81.123 13.745,80.518 13.313,80.859 C11.251,81.384 9.93,79.185 8.176,78.83 C8.043,78.808 7.926,78.746 7.817,78.671 C8.905,87.285 12.549,95.098 17.971,101.331 C18.02,101.258 19.396,101.809 19.342,101.691 L19.342,101.691 Z M19.342,101.691" id="Shape"></path>
                        <path d="M28.459,40.47 C28.49,40.201 28.895,40.074 28.846,39.779 C28.741,39.67 28.664,39.506 28.477,39.556 C27.829,40.054 27.045,40.524 27.348,41.55 C27.855,41.425 28.16,40.866 28.459,40.47 L28.459,40.47 Z M28.459,40.47" id="Shape"></path>
                        <path d="M6.621,76.812 C5.535,76.362 5.213,75.094 4.342,74.567 C2.42,73.269 3.186,70.786 1.748,69.122 C1.701,67.348 1.279,65.567 1.338,63.823 C1.383,62.884 2.016,61.848 1.658,60.875 C2.492,59.117 2.367,57.154 3.174,55.423 C4.567,52.118 7.221,49.857 8.824,46.743 C9.553,46.273 10.129,45.371 10.967,44.848 C11.92,45.243 12.824,45.286 13.643,45.811 C14.942,46.211 15.786,45.259 16.676,44.711 C17.033,44.911 17.325,45.242 17.608,45.6 C17.796,45.379 17.986,45.16 18.178,44.942 C17.997,44.754 17.819,44.595 17.639,44.514 C16.934,43.748 18.301,43.318 18.317,42.485 C18.378,42.085 18.467,41.522 18.26,41.196 C17.541,41.075 16.949,41.413 16.28,41.536 C15.61,41.765 15.464,42.46 15.346,43.077 C15.606,43.403 15.543,43.886 15.725,44.237 C15.184,44.63 14.616,45.023 13.846,44.848 C13.377,44.221 12.575,44.395 11.94,44.167 C11.571,43.919 11.061,44.045 10.608,44.009 C7.235,46.151 6.385,50.377 3.536,53.038 C3.136,54.615 1.595,55.689 1.774,57.518 C1.491,58.505 1.629,59.583 0.948,60.456 C0.895,61.88 0.575,63.378 0.628,64.829 C0.636,65.903 0.909,67.036 0.808,68.136 C1.208,69.594 1.744,70.974 2.142,72.405 C3.249,73.176 2.41,75.337 4.277,75.344 C5.033,76.271 5.584,76.764 6.394,77.638 C7.024,77.628 7.342,78.336 7.826,78.666 C7.78,78.3 7.726,77.937 7.689,77.569 C7.326,77.328 6.97,77.076 6.621,76.812 L6.621,76.812 Z M16.449,42.505 C16.64,42.294 16.588,42.132 16.91,42.138 C17.123,42.089 17.336,42.173 17.412,42.335 C17.324,42.79 16.814,42.969 16.621,43.341 C16.383,43.203 16.311,42.771 16.449,42.505 L16.449,42.505 Z M16.449,42.505" id="Shape"></path>
                        <path d="M32.619,40.491 C32.33,40.299 32.058,40.508 31.791,40.53 C31.652,40.903 31.086,41.188 31.264,41.756 C31.594,41.144 32.393,41.158 32.619,40.491 L32.619,40.491 Z M32.619,40.491" id="Shape"></path>
                        <path d="M7.688,77.571 C8.797,78.318 9.962,78.978 11.157,79.607 C12.139,79.841 13.331,80.32 14.3,79.773 C14.804,79.97 14.976,79.355 15.452,79.552 C15.749,79.288 16.181,79.056 16.372,78.79 L15.921,78.647 C14.796,77.551 13.374,76.505 12.841,75.045 C11.529,73.866 11.747,72.07 11.78,70.324 C12.233,68.936 12.499,67.491 13.268,66.243 C13.59,66.141 13.893,65.609 14.231,65.991 C14.065,66.391 14.03,66.875 13.704,67.218 C13.583,67.994 13.839,68.616 13.905,69.344 C14.622,71.049 15.79,72.736 17.561,73.52 C19.141,74.624 20.639,75.886 22.497,76.324 L23.136,76.47 C23.458,74.866 24.04,73.559 24.681,72.12 C25.111,71.913 25.341,71.004 26.029,71.366 C27.795,71.049 29.4,72.126 31.136,71.97 C32.304,72.314 33.486,71.879 34.657,71.901 C35.928,72.434 36.622,70.997 37.868,71.315 C39.739,71.081 41.386,70.09 43.153,69.612 C45.526,68.125 48.342,65.84 49.35,63.226 C48.936,63.915 48.182,64.332 47.586,64.858 C46.275,65.103 45.475,66.593 44.109,66.917 C43.297,67.573 42.177,67.419 41.341,67.968 C40.566,68.088 39.71,68.234 39.013,68.435 C37.947,68.47 36.802,68.289 35.812,68.511 C32.666,68.453 29.56,67.726 26.419,67.319 C25.464,67.059 24.487,66.558 23.499,66.621 C23.397,66.351 23.136,66.132 23.249,65.784 C24.04,64.805 24.698,63.769 25.489,62.79 C26.202,61.702 26.093,60.436 26.327,59.259 C26.147,58.907 26.157,58.318 26.35,57.972 C26.27,56.546 26.426,55.233 27.299,54.255 C27.264,53.261 28.285,52.742 28.383,51.805 C29.414,50.856 30.498,49.962 31.369,48.904 C32.123,48.543 32.75,47.775 33.707,47.927 C33.978,47.636 33.477,47.411 33.398,47.33 C32.998,47.296 32.578,47.018 32.224,47.309 C31.454,47.187 30.986,47.957 30.191,47.782 C28.957,48.109 27.912,48.439 26.832,49.144 C25.592,49.954 25.061,51.314 24.078,52.451 C24.197,53.205 23.598,53.946 23.664,54.619 C23.295,55.901 22.139,56.39 21.691,57.564 C21.271,58.658 20.175,58.798 19.414,59.591 C18.719,59.685 18.178,60.079 17.484,60.12 C16.433,60.69 15.377,60.134 14.388,60.251 C13.964,60.081 13.431,60.099 13.064,59.716 C12.13,59.833 12.152,58.571 11.3,58.476 C11.031,58.136 10.737,57.809 10.486,57.467 C8.546,62.353 7.468,67.675 7.468,73.253 C7.471,74.709 7.545,76.15 7.688,77.571 L7.688,77.571 Z M7.688,77.571" id="Shape"></path>
                        <path d="M12.814,48.697 C12.324,49.279 11.464,49.692 11.369,50.469 C10.5,51.365 10.398,52.6 9.926,53.666 C10.317,54.21 9.61,54.815 10.002,55.278 C9.728,56.173 10.035,56.843 10.488,57.463 C10.605,57.169 10.714,56.871 10.837,56.58 C10.517,55.783 10.917,54.756 10.613,53.867 C11.043,52.343 11.736,50.905 12.797,49.717 C13.414,49.594 13.928,49.174 14.594,49.186 C14.679,49.192 14.762,49.211 14.847,49.222 C14.987,49.016 15.136,48.817 15.28,48.614 C14.385,48.805 13.562,48.103 12.814,48.697 L12.814,48.697 Z M12.814,48.697" id="Shape"></path>
                    </g>
                    <g id="jungwacht_blauring" transform="translate(50.000000, 153.000000)">
                        <path d="M1.227,15.307 L3.712,15.307 L3.712,18.469 L3.737,18.469 C4.114,17.918 4.78,17.59 5.52,17.59 C7.704,17.59 8.294,19.447 8.294,20.981 C8.294,22.612 7.402,24.434 5.557,24.434 C4.339,24.434 3.963,23.969 3.649,23.555 L3.624,23.555 L3.624,24.27 L1.227,24.27 L1.227,15.307 L1.227,15.307 Z M4.716,19.398 C3.825,19.398 3.624,20.24 3.624,21.005 C3.624,21.782 3.825,22.624 4.716,22.624 C5.609,22.624 5.809,21.782 5.809,21.005 C5.809,20.24 5.608,19.398 4.716,19.398 L4.716,19.398 Z M4.716,19.398" id="Shape"></path>
                        <path d="M11.37,15.307 L13.856,15.307 L13.856,24.27 L11.37,24.27 L11.37,15.307 L11.37,15.307 Z M11.37,15.307" id="Shape"></path>
                        <path d="M23.585,22.812 C23.585,23.302 23.61,23.855 23.886,24.269 L21.351,24.269 C21.289,24.093 21.251,23.828 21.263,23.654 L21.238,23.654 C20.711,24.258 19.946,24.433 19.142,24.433 C17.886,24.433 16.844,23.828 16.844,22.46 C16.844,20.401 19.255,20.478 20.523,20.239 C20.862,20.177 21.201,20.075 21.201,19.661 C21.201,19.222 20.787,19.057 20.385,19.057 C19.619,19.057 19.469,19.446 19.456,19.723 L17.146,19.723 C17.221,17.889 18.954,17.588 20.498,17.588 C23.611,17.588 23.586,18.881 23.586,20.137 L23.586,22.812 L23.585,22.812 Z M21.2,21.344 C20.898,21.494 20.559,21.582 20.221,21.658 C19.669,21.783 19.38,21.922 19.38,22.361 C19.38,22.662 19.706,22.963 20.158,22.963 C20.723,22.963 21.163,22.625 21.2,21.947 L21.2,21.344 L21.2,21.344 Z M21.2,21.344" id="Shape"></path>
                        <path d="M33.642,24.27 L31.244,24.27 L31.244,23.442 L31.219,23.442 C30.754,24.094 30.089,24.434 29.097,24.434 C27.93,24.434 26.864,23.717 26.864,22.223 L26.864,17.754 L29.349,17.754 L29.349,21.17 C29.349,21.922 29.436,22.449 30.165,22.449 C30.592,22.449 31.156,22.236 31.156,21.193 L31.156,17.754 L33.642,17.754 L33.642,24.27 L33.642,24.27 Z M33.642,24.27" id="Shape"></path>
                        <path d="M36.956,17.754 L39.341,17.754 L39.341,18.795 L39.366,18.795 C39.767,18.018 40.296,17.59 41.198,17.59 C41.45,17.59 41.688,17.629 41.927,17.692 L41.927,19.889 C41.677,19.799 41.45,19.725 40.948,19.725 C39.969,19.725 39.441,20.303 39.441,21.696 L39.441,24.27 L36.956,24.27 L36.956,17.754 L36.956,17.754 Z M36.956,17.754" id="Shape"></path>
                        <path d="M47.024,17.051 L44.538,17.051 L44.538,15.307 L47.024,15.307 L47.024,17.051 L47.024,17.051 Z M44.538,17.754 L47.024,17.754 L47.024,24.27 L44.538,24.27 L44.538,17.754 L44.538,17.754 Z M44.538,17.754" id="Shape"></path>
                        <path d="M50.4,17.754 L52.798,17.754 L52.798,18.582 L52.822,18.582 C53.287,17.93 53.953,17.59 54.945,17.59 C56.111,17.59 57.178,18.305 57.178,19.799 L57.178,24.27 L54.693,24.27 L54.693,20.854 C54.693,20.102 54.605,19.575 53.877,19.575 C53.45,19.575 52.885,19.788 52.885,20.829 L52.885,24.27 L50.4,24.27 L50.4,17.754 L50.4,17.754 Z M50.4,17.754" id="Shape"></path>
                        <path d="M67.136,23.43 C67.136,24.721 66.796,26.541 63.745,26.541 C62.202,26.541 60.569,26.129 60.345,24.369 L62.805,24.369 C62.829,24.433 62.893,24.519 62.943,24.596 C63.093,24.821 63.357,25.075 63.672,25.075 C64.475,25.075 64.651,24.118 64.651,23.579 L64.651,22.977 L64.627,22.977 C64.226,23.555 63.622,23.881 62.882,23.881 C60.961,23.881 60.095,22.449 60.095,20.705 C60.095,19.008 61.062,17.59 62.919,17.59 C63.648,17.59 64.338,17.879 64.627,18.543 L64.651,18.543 L64.651,17.754 L67.137,17.754 L67.137,23.43 L67.136,23.43 Z M63.696,22.285 C64.612,22.285 64.712,21.406 64.712,20.68 C64.712,19.963 64.36,19.399 63.633,19.399 C62.93,19.399 62.578,20.003 62.578,20.692 C62.578,21.432 62.805,22.285 63.696,22.285 L63.696,22.285 Z M63.696,22.285" id="Shape"></path>
                        <path d="M0.145,9.17 L0.56,9.17 C1.062,9.17 1.249,8.994 1.249,8.367 L1.249,2.529 L3.735,2.529 L3.735,8.605 C3.735,9.646 3.673,10.275 3.157,10.714 C2.692,11.116 1.902,11.14 1.311,11.153 L0.144,11.153 L0.144,9.17 L0.145,9.17 Z M3.735,1.826 L1.249,1.826 L1.249,0.082 L3.735,0.082 L3.735,1.826 L3.735,1.826 Z M3.735,1.826" id="Shape"></path>
                        <path d="M13.954,9.045 L11.556,9.045 L11.556,8.217 L11.532,8.217 C11.067,8.869 10.402,9.207 9.41,9.207 C8.243,9.207 7.176,8.492 7.176,6.998 L7.176,2.529 L9.662,2.529 L9.662,5.943 C9.662,6.697 9.75,7.224 10.478,7.224 C10.904,7.224 11.468,7.011 11.468,5.968 L11.468,2.529 L13.954,2.529 L13.954,9.045 L13.954,9.045 Z M13.954,9.045" id="Shape"></path>
                        <path d="M17.331,2.529 L19.729,2.529 L19.729,3.357 L19.753,3.357 C20.217,2.705 20.883,2.365 21.875,2.365 C23.042,2.365 24.109,3.08 24.109,4.576 L24.109,9.045 L21.623,9.045 L21.623,5.629 C21.623,4.877 21.535,4.35 20.808,4.35 C20.381,4.35 19.816,4.563 19.816,5.606 L19.816,9.045 L17.331,9.045 L17.331,2.529 L17.331,2.529 Z M17.331,2.529" id="Shape"></path>
                        <path d="M34.128,8.205 C34.128,9.496 33.79,11.316 30.739,11.316 C29.194,11.316 27.563,10.902 27.337,9.144 L29.798,9.144 C29.823,9.206 29.886,9.294 29.936,9.371 C30.087,9.598 30.351,9.85 30.665,9.85 C31.469,9.85 31.644,8.895 31.644,8.354 L31.644,7.752 L31.619,7.752 C31.218,8.33 30.616,8.654 29.874,8.654 C27.954,8.654 27.087,7.224 27.087,5.48 C27.087,3.783 28.054,2.365 29.912,2.365 C30.641,2.365 31.331,2.654 31.619,3.32 L31.644,3.32 L31.644,2.529 L34.129,2.529 L34.129,8.205 L34.128,8.205 Z M30.688,7.062 C31.604,7.062 31.706,6.181 31.706,5.455 C31.706,4.738 31.354,4.174 30.626,4.174 C29.923,4.174 29.571,4.778 29.571,5.467 C29.571,6.207 29.798,7.062 30.688,7.062 L30.688,7.062 Z M30.688,7.062" id="Shape"></path>
                        <path d="M45.69,9.045 L43.141,9.045 L42.2,5.039 L42.175,5.039 L41.208,9.045 L38.66,9.045 L36.626,2.529 L39.212,2.529 L40.179,6.558 L40.204,6.558 L41.033,2.529 L43.354,2.529 L44.221,6.558 L44.271,6.558 L45.174,2.529 L47.761,2.529 L45.69,9.045 L45.69,9.045 Z M45.69,9.045" id="Shape"></path>
                        <path d="M56.714,7.588 C56.714,8.078 56.738,8.631 57.015,9.045 L54.479,9.045 C54.416,8.869 54.378,8.606 54.391,8.43 L54.367,8.43 C53.84,9.034 53.074,9.207 52.269,9.207 C51.014,9.207 49.972,8.605 49.972,7.236 C49.972,5.177 52.382,5.254 53.651,5.015 C53.99,4.953 54.329,4.851 54.329,4.437 C54.329,3.998 53.914,3.835 53.513,3.835 C52.747,3.835 52.596,4.224 52.584,4.499 L50.273,4.499 C50.349,2.665 52.082,2.364 53.626,2.364 C56.739,2.364 56.715,3.657 56.715,4.913 L56.715,7.588 L56.714,7.588 Z M54.328,6.119 C54.026,6.269 53.688,6.359 53.349,6.433 C52.796,6.558 52.507,6.697 52.507,7.136 C52.507,7.437 52.833,7.74 53.286,7.74 C53.85,7.74 54.29,7.4 54.328,6.722 L54.328,6.119 L54.328,6.119 Z M54.328,6.119" id="Shape"></path>
                        <path d="M64.258,5.002 C64.233,4.738 64.146,4.525 63.982,4.389 C63.832,4.248 63.619,4.174 63.355,4.174 C62.4,4.174 62.262,5.002 62.262,5.793 C62.262,6.584 62.4,7.4 63.355,7.4 C63.894,7.4 64.271,6.961 64.322,6.445 L66.694,6.445 C66.456,8.216 65.062,9.207 63.304,9.207 C61.345,9.207 59.777,7.852 59.777,5.793 C59.777,3.734 61.345,2.365 63.304,2.365 C65.012,2.365 66.468,3.207 66.618,5.002 L64.258,5.002 L64.258,5.002 Z M64.258,5.002" id="Shape"></path>
                        <path d="M69.743,0.082 L72.229,0.082 L72.229,3.232 L72.254,3.232 C72.681,2.728 73.233,2.365 74.288,2.365 C75.455,2.365 76.523,3.08 76.523,4.576 L76.523,9.045 L74.037,9.045 L74.037,5.629 C74.037,4.877 73.949,4.35 73.221,4.35 C72.793,4.35 72.229,4.563 72.229,5.606 L72.229,9.045 L69.743,9.045 L69.743,0.082 L69.743,0.082 Z M69.743,0.082" id="Shape"></path>
                        <path d="M82.888,2.529 L84.22,2.529 L84.22,4.06 L82.888,4.06 L82.888,6.331 C82.888,6.935 83.027,7.198 83.654,7.198 C83.843,7.198 84.033,7.186 84.22,7.161 L84.22,9.044 C83.716,9.044 83.152,9.118 82.624,9.118 C81.569,9.118 80.402,8.954 80.402,7.173 L80.402,4.06 L79.298,4.06 L79.298,2.529 L80.402,2.529 L80.402,0.547 L82.887,0.547 L82.887,2.529 L82.888,2.529 Z M82.888,2.529" id="Shape"></path>
                    </g>
                </g>
            </g>
        </g>
    </g>
</svg>