<?xml version="1.0" encoding="UTF-8" standalone="no"?>
<svg width="1600px" height="410px" viewBox="0 0 1600 410" version="1.1" xmlns="http://www.w3.org/2000/svg" xmlns:xlink="http://www.w3.org/1999/xlink" xmlns:sketch="http://www.bohemiancoding.com/sketch/ns">
    <title>Slice 1</title>
    <description>Created with Sketch (http://www.bohemiancoding.com/sketch)</description>
    <defs></defs>
    <g id="Page 1" stroke="none" stroke-width="1" fill="none" fill-rule="evenodd">
        <g id="Artboard 1" transform="translate(0.000000, -439.000000)">
            <g id="Background" transform="translate(-1.000000, 629.000000)" fill="#40A3A2">
                <path d="M734.972656,15.7728993 C360.978629,15.7729071 1,0 1,0 L1,220 L1601,220 L1601,0 C1601,0 1160.97863,15.7728993 734.972656,15.7728993 Z M734.972656,15.7728993" id="hero bg"></path>
            </g>
            <g id="Group" transform="translate(1270.000000, 495.000000) scale(-1, 1) translate(-1270.000000, -495.000000) translate(1225.000000, 446.000000)">
                <g>
                    <path d="M43.7311828,98 C73.6337414,98 87.4623656,84.1536513 87.4623656,54.212766 C87.4623656,24.2718806 73.6337414,0 43.7311828,0 C13.8286242,0 0,24.2718806 0,54.212766 C0,84.1536513 13.8286242,98 43.7311828,98 Z M43.7311828,98" id="Oval 2" fill="#40A3A2"></path>
                    <path d="M27.9457481,40.3746194 C26.8630536,42.8004733 25.0666701,44.6367533 22.5011992,46.1381468 C22.2275643,46.282696 21.9422501,46.3655914 21.6374928,46.3655914 C21.0481955,46.3655914 20.5183746,46.0692468 20.2607041,45.5773712 C20.1105448,45.3203662 20.0215054,45.0509805 20.0215054,44.770688 C20.0215054,44.207038 20.3532468,43.7043058 20.8822347,43.453075 C22.718448,42.5287312 24.1773364,41.0714712 24.9870803,39.4216052 C25.9473724,37.4939417 26.2780743,35.9351225 26.2780743,32.9890888 C26.2780743,32.1197258 27.01966,31.6129032 27.8940617,31.6129032 C28.7340696,31.6129032 29.4640449,32.1363265 29.4640449,32.9890888 C29.4640449,35.91023 29.7936713,37.3885688 30.7924222,39.2735344 C31.6345158,40.8749617 33.2423507,42.4478892 35.0400933,43.3999643 C35.565077,43.6495575 35.827957,44.1598969 35.827957,44.6977821 C35.827957,44.9853798 35.7397013,45.2752813 35.5887583,45.5336276 L35.5497704,45.5944274 C35.2335574,46.0454391 34.7520318,46.2926855 34.2119696,46.2926855 C33.9095092,46.2926855 33.6046259,46.2087666 33.3015934,46.0479162 C30.9460348,44.6862149 29.0688525,42.7418092 27.9457481,40.3746194 Z M74.3113395,40.3746194 C73.228645,42.8004733 71.4322615,44.6367533 68.8667906,46.1381468 C68.5931557,46.282696 68.3078415,46.3655914 68.0030842,46.3655914 C67.4137869,46.3655914 66.883966,46.0692468 66.6262955,45.5773712 C66.4761362,45.3203662 66.3870968,45.0509805 66.3870968,44.770688 C66.3870968,44.207038 66.7188382,43.7043058 67.2478261,43.453075 C69.0840394,42.5287312 70.5429278,41.0714712 71.3526717,39.4216052 C72.3129638,37.4939417 72.6436657,35.9351225 72.6436657,32.9890888 C72.6436657,32.1197258 73.3852514,31.6129032 74.2596531,31.6129032 C75.099661,31.6129032 75.8296363,32.1363265 75.8296363,32.9890888 C75.8296363,35.91023 76.1592627,37.3885688 77.1580136,39.2735344 C78.0001072,40.8749617 79.6079421,42.4478892 81.4056847,43.3999643 C81.9306684,43.6495575 82.1935484,44.1598969 82.1935484,44.6977821 C82.1935484,44.9853798 82.1052927,45.2752813 81.9543497,45.5336276 L81.9153618,45.5944274 C81.5991488,46.0454391 81.1176232,46.2926855 80.577561,46.2926855 C80.2751006,46.2926855 79.9702173,46.2087666 79.6671848,46.0479162 C77.3116262,44.6862149 75.4344439,42.7418092 74.3113395,40.3746194 Z M74.3113395,40.3746194" id="人 人" fill="#FFFFFF"></path>
                </g>
                <path d="M25.8172043,56.9032258 C34.8232228,56.9032258 42.1505376,49.5763647 42.1505376,40.5698925 C42.1505376,31.5634203 34.8236765,24.2365591 25.8172043,24.2365591 C16.8107321,24.2365591 9.48387097,31.5634203 9.48387097,40.5698925 C9.48387097,49.5763647 16.8107321,56.9032258 25.8172043,56.9032258 Z M53.5523163,37.1904166 C55.1212594,28.6316593 62.5268527,22.1294933 71.4055724,22.1294933 C81.4209244,22.1294933 89.5698925,30.4019598 89.5698925,40.570123 C89.5698925,50.7382862 81.4213785,59.0107527 71.4055724,59.0107527 C61.3897663,59.0107527 53.2412523,50.7382862 53.2412523,40.570123 C53.2412523,40.1750325 53.2576002,39.7840911 53.282122,39.3954549 C51.6518743,37.8210861 49.964409,37.0521118 48.2687697,37.1166541 C45.940558,37.2107013 44.195875,38.814575 43.661844,39.3664109 C43.687274,39.7642675 43.7049843,40.1648901 43.7049843,40.569662 C43.7049843,50.7378252 35.5564703,59.0102917 25.5406642,59.0102917 C15.5248581,59.0102917 7.37634409,50.7378252 7.37634409,40.569662 C7.37634409,30.4014987 15.5248581,22.1290323 25.5406642,22.1290323 C34.4098476,22.1290323 41.8095375,28.6173678 43.3889251,37.1627556 C44.4560789,36.3306222 46.1276504,35.357879 48.1961124,35.2739741 C50.0470566,35.1956015 51.8430538,35.8428676 53.5523163,37.1904166 Z M71.1827957,56.9032258 C80.1888142,56.9032258 87.516129,49.5763647 87.516129,40.5698925 C87.516129,31.5634203 80.1892679,24.2365591 71.1827957,24.2365591 C62.1763235,24.2365591 54.8494624,31.5634203 54.8494624,40.5698925 C54.8494624,49.5763647 62.1763235,56.9032258 71.1827957,56.9032258 Z M71.1827957,56.9032258" id="Shape" stroke="#FFFFFF" fill="#FFFFFF"></path>
            </g>
            <g id="Group" transform="translate(1434.797345, 524.092263) scale(-1, 1) translate(-1434.797345, -524.092263) translate(1395.781757, 481.863626)">
                <path d="M38.0975748,84.4572742 C64.1479784,84.4572742 76.1951495,72.5243674 76.1951495,46.7210453 C76.1951495,20.9177232 64.1479784,0 38.0975748,0 C12.0471712,0 0,20.9177232 0,46.7210453 C0,72.5243674 12.0471712,84.4572742 38.0975748,84.4572742 Z M38.0975748,84.4572742" id="Oval 2" fill="#40A3A2"></path>
                <path d="M39.033898,36.0914297 C38.0906801,38.2047765 36.5257133,39.8045003 34.2907355,41.1124789 C34.0523512,41.2384067 33.8037923,41.3106232 33.5382948,41.3106232 C33.024913,41.3106232 32.5633455,41.0524548 32.338869,40.6239444 C32.2080538,40.4000477 32.1304847,40.1653653 32.1304847,39.9211811 C32.1304847,39.4301424 32.41949,38.992174 32.8803318,38.7733077 C34.4799975,37.9680412 35.7509467,36.6985106 36.4563765,35.2611863 C37.2929603,33.5818513 37.58106,32.2238448 37.58106,29.6573297 C37.58106,28.8999613 38.2271119,28.4584293 38.9888701,28.4584293 C39.7206651,28.4584293 40.3566024,28.9144233 40.3566024,29.6573297 C40.3566024,32.2021591 40.6437652,33.490053 41.5138533,35.1321905 C42.2474655,36.5273161 43.6481733,37.8976135 45.2143243,38.7270389 C45.6716777,38.9444786 45.9006925,39.3890743 45.9006925,39.8576671 C45.9006925,40.1082154 45.8238062,40.3607708 45.6923082,40.585836 L45.6583429,40.6388033 C45.3828656,41.0317141 44.9633719,41.2471093 44.4928824,41.2471093 C44.229386,41.2471093 43.9637789,41.1740012 43.6997842,41.0338721 C41.647677,39.8475901 40.0123201,38.1536697 39.033898,36.0914297 Z M61.0662304,36.0914297 C60.1230125,38.2047765 58.5580457,39.8045003 56.3230679,41.1124789 C56.0846836,41.2384067 55.8361247,41.3106232 55.5706272,41.3106232 C55.0572454,41.3106232 54.5956779,41.0524548 54.3712014,40.6239444 C54.2403862,40.4000477 54.1628171,40.1653653 54.1628171,39.9211811 C54.1628171,39.4301424 54.4518224,38.992174 54.9126642,38.7733077 C56.5123299,37.9680412 57.7832791,36.6985106 58.4887089,35.2611863 C59.3252927,33.5818513 59.6133924,32.2238448 59.6133924,29.6573297 C59.6133924,28.8999613 60.2594443,28.4584293 61.0212025,28.4584293 C61.7529975,28.4584293 62.3889348,28.9144233 62.3889348,29.6573297 C62.3889348,32.2021591 62.6760976,33.490053 63.5461857,35.1321905 C64.2797979,36.5273161 65.6805057,37.8976135 67.2466567,38.7270389 C67.7040101,38.9444786 67.9330249,39.3890743 67.9330249,39.8576671 C67.9330249,40.1082154 67.8561386,40.3607708 67.7246406,40.585836 L67.6906753,40.6388033 C67.415198,41.0317141 66.9957043,41.2471093 66.5252148,41.2471093 C66.2617184,41.2471093 65.9961113,41.1740012 65.7321166,41.0338721 C63.6800094,39.8475901 62.0446525,38.1536697 61.0662304,36.0914297 Z M61.0662304,36.0914297" id="人 人" fill="#FFFFFF"></path>
                <path d="M58.7909332,56.5141028 C55.3048944,53.2798963 51.7292394,53.7438943 50.0314631,55.7316866 C48.3336868,53.7438943 44.7580318,53.2798963 41.271993,56.5141028 C38.0646632,59.4900999 32.5542857,59.6398733 28.3489976,58.741233 C24.1437095,57.8425927 19.9993256,54.709034 23.12864,58.8227097 C26.0288387,62.635341 31.4986134,65.7916652 39.3697526,66.0801288 C45.155069,66.2922079 48.5030584,64.4793508 50.0317531,62.0602112 C51.5604478,64.4793508 54.9081472,66.2922079 60.6940436,66.0801288 C68.5654729,65.7916652 74.0349576,62.635341 76.9351563,58.8227097 C80.0638906,54.709034 75.9197967,57.8425927 71.7145086,58.741233 C67.5092205,59.6398733 61.998843,59.4900999 58.7909332,56.5141028 Z M58.7909332,56.5141028" id="Shape" fill="#FFFFFF"></path>
            </g>
            <g id="Group" transform="translate(1207.184747, 585.179216) rotate(-354.000000) translate(-1207.184747, -585.179216) translate(1149.926014, 519.916574)">
                <path d="M53.5646213,126.831172 C85.9811597,126.831172 100.97239,112.042918 100.97239,80.0652887 C100.97239,48.0876589 85.9811597,22.1646709 53.5646213,22.1646709 C21.1480829,22.1646709 6.15685302,48.0876589 6.15685302,80.0652887 C6.15685302,112.042918 21.1480829,126.831172 53.5646213,126.831172 Z M53.5646213,126.831172" id="Oval 2 copy 2" fill="#40A3A2"></path>
                <path d="M33.2699282,72.3070465 C32.0890956,74.9392874 30.1298834,76.9317945 27.3318716,78.5609235 C27.0334338,78.7177707 26.722258,78.8077187 26.3898767,78.8077187 C25.7471641,78.8077187 25.1693188,78.4861617 24.8882924,77.9524382 C24.7245223,77.6735678 24.6274121,77.3812633 24.6274121,77.0771241 C24.6274121,76.4655198 24.9892234,75.9200161 25.5661601,75.6474111 C27.5688124,74.644426 29.1599382,73.0631852 30.0430793,71.2729518 C31.0904147,69.1812865 31.4510923,67.489846 31.4510923,64.2931695 C31.4510923,63.3498429 32.2598972,62.7999008 33.2135569,62.7999008 C34.1297052,62.7999008 34.9258474,63.3678559 34.9258474,64.2931695 C34.9258474,67.4628357 35.2853519,69.0669487 36.3746321,71.1122834 C37.2930552,72.849957 39.0466284,74.556706 41.0073229,75.5897819 C41.5798925,75.8606099 41.8666005,76.4143681 41.8666005,76.9980155 C41.8666005,77.3100814 41.7703451,77.6246471 41.6057203,77.904973 L41.5631984,77.9709455 C41.218323,78.4603285 40.6931508,78.72861 40.104136,78.72861 C39.7742598,78.72861 39.4417411,78.6375515 39.111241,78.4630163 C36.5421685,76.9854641 34.4948337,74.8756322 33.2699282,72.3070465 Z M72.6737875,72.3070465 C71.4929549,74.9392874 69.5337427,76.9317945 66.735731,78.5609235 C66.4372931,78.7177707 66.1261174,78.8077187 65.793736,78.8077187 C65.1510234,78.8077187 64.5731782,78.4861617 64.2921517,77.9524382 C64.1283816,77.6735678 64.0312714,77.3812633 64.0312714,77.0771241 C64.0312714,76.4655198 64.3930827,75.9200161 64.9700194,75.6474111 C66.9726718,74.644426 68.5637975,73.0631852 69.4469387,71.2729518 C70.494274,69.1812865 70.8549517,67.489846 70.8549517,64.2931695 C70.8549517,63.3498429 71.6637565,62.7999008 72.6174162,62.7999008 C73.5335645,62.7999008 74.3297067,63.3678559 74.3297067,64.2931695 C74.3297067,67.4628357 74.6892113,69.0669487 75.7784914,71.1122834 C76.6969146,72.849957 78.4504877,74.556706 80.4111823,75.5897819 C80.9837518,75.8606099 81.2704599,76.4143681 81.2704599,76.9980155 C81.2704599,77.3100814 81.1742045,77.6246471 81.0095796,77.904973 L80.9670578,77.9709455 C80.6221824,78.4603285 80.0970101,78.72861 79.5079953,78.72861 C79.1781191,78.72861 78.8456004,78.6375515 78.5151003,78.4630163 C75.9460278,76.9854641 73.8986931,74.8756322 72.6737875,72.3070465 Z M72.6737875,72.3070465" id="人 人 copy 3" fill="#FFFFFF"></path>
                <g id="Group copy" transform="translate(-0.000000, 1.231371)" fill="#FFFFFF">
                    <path d="M113.201547,81.3237539 C114.80519,51.5203108 93.349549,5.67980803 69.8529073,4.37145973 C69.8529073,4.37145973 18.3733006,-18.6473748 4.61270541,40.9582056 C-10.4786336,106.32535 15.6723143,119.021029 22.9379028,129.293913 C21.7960341,127.651297 15.7024769,118.569897 11.7619526,106.472245 C17.5833285,111.053423 22.9379035,113.898902 22.9379035,113.898902 C13.028063,102.785776 10.822604,88.4955134 8.63940846,81.4497575 C6.20270372,64.3504809 16.6748606,61.4210603 16.6748606,61.4210603 C16.6748606,61.4210603 50.2752451,66.8790402 72.7959123,35.3076295 C72.7959123,35.3076295 85.6817929,49.2639976 91.7329789,77.0801092 C90.2801485,85.1495628 85.4907633,108.774259 78.161977,115.651575 C78.161977,115.651575 90.0295119,106.359299 93.8687761,97.64677 C93.781161,107.121849 92.2091166,117.313125 88.4194052,128.019514 C88.4194052,128.019514 111.982117,104.00375 113.201547,81.3237539 Z M113.201547,81.3237539" id="Shape"></path>
                </g>
            </g>
            <g id="Group" transform="translate(1506.394975, 612.577907) rotate(-357.000000) translate(-1506.394975, -612.577907) translate(1475.601215, 577.602278)">
                <path d="M30.699569,69.6356078 C51.6913558,69.6356078 61.3991381,59.9026366 61.3991381,38.8563824 C61.3991381,17.8101282 51.6913558,0.748769977 30.699569,0.748769977 C9.70778234,0.748769977 -5.70508109e-12,17.8101282 -5.70508109e-12,38.8563824 C-5.70508109e-12,59.9026366 9.70778234,69.6356078 30.699569,69.6356078 Z M30.699569,69.6356078" id="Oval 2 copy" fill="#40A3A2"></path>
                <path d="M22.0954389,32.8680085 C21.3261115,34.5917413 20.0496599,35.8965421 18.2267198,36.9633834 C18.0322838,37.0660953 17.8295489,37.1249981 17.6129982,37.1249981 C17.1942628,37.1249981 16.8177893,36.9144253 16.634697,36.5649145 C16.5279987,36.3822951 16.4647302,36.1908784 16.4647302,35.9917117 C16.4647302,35.5912003 16.7004548,35.2339752 17.0763364,35.0554588 C18.3810898,34.3986502 19.4177284,33.3631687 19.993106,32.1908277 C20.6754582,30.8210928 20.9104443,29.7134467 20.9104443,27.620091 C20.9104443,27.0023501 21.4373909,26.6422184 22.0587123,26.6422184 C22.6555945,26.6422184 23.1742912,27.0141459 23.1742912,27.620091 C23.1742912,29.6957589 23.408513,30.7462183 24.1181928,32.0856134 C24.7165571,33.2235354 25.8590323,34.3412065 27.1364496,35.0177201 C27.5094859,35.1950728 27.6962798,35.5577035 27.6962798,35.9399071 C27.6962798,36.1442647 27.6335682,36.3502592 27.526313,36.5338317 L27.4986095,36.5770341 C27.2739188,36.8975083 26.9317625,37.0731935 26.5480118,37.0731935 C26.3330933,37.0731935 26.1164532,37.0135635 25.9011282,36.8992685 C24.2273449,35.9316879 22.8934804,34.5500565 22.0954389,32.8680085 Z M42.3204376,33.1815093 C41.5511102,34.9052421 40.2746586,36.2100428 38.4517185,37.2768841 C38.2572825,37.3795961 38.0545475,37.4384988 37.8379969,37.4384988 C37.4192615,37.4384988 37.042788,37.227926 36.8596957,36.8784152 C36.7529974,36.6957959 36.6897289,36.5043792 36.6897289,36.3052125 C36.6897289,35.9047011 36.9254535,35.547476 37.3013351,35.3689595 C38.6060884,34.712151 39.642727,33.6766695 40.2181047,32.5043284 C40.9004569,31.1345935 41.135443,30.0269474 41.135443,27.9335918 C41.135443,27.3158508 41.6623896,26.9557192 42.283711,26.9557192 C42.8805932,26.9557192 43.3992899,27.3276467 43.3992899,27.9335918 C43.3992899,30.0092596 43.6335117,31.059719 44.3431915,32.3991141 C44.9415558,33.5370362 46.0840309,34.6547072 47.3614483,35.3312208 C47.7344846,35.5085736 47.9212785,35.8712042 47.9212785,36.2534079 C47.9212785,36.4577654 47.8585669,36.66376 47.7513117,36.8473325 L47.7236082,36.8905348 C47.4989175,37.211009 47.1567611,37.3866943 46.7730105,37.3866943 C46.558092,37.3866943 46.3414518,37.3270642 46.1261269,37.2127692 C44.4523436,36.2451886 43.118479,34.8635573 42.3204376,33.1815093 Z M42.3204376,33.1815093" id="人 人 copy" fill="#FFFFFF"></path>
            </g>
            <g id="Group" transform="translate(1289.979176, 541.399798)">
                <path d="M96.629569,33.4858637 L91.2467164,33.4858637 C91.4811174,28.1783543 90.7834953,24.4167756 90.7834953,24.4167756 C88.8301532,10.6429237 65.5833344,0 49.9426455,0 C34.2935852,0 11.0383948,10.6540856 9.14923401,24.4167756 C9.14923401,24.4167756 9.13249108,24.5200237 9.10458619,24.6790816 C9.08505277,24.8269775 9.05435739,24.9720829 9.04040495,25.1199788 C8.8562327,26.4454609 8.5130026,29.5345318 8.68601289,33.4858637 L3.3031603,33.4858637 L3.3031603,41.9215109 C2.08371676,42.6777333 0.51267165,43.9278723 0.51267165,45.3454405 L0.51267165,58.6002616 C0.51267165,60.9107862 2.38508953,62.7859945 4.69840462,62.7859945 L8.88413759,62.7859945 C8.88413759,65.866694 11.3844154,68.3669718 14.4651149,68.3669718 C20.0460922,68.3669718 20.0460922,65.866694 20.0460922,62.7859945 L20.0460922,44.6478183 C20.0460922,41.5671189 20.0460922,39.066841 14.4651149,39.066841 C12.7098975,39.066841 11.1639668,39.8928257 10.1398575,41.1597075 L6.09364894,41.1597075 L6.09364894,36.2763524 L11.6746262,36.2763524 C9.65431245,28.6025086 12.72385,23.0912935 12.72385,23.0912935 C17.6965007,14.368226 38.2114312,8.36867545 49.9426455,8.36867545 C61.6626978,8.36867545 82.1776283,14.3570641 87.3372418,23.1387318 C87.2060888,23.0885031 90.2812073,28.5997181 88.2581031,36.2735619 L93.8390803,36.2735619 L93.8390803,41.156917 L89.7454335,41.156917 C88.7213242,39.8900352 87.1753935,39.0640506 85.4201761,39.0640506 C79.8391988,39.0640506 79.8391988,41.5643284 79.8391988,44.6450278 L79.8391988,62.783204 C79.8391988,65.8639035 79.8391988,68.3641813 85.4201761,68.3641813 C88.5008756,68.3641813 91.0011534,65.8639035 91.0011534,62.783204 L95.1868864,62.783204 C97.497411,62.783204 99.3726193,60.9079957 99.3726193,58.5974711 L99.3726193,45.34265 C99.3726193,43.5455753 98.2257285,42.0219685 96.629569,41.4303849 L96.629569,33.4858637 Z M96.629569,33.4858637" id="Shape" fill="#FFFFFF"></path>
                <g transform="translate(8.994588, 9.476040)">
                    <path d="M41.2202987,92.4534229 C69.3920111,92.4534229 82.4201948,79.3914349 82.4201948,51.1466251 C82.4201948,22.9018153 69.3920111,0.00487551482 41.2202987,0.00487551482 C13.0485862,0.00487551482 0.0204025644,22.9018153 0.0204025644,51.1466251 C0.0204025644,79.3914349 13.0485862,92.4534229 41.2202987,92.4534229 Z M41.2202987,92.4534229" id="Oval 2 copy" fill="#40A3A2"></path>
                    <path d="M19.5396747,40.9421145 C18.649735,42.9360877 17.1731662,44.4454502 15.0644323,45.6795469 C14.8395133,45.7983617 14.6049944,45.866499 14.3544937,45.866499 C13.8701105,45.866499 13.4346149,45.6229134 13.2228181,45.2186076 C13.0993921,45.0073578 13.0262045,44.7859315 13.0262045,44.5555402 C13.0262045,44.0922382 13.2988852,43.6790086 13.7336961,43.4725051 C15.2430038,42.7127245 16.4421627,41.5149041 17.1077459,40.1587678 C17.8970748,38.574291 18.1689011,37.2929923 18.1689011,34.8714482 C18.1689011,34.1568601 18.7784604,33.7402683 19.4971902,33.7402683 C20.1876494,33.7402683 20.7876655,34.1705052 20.7876655,34.8714482 C20.7876655,37.2725314 21.0586076,38.4876779 21.8795484,40.0370584 C22.571722,41.3533796 23.8933101,42.646275 25.3709962,43.4288498 C25.8025157,43.6340073 26.0185945,44.0534898 26.0185945,44.4956139 C26.0185945,44.7320098 25.9460512,44.9702995 25.821981,45.1826518 L25.7899342,45.2326272 C25.5300173,45.6033442 25.134219,45.8065727 24.6903054,45.8065727 C24.4416927,45.8065727 24.1910885,45.7375941 23.9420057,45.6053803 C22.005813,44.486106 20.4628301,42.8878677 19.5396747,40.9421145 Z M42.935473,41.3047647 C42.0455333,43.2987379 40.5689644,44.8081005 38.4602306,46.0421971 C38.2353116,46.1610119 38.0007927,46.2291492 37.750292,46.2291492 C37.2659088,46.2291492 36.8304132,45.9855636 36.6186164,45.5812578 C36.4951904,45.3700081 36.4220028,45.1485817 36.4220028,44.9181904 C36.4220028,44.4548884 36.6946835,44.0416588 37.1294944,43.8351553 C38.6388021,43.0753747 39.837961,41.8775543 40.5035442,40.521418 C41.2928731,38.9369412 41.5646994,37.6556425 41.5646994,35.2340984 C41.5646994,34.5195103 42.1742587,34.1029186 42.8929885,34.1029186 C43.5834477,34.1029186 44.1834637,34.5331555 44.1834637,35.2340984 C44.1834637,37.6351816 44.4544059,38.8503282 45.2753467,40.3997086 C45.9675203,41.7160298 47.2891084,43.0089252 48.7667945,43.7915001 C49.198314,43.9966575 49.4143928,44.41614 49.4143928,44.8582641 C49.4143928,45.0946601 49.3418495,45.3329497 49.2177792,45.545302 L49.1857325,45.5952774 C48.9258156,45.9659944 48.5300173,46.1692229 48.0861036,46.1692229 C47.837491,46.1692229 47.5868868,46.1002443 47.337804,45.9680305 C45.4016112,44.8487563 43.8586284,43.2505179 42.935473,41.3047647 Z M42.935473,41.3047647" id="人 人 copy" fill="#FFFFFF"></path>
                </g>
            </g>
            <g id="Group" transform="translate(423.481666, 500.613525) rotate(-5.000000) translate(-423.481666, -500.613525) translate(375.481666, 443.113525)">
                <path d="M47.5701608,114.773163 C80.0977402,114.773163 95.1403217,100.035212 95.1403217,68.1663554 C95.1403217,36.297499 80.0977402,10.4626894 47.5701608,10.4626894 C15.0425814,10.4626894 5.68434189e-14,36.297499 5.68434189e-14,68.1663554 C5.68434189e-14,100.035212 15.0425814,114.773163 47.5701608,114.773163 Z M47.5701608,114.773163" id="Oval 2 copy 2" fill="#40A3A2"></path>
                <path d="M34.5904675,2.548375 C34.5904675,2.548375 80.135411,-14.1319613 91.658893,40.4179387 C93.030067,46.909929 61.0514608,61.1742008 34.1611988,37.2078052 C38.4526738,45.9492576 43.5582196,48.0534674 43.5582196,48.0534674 C34.665807,50.3805377 25.1599647,34.8525946 22.5041488,30.133803 C17.5004478,31.3435535 9.14080903,35.2010652 2.29253787,47.3718457 C2.29253784,37.598109 8.25089446,0.293929413 34.5904675,2.548375 Z M34.5904675,2.548375" id="Shape" fill="#FFFFFF"></path>
                <path d="M33.3619344,60.7230629 C32.1056787,63.3618725 30.0213262,65.3593519 27.0445977,66.9925464 C26.7270978,67.149785 26.3960465,67.2399574 26.042435,67.2399574 C25.3586705,67.2399574 24.7439167,66.917598 24.4449403,66.3825426 C24.2707098,66.1029763 24.1673969,65.8099423 24.1673969,65.5050441 C24.1673969,64.8919136 24.5523181,64.3450486 25.1661054,64.0717633 C27.2966726,63.0662753 28.989428,61.4810885 29.9289778,59.6863876 C31.0432093,57.5895026 31.4269244,55.8938412 31.4269244,52.6891874 C31.4269244,51.7435068 32.2873899,51.1921923 33.3019625,51.1921923 C34.2766277,51.1921923 35.1236217,51.7615647 35.1236217,52.6891874 C35.1236217,55.8667635 35.5060888,57.4748795 36.6649442,59.5253183 C37.6420296,61.2673282 39.5076083,62.9783364 41.5935379,64.0139903 C42.202679,64.2854942 42.5076999,64.8406342 42.5076999,65.4257381 C42.5076999,65.7385828 42.4052964,66.0539335 42.2301565,66.334959 L42.1849186,66.4010961 C41.8180151,66.8917003 41.2592987,67.1606514 40.6326618,67.1606514 C40.2817155,67.1606514 39.9279579,67.0693656 39.5763479,66.8943948 C36.8431817,65.4131555 34.665078,63.2980585 33.3619344,60.7230629 Z M73.4813471,60.7230629 C72.2250915,63.3618725 70.140739,65.3593519 67.1640105,66.9925464 C66.8465106,67.149785 66.5154592,67.2399574 66.1618477,67.2399574 C65.4780833,67.2399574 64.8633295,66.917598 64.5643531,66.3825426 C64.3901226,66.1029763 64.2868097,65.8099423 64.2868097,65.5050441 C64.2868097,64.8919136 64.6717309,64.3450486 65.2855181,64.0717633 C67.4160854,63.0662753 69.1088407,61.4810885 70.0483905,59.6863876 C71.1626221,57.5895026 71.5463372,55.8938412 71.5463372,52.6891874 C71.5463372,51.7435068 72.4068026,51.1921923 73.4213752,51.1921923 C74.3960405,51.1921923 75.2430344,51.7615647 75.2430344,52.6891874 C75.2430344,55.8667635 75.6255015,57.4748795 76.784357,59.5253183 C77.7614424,61.2673282 79.6270211,62.9783364 81.7129506,64.0139903 C82.3220917,64.2854942 82.6271126,64.8406342 82.6271126,65.4257381 C82.6271126,65.7385828 82.5247091,66.0539335 82.3495692,66.334959 L82.3043314,66.4010961 C81.9374278,66.8917003 81.3787114,67.1606514 80.7520746,67.1606514 C80.4011283,67.1606514 80.0473707,67.0693656 79.6957607,66.8943948 C76.9625944,65.4131555 74.7844907,63.2980585 73.4813471,60.7230629 Z M73.4813471,60.7230629" id="人 人 copy 2" fill="#FFFFFF"></path>
            </g>
            <g id="Group" transform="translate(151.432568, 600.451141) rotate(-4.000000) translate(-151.432568, -600.451141) translate(107.432568, 551.951141)">
                <g transform="translate(44.304887, 48.089142) rotate(-357.000000) translate(-44.304887, -48.089142) translate(3.304887, 2.089142)">
                    <path d="M41.3761197,91.5848569 C68.9845494,91.5848569 81.7522394,78.7840385 81.7522394,51.103973 C81.7522394,23.4239076 68.9845494,0.984783408 41.3761197,0.984783408 C13.76769,0.984783408 1,23.4239076 1,51.103973 C1,78.7840385 13.76769,91.5848569 41.3761197,91.5848569 Z M41.3761197,91.5848569" id="Oval 2 copy" fill="#40A3A2"></path>
                    <path d="M40.1165939,40.0704683 C39.1047733,42.3375243 37.4259823,44.0536003 35.0284487,45.4567115 C34.7727261,45.5917985 34.5060888,45.6692675 34.2212811,45.6692675 C33.6705596,45.6692675 33.1754211,45.3923218 32.9346178,44.9326446 C32.7942881,44.6924634 32.7110772,44.4407119 32.7110772,44.1787675 C32.7110772,43.6520143 33.0211026,43.1821913 33.5154627,42.9474062 C35.2314763,42.0835706 36.5948649,40.7217038 37.3516025,39.1798391 C38.2490332,37.3783616 38.5580872,35.9215838 38.5580872,33.1683993 C38.5580872,32.3559454 39.2511281,31.8822997 40.068291,31.8822997 C40.8533114,31.8822997 41.5355021,32.3714594 41.5355021,33.1683993 C41.5355021,35.8983208 41.8435509,37.2798866 42.7769229,39.0414611 C43.5638926,40.5380579 45.0664776,42.0080205 46.7465388,42.8977723 C47.2371567,43.1310268 47.4828284,43.6079592 47.4828284,44.110634 C47.4828284,44.3794054 47.4003499,44.6503297 47.2592878,44.8917646 L47.222852,44.9485843 C46.9273385,45.3700725 46.4773339,45.601134 45.9726245,45.601134 C45.6899634,45.601134 45.4050379,45.5227085 45.1218422,45.3723875 C42.9204799,44.099824 41.1661792,42.2827004 40.1165939,40.0704683 Z M63.7160925,40.4823991 C62.7042719,42.7494551 61.0254809,44.465531 58.6279473,45.8686423 C58.3722248,46.0037292 58.1055875,46.0811982 57.8207797,46.0811982 C57.2700583,46.0811982 56.7749198,45.8042526 56.5341165,45.3445754 C56.3937867,45.1043942 56.3105759,44.8526426 56.3105759,44.5906983 C56.3105759,44.0639451 56.6206013,43.5941221 57.1149613,43.359337 C58.8309749,42.4955014 60.1943636,41.1336346 60.9511011,39.5917699 C61.8485318,37.7902924 62.1575858,36.3335146 62.1575858,33.5803301 C62.1575858,32.7678762 62.8506268,32.2942305 63.6677896,32.2942305 C64.45281,32.2942305 65.1350007,32.7833901 65.1350007,33.5803301 C65.1350007,36.3102515 65.4430496,37.6918174 66.3764215,39.4533919 C67.1633912,40.9499886 68.6659762,42.4199513 70.3460374,43.309703 C70.8366553,43.5429576 71.082327,44.01989 71.082327,44.5225648 C71.082327,44.7913362 70.9998486,45.0622605 70.8587864,45.3036953 L70.8223507,45.3605151 C70.5268372,45.7820033 70.0768326,46.0130648 69.5721232,46.0130648 C69.289462,46.0130648 69.0045366,45.9346393 68.7213408,45.7843183 C66.5199785,44.5117548 64.7656779,42.6946312 63.7160925,40.4823991 Z M63.7160925,40.4823991" id="人 人 copy" fill="#FFFFFF"></path>
                </g>
                <g transform="translate(51.523215, 81.826945) rotate(-350.000000) translate(-51.523215, -81.826945) translate(30.770274, 70.377047)" id="Shape" fill="#FFFFFF">
                    <path d="M25.0051478,14.6916514 C25.0051478,15.478832 24.361091,16.1228888 23.5739105,16.1228888 L17.848961,16.1228888 C17.0617805,16.1228888 16.4177237,15.478832 16.4177237,14.6916514 L16.4177237,8.96670202 C16.4177237,8.17952148 17.0617805,7.53546467 17.848961,7.53546467 L23.5739105,7.53546467 C24.361091,7.53546467 25.0051478,8.17952148 25.0051478,8.96670202 L25.0051478,14.6916514 L25.0051478,14.6916514 Z M25.0051478,14.6916514"></path>
                    <path d="M17.1333424,8.96670202 C17.1333424,8.17952148 16.5579849,7.24778596 15.8523849,6.89570157 L4.10049502,1.02047223 C3.39632624,0.668387844 2.91113678,1.01760976 3.02277329,1.79763412 L1.18649577,8.98244563 C1.29813228,9.76246999 1.38973147,11.0419962 1.38973147,11.830608 L1.38973147,11.830608 C1.38973147,12.6177885 1.28381991,13.8958835 1.15500854,14.6730454 L3.05569175,20.4366382 C2.92688039,21.2138001 3.41922604,21.6088216 4.15058833,21.3168491 L15.8051541,16.6538779 C16.5365164,16.3619054 17.1347736,15.478832 17.1347736,14.6916514 L17.1347736,8.96670202 L17.1333424,8.96670202 Z M17.1333424,8.96670202"></path>
                    <path d="M24.6473385,14.6916514 C24.6473385,15.478832 25.2226959,16.4105675 25.9282959,16.7626519 L37.6801858,22.6378812 C38.3843546,22.9899656 38.8695441,22.6407437 38.7579075,21.8607193 L40.5941851,14.6759078 C40.4825486,13.8958835 40.3909494,12.6163573 40.3909494,11.8277455 L40.3909494,11.8277455 C40.3909494,11.0405649 40.4968609,9.76246999 40.6256723,8.98530811 L38.7249891,3.22171528 C38.8538004,2.4445534 38.3614548,2.04953189 37.6300925,2.34150431 L25.9755267,7.00447561 C25.2441644,7.29644803 24.6459072,8.17952148 24.6459072,8.96670202 L24.6459072,14.6916514 L24.6473385,14.6916514 Z M24.6473385,14.6916514"></path>
                </g>
            </g>
            <g id="Group" transform="translate(190.000000, 501.000000)">
                <g id="Group copy" transform="translate(39.000000, 43.500000) rotate(-357.000000) translate(-39.000000, -43.500000) translate(3.000000, 3.000000)">
                    <path d="M36,81 C60.6161215,81 72,69.555569 72,44.8085106 C72,20.0614523 60.6161215,0 36,0 C11.3838785,0 0,20.0614523 0,44.8085106 C0,69.555569 11.3838785,81 36,81 Z M36,81" id="Oval 2 copy" fill="#40A3A2"></path>
                    <path d="M37.5172853,34.7207834 C36.6268243,36.8584346 35.1493906,38.476556 33.0394216,39.7995769 C32.8143709,39.926953 32.5797146,40 32.3290672,40 C31.8444003,40 31.4086496,39.7388625 31.1967287,39.305424 C31.0732304,39.0789525 31,38.841571 31,38.5945786 C31,38.0978928 31.2728404,37.6548875 31.707906,37.4335041 C33.2180977,36.6189767 34.417959,35.334846 35.0839321,33.8809918 C35.8737233,32.1823437 36.1457088,30.8087195 36.1457088,28.2126883 C36.1457088,27.4466097 36.7556251,27 37.4747759,27 C38.1656395,27 38.766007,27.4612381 38.766007,28.2126883 C38.766007,30.7867843 39.0371079,32.0894896 39.8585295,33.7505125 C40.5511086,35.1616827 41.8734708,36.5477391 43.3520223,37.3867033 C43.7837946,37.6066436 44,38.0563523 44,38.5303342 C44,38.783764 43.9274142,39.0392238 43.8032713,39.2668774 L43.7712057,39.3204539 C43.5111366,39.7178833 43.1151064,39.9357556 42.6709328,39.9357556 C42.4221746,39.9357556 42.1714236,39.8618067 41.9221949,39.7200661 C39.984868,38.5201413 38.4409814,36.80674 37.5172853,34.7207834 Z M57.5172853,33.7207834 C56.6268243,35.8584346 55.1493906,37.476556 53.0394216,38.7995769 C52.8143709,38.926953 52.5797146,39 52.3290672,39 C51.8444003,39 51.4086496,38.7388625 51.1967287,38.305424 C51.0732304,38.0789525 51,37.841571 51,37.5945786 C51,37.0978928 51.2728404,36.6548875 51.707906,36.4335041 C53.2180977,35.6189767 54.417959,34.334846 55.0839321,32.8809918 C55.8737233,31.1823437 56.1457088,29.8087195 56.1457088,27.2126883 C56.1457088,26.4466097 56.7556251,26 57.4747759,26 C58.1656395,26 58.766007,26.4612381 58.766007,27.2126883 C58.766007,29.7867843 59.0371079,31.0894896 59.8585295,32.7505125 C60.5511086,34.1616827 61.8734708,35.5477391 63.3520223,36.3867033 C63.7837946,36.6066436 64,37.0563523 64,37.5303342 C64,37.783764 63.9274142,38.0392238 63.8032713,38.2668774 L63.7712057,38.3204539 C63.5111366,38.7178833 63.1151064,38.9357556 62.6709328,38.9357556 C62.4221746,38.9357556 62.1714236,38.8618067 61.9221949,38.7200661 C59.984868,37.5201413 58.4409814,35.80674 57.5172853,33.7207834 Z M57.5172853,33.7207834" id="人 人 copy" fill="#FFFFFF"></path>
                </g>
            </g>
            <g id="Group" transform="translate(343.223665, 612.969670) scale(-1, 1) translate(-343.223665, -612.969670) translate(273.000000, 544.000000)">
                <path d="M71.4776585,137.939341 C105.775957,137.939341 121.637419,121.99351 121.637419,87.5127734 C121.637419,53.0320369 105.775957,25.0798802 71.4776585,25.0798802 C37.1793598,25.0798802 21.3178982,53.0320369 21.3178982,87.5127734 C21.3178982,121.99351 37.1793598,137.939341 71.4776585,137.939341 Z M71.4776585,137.939341" id="Oval 2 copy 3" fill="#40A3A2"></path>
                <path d="M40.7798157,78.1422477 C39.4913933,81.0290496 37.3536706,83.2142499 34.3007224,85.0009302 C33.9750928,85.1729459 33.6355648,85.2715926 33.272899,85.2715926 C32.5716266,85.2715926 31.9411319,84.9189382 31.6345002,84.3335989 C31.4558085,84.0277593 31.3498502,83.7071863 31.3498502,83.3736341 C31.3498502,82.7028823 31.7446274,82.1046235 32.3741308,81.8056552 C34.5592517,80.7056725 36.2953503,78.9715117 37.2589575,77.0081468 C38.4017192,74.7141988 38.7952594,72.8591811 38.7952594,69.3533575 C38.7952594,68.3188029 39.6777572,67.7156765 40.7183082,67.7156765 C41.7179299,67.7156765 42.5866113,68.3385578 42.5866113,69.3533575 C42.5866113,72.8295586 42.9788716,74.5888036 44.1673998,76.8319404 C45.1695036,78.7376624 47.0828509,80.6094693 49.222191,81.7424527 C49.8469293,82.0394722 50.1597604,82.6467837 50.1597604,83.286875 C50.1597604,83.6291205 50.0547348,83.9741075 49.8751104,84.2815435 L49.8287142,84.3538961 C49.452416,84.8906067 48.8793936,85.1848335 48.2367116,85.1848335 C47.8767792,85.1848335 47.5139636,85.0849688 47.1533505,84.8935545 C44.350201,83.2731099 42.1163265,80.9592385 40.7798157,78.1422477 Z M74.6376539,78.1422477 C73.3492316,81.0290496 71.2115088,83.2142499 68.1585606,85.0009302 C67.8329311,85.1729459 67.493403,85.2715926 67.1307373,85.2715926 C66.4294649,85.2715926 65.7989702,84.9189382 65.4923384,84.3335989 C65.3136467,84.0277593 65.2076885,83.7071863 65.2076885,83.3736341 C65.2076885,82.7028823 65.6024656,82.1046235 66.2319691,81.8056552 C68.4170899,80.7056725 70.1531886,78.9715117 71.1167958,77.0081468 C72.2595574,74.7141988 72.6530976,72.8591811 72.6530976,69.3533575 C72.6530976,68.3188029 73.5355955,67.7156765 74.5761464,67.7156765 C75.5757682,67.7156765 76.4444496,68.3385578 76.4444496,69.3533575 C76.4444496,72.8295586 76.8367098,74.5888036 78.025238,76.8319404 C79.0273419,78.7376624 80.9406891,80.6094693 83.0800293,81.7424527 C83.7047676,82.0394722 84.0175986,82.6467837 84.0175986,83.286875 C84.0175986,83.6291205 83.912573,83.9741075 83.7329486,84.2815435 L83.6865525,84.3538961 C83.3102543,84.8906067 82.7372318,85.1848335 82.0945498,85.1848335 C81.7346175,85.1848335 81.3718018,85.0849688 81.0111888,84.8935545 C78.2080393,83.2731099 75.9741648,80.9592385 74.6376539,78.1422477 Z M74.6376539,78.1422477" id="人 人 copy 3" fill="#FFFFFF"></path>
                <g transform="translate(70.223665, 38.246817) rotate(-356.000000) translate(-70.223665, -38.246817) translate(2.507988, 5.015976)" fill="#FFFFFF">
                    <path d="M67.7156765,66.4616825 C105.114014,66.4616825 135.431353,58.7599466 135.431353,52.577006 C135.431353,46.3940654 105.114014,41.3818023 67.7156765,41.3818023 C30.3173392,41.3818023 -3.89819646e-15,46.3940654 -3.89819646e-15,52.577006 C-3.89819646e-15,58.7599466 30.3173392,66.4616825 67.7156765,66.4616825 Z M67.7156765,66.4616825" id="Oval"></path>
                    <path d="M68.9696705,-1.48966793e-14 C42.6570613,-1.48966793e-14 21.3270765,24.9298862 21.3270765,47.5277468 C21.3270765,47.5277468 19.4603733,57.6837244 68.9696702,57.6837244 C118.478967,57.6837244 116.612264,47.5277468 116.612264,47.5277468 C116.612264,24.9298862 95.2822797,-1.48966793e-14 68.9696705,-1.48966793e-14 Z M68.9696705,-1.48966793e-14" id="Shape"></path>
                </g>
            </g>
            <g id="Devices" transform="translate(387.500000, 403.899798)"></g>
            <g id="Group" transform="translate(61.364175, 569.458971) rotate(-357.000000) translate(-61.364175, -569.458971) translate(24.637078, 533.185295)">
                <path d="M35.6475118,71.7520356 C57.5764963,71.7520356 67.7176916,61.6483271 67.7176916,39.8004029 C67.7176916,17.9524786 57.5764963,0.241238465 35.6475118,0.241238465 C13.7185273,0.241238465 3.57733201,17.9524786 3.57733201,39.8004029 C3.57733201,61.6483271 13.7185273,71.7520356 35.6475118,71.7520356 Z M35.6475118,71.7520356" id="Oval 2 copy" fill="#40A3A2"></path>
                <path d="M71.3900016,26.0635275 L71.3856462,25.9987533 C71.293819,24.5681672 70.1218435,23.4477573 68.716852,23.4477573 C68.6584165,23.4477573 68.5996181,23.449608 68.5673153,23.452199 L41.3636172,24.3923513 C40.6504143,24.439729 39.9981876,24.7680421 39.5267115,25.3162175 C39.0552354,25.8640228 38.8214936,26.566546 38.8683146,27.2938686 L38.9615935,28.7455526 C37.2647878,27.6403184 35.5581823,28.1166869 34.4889224,28.6544984 L34.5763941,27.2938686 C34.6232151,26.566546 34.3894733,25.8640228 33.9179972,25.3162175 C33.446884,24.7680421 32.7942944,24.4400992 32.054233,24.3908707 L4.90388895,24.0725515 C3.42921048,23.970023 2.15451918,25.1274468 2.05906251,26.6176252 L2.05507003,26.6820293 C1.40248035,26.7101598 0.243208131,27.0336611 0.243208131,28.9953962 C0.243208131,31.1407201 1.8935559,30.924189 2.60022559,30.7335675 L3.19183915,40.1809878 C3.14864773,41.6411849 4.25057336,42.8892926 5.65665369,42.9821974 L30.7958746,44.4286995 C30.8550359,44.432771 30.9138343,44.4346217 30.9722698,44.4346217 L30.9726327,44.4346217 C32.3772612,44.4346217 33.5492368,43.3142119 33.641064,41.8836258 L34.2588101,31.6374462 C35.3571062,31.0370813 37.3065274,30.3811955 39.1967871,31.7799496 L39.8054595,41.8836258 C39.8972866,43.3142119 41.0692622,44.4346217 42.4742537,44.4346217 C42.5326891,44.4346217 42.5918505,44.432771 42.6862183,44.4257384 L67.7543004,42.9851586 C69.1948612,42.8889225 70.2978757,41.6411849 70.2546843,40.1806176 L70.8553717,30.04622 C71.3137815,30.2050095 73.4392348,30.8109265 73.4392348,28.3761541 C73.438146,26.147549 71.9387867,26.0316956 71.3900016,26.0635275 L71.3900016,26.0635275 Z M31.7666216,41.9484557 C31.73407,42.4705025 31.3184111,42.8792891 30.8201211,42.8792891 L30.7911466,42.8800392 L6.01508239,41.4144078 C5.49246816,41.3784045 5.09505241,40.903237 5.12903485,40.3553128 L5.1344005,40.2656798 L4.0161992,26.6350828 C4.08201783,26.1497893 4.48086442,25.7796311 4.9548301,25.7796311 L31.8031081,26.1059104 C32.0563667,26.123537 32.2874473,26.2431727 32.4552133,26.4430656 C32.6226215,26.6433336 32.7056103,26.8998566 32.6887979,27.1650053 L31.7666216,41.9484557 L31.7666216,41.9484557 Z M68.5139262,40.3356305 C68.5479083,40.8882215 68.1504963,41.3678145 67.5928319,41.406772 L42.8871157,42.878835 C42.324801,42.8811044 41.9095038,42.4684578 41.8765948,41.9423427 L40.9540696,27.0329762 C40.9376151,26.7651908 41.0206031,26.5068611 41.1880097,26.3048874 C41.3554164,26.1032919 41.5868525,25.9826372 41.8136384,25.9663734 L68.6240998,25.0056745 C69.1617327,25.0034051 69.5605754,25.3763379 69.6267512,25.866143 L68.5082029,40.245234 L68.5139262,40.3356305 Z M68.5139262,40.3356305" id="Shape" fill="#FFFFFF"></path>
                <path d="M25.2280856,33.6568753 C24.4244108,35.4462666 23.0909709,36.8007684 21.1866439,37.9082466 C20.9835271,38.0148709 20.7717409,38.0760173 20.5455221,38.0760173 C20.1080919,38.0760173 19.7148104,37.8574236 19.5235437,37.4945997 C19.4120818,37.3050242 19.3459886,37.1063163 19.3459886,36.8995631 C19.3459886,36.4837959 19.5922374,36.1129638 19.9849006,35.9276475 C21.3479058,35.2458205 22.4308261,34.1708967 23.0318921,32.9539001 C23.7447085,31.5319908 23.9901858,30.3821535 23.9901858,28.2090601 C23.9901858,27.5677889 24.5406584,27.1939395 25.1897192,27.1939395 C25.8132498,27.1939395 26.3551042,27.5800341 26.3551042,28.2090601 C26.3551042,30.3637919 26.5997831,31.4542643 27.3411472,32.8446781 C27.966226,34.0259446 29.159708,35.1861887 30.4941568,35.8884713 C30.8838477,36.0725796 31.0789812,36.4490231 31.0789812,36.8457852 C31.0789812,37.0579269 31.0134698,37.271768 30.9014261,37.4623329 L30.8724857,37.5071809 C30.6377635,37.8398623 30.2803313,38.0222395 29.8794477,38.0222395 C29.654934,38.0222395 29.4286217,37.9603381 29.2036834,37.8416895 C27.4551725,36.8372529 26.0617563,35.402994 25.2280856,33.6568753 Z M57.95825,33.376327 C57.1545752,35.1657183 55.8211353,36.52022 53.9168083,37.6276982 C53.7136915,37.7343226 53.5019053,37.795469 53.2756865,37.795469 C52.8382563,37.795469 52.4449748,37.5768753 52.2537082,37.2140513 C52.1422462,37.0244758 52.076153,36.8257679 52.076153,36.6190147 C52.076153,36.2032475 52.3224018,35.8324154 52.715065,35.6470991 C54.0780703,34.9652721 55.1609905,33.8903483 55.7620565,32.6733518 C56.474873,31.2514425 56.7203502,30.1016052 56.7203502,27.9285118 C56.7203502,27.2872405 57.2708228,26.9133911 57.9198837,26.9133911 C58.5434143,26.9133911 59.0852686,27.2994857 59.0852686,27.9285118 C59.0852686,30.0832436 59.3299475,31.1737159 60.0713116,32.5641298 C60.6963905,33.7453962 61.8898724,34.9056403 63.2243213,35.6079229 C63.6140121,35.7920312 63.8091456,36.1684747 63.8091456,36.5652369 C63.8091456,36.7773786 63.7436342,36.9912196 63.6315905,37.1817846 L63.6026501,37.2266325 C63.3679279,37.5593139 63.0104957,37.7416911 62.6096121,37.7416911 C62.3850984,37.7416911 62.1587861,37.6797898 61.9338478,37.5611411 C60.1853369,36.5567045 58.7919207,35.1224456 57.95825,33.376327 Z M57.95825,33.376327" id="人 人 copy" fill="#FFFFFF"></path>
            </g>
        </g>
    </g>
</svg>